<?xml version="1.0" encoding="UTF-8" standalone="no"?>
<!DOCTYPE svg PUBLIC "-//W3C//DTD SVG 1.1//EN"
 "http://www.w3.org/Graphics/SVG/1.1/DTD/svg11.dtd">
<!-- Generated by graphviz version 2.43.0 (0)
 -->
<!-- Title: IRIS region connectivity Pages: 1 -->
<svg width="536pt" height="476pt"
 viewBox="0.00 0.00 536.00 476.00" xmlns="http://www.w3.org/2000/svg" xmlns:xlink="http://www.w3.org/1999/xlink">
<g id="graph0" class="graph" transform="scale(1 1) rotate(0) translate(4 472)">
<title>IRIS region connectivity</title>
<polygon fill="white" stroke="transparent" points="-4,4 -4,-472 532,-472 532,4 -4,4"/>
<!-- 0 -->
<g id="node1" class="node">
<title>0</title>
<ellipse fill="none" stroke="black" cx="279" cy="-450" rx="27" ry="18"/>
<text text-anchor="middle" x="279" y="-446.3" font-family="Times,serif" font-size="14.00">0</text>
</g>
<!-- 1 -->
<g id="node2" class="node">
<title>1</title>
<ellipse fill="none" stroke="black" cx="163" cy="-378" rx="27" ry="18"/>
<text text-anchor="middle" x="163" y="-374.3" font-family="Times,serif" font-size="14.00">1</text>
</g>
<!-- 0&#45;&gt;1 -->
<g id="edge1" class="edge">
<title>0&#45;&gt;1</title>
<path fill="none" stroke="black" d="M251,-432.1C232.95,-421.21 209.56,-407.09 191.42,-396.15"/>
<polygon fill="black" stroke="black" points="249.21,-435.11 259.58,-437.28 252.83,-429.12 249.21,-435.11"/>
<polygon fill="black" stroke="black" points="192.85,-392.92 182.48,-390.75 189.23,-398.92 192.85,-392.92"/>
</g>
<!-- 2 -->
<g id="node3" class="node">
<title>2</title>
<ellipse fill="none" stroke="black" cx="279" cy="-306" rx="27" ry="18"/>
<text text-anchor="middle" x="279" y="-302.3" font-family="Times,serif" font-size="14.00">2</text>
</g>
<!-- 0&#45;&gt;2 -->
<g id="edge2" class="edge">
<title>0&#45;&gt;2</title>
<path fill="none" stroke="black" d="M279,-421.68C279,-396.6 279,-359.63 279,-334.49"/>
<polygon fill="black" stroke="black" points="275.5,-421.87 279,-431.87 282.5,-421.87 275.5,-421.87"/>
<polygon fill="black" stroke="black" points="282.5,-334.19 279,-324.19 275.5,-334.19 282.5,-334.19"/>
</g>
<!-- 3 -->
<g id="node4" class="node">
<title>3</title>
<ellipse fill="none" stroke="black" cx="355" cy="-234" rx="27" ry="18"/>
<text text-anchor="middle" x="355" y="-230.3" font-family="Times,serif" font-size="14.00">3</text>
</g>
<!-- 0&#45;&gt;3 -->
<g id="edge3" class="edge">
<title>0&#45;&gt;3</title>
<path fill="none" stroke="black" d="M293.66,-424.38C307.65,-399.79 328.29,-360.5 340,-324 346.49,-303.77 350.32,-279.99 352.48,-262.11"/>
<polygon fill="black" stroke="black" points="290.62,-422.64 288.65,-433.05 296.68,-426.14 290.62,-422.64"/>
<polygon fill="black" stroke="black" points="355.96,-262.4 353.59,-252.07 349.01,-261.63 355.96,-262.4"/>
</g>
<!-- 6 -->
<g id="node5" class="node">
<title>6</title>
<ellipse fill="none" stroke="black" cx="245" cy="-162" rx="27" ry="18"/>
<text text-anchor="middle" x="245" y="-158.3" font-family="Times,serif" font-size="14.00">6</text>
</g>
<!-- 0&#45;&gt;6 -->
<g id="edge4" class="edge">
<title>0&#45;&gt;6</title>
<path fill="none" stroke="black" d="M269.14,-422.86C260.28,-397.89 247.94,-358.98 243,-324 236.4,-277.25 239.38,-222.1 242.17,-189.99"/>
<polygon fill="black" stroke="black" points="265.88,-424.13 272.57,-432.34 272.46,-421.75 265.88,-424.13"/>
<polygon fill="black" stroke="black" points="245.66,-190.31 243.1,-180.03 238.69,-189.66 245.66,-190.31"/>
</g>
<!-- 7 -->
<g id="node6" class="node">
<title>7</title>
<ellipse fill="none" stroke="black" cx="338" cy="-90" rx="27" ry="18"/>
<text text-anchor="middle" x="338" y="-86.3" font-family="Times,serif" font-size="14.00">7</text>
</g>
<!-- 0&#45;&gt;7 -->
<g id="edge5" class="edge">
<title>0&#45;&gt;7</title>
<path fill="none" stroke="black" d="M302.68,-428.6C312.37,-419.36 323.13,-407.87 331,-396 369.31,-338.21 377.4,-319.99 391,-252 400.94,-202.31 373.53,-146.63 354.52,-115.49"/>
<polygon fill="black" stroke="black" points="300.19,-426.13 295.21,-435.48 304.94,-431.28 300.19,-426.13"/>
<polygon fill="black" stroke="black" points="357.24,-113.24 348.94,-106.65 351.32,-116.98 357.24,-113.24"/>
</g>
<!-- 9 -->
<g id="node7" class="node">
<title>9</title>
<ellipse fill="none" stroke="black" cx="452" cy="-18" rx="27" ry="18"/>
<text text-anchor="middle" x="452" y="-14.3" font-family="Times,serif" font-size="14.00">9</text>
</g>
<!-- 0&#45;&gt;9 -->
<g id="edge6" class="edge">
<title>0&#45;&gt;9</title>
<path fill="none" stroke="black" d="M315.7,-445.04C384.95,-435.32 528,-403.56 528,-307 528,-307 528,-307 528,-161 528,-114.12 495.4,-67.74 472.91,-41.31"/>
<polygon fill="black" stroke="black" points="315.1,-441.59 305.65,-446.37 316.02,-448.53 315.1,-441.59"/>
<polygon fill="black" stroke="black" points="475.52,-38.98 466.3,-33.77 470.26,-43.6 475.52,-38.98"/>
</g>
<!-- 10 -->
<g id="node8" class="node">
<title>10</title>
<ellipse fill="none" stroke="black" cx="245" cy="-18" rx="27" ry="18"/>
<text text-anchor="middle" x="245" y="-14.3" font-family="Times,serif" font-size="14.00">10</text>
</g>
<!-- 0&#45;&gt;10 -->
<g id="edge7" class="edge">
<title>0&#45;&gt;10</title>
<path fill="none" stroke="black" d="M241.91,-446.96C165.99,-440.57 0,-414.32 0,-307 0,-307 0,-307 0,-161 0,-65.84 140.07,-33.4 208.39,-23.24"/>
<polygon fill="black" stroke="black" points="241.76,-450.45 251.99,-447.73 242.29,-443.48 241.76,-450.45"/>
<polygon fill="black" stroke="black" points="208.9,-26.7 218.31,-21.84 207.92,-19.77 208.9,-26.7"/>
</g>
<!-- 1&#45;&gt;2 -->
<g id="edge8" class="edge">
<title>1&#45;&gt;2</title>
<path fill="none" stroke="black" d="M191,-360.1C209.05,-349.21 232.44,-335.09 250.58,-324.15"/>
<polygon fill="black" stroke="black" points="189.17,-357.12 182.42,-365.28 192.79,-363.11 189.17,-357.12"/>
<polygon fill="black" stroke="black" points="252.77,-326.92 259.52,-318.75 249.15,-320.92 252.77,-326.92"/>
</g>
<!-- 1&#45;&gt;3 -->
<g id="edge9" class="edge">
<title>1&#45;&gt;3</title>
<path fill="none" stroke="black" d="M199.54,-372.58C233.24,-366.75 282.79,-353.52 315,-324 332.89,-307.6 343.28,-281.69 348.97,-262.04"/>
<polygon fill="black" stroke="black" points="198.95,-369.13 189.62,-374.16 200.05,-376.04 198.95,-369.13"/>
<polygon fill="black" stroke="black" points="352.41,-262.71 351.59,-252.15 345.65,-260.92 352.41,-262.71"/>
</g>
<!-- 4 -->
<g id="node9" class="node">
<title>4</title>
<ellipse fill="none" stroke="black" cx="102" cy="-306" rx="27" ry="18"/>
<text text-anchor="middle" x="102" y="-302.3" font-family="Times,serif" font-size="14.00">4</text>
</g>
<!-- 1&#45;&gt;4 -->
<g id="edge10" class="edge">
<title>1&#45;&gt;4</title>
<path fill="none" stroke="black" d="M143.32,-354.41C136.34,-346.4 128.49,-337.4 121.53,-329.41"/>
<polygon fill="black" stroke="black" points="140.85,-356.92 150.06,-362.15 146.13,-352.32 140.85,-356.92"/>
<polygon fill="black" stroke="black" points="124.13,-327.06 114.92,-321.82 118.85,-331.66 124.13,-327.06"/>
</g>
<!-- 5 -->
<g id="node10" class="node">
<title>5</title>
<ellipse fill="none" stroke="black" cx="55" cy="-234" rx="27" ry="18"/>
<text text-anchor="middle" x="55" y="-230.3" font-family="Times,serif" font-size="14.00">5</text>
</g>
<!-- 1&#45;&gt;5 -->
<g id="edge11" class="edge">
<title>1&#45;&gt;5</title>
<path fill="none" stroke="black" d="M128.78,-367.24C107.19,-359.22 80.68,-345.61 66,-324 53.73,-305.94 51.6,-280.95 52.19,-262.05"/>
<polygon fill="black" stroke="black" points="127.7,-370.57 138.3,-370.53 129.99,-363.95 127.7,-370.57"/>
<polygon fill="black" stroke="black" points="55.68,-262.18 52.77,-251.99 48.7,-261.78 55.68,-262.18"/>
</g>
<!-- 8 -->
<g id="node11" class="node">
<title>8</title>
<ellipse fill="none" stroke="black" cx="110" cy="-162" rx="27" ry="18"/>
<text text-anchor="middle" x="110" y="-158.3" font-family="Times,serif" font-size="14.00">8</text>
</g>
<!-- 1&#45;&gt;8 -->
<g id="edge12" class="edge">
<title>1&#45;&gt;8</title>
<path fill="none" stroke="black" d="M156.41,-350.38C146.24,-309.34 126.86,-231.07 116.66,-189.88"/>
<polygon fill="black" stroke="black" points="153.04,-351.34 158.84,-360.21 159.83,-349.66 153.04,-351.34"/>
<polygon fill="black" stroke="black" points="120.01,-188.88 114.21,-180.01 113.22,-190.56 120.01,-188.88"/>
</g>
<!-- 2&#45;&gt;3 -->
<g id="edge13" class="edge">
<title>2&#45;&gt;3</title>
<path fill="none" stroke="black" d="M301.97,-283.84C311.5,-275.06 322.54,-264.9 332.06,-256.13"/>
<polygon fill="black" stroke="black" points="299.36,-281.49 294.38,-290.83 304.11,-286.63 299.36,-281.49"/>
<polygon fill="black" stroke="black" points="334.66,-258.49 339.64,-249.14 329.92,-253.34 334.66,-258.49"/>
</g>
<!-- 2&#45;&gt;6 -->
<g id="edge14" class="edge">
<title>2&#45;&gt;6</title>
<path fill="none" stroke="black" d="M272.61,-278.31C266.55,-253.01 257.5,-215.21 251.43,-189.86"/>
<polygon fill="black" stroke="black" points="269.23,-279.24 274.97,-288.15 276.04,-277.61 269.23,-279.24"/>
<polygon fill="black" stroke="black" points="254.76,-188.74 249.03,-179.82 247.95,-190.37 254.76,-188.74"/>
</g>
<!-- 2&#45;&gt;7 -->
<g id="edge15" class="edge">
<title>2&#45;&gt;7</title>
<path fill="none" stroke="black" d="M286.34,-278.38C297.65,-237.34 319.23,-159.07 330.59,-117.88"/>
<polygon fill="black" stroke="black" points="282.91,-277.64 283.63,-288.21 289.66,-279.5 282.91,-277.64"/>
<polygon fill="black" stroke="black" points="334.03,-118.58 333.31,-108.01 327.28,-116.72 334.03,-118.58"/>
</g>
<!-- 2&#45;&gt;9 -->
<g id="edge16" class="edge">
<title>2&#45;&gt;9</title>
<path fill="none" stroke="black" d="M312.58,-293.7C336.07,-284.74 367.34,-270.64 391,-252 423.28,-226.57 430.94,-216.91 449,-180 470.35,-136.35 472.26,-120.19 466,-72 464.87,-63.28 462.73,-53.95 460.46,-45.58"/>
<polygon fill="black" stroke="black" points="311.2,-290.47 303.03,-297.22 313.63,-297.04 311.2,-290.47"/>
<polygon fill="black" stroke="black" points="463.82,-44.6 457.68,-35.96 457.09,-46.54 463.82,-44.6"/>
</g>
<!-- 2&#45;&gt;10 -->
<g id="edge17" class="edge">
<title>2&#45;&gt;10</title>
<path fill="none" stroke="black" d="M260.9,-281.43C243.7,-257.42 219.01,-218.37 209,-180 196.55,-132.28 217.13,-75.92 231.95,-44.13"/>
<polygon fill="black" stroke="black" points="258.13,-283.57 266.86,-289.57 263.78,-279.43 258.13,-283.57"/>
<polygon fill="black" stroke="black" points="235.12,-45.61 236.32,-35.09 228.81,-42.57 235.12,-45.61"/>
</g>
<!-- 3&#45;&gt;6 -->
<g id="edge18" class="edge">
<title>3&#45;&gt;6</title>
<path fill="none" stroke="black" d="M327.24,-215.34C310.55,-204.71 289.37,-191.24 272.69,-180.62"/>
<polygon fill="black" stroke="black" points="325.52,-218.39 335.84,-220.81 329.28,-212.49 325.52,-218.39"/>
<polygon fill="black" stroke="black" points="274.26,-177.47 263.94,-175.05 270.5,-183.37 274.26,-177.47"/>
</g>
<!-- 3&#45;&gt;7 -->
<g id="edge19" class="edge">
<title>3&#45;&gt;7</title>
<path fill="none" stroke="black" d="M351.73,-205.68C348.71,-180.49 344.26,-143.3 341.25,-118.16"/>
<polygon fill="black" stroke="black" points="348.29,-206.36 352.95,-215.87 355.24,-205.53 348.29,-206.36"/>
<polygon fill="black" stroke="black" points="344.72,-117.7 340.06,-108.19 337.77,-118.53 344.72,-117.7"/>
</g>
<!-- 3&#45;&gt;9 -->
<g id="edge20" class="edge">
<title>3&#45;&gt;9</title>
<path fill="none" stroke="black" d="M386.02,-218.01C401.12,-209.08 418.11,-196.3 428,-180 453.13,-138.58 455.37,-80.43 454.1,-46.53"/>
<polygon fill="black" stroke="black" points="383.97,-215.14 376.94,-223.06 387.38,-221.25 383.97,-215.14"/>
<polygon fill="black" stroke="black" points="457.59,-46.24 453.59,-36.43 450.6,-46.6 457.59,-46.24"/>
</g>
<!-- 3&#45;&gt;10 -->
<g id="edge21" class="edge">
<title>3&#45;&gt;10</title>
<path fill="none" stroke="black" d="M367.57,-207.52C382.33,-173.58 401.53,-113.07 374,-72 353.62,-41.59 312.32,-28.62 281.92,-23.09"/>
<polygon fill="black" stroke="black" points="364.33,-206.19 363.38,-216.75 370.7,-209.09 364.33,-206.19"/>
<polygon fill="black" stroke="black" points="282.11,-19.57 271.68,-21.43 280.99,-26.48 282.11,-19.57"/>
</g>
<!-- 6&#45;&gt;7 -->
<g id="edge25" class="edge">
<title>6&#45;&gt;7</title>
<path fill="none" stroke="black" d="M270.83,-141.56C283.84,-131.77 299.56,-119.93 312.52,-110.18"/>
<polygon fill="black" stroke="black" points="268.38,-139.02 262.49,-147.83 272.59,-144.62 268.38,-139.02"/>
<polygon fill="black" stroke="black" points="314.7,-112.92 320.59,-104.11 310.49,-107.32 314.7,-112.92"/>
</g>
<!-- 6&#45;&gt;9 -->
<g id="edge26" class="edge">
<title>6&#45;&gt;9</title>
<path fill="none" stroke="black" d="M255.72,-135.43C265.22,-115.6 280.87,-88.75 302,-72 335.49,-45.44 383.3,-31.63 415.89,-24.85"/>
<polygon fill="black" stroke="black" points="252.53,-133.98 251.55,-144.53 258.89,-136.89 252.53,-133.98"/>
<polygon fill="black" stroke="black" points="416.75,-28.25 425.89,-22.89 415.41,-21.38 416.75,-28.25"/>
</g>
<!-- 6&#45;&gt;10 -->
<g id="edge27" class="edge">
<title>6&#45;&gt;10</title>
<path fill="none" stroke="black" d="M245,-133.68C245,-108.6 245,-71.63 245,-46.49"/>
<polygon fill="black" stroke="black" points="241.5,-133.87 245,-143.87 248.5,-133.87 241.5,-133.87"/>
<polygon fill="black" stroke="black" points="248.5,-46.19 245,-36.19 241.5,-46.19 248.5,-46.19"/>
</g>
<!-- 7&#45;&gt;9 -->
<g id="edge28" class="edge">
<title>7&#45;&gt;9</title>
<path fill="none" stroke="black" d="M366.01,-71.8C383.61,-61 406.23,-47.1 423.86,-36.28"/>
<polygon fill="black" stroke="black" points="364.03,-68.91 357.34,-77.13 367.69,-74.88 364.03,-68.91"/>
<polygon fill="black" stroke="black" points="425.88,-39.15 432.57,-30.93 422.21,-33.18 425.88,-39.15"/>
</g>
<!-- 7&#45;&gt;10 -->
<g id="edge29" class="edge">
<title>7&#45;&gt;10</title>
<path fill="none" stroke="black" d="M312.17,-69.56C299.16,-59.77 283.44,-47.93 270.48,-38.18"/>
<polygon fill="black" stroke="black" points="310.41,-72.62 320.51,-75.83 314.62,-67.02 310.41,-72.62"/>
<polygon fill="black" stroke="black" points="272.51,-35.32 262.41,-32.11 268.3,-40.92 272.51,-35.32"/>
</g>
<!-- 4&#45;&gt;5 -->
<g id="edge22" class="edge">
<title>4&#45;&gt;5</title>
<path fill="none" stroke="black" d="M85.56,-280.51C80.91,-273.59 75.85,-266.05 71.21,-259.14"/>
<polygon fill="black" stroke="black" points="82.85,-282.76 91.33,-289.12 88.67,-278.86 82.85,-282.76"/>
<polygon fill="black" stroke="black" points="74.1,-257.17 65.62,-250.82 68.29,-261.07 74.1,-257.17"/>
</g>
<!-- 4&#45;&gt;8 -->
<g id="edge23" class="edge">
<title>4&#45;&gt;8</title>
<path fill="none" stroke="black" d="M103.54,-277.68C104.95,-252.6 107.04,-215.63 108.45,-190.49"/>
<polygon fill="black" stroke="black" points="100.03,-277.69 102.96,-287.87 107.02,-278.08 100.03,-277.69"/>
<polygon fill="black" stroke="black" points="111.96,-190.37 109.03,-180.19 104.97,-189.98 111.96,-190.37"/>
</g>
<!-- 5&#45;&gt;8 -->
<g id="edge24" class="edge">
<title>5&#45;&gt;8</title>
<path fill="none" stroke="black" d="M73.17,-209.87C79.19,-202.21 85.88,-193.69 91.9,-186.04"/>
<polygon fill="black" stroke="black" points="70.36,-207.79 66.93,-217.81 75.86,-212.11 70.36,-207.79"/>
<polygon fill="black" stroke="black" points="94.66,-188.18 98.09,-178.16 89.16,-183.86 94.66,-188.18"/>
</g>
</g>
</svg>
