<?xml version="1.0" encoding="UTF-8" standalone="no"?>
<!DOCTYPE svg PUBLIC "-//W3C//DTD SVG 1.1//EN"
 "http://www.w3.org/Graphics/SVG/1.1/DTD/svg11.dtd">
<!-- Generated by graphviz version 2.43.0 (0)
 -->
<!-- Title: IRIS region connectivity Pages: 1 -->
<svg width="601pt" height="476pt"
 viewBox="0.00 0.00 601.00 476.00" xmlns="http://www.w3.org/2000/svg" xmlns:xlink="http://www.w3.org/1999/xlink">
<g id="graph0" class="graph" transform="scale(1 1) rotate(0) translate(4 472)">
<title>IRIS region connectivity</title>
<polygon fill="white" stroke="transparent" points="-4,4 -4,-472 597,-472 597,4 -4,4"/>
<!-- 1 -->
<g id="node1" class="node">
<title>1</title>
<ellipse fill="none" stroke="black" cx="228" cy="-450" rx="27" ry="18"/>
<text text-anchor="middle" x="228" y="-446.3" font-family="Times,serif" font-size="14.00">1</text>
</g>
<!-- 2 -->
<g id="node2" class="node">
<title>2</title>
<ellipse fill="none" stroke="black" cx="162" cy="-378" rx="27" ry="18"/>
<text text-anchor="middle" x="162" y="-374.3" font-family="Times,serif" font-size="14.00">2</text>
</g>
<!-- 1&#45;&gt;2 -->
<g id="edge1" class="edge">
<title>1&#45;&gt;2</title>
<path fill="none" stroke="black" d="M207,-426.73C199.32,-418.58 190.64,-409.37 182.96,-401.23"/>
<polygon fill="black" stroke="black" points="204.6,-429.28 214,-434.15 209.69,-424.48 204.6,-429.28"/>
<polygon fill="black" stroke="black" points="185.38,-398.7 175.98,-393.82 180.29,-403.5 185.38,-398.7"/>
</g>
<!-- 3 -->
<g id="node3" class="node">
<title>3</title>
<ellipse fill="none" stroke="black" cx="283" cy="-306" rx="27" ry="18"/>
<text text-anchor="middle" x="283" y="-302.3" font-family="Times,serif" font-size="14.00">3</text>
</g>
<!-- 1&#45;&gt;3 -->
<g id="edge2" class="edge">
<title>1&#45;&gt;3</title>
<path fill="none" stroke="black" d="M238.07,-422.99C247.94,-397.53 262.89,-358.92 272.8,-333.34"/>
<polygon fill="black" stroke="black" points="234.76,-421.84 234.42,-432.43 241.29,-424.37 234.76,-421.84"/>
<polygon fill="black" stroke="black" points="276.11,-334.49 276.45,-323.9 269.58,-331.96 276.11,-334.49"/>
</g>
<!-- 4 -->
<g id="node4" class="node">
<title>4</title>
<ellipse fill="none" stroke="black" cx="355" cy="-234" rx="27" ry="18"/>
<text text-anchor="middle" x="355" y="-230.3" font-family="Times,serif" font-size="14.00">4</text>
</g>
<!-- 1&#45;&gt;4 -->
<g id="edge3" class="edge">
<title>1&#45;&gt;4</title>
<path fill="none" stroke="black" d="M246.29,-425.89C253.48,-416.67 261.73,-405.91 269,-396 292.04,-364.58 300.47,-358.27 319,-324 329.92,-303.81 339.51,-279.58 346.04,-261.5"/>
<polygon fill="black" stroke="black" points="243.47,-423.82 240.05,-433.85 248.98,-428.14 243.47,-423.82"/>
<polygon fill="black" stroke="black" points="349.4,-262.5 349.43,-251.91 342.8,-260.17 349.4,-262.5"/>
</g>
<!-- 5 -->
<g id="node5" class="node">
<title>5</title>
<ellipse fill="none" stroke="black" cx="207" cy="-234" rx="27" ry="18"/>
<text text-anchor="middle" x="207" y="-230.3" font-family="Times,serif" font-size="14.00">5</text>
</g>
<!-- 1&#45;&gt;5 -->
<g id="edge4" class="edge">
<title>1&#45;&gt;5</title>
<path fill="none" stroke="black" d="M225.32,-421.71C221.29,-380.65 213.71,-303.42 209.68,-262.33"/>
<polygon fill="black" stroke="black" points="221.86,-422.24 226.32,-431.85 228.82,-421.56 221.86,-422.24"/>
<polygon fill="black" stroke="black" points="213.15,-261.84 208.69,-252.23 206.18,-262.53 213.15,-261.84"/>
</g>
<!-- 6 -->
<g id="node6" class="node">
<title>6</title>
<ellipse fill="none" stroke="black" cx="169" cy="-162" rx="27" ry="18"/>
<text text-anchor="middle" x="169" y="-158.3" font-family="Times,serif" font-size="14.00">6</text>
</g>
<!-- 1&#45;&gt;6 -->
<g id="edge5" class="edge">
<title>1&#45;&gt;6</title>
<path fill="none" stroke="black" d="M192.64,-440.78C169.28,-433.32 140.41,-419.73 126,-396 85.33,-329.04 128.97,-232.75 153.99,-187.83"/>
<polygon fill="black" stroke="black" points="191.68,-444.15 202.26,-443.62 193.66,-437.43 191.68,-444.15"/>
<polygon fill="black" stroke="black" points="157.08,-189.48 159.01,-179.06 151,-186 157.08,-189.48"/>
</g>
<!-- 7 -->
<g id="node7" class="node">
<title>7</title>
<ellipse fill="none" stroke="black" cx="224" cy="-90" rx="27" ry="18"/>
<text text-anchor="middle" x="224" y="-86.3" font-family="Times,serif" font-size="14.00">7</text>
</g>
<!-- 1&#45;&gt;7 -->
<g id="edge6" class="edge">
<title>1&#45;&gt;7</title>
<path fill="none" stroke="black" d="M257.54,-433.43C309.08,-405.25 410,-345.2 410,-307 410,-307 410,-307 410,-233 410,-157.62 312.29,-116.92 258.51,-100.22"/>
<polygon fill="black" stroke="black" points="255.65,-430.47 248.52,-438.3 258.98,-436.62 255.65,-430.47"/>
<polygon fill="black" stroke="black" points="259.28,-96.8 248.7,-97.29 257.28,-103.5 259.28,-96.8"/>
</g>
<!-- source1 -->
<g id="node8" class="node">
<title>source1</title>
<ellipse fill="none" stroke="black" cx="141" cy="-18" rx="47.39" ry="18"/>
<text text-anchor="middle" x="141" y="-14.3" font-family="Times,serif" font-size="14.00">source1</text>
</g>
<!-- 1&#45;&gt;source1 -->
<g id="edge7" class="edge">
<title>1&#45;&gt;source1</title>
<path fill="none" stroke="black" d="M191.72,-443.48C127.38,-431.4 0,-396.23 0,-307 0,-307 0,-307 0,-161 0,-102.54 60.92,-59.58 102.67,-37"/>
<polygon fill="black" stroke="black" points="191.39,-446.97 201.85,-445.28 192.62,-440.08 191.39,-446.97"/>
<polygon fill="black" stroke="black" points="104.55,-39.97 111.78,-32.23 101.3,-33.77 104.55,-39.97"/>
</g>
<!-- 2&#45;&gt;3 -->
<g id="edge8" class="edge">
<title>2&#45;&gt;3</title>
<path fill="none" stroke="black" d="M190.45,-360.54C209.8,-349.35 235.3,-334.6 254.63,-323.41"/>
<polygon fill="black" stroke="black" points="188.61,-357.56 181.71,-365.6 192.12,-363.62 188.61,-357.56"/>
<polygon fill="black" stroke="black" points="256.4,-326.43 263.3,-318.4 252.89,-320.38 256.4,-326.43"/>
</g>
<!-- 2&#45;&gt;5 -->
<g id="edge9" class="edge">
<title>2&#45;&gt;5</title>
<path fill="none" stroke="black" d="M170.46,-350.31C178.51,-324.9 190.56,-286.87 198.6,-261.52"/>
<polygon fill="black" stroke="black" points="167.02,-349.56 167.34,-360.15 173.7,-351.68 167.02,-349.56"/>
<polygon fill="black" stroke="black" points="201.98,-262.42 201.67,-251.82 195.31,-260.3 201.98,-262.42"/>
</g>
<!-- 2&#45;&gt;6 -->
<g id="edge10" class="edge">
<title>2&#45;&gt;6</title>
<path fill="none" stroke="black" d="M162.89,-349.71C164.24,-308.65 166.76,-231.42 168.11,-190.33"/>
<polygon fill="black" stroke="black" points="159.39,-349.74 162.56,-359.85 166.39,-349.97 159.39,-349.74"/>
<polygon fill="black" stroke="black" points="171.61,-190.34 168.44,-180.23 164.61,-190.11 171.61,-190.34"/>
</g>
<!-- 2&#45;&gt;7 -->
<g id="edge11" class="edge">
<title>2&#45;&gt;7</title>
<path fill="none" stroke="black" d="M133.15,-360.4C120.48,-351.41 106.93,-339.05 100,-324 93.3,-309.47 98.2,-303.9 100,-288 107.38,-222.76 94.09,-196.89 133,-144 147.34,-124.51 171.17,-111.01 190.85,-102.51"/>
<polygon fill="black" stroke="black" points="131.42,-363.45 141.68,-366.08 135.29,-357.63 131.42,-363.45"/>
<polygon fill="black" stroke="black" points="192.18,-105.75 200.12,-98.74 189.54,-99.27 192.18,-105.75"/>
</g>
<!-- 2&#45;&gt;source1 -->
<g id="edge12" class="edge">
<title>2&#45;&gt;source1</title>
<path fill="none" stroke="black" d="M148.01,-352C133.84,-324.29 114,-277.83 114,-235 114,-235 114,-235 114,-161 114,-120.5 124.73,-74.63 132.66,-46.26"/>
<polygon fill="black" stroke="black" points="144.99,-353.77 152.75,-360.98 151.18,-350.51 144.99,-353.77"/>
<polygon fill="black" stroke="black" points="136.13,-46.87 135.54,-36.29 129.4,-44.93 136.13,-46.87"/>
</g>
<!-- 3&#45;&gt;4 -->
<g id="edge13" class="edge">
<title>3&#45;&gt;4</title>
<path fill="none" stroke="black" d="M305.04,-283.57C313.87,-274.99 324.01,-265.13 332.85,-256.54"/>
<polygon fill="black" stroke="black" points="302.3,-281.35 297.57,-290.83 307.18,-286.37 302.3,-281.35"/>
<polygon fill="black" stroke="black" points="335.47,-258.87 340.2,-249.38 330.59,-253.85 335.47,-258.87"/>
</g>
<!-- 3&#45;&gt;5 -->
<g id="edge14" class="edge">
<title>3&#45;&gt;5</title>
<path fill="none" stroke="black" d="M260.03,-283.84C250.5,-275.06 239.46,-264.9 229.94,-256.13"/>
<polygon fill="black" stroke="black" points="257.89,-286.63 267.62,-290.83 262.64,-281.49 257.89,-286.63"/>
<polygon fill="black" stroke="black" points="232.08,-253.34 222.36,-249.14 227.34,-258.49 232.08,-253.34"/>
</g>
<!-- 3&#45;&gt;6 -->
<g id="edge15" class="edge">
<title>3&#45;&gt;6</title>
<path fill="none" stroke="black" d="M275.18,-278.41C268.71,-259.57 258.12,-234.47 243,-216 230.82,-201.11 213.49,-188.4 198.66,-179.16"/>
<polygon fill="black" stroke="black" points="271.93,-279.72 278.35,-288.15 278.58,-277.55 271.93,-279.72"/>
<polygon fill="black" stroke="black" points="200.2,-176 189.82,-173.87 196.6,-182.01 200.2,-176"/>
</g>
<!-- 3&#45;&gt;7 -->
<g id="edge16" class="edge">
<title>3&#45;&gt;7</title>
<path fill="none" stroke="black" d="M279.18,-277.56C276.44,-259.84 272.3,-236.38 267,-216 257.96,-181.25 243.91,-142.29 234.35,-117.24"/>
<polygon fill="black" stroke="black" points="275.77,-278.39 280.7,-287.77 282.69,-277.36 275.77,-278.39"/>
<polygon fill="black" stroke="black" points="237.54,-115.8 230.68,-107.73 231.01,-118.32 237.54,-115.8"/>
</g>
<!-- 4&#45;&gt;7 -->
<g id="edge17" class="edge">
<title>4&#45;&gt;7</title>
<path fill="none" stroke="black" d="M347.54,-206.6C341.11,-187.49 330.25,-161.97 314,-144 298.08,-126.4 274.91,-112.94 256.07,-103.99"/>
<polygon fill="black" stroke="black" points="344.23,-207.72 350.59,-216.2 350.9,-205.6 344.23,-207.72"/>
<polygon fill="black" stroke="black" points="257.5,-100.79 246.95,-99.84 254.6,-107.17 257.5,-100.79"/>
</g>
<!-- 5&#45;&gt;6 -->
<g id="edge18" class="edge">
<title>5&#45;&gt;6</title>
<path fill="none" stroke="black" d="M193.27,-207.7C189.79,-201.3 186.07,-194.44 182.6,-188.05"/>
<polygon fill="black" stroke="black" points="190.34,-209.65 198.19,-216.76 196.49,-206.31 190.34,-209.65"/>
<polygon fill="black" stroke="black" points="185.61,-186.27 177.77,-179.15 179.46,-189.61 185.61,-186.27"/>
</g>
<!-- 5&#45;&gt;7 -->
<g id="edge19" class="edge">
<title>5&#45;&gt;7</title>
<path fill="none" stroke="black" d="M210.27,-205.68C213.29,-180.49 217.74,-143.3 220.75,-118.16"/>
<polygon fill="black" stroke="black" points="206.76,-205.53 209.05,-215.87 213.71,-206.36 206.76,-205.53"/>
<polygon fill="black" stroke="black" points="224.23,-118.53 221.94,-108.19 217.28,-117.7 224.23,-118.53"/>
</g>
<!-- 6&#45;&gt;7 -->
<g id="edge20" class="edge">
<title>6&#45;&gt;7</title>
<path fill="none" stroke="black" d="M187.17,-137.87C193.19,-130.21 199.88,-121.69 205.9,-114.04"/>
<polygon fill="black" stroke="black" points="184.36,-135.79 180.93,-145.81 189.86,-140.11 184.36,-135.79"/>
<polygon fill="black" stroke="black" points="208.66,-116.18 212.09,-106.16 203.16,-111.86 208.66,-116.18"/>
</g>
<!-- 6&#45;&gt;source1 -->
<g id="edge21" class="edge">
<title>6&#45;&gt;source1</title>
<path fill="none" stroke="black" d="M163.69,-134.06C158.72,-108.88 151.35,-71.47 146.36,-46.2"/>
<polygon fill="black" stroke="black" points="160.25,-134.74 165.62,-143.87 167.12,-133.38 160.25,-134.74"/>
<polygon fill="black" stroke="black" points="149.76,-45.32 144.39,-36.19 142.89,-46.68 149.76,-45.32"/>
</g>
<!-- 7&#45;&gt;source1 -->
<g id="edge22" class="edge">
<title>7&#45;&gt;source1</title>
<path fill="none" stroke="black" d="M199.66,-68.47C189.58,-59.97 177.87,-50.1 167.58,-41.41"/>
<polygon fill="black" stroke="black" points="197.7,-71.4 207.6,-75.17 202.21,-66.05 197.7,-71.4"/>
<polygon fill="black" stroke="black" points="169.58,-38.53 159.68,-34.76 165.07,-43.88 169.58,-38.53"/>
</g>
<!-- target1 -->
<g id="node9" class="node">
<title>target1</title>
<ellipse fill="none" stroke="black" cx="318" cy="-450" rx="45.49" ry="18"/>
<text text-anchor="middle" x="318" y="-446.3" font-family="Times,serif" font-size="14.00">target1</text>
</g>
<!-- annotation -->
<g id="node10" class="node">
<title>annotation</title>
<text text-anchor="middle" x="487" y="-446.9" font-family="Times,serif" font-size="12.00">Nodes: 9, Edges: 22, Coverage: 0.0</text>
</g>
</g>
</svg>
