<?xml version="1.0" encoding="UTF-8" standalone="no"?>
<!DOCTYPE svg PUBLIC "-//W3C//DTD SVG 1.1//EN"
 "http://www.w3.org/Graphics/SVG/1.1/DTD/svg11.dtd">
<!-- Generated by graphviz version 2.43.0 (0)
 -->
<!-- Title: IRIS region connectivity Pages: 1 -->
<svg width="432pt" height="476pt"
 viewBox="0.00 0.00 432.45 476.00" xmlns="http://www.w3.org/2000/svg" xmlns:xlink="http://www.w3.org/1999/xlink">
<g id="graph0" class="graph" transform="scale(1 1) rotate(0) translate(4 472)">
<title>IRIS region connectivity</title>
<polygon fill="white" stroke="transparent" points="-4,4 -4,-472 428.45,-472 428.45,4 -4,4"/>
<!-- 1 -->
<g id="node1" class="node">
<title>1</title>
<ellipse fill="none" stroke="black" cx="167.45" cy="-450" rx="27" ry="18"/>
<text text-anchor="middle" x="167.45" y="-446.3" font-family="Times,serif" font-size="14.00">1</text>
</g>
<!-- 2 -->
<g id="node2" class="node">
<title>2</title>
<ellipse fill="none" stroke="black" cx="89.45" cy="-378" rx="27" ry="18"/>
<text text-anchor="middle" x="89.45" y="-374.3" font-family="Times,serif" font-size="14.00">2</text>
</g>
<!-- 1&#45;&gt;2 -->
<g id="edge1" class="edge">
<title>1&#45;&gt;2</title>
<path fill="none" stroke="black" d="M144.5,-428.41C134.42,-419.35 122.59,-408.74 112.49,-399.68"/>
<polygon fill="black" stroke="black" points="142.26,-431.1 152.04,-435.17 146.94,-425.89 142.26,-431.1"/>
<polygon fill="black" stroke="black" points="114.61,-396.88 104.83,-392.8 109.94,-402.09 114.61,-396.88"/>
</g>
<!-- 3 -->
<g id="node3" class="node">
<title>3</title>
<ellipse fill="none" stroke="black" cx="199.45" cy="-306" rx="27" ry="18"/>
<text text-anchor="middle" x="199.45" y="-302.3" font-family="Times,serif" font-size="14.00">3</text>
</g>
<!-- 1&#45;&gt;3 -->
<g id="edge2" class="edge">
<title>1&#45;&gt;3</title>
<path fill="none" stroke="black" d="M173.47,-422.31C179.17,-397.01 187.69,-359.21 193.4,-333.86"/>
<polygon fill="black" stroke="black" points="170.03,-421.63 171.25,-432.15 176.86,-423.17 170.03,-421.63"/>
<polygon fill="black" stroke="black" points="196.88,-334.35 195.66,-323.82 190.05,-332.81 196.88,-334.35"/>
</g>
<!-- 4 -->
<g id="node4" class="node">
<title>4</title>
<ellipse fill="none" stroke="black" cx="292.45" cy="-234" rx="27" ry="18"/>
<text text-anchor="middle" x="292.45" y="-230.3" font-family="Times,serif" font-size="14.00">4</text>
</g>
<!-- 1&#45;&gt;4 -->
<g id="edge3" class="edge">
<title>1&#45;&gt;4</title>
<path fill="none" stroke="black" d="M181.94,-424.2C205.99,-383.03 253.89,-301.02 277.95,-259.82"/>
<polygon fill="black" stroke="black" points="178.87,-422.52 176.85,-432.92 184.91,-426.05 178.87,-422.52"/>
<polygon fill="black" stroke="black" points="281.1,-261.38 283.12,-250.98 275.05,-257.85 281.1,-261.38"/>
</g>
<!-- 5 -->
<g id="node5" class="node">
<title>5</title>
<ellipse fill="none" stroke="black" cx="144.45" cy="-234" rx="27" ry="18"/>
<text text-anchor="middle" x="144.45" y="-230.3" font-family="Times,serif" font-size="14.00">5</text>
</g>
<!-- 1&#45;&gt;5 -->
<g id="edge4" class="edge">
<title>1&#45;&gt;5</title>
<path fill="none" stroke="black" d="M164.52,-421.71C160.11,-380.65 151.81,-303.42 147.39,-262.33"/>
<polygon fill="black" stroke="black" points="161.06,-422.28 165.61,-431.85 168.02,-421.53 161.06,-422.28"/>
<polygon fill="black" stroke="black" points="150.85,-261.8 146.3,-252.23 143.89,-262.55 150.85,-261.8"/>
</g>
<!-- 6 -->
<g id="node6" class="node">
<title>6</title>
<ellipse fill="none" stroke="black" cx="54.45" cy="-162" rx="27" ry="18"/>
<text text-anchor="middle" x="54.45" y="-158.3" font-family="Times,serif" font-size="14.00">6</text>
</g>
<!-- 1&#45;&gt;6 -->
<g id="edge5" class="edge">
<title>1&#45;&gt;6</title>
<path fill="none" stroke="black" d="M131.57,-442.85C104.98,-436.22 70.52,-422.76 53.45,-396 12.38,-331.61 32.43,-235.47 45.79,-189.43"/>
<polygon fill="black" stroke="black" points="130.8,-446.27 141.32,-445.08 132.35,-439.44 130.8,-446.27"/>
<polygon fill="black" stroke="black" points="49.21,-190.21 48.76,-179.62 42.51,-188.18 49.21,-190.21"/>
</g>
<!-- 7 -->
<g id="node7" class="node">
<title>7</title>
<ellipse fill="none" stroke="black" cx="236.45" cy="-90" rx="27" ry="18"/>
<text text-anchor="middle" x="236.45" y="-86.3" font-family="Times,serif" font-size="14.00">7</text>
</g>
<!-- 1&#45;&gt;7 -->
<g id="edge6" class="edge">
<title>1&#45;&gt;7</title>
<path fill="none" stroke="black" d="M197.04,-433.17C248.13,-404.82 347.45,-344.85 347.45,-307 347.45,-307 347.45,-307 347.45,-233 347.45,-178.71 296.47,-132.79 263.61,-108.82"/>
<polygon fill="black" stroke="black" points="195.18,-430.2 188.1,-438.08 198.55,-436.33 195.18,-430.2"/>
<polygon fill="black" stroke="black" points="265.47,-105.85 255.28,-102.94 261.43,-111.57 265.47,-105.85"/>
</g>
<!-- 2&#45;&gt;3 -->
<g id="edge7" class="edge">
<title>2&#45;&gt;3</title>
<path fill="none" stroke="black" d="M117.21,-359.34C133.9,-348.71 155.08,-335.24 171.76,-324.62"/>
<polygon fill="black" stroke="black" points="115.17,-356.49 108.61,-364.81 118.93,-362.39 115.17,-356.49"/>
<polygon fill="black" stroke="black" points="173.95,-327.37 180.51,-319.05 170.2,-321.47 173.95,-327.37"/>
</g>
<!-- 2&#45;&gt;5 -->
<g id="edge8" class="edge">
<title>2&#45;&gt;5</title>
<path fill="none" stroke="black" d="M99.53,-350.99C109.39,-325.53 124.34,-286.92 134.25,-261.34"/>
<polygon fill="black" stroke="black" points="96.22,-349.84 95.87,-360.43 102.74,-352.37 96.22,-349.84"/>
<polygon fill="black" stroke="black" points="137.56,-262.49 137.91,-251.9 131.03,-259.96 137.56,-262.49"/>
</g>
<!-- 2&#45;&gt;6 -->
<g id="edge9" class="edge">
<title>2&#45;&gt;6</title>
<path fill="none" stroke="black" d="M85.03,-349.97C78.31,-308.87 65.59,-231.11 58.87,-190.02"/>
<polygon fill="black" stroke="black" points="81.58,-350.55 86.65,-359.85 88.49,-349.42 81.58,-350.55"/>
<polygon fill="black" stroke="black" points="62.29,-189.24 57.22,-179.94 55.38,-190.37 62.29,-189.24"/>
</g>
<!-- 2&#45;&gt;7 -->
<g id="edge10" class="edge">
<title>2&#45;&gt;7</title>
<path fill="none" stroke="black" d="M70.05,-353.97C34.67,-309.05 -32.24,-208.5 18.45,-144 40.56,-115.88 143.15,-100.83 199.37,-94.57"/>
<polygon fill="black" stroke="black" points="67.47,-356.34 76.46,-361.94 72.92,-351.95 67.47,-356.34"/>
<polygon fill="black" stroke="black" points="200.05,-98.01 209.62,-93.47 199.31,-91.05 200.05,-98.01"/>
</g>
<!-- 3&#45;&gt;4 -->
<g id="edge11" class="edge">
<title>3&#45;&gt;4</title>
<path fill="none" stroke="black" d="M225.28,-285.56C238.29,-275.77 254.01,-263.93 266.98,-254.18"/>
<polygon fill="black" stroke="black" points="222.83,-283.02 216.95,-291.83 227.04,-288.62 222.83,-283.02"/>
<polygon fill="black" stroke="black" points="269.15,-256.92 275.04,-248.11 264.94,-251.32 269.15,-256.92"/>
</g>
<!-- 3&#45;&gt;5 -->
<g id="edge12" class="edge">
<title>3&#45;&gt;5</title>
<path fill="none" stroke="black" d="M181.28,-281.87C175.26,-274.21 168.57,-265.69 162.56,-258.04"/>
<polygon fill="black" stroke="black" points="178.59,-284.11 187.52,-289.81 184.09,-279.79 178.59,-284.11"/>
<polygon fill="black" stroke="black" points="165.29,-255.86 156.36,-250.16 159.79,-260.18 165.29,-255.86"/>
</g>
<!-- 3&#45;&gt;6 -->
<g id="edge13" class="edge">
<title>3&#45;&gt;6</title>
<path fill="none" stroke="black" d="M200.1,-277.88C199.16,-258.57 194.89,-233.12 180.45,-216 152.69,-183.06 129.95,-197.21 90.45,-180 88.65,-179.21 86.8,-178.39 84.93,-177.55"/>
<polygon fill="black" stroke="black" points="196.6,-277.96 200.32,-287.88 203.6,-277.8 196.6,-277.96"/>
<polygon fill="black" stroke="black" points="86.22,-174.29 75.68,-173.28 83.29,-180.65 86.22,-174.29"/>
</g>
<!-- 3&#45;&gt;7 -->
<g id="edge14" class="edge">
<title>3&#45;&gt;7</title>
<path fill="none" stroke="black" d="M204.25,-278.07C208.75,-252.76 215.63,-213.82 221.45,-180 225.02,-159.28 228.97,-135.84 231.92,-118.21"/>
<polygon fill="black" stroke="black" points="200.79,-277.57 202.48,-288.02 207.68,-278.79 200.79,-277.57"/>
<polygon fill="black" stroke="black" points="235.42,-118.51 233.61,-108.07 228.51,-117.35 235.42,-118.51"/>
</g>
<!-- 4&#45;&gt;7 -->
<g id="edge15" class="edge">
<title>4&#45;&gt;7</title>
<path fill="none" stroke="black" d="M287.69,-205.92C283.98,-187.91 278.02,-163.99 269.45,-144 265.21,-134.09 259.28,-123.88 253.62,-115.1"/>
<polygon fill="black" stroke="black" points="284.26,-206.62 289.61,-215.76 291.13,-205.28 284.26,-206.62"/>
<polygon fill="black" stroke="black" points="256.36,-112.91 247.89,-106.54 250.54,-116.8 256.36,-112.91"/>
</g>
<!-- 5&#45;&gt;6 -->
<g id="edge16" class="edge">
<title>5&#45;&gt;6</title>
<path fill="none" stroke="black" d="M119.46,-213.56C106.99,-203.86 91.94,-192.16 79.47,-182.46"/>
<polygon fill="black" stroke="black" points="117.48,-216.46 127.52,-219.83 121.78,-210.93 117.48,-216.46"/>
<polygon fill="black" stroke="black" points="81.35,-179.48 71.3,-176.11 77.05,-185.01 81.35,-179.48"/>
</g>
<!-- 5&#45;&gt;7 -->
<g id="edge17" class="edge">
<title>5&#45;&gt;7</title>
<path fill="none" stroke="black" d="M169.03,-212.71C179.09,-203.49 190.27,-191.98 198.45,-180 211.72,-160.57 221.85,-135.76 228.3,-117.27"/>
<polygon fill="black" stroke="black" points="166.45,-210.32 161.28,-219.57 171.09,-215.56 166.45,-210.32"/>
<polygon fill="black" stroke="black" points="231.64,-118.32 231.5,-107.73 225,-116.09 231.64,-118.32"/>
</g>
<!-- target1 -->
<g id="node8" class="node">
<title>target1</title>
<ellipse fill="none" stroke="black" cx="144.45" cy="-162" rx="45.49" ry="18"/>
<text text-anchor="middle" x="144.45" y="-158.3" font-family="Times,serif" font-size="14.00">target1</text>
</g>
<!-- 5&#45;&gt;target1 -->
<g id="edge18" class="edge">
<title>5&#45;&gt;target1</title>
<path fill="none" stroke="black" d="M144.45,-205.67C144.45,-200.69 144.45,-195.49 144.45,-190.51"/>
<polygon fill="black" stroke="black" points="140.95,-205.7 144.45,-215.7 147.95,-205.7 140.95,-205.7"/>
<polygon fill="black" stroke="black" points="147.95,-190.1 144.45,-180.1 140.95,-190.1 147.95,-190.1"/>
</g>
<!-- 6&#45;&gt;7 -->
<g id="edge19" class="edge">
<title>6&#45;&gt;7</title>
<path fill="none" stroke="black" d="M84.91,-146.38C86.77,-145.56 88.63,-144.76 90.45,-144 128.58,-128.12 173.36,-112.26 203.17,-102.09"/>
<polygon fill="black" stroke="black" points="83.28,-143.27 75.63,-150.6 86.18,-149.65 83.28,-143.27"/>
<polygon fill="black" stroke="black" points="204.33,-105.4 212.68,-98.87 202.08,-98.77 204.33,-105.4"/>
</g>
<!-- source1 -->
<g id="node9" class="node">
<title>source1</title>
<ellipse fill="none" stroke="black" cx="236.45" cy="-18" rx="47.39" ry="18"/>
<text text-anchor="middle" x="236.45" y="-14.3" font-family="Times,serif" font-size="14.00">source1</text>
</g>
<!-- 7&#45;&gt;source1 -->
<g id="edge20" class="edge">
<title>7&#45;&gt;source1</title>
<path fill="none" stroke="black" d="M236.45,-61.67C236.45,-56.69 236.45,-51.49 236.45,-46.51"/>
<polygon fill="black" stroke="black" points="232.95,-61.7 236.45,-71.7 239.95,-61.7 232.95,-61.7"/>
<polygon fill="black" stroke="black" points="239.95,-46.1 236.45,-36.1 232.95,-46.1 239.95,-46.1"/>
</g>
<!-- annotation -->
<g id="node10" class="node">
<title>annotation</title>
<text text-anchor="middle" x="318.45" y="-446.9" font-family="Times,serif" font-size="12.00">Nodes: 9, Edges: 20, Coverage: 0.0</text>
</g>
</g>
</svg>
