<?xml version="1.0" encoding="UTF-8" standalone="no"?>
<!DOCTYPE svg PUBLIC "-//W3C//DTD SVG 1.1//EN"
 "http://www.w3.org/Graphics/SVG/1.1/DTD/svg11.dtd">
<!-- Generated by graphviz version 2.43.0 (0)
 -->
<!-- Title: IRIS region connectivity Pages: 1 -->
<svg width="542pt" height="404pt"
 viewBox="0.00 0.00 542.34 404.00" xmlns="http://www.w3.org/2000/svg" xmlns:xlink="http://www.w3.org/1999/xlink">
<g id="graph0" class="graph" transform="scale(1 1) rotate(0) translate(4 400)">
<title>IRIS region connectivity</title>
<polygon fill="white" stroke="transparent" points="-4,4 -4,-400 538.34,-400 538.34,4 -4,4"/>
<!-- 1 -->
<g id="node1" class="node">
<title>1</title>
<ellipse fill="none" stroke="black" cx="169.34" cy="-378" rx="27" ry="18"/>
<text text-anchor="middle" x="169.34" y="-374.3" font-family="Times,serif" font-size="14.00">1</text>
</g>
<!-- 2 -->
<g id="node2" class="node">
<title>2</title>
<ellipse fill="none" stroke="black" cx="91.34" cy="-306" rx="27" ry="18"/>
<text text-anchor="middle" x="91.34" y="-302.3" font-family="Times,serif" font-size="14.00">2</text>
</g>
<!-- 1&#45;&gt;2 -->
<g id="edge1" class="edge">
<title>1&#45;&gt;2</title>
<path fill="none" stroke="black" d="M146.4,-356.41C136.31,-347.35 124.48,-336.74 114.39,-327.68"/>
<polygon fill="black" stroke="black" points="144.15,-359.1 153.93,-363.17 148.83,-353.89 144.15,-359.1"/>
<polygon fill="black" stroke="black" points="116.5,-324.88 106.72,-320.8 111.83,-330.09 116.5,-324.88"/>
</g>
<!-- 3 -->
<g id="node3" class="node">
<title>3</title>
<ellipse fill="none" stroke="black" cx="201.34" cy="-234" rx="27" ry="18"/>
<text text-anchor="middle" x="201.34" y="-230.3" font-family="Times,serif" font-size="14.00">3</text>
</g>
<!-- 1&#45;&gt;3 -->
<g id="edge2" class="edge">
<title>1&#45;&gt;3</title>
<path fill="none" stroke="black" d="M175.36,-350.31C181.06,-325.01 189.58,-287.21 195.29,-261.86"/>
<polygon fill="black" stroke="black" points="171.92,-349.63 173.14,-360.15 178.75,-351.17 171.92,-349.63"/>
<polygon fill="black" stroke="black" points="198.77,-262.35 197.55,-251.82 191.94,-260.81 198.77,-262.35"/>
</g>
<!-- 4 -->
<g id="node4" class="node">
<title>4</title>
<ellipse fill="none" stroke="black" cx="295.34" cy="-162" rx="27" ry="18"/>
<text text-anchor="middle" x="295.34" y="-158.3" font-family="Times,serif" font-size="14.00">4</text>
</g>
<!-- 1&#45;&gt;4 -->
<g id="edge3" class="edge">
<title>1&#45;&gt;4</title>
<path fill="none" stroke="black" d="M183.94,-352.2C208.19,-311.03 256.47,-229.02 280.73,-187.82"/>
<polygon fill="black" stroke="black" points="180.87,-350.52 178.81,-360.92 186.9,-354.07 180.87,-350.52"/>
<polygon fill="black" stroke="black" points="283.88,-189.37 285.94,-178.98 277.85,-185.82 283.88,-189.37"/>
</g>
<!-- 5 -->
<g id="node5" class="node">
<title>5</title>
<ellipse fill="none" stroke="black" cx="146.34" cy="-162" rx="27" ry="18"/>
<text text-anchor="middle" x="146.34" y="-158.3" font-family="Times,serif" font-size="14.00">5</text>
</g>
<!-- 1&#45;&gt;5 -->
<g id="edge4" class="edge">
<title>1&#45;&gt;5</title>
<path fill="none" stroke="black" d="M166.41,-349.71C162,-308.65 153.7,-231.42 149.28,-190.33"/>
<polygon fill="black" stroke="black" points="162.95,-350.28 167.5,-359.85 169.91,-349.53 162.95,-350.28"/>
<polygon fill="black" stroke="black" points="152.74,-189.8 148.2,-180.23 145.78,-190.55 152.74,-189.8"/>
</g>
<!-- 6 -->
<g id="node6" class="node">
<title>6</title>
<ellipse fill="none" stroke="black" cx="54.34" cy="-90" rx="27" ry="18"/>
<text text-anchor="middle" x="54.34" y="-86.3" font-family="Times,serif" font-size="14.00">6</text>
</g>
<!-- 1&#45;&gt;6 -->
<g id="edge5" class="edge">
<title>1&#45;&gt;6</title>
<path fill="none" stroke="black" d="M133.14,-370.75C106.62,-364.07 72.39,-350.6 55.34,-324 14.13,-259.7 33.16,-163.52 45.99,-117.45"/>
<polygon fill="black" stroke="black" points="132.71,-374.24 143.24,-373.06 134.28,-367.41 132.71,-374.24"/>
<polygon fill="black" stroke="black" points="49.42,-118.21 48.85,-107.63 42.7,-116.26 49.42,-118.21"/>
</g>
<!-- 7 -->
<g id="node7" class="node">
<title>7</title>
<ellipse fill="none" stroke="black" cx="240.34" cy="-18" rx="27" ry="18"/>
<text text-anchor="middle" x="240.34" y="-14.3" font-family="Times,serif" font-size="14.00">7</text>
</g>
<!-- 1&#45;&gt;7 -->
<g id="edge6" class="edge">
<title>1&#45;&gt;7</title>
<path fill="none" stroke="black" d="M199.1,-361.19C250.47,-332.89 350.34,-272.98 350.34,-235 350.34,-235 350.34,-235 350.34,-161 350.34,-107.18 300.35,-61.39 267.77,-37.26"/>
<polygon fill="black" stroke="black" points="197.21,-358.23 190.11,-366.1 200.56,-364.38 197.21,-358.23"/>
<polygon fill="black" stroke="black" points="269.67,-34.32 259.5,-31.33 265.58,-40 269.67,-34.32"/>
</g>
<!-- 2&#45;&gt;3 -->
<g id="edge7" class="edge">
<title>2&#45;&gt;3</title>
<path fill="none" stroke="black" d="M119.1,-287.34C135.79,-276.71 156.97,-263.24 173.65,-252.62"/>
<polygon fill="black" stroke="black" points="117.06,-284.49 110.5,-292.81 120.82,-290.39 117.06,-284.49"/>
<polygon fill="black" stroke="black" points="175.85,-255.37 182.4,-247.05 172.09,-249.47 175.85,-255.37"/>
</g>
<!-- 2&#45;&gt;5 -->
<g id="edge8" class="edge">
<title>2&#45;&gt;5</title>
<path fill="none" stroke="black" d="M101.42,-278.99C111.28,-253.53 126.23,-214.92 136.14,-189.34"/>
<polygon fill="black" stroke="black" points="98.11,-277.84 97.76,-288.43 104.64,-280.37 98.11,-277.84"/>
<polygon fill="black" stroke="black" points="139.45,-190.49 139.8,-179.9 132.92,-187.96 139.45,-190.49"/>
</g>
<!-- 2&#45;&gt;6 -->
<g id="edge9" class="edge">
<title>2&#45;&gt;6</title>
<path fill="none" stroke="black" d="M86.67,-277.97C79.56,-236.87 66.12,-159.11 59.02,-118.02"/>
<polygon fill="black" stroke="black" points="83.23,-278.59 88.38,-287.85 90.12,-277.4 83.23,-278.59"/>
<polygon fill="black" stroke="black" points="62.42,-117.19 57.27,-107.94 55.53,-118.39 62.42,-117.19"/>
</g>
<!-- 2&#45;&gt;7 -->
<g id="edge10" class="edge">
<title>2&#45;&gt;7</title>
<path fill="none" stroke="black" d="M71.6,-281.98C35.58,-237.07 -32.61,-136.55 18.34,-72 40.99,-43.31 146.32,-28.44 203.38,-22.38"/>
<polygon fill="black" stroke="black" points="69.08,-284.42 78.13,-289.94 74.5,-279.99 69.08,-284.42"/>
<polygon fill="black" stroke="black" points="203.85,-25.85 213.44,-21.35 203.14,-18.88 203.85,-25.85"/>
</g>
<!-- 3&#45;&gt;4 -->
<g id="edge11" class="edge">
<title>3&#45;&gt;4</title>
<path fill="none" stroke="black" d="M227.06,-213.85C240.36,-203.95 256.54,-191.89 269.82,-182.01"/>
<polygon fill="black" stroke="black" points="224.95,-211.05 219.02,-219.83 229.14,-216.67 224.95,-211.05"/>
<polygon fill="black" stroke="black" points="272.13,-184.65 278.06,-175.87 267.95,-179.04 272.13,-184.65"/>
</g>
<!-- 3&#45;&gt;5 -->
<g id="edge12" class="edge">
<title>3&#45;&gt;5</title>
<path fill="none" stroke="black" d="M183.17,-209.87C177.15,-202.21 170.46,-193.69 164.45,-186.04"/>
<polygon fill="black" stroke="black" points="180.48,-212.11 189.41,-217.81 185.98,-207.79 180.48,-212.11"/>
<polygon fill="black" stroke="black" points="167.19,-183.86 158.25,-178.16 161.68,-188.18 167.19,-183.86"/>
</g>
<!-- 3&#45;&gt;6 -->
<g id="edge13" class="edge">
<title>3&#45;&gt;6</title>
<path fill="none" stroke="black" d="M202.03,-205.84C201.11,-186.52 196.84,-161.07 182.34,-144 153.92,-110.53 130.66,-125.38 90.34,-108 88.53,-107.22 86.68,-106.4 84.82,-105.57"/>
<polygon fill="black" stroke="black" points="198.53,-205.93 202.24,-215.85 205.53,-205.78 198.53,-205.93"/>
<polygon fill="black" stroke="black" points="86.1,-102.31 75.55,-101.31 83.18,-108.67 86.1,-102.31"/>
</g>
<!-- 3&#45;&gt;7 -->
<g id="edge14" class="edge">
<title>3&#45;&gt;7</title>
<path fill="none" stroke="black" d="M206.69,-206.09C211.68,-180.8 219.24,-141.87 225.34,-108 229.07,-87.31 233.01,-63.87 235.92,-46.23"/>
<polygon fill="black" stroke="black" points="203.23,-205.55 204.73,-216.04 210.1,-206.91 203.23,-205.55"/>
<polygon fill="black" stroke="black" points="239.42,-46.52 237.58,-36.08 232.51,-45.38 239.42,-46.52"/>
</g>
<!-- 4&#45;&gt;7 -->
<g id="edge15" class="edge">
<title>4&#45;&gt;7</title>
<path fill="none" stroke="black" d="M290.94,-133.91C287.47,-115.9 281.78,-91.98 273.34,-72 269.15,-62.07 263.23,-51.86 257.57,-43.08"/>
<polygon fill="black" stroke="black" points="287.5,-134.55 292.74,-143.76 294.39,-133.29 287.5,-134.55"/>
<polygon fill="black" stroke="black" points="260.31,-40.88 251.83,-34.52 254.49,-44.78 260.31,-40.88"/>
</g>
<!-- 5&#45;&gt;6 -->
<g id="edge16" class="edge">
<title>5&#45;&gt;6</title>
<path fill="none" stroke="black" d="M120.79,-141.56C107.92,-131.77 92.37,-119.93 79.55,-110.18"/>
<polygon fill="black" stroke="black" points="118.96,-144.56 129.04,-147.83 123.2,-138.99 118.96,-144.56"/>
<polygon fill="black" stroke="black" points="81.65,-107.38 71.57,-104.11 77.41,-112.95 81.65,-107.38"/>
</g>
<!-- 5&#45;&gt;7 -->
<g id="edge17" class="edge">
<title>5&#45;&gt;7</title>
<path fill="none" stroke="black" d="M171.33,-141.33C181.91,-132.06 193.75,-120.34 202.34,-108 215.79,-88.69 225.9,-63.87 232.3,-45.35"/>
<polygon fill="black" stroke="black" points="168.94,-138.77 163.56,-147.9 173.46,-144.11 168.94,-138.77"/>
<polygon fill="black" stroke="black" points="235.64,-46.37 235.47,-35.78 229,-44.17 235.64,-46.37"/>
</g>
<!-- source1 -->
<g id="node8" class="node">
<title>source1</title>
<ellipse fill="none" stroke="black" cx="146.34" cy="-90" rx="47.39" ry="18"/>
<text text-anchor="middle" x="146.34" y="-86.3" font-family="Times,serif" font-size="14.00">source1</text>
</g>
<!-- 5&#45;&gt;source1 -->
<g id="edge18" class="edge">
<title>5&#45;&gt;source1</title>
<path fill="none" stroke="black" d="M146.34,-133.67C146.34,-128.69 146.34,-123.49 146.34,-118.51"/>
<polygon fill="black" stroke="black" points="142.84,-133.7 146.34,-143.7 149.84,-133.7 142.84,-133.7"/>
<polygon fill="black" stroke="black" points="149.84,-118.1 146.34,-108.1 142.84,-118.1 149.84,-118.1"/>
</g>
<!-- 6&#45;&gt;7 -->
<g id="edge19" class="edge">
<title>6&#45;&gt;7</title>
<path fill="none" stroke="black" d="M84.79,-74.36C86.66,-73.54 88.52,-72.75 90.34,-72 129.7,-55.8 176.02,-39.9 206.66,-29.81"/>
<polygon fill="black" stroke="black" points="83.17,-71.25 75.5,-78.57 86.06,-77.63 83.17,-71.25"/>
<polygon fill="black" stroke="black" points="208.01,-33.05 216.42,-26.62 205.83,-26.4 208.01,-33.05"/>
</g>
<!-- target1 -->
<g id="node9" class="node">
<title>target1</title>
<ellipse fill="none" stroke="black" cx="259.34" cy="-378" rx="45.49" ry="18"/>
<text text-anchor="middle" x="259.34" y="-374.3" font-family="Times,serif" font-size="14.00">target1</text>
</g>
<!-- annotation -->
<g id="node10" class="node">
<title>annotation</title>
<text text-anchor="middle" x="428.34" y="-374.9" font-family="Times,serif" font-size="12.00">Nodes: 9, Edges: 19, Coverage: 0.0</text>
</g>
</g>
</svg>
