<?xml version="1.0" encoding="UTF-8" standalone="no"?>
<!DOCTYPE svg PUBLIC "-//W3C//DTD SVG 1.1//EN"
 "http://www.w3.org/Graphics/SVG/1.1/DTD/svg11.dtd">
<!-- Generated by graphviz version 2.43.0 (0)
 -->
<!-- Title: IRIS region connectivity Pages: 1 -->
<svg width="1525pt" height="764pt"
 viewBox="0.00 0.00 1524.83 764.00" xmlns="http://www.w3.org/2000/svg" xmlns:xlink="http://www.w3.org/1999/xlink">
<g id="graph0" class="graph" transform="scale(1 1) rotate(0) translate(4 760)">
<title>IRIS region connectivity</title>
<polygon fill="white" stroke="transparent" points="-4,4 -4,-760 1520.83,-760 1520.83,4 -4,4"/>
<!-- 0 -->
<g id="node1" class="node">
<title>0</title>
<ellipse fill="none" stroke="black" cx="473.83" cy="-306" rx="27" ry="18"/>
<text text-anchor="middle" x="473.83" y="-302.3" font-family="Times,serif" font-size="14.00">0</text>
</g>
<!-- 16 -->
<g id="node2" class="node">
<title>16</title>
<ellipse fill="none" stroke="black" cx="454.83" cy="-234" rx="27" ry="18"/>
<text text-anchor="middle" x="454.83" y="-230.3" font-family="Times,serif" font-size="14.00">16</text>
</g>
<!-- 0&#45;&gt;16 -->
<g id="edge1" class="edge">
<title>0&#45;&gt;16</title>
<path fill="none" stroke="black" d="M466.54,-278.14C465.07,-272.74 463.53,-267.06 462.07,-261.67"/>
<polygon fill="black" stroke="black" points="463.23,-279.32 469.23,-288.05 469.99,-277.49 463.23,-279.32"/>
<polygon fill="black" stroke="black" points="465.38,-260.52 459.39,-251.79 458.63,-262.36 465.38,-260.52"/>
</g>
<!-- 17 -->
<g id="node15" class="node">
<title>17</title>
<ellipse fill="none" stroke="black" cx="870.83" cy="-162" rx="27" ry="18"/>
<text text-anchor="middle" x="870.83" y="-158.3" font-family="Times,serif" font-size="14.00">17</text>
</g>
<!-- 16&#45;&gt;17 -->
<g id="edge82" class="edge">
<title>16&#45;&gt;17</title>
<path fill="none" stroke="black" d="M490.73,-226.96C569.39,-213.72 756.19,-182.29 834.89,-169.05"/>
<polygon fill="black" stroke="black" points="490.13,-223.51 480.85,-228.62 491.29,-230.41 490.13,-223.51"/>
<polygon fill="black" stroke="black" points="835.54,-172.49 844.82,-167.38 834.37,-165.59 835.54,-172.49"/>
</g>
<!-- 19 -->
<g id="node17" class="node">
<title>19</title>
<ellipse fill="none" stroke="black" cx="410.83" cy="-18" rx="27" ry="18"/>
<text text-anchor="middle" x="410.83" y="-14.3" font-family="Times,serif" font-size="14.00">19</text>
</g>
<!-- 16&#45;&gt;19 -->
<g id="edge83" class="edge">
<title>16&#45;&gt;19</title>
<path fill="none" stroke="black" d="M449.27,-205.97C440.8,-164.78 424.77,-86.78 416.33,-45.76"/>
<polygon fill="black" stroke="black" points="445.86,-206.76 451.3,-215.85 452.72,-205.35 445.86,-206.76"/>
<polygon fill="black" stroke="black" points="419.75,-45.03 414.31,-35.94 412.9,-46.44 419.75,-45.03"/>
</g>
<!-- 1 -->
<g id="node3" class="node">
<title>1</title>
<ellipse fill="none" stroke="black" cx="546.83" cy="-738" rx="27" ry="18"/>
<text text-anchor="middle" x="546.83" y="-734.3" font-family="Times,serif" font-size="14.00">1</text>
</g>
<!-- 1&#45;&gt;16 -->
<g id="edge13" class="edge">
<title>1&#45;&gt;16</title>
<path fill="none" stroke="black" d="M509.58,-737.69C449.54,-737.28 329.2,-730.15 240.83,-684 191.52,-658.25 152.83,-650.63 152.83,-595 152.83,-595 152.83,-595 152.83,-449 152.83,-319.7 339.4,-261.45 419.26,-242.44"/>
<polygon fill="black" stroke="black" points="509.72,-741.19 519.72,-737.69 509.72,-734.19 509.72,-741.19"/>
<polygon fill="black" stroke="black" points="420.38,-245.77 429.34,-240.12 418.81,-238.95 420.38,-245.77"/>
</g>
<!-- 4 -->
<g id="node4" class="node">
<title>4</title>
<ellipse fill="none" stroke="black" cx="832.83" cy="-666" rx="27" ry="18"/>
<text text-anchor="middle" x="832.83" y="-662.3" font-family="Times,serif" font-size="14.00">4</text>
</g>
<!-- 1&#45;&gt;4 -->
<g id="edge2" class="edge">
<title>1&#45;&gt;4</title>
<path fill="none" stroke="black" d="M576.99,-722.05C578.94,-721.3 580.9,-720.61 582.83,-720 673.14,-691.52 701.98,-710.7 792.83,-684 795.85,-683.11 798.94,-682.07 802,-680.93"/>
<polygon fill="black" stroke="black" points="575.22,-718.99 567.38,-726.12 577.96,-725.44 575.22,-718.99"/>
<polygon fill="black" stroke="black" points="803.59,-684.07 811.58,-677.11 800.99,-677.57 803.59,-684.07"/>
</g>
<!-- 5 -->
<g id="node5" class="node">
<title>5</title>
<ellipse fill="none" stroke="black" cx="946.83" cy="-594" rx="27" ry="18"/>
<text text-anchor="middle" x="946.83" y="-590.3" font-family="Times,serif" font-size="14.00">5</text>
</g>
<!-- 1&#45;&gt;5 -->
<g id="edge3" class="edge">
<title>1&#45;&gt;5</title>
<path fill="none" stroke="black" d="M576.96,-721.94C578.92,-721.22 580.89,-720.56 582.83,-720 705.84,-684.2 755.68,-744.09 868.83,-684 896.49,-669.31 918.87,-640.56 932.44,-619.7"/>
<polygon fill="black" stroke="black" points="575.22,-718.88 567.33,-725.96 577.91,-725.34 575.22,-718.88"/>
<polygon fill="black" stroke="black" points="935.53,-621.36 937.88,-611.03 929.6,-617.64 935.53,-621.36"/>
</g>
<!-- 6 -->
<g id="node6" class="node">
<title>6</title>
<ellipse fill="none" stroke="black" cx="456.83" cy="-594" rx="27" ry="18"/>
<text text-anchor="middle" x="456.83" y="-590.3" font-family="Times,serif" font-size="14.00">6</text>
</g>
<!-- 1&#45;&gt;6 -->
<g id="edge4" class="edge">
<title>1&#45;&gt;6</title>
<path fill="none" stroke="black" d="M527.68,-713.86C520.5,-704.78 512.48,-694.13 505.83,-684 492.35,-663.47 479.04,-638.95 469.7,-620.85"/>
<polygon fill="black" stroke="black" points="524.98,-716.09 533.97,-721.7 530.44,-711.71 524.98,-716.09"/>
<polygon fill="black" stroke="black" points="472.61,-618.84 464.95,-611.52 466.37,-622.02 472.61,-618.84"/>
</g>
<!-- 7 -->
<g id="node7" class="node">
<title>7</title>
<ellipse fill="none" stroke="black" cx="511.83" cy="-522" rx="27" ry="18"/>
<text text-anchor="middle" x="511.83" y="-518.3" font-family="Times,serif" font-size="14.00">7</text>
</g>
<!-- 1&#45;&gt;7 -->
<g id="edge5" class="edge">
<title>1&#45;&gt;7</title>
<path fill="none" stroke="black" d="M542.41,-709.97C535.69,-668.87 522.97,-591.11 516.25,-550.02"/>
<polygon fill="black" stroke="black" points="538.96,-710.55 544.02,-719.85 545.86,-709.42 538.96,-710.55"/>
<polygon fill="black" stroke="black" points="519.67,-549.24 514.6,-539.94 512.76,-550.37 519.67,-549.24"/>
</g>
<!-- 8 -->
<g id="node8" class="node">
<title>8</title>
<ellipse fill="none" stroke="black" cx="1153.83" cy="-522" rx="27" ry="18"/>
<text text-anchor="middle" x="1153.83" y="-518.3" font-family="Times,serif" font-size="14.00">8</text>
</g>
<!-- 1&#45;&gt;8 -->
<g id="edge6" class="edge">
<title>1&#45;&gt;8</title>
<path fill="none" stroke="black" d="M576.95,-721.91C578.91,-721.2 580.88,-720.55 582.83,-720 720.51,-680.92 766.56,-727.73 902.83,-684 965.35,-663.94 976.54,-647.41 1031.83,-612 1066.59,-589.74 1104.74,-561.2 1128.96,-542.52"/>
<polygon fill="black" stroke="black" points="575.21,-718.84 567.32,-725.91 577.9,-725.31 575.21,-718.84"/>
<polygon fill="black" stroke="black" points="1131.16,-545.24 1136.92,-536.35 1126.87,-539.71 1131.16,-545.24"/>
</g>
<!-- 9 -->
<g id="node9" class="node">
<title>9</title>
<ellipse fill="none" stroke="black" cx="815.83" cy="-450" rx="27" ry="18"/>
<text text-anchor="middle" x="815.83" y="-446.3" font-family="Times,serif" font-size="14.00">9</text>
</g>
<!-- 1&#45;&gt;9 -->
<g id="edge7" class="edge">
<title>1&#45;&gt;9</title>
<path fill="none" stroke="black" d="M567.69,-714.82C617.88,-661.46 744.96,-526.35 795.06,-473.08"/>
<polygon fill="black" stroke="black" points="564.84,-712.74 560.54,-722.42 569.94,-717.54 564.84,-712.74"/>
<polygon fill="black" stroke="black" points="797.85,-475.23 802.15,-465.55 792.75,-470.43 797.85,-475.23"/>
</g>
<!-- 10 -->
<g id="node10" class="node">
<title>10</title>
<ellipse fill="none" stroke="black" cx="722.83" cy="-378" rx="27" ry="18"/>
<text text-anchor="middle" x="722.83" y="-374.3" font-family="Times,serif" font-size="14.00">10</text>
</g>
<!-- 1&#45;&gt;10 -->
<g id="edge8" class="edge">
<title>1&#45;&gt;10</title>
<path fill="none" stroke="black" d="M558.89,-711.37C579.2,-668.35 621.63,-578.97 658.83,-504 676.13,-469.14 696.73,-429.16 709.8,-403.99"/>
<polygon fill="black" stroke="black" points="555.66,-710.01 554.56,-720.55 562,-712.99 555.66,-710.01"/>
<polygon fill="black" stroke="black" points="712.91,-405.6 714.41,-395.12 706.7,-402.37 712.91,-405.6"/>
</g>
<!-- 12 -->
<g id="node11" class="node">
<title>12</title>
<ellipse fill="none" stroke="black" cx="399.83" cy="-378" rx="27" ry="18"/>
<text text-anchor="middle" x="399.83" y="-374.3" font-family="Times,serif" font-size="14.00">12</text>
</g>
<!-- 1&#45;&gt;12 -->
<g id="edge9" class="edge">
<title>1&#45;&gt;12</title>
<path fill="none" stroke="black" d="M509.88,-735.03C433.82,-728.77 266.83,-702.76 266.83,-595 266.83,-595 266.83,-595 266.83,-521 266.83,-461.27 330.28,-416.31 369.53,-394.21"/>
<polygon fill="black" stroke="black" points="509.75,-738.53 519.98,-735.78 510.27,-731.55 509.75,-738.53"/>
<polygon fill="black" stroke="black" points="371.36,-397.2 378.46,-389.34 368.01,-391.05 371.36,-397.2"/>
</g>
<!-- 13 -->
<g id="node12" class="node">
<title>13</title>
<ellipse fill="none" stroke="black" cx="583.83" cy="-306" rx="27" ry="18"/>
<text text-anchor="middle" x="583.83" y="-302.3" font-family="Times,serif" font-size="14.00">13</text>
</g>
<!-- 1&#45;&gt;13 -->
<g id="edge10" class="edge">
<title>1&#45;&gt;13</title>
<path fill="none" stroke="black" d="M509.59,-736.99C425.62,-734.83 228.83,-716.76 228.83,-595 228.83,-595 228.83,-595 228.83,-449 228.83,-377.13 297.91,-388.62 363.83,-360 372.37,-356.29 488.86,-329.02 548.77,-315.11"/>
<polygon fill="black" stroke="black" points="509.65,-740.5 519.72,-737.19 509.79,-733.5 509.65,-740.5"/>
<polygon fill="black" stroke="black" points="549.62,-318.51 558.57,-312.84 548.03,-311.69 549.62,-318.51"/>
</g>
<!-- 14 -->
<g id="node13" class="node">
<title>14</title>
<ellipse fill="none" stroke="black" cx="1305.83" cy="-450" rx="27" ry="18"/>
<text text-anchor="middle" x="1305.83" y="-446.3" font-family="Times,serif" font-size="14.00">14</text>
</g>
<!-- 1&#45;&gt;14 -->
<g id="edge11" class="edge">
<title>1&#45;&gt;14</title>
<path fill="none" stroke="black" d="M576.94,-721.88C578.91,-721.17 580.88,-720.54 582.83,-720 742.54,-675.98 793.16,-724.35 953.83,-684 1114.98,-643.53 1201.35,-674.56 1298.83,-540 1311.58,-522.4 1312.46,-497.37 1310.65,-478.33"/>
<polygon fill="black" stroke="black" points="575.21,-718.8 567.3,-725.85 577.88,-725.28 575.21,-718.8"/>
<polygon fill="black" stroke="black" points="1314.1,-477.68 1309.39,-468.19 1307.15,-478.55 1314.1,-477.68"/>
</g>
<!-- 15 -->
<g id="node14" class="node">
<title>15</title>
<ellipse fill="none" stroke="black" cx="1115.83" cy="-306" rx="27" ry="18"/>
<text text-anchor="middle" x="1115.83" y="-302.3" font-family="Times,serif" font-size="14.00">15</text>
</g>
<!-- 1&#45;&gt;15 -->
<g id="edge12" class="edge">
<title>1&#45;&gt;15</title>
<path fill="none" stroke="black" d="M576.27,-722.06C578.46,-721.27 580.66,-720.57 582.83,-720 790.11,-665.31 854.21,-728.88 1063.83,-684 1155.8,-664.31 1186.99,-667.63 1262.83,-612 1336.45,-558 1392.2,-518.1 1361.83,-432 1348.16,-393.25 1338.12,-382.65 1303.83,-360 1257.2,-329.2 1192.71,-316.09 1152.67,-310.66"/>
<polygon fill="black" stroke="black" points="574.8,-718.88 566.9,-725.94 577.48,-725.35 574.8,-718.88"/>
<polygon fill="black" stroke="black" points="1152.91,-307.16 1142.55,-309.38 1152.04,-314.11 1152.91,-307.16"/>
</g>
<!-- 1&#45;&gt;17 -->
<g id="edge14" class="edge">
<title>1&#45;&gt;17</title>
<path fill="none" stroke="black" d="M576.26,-722.04C578.45,-721.25 580.65,-720.56 582.83,-720 826.04,-657.26 899.04,-725.1 1146.83,-684 1295.84,-659.29 1474.83,-746.05 1474.83,-595 1474.83,-595 1474.83,-595 1474.83,-521 1474.83,-333.03 1350.5,-298.96 1181.83,-216 1090.96,-171.3 969.11,-163.52 908.44,-162.65"/>
<polygon fill="black" stroke="black" points="574.8,-718.85 566.89,-725.9 577.47,-725.32 574.8,-718.85"/>
<polygon fill="black" stroke="black" points="908.23,-159.15 898.2,-162.56 908.17,-166.15 908.23,-159.15"/>
</g>
<!-- 18 -->
<g id="node16" class="node">
<title>18</title>
<ellipse fill="none" stroke="black" cx="815.83" cy="-90" rx="27" ry="18"/>
<text text-anchor="middle" x="815.83" y="-86.3" font-family="Times,serif" font-size="14.00">18</text>
</g>
<!-- 1&#45;&gt;18 -->
<g id="edge15" class="edge">
<title>1&#45;&gt;18</title>
<path fill="none" stroke="black" d="M509.93,-734.62C427.56,-728.85 231.27,-712.46 171.83,-684 119.65,-659.01 76.83,-652.86 76.83,-595 76.83,-595 76.83,-595 76.83,-449 76.83,-259.17 203.24,-223.04 375.83,-144 447.48,-111.18 686.21,-96.95 778.74,-92.57"/>
<polygon fill="black" stroke="black" points="509.87,-738.12 520.09,-735.32 510.35,-731.14 509.87,-738.12"/>
<polygon fill="black" stroke="black" points="778.94,-96.07 788.77,-92.11 778.62,-89.07 778.94,-96.07"/>
</g>
<!-- 1&#45;&gt;19 -->
<g id="edge16" class="edge">
<title>1&#45;&gt;19</title>
<path fill="none" stroke="black" d="M509.38,-735.62C395.95,-731.12 61.65,-715.28 24.83,-684 -6.39,-657.47 0.83,-635.97 0.83,-595 0.83,-595 0.83,-595 0.83,-161 0.83,-120.03 -5.92,-99.07 24.83,-72 76.12,-26.84 286.94,-19.95 373.49,-19.05"/>
<polygon fill="black" stroke="black" points="509.52,-739.13 519.65,-736.02 509.79,-732.13 509.52,-739.13"/>
<polygon fill="black" stroke="black" points="373.68,-22.55 383.65,-18.97 373.62,-15.55 373.68,-22.55"/>
</g>
<!-- 20 -->
<g id="node18" class="node">
<title>20</title>
<ellipse fill="none" stroke="black" cx="815.83" cy="-18" rx="27" ry="18"/>
<text text-anchor="middle" x="815.83" y="-14.3" font-family="Times,serif" font-size="14.00">20</text>
</g>
<!-- 1&#45;&gt;20 -->
<g id="edge17" class="edge">
<title>1&#45;&gt;20</title>
<path fill="none" stroke="black" d="M509.85,-736.65C414.82,-735.14 164.68,-727.08 95.83,-684 56.01,-659.09 38.83,-641.97 38.83,-595 38.83,-595 38.83,-595 38.83,-161 38.83,-74.53 128.76,-96.01 211.83,-72 319.22,-40.96 664.19,-24.94 778.58,-20.39"/>
<polygon fill="black" stroke="black" points="509.82,-740.15 519.87,-736.8 509.92,-733.15 509.82,-740.15"/>
<polygon fill="black" stroke="black" points="779.06,-23.87 788.92,-19.98 778.79,-16.88 779.06,-23.87"/>
</g>
<!-- 4&#45;&gt;5 -->
<g id="edge23" class="edge">
<title>4&#45;&gt;5</title>
<path fill="none" stroke="black" d="M860.84,-647.8C878.44,-637 901.06,-623.1 918.69,-612.28"/>
<polygon fill="black" stroke="black" points="858.86,-644.91 852.17,-653.13 862.52,-650.88 858.86,-644.91"/>
<polygon fill="black" stroke="black" points="920.71,-615.15 927.4,-606.93 917.04,-609.18 920.71,-615.15"/>
</g>
<!-- 4&#45;&gt;6 -->
<g id="edge24" class="edge">
<title>4&#45;&gt;6</title>
<path fill="none" stroke="black" d="M802.02,-651.03C798.95,-649.9 795.85,-648.87 792.83,-648 686.84,-617.62 556.74,-603.36 494.07,-597.87"/>
<polygon fill="black" stroke="black" points="801.01,-654.39 811.59,-654.83 803.59,-647.89 801.01,-654.39"/>
<polygon fill="black" stroke="black" points="494.14,-594.36 483.88,-597 493.55,-601.34 494.14,-594.36"/>
</g>
<!-- 4&#45;&gt;7 -->
<g id="edge25" class="edge">
<title>4&#45;&gt;7</title>
<path fill="none" stroke="black" d="M801.06,-651.45C798.28,-650.28 795.51,-649.12 792.83,-648 753.83,-631.74 743.58,-628.85 704.83,-612 647.06,-586.88 580.49,-555.67 542.57,-537.68"/>
<polygon fill="black" stroke="black" points="799.85,-654.74 810.43,-655.42 802.58,-648.3 799.85,-654.74"/>
<polygon fill="black" stroke="black" points="543.65,-534.32 533.11,-533.18 540.64,-540.64 543.65,-534.32"/>
</g>
<!-- 4&#45;&gt;8 -->
<g id="edge26" class="edge">
<title>4&#45;&gt;8</title>
<path fill="none" stroke="black" d="M866.66,-654.55C897.41,-644.7 943.8,-628.95 982.83,-612 1034.32,-589.64 1091.74,-558.37 1125.22,-539.47"/>
<polygon fill="black" stroke="black" points="865.34,-651.3 856.87,-657.66 867.46,-657.97 865.34,-651.3"/>
<polygon fill="black" stroke="black" points="1127.04,-542.46 1134.01,-534.48 1123.58,-536.38 1127.04,-542.46"/>
</g>
<!-- 4&#45;&gt;9 -->
<g id="edge27" class="edge">
<title>4&#45;&gt;9</title>
<path fill="none" stroke="black" d="M824.47,-638.41C822.21,-630.04 820.04,-620.71 818.83,-612 812.34,-565.44 813.08,-510.57 814.36,-478.41"/>
<polygon fill="black" stroke="black" points="821.11,-639.38 827.23,-648.03 827.84,-637.45 821.11,-639.38"/>
<polygon fill="black" stroke="black" points="817.87,-478.17 814.82,-468.03 810.88,-477.86 817.87,-478.17"/>
</g>
<!-- 4&#45;&gt;10 -->
<g id="edge28" class="edge">
<title>4&#45;&gt;10</title>
<path fill="none" stroke="black" d="M821.79,-638.89C818.23,-630.34 814.31,-620.79 810.83,-612 781.26,-537.38 748.31,-448.48 732.42,-405.23"/>
<polygon fill="black" stroke="black" points="818.66,-640.47 825.75,-648.35 825.12,-637.77 818.66,-640.47"/>
<polygon fill="black" stroke="black" points="735.67,-403.92 728.94,-395.74 729.1,-406.33 735.67,-403.92"/>
</g>
<!-- 4&#45;&gt;14 -->
<g id="edge29" class="edge">
<title>4&#45;&gt;14</title>
<path fill="none" stroke="black" d="M869.93,-664.2C956,-661.69 1166.25,-651.56 1222.83,-612 1268.57,-580.02 1290.78,-515 1300.1,-478.12"/>
<polygon fill="black" stroke="black" points="869.72,-660.71 859.82,-664.48 869.92,-667.7 869.72,-660.71"/>
<polygon fill="black" stroke="black" points="1303.58,-478.62 1302.5,-468.08 1296.77,-477 1303.58,-478.62"/>
</g>
<!-- 4&#45;&gt;15 -->
<g id="edge30" class="edge">
<title>4&#45;&gt;15</title>
<path fill="none" stroke="black" d="M868.88,-659.52C891.99,-656.06 922.65,-651.59 949.83,-648 1017.05,-639.12 1195.39,-648.03 1252.83,-612 1328.43,-564.57 1385.36,-509.91 1341.83,-432 1301.95,-360.63 1204.22,-327.51 1151.29,-314.36"/>
<polygon fill="black" stroke="black" points="868.19,-656.08 858.83,-661.02 869.23,-663 868.19,-656.08"/>
<polygon fill="black" stroke="black" points="1151.86,-310.9 1141.33,-312 1150.25,-317.71 1151.86,-310.9"/>
</g>
<!-- 4&#45;&gt;18 -->
<g id="edge31" class="edge">
<title>4&#45;&gt;18</title>
<path fill="none" stroke="black" d="M846.94,-639.47C888.81,-559.99 1003.54,-312.25 906.83,-144 903.3,-137.86 870.7,-119.73 845.51,-106.38"/>
<polygon fill="black" stroke="black" points="843.62,-638.25 841.99,-648.72 849.8,-641.56 843.62,-638.25"/>
<polygon fill="black" stroke="black" points="847.12,-103.27 836.64,-101.71 843.86,-109.46 847.12,-103.27"/>
</g>
<!-- 4&#45;&gt;20 -->
<g id="edge32" class="edge">
<title>4&#45;&gt;20</title>
<path fill="none" stroke="black" d="M869.89,-662.16C972.19,-654.12 1253.4,-630.59 1290.83,-612 1386.14,-564.67 1516.83,-350.69 1516.83,-307 1516.83,-307 1516.83,-307 1516.83,-161 1516.83,-24.26 998,-17.7 853.05,-18.53"/>
<polygon fill="black" stroke="black" points="869.42,-658.69 859.72,-662.96 869.97,-665.67 869.42,-658.69"/>
<polygon fill="black" stroke="black" points="852.85,-15.04 842.88,-18.61 852.91,-22.03 852.85,-15.04"/>
</g>
<!-- 5&#45;&gt;8 -->
<g id="edge33" class="edge">
<title>5&#45;&gt;8</title>
<path fill="none" stroke="black" d="M981.07,-582.99C1014.84,-572.9 1067.78,-556.5 1112.83,-540 1115.94,-538.86 1119.16,-537.62 1122.37,-536.36"/>
<polygon fill="black" stroke="black" points="979.83,-579.7 971.24,-585.91 981.82,-586.41 979.83,-579.7"/>
<polygon fill="black" stroke="black" points="1123.88,-539.52 1131.83,-532.52 1121.25,-533.03 1123.88,-539.52"/>
</g>
<!-- 5&#45;&gt;9 -->
<g id="edge34" class="edge">
<title>5&#45;&gt;9</title>
<path fill="none" stroke="black" d="M924.94,-571.18C915.56,-561.71 904.55,-550.41 894.83,-540 874.17,-517.86 851.27,-491.9 835.47,-473.75"/>
<polygon fill="black" stroke="black" points="922.53,-573.72 932.06,-578.34 927.49,-568.78 922.53,-573.72"/>
<polygon fill="black" stroke="black" points="837.94,-471.26 828.75,-466.01 832.66,-475.85 837.94,-471.26"/>
</g>
<!-- 5&#45;&gt;10 -->
<g id="edge35" class="edge">
<title>5&#45;&gt;10</title>
<path fill="none" stroke="black" d="M937.37,-566.4C923.62,-531.21 894.95,-469.29 851.83,-432 819.87,-404.36 802.9,-412.09 763.83,-396 760.93,-394.81 757.92,-393.56 754.9,-392.31"/>
<polygon fill="black" stroke="black" points="934.19,-567.88 941.01,-575.99 940.74,-565.4 934.19,-567.88"/>
<polygon fill="black" stroke="black" points="755.96,-388.96 745.38,-388.37 753.28,-395.43 755.96,-388.96"/>
</g>
<!-- 5&#45;&gt;12 -->
<g id="edge36" class="edge">
<title>5&#45;&gt;12</title>
<path fill="none" stroke="black" d="M909.57,-593.36C810.81,-593.63 545.17,-589.6 475.83,-540 431.21,-508.09 411.93,-443.04 404.3,-406.14"/>
<polygon fill="black" stroke="black" points="909.7,-596.86 919.68,-593.32 909.67,-589.86 909.7,-596.86"/>
<polygon fill="black" stroke="black" points="407.69,-405.25 402.37,-396.09 400.82,-406.58 407.69,-405.25"/>
</g>
<!-- 5&#45;&gt;13 -->
<g id="edge37" class="edge">
<title>5&#45;&gt;13</title>
<path fill="none" stroke="black" d="M944.98,-565.85C943.03,-547.77 939.02,-523.79 930.83,-504 915.93,-468 909.38,-458.51 880.83,-432 803.91,-360.56 680.18,-326.69 619.59,-313.7"/>
<polygon fill="black" stroke="black" points="941.51,-566.37 945.93,-576 948.48,-565.71 941.51,-566.37"/>
<polygon fill="black" stroke="black" points="620.24,-310.26 609.73,-311.65 618.81,-317.11 620.24,-310.26"/>
</g>
<!-- 5&#45;&gt;14 -->
<g id="edge38" class="edge">
<title>5&#45;&gt;14</title>
<path fill="none" stroke="black" d="M983.91,-590.44C1033.19,-585.84 1121.93,-573.3 1189.83,-540 1212.21,-529.03 1213.18,-519.33 1232.83,-504 1248.07,-492.11 1265.57,-479.37 1279.62,-469.36"/>
<polygon fill="black" stroke="black" points="983.39,-586.98 973.73,-591.33 984,-593.95 983.39,-586.98"/>
<polygon fill="black" stroke="black" points="1281.74,-472.15 1287.87,-463.51 1277.69,-466.44 1281.74,-472.15"/>
</g>
<!-- 5&#45;&gt;15 -->
<g id="edge39" class="edge">
<title>5&#45;&gt;15</title>
<path fill="none" stroke="black" d="M976.25,-577.19C977.11,-576.78 977.98,-576.38 978.83,-576 1020.37,-557.27 1045.71,-575.05 1074.83,-540 1124.5,-480.2 1123.14,-381.47 1119.05,-334.06"/>
<polygon fill="black" stroke="black" points="974.35,-574.22 966.95,-581.81 977.46,-580.49 974.35,-574.22"/>
<polygon fill="black" stroke="black" points="1122.52,-333.57 1118.07,-323.96 1115.55,-334.25 1122.52,-333.57"/>
</g>
<!-- 5&#45;&gt;17 -->
<g id="edge40" class="edge">
<title>5&#45;&gt;17</title>
<path fill="none" stroke="black" d="M949.82,-565.71C951.25,-548.06 952.19,-524.61 949.83,-504 936.18,-384.64 896.5,-246.27 879.13,-189.43"/>
<polygon fill="black" stroke="black" points="946.32,-565.6 948.9,-575.88 953.29,-566.24 946.32,-565.6"/>
<polygon fill="black" stroke="black" points="882.45,-188.32 876.16,-179.79 875.76,-190.38 882.45,-188.32"/>
</g>
<!-- 5&#45;&gt;18 -->
<g id="edge41" class="edge">
<title>5&#45;&gt;18</title>
<path fill="none" stroke="black" d="M956.04,-566.77C980.35,-492.4 1038.15,-277 943.83,-144 922.86,-114.43 882.21,-101.31 852.32,-95.51"/>
<polygon fill="black" stroke="black" points="952.7,-565.71 952.85,-576.3 959.34,-567.93 952.7,-565.71"/>
<polygon fill="black" stroke="black" points="852.7,-92.03 842.25,-93.76 851.5,-98.92 852.7,-92.03"/>
</g>
<!-- 5&#45;&gt;20 -->
<g id="edge42" class="edge">
<title>5&#45;&gt;20</title>
<path fill="none" stroke="black" d="M974.72,-575.35C1008.47,-551.58 1060.83,-505.85 1060.83,-451 1060.83,-451 1060.83,-451 1060.83,-377 1060.83,-232.9 1062.58,-162.98 950.83,-72 921.57,-48.18 880.32,-34.09 851.13,-26.5"/>
<polygon fill="black" stroke="black" points="972.45,-572.66 966.17,-581.19 976.4,-578.44 972.45,-572.66"/>
<polygon fill="black" stroke="black" points="851.9,-23.08 841.35,-24.08 850.22,-29.88 851.9,-23.08"/>
</g>
<!-- 6&#45;&gt;16 -->
<g id="edge47" class="edge">
<title>6&#45;&gt;16</title>
<path fill="none" stroke="black" d="M428.94,-575.35C395.19,-551.58 342.83,-505.85 342.83,-451 342.83,-451 342.83,-451 342.83,-377 342.83,-322.53 394.27,-276.67 427.43,-252.77"/>
<polygon fill="black" stroke="black" points="427.26,-578.44 437.49,-581.19 431.21,-572.66 427.26,-578.44"/>
<polygon fill="black" stroke="black" points="429.64,-255.49 435.83,-246.89 425.63,-249.75 429.64,-255.49"/>
</g>
<!-- 6&#45;&gt;8 -->
<g id="edge43" class="edge">
<title>6&#45;&gt;8</title>
<path fill="none" stroke="black" d="M493.42,-589.33C613.79,-577.24 996.65,-538.79 1117.15,-526.68"/>
<polygon fill="black" stroke="black" points="492.9,-585.86 483.3,-590.34 493.6,-592.82 492.9,-585.86"/>
<polygon fill="black" stroke="black" points="1117.73,-530.14 1127.33,-525.66 1117.03,-523.18 1117.73,-530.14"/>
</g>
<!-- 6&#45;&gt;9 -->
<g id="edge44" class="edge">
<title>6&#45;&gt;9</title>
<path fill="none" stroke="black" d="M488.96,-580.29C557.09,-553.34 715.35,-490.74 783.58,-463.76"/>
<polygon fill="black" stroke="black" points="487.57,-577.08 479.56,-584.01 490.15,-583.59 487.57,-577.08"/>
<polygon fill="black" stroke="black" points="784.96,-466.98 792.97,-460.04 782.38,-460.47 784.96,-466.98"/>
</g>
<!-- 6&#45;&gt;12 -->
<g id="edge45" class="edge">
<title>6&#45;&gt;12</title>
<path fill="none" stroke="black" d="M430.94,-573.79C420.87,-564.76 410.42,-553.1 404.83,-540 386.19,-496.33 390.08,-439.76 394.81,-406.61"/>
<polygon fill="black" stroke="black" points="428.94,-576.67 438.84,-580.44 433.45,-571.32 428.94,-576.67"/>
<polygon fill="black" stroke="black" points="398.33,-406.74 396.41,-396.32 391.41,-405.66 398.33,-406.74"/>
</g>
<!-- 6&#45;&gt;13 -->
<g id="edge46" class="edge">
<title>6&#45;&gt;13</title>
<path fill="none" stroke="black" d="M461.09,-565.99C464.27,-548.14 469.21,-524.38 475.83,-504 497.48,-437.39 502.89,-419.5 539.83,-360 546.56,-349.16 555.33,-338.14 563.26,-328.98"/>
<polygon fill="black" stroke="black" points="457.61,-565.55 459.38,-575.99 464.51,-566.73 457.61,-565.55"/>
<polygon fill="black" stroke="black" points="565.92,-331.26 569.95,-321.46 560.69,-326.61 565.92,-331.26"/>
</g>
<!-- 6&#45;&gt;17 -->
<g id="edge48" class="edge">
<title>6&#45;&gt;17</title>
<path fill="none" stroke="black" d="M422.31,-583.45C399.79,-575.46 371.56,-561.78 354.83,-540 266.46,-424.99 273.51,-297 393.83,-216 465.52,-167.74 734.23,-162.89 833.59,-162.79"/>
<polygon fill="black" stroke="black" points="421.28,-586.8 431.88,-586.64 423.49,-580.16 421.28,-586.8"/>
<polygon fill="black" stroke="black" points="833.76,-166.29 843.76,-162.79 833.76,-159.29 833.76,-166.29"/>
</g>
<!-- 6&#45;&gt;18 -->
<g id="edge49" class="edge">
<title>6&#45;&gt;18</title>
<path fill="none" stroke="black" d="M421.31,-585.71C392.88,-578.33 353.48,-564.41 326.83,-540 263.05,-481.57 227.37,-442.66 252.83,-360 290.81,-236.68 331.05,-200.96 446.83,-144 504.84,-115.46 697.03,-99.19 778.65,-93.42"/>
<polygon fill="black" stroke="black" points="420.7,-589.17 431.24,-588.15 422.36,-582.37 420.7,-589.17"/>
<polygon fill="black" stroke="black" points="779.22,-96.89 788.95,-92.7 778.74,-89.9 779.22,-96.89"/>
</g>
<!-- 7&#45;&gt;16 -->
<g id="edge54" class="edge">
<title>7&#45;&gt;16</title>
<path fill="none" stroke="black" d="M514.19,-493.84C518.41,-440.53 525.42,-324.24 509.83,-288 503.94,-274.31 492.63,-262.43 481.78,-253.41"/>
<polygon fill="black" stroke="black" points="510.7,-493.66 513.37,-503.91 517.67,-494.23 510.7,-493.66"/>
<polygon fill="black" stroke="black" points="483.72,-250.47 473.68,-247.08 479.41,-255.99 483.72,-250.47"/>
</g>
<!-- 7&#45;&gt;9 -->
<g id="edge50" class="edge">
<title>7&#45;&gt;9</title>
<path fill="none" stroke="black" d="M543.17,-507.28C546.4,-506.09 549.66,-504.97 552.83,-504 632.23,-479.79 728.54,-463.6 779.74,-456"/>
<polygon fill="black" stroke="black" points="541.69,-504.1 533.67,-511.02 544.26,-510.62 541.69,-504.1"/>
<polygon fill="black" stroke="black" points="780.27,-459.46 789.66,-454.55 779.26,-452.53 780.27,-459.46"/>
</g>
<!-- 7&#45;&gt;10 -->
<g id="edge51" class="edge">
<title>7&#45;&gt;10</title>
<path fill="none" stroke="black" d="M543.25,-507.19C570.94,-494.8 608.99,-477.2 622.83,-468 652.57,-448.25 682.62,-420.15 701.91,-400.84"/>
<polygon fill="black" stroke="black" points="541.65,-504.07 533.94,-511.33 544.5,-510.47 541.65,-504.07"/>
<polygon fill="black" stroke="black" points="704.46,-403.24 708.99,-393.66 699.48,-398.32 704.46,-403.24"/>
</g>
<!-- 7&#45;&gt;13 -->
<g id="edge52" class="edge">
<title>7&#45;&gt;13</title>
<path fill="none" stroke="black" d="M517.73,-493.63C525.12,-461.16 539.02,-405.67 556.83,-360 560.47,-350.67 565.22,-340.81 569.72,-332.16"/>
<polygon fill="black" stroke="black" points="514.24,-493.19 515.47,-503.72 521.07,-494.72 514.24,-493.19"/>
<polygon fill="black" stroke="black" points="572.82,-333.79 574.45,-323.32 566.65,-330.49 572.82,-333.79"/>
</g>
<!-- 7&#45;&gt;15 -->
<g id="edge53" class="edge">
<title>7&#45;&gt;15</title>
<path fill="none" stroke="black" d="M538.9,-503.14C553.07,-493.36 570.41,-480.67 584.83,-468 634.42,-424.42 627.92,-389.81 686.83,-360 755.19,-325.41 987.37,-312.28 1078.6,-308.38"/>
<polygon fill="black" stroke="black" points="536.84,-500.31 530.55,-508.83 540.78,-506.09 536.84,-500.31"/>
<polygon fill="black" stroke="black" points="1078.9,-311.87 1088.75,-307.96 1078.61,-304.88 1078.9,-311.87"/>
</g>
<!-- 7&#45;&gt;20 -->
<g id="edge55" class="edge">
<title>7&#45;&gt;20</title>
<path fill="none" stroke="black" d="M530.35,-497.64C565.59,-450.75 638.83,-340.61 638.83,-235 638.83,-235 638.83,-235 638.83,-161 638.83,-88.61 730.02,-46.98 781.49,-29.25"/>
<polygon fill="black" stroke="black" points="527.53,-495.57 524.24,-505.64 533.09,-499.82 527.53,-495.57"/>
<polygon fill="black" stroke="black" points="782.83,-32.49 791.22,-26.02 780.63,-25.85 782.83,-32.49"/>
</g>
<!-- 8&#45;&gt;9 -->
<g id="edge56" class="edge">
<title>8&#45;&gt;9</title>
<path fill="none" stroke="black" d="M1118.57,-513.7C1053.87,-500.3 916.88,-471.93 851.72,-458.43"/>
<polygon fill="black" stroke="black" points="1117.92,-517.14 1128.42,-515.74 1119.34,-510.28 1117.92,-517.14"/>
<polygon fill="black" stroke="black" points="852.03,-454.92 841.53,-456.32 850.61,-461.78 852.03,-454.92"/>
</g>
<!-- 8&#45;&gt;14 -->
<g id="edge57" class="edge">
<title>8&#45;&gt;14</title>
<path fill="none" stroke="black" d="M1185.04,-506.63C1211.35,-494.51 1248.79,-477.27 1274.99,-465.2"/>
<polygon fill="black" stroke="black" points="1183.23,-503.61 1175.61,-510.97 1186.15,-509.97 1183.23,-503.61"/>
<polygon fill="black" stroke="black" points="1276.47,-468.37 1284.09,-461.01 1273.54,-462.01 1276.47,-468.37"/>
</g>
<!-- 8&#45;&gt;15 -->
<g id="edge58" class="edge">
<title>8&#45;&gt;15</title>
<path fill="none" stroke="black" d="M1149.03,-493.97C1141.73,-452.87 1127.92,-375.11 1120.63,-334.02"/>
<polygon fill="black" stroke="black" points="1145.59,-494.62 1150.78,-503.85 1152.48,-493.39 1145.59,-494.62"/>
<polygon fill="black" stroke="black" points="1124.03,-333.17 1118.84,-323.94 1117.14,-334.39 1124.03,-333.17"/>
</g>
<!-- 8&#45;&gt;17 -->
<g id="edge59" class="edge">
<title>8&#45;&gt;17</title>
<path fill="none" stroke="black" d="M1162.04,-494.25C1174.49,-448.11 1192.64,-352.33 1151.83,-288 1097.88,-202.97 970.92,-175.38 907.8,-166.75"/>
<polygon fill="black" stroke="black" points="1158.61,-493.52 1159.26,-504.09 1165.35,-495.42 1158.61,-493.52"/>
<polygon fill="black" stroke="black" points="907.87,-163.23 897.51,-165.43 906.99,-170.18 907.87,-163.23"/>
</g>
<!-- 8&#45;&gt;18 -->
<g id="edge60" class="edge">
<title>8&#45;&gt;18</title>
<path fill="none" stroke="black" d="M1160.47,-494.28C1170.2,-449.26 1183.94,-356.5 1151.83,-288 1095.09,-166.95 925.6,-115.38 851.34,-98.16"/>
<polygon fill="black" stroke="black" points="1157.03,-493.62 1158.23,-504.15 1163.85,-495.17 1157.03,-493.62"/>
<polygon fill="black" stroke="black" points="852.04,-94.73 841.52,-95.96 850.51,-101.56 852.04,-94.73"/>
</g>
<!-- 8&#45;&gt;19 -->
<g id="edge61" class="edge">
<title>8&#45;&gt;19</title>
<path fill="none" stroke="black" d="M1170.92,-497.15C1176.33,-488.39 1181.7,-478.13 1184.83,-468 1199,-422.08 1196.01,-407.65 1189.83,-360 1174.56,-242.31 1136.35,-202.05 1032.83,-144 833.57,-32.27 548.9,-19.53 448.01,-18.72"/>
<polygon fill="black" stroke="black" points="1167.9,-495.37 1165.37,-505.66 1173.76,-499.2 1167.9,-495.37"/>
<polygon fill="black" stroke="black" points="448.02,-15.22 438,-18.68 447.99,-22.22 448.02,-15.22"/>
</g>
<!-- 9&#45;&gt;10 -->
<g id="edge62" class="edge">
<title>9&#45;&gt;10</title>
<path fill="none" stroke="black" d="M790,-429.56C776.99,-419.77 761.27,-407.93 748.31,-398.18"/>
<polygon fill="black" stroke="black" points="788.24,-432.62 798.34,-435.83 792.45,-427.02 788.24,-432.62"/>
<polygon fill="black" stroke="black" points="750.34,-395.32 740.24,-392.11 746.13,-400.92 750.34,-395.32"/>
</g>
<!-- 9&#45;&gt;12 -->
<g id="edge63" class="edge">
<title>9&#45;&gt;12</title>
<path fill="none" stroke="black" d="M779.93,-442.96C701.27,-429.72 514.47,-398.29 435.77,-385.05"/>
<polygon fill="black" stroke="black" points="779.36,-446.41 789.81,-444.62 780.53,-439.51 779.36,-446.41"/>
<polygon fill="black" stroke="black" points="436.28,-381.59 425.84,-383.38 435.12,-388.49 436.28,-381.59"/>
</g>
<!-- 9&#45;&gt;17 -->
<g id="edge64" class="edge">
<title>9&#45;&gt;17</title>
<path fill="none" stroke="black" d="M823.44,-421.98C825.64,-413.68 827.96,-404.5 829.83,-396 846.08,-322.04 860.19,-233.75 866.81,-190.14"/>
<polygon fill="black" stroke="black" points="819.98,-421.33 820.74,-431.9 826.74,-423.17 819.98,-421.33"/>
<polygon fill="black" stroke="black" points="870.3,-190.46 868.33,-180.05 863.38,-189.42 870.3,-190.46"/>
</g>
<!-- 9&#45;&gt;18 -->
<g id="edge65" class="edge">
<title>9&#45;&gt;18</title>
<path fill="none" stroke="black" d="M815.83,-421.92C815.83,-393.35 815.83,-347 815.83,-307 815.83,-307 815.83,-307 815.83,-233 815.83,-193 815.83,-146.65 815.83,-118.08"/>
<polygon fill="black" stroke="black" points="812.33,-421.95 815.83,-431.95 819.33,-421.95 812.33,-421.95"/>
<polygon fill="black" stroke="black" points="819.33,-118.05 815.83,-108.05 812.33,-118.05 819.33,-118.05"/>
</g>
<!-- 9&#45;&gt;20 -->
<g id="edge66" class="edge">
<title>9&#45;&gt;20</title>
<path fill="none" stroke="black" d="M836.66,-426.55C875.29,-383.06 956.42,-282.59 981.83,-180 985.68,-164.47 988.97,-158.32 981.83,-144 953.94,-88.08 887.79,-50.61 847.93,-32.22"/>
<polygon fill="black" stroke="black" points="833.84,-424.45 829.75,-434.23 839.04,-429.14 833.84,-424.45"/>
<polygon fill="black" stroke="black" points="849.2,-28.95 838.64,-28.06 846.34,-35.34 849.2,-28.95"/>
</g>
<!-- 10&#45;&gt;13 -->
<g id="edge67" class="edge">
<title>10&#45;&gt;13</title>
<path fill="none" stroke="black" d="M692.8,-361.88C669.46,-350.12 637.23,-333.89 613.88,-322.13"/>
<polygon fill="black" stroke="black" points="691.51,-365.15 702.02,-366.52 694.66,-358.9 691.51,-365.15"/>
<polygon fill="black" stroke="black" points="615.29,-318.92 604.78,-317.55 612.14,-325.18 615.29,-318.92"/>
</g>
<!-- 10&#45;&gt;15 -->
<g id="edge68" class="edge">
<title>10&#45;&gt;15</title>
<path fill="none" stroke="black" d="M758.48,-370.65C833.16,-357.35 1005.28,-326.69 1080.06,-313.37"/>
<polygon fill="black" stroke="black" points="757.85,-367.21 748.62,-372.41 759.07,-374.1 757.85,-367.21"/>
<polygon fill="black" stroke="black" points="1080.72,-316.81 1089.95,-311.61 1079.49,-309.92 1080.72,-316.81"/>
</g>
<!-- 10&#45;&gt;17 -->
<g id="edge69" class="edge">
<title>10&#45;&gt;17</title>
<path fill="none" stroke="black" d="M739.53,-352.85C768.02,-311.66 825.69,-228.27 854.16,-187.11"/>
<polygon fill="black" stroke="black" points="736.52,-351.05 733.71,-361.26 742.28,-355.03 736.52,-351.05"/>
<polygon fill="black" stroke="black" points="857.12,-188.97 859.93,-178.76 851.36,-184.99 857.12,-188.97"/>
</g>
<!-- 10&#45;&gt;20 -->
<g id="edge70" class="edge">
<title>10&#45;&gt;20</title>
<path fill="none" stroke="black" d="M720.4,-349.95C718.04,-321.39 714.83,-275.07 714.83,-235 714.83,-235 714.83,-235 714.83,-161 714.83,-109.01 760.34,-62.84 790.26,-38.09"/>
<polygon fill="black" stroke="black" points="716.92,-350.3 721.25,-359.97 723.89,-349.71 716.92,-350.3"/>
<polygon fill="black" stroke="black" points="792.63,-40.68 798.24,-31.7 788.25,-35.22 792.63,-40.68"/>
</g>
<!-- 12&#45;&gt;16 -->
<g id="edge72" class="edge">
<title>12&#45;&gt;16</title>
<path fill="none" stroke="black" d="M409.9,-350.99C419.77,-325.53 434.72,-286.92 444.63,-261.34"/>
<polygon fill="black" stroke="black" points="406.59,-349.84 406.25,-360.43 413.12,-352.37 406.59,-349.84"/>
<polygon fill="black" stroke="black" points="447.94,-262.49 448.28,-251.9 441.41,-259.96 447.94,-262.49"/>
</g>
<!-- 12&#45;&gt;13 -->
<g id="edge71" class="edge">
<title>12&#45;&gt;13</title>
<path fill="none" stroke="black" d="M432.55,-364.55C466.01,-351.82 517.69,-332.16 551.14,-319.43"/>
<polygon fill="black" stroke="black" points="430.86,-361.45 422.76,-368.28 433.35,-367.99 430.86,-361.45"/>
<polygon fill="black" stroke="black" points="552.8,-322.55 560.9,-315.72 550.31,-316.01 552.8,-322.55"/>
</g>
<!-- 12&#45;&gt;17 -->
<g id="edge73" class="edge">
<title>12&#45;&gt;17</title>
<path fill="none" stroke="black" d="M393.95,-349.8C387.94,-313.85 383.83,-250.98 418.83,-216 426.19,-208.64 727.72,-177.49 834.12,-166.7"/>
<polygon fill="black" stroke="black" points="390.58,-350.83 395.84,-360.04 397.47,-349.57 390.58,-350.83"/>
<polygon fill="black" stroke="black" points="834.49,-170.18 844.08,-165.69 833.78,-163.21 834.49,-170.18"/>
</g>
<!-- 12&#45;&gt;18 -->
<g id="edge74" class="edge">
<title>12&#45;&gt;18</title>
<path fill="none" stroke="black" d="M389.3,-351.06C377.02,-316.1 362.14,-253.88 393.83,-216 444.35,-155.62 686.95,-111.46 779.68,-96.52"/>
<polygon fill="black" stroke="black" points="386.07,-352.4 392.82,-360.57 392.63,-349.97 386.07,-352.4"/>
<polygon fill="black" stroke="black" points="780.39,-99.95 789.72,-94.93 779.29,-93.04 780.39,-99.95"/>
</g>
<!-- 13&#45;&gt;16 -->
<g id="edge75" class="edge">
<title>13&#45;&gt;16</title>
<path fill="none" stroke="black" d="M554.3,-288.97C533.21,-277.53 504.97,-262.21 483.98,-250.82"/>
<polygon fill="black" stroke="black" points="552.93,-292.22 563.39,-293.91 556.27,-286.06 552.93,-292.22"/>
<polygon fill="black" stroke="black" points="485.63,-247.73 475.17,-246.04 482.29,-253.89 485.63,-247.73"/>
</g>
<!-- 13&#45;&gt;17 -->
<g id="edge76" class="edge">
<title>13&#45;&gt;17</title>
<path fill="none" stroke="black" d="M612.99,-288.61C646.06,-270.23 701.76,-239.87 750.83,-216 780.35,-201.64 814.67,-186.65 839.03,-176.29"/>
<polygon fill="black" stroke="black" points="610.92,-285.76 603.89,-293.69 614.33,-291.88 610.92,-285.76"/>
<polygon fill="black" stroke="black" points="840.64,-179.41 848.49,-172.28 837.91,-172.96 840.64,-179.41"/>
</g>
<!-- 13&#45;&gt;18 -->
<g id="edge77" class="edge">
<title>13&#45;&gt;18</title>
<path fill="none" stroke="black" d="M605.96,-283.45C624.69,-265.3 652.32,-238.74 676.83,-216 717.11,-178.63 764.9,-136.02 792.65,-111.45"/>
<polygon fill="black" stroke="black" points="603.25,-281.2 598.51,-290.68 608.13,-286.22 603.25,-281.2"/>
<polygon fill="black" stroke="black" points="795.09,-113.97 800.26,-104.72 790.45,-108.72 795.09,-113.97"/>
</g>
<!-- 14&#45;&gt;15 -->
<g id="edge78" class="edge">
<title>14&#45;&gt;15</title>
<path fill="none" stroke="black" d="M1280.78,-429.69C1257.17,-411.55 1220.76,-383.73 1188.83,-360 1173.32,-348.47 1155.8,-335.74 1141.81,-325.65"/>
<polygon fill="black" stroke="black" points="1278.81,-432.59 1288.87,-435.91 1283.08,-427.04 1278.81,-432.59"/>
<polygon fill="black" stroke="black" points="1143.77,-322.75 1133.61,-319.74 1139.68,-328.43 1143.77,-322.75"/>
</g>
<!-- 14&#45;&gt;17 -->
<g id="edge79" class="edge">
<title>14&#45;&gt;17</title>
<path fill="none" stroke="black" d="M1296.63,-422.91C1277.51,-372.97 1228.32,-264.52 1146.83,-216 1070.82,-170.74 964.03,-163.01 908.19,-162.34"/>
<polygon fill="black" stroke="black" points="1293.38,-424.21 1300.16,-432.36 1299.94,-421.77 1293.38,-424.21"/>
<polygon fill="black" stroke="black" points="908.06,-158.84 898.05,-162.3 908.03,-165.84 908.06,-158.84"/>
</g>
<!-- 14&#45;&gt;18 -->
<g id="edge80" class="edge">
<title>14&#45;&gt;18</title>
<path fill="none" stroke="black" d="M1311.38,-422.07C1319.3,-377.1 1329.7,-284.89 1298.83,-216 1279.8,-173.54 1264.85,-163.98 1222.83,-144 1218.64,-142.01 951.54,-108.13 852.37,-95.61"/>
<polygon fill="black" stroke="black" points="1307.93,-421.46 1309.55,-431.93 1314.81,-422.74 1307.93,-421.46"/>
<polygon fill="black" stroke="black" points="852.58,-92.11 842.22,-94.33 851.7,-99.05 852.58,-92.11"/>
</g>
<!-- 15&#45;&gt;17 -->
<g id="edge81" class="edge">
<title>15&#45;&gt;17</title>
<path fill="none" stroke="black" d="M1087.46,-288.56C1040.36,-261.26 946.55,-206.89 899.35,-179.53"/>
<polygon fill="black" stroke="black" points="1085.79,-291.63 1096.19,-293.62 1089.3,-285.58 1085.79,-291.63"/>
<polygon fill="black" stroke="black" points="900.97,-176.42 890.56,-174.43 897.46,-182.48 900.97,-176.42"/>
</g>
<!-- 17&#45;&gt;18 -->
<g id="edge84" class="edge">
<title>17&#45;&gt;18</title>
<path fill="none" stroke="black" d="M852.66,-137.87C846.64,-130.21 839.95,-121.69 833.93,-114.04"/>
<polygon fill="black" stroke="black" points="849.97,-140.11 858.9,-145.81 855.47,-135.79 849.97,-140.11"/>
<polygon fill="black" stroke="black" points="836.67,-111.86 827.74,-106.16 831.17,-116.18 836.67,-111.86"/>
</g>
<!-- 17&#45;&gt;20 -->
<g id="edge85" class="edge">
<title>17&#45;&gt;20</title>
<path fill="none" stroke="black" d="M867.81,-133.87C865.13,-115.8 860.29,-91.83 851.83,-72 847.44,-61.72 840.95,-51.34 834.68,-42.53"/>
<polygon fill="black" stroke="black" points="864.37,-134.57 869.17,-144.01 871.31,-133.63 864.37,-134.57"/>
<polygon fill="black" stroke="black" points="837.35,-40.24 828.58,-34.3 831.72,-44.41 837.35,-40.24"/>
</g>
<!-- 18&#45;&gt;19 -->
<g id="edge86" class="edge">
<title>18&#45;&gt;19</title>
<path fill="none" stroke="black" d="M779.73,-82.76C702.78,-69.46 523.42,-38.46 446.69,-25.2"/>
<polygon fill="black" stroke="black" points="779.43,-86.26 789.88,-84.51 780.62,-79.36 779.43,-86.26"/>
<polygon fill="black" stroke="black" points="447.01,-21.7 436.56,-23.45 445.82,-28.6 447.01,-21.7"/>
</g>
<!-- 18&#45;&gt;20 -->
<g id="edge87" class="edge">
<title>18&#45;&gt;20</title>
<path fill="none" stroke="black" d="M815.83,-61.67C815.83,-56.69 815.83,-51.49 815.83,-46.51"/>
<polygon fill="black" stroke="black" points="812.33,-61.7 815.83,-71.7 819.33,-61.7 812.33,-61.7"/>
<polygon fill="black" stroke="black" points="819.33,-46.1 815.83,-36.1 812.33,-46.1 819.33,-46.1"/>
</g>
<!-- 2 -->
<g id="node19" class="node">
<title>2</title>
<ellipse fill="none" stroke="black" cx="618.83" cy="-738" rx="27" ry="18"/>
<text text-anchor="middle" x="618.83" y="-734.3" font-family="Times,serif" font-size="14.00">2</text>
</g>
<!-- 3 -->
<g id="node20" class="node">
<title>3</title>
<ellipse fill="none" stroke="black" cx="756.83" cy="-666" rx="27" ry="18"/>
<text text-anchor="middle" x="756.83" y="-662.3" font-family="Times,serif" font-size="14.00">3</text>
</g>
<!-- 3&#45;&gt;5 -->
<g id="edge18" class="edge">
<title>3&#45;&gt;5</title>
<path fill="none" stroke="black" d="M788.05,-651.51C791.01,-650.3 793.97,-649.11 796.83,-648 836.61,-632.54 883.02,-616.43 913.56,-606.09"/>
<polygon fill="black" stroke="black" points="786.62,-648.32 778.74,-655.4 789.31,-654.78 786.62,-648.32"/>
<polygon fill="black" stroke="black" points="914.92,-609.33 923.28,-602.81 912.69,-602.69 914.92,-609.33"/>
</g>
<!-- 3&#45;&gt;9 -->
<g id="edge19" class="edge">
<title>3&#45;&gt;9</title>
<path fill="none" stroke="black" d="M764.17,-638.38C775.48,-597.34 797.06,-519.07 808.42,-477.88"/>
<polygon fill="black" stroke="black" points="760.74,-637.64 761.46,-648.21 767.49,-639.5 760.74,-637.64"/>
<polygon fill="black" stroke="black" points="811.86,-478.58 811.14,-468.01 805.11,-476.72 811.86,-478.58"/>
</g>
<!-- 3&#45;&gt;10 -->
<g id="edge20" class="edge">
<title>3&#45;&gt;10</title>
<path fill="none" stroke="black" d="M733.66,-644.24C724.06,-634.94 713.23,-623.5 704.83,-612 683.49,-582.78 675.53,-575.12 666.83,-540 662.98,-524.47 661.14,-518.96 666.83,-504 674.44,-483.99 688.66,-486.84 698.83,-468 709.25,-448.69 715.39,-424.54 718.85,-406.27"/>
<polygon fill="black" stroke="black" points="731.36,-646.87 741.03,-651.19 736.16,-641.78 731.36,-646.87"/>
<polygon fill="black" stroke="black" points="722.33,-406.73 720.59,-396.27 715.43,-405.53 722.33,-406.73"/>
</g>
<!-- 3&#45;&gt;14 -->
<g id="edge21" class="edge">
<title>3&#45;&gt;14</title>
<path fill="none" stroke="black" d="M787.89,-651.06C790.88,-649.94 793.89,-648.9 796.83,-648 984.45,-590.67 1058.69,-644.34 1224.83,-540 1251.49,-523.25 1274.83,-495.38 1289.52,-475.29"/>
<polygon fill="black" stroke="black" points="786.51,-647.84 778.53,-654.8 789.11,-654.34 786.51,-647.84"/>
<polygon fill="black" stroke="black" points="1292.52,-477.12 1295.46,-466.94 1286.81,-473.06 1292.52,-477.12"/>
</g>
<!-- 3&#45;&gt;20 -->
<g id="edge22" class="edge">
<title>3&#45;&gt;20</title>
<path fill="none" stroke="black" d="M719.78,-663.12C656.86,-659.05 525.74,-646.81 420.83,-612 274.97,-563.6 114.83,-604.68 114.83,-451 114.83,-451 114.83,-451 114.83,-161 114.83,-92.55 634.81,-36.68 779.09,-22.49"/>
<polygon fill="black" stroke="black" points="719.8,-666.62 729.99,-663.74 720.23,-659.64 719.8,-666.62"/>
<polygon fill="black" stroke="black" points="779.59,-25.96 789.21,-21.5 778.91,-18.99 779.59,-25.96"/>
</g>
<!-- 11 -->
<g id="node21" class="node">
<title>11</title>
<ellipse fill="none" stroke="black" cx="690.83" cy="-738" rx="27" ry="18"/>
<text text-anchor="middle" x="690.83" y="-734.3" font-family="Times,serif" font-size="14.00">11</text>
</g>
</g>
</svg>
