<?xml version="1.0" encoding="UTF-8" standalone="no"?>
<!DOCTYPE svg PUBLIC "-//W3C//DTD SVG 1.1//EN"
 "http://www.w3.org/Graphics/SVG/1.1/DTD/svg11.dtd">
<!-- Generated by graphviz version 2.43.0 (0)
 -->
<!-- Title: IRIS region connectivity Pages: 1 -->
<svg width="578pt" height="548pt"
 viewBox="0.00 0.00 578.00 548.00" xmlns="http://www.w3.org/2000/svg" xmlns:xlink="http://www.w3.org/1999/xlink">
<g id="graph0" class="graph" transform="scale(1 1) rotate(0) translate(4 544)">
<title>IRIS region connectivity</title>
<polygon fill="white" stroke="transparent" points="-4,4 -4,-544 574,-544 574,4 -4,4"/>
<!-- 1 -->
<g id="node1" class="node">
<title>1</title>
<ellipse fill="none" stroke="black" cx="305" cy="-522" rx="27" ry="18"/>
<text text-anchor="middle" x="305" y="-518.3" font-family="Times,serif" font-size="14.00">1</text>
</g>
<!-- 2 -->
<g id="node2" class="node">
<title>2</title>
<ellipse fill="none" stroke="black" cx="336" cy="-450" rx="27" ry="18"/>
<text text-anchor="middle" x="336" y="-446.3" font-family="Times,serif" font-size="14.00">2</text>
</g>
<!-- 1&#45;&gt;2 -->
<g id="edge1" class="edge">
<title>1&#45;&gt;2</title>
<path fill="none" stroke="black" d="M316.42,-495.2C319.05,-489.26 321.85,-482.94 324.49,-477"/>
<polygon fill="black" stroke="black" points="313.2,-493.85 312.35,-504.41 319.6,-496.68 313.2,-493.85"/>
<polygon fill="black" stroke="black" points="327.86,-478.03 328.71,-467.47 321.46,-475.2 327.86,-478.03"/>
</g>
<!-- 3 -->
<g id="node3" class="node">
<title>3</title>
<ellipse fill="none" stroke="black" cx="278" cy="-378" rx="27" ry="18"/>
<text text-anchor="middle" x="278" y="-374.3" font-family="Times,serif" font-size="14.00">3</text>
</g>
<!-- 1&#45;&gt;3 -->
<g id="edge2" class="edge">
<title>1&#45;&gt;3</title>
<path fill="none" stroke="black" d="M299.81,-493.68C295.02,-468.49 287.94,-431.3 283.16,-406.16"/>
<polygon fill="black" stroke="black" points="296.44,-494.7 301.74,-503.87 303.31,-493.39 296.44,-494.7"/>
<polygon fill="black" stroke="black" points="286.57,-405.36 281.27,-396.19 279.7,-406.67 286.57,-405.36"/>
</g>
<!-- 4 -->
<g id="node4" class="node">
<title>4</title>
<ellipse fill="none" stroke="black" cx="167" cy="-306" rx="27" ry="18"/>
<text text-anchor="middle" x="167" y="-302.3" font-family="Times,serif" font-size="14.00">4</text>
</g>
<!-- 1&#45;&gt;4 -->
<g id="edge3" class="edge">
<title>1&#45;&gt;4</title>
<path fill="none" stroke="black" d="M284.05,-498.72C262.28,-474.73 228.2,-434.78 205,-396 192.99,-375.93 182.81,-351.37 176.01,-333.13"/>
<polygon fill="black" stroke="black" points="281.59,-501.21 290.93,-506.22 286.75,-496.48 281.59,-501.21"/>
<polygon fill="black" stroke="black" points="179.3,-331.93 172.6,-323.72 172.72,-334.32 179.3,-331.93"/>
</g>
<!-- 6 -->
<g id="node5" class="node">
<title>6</title>
<ellipse fill="none" stroke="black" cx="357" cy="-234" rx="27" ry="18"/>
<text text-anchor="middle" x="357" y="-230.3" font-family="Times,serif" font-size="14.00">6</text>
</g>
<!-- 1&#45;&gt;6 -->
<g id="edge4" class="edge">
<title>1&#45;&gt;6</title>
<path fill="none" stroke="black" d="M335.15,-505.53C349.1,-496.62 364.26,-483.99 372,-468 405.18,-399.45 381.58,-306.03 366.67,-261.16"/>
<polygon fill="black" stroke="black" points="333.04,-502.71 326.25,-510.85 336.63,-508.72 333.04,-502.71"/>
<polygon fill="black" stroke="black" points="369.94,-259.91 363.38,-251.59 363.32,-262.19 369.94,-259.91"/>
</g>
<!-- 7 -->
<g id="node6" class="node">
<title>7</title>
<ellipse fill="none" stroke="black" cx="205" cy="-162" rx="27" ry="18"/>
<text text-anchor="middle" x="205" y="-158.3" font-family="Times,serif" font-size="14.00">7</text>
</g>
<!-- 1&#45;&gt;7 -->
<g id="edge5" class="edge">
<title>1&#45;&gt;7</title>
<path fill="none" stroke="black" d="M267.62,-520.36C186.19,-516.78 0,-495.83 0,-379 0,-379 0,-379 0,-305 0,-258.03 20.26,-245.26 57,-216 89.94,-189.77 136.94,-175.9 169.08,-169.03"/>
<polygon fill="black" stroke="black" points="267.81,-523.87 277.93,-520.74 268.07,-516.87 267.81,-523.87"/>
<polygon fill="black" stroke="black" points="169.85,-172.44 178.96,-167.03 168.47,-165.58 169.85,-172.44"/>
</g>
<!-- 8 -->
<g id="node7" class="node">
<title>8</title>
<ellipse fill="none" stroke="black" cx="385" cy="-90" rx="27" ry="18"/>
<text text-anchor="middle" x="385" y="-86.3" font-family="Times,serif" font-size="14.00">8</text>
</g>
<!-- 1&#45;&gt;8 -->
<g id="edge6" class="edge">
<title>1&#45;&gt;8</title>
<path fill="none" stroke="black" d="M335.62,-505.73C403.37,-471.72 560,-391.71 560,-379 560,-379 560,-379 560,-233 560,-161.11 469.84,-119.26 418.95,-101.37"/>
<polygon fill="black" stroke="black" points="333.67,-502.79 326.3,-510.4 336.81,-509.05 333.67,-502.79"/>
<polygon fill="black" stroke="black" points="419.93,-98 409.33,-98.11 417.68,-104.63 419.93,-98"/>
</g>
<!-- 2&#45;&gt;3 -->
<g id="edge7" class="edge">
<title>2&#45;&gt;3</title>
<path fill="none" stroke="black" d="M316.84,-425.87C310.49,-418.21 303.43,-409.69 297.09,-402.04"/>
<polygon fill="black" stroke="black" points="314.34,-428.34 323.41,-433.81 319.73,-423.88 314.34,-428.34"/>
<polygon fill="black" stroke="black" points="299.64,-399.63 290.56,-394.16 294.25,-404.09 299.64,-399.63"/>
</g>
<!-- 2&#45;&gt;4 -->
<g id="edge8" class="edge">
<title>2&#45;&gt;4</title>
<path fill="none" stroke="black" d="M304.87,-434.98C285.66,-425.5 261.13,-411.85 242,-396 218.93,-376.88 197.42,-350.05 183.41,-330.85"/>
<polygon fill="black" stroke="black" points="303.56,-438.23 314.09,-439.41 306.6,-431.93 303.56,-438.23"/>
<polygon fill="black" stroke="black" points="186.18,-328.72 177.52,-322.63 180.49,-332.8 186.18,-328.72"/>
</g>
<!-- 2&#45;&gt;6 -->
<g id="edge9" class="edge">
<title>2&#45;&gt;6</title>
<path fill="none" stroke="black" d="M344.22,-422.39C346.49,-414.02 348.68,-404.7 350,-396 357.07,-349.48 357.87,-294.6 357.59,-262.42"/>
<polygon fill="black" stroke="black" points="340.86,-421.43 341.48,-432.01 347.59,-423.35 340.86,-421.43"/>
<polygon fill="black" stroke="black" points="361.09,-261.99 357.45,-252.04 354.09,-262.08 361.09,-261.99"/>
</g>
<!-- 2&#45;&gt;7 -->
<g id="edge10" class="edge">
<title>2&#45;&gt;7</title>
<path fill="none" stroke="black" d="M331.21,-421.8C327.59,-403.88 321.88,-380.1 314,-360 288.21,-294.25 244.52,-223.18 221.05,-187.05"/>
<polygon fill="black" stroke="black" points="327.82,-422.7 333.15,-431.86 334.69,-421.38 327.82,-422.7"/>
<polygon fill="black" stroke="black" points="223.95,-185.09 215.55,-178.64 218.1,-188.92 223.95,-185.09"/>
</g>
<!-- 2&#45;&gt;8 -->
<g id="edge11" class="edge">
<title>2&#45;&gt;8</title>
<path fill="none" stroke="black" d="M356.91,-426.69C379.4,-400.26 412,-353.88 412,-307 412,-307 412,-307 412,-233 412,-192.28 401.15,-146.13 393.21,-117.79"/>
<polygon fill="black" stroke="black" points="354.26,-424.4 350.3,-434.23 359.52,-429.02 354.26,-424.4"/>
<polygon fill="black" stroke="black" points="396.47,-116.49 390.33,-107.85 389.75,-118.43 396.47,-116.49"/>
</g>
<!-- 3&#45;&gt;4 -->
<g id="edge12" class="edge">
<title>3&#45;&gt;4</title>
<path fill="none" stroke="black" d="M250.25,-359.5C233.41,-348.88 211.97,-335.36 195.07,-324.7"/>
<polygon fill="black" stroke="black" points="248.59,-362.59 258.92,-364.97 252.33,-356.67 248.59,-362.59"/>
<polygon fill="black" stroke="black" points="196.53,-321.48 186.2,-319.11 192.8,-327.41 196.53,-321.48"/>
</g>
<!-- 3&#45;&gt;6 -->
<g id="edge13" class="edge">
<title>3&#45;&gt;6</title>
<path fill="none" stroke="black" d="M291.98,-351.87C306.39,-325.98 328.71,-285.84 343.09,-260"/>
<polygon fill="black" stroke="black" points="288.71,-350.55 286.91,-360.99 294.83,-353.95 288.71,-350.55"/>
<polygon fill="black" stroke="black" points="346.2,-261.61 348,-251.17 340.08,-258.21 346.2,-261.61"/>
</g>
<!-- 3&#45;&gt;7 -->
<g id="edge14" class="edge">
<title>3&#45;&gt;7</title>
<path fill="none" stroke="black" d="M261.36,-352.84C255.88,-344.06 250.13,-333.86 246,-324 227.1,-278.82 215.23,-222.74 209.38,-190.1"/>
<polygon fill="black" stroke="black" points="258.54,-354.92 266.91,-361.41 264.42,-351.12 258.54,-354.92"/>
<polygon fill="black" stroke="black" points="212.79,-189.23 207.63,-179.98 205.89,-190.43 212.79,-189.23"/>
</g>
<!-- 3&#45;&gt;8 -->
<g id="edge15" class="edge">
<title>3&#45;&gt;8</title>
<path fill="none" stroke="black" d="M283.45,-349.61C290.35,-317.12 303.46,-261.61 321,-216 334.89,-179.88 356.16,-140.5 370.32,-115.78"/>
<polygon fill="black" stroke="black" points="279.97,-349.2 281.36,-359.7 286.82,-350.62 279.97,-349.2"/>
<polygon fill="black" stroke="black" points="373.38,-117.48 375.36,-107.07 367.32,-113.97 373.38,-117.48"/>
</g>
<!-- 4&#45;&gt;6 -->
<g id="edge16" class="edge">
<title>4&#45;&gt;6</title>
<path fill="none" stroke="black" d="M199.94,-292.86C234.76,-280.04 289.34,-259.93 324.12,-247.11"/>
<polygon fill="black" stroke="black" points="198.47,-289.68 190.3,-296.42 200.89,-296.24 198.47,-289.68"/>
<polygon fill="black" stroke="black" points="325.64,-250.29 333.81,-243.54 323.22,-243.72 325.64,-250.29"/>
</g>
<!-- 4&#45;&gt;7 -->
<g id="edge17" class="edge">
<title>4&#45;&gt;7</title>
<path fill="none" stroke="black" d="M174.14,-278.31C180.94,-252.9 191.12,-214.87 197.9,-189.52"/>
<polygon fill="black" stroke="black" points="170.71,-277.59 171.51,-288.15 177.47,-279.4 170.71,-277.59"/>
<polygon fill="black" stroke="black" points="201.29,-190.39 200.5,-179.82 194.53,-188.58 201.29,-190.39"/>
</g>
<!-- 4&#45;&gt;8 -->
<g id="edge18" class="edge">
<title>4&#45;&gt;8</title>
<path fill="none" stroke="black" d="M131.06,-298.14C105.57,-291.2 73.13,-277.67 57,-252 48.49,-238.45 49.33,-230.04 57,-216 113.92,-111.75 274.31,-93.78 347.61,-91.15"/>
<polygon fill="black" stroke="black" points="130.24,-301.55 140.79,-300.57 131.93,-294.75 130.24,-301.55"/>
<polygon fill="black" stroke="black" points="347.87,-94.64 357.77,-90.86 347.67,-87.64 347.87,-94.64"/>
</g>
<!-- target1 -->
<g id="node8" class="node">
<title>target1</title>
<ellipse fill="none" stroke="black" cx="111" cy="-234" rx="45.49" ry="18"/>
<text text-anchor="middle" x="111" y="-230.3" font-family="Times,serif" font-size="14.00">target1</text>
</g>
<!-- 4&#45;&gt;target1 -->
<g id="edge19" class="edge">
<title>4&#45;&gt;target1</title>
<path fill="none" stroke="black" d="M148.54,-281.92C142.84,-274.81 136.56,-266.95 130.78,-259.73"/>
<polygon fill="black" stroke="black" points="145.87,-284.19 154.85,-289.81 151.33,-279.82 145.87,-284.19"/>
<polygon fill="black" stroke="black" points="133.28,-257.25 124.3,-251.63 127.82,-261.62 133.28,-257.25"/>
</g>
<!-- 6&#45;&gt;7 -->
<g id="edge23" class="edge">
<title>6&#45;&gt;7</title>
<path fill="none" stroke="black" d="M325.79,-218.63C299.48,-206.51 262.04,-189.27 235.84,-177.2"/>
<polygon fill="black" stroke="black" points="324.67,-221.97 335.22,-222.97 327.6,-215.61 324.67,-221.97"/>
<polygon fill="black" stroke="black" points="237.28,-174.01 226.74,-173.01 234.36,-180.37 237.28,-174.01"/>
</g>
<!-- 6&#45;&gt;8 -->
<g id="edge24" class="edge">
<title>6&#45;&gt;8</title>
<path fill="none" stroke="black" d="M362.31,-206.06C367.28,-180.88 374.65,-143.47 379.64,-118.2"/>
<polygon fill="black" stroke="black" points="358.88,-205.38 360.38,-215.87 365.75,-206.74 358.88,-205.38"/>
<polygon fill="black" stroke="black" points="383.11,-118.68 381.61,-108.19 376.24,-117.32 383.11,-118.68"/>
</g>
<!-- 7&#45;&gt;8 -->
<g id="edge25" class="edge">
<title>7&#45;&gt;8</title>
<path fill="none" stroke="black" d="M237.04,-147.61C240.06,-146.38 243.09,-145.16 246,-144 282.28,-129.57 324.18,-113.7 352.42,-103.12"/>
<polygon fill="black" stroke="black" points="235.43,-144.49 227.51,-151.53 238.09,-150.96 235.43,-144.49"/>
<polygon fill="black" stroke="black" points="353.66,-106.39 361.8,-99.61 351.21,-99.84 353.66,-106.39"/>
</g>
<!-- source1 -->
<g id="node10" class="node">
<title>source1</title>
<ellipse fill="none" stroke="black" cx="429" cy="-18" rx="47.39" ry="18"/>
<text text-anchor="middle" x="429" y="-14.3" font-family="Times,serif" font-size="14.00">source1</text>
</g>
<!-- 8&#45;&gt;source1 -->
<g id="edge26" class="edge">
<title>8&#45;&gt;source1</title>
<path fill="none" stroke="black" d="M400.42,-64.47C404.51,-57.96 408.95,-50.9 413.07,-44.34"/>
<polygon fill="black" stroke="black" points="397.34,-62.79 394.98,-73.12 403.27,-66.51 397.34,-62.79"/>
<polygon fill="black" stroke="black" points="416.08,-46.13 418.44,-35.8 410.16,-42.4 416.08,-46.13"/>
</g>
<!-- 5 -->
<g id="node9" class="node">
<title>5</title>
<ellipse fill="none" stroke="black" cx="505" cy="-306" rx="27" ry="18"/>
<text text-anchor="middle" x="505" y="-302.3" font-family="Times,serif" font-size="14.00">5</text>
</g>
<!-- 5&#45;&gt;6 -->
<g id="edge20" class="edge">
<title>5&#45;&gt;6</title>
<path fill="none" stroke="black" d="M474.33,-290.49C448.96,-278.5 413.1,-261.53 387.72,-249.53"/>
<polygon fill="black" stroke="black" points="472.94,-293.71 483.48,-294.82 475.94,-287.38 472.94,-293.71"/>
<polygon fill="black" stroke="black" points="389.08,-246.3 378.55,-245.19 386.09,-252.63 389.08,-246.3"/>
</g>
<!-- 5&#45;&gt;8 -->
<g id="edge21" class="edge">
<title>5&#45;&gt;8</title>
<path fill="none" stroke="black" d="M494.26,-279.16C480.31,-246.63 454.35,-189.5 426,-144 419.59,-133.72 411.62,-123.03 404.4,-113.97"/>
<polygon fill="black" stroke="black" points="491.06,-280.59 498.19,-288.43 497.51,-277.85 491.06,-280.59"/>
<polygon fill="black" stroke="black" points="407.09,-111.72 398.06,-106.17 401.65,-116.14 407.09,-111.72"/>
</g>
<!-- 5&#45;&gt;source1 -->
<g id="edge22" class="edge">
<title>5&#45;&gt;source1</title>
<path fill="none" stroke="black" d="M500.11,-277.66C496.79,-259.98 492.09,-236.53 487,-216 471.75,-154.48 449.71,-83.39 437.66,-45.7"/>
<polygon fill="black" stroke="black" points="496.73,-278.64 501.99,-287.84 503.61,-277.37 496.73,-278.64"/>
<polygon fill="black" stroke="black" points="440.94,-44.44 434.55,-35.99 434.27,-46.58 440.94,-44.44"/>
</g>
<!-- annotation -->
<g id="node11" class="node">
<title>annotation</title>
<text text-anchor="middle" x="460" y="-518.9" font-family="Times,serif" font-size="12.00">Nodes: 10, Edges: 26, Coverage: 0.0</text>
</g>
</g>
</svg>
