<?xml version="1.0" encoding="UTF-8" standalone="no"?>
<!DOCTYPE svg PUBLIC "-//W3C//DTD SVG 1.1//EN"
 "http://www.w3.org/Graphics/SVG/1.1/DTD/svg11.dtd">
<!-- Generated by graphviz version 2.43.0 (0)
 -->
<!-- Title: IRIS region connectivity Pages: 1 -->
<svg width="1725pt" height="980pt"
 viewBox="0.00 0.00 1724.57 980.00" xmlns="http://www.w3.org/2000/svg" xmlns:xlink="http://www.w3.org/1999/xlink">
<g id="graph0" class="graph" transform="scale(1 1) rotate(0) translate(4 976)">
<title>IRIS region connectivity</title>
<polygon fill="white" stroke="transparent" points="-4,4 -4,-976 1720.57,-976 1720.57,4 -4,4"/>
<!-- 0 -->
<g id="node1" class="node">
<title>0</title>
<ellipse fill="none" stroke="black" cx="922.57" cy="-954" rx="27" ry="18"/>
<text text-anchor="middle" x="922.57" y="-950.3" font-family="Times,serif" font-size="14.00">0</text>
</g>
<!-- 1 -->
<g id="node2" class="node">
<title>1</title>
<ellipse fill="none" stroke="black" cx="922.57" cy="-882" rx="27" ry="18"/>
<text text-anchor="middle" x="922.57" y="-878.3" font-family="Times,serif" font-size="14.00">1</text>
</g>
<!-- 0&#45;&gt;1 -->
<g id="edge1" class="edge">
<title>0&#45;&gt;1</title>
<path fill="none" stroke="black" d="M922.57,-925.67C922.57,-920.69 922.57,-915.49 922.57,-910.51"/>
<polygon fill="black" stroke="black" points="919.07,-925.7 922.57,-935.7 926.07,-925.7 919.07,-925.7"/>
<polygon fill="black" stroke="black" points="926.07,-910.1 922.57,-900.1 919.07,-910.1 926.07,-910.1"/>
</g>
<!-- 2 -->
<g id="node3" class="node">
<title>2</title>
<ellipse fill="none" stroke="black" cx="791.57" cy="-810" rx="27" ry="18"/>
<text text-anchor="middle" x="791.57" y="-806.3" font-family="Times,serif" font-size="14.00">2</text>
</g>
<!-- 0&#45;&gt;2 -->
<g id="edge2" class="edge">
<title>0&#45;&gt;2</title>
<path fill="none" stroke="black" d="M901.98,-930.68C877.49,-904.13 836.83,-860.06 812.29,-833.45"/>
<polygon fill="black" stroke="black" points="899.69,-933.36 909.05,-938.34 904.84,-928.62 899.69,-933.36"/>
<polygon fill="black" stroke="black" points="814.57,-830.77 805.22,-825.79 809.43,-835.52 814.57,-830.77"/>
</g>
<!-- 3 -->
<g id="node4" class="node">
<title>3</title>
<ellipse fill="none" stroke="black" cx="743.57" cy="-738" rx="27" ry="18"/>
<text text-anchor="middle" x="743.57" y="-734.3" font-family="Times,serif" font-size="14.00">3</text>
</g>
<!-- 0&#45;&gt;3 -->
<g id="edge3" class="edge">
<title>0&#45;&gt;3</title>
<path fill="none" stroke="black" d="M890.47,-939.49C850.81,-920.88 784.98,-883.26 755.57,-828 745.47,-809.02 742.77,-784.65 742.43,-766.22"/>
<polygon fill="black" stroke="black" points="889.4,-942.85 899.95,-943.82 892.3,-936.48 889.4,-942.85"/>
<polygon fill="black" stroke="black" points="745.93,-766.15 742.46,-756.13 738.93,-766.12 745.93,-766.15"/>
</g>
<!-- 4 -->
<g id="node5" class="node">
<title>4</title>
<ellipse fill="none" stroke="black" cx="960.57" cy="-666" rx="27" ry="18"/>
<text text-anchor="middle" x="960.57" y="-662.3" font-family="Times,serif" font-size="14.00">4</text>
</g>
<!-- 0&#45;&gt;4 -->
<g id="edge4" class="edge">
<title>0&#45;&gt;4</title>
<path fill="none" stroke="black" d="M942.52,-929.88C948.9,-921.11 955.17,-910.65 958.57,-900 981.4,-828.44 972.16,-738.1 965.37,-693.88"/>
<polygon fill="black" stroke="black" points="939.56,-927.98 936.22,-938.04 945.1,-932.26 939.56,-927.98"/>
<polygon fill="black" stroke="black" points="968.81,-693.23 963.76,-683.92 961.9,-694.35 968.81,-693.23"/>
</g>
<!-- 5 -->
<g id="node6" class="node">
<title>5</title>
<ellipse fill="none" stroke="black" cx="1053.57" cy="-594" rx="27" ry="18"/>
<text text-anchor="middle" x="1053.57" y="-590.3" font-family="Times,serif" font-size="14.00">5</text>
</g>
<!-- 0&#45;&gt;5 -->
<g id="edge5" class="edge">
<title>0&#45;&gt;5</title>
<path fill="none" stroke="black" d="M947.76,-933.1C957.92,-923.95 969.01,-912.39 976.57,-900 1032.3,-808.65 1047.83,-678.46 1052.05,-622.4"/>
<polygon fill="black" stroke="black" points="945.17,-930.71 939.89,-939.89 949.75,-936.01 945.17,-930.71"/>
<polygon fill="black" stroke="black" points="1055.55,-622.43 1052.75,-612.21 1048.57,-621.95 1055.55,-622.43"/>
</g>
<!-- 6 -->
<g id="node7" class="node">
<title>6</title>
<ellipse fill="none" stroke="black" cx="559.57" cy="-522" rx="27" ry="18"/>
<text text-anchor="middle" x="559.57" y="-518.3" font-family="Times,serif" font-size="14.00">6</text>
</g>
<!-- 0&#45;&gt;6 -->
<g id="edge6" class="edge">
<title>0&#45;&gt;6</title>
<path fill="none" stroke="black" d="M888,-943.73C858.12,-934.91 814.37,-920.01 779.57,-900 692.25,-849.8 666.46,-835.46 604.57,-756 553.76,-690.77 556.01,-658.67 557.57,-576 557.73,-567.68 558.02,-558.63 558.34,-550.4"/>
<polygon fill="black" stroke="black" points="887.37,-947.19 897.95,-946.6 889.31,-940.47 887.37,-947.19"/>
<polygon fill="black" stroke="black" points="561.85,-550.32 558.76,-540.18 554.85,-550.03 561.85,-550.32"/>
</g>
<!-- 7 -->
<g id="node8" class="node">
<title>7</title>
<ellipse fill="none" stroke="black" cx="559.57" cy="-450" rx="27" ry="18"/>
<text text-anchor="middle" x="559.57" y="-446.3" font-family="Times,serif" font-size="14.00">7</text>
</g>
<!-- 0&#45;&gt;7 -->
<g id="edge7" class="edge">
<title>0&#45;&gt;7</title>
<path fill="none" stroke="black" d="M885.68,-949.88C776.71,-938.4 456.54,-887.83 338.57,-684 291.61,-602.86 372.02,-558.13 448.57,-504 472.98,-486.74 503.89,-472.51 526.89,-463.15"/>
<polygon fill="black" stroke="black" points="885.55,-953.38 895.85,-950.9 886.25,-946.42 885.55,-953.38"/>
<polygon fill="black" stroke="black" points="528.22,-466.39 536.22,-459.45 525.63,-459.89 528.22,-466.39"/>
</g>
<!-- 8 -->
<g id="node9" class="node">
<title>8</title>
<ellipse fill="none" stroke="black" cx="901.57" cy="-378" rx="27" ry="18"/>
<text text-anchor="middle" x="901.57" y="-374.3" font-family="Times,serif" font-size="14.00">8</text>
</g>
<!-- 0&#45;&gt;8 -->
<g id="edge8" class="edge">
<title>0&#45;&gt;8</title>
<path fill="none" stroke="black" d="M952.45,-937.31C967.97,-928.04 986.4,-915.15 999.57,-900 1100.44,-784.01 1131.17,-729.35 1120.57,-576 1115.8,-507 1116.77,-473.67 1061.57,-432 1024.74,-404.2 972.58,-390.54 937.94,-384.15"/>
<polygon fill="black" stroke="black" points="950.63,-934.32 943.71,-942.34 954.12,-940.38 950.63,-934.32"/>
<polygon fill="black" stroke="black" points="938.24,-380.65 927.79,-382.39 937.05,-387.54 938.24,-380.65"/>
</g>
<!-- 9 -->
<g id="node10" class="node">
<title>9</title>
<ellipse fill="none" stroke="black" cx="1051.57" cy="-306" rx="27" ry="18"/>
<text text-anchor="middle" x="1051.57" y="-302.3" font-family="Times,serif" font-size="14.00">9</text>
</g>
<!-- 0&#45;&gt;9 -->
<g id="edge9" class="edge">
<title>0&#45;&gt;9</title>
<path fill="none" stroke="black" d="M952.75,-938.1C954.7,-937.34 956.65,-936.63 958.57,-936 1097.11,-890.63 1602.57,-956.78 1602.57,-811 1602.57,-811 1602.57,-811 1602.57,-665 1602.57,-418.64 1210.47,-333.17 1087.8,-312.45"/>
<polygon fill="black" stroke="black" points="950.96,-935.05 943.15,-942.21 953.72,-941.49 950.96,-935.05"/>
<polygon fill="black" stroke="black" points="1088.21,-308.98 1077.78,-310.81 1087.08,-315.88 1088.21,-308.98"/>
</g>
<!-- 10 -->
<g id="node11" class="node">
<title>10</title>
<ellipse fill="none" stroke="black" cx="487.57" cy="-234" rx="27" ry="18"/>
<text text-anchor="middle" x="487.57" y="-230.3" font-family="Times,serif" font-size="14.00">10</text>
</g>
<!-- 0&#45;&gt;10 -->
<g id="edge10" class="edge">
<title>0&#45;&gt;10</title>
<path fill="none" stroke="black" d="M885.44,-950.38C728.11,-938.81 124.57,-889.32 124.57,-811 124.57,-811 124.57,-811 124.57,-665 124.57,-482.8 138.83,-395.99 285.57,-288 334.94,-251.67 407.2,-240.21 450.58,-236.62"/>
<polygon fill="black" stroke="black" points="885.34,-953.89 895.56,-951.12 885.84,-946.9 885.34,-953.89"/>
<polygon fill="black" stroke="black" points="450.98,-240.1 460.7,-235.88 450.47,-233.12 450.98,-240.1"/>
</g>
<!-- 11 -->
<g id="node12" class="node">
<title>11</title>
<ellipse fill="none" stroke="black" cx="611.57" cy="-162" rx="27" ry="18"/>
<text text-anchor="middle" x="611.57" y="-158.3" font-family="Times,serif" font-size="14.00">11</text>
</g>
<!-- 0&#45;&gt;11 -->
<g id="edge11" class="edge">
<title>0&#45;&gt;11</title>
<path fill="none" stroke="black" d="M885.09,-952.68C757.99,-951.19 344.35,-943.09 219.57,-900 152.34,-876.78 86.57,-882.12 86.57,-811 86.57,-811 86.57,-811 86.57,-305 86.57,-252.98 116.69,-240.51 162.57,-216 233.73,-177.98 480.15,-166.84 574.46,-163.93"/>
<polygon fill="black" stroke="black" points="885.42,-956.18 895.46,-952.79 885.5,-949.18 885.42,-956.18"/>
<polygon fill="black" stroke="black" points="574.77,-167.43 584.67,-163.63 574.57,-160.43 574.77,-167.43"/>
</g>
<!-- 12 -->
<g id="node13" class="node">
<title>12</title>
<ellipse fill="none" stroke="black" cx="1146.57" cy="-90" rx="27" ry="18"/>
<text text-anchor="middle" x="1146.57" y="-86.3" font-family="Times,serif" font-size="14.00">12</text>
</g>
<!-- 0&#45;&gt;12 -->
<g id="edge12" class="edge">
<title>0&#45;&gt;12</title>
<path fill="none" stroke="black" d="M952,-938.03C954.19,-937.25 956.4,-936.56 958.57,-936 1203.95,-872.77 1285.34,-974.37 1527.57,-900 1602.04,-877.14 1678.57,-888.9 1678.57,-811 1678.57,-811 1678.57,-811 1678.57,-377 1678.57,-151.79 1304.14,-103.16 1183.53,-93.34"/>
<polygon fill="black" stroke="black" points="950.54,-934.85 942.63,-941.9 953.21,-941.32 950.54,-934.85"/>
<polygon fill="black" stroke="black" points="1183.56,-89.83 1173.32,-92.55 1183.02,-96.81 1183.56,-89.83"/>
</g>
<!-- 13 -->
<g id="node14" class="node">
<title>13</title>
<ellipse fill="none" stroke="black" cx="1018.57" cy="-18" rx="27" ry="18"/>
<text text-anchor="middle" x="1018.57" y="-14.3" font-family="Times,serif" font-size="14.00">13</text>
</g>
<!-- 0&#45;&gt;13 -->
<g id="edge13" class="edge">
<title>0&#45;&gt;13</title>
<path fill="none" stroke="black" d="M952,-938.02C954.19,-937.24 956.39,-936.55 958.57,-936 1097.94,-900.65 1470.19,-951.13 1604.57,-900 1664,-877.39 1716.57,-874.58 1716.57,-811 1716.57,-811 1716.57,-811 1716.57,-161 1716.57,-24.97 1201.11,-17.87 1056.11,-18.56"/>
<polygon fill="black" stroke="black" points="950.54,-934.83 942.62,-941.87 953.2,-941.31 950.54,-934.83"/>
<polygon fill="black" stroke="black" points="1055.91,-15.07 1045.93,-18.63 1055.96,-22.07 1055.91,-15.07"/>
</g>
<!-- 1&#45;&gt;2 -->
<g id="edge14" class="edge">
<title>1&#45;&gt;2</title>
<path fill="none" stroke="black" d="M893.15,-865.28C871.59,-853.76 842.45,-838.19 820.91,-826.68"/>
<polygon fill="black" stroke="black" points="891.63,-868.44 902.1,-870.06 894.93,-862.26 891.63,-868.44"/>
<polygon fill="black" stroke="black" points="822.37,-823.49 811.9,-821.86 819.07,-829.66 822.37,-823.49"/>
</g>
<!-- 1&#45;&gt;3 -->
<g id="edge15" class="edge">
<title>1&#45;&gt;3</title>
<path fill="none" stroke="black" d="M901.18,-858.71C882.59,-839.9 854.49,-812.8 827.57,-792 810.07,-778.48 789.02,-765.2 772.37,-755.32"/>
<polygon fill="black" stroke="black" points="899.04,-861.52 908.53,-866.22 904.04,-856.62 899.04,-861.52"/>
<polygon fill="black" stroke="black" points="774.03,-752.23 763.63,-750.2 770.49,-758.27 774.03,-752.23"/>
</g>
<!-- 1&#45;&gt;4 -->
<g id="edge16" class="edge">
<title>1&#45;&gt;4</title>
<path fill="none" stroke="black" d="M927.37,-853.97C934.67,-812.87 948.48,-735.11 955.77,-694.02"/>
<polygon fill="black" stroke="black" points="923.92,-853.39 925.62,-863.85 930.81,-854.62 923.92,-853.39"/>
<polygon fill="black" stroke="black" points="959.26,-694.39 957.56,-683.94 952.37,-693.17 959.26,-694.39"/>
</g>
<!-- 1&#45;&gt;5 -->
<g id="edge17" class="edge">
<title>1&#45;&gt;5</title>
<path fill="none" stroke="black" d="M936.9,-856.03C957.7,-819.17 996.68,-747.71 1023.57,-684 1032.21,-663.53 1040.15,-639.64 1045.69,-621.77"/>
<polygon fill="black" stroke="black" points="933.68,-854.62 931.79,-865.04 939.77,-858.07 933.68,-854.62"/>
<polygon fill="black" stroke="black" points="1049.1,-622.59 1048.66,-612.01 1042.4,-620.56 1049.1,-622.59"/>
</g>
<!-- 1&#45;&gt;6 -->
<g id="edge18" class="edge">
<title>1&#45;&gt;6</title>
<path fill="none" stroke="black" d="M887.22,-873.28C829.57,-859.09 714.53,-823.89 642.57,-756 589.78,-706.2 580.04,-683.12 565.57,-612 561.43,-591.64 559.98,-568.18 559.54,-550.46"/>
<polygon fill="black" stroke="black" points="886.42,-876.69 896.96,-875.61 888.05,-869.88 886.42,-876.69"/>
<polygon fill="black" stroke="black" points="563.04,-550.19 559.38,-540.24 556.04,-550.3 563.04,-550.19"/>
</g>
<!-- 1&#45;&gt;7 -->
<g id="edge19" class="edge">
<title>1&#45;&gt;7</title>
<path fill="none" stroke="black" d="M885.95,-875.83C760.02,-857.56 352.57,-794.18 352.57,-739 352.57,-739 352.57,-739 352.57,-665 352.57,-613.48 478.08,-512.44 533.64,-470.24"/>
<polygon fill="black" stroke="black" points="885.82,-879.35 896.22,-877.31 886.82,-872.42 885.82,-879.35"/>
<polygon fill="black" stroke="black" points="536.05,-472.81 541.92,-463.99 531.83,-467.22 536.05,-472.81"/>
</g>
<!-- 1&#45;&gt;8 -->
<g id="edge20" class="edge">
<title>1&#45;&gt;8</title>
<path fill="none" stroke="black" d="M947.1,-861.13C1000.04,-815.76 1119.24,-698.91 1106.57,-576 1103.22,-543.49 1106.37,-533.14 1091.57,-504 1072.05,-465.56 1061.69,-457 1026.57,-432 998.65,-412.12 962.11,-397.72 935.76,-388.99"/>
<polygon fill="black" stroke="black" points="944.6,-858.67 939.21,-867.79 949.11,-864.02 944.6,-858.67"/>
<polygon fill="black" stroke="black" points="936.79,-385.65 926.2,-385.93 934.65,-392.31 936.79,-385.65"/>
</g>
<!-- 1&#45;&gt;9 -->
<g id="edge21" class="edge">
<title>1&#45;&gt;9</title>
<path fill="none" stroke="black" d="M953.8,-867.16C1047.49,-824.95 1322.58,-695.6 1369.57,-612 1448.76,-471.11 1180.65,-355.04 1084.55,-318.78"/>
<polygon fill="black" stroke="black" points="952.24,-864.03 944.55,-871.31 955.11,-870.41 952.24,-864.03"/>
<polygon fill="black" stroke="black" points="1085.61,-315.44 1075.02,-315.23 1083.17,-322 1085.61,-315.44"/>
</g>
<!-- 1&#45;&gt;10 -->
<g id="edge22" class="edge">
<title>1&#45;&gt;10</title>
<path fill="none" stroke="black" d="M885.86,-877.04C777.95,-865.35 468.64,-831.64 458.57,-828 310.11,-774.37 276.57,-680.86 276.57,-523 276.57,-523 276.57,-523 276.57,-449 276.57,-347.93 397.39,-277.28 456.18,-248.89"/>
<polygon fill="black" stroke="black" points="885.64,-880.53 895.96,-878.13 886.39,-873.57 885.64,-880.53"/>
<polygon fill="black" stroke="black" points="457.84,-251.98 465.39,-244.54 454.85,-245.65 457.84,-251.98"/>
</g>
<!-- 1&#45;&gt;11 -->
<g id="edge23" class="edge">
<title>1&#45;&gt;11</title>
<path fill="none" stroke="black" d="M911.17,-854.86C899.97,-826.78 884.57,-780.59 884.57,-739 884.57,-739 884.57,-739 884.57,-665 884.57,-558.96 691.19,-347.72 645.57,-252 635.77,-231.43 626.67,-207.24 620.36,-189.27"/>
<polygon fill="black" stroke="black" points="908.02,-856.42 915.06,-864.34 914.5,-853.76 908.02,-856.42"/>
<polygon fill="black" stroke="black" points="623.64,-188.04 617.07,-179.73 617.02,-190.33 623.64,-188.04"/>
</g>
<!-- 1&#45;&gt;12 -->
<g id="edge24" class="edge">
<title>1&#45;&gt;12</title>
<path fill="none" stroke="black" d="M955.75,-869.58C961.35,-867.69 967.12,-865.77 972.57,-864 1023.91,-847.31 1038.79,-848.87 1088.57,-828 1265.95,-753.64 1350.47,-722.37 1411.57,-540 1458.02,-401.36 1437.09,-336.7 1354.57,-216 1331.69,-182.53 1331.5,-167.64 1298.57,-144 1263.44,-118.78 1215.24,-104.68 1182.61,-97.48"/>
<polygon fill="black" stroke="black" points="954.27,-866.38 945.93,-872.91 956.52,-873.01 954.27,-866.38"/>
<polygon fill="black" stroke="black" points="1183.1,-94.01 1172.59,-95.38 1181.66,-100.86 1183.1,-94.01"/>
</g>
<!-- 1&#45;&gt;13 -->
<g id="edge25" class="edge">
<title>1&#45;&gt;13</title>
<path fill="none" stroke="black" d="M957.45,-872.87C1017.69,-858.8 1135.69,-831.11 1144.57,-828 1374.45,-747.52 1640.57,-838.56 1640.57,-595 1640.57,-595 1640.57,-595 1640.57,-161 1640.57,-40.35 1190.14,-22.21 1055.89,-19.48"/>
<polygon fill="black" stroke="black" points="956.55,-869.49 947.61,-875.17 958.14,-876.3 956.55,-869.49"/>
<polygon fill="black" stroke="black" points="1055.76,-15.98 1045.7,-19.29 1055.63,-22.98 1055.76,-15.98"/>
</g>
<!-- 2&#45;&gt;3 -->
<g id="edge26" class="edge">
<title>2&#45;&gt;3</title>
<path fill="none" stroke="black" d="M774.99,-784.81C770.2,-777.83 764.98,-770.22 760.19,-763.23"/>
<polygon fill="black" stroke="black" points="772.14,-786.85 780.68,-793.12 777.91,-782.89 772.14,-786.85"/>
<polygon fill="black" stroke="black" points="762.96,-761.09 754.42,-754.82 757.19,-765.05 762.96,-761.09"/>
</g>
<!-- 2&#45;&gt;4 -->
<g id="edge27" class="edge">
<title>2&#45;&gt;4</title>
<path fill="none" stroke="black" d="M815.59,-788.82C847.69,-761.85 904.24,-714.33 936.41,-687.3"/>
<polygon fill="black" stroke="black" points="813.18,-786.27 807.78,-795.38 817.68,-791.63 813.18,-786.27"/>
<polygon fill="black" stroke="black" points="939.01,-689.69 944.42,-680.57 934.51,-684.33 939.01,-689.69"/>
</g>
<!-- 2&#45;&gt;5 -->
<g id="edge28" class="edge">
<title>2&#45;&gt;5</title>
<path fill="none" stroke="black" d="M823.28,-795.74C866.65,-776.37 944.96,-736.79 996.57,-684 1015.01,-665.14 1030.71,-639.41 1040.93,-620.46"/>
<polygon fill="black" stroke="black" points="821.81,-792.56 814.06,-799.79 824.63,-798.97 821.81,-792.56"/>
<polygon fill="black" stroke="black" points="1044.09,-621.99 1045.63,-611.51 1037.89,-618.73 1044.09,-621.99"/>
</g>
<!-- 2&#45;&gt;6 -->
<g id="edge29" class="edge">
<title>2&#45;&gt;6</title>
<path fill="none" stroke="black" d="M760.22,-795.03C720.48,-775.72 652.57,-737.15 614.57,-684 584.97,-642.59 570.3,-583.96 563.87,-550.07"/>
<polygon fill="black" stroke="black" points="758.91,-798.28 769.45,-799.41 761.91,-791.95 758.91,-798.28"/>
<polygon fill="black" stroke="black" points="567.27,-549.22 562.06,-539.99 560.38,-550.45 567.27,-549.22"/>
</g>
<!-- 2&#45;&gt;7 -->
<g id="edge30" class="edge">
<title>2&#45;&gt;7</title>
<path fill="none" stroke="black" d="M755.76,-802.59C723.63,-795.45 676.46,-781.42 642.57,-756 610.99,-732.32 610.54,-718.05 590.57,-684 554.86,-623.11 538.82,-608.92 523.57,-540 520.11,-524.38 518.87,-519.29 523.57,-504 526.86,-493.31 533.11,-482.85 539.5,-474.08"/>
<polygon fill="black" stroke="black" points="755.11,-806.03 765.62,-804.67 756.56,-799.18 755.11,-806.03"/>
<polygon fill="black" stroke="black" points="542.46,-475.98 545.82,-465.93 536.93,-471.69 542.46,-475.98"/>
</g>
<!-- 2&#45;&gt;8 -->
<g id="edge31" class="edge">
<title>2&#45;&gt;8</title>
<path fill="none" stroke="black" d="M826.64,-800.85C858.36,-792.54 905.63,-777.75 942.57,-756 1021.38,-709.6 1056.42,-697.24 1089.57,-612 1126.94,-515.93 993.58,-428.88 931.59,-394.52"/>
<polygon fill="black" stroke="black" points="825.75,-797.47 816.92,-803.32 827.47,-804.25 825.75,-797.47"/>
<polygon fill="black" stroke="black" points="933.1,-391.36 922.64,-389.66 929.76,-397.51 933.1,-391.36"/>
</g>
<!-- 2&#45;&gt;9 -->
<g id="edge32" class="edge">
<title>2&#45;&gt;9</title>
<path fill="none" stroke="black" d="M827.7,-803.85C868.14,-797.04 934.78,-782.67 986.57,-756 1031.5,-732.86 1043.92,-724.18 1074.57,-684 1156.28,-576.88 1092.02,-398.88 1063.46,-332.76"/>
<polygon fill="black" stroke="black" points="827.07,-800.4 817.76,-805.45 828.19,-807.31 827.07,-800.4"/>
<polygon fill="black" stroke="black" points="1066.61,-331.22 1059.37,-323.49 1060.21,-334.05 1066.61,-331.22"/>
</g>
<!-- 2&#45;&gt;10 -->
<g id="edge33" class="edge">
<title>2&#45;&gt;10</title>
<path fill="none" stroke="black" d="M754.38,-807.28C630.33,-799.35 238.57,-755.89 238.57,-523 238.57,-523 238.57,-523 238.57,-449 238.57,-364.77 266.76,-332.03 338.57,-288 374.42,-266.01 420.72,-251.36 452.12,-243.14"/>
<polygon fill="black" stroke="black" points="754.33,-810.78 764.52,-807.88 754.75,-803.79 754.33,-810.78"/>
<polygon fill="black" stroke="black" points="453.33,-246.45 462.17,-240.6 451.61,-239.66 453.33,-246.45"/>
</g>
<!-- 2&#45;&gt;11 -->
<g id="edge34" class="edge">
<title>2&#45;&gt;11</title>
<path fill="none" stroke="black" d="M754.5,-806.76C666.29,-801.04 446.27,-784.29 378.57,-756 297.19,-721.99 124.57,-539.2 124.57,-451 124.57,-451 124.57,-451 124.57,-305 124.57,-211.36 460.57,-175.31 574.39,-165.78"/>
<polygon fill="black" stroke="black" points="754.38,-810.26 764.58,-807.41 754.82,-803.28 754.38,-810.26"/>
<polygon fill="black" stroke="black" points="575.01,-169.24 584.69,-164.94 574.44,-162.27 575.01,-169.24"/>
</g>
<!-- 2&#45;&gt;12 -->
<g id="edge35" class="edge">
<title>2&#45;&gt;12</title>
<path fill="none" stroke="black" d="M829.05,-809.83C934.82,-809.86 1235.54,-793.39 1353.57,-612 1468.83,-434.87 1410.54,-301.44 1269.57,-144 1257.18,-130.17 1212.38,-112.96 1180.43,-101.98"/>
<polygon fill="black" stroke="black" points="828.88,-806.33 818.86,-809.78 828.84,-813.33 828.88,-806.33"/>
<polygon fill="black" stroke="black" points="1181.15,-98.53 1170.56,-98.65 1178.91,-105.16 1181.15,-98.53"/>
</g>
<!-- 2&#45;&gt;13 -->
<g id="edge36" class="edge">
<title>2&#45;&gt;13</title>
<path fill="none" stroke="black" d="M754.24,-807.76C656.98,-804.05 397.96,-791.08 320.57,-756 99.7,-655.89 10.57,-549.5 10.57,-307 10.57,-307 10.57,-307 10.57,-161 10.57,-141.96 -55.28,-138.12 145.57,-72 304.22,-19.77 834.9,-18.17 981.04,-18.75"/>
<polygon fill="black" stroke="black" points="754.36,-811.26 764.48,-808.13 754.62,-804.27 754.36,-811.26"/>
<polygon fill="black" stroke="black" points="981.26,-22.25 991.27,-18.8 981.29,-15.25 981.26,-22.25"/>
</g>
<!-- 3&#45;&gt;4 -->
<g id="edge37" class="edge">
<title>3&#45;&gt;4</title>
<path fill="none" stroke="black" d="M777.34,-726.11C818.13,-712.95 886.33,-690.95 927.02,-677.82"/>
<polygon fill="black" stroke="black" points="776.07,-722.84 767.62,-729.24 778.21,-729.5 776.07,-722.84"/>
<polygon fill="black" stroke="black" points="928.3,-681.09 936.74,-674.69 926.15,-674.43 928.3,-681.09"/>
</g>
<!-- 3&#45;&gt;6 -->
<g id="edge38" class="edge">
<title>3&#45;&gt;6</title>
<path fill="none" stroke="black" d="M710.01,-725.96C688.4,-717.41 661.01,-703.67 642.57,-684 606.66,-645.67 619.8,-622.07 594.57,-576 589.25,-566.28 582.71,-556.02 576.73,-547.15"/>
<polygon fill="black" stroke="black" points="708.88,-729.28 719.48,-729.53 711.35,-722.73 708.88,-729.28"/>
<polygon fill="black" stroke="black" points="579.55,-545.07 571.01,-538.81 573.78,-549.03 579.55,-545.07"/>
</g>
<!-- 3&#45;&gt;7 -->
<g id="edge39" class="edge">
<title>3&#45;&gt;7</title>
<path fill="none" stroke="black" d="M717.05,-718.81C704.81,-709.46 690.78,-697.25 680.57,-684 626.59,-613.91 639.45,-580.82 595.57,-504 589.94,-494.15 583.09,-483.73 576.87,-474.77"/>
<polygon fill="black" stroke="black" points="715.04,-721.68 725.16,-724.81 719.2,-716.05 715.04,-721.68"/>
<polygon fill="black" stroke="black" points="579.56,-472.51 570.94,-466.36 573.84,-476.55 579.56,-472.51"/>
</g>
<!-- 3&#45;&gt;8 -->
<g id="edge40" class="edge">
<title>3&#45;&gt;8</title>
<path fill="none" stroke="black" d="M755.12,-710.84C784.33,-644.65 860.92,-471.11 890.08,-405.05"/>
<polygon fill="black" stroke="black" points="751.82,-709.65 750.98,-720.21 758.22,-712.48 751.82,-709.65"/>
<polygon fill="black" stroke="black" points="893.34,-406.31 894.18,-395.75 886.94,-403.49 893.34,-406.31"/>
</g>
<!-- 3&#45;&gt;9 -->
<g id="edge41" class="edge">
<title>3&#45;&gt;9</title>
<path fill="none" stroke="black" d="M760.64,-713.17C814.5,-637.98 980.48,-406.26 1034.43,-330.93"/>
<polygon fill="black" stroke="black" points="757.69,-711.27 754.71,-721.44 763.38,-715.35 757.69,-711.27"/>
<polygon fill="black" stroke="black" points="1037.46,-332.7 1040.44,-322.54 1031.77,-328.63 1037.46,-332.7"/>
</g>
<!-- 3&#45;&gt;10 -->
<g id="edge42" class="edge">
<title>3&#45;&gt;10</title>
<path fill="none" stroke="black" d="M708.52,-727.72C681.15,-719.32 643.09,-705.01 614.57,-684 547.73,-634.75 535.37,-612.87 495.57,-540 441.6,-441.18 449.68,-398.82 469.57,-288 471.16,-279.16 473.94,-269.8 476.86,-261.44"/>
<polygon fill="black" stroke="black" points="707.87,-731.18 718.45,-730.65 709.85,-724.46 707.87,-731.18"/>
<polygon fill="black" stroke="black" points="480.22,-262.44 480.4,-251.84 473.65,-260.01 480.22,-262.44"/>
</g>
<!-- 3&#45;&gt;11 -->
<g id="edge43" class="edge">
<title>3&#45;&gt;11</title>
<path fill="none" stroke="black" d="M707.85,-730.77C670.87,-723.33 612.23,-708.67 566.57,-684 391.75,-589.53 308.39,-576.17 224.57,-396 154.46,-245.3 465.69,-184.43 574.9,-167.94"/>
<polygon fill="black" stroke="black" points="707.19,-734.21 717.68,-732.68 708.53,-727.34 707.19,-734.21"/>
<polygon fill="black" stroke="black" points="575.73,-171.35 585.12,-166.44 574.71,-164.43 575.73,-171.35"/>
</g>
<!-- 3&#45;&gt;12 -->
<g id="edge44" class="edge">
<title>3&#45;&gt;12</title>
<path fill="none" stroke="black" d="M779.77,-731.8C876.85,-717.17 1139.69,-672.66 1199.57,-612 1325.42,-484.53 1309.7,-391.65 1274.57,-216 1267.77,-182.01 1267.82,-169.72 1244.57,-144 1227.1,-124.67 1200.89,-111.01 1179.97,-102.41"/>
<polygon fill="black" stroke="black" points="779.21,-728.35 769.84,-733.29 780.24,-735.27 779.21,-728.35"/>
<polygon fill="black" stroke="black" points="1181.08,-99.08 1170.49,-98.7 1178.52,-105.6 1181.08,-99.08"/>
</g>
<!-- 3&#45;&gt;13 -->
<g id="edge45" class="edge">
<title>3&#45;&gt;13</title>
<path fill="none" stroke="black" d="M781.02,-735.56C846.43,-732.13 985.03,-720.78 1095.57,-684 1337.05,-603.64 1526.57,-561.5 1526.57,-307 1526.57,-307 1526.57,-307 1526.57,-161 1526.57,-63.21 1172.97,-29.75 1055.79,-21.35"/>
<polygon fill="black" stroke="black" points="780.61,-732.08 770.8,-736.06 780.96,-739.07 780.61,-732.08"/>
<polygon fill="black" stroke="black" points="1055.74,-17.84 1045.52,-20.63 1055.26,-24.82 1055.74,-17.84"/>
</g>
<!-- 4&#45;&gt;5 -->
<g id="edge46" class="edge">
<title>4&#45;&gt;5</title>
<path fill="none" stroke="black" d="M986.4,-645.56C999.41,-635.77 1015.13,-623.93 1028.09,-614.18"/>
<polygon fill="black" stroke="black" points="983.95,-643.02 978.06,-651.83 988.16,-648.62 983.95,-643.02"/>
<polygon fill="black" stroke="black" points="1030.27,-616.92 1036.16,-608.11 1026.06,-611.32 1030.27,-616.92"/>
</g>
<!-- 4&#45;&gt;6 -->
<g id="edge47" class="edge">
<title>4&#45;&gt;6</title>
<path fill="none" stroke="black" d="M924.98,-657.3C890.42,-648.99 837.09,-633.93 794.57,-612 770.87,-599.77 770.47,-587.83 746.57,-576 719.86,-562.77 640.98,-542.57 594.64,-531.31"/>
<polygon fill="black" stroke="black" points="924.54,-660.79 935.08,-659.66 926.14,-653.98 924.54,-660.79"/>
<polygon fill="black" stroke="black" points="595.26,-527.86 584.72,-528.91 593.62,-534.66 595.26,-527.86"/>
</g>
<!-- 4&#45;&gt;7 -->
<g id="edge48" class="edge">
<title>4&#45;&gt;7</title>
<path fill="none" stroke="black" d="M930.91,-649.17C856.67,-609.55 663.46,-506.44 589.23,-466.83"/>
<polygon fill="black" stroke="black" points="929.66,-652.47 940.13,-654.09 932.96,-646.3 929.66,-652.47"/>
<polygon fill="black" stroke="black" points="590.44,-463.5 579.97,-461.88 587.14,-469.68 590.44,-463.5"/>
</g>
<!-- 4&#45;&gt;8 -->
<g id="edge49" class="edge">
<title>4&#45;&gt;8</title>
<path fill="none" stroke="black" d="M955.01,-638.04C943.75,-583.45 918.37,-460.43 907.12,-405.9"/>
<polygon fill="black" stroke="black" points="951.61,-638.88 957.06,-647.97 958.46,-637.46 951.61,-638.88"/>
<polygon fill="black" stroke="black" points="910.51,-405.03 905.07,-395.94 903.66,-406.45 910.51,-405.03"/>
</g>
<!-- 4&#45;&gt;9 -->
<g id="edge50" class="edge">
<title>4&#45;&gt;9</title>
<path fill="none" stroke="black" d="M967.32,-638.43C984.15,-572.23 1027.81,-400.48 1044.73,-333.92"/>
<polygon fill="black" stroke="black" points="963.91,-637.66 964.84,-648.21 970.69,-639.38 963.91,-637.66"/>
<polygon fill="black" stroke="black" points="1048.14,-334.72 1047.21,-324.17 1041.35,-333 1048.14,-334.72"/>
</g>
<!-- 4&#45;&gt;10 -->
<g id="edge51" class="edge">
<title>4&#45;&gt;10</title>
<path fill="none" stroke="black" d="M924.37,-659.6C829.73,-644.74 578.49,-600.32 523.57,-540 452.1,-461.5 470.03,-320.61 481.52,-261.86"/>
<polygon fill="black" stroke="black" points="923.92,-663.07 934.33,-661.14 924.99,-656.15 923.92,-663.07"/>
<polygon fill="black" stroke="black" points="484.99,-262.38 483.57,-251.89 478.13,-260.98 484.99,-262.38"/>
</g>
<!-- 4&#45;&gt;11 -->
<g id="edge52" class="edge">
<title>4&#45;&gt;11</title>
<path fill="none" stroke="black" d="M944.01,-641.19C885.24,-556.64 686.97,-271.46 628.15,-186.85"/>
<polygon fill="black" stroke="black" points="941.16,-643.21 949.74,-649.43 946.91,-639.22 941.16,-643.21"/>
<polygon fill="black" stroke="black" points="631.03,-184.85 622.44,-178.64 625.28,-188.85 631.03,-184.85"/>
</g>
<!-- 4&#45;&gt;12 -->
<g id="edge53" class="edge">
<title>4&#45;&gt;12</title>
<path fill="none" stroke="black" d="M995.67,-656.76C1023.47,-648.87 1062.07,-634.75 1089.57,-612 1209.31,-512.94 1260.57,-462.41 1260.57,-307 1260.57,-307 1260.57,-307 1260.57,-233 1260.57,-178.15 1208.21,-132.42 1174.46,-108.65"/>
<polygon fill="black" stroke="black" points="994.7,-653.4 985.96,-659.39 996.53,-660.15 994.7,-653.4"/>
<polygon fill="black" stroke="black" points="1176.14,-105.56 1165.91,-102.81 1172.19,-111.34 1176.14,-105.56"/>
</g>
<!-- 4&#45;&gt;13 -->
<g id="edge54" class="edge">
<title>4&#45;&gt;13</title>
<path fill="none" stroke="black" d="M995.7,-657.48C1107.95,-631.21 1450.57,-532.53 1450.57,-307 1450.57,-307 1450.57,-307 1450.57,-161 1450.57,-78.09 1159.77,-35.64 1055.35,-23.07"/>
<polygon fill="black" stroke="black" points="994.85,-654.09 985.88,-659.73 996.41,-660.91 994.85,-654.09"/>
<polygon fill="black" stroke="black" points="1055.61,-19.58 1045.27,-21.88 1054.79,-26.53 1055.61,-19.58"/>
</g>
<!-- 5&#45;&gt;6 -->
<g id="edge55" class="edge">
<title>5&#45;&gt;6</title>
<path fill="none" stroke="black" d="M1016.95,-587.91C949.57,-578.53 801.41,-557.84 676.57,-540 649.44,-536.12 618.77,-531.66 595.64,-528.29"/>
<polygon fill="black" stroke="black" points="1016.67,-591.4 1027.05,-589.32 1017.63,-584.47 1016.67,-591.4"/>
<polygon fill="black" stroke="black" points="595.99,-524.8 585.59,-526.82 594.98,-531.73 595.99,-524.8"/>
</g>
<!-- 5&#45;&gt;7 -->
<g id="edge56" class="edge">
<title>5&#45;&gt;7</title>
<path fill="none" stroke="black" d="M1019.14,-583.31C981.61,-572.73 919.79,-555.26 866.57,-540 767.39,-511.57 650.34,-477.49 593.69,-460.96"/>
<polygon fill="black" stroke="black" points="1018.48,-586.76 1029.05,-586.1 1020.38,-580.02 1018.48,-586.76"/>
<polygon fill="black" stroke="black" points="594.41,-457.53 583.83,-458.09 592.45,-464.25 594.41,-457.53"/>
</g>
<!-- 5&#45;&gt;8 -->
<g id="edge57" class="edge">
<title>5&#45;&gt;8</title>
<path fill="none" stroke="black" d="M1036.6,-569.11C1007.33,-527.9 947.7,-443.94 918.48,-402.8"/>
<polygon fill="black" stroke="black" points="1033.75,-571.14 1042.39,-577.26 1039.46,-567.08 1033.75,-571.14"/>
<polygon fill="black" stroke="black" points="921.2,-400.6 912.56,-394.47 915.5,-404.65 921.2,-400.6"/>
</g>
<!-- 5&#45;&gt;9 -->
<g id="edge58" class="edge">
<title>5&#45;&gt;9</title>
<path fill="none" stroke="black" d="M1053.38,-565.7C1053,-511.19 1052.15,-389.41 1051.76,-334.63"/>
<polygon fill="black" stroke="black" points="1049.88,-565.99 1053.45,-575.97 1056.88,-565.94 1049.88,-565.99"/>
<polygon fill="black" stroke="black" points="1055.26,-334.28 1051.69,-324.31 1048.26,-334.33 1055.26,-334.28"/>
</g>
<!-- 5&#45;&gt;10 -->
<g id="edge59" class="edge">
<title>5&#45;&gt;10</title>
<path fill="none" stroke="black" d="M1019.04,-583.82C988.05,-574.86 941.86,-559.73 904.57,-540 741.77,-453.87 571.85,-309.68 510.97,-255.98"/>
<polygon fill="black" stroke="black" points="1018.35,-587.26 1028.93,-586.61 1020.25,-580.52 1018.35,-587.26"/>
<polygon fill="black" stroke="black" points="512.92,-253.04 503.12,-249.02 508.28,-258.28 512.92,-253.04"/>
</g>
<!-- 5&#45;&gt;11 -->
<g id="edge60" class="edge">
<title>5&#45;&gt;11</title>
<path fill="none" stroke="black" d="M1027.24,-574.54C1014.16,-564.87 998.45,-552.47 985.57,-540 925.71,-482.06 916.17,-462.18 865.57,-396 806.26,-318.42 815.73,-277.12 739.57,-216 712.13,-193.97 674.24,-179.81 646.82,-171.72"/>
<polygon fill="black" stroke="black" points="1025.25,-577.42 1035.39,-580.47 1029.37,-571.76 1025.25,-577.42"/>
<polygon fill="black" stroke="black" points="647.44,-168.26 636.86,-168.91 645.54,-175 647.44,-168.26"/>
</g>
<!-- 5&#45;&gt;12 -->
<g id="edge61" class="edge">
<title>5&#45;&gt;12</title>
<path fill="none" stroke="black" d="M1077.16,-572.33C1114.88,-536.87 1184.57,-460.34 1184.57,-379 1184.57,-379 1184.57,-379 1184.57,-233 1184.57,-191.41 1169.17,-145.22 1157.98,-117.14"/>
<polygon fill="black" stroke="black" points="1074.62,-569.92 1069.63,-579.27 1079.36,-575.07 1074.62,-569.92"/>
<polygon fill="black" stroke="black" points="1161.12,-115.58 1154.08,-107.66 1154.64,-118.24 1161.12,-115.58"/>
</g>
<!-- 5&#45;&gt;13 -->
<g id="edge62" class="edge">
<title>5&#45;&gt;13</title>
<path fill="none" stroke="black" d="M1083.76,-578.03C1100.61,-568.68 1121.24,-555.48 1136.57,-540 1267.72,-407.57 1356.21,-311.55 1274.57,-144 1234,-60.74 1115.81,-32.4 1055.26,-23.19"/>
<polygon fill="black" stroke="black" points="1081.99,-575.01 1074.84,-582.82 1085.3,-581.17 1081.99,-575.01"/>
<polygon fill="black" stroke="black" points="1055.4,-19.67 1045.01,-21.73 1054.41,-26.6 1055.4,-19.67"/>
</g>
<!-- 6&#45;&gt;7 -->
<g id="edge63" class="edge">
<title>6&#45;&gt;7</title>
<path fill="none" stroke="black" d="M559.57,-493.67C559.57,-488.69 559.57,-483.49 559.57,-478.51"/>
<polygon fill="black" stroke="black" points="556.07,-493.7 559.57,-503.7 563.07,-493.7 556.07,-493.7"/>
<polygon fill="black" stroke="black" points="563.07,-478.1 559.57,-468.1 556.07,-478.1 563.07,-478.1"/>
</g>
<!-- 6&#45;&gt;8 -->
<g id="edge64" class="edge">
<title>6&#45;&gt;8</title>
<path fill="none" stroke="black" d="M592.94,-509.59C622.5,-499.3 666.72,-483.44 704.57,-468 764.31,-443.62 832.67,-411.85 871.12,-393.6"/>
<polygon fill="black" stroke="black" points="591.43,-506.41 583.13,-512.99 593.73,-513.02 591.43,-506.41"/>
<polygon fill="black" stroke="black" points="872.7,-396.73 880.23,-389.27 869.69,-390.41 872.7,-396.73"/>
</g>
<!-- 6&#45;&gt;9 -->
<g id="edge65" class="edge">
<title>6&#45;&gt;9</title>
<path fill="none" stroke="black" d="M586.52,-502.99C615.18,-484.19 662.14,-454.39 704.57,-432 773.9,-395.42 791.91,-386.81 865.57,-360 917.2,-341.21 978.81,-324.79 1016.56,-315.38"/>
<polygon fill="black" stroke="black" points="584.31,-500.26 577.89,-508.69 588.16,-506.1 584.31,-500.26"/>
<polygon fill="black" stroke="black" points="1017.67,-318.71 1026.54,-312.92 1015.99,-311.92 1017.67,-318.71"/>
</g>
<!-- 6&#45;&gt;10 -->
<g id="edge66" class="edge">
<title>6&#45;&gt;10</title>
<path fill="none" stroke="black" d="M540.69,-497.48C534.42,-488.67 527.93,-478.29 523.57,-468 493.9,-398.02 488.33,-306.97 487.51,-262.24"/>
<polygon fill="black" stroke="black" points="538.03,-499.77 546.8,-505.71 543.65,-495.6 538.03,-499.77"/>
<polygon fill="black" stroke="black" points="491.01,-262.11 487.39,-252.15 484.01,-262.19 491.01,-262.11"/>
</g>
<!-- 6&#45;&gt;11 -->
<g id="edge67" class="edge">
<title>6&#45;&gt;11</title>
<path fill="none" stroke="black" d="M529.62,-505.65C494.51,-485.76 438.15,-447.45 414.57,-396 407.91,-381.45 412.56,-375.87 414.57,-360 422.86,-294.44 406.47,-264.29 451.57,-216 483.56,-181.74 538.17,-169.6 574.56,-165.32"/>
<polygon fill="black" stroke="black" points="528.03,-508.77 538.48,-510.53 531.41,-502.64 528.03,-508.77"/>
<polygon fill="black" stroke="black" points="575.17,-168.77 584.76,-164.27 574.45,-161.81 575.17,-168.77"/>
</g>
<!-- 6&#45;&gt;12 -->
<g id="edge68" class="edge">
<title>6&#45;&gt;12</title>
<path fill="none" stroke="black" d="M596.03,-515.85C724.23,-496.72 1146.57,-424.77 1146.57,-307 1146.57,-307 1146.57,-307 1146.57,-233 1146.57,-193 1146.57,-146.65 1146.57,-118.08"/>
<polygon fill="black" stroke="black" points="595.32,-512.41 585.93,-517.33 596.34,-519.34 595.32,-512.41"/>
<polygon fill="black" stroke="black" points="1150.07,-118.05 1146.57,-108.05 1143.07,-118.05 1150.07,-118.05"/>
</g>
<!-- 6&#45;&gt;13 -->
<g id="edge69" class="edge">
<title>6&#45;&gt;13</title>
<path fill="none" stroke="black" d="M523.72,-514.1C407.5,-490.72 48.57,-410.18 48.57,-307 48.57,-307 48.57,-307 48.57,-161 48.57,-64.89 803.78,-27.83 981.46,-20.44"/>
<polygon fill="black" stroke="black" points="523.39,-517.6 533.88,-516.12 524.76,-510.74 523.39,-517.6"/>
<polygon fill="black" stroke="black" points="981.77,-23.93 991.62,-20.03 981.48,-16.94 981.77,-23.93"/>
</g>
<!-- 7&#45;&gt;8 -->
<g id="edge70" class="edge">
<title>7&#45;&gt;8</title>
<path fill="none" stroke="black" d="M594.97,-441.75C660.59,-428.32 800.41,-399.7 866.1,-386.26"/>
<polygon fill="black" stroke="black" points="594.09,-438.36 585,-443.8 595.5,-445.22 594.09,-438.36"/>
<polygon fill="black" stroke="black" points="866.88,-389.67 875.98,-384.24 865.48,-382.81 866.88,-389.67"/>
</g>
<!-- 7&#45;&gt;9 -->
<g id="edge71" class="edge">
<title>7&#45;&gt;9</title>
<path fill="none" stroke="black" d="M586.01,-430.33C616.48,-409.75 668.79,-377.28 718.57,-360 821.82,-324.16 951.59,-312.41 1014.27,-308.67"/>
<polygon fill="black" stroke="black" points="583.92,-427.51 577.64,-436.05 587.87,-433.29 583.92,-427.51"/>
<polygon fill="black" stroke="black" points="1014.67,-312.15 1024.46,-308.1 1014.28,-305.16 1014.67,-312.15"/>
</g>
<!-- 7&#45;&gt;10 -->
<g id="edge72" class="edge">
<title>7&#45;&gt;10</title>
<path fill="none" stroke="black" d="M543.49,-424.79C538.17,-415.99 532.59,-405.81 528.57,-396 509.98,-350.69 498.01,-294.65 492.06,-262.05"/>
<polygon fill="black" stroke="black" points="540.58,-426.74 548.85,-433.37 546.52,-423.03 540.58,-426.74"/>
<polygon fill="black" stroke="black" points="495.46,-261.18 490.27,-251.95 488.57,-262.4 495.46,-261.18"/>
</g>
<!-- 7&#45;&gt;11 -->
<g id="edge73" class="edge">
<title>7&#45;&gt;11</title>
<path fill="none" stroke="black" d="M560.77,-421.69C561.78,-404.03 563.56,-380.57 566.57,-360 576.05,-295.22 582.32,-279.66 597.57,-216 599.6,-207.54 601.96,-198.36 604.16,-190.06"/>
<polygon fill="black" stroke="black" points="557.27,-421.69 560.24,-431.86 564.26,-422.06 557.27,-421.69"/>
<polygon fill="black" stroke="black" points="607.62,-190.7 606.83,-180.14 600.86,-188.89 607.62,-190.7"/>
</g>
<!-- 7&#45;&gt;12 -->
<g id="edge74" class="edge">
<title>7&#45;&gt;12</title>
<path fill="none" stroke="black" d="M576.68,-425.02C591.28,-405.76 613.67,-378.89 637.57,-360 798.84,-232.58 1029.46,-136.29 1113.95,-103.34"/>
<polygon fill="black" stroke="black" points="573.7,-423.17 570.54,-433.28 579.31,-427.35 573.7,-423.17"/>
<polygon fill="black" stroke="black" points="1115.45,-106.51 1123.52,-99.64 1112.93,-99.98 1115.45,-106.51"/>
</g>
<!-- 7&#45;&gt;13 -->
<g id="edge75" class="edge">
<title>7&#45;&gt;13</title>
<path fill="none" stroke="black" d="M532.09,-431.76C461,-386.73 276.57,-266.82 276.57,-235 276.57,-235 276.57,-235 276.57,-161 276.57,-88.39 831.73,-35.15 981.64,-22.1"/>
<polygon fill="black" stroke="black" points="530.24,-434.74 540.56,-437.12 533.98,-428.82 530.24,-434.74"/>
<polygon fill="black" stroke="black" points="982.06,-25.57 991.72,-21.23 981.46,-18.6 982.06,-25.57"/>
</g>
<!-- 8&#45;&gt;9 -->
<g id="edge76" class="edge">
<title>8&#45;&gt;9</title>
<path fill="none" stroke="black" d="M932.37,-362.63C958.22,-350.56 994.95,-333.42 1020.79,-321.36"/>
<polygon fill="black" stroke="black" points="930.64,-359.57 923.06,-366.97 933.6,-365.91 930.64,-359.57"/>
<polygon fill="black" stroke="black" points="1022.54,-324.41 1030.12,-317.01 1019.58,-318.07 1022.54,-324.41"/>
</g>
<!-- 8&#45;&gt;10 -->
<g id="edge77" class="edge">
<title>8&#45;&gt;10</title>
<path fill="none" stroke="black" d="M871.64,-361.68C833.11,-342.43 763.7,-309.33 701.57,-288 640.2,-266.93 566.27,-250.52 523.32,-241.84"/>
<polygon fill="black" stroke="black" points="870.25,-364.9 880.75,-366.26 873.39,-358.64 870.25,-364.9"/>
<polygon fill="black" stroke="black" points="523.85,-238.38 513.36,-239.86 522.48,-245.25 523.85,-238.38"/>
</g>
<!-- 8&#45;&gt;11 -->
<g id="edge78" class="edge">
<title>8&#45;&gt;11</title>
<path fill="none" stroke="black" d="M894.65,-350.4C883.88,-314.4 859.64,-250.71 815.57,-216 766.74,-177.53 692.88,-166.78 648.72,-163.9"/>
<polygon fill="black" stroke="black" points="891.34,-351.54 897.45,-360.19 898.07,-349.62 891.34,-351.54"/>
<polygon fill="black" stroke="black" points="648.87,-160.4 638.7,-163.35 648.49,-167.39 648.87,-160.4"/>
</g>
<!-- 8&#45;&gt;12 -->
<g id="edge79" class="edge">
<title>8&#45;&gt;12</title>
<path fill="none" stroke="black" d="M927.98,-358.22C940.6,-348.66 955.53,-336.44 967.57,-324 1037.1,-252.13 1040.61,-222.49 1102.57,-144 1110.48,-133.98 1119.44,-123.1 1127.2,-113.82"/>
<polygon fill="black" stroke="black" points="925.62,-355.61 919.68,-364.39 929.79,-361.23 925.62,-355.61"/>
<polygon fill="black" stroke="black" points="1129.91,-116.05 1133.66,-106.14 1124.55,-111.55 1129.91,-116.05"/>
</g>
<!-- 8&#45;&gt;13 -->
<g id="edge80" class="edge">
<title>8&#45;&gt;13</title>
<path fill="none" stroke="black" d="M910.26,-350.41C931.96,-284.03 988.29,-111.64 1009.93,-45.43"/>
<polygon fill="black" stroke="black" points="906.84,-349.62 907.06,-360.21 913.49,-351.8 906.84,-349.62"/>
<polygon fill="black" stroke="black" points="1013.32,-46.34 1013.1,-35.75 1006.66,-44.17 1013.32,-46.34"/>
</g>
<!-- 9&#45;&gt;10 -->
<g id="edge81" class="edge">
<title>9&#45;&gt;10</title>
<path fill="none" stroke="black" d="M1014.95,-300.46C912.88,-287.79 626,-252.18 524.07,-239.53"/>
<polygon fill="black" stroke="black" points="1014.77,-303.96 1025.12,-301.72 1015.63,-297.01 1014.77,-303.96"/>
<polygon fill="black" stroke="black" points="524.32,-236.03 513.96,-238.28 523.45,-242.98 524.32,-236.03"/>
</g>
<!-- 9&#45;&gt;11 -->
<g id="edge82" class="edge">
<title>9&#45;&gt;11</title>
<path fill="none" stroke="black" d="M1022.05,-289.4C984.02,-269.85 915.43,-236.43 853.57,-216 782.23,-192.44 695.57,-176.35 647.72,-168.51"/>
<polygon fill="black" stroke="black" points="1020.55,-292.56 1031.04,-294.05 1023.77,-286.35 1020.55,-292.56"/>
<polygon fill="black" stroke="black" points="648.26,-165.06 637.83,-166.92 647.15,-171.97 648.26,-165.06"/>
</g>
<!-- 9&#45;&gt;12 -->
<g id="edge83" class="edge">
<title>9&#45;&gt;12</title>
<path fill="none" stroke="black" d="M1062.98,-279.29C1081.24,-238.17 1116.8,-158.06 1135.1,-116.85"/>
<polygon fill="black" stroke="black" points="1059.73,-278 1058.87,-288.56 1066.12,-280.84 1059.73,-278"/>
<polygon fill="black" stroke="black" points="1138.39,-118.05 1139.25,-107.49 1131.99,-115.21 1138.39,-118.05"/>
</g>
<!-- 9&#45;&gt;13 -->
<g id="edge84" class="edge">
<title>9&#45;&gt;13</title>
<path fill="none" stroke="black" d="M1048.42,-277.7C1042.12,-223.08 1028.02,-100.9 1021.72,-46.29"/>
<polygon fill="black" stroke="black" points="1044.98,-278.43 1049.61,-287.97 1051.94,-277.63 1044.98,-278.43"/>
<polygon fill="black" stroke="black" points="1025.19,-45.84 1020.57,-36.31 1018.24,-46.64 1025.19,-45.84"/>
</g>
<!-- 10&#45;&gt;11 -->
<g id="edge85" class="edge">
<title>10&#45;&gt;11</title>
<path fill="none" stroke="black" d="M516.5,-216.67C536.45,-205.41 562.85,-190.5 582.77,-179.26"/>
<polygon fill="black" stroke="black" points="514.48,-213.79 507.49,-221.75 517.92,-219.89 514.48,-213.79"/>
<polygon fill="black" stroke="black" points="584.71,-182.18 591.7,-174.22 581.27,-176.09 584.71,-182.18"/>
</g>
<!-- 10&#45;&gt;12 -->
<g id="edge86" class="edge">
<title>10&#45;&gt;12</title>
<path fill="none" stroke="black" d="M503.73,-208.97C519.39,-187.87 545.19,-158.37 575.57,-144 670.71,-99 998.18,-92.18 1109.33,-91.17"/>
<polygon fill="black" stroke="black" points="500.85,-206.99 497.85,-217.15 506.53,-211.07 500.85,-206.99"/>
<polygon fill="black" stroke="black" points="1109.42,-94.67 1119.39,-91.09 1109.36,-87.67 1109.42,-94.67"/>
</g>
<!-- 10&#45;&gt;13 -->
<g id="edge87" class="edge">
<title>10&#45;&gt;13</title>
<path fill="none" stroke="black" d="M493,-206.11C498.33,-186.32 508.41,-160.16 526.57,-144 595.42,-82.76 880.04,-38.17 982.01,-23.88"/>
<polygon fill="black" stroke="black" points="489.54,-205.52 490.56,-216.07 496.34,-207.19 489.54,-205.52"/>
<polygon fill="black" stroke="black" points="982.71,-27.32 992.14,-22.48 981.75,-20.39 982.71,-27.32"/>
</g>
<!-- 11&#45;&gt;12 -->
<g id="edge88" class="edge">
<title>11&#45;&gt;12</title>
<path fill="none" stroke="black" d="M648.17,-156.21C745.99,-143.41 1012.69,-108.52 1110.23,-95.76"/>
<polygon fill="black" stroke="black" points="647.56,-152.76 638.1,-157.53 648.47,-159.7 647.56,-152.76"/>
<polygon fill="black" stroke="black" points="1110.74,-99.22 1120.2,-94.45 1109.83,-92.28 1110.74,-99.22"/>
</g>
<!-- 11&#45;&gt;13 -->
<g id="edge89" class="edge">
<title>11&#45;&gt;13</title>
<path fill="none" stroke="black" d="M644.45,-149.53C720.71,-122.92 908.97,-57.24 985.46,-30.55"/>
<polygon fill="black" stroke="black" points="643.2,-146.26 634.91,-152.86 645.51,-152.87 643.2,-146.26"/>
<polygon fill="black" stroke="black" points="986.78,-33.8 995.07,-27.2 984.47,-27.19 986.78,-33.8"/>
</g>
<!-- 12&#45;&gt;13 -->
<g id="edge90" class="edge">
<title>12&#45;&gt;13</title>
<path fill="none" stroke="black" d="M1117.27,-72.97C1096.44,-61.58 1068.58,-46.35 1047.77,-34.97"/>
<polygon fill="black" stroke="black" points="1115.84,-76.18 1126.29,-77.91 1119.19,-70.04 1115.84,-76.18"/>
<polygon fill="black" stroke="black" points="1049.21,-31.77 1038.76,-30.04 1045.85,-37.91 1049.21,-31.77"/>
</g>
<!-- annotation -->
<g id="node15" class="node">
<title>annotation</title>
<text text-anchor="middle" x="1137.57" y="-950.9" font-family="Times,serif" font-size="12.00">Nodes: 14, Edges: 90, Coverage: 0.21827706635622818</text>
</g>
</g>
</svg>
