<?xml version="1.0" encoding="UTF-8" standalone="no"?>
<!DOCTYPE svg PUBLIC "-//W3C//DTD SVG 1.1//EN"
 "http://www.w3.org/Graphics/SVG/1.1/DTD/svg11.dtd">
<!-- Generated by graphviz version 2.43.0 (0)
 -->
<!-- Title: IRIS region connectivity Pages: 1 -->
<svg width="650pt" height="620pt"
 viewBox="0.00 0.00 650.00 620.00" xmlns="http://www.w3.org/2000/svg" xmlns:xlink="http://www.w3.org/1999/xlink">
<g id="graph0" class="graph" transform="scale(1 1) rotate(0) translate(4 616)">
<title>IRIS region connectivity</title>
<polygon fill="white" stroke="transparent" points="-4,4 -4,-616 646,-616 646,4 -4,4"/>
<!-- 0 -->
<g id="node1" class="node">
<title>0</title>
<ellipse fill="none" stroke="black" cx="304" cy="-594" rx="27" ry="18"/>
<text text-anchor="middle" x="304" y="-590.3" font-family="Times,serif" font-size="14.00">0</text>
</g>
<!-- 1 -->
<g id="node2" class="node">
<title>1</title>
<ellipse fill="none" stroke="black" cx="266" cy="-522" rx="27" ry="18"/>
<text text-anchor="middle" x="266" y="-518.3" font-family="Times,serif" font-size="14.00">1</text>
</g>
<!-- 0&#45;&gt;1 -->
<g id="edge1" class="edge">
<title>0&#45;&gt;1</title>
<path fill="none" stroke="black" d="M290.27,-567.7C286.79,-561.3 283.07,-554.44 279.6,-548.05"/>
<polygon fill="black" stroke="black" points="287.34,-569.65 295.19,-576.76 293.49,-566.31 287.34,-569.65"/>
<polygon fill="black" stroke="black" points="282.61,-546.27 274.77,-539.15 276.46,-549.61 282.61,-546.27"/>
</g>
<!-- 2 -->
<g id="node3" class="node">
<title>2</title>
<ellipse fill="none" stroke="black" cx="397" cy="-450" rx="27" ry="18"/>
<text text-anchor="middle" x="397" y="-446.3" font-family="Times,serif" font-size="14.00">2</text>
</g>
<!-- 0&#45;&gt;2 -->
<g id="edge2" class="edge">
<title>0&#45;&gt;2</title>
<path fill="none" stroke="black" d="M327.47,-572.45C337.12,-563.2 347.92,-551.72 356,-540 369.53,-520.39 380.53,-495.59 387.71,-477.16"/>
<polygon fill="black" stroke="black" points="324.98,-569.99 320.04,-579.37 329.75,-575.12 324.98,-569.99"/>
<polygon fill="black" stroke="black" points="391.05,-478.24 391.31,-467.65 384.5,-475.76 391.05,-478.24"/>
</g>
<!-- 3 -->
<g id="node4" class="node">
<title>3</title>
<ellipse fill="none" stroke="black" cx="321" cy="-378" rx="27" ry="18"/>
<text text-anchor="middle" x="321" y="-374.3" font-family="Times,serif" font-size="14.00">3</text>
</g>
<!-- 0&#45;&gt;3 -->
<g id="edge3" class="edge">
<title>0&#45;&gt;3</title>
<path fill="none" stroke="black" d="M306.17,-565.71C309.43,-524.65 315.57,-447.42 318.83,-406.33"/>
<polygon fill="black" stroke="black" points="302.67,-565.6 305.36,-575.85 309.64,-566.16 302.67,-565.6"/>
<polygon fill="black" stroke="black" points="322.33,-406.48 319.63,-396.23 315.35,-405.92 322.33,-406.48"/>
</g>
<!-- 4 -->
<g id="node5" class="node">
<title>4</title>
<ellipse fill="none" stroke="black" cx="169" cy="-306" rx="27" ry="18"/>
<text text-anchor="middle" x="169" y="-302.3" font-family="Times,serif" font-size="14.00">4</text>
</g>
<!-- 0&#45;&gt;4 -->
<g id="edge4" class="edge">
<title>0&#45;&gt;4</title>
<path fill="none" stroke="black" d="M273.42,-577.54C258.35,-568.49 241.07,-555.73 230,-540 184.88,-475.9 173.13,-380.73 170.07,-334.37"/>
<polygon fill="black" stroke="black" points="272.03,-580.77 282.45,-582.69 275.5,-574.69 272.03,-580.77"/>
<polygon fill="black" stroke="black" points="173.56,-333.99 169.49,-324.2 166.57,-334.39 173.56,-333.99"/>
</g>
<!-- 5 -->
<g id="node6" class="node">
<title>5</title>
<ellipse fill="none" stroke="black" cx="187" cy="-234" rx="27" ry="18"/>
<text text-anchor="middle" x="187" y="-230.3" font-family="Times,serif" font-size="14.00">5</text>
</g>
<!-- 0&#45;&gt;5 -->
<g id="edge5" class="edge">
<title>0&#45;&gt;5</title>
<path fill="none" stroke="black" d="M270.71,-581.49C249.84,-572.84 223.64,-559.17 206,-540 158.7,-488.59 165.12,-462.26 143,-396 127.62,-349.91 105.84,-332.21 126,-288 132.76,-273.17 145.95,-260.88 158.34,-251.89"/>
<polygon fill="black" stroke="black" points="269.59,-584.81 280.17,-585.22 272.16,-578.3 269.59,-584.81"/>
<polygon fill="black" stroke="black" points="160.41,-254.71 166.7,-246.19 156.47,-248.93 160.41,-254.71"/>
</g>
<!-- 6 -->
<g id="node7" class="node">
<title>6</title>
<ellipse fill="none" stroke="black" cx="490" cy="-162" rx="27" ry="18"/>
<text text-anchor="middle" x="490" y="-158.3" font-family="Times,serif" font-size="14.00">6</text>
</g>
<!-- 0&#45;&gt;6 -->
<g id="edge6" class="edge">
<title>0&#45;&gt;6</title>
<path fill="none" stroke="black" d="M340.11,-587.17C403.47,-574.66 528,-538.89 528,-451 528,-451 528,-451 528,-305 528,-263.41 512.6,-217.22 501.4,-189.14"/>
<polygon fill="black" stroke="black" points="339.31,-583.76 330.13,-589.05 340.61,-590.64 339.31,-583.76"/>
<polygon fill="black" stroke="black" points="504.55,-187.58 497.51,-179.66 498.07,-190.24 504.55,-187.58"/>
</g>
<!-- 7 -->
<g id="node8" class="node">
<title>7</title>
<ellipse fill="none" stroke="black" cx="358" cy="-90" rx="27" ry="18"/>
<text text-anchor="middle" x="358" y="-86.3" font-family="Times,serif" font-size="14.00">7</text>
</g>
<!-- 0&#45;&gt;7 -->
<g id="edge7" class="edge">
<title>0&#45;&gt;7</title>
<path fill="none" stroke="black" d="M341.15,-593.88C428.97,-593.82 642,-580.36 642,-451 642,-451 642,-451 642,-305 642,-216.81 597.47,-195.67 526,-144 486.41,-115.38 430.82,-101.84 394.61,-95.7"/>
<polygon fill="black" stroke="black" points="341.11,-590.38 331.09,-593.82 341.07,-597.38 341.11,-590.38"/>
<polygon fill="black" stroke="black" points="394.91,-92.21 384.49,-94.1 393.81,-99.12 394.91,-92.21"/>
</g>
<!-- 8 -->
<g id="node9" class="node">
<title>8</title>
<ellipse fill="none" stroke="black" cx="187" cy="-18" rx="27" ry="18"/>
<text text-anchor="middle" x="187" y="-14.3" font-family="Times,serif" font-size="14.00">8</text>
</g>
<!-- 0&#45;&gt;8 -->
<g id="edge8" class="edge">
<title>0&#45;&gt;8</title>
<path fill="none" stroke="black" d="M266.75,-592.31C185.58,-588.64 0,-567.51 0,-451 0,-451 0,-451 0,-161 0,-114.96 17.94,-101.84 53,-72 81.54,-47.7 122.58,-33.69 151.7,-26.25"/>
<polygon fill="black" stroke="black" points="266.89,-595.82 277.02,-592.71 267.16,-588.83 266.89,-595.82"/>
<polygon fill="black" stroke="black" points="152.57,-29.64 161.47,-23.88 150.93,-22.84 152.57,-29.64"/>
</g>
<!-- 1&#45;&gt;2 -->
<g id="edge9" class="edge">
<title>1&#45;&gt;2</title>
<path fill="none" stroke="black" d="M295.42,-505.28C316.98,-493.76 346.12,-478.19 367.66,-466.68"/>
<polygon fill="black" stroke="black" points="293.64,-502.26 286.47,-510.06 296.94,-508.44 293.64,-502.26"/>
<polygon fill="black" stroke="black" points="369.5,-469.66 376.67,-461.86 366.21,-463.49 369.5,-469.66"/>
</g>
<!-- 1&#45;&gt;3 -->
<g id="edge10" class="edge">
<title>1&#45;&gt;3</title>
<path fill="none" stroke="black" d="M276.07,-494.99C285.94,-469.53 300.89,-430.92 310.8,-405.34"/>
<polygon fill="black" stroke="black" points="272.76,-493.84 272.42,-504.43 279.29,-496.37 272.76,-493.84"/>
<polygon fill="black" stroke="black" points="314.11,-406.49 314.45,-395.9 307.58,-403.96 314.11,-406.49"/>
</g>
<!-- 1&#45;&gt;4 -->
<g id="edge11" class="edge">
<title>1&#45;&gt;4</title>
<path fill="none" stroke="black" d="M254.35,-495.29C235.71,-454.17 199.39,-374.06 180.72,-332.85"/>
<polygon fill="black" stroke="black" points="251.23,-496.9 258.55,-504.56 257.61,-494.01 251.23,-496.9"/>
<polygon fill="black" stroke="black" points="183.79,-331.16 176.48,-323.49 177.42,-334.05 183.79,-331.16"/>
</g>
<!-- 1&#45;&gt;5 -->
<g id="edge12" class="edge">
<title>1&#45;&gt;5</title>
<path fill="none" stroke="black" d="M243.89,-498.95C211.63,-464.95 153.28,-396.08 133,-324 128.67,-308.6 126.81,-302.75 133,-288 138.71,-274.39 149.81,-262.52 160.47,-253.48"/>
<polygon fill="black" stroke="black" points="241.66,-501.67 251.12,-506.44 246.69,-496.81 241.66,-501.67"/>
<polygon fill="black" stroke="black" points="162.79,-256.1 168.44,-247.14 158.43,-250.63 162.79,-256.1"/>
</g>
<!-- 1&#45;&gt;7 -->
<g id="edge13" class="edge">
<title>1&#45;&gt;7</title>
<path fill="none" stroke="black" d="M268.06,-493.57C270.74,-461.39 276.17,-406.5 285,-360 303.53,-262.46 314.98,-239.54 342,-144 344.45,-135.32 347.26,-125.88 349.83,-117.41"/>
<polygon fill="black" stroke="black" points="264.53,-493.71 267.22,-503.96 271.51,-494.27 264.53,-493.71"/>
<polygon fill="black" stroke="black" points="353.23,-118.25 352.8,-107.67 346.54,-116.21 353.23,-118.25"/>
</g>
<!-- 1&#45;&gt;8 -->
<g id="edge14" class="edge">
<title>1&#45;&gt;8</title>
<path fill="none" stroke="black" d="M233.4,-508.4C170.38,-481.66 38,-412.9 38,-307 38,-307 38,-307 38,-161 38,-96.75 111.51,-52.7 155.26,-32.17"/>
<polygon fill="black" stroke="black" points="232.31,-511.73 242.88,-512.33 234.98,-505.27 232.31,-511.73"/>
<polygon fill="black" stroke="black" points="156.71,-35.36 164.37,-28.04 153.82,-28.98 156.71,-35.36"/>
</g>
<!-- 2&#45;&gt;3 -->
<g id="edge15" class="edge">
<title>2&#45;&gt;3</title>
<path fill="none" stroke="black" d="M374.03,-427.84C364.5,-419.06 353.46,-408.9 343.94,-400.13"/>
<polygon fill="black" stroke="black" points="371.89,-430.63 381.62,-434.83 376.64,-425.49 371.89,-430.63"/>
<polygon fill="black" stroke="black" points="346.08,-397.34 336.36,-393.14 341.34,-402.49 346.08,-397.34"/>
</g>
<!-- 2&#45;&gt;4 -->
<g id="edge16" class="edge">
<title>2&#45;&gt;4</title>
<path fill="none" stroke="black" d="M365.11,-436.07C342.18,-426.25 310.86,-411.79 285,-396 251.04,-375.26 215.18,-346.55 192.48,-327.41"/>
<polygon fill="black" stroke="black" points="363.81,-439.32 374.39,-439.98 366.53,-432.87 363.81,-439.32"/>
<polygon fill="black" stroke="black" points="194.62,-324.64 184.73,-320.82 190.08,-329.97 194.62,-324.64"/>
</g>
<!-- 2&#45;&gt;5 -->
<g id="edge17" class="edge">
<title>2&#45;&gt;5</title>
<path fill="none" stroke="black" d="M388.73,-422.34C382.09,-403.66 371.48,-378.79 357,-360 318.35,-309.84 254.39,-270.43 216.92,-250.12"/>
<polygon fill="black" stroke="black" points="385.48,-423.65 392.01,-431.99 392.11,-421.4 385.48,-423.65"/>
<polygon fill="black" stroke="black" points="218.47,-246.98 208,-245.37 215.18,-253.16 218.47,-246.98"/>
</g>
<!-- 2&#45;&gt;6 -->
<g id="edge18" class="edge">
<title>2&#45;&gt;6</title>
<path fill="none" stroke="black" d="M426.93,-433.62C441.21,-424.65 457.1,-411.95 466,-396 503.07,-329.6 498.79,-235.88 493.79,-190.18"/>
<polygon fill="black" stroke="black" points="425.14,-430.61 418.32,-438.72 428.7,-436.64 425.14,-430.61"/>
<polygon fill="black" stroke="black" points="497.25,-189.67 492.59,-180.15 490.3,-190.5 497.25,-189.67"/>
</g>
<!-- 2&#45;&gt;7 -->
<g id="edge19" class="edge">
<title>2&#45;&gt;7</title>
<path fill="none" stroke="black" d="M394,-421.44C386.72,-354.62 368.2,-184.62 360.96,-118.19"/>
<polygon fill="black" stroke="black" points="390.56,-422.17 395.12,-431.73 397.52,-421.41 390.56,-422.17"/>
<polygon fill="black" stroke="black" points="364.42,-117.66 359.86,-108.09 357.47,-118.41 364.42,-117.66"/>
</g>
<!-- 2&#45;&gt;8 -->
<g id="edge20" class="edge">
<title>2&#45;&gt;8</title>
<path fill="none" stroke="black" d="M430.47,-438.02C479.74,-419.51 566,-377.09 566,-307 566,-307 566,-307 566,-161 566,-88.19 317.65,-40.21 223.02,-24.57"/>
<polygon fill="black" stroke="black" points="429.06,-434.81 420.86,-441.51 431.45,-441.39 429.06,-434.81"/>
<polygon fill="black" stroke="black" points="223.48,-21.1 213.05,-22.95 222.36,-28.01 223.48,-21.1"/>
</g>
<!-- 9 -->
<g id="node10" class="node">
<title>9</title>
<ellipse fill="none" stroke="black" cx="490" cy="-18" rx="27" ry="18"/>
<text text-anchor="middle" x="490" y="-14.3" font-family="Times,serif" font-size="14.00">9</text>
</g>
<!-- 2&#45;&gt;9 -->
<g id="edge21" class="edge">
<title>2&#45;&gt;9</title>
<path fill="none" stroke="black" d="M433.11,-443.72C481.23,-435.87 562.37,-419.46 580,-396 666.51,-280.88 651.46,-197.02 580,-72 568.01,-51.03 544.13,-37.53 523.98,-29.41"/>
<polygon fill="black" stroke="black" points="432.42,-440.29 423.09,-445.31 433.52,-447.2 432.42,-440.29"/>
<polygon fill="black" stroke="black" points="525.05,-26.07 514.46,-25.85 522.6,-32.63 525.05,-26.07"/>
</g>
<!-- 3&#45;&gt;4 -->
<g id="edge22" class="edge">
<title>3&#45;&gt;4</title>
<path fill="none" stroke="black" d="M289.79,-362.63C263.48,-350.51 226.04,-333.27 199.84,-321.2"/>
<polygon fill="black" stroke="black" points="288.67,-365.97 299.22,-366.97 291.6,-359.61 288.67,-365.97"/>
<polygon fill="black" stroke="black" points="201.28,-318.01 190.74,-317.01 198.36,-324.37 201.28,-318.01"/>
</g>
<!-- 3&#45;&gt;5 -->
<g id="edge23" class="edge">
<title>3&#45;&gt;5</title>
<path fill="none" stroke="black" d="M300.29,-355.05C275.18,-328.44 233.09,-283.84 207.9,-257.14"/>
<polygon fill="black" stroke="black" points="297.76,-357.47 307.16,-362.34 302.85,-352.66 297.76,-357.47"/>
<polygon fill="black" stroke="black" points="210.37,-254.67 200.96,-249.79 205.28,-259.47 210.37,-254.67"/>
</g>
<!-- 3&#45;&gt;6 -->
<g id="edge24" class="edge">
<title>3&#45;&gt;6</title>
<path fill="none" stroke="black" d="M339.36,-353.75C371.83,-312.63 439.04,-227.53 471.57,-186.34"/>
<polygon fill="black" stroke="black" points="336.6,-351.59 333.15,-361.61 342.1,-355.93 336.6,-351.59"/>
<polygon fill="black" stroke="black" points="474.51,-188.27 477.96,-178.25 469.01,-183.93 474.51,-188.27"/>
</g>
<!-- 3&#45;&gt;7 -->
<g id="edge25" class="edge">
<title>3&#45;&gt;7</title>
<path fill="none" stroke="black" d="M324.49,-350.04C331.55,-295.45 347.47,-172.43 354.52,-117.9"/>
<polygon fill="black" stroke="black" points="321.02,-349.6 323.2,-359.97 327.96,-350.5 321.02,-349.6"/>
<polygon fill="black" stroke="black" points="358,-118.31 355.81,-107.94 351.05,-117.41 358,-118.31"/>
</g>
<!-- 3&#45;&gt;8 -->
<g id="edge26" class="edge">
<title>3&#45;&gt;8</title>
<path fill="none" stroke="black" d="M311.21,-350.84C286.48,-284.78 221.74,-111.82 196.9,-45.45"/>
<polygon fill="black" stroke="black" points="307.93,-352.07 314.72,-360.21 314.49,-349.62 307.93,-352.07"/>
<polygon fill="black" stroke="black" points="200.05,-43.89 193.27,-35.75 193.5,-46.34 200.05,-43.89"/>
</g>
<!-- 4&#45;&gt;5 -->
<g id="edge27" class="edge">
<title>4&#45;&gt;5</title>
<path fill="none" stroke="black" d="M175.91,-278.14C177.3,-272.74 178.76,-267.06 180.14,-261.67"/>
<polygon fill="black" stroke="black" points="172.46,-277.5 173.36,-288.05 179.24,-279.24 172.46,-277.5"/>
<polygon fill="black" stroke="black" points="183.58,-262.35 182.68,-251.79 176.8,-260.6 183.58,-262.35"/>
</g>
<!-- 4&#45;&gt;7 -->
<g id="edge28" class="edge">
<title>4&#45;&gt;7</title>
<path fill="none" stroke="black" d="M191.76,-284.02C201.68,-274.54 213.24,-263.02 223,-252 263.14,-206.69 266.28,-189.69 306,-144 315.34,-133.25 326.3,-121.91 335.75,-112.49"/>
<polygon fill="black" stroke="black" points="189.1,-281.73 184.23,-291.14 193.9,-286.82 189.1,-281.73"/>
<polygon fill="black" stroke="black" points="338.28,-114.91 342.94,-105.39 333.36,-109.93 338.28,-114.91"/>
</g>
<!-- 4&#45;&gt;8 -->
<g id="edge29" class="edge">
<title>4&#45;&gt;8</title>
<path fill="none" stroke="black" d="M158.14,-278.59C155.22,-270.23 152.46,-260.86 151,-252 138.62,-177.04 163.12,-88.29 177.53,-45.15"/>
<polygon fill="black" stroke="black" points="154.94,-280.03 161.71,-288.18 161.5,-277.59 154.94,-280.03"/>
<polygon fill="black" stroke="black" points="180.84,-46.28 180.77,-35.69 174.22,-44.01 180.84,-46.28"/>
</g>
<!-- 5&#45;&gt;6 -->
<g id="edge30" class="edge">
<title>5&#45;&gt;6</title>
<path fill="none" stroke="black" d="M222.11,-224.89C280.49,-211.4 396.83,-184.52 455.08,-171.07"/>
<polygon fill="black" stroke="black" points="221.01,-221.55 212.05,-227.21 222.58,-228.37 221.01,-221.55"/>
<polygon fill="black" stroke="black" points="455.96,-174.46 464.92,-168.79 454.39,-167.64 455.96,-174.46"/>
</g>
<!-- 5&#45;&gt;7 -->
<g id="edge31" class="edge">
<title>5&#45;&gt;7</title>
<path fill="none" stroke="black" d="M204.97,-209.62C220.38,-190.54 243.85,-163.62 268,-144 286.34,-129.1 309.32,-115.64 327.47,-106.01"/>
<polygon fill="black" stroke="black" points="202.17,-207.53 198.69,-217.53 207.65,-211.88 202.17,-207.53"/>
<polygon fill="black" stroke="black" points="329.21,-109.05 336.47,-101.34 325.98,-102.84 329.21,-109.05"/>
</g>
<!-- 5&#45;&gt;8 -->
<g id="edge32" class="edge">
<title>5&#45;&gt;8</title>
<path fill="none" stroke="black" d="M187,-205.71C187,-164.65 187,-87.42 187,-46.33"/>
<polygon fill="black" stroke="black" points="183.5,-205.85 187,-215.85 190.5,-205.85 183.5,-205.85"/>
<polygon fill="black" stroke="black" points="190.5,-46.23 187,-36.23 183.5,-46.23 190.5,-46.23"/>
</g>
<!-- 6&#45;&gt;7 -->
<g id="edge33" class="edge">
<title>6&#45;&gt;7</title>
<path fill="none" stroke="black" d="M460.36,-145.28C438.63,-133.76 409.27,-118.19 387.56,-106.68"/>
<polygon fill="black" stroke="black" points="458.9,-148.47 469.38,-150.06 462.18,-142.29 458.9,-148.47"/>
<polygon fill="black" stroke="black" points="388.95,-103.45 378.48,-101.86 385.68,-109.64 388.95,-103.45"/>
</g>
<!-- 6&#45;&gt;8 -->
<g id="edge34" class="edge">
<title>6&#45;&gt;8</title>
<path fill="none" stroke="black" d="M470.99,-137.77C453.16,-117.49 424.69,-88.73 394,-72 339.09,-42.06 266.72,-28.57 223.71,-22.85"/>
<polygon fill="black" stroke="black" points="468.57,-140.32 477.74,-145.63 473.88,-135.76 468.57,-140.32"/>
<polygon fill="black" stroke="black" points="224.05,-19.36 213.69,-21.58 223.18,-26.31 224.05,-19.36"/>
</g>
<!-- 6&#45;&gt;9 -->
<g id="edge35" class="edge">
<title>6&#45;&gt;9</title>
<path fill="none" stroke="black" d="M490,-133.68C490,-108.6 490,-71.63 490,-46.49"/>
<polygon fill="black" stroke="black" points="486.5,-133.87 490,-143.87 493.5,-133.87 486.5,-133.87"/>
<polygon fill="black" stroke="black" points="493.5,-46.19 490,-36.19 486.5,-46.19 493.5,-46.19"/>
</g>
<!-- 7&#45;&gt;8 -->
<g id="edge36" class="edge">
<title>7&#45;&gt;8</title>
<path fill="none" stroke="black" d="M326.18,-75.97C295.5,-63.42 249.36,-44.53 218.72,-31.99"/>
<polygon fill="black" stroke="black" points="325.06,-79.3 335.64,-79.85 327.72,-72.82 325.06,-79.3"/>
<polygon fill="black" stroke="black" points="219.94,-28.7 209.36,-28.15 217.29,-35.18 219.94,-28.7"/>
</g>
<!-- 7&#45;&gt;9 -->
<g id="edge37" class="edge">
<title>7&#45;&gt;9</title>
<path fill="none" stroke="black" d="M387.64,-73.28C409.37,-61.76 438.73,-46.19 460.44,-34.68"/>
<polygon fill="black" stroke="black" points="385.82,-70.29 378.62,-78.06 389.1,-76.47 385.82,-70.29"/>
<polygon fill="black" stroke="black" points="462.32,-37.64 469.52,-29.86 459.05,-31.45 462.32,-37.64"/>
</g>
</g>
</svg>
