<?xml version="1.0" encoding="UTF-8" standalone="no"?>
<!DOCTYPE svg PUBLIC "-//W3C//DTD SVG 1.1//EN"
 "http://www.w3.org/Graphics/SVG/1.1/DTD/svg11.dtd">
<!-- Generated by graphviz version 2.43.0 (0)
 -->
<!-- Title: IRIS region connectivity Pages: 1 -->
<svg width="582pt" height="548pt"
 viewBox="0.00 0.00 582.00 548.00" xmlns="http://www.w3.org/2000/svg" xmlns:xlink="http://www.w3.org/1999/xlink">
<g id="graph0" class="graph" transform="scale(1 1) rotate(0) translate(4 544)">
<title>IRIS region connectivity</title>
<polygon fill="white" stroke="transparent" points="-4,4 -4,-544 578,-544 578,4 -4,4"/>
<!-- 1 -->
<g id="node1" class="node">
<title>1</title>
<ellipse fill="none" stroke="black" cx="309" cy="-522" rx="27" ry="18"/>
<text text-anchor="middle" x="309" y="-518.3" font-family="Times,serif" font-size="14.00">1</text>
</g>
<!-- 2 -->
<g id="node2" class="node">
<title>2</title>
<ellipse fill="none" stroke="black" cx="340" cy="-450" rx="27" ry="18"/>
<text text-anchor="middle" x="340" y="-446.3" font-family="Times,serif" font-size="14.00">2</text>
</g>
<!-- 1&#45;&gt;2 -->
<g id="edge1" class="edge">
<title>1&#45;&gt;2</title>
<path fill="none" stroke="black" d="M320.42,-495.2C323.05,-489.26 325.85,-482.94 328.49,-477"/>
<polygon fill="black" stroke="black" points="317.2,-493.85 316.35,-504.41 323.6,-496.68 317.2,-493.85"/>
<polygon fill="black" stroke="black" points="331.86,-478.03 332.71,-467.47 325.46,-475.2 331.86,-478.03"/>
</g>
<!-- 3 -->
<g id="node3" class="node">
<title>3</title>
<ellipse fill="none" stroke="black" cx="282" cy="-378" rx="27" ry="18"/>
<text text-anchor="middle" x="282" y="-374.3" font-family="Times,serif" font-size="14.00">3</text>
</g>
<!-- 1&#45;&gt;3 -->
<g id="edge2" class="edge">
<title>1&#45;&gt;3</title>
<path fill="none" stroke="black" d="M303.81,-493.68C299.02,-468.49 291.94,-431.3 287.16,-406.16"/>
<polygon fill="black" stroke="black" points="300.44,-494.7 305.74,-503.87 307.31,-493.39 300.44,-494.7"/>
<polygon fill="black" stroke="black" points="290.57,-405.36 285.27,-396.19 283.7,-406.67 290.57,-405.36"/>
</g>
<!-- 4 -->
<g id="node4" class="node">
<title>4</title>
<ellipse fill="none" stroke="black" cx="171" cy="-306" rx="27" ry="18"/>
<text text-anchor="middle" x="171" y="-302.3" font-family="Times,serif" font-size="14.00">4</text>
</g>
<!-- 1&#45;&gt;4 -->
<g id="edge3" class="edge">
<title>1&#45;&gt;4</title>
<path fill="none" stroke="black" d="M288.05,-498.72C266.28,-474.73 232.2,-434.78 209,-396 196.99,-375.93 186.81,-351.37 180.01,-333.13"/>
<polygon fill="black" stroke="black" points="285.59,-501.21 294.93,-506.22 290.75,-496.48 285.59,-501.21"/>
<polygon fill="black" stroke="black" points="183.3,-331.93 176.6,-323.72 176.72,-334.32 183.3,-331.93"/>
</g>
<!-- 6 -->
<g id="node5" class="node">
<title>6</title>
<ellipse fill="none" stroke="black" cx="361" cy="-234" rx="27" ry="18"/>
<text text-anchor="middle" x="361" y="-230.3" font-family="Times,serif" font-size="14.00">6</text>
</g>
<!-- 1&#45;&gt;6 -->
<g id="edge4" class="edge">
<title>1&#45;&gt;6</title>
<path fill="none" stroke="black" d="M339.15,-505.53C353.1,-496.62 368.26,-483.99 376,-468 409.18,-399.45 385.58,-306.03 370.67,-261.16"/>
<polygon fill="black" stroke="black" points="337.04,-502.71 330.25,-510.85 340.63,-508.72 337.04,-502.71"/>
<polygon fill="black" stroke="black" points="373.94,-259.91 367.38,-251.59 367.32,-262.19 373.94,-259.91"/>
</g>
<!-- 7 -->
<g id="node6" class="node">
<title>7</title>
<ellipse fill="none" stroke="black" cx="209" cy="-162" rx="27" ry="18"/>
<text text-anchor="middle" x="209" y="-158.3" font-family="Times,serif" font-size="14.00">7</text>
</g>
<!-- 1&#45;&gt;7 -->
<g id="edge5" class="edge">
<title>1&#45;&gt;7</title>
<path fill="none" stroke="black" d="M271.68,-520.56C189.47,-517.42 0,-497.35 0,-379 0,-379 0,-379 0,-305 0,-258.03 20.13,-245.11 57,-216 91.04,-189.12 139.68,-175.35 172.7,-168.68"/>
<polygon fill="black" stroke="black" points="271.74,-524.06 281.85,-520.88 271.96,-517.07 271.74,-524.06"/>
<polygon fill="black" stroke="black" points="173.66,-172.06 182.83,-166.75 172.35,-165.18 173.66,-172.06"/>
</g>
<!-- 8 -->
<g id="node7" class="node">
<title>8</title>
<ellipse fill="none" stroke="black" cx="389" cy="-90" rx="27" ry="18"/>
<text text-anchor="middle" x="389" y="-86.3" font-family="Times,serif" font-size="14.00">8</text>
</g>
<!-- 1&#45;&gt;8 -->
<g id="edge6" class="edge">
<title>1&#45;&gt;8</title>
<path fill="none" stroke="black" d="M339.62,-505.73C407.37,-471.72 564,-391.71 564,-379 564,-379 564,-379 564,-233 564,-161.11 473.84,-119.26 422.95,-101.37"/>
<polygon fill="black" stroke="black" points="337.67,-502.79 330.3,-510.4 340.81,-509.05 337.67,-502.79"/>
<polygon fill="black" stroke="black" points="423.93,-98 413.33,-98.11 421.68,-104.63 423.93,-98"/>
</g>
<!-- 2&#45;&gt;3 -->
<g id="edge7" class="edge">
<title>2&#45;&gt;3</title>
<path fill="none" stroke="black" d="M320.84,-425.87C314.49,-418.21 307.43,-409.69 301.09,-402.04"/>
<polygon fill="black" stroke="black" points="318.34,-428.34 327.41,-433.81 323.73,-423.88 318.34,-428.34"/>
<polygon fill="black" stroke="black" points="303.64,-399.63 294.56,-394.16 298.25,-404.09 303.64,-399.63"/>
</g>
<!-- 2&#45;&gt;4 -->
<g id="edge8" class="edge">
<title>2&#45;&gt;4</title>
<path fill="none" stroke="black" d="M308.87,-434.98C289.66,-425.5 265.13,-411.85 246,-396 222.93,-376.88 201.42,-350.05 187.41,-330.85"/>
<polygon fill="black" stroke="black" points="307.56,-438.23 318.09,-439.41 310.6,-431.93 307.56,-438.23"/>
<polygon fill="black" stroke="black" points="190.18,-328.72 181.52,-322.63 184.49,-332.8 190.18,-328.72"/>
</g>
<!-- 2&#45;&gt;6 -->
<g id="edge9" class="edge">
<title>2&#45;&gt;6</title>
<path fill="none" stroke="black" d="M348.22,-422.39C350.49,-414.02 352.68,-404.7 354,-396 361.07,-349.48 361.87,-294.6 361.59,-262.42"/>
<polygon fill="black" stroke="black" points="344.86,-421.43 345.48,-432.01 351.59,-423.35 344.86,-421.43"/>
<polygon fill="black" stroke="black" points="365.09,-261.99 361.45,-252.04 358.09,-262.08 365.09,-261.99"/>
</g>
<!-- 2&#45;&gt;7 -->
<g id="edge10" class="edge">
<title>2&#45;&gt;7</title>
<path fill="none" stroke="black" d="M335.21,-421.8C331.59,-403.88 325.88,-380.1 318,-360 292.21,-294.25 248.52,-223.18 225.05,-187.05"/>
<polygon fill="black" stroke="black" points="331.82,-422.7 337.15,-431.86 338.69,-421.38 331.82,-422.7"/>
<polygon fill="black" stroke="black" points="227.95,-185.09 219.55,-178.64 222.1,-188.92 227.95,-185.09"/>
</g>
<!-- 2&#45;&gt;8 -->
<g id="edge11" class="edge">
<title>2&#45;&gt;8</title>
<path fill="none" stroke="black" d="M360.91,-426.69C383.4,-400.26 416,-353.88 416,-307 416,-307 416,-307 416,-233 416,-192.28 405.15,-146.13 397.21,-117.79"/>
<polygon fill="black" stroke="black" points="358.26,-424.4 354.3,-434.23 363.52,-429.02 358.26,-424.4"/>
<polygon fill="black" stroke="black" points="400.47,-116.49 394.33,-107.85 393.75,-118.43 400.47,-116.49"/>
</g>
<!-- 3&#45;&gt;4 -->
<g id="edge12" class="edge">
<title>3&#45;&gt;4</title>
<path fill="none" stroke="black" d="M254.25,-359.5C237.41,-348.88 215.97,-335.36 199.07,-324.7"/>
<polygon fill="black" stroke="black" points="252.59,-362.59 262.92,-364.97 256.33,-356.67 252.59,-362.59"/>
<polygon fill="black" stroke="black" points="200.53,-321.48 190.2,-319.11 196.8,-327.41 200.53,-321.48"/>
</g>
<!-- 3&#45;&gt;6 -->
<g id="edge13" class="edge">
<title>3&#45;&gt;6</title>
<path fill="none" stroke="black" d="M295.98,-351.87C310.39,-325.98 332.71,-285.84 347.09,-260"/>
<polygon fill="black" stroke="black" points="292.71,-350.55 290.91,-360.99 298.83,-353.95 292.71,-350.55"/>
<polygon fill="black" stroke="black" points="350.2,-261.61 352,-251.17 344.08,-258.21 350.2,-261.61"/>
</g>
<!-- 3&#45;&gt;7 -->
<g id="edge14" class="edge">
<title>3&#45;&gt;7</title>
<path fill="none" stroke="black" d="M265.36,-352.84C259.88,-344.06 254.13,-333.86 250,-324 231.1,-278.82 219.23,-222.74 213.38,-190.1"/>
<polygon fill="black" stroke="black" points="262.54,-354.92 270.91,-361.41 268.42,-351.12 262.54,-354.92"/>
<polygon fill="black" stroke="black" points="216.79,-189.23 211.63,-179.98 209.89,-190.43 216.79,-189.23"/>
</g>
<!-- 3&#45;&gt;8 -->
<g id="edge15" class="edge">
<title>3&#45;&gt;8</title>
<path fill="none" stroke="black" d="M287.45,-349.61C294.35,-317.12 307.46,-261.61 325,-216 338.89,-179.88 360.16,-140.5 374.32,-115.78"/>
<polygon fill="black" stroke="black" points="283.97,-349.2 285.36,-359.7 290.82,-350.62 283.97,-349.2"/>
<polygon fill="black" stroke="black" points="377.38,-117.48 379.36,-107.07 371.32,-113.97 377.38,-117.48"/>
</g>
<!-- 4&#45;&gt;6 -->
<g id="edge16" class="edge">
<title>4&#45;&gt;6</title>
<path fill="none" stroke="black" d="M203.94,-292.86C238.76,-280.04 293.34,-259.93 328.12,-247.11"/>
<polygon fill="black" stroke="black" points="202.47,-289.68 194.3,-296.42 204.89,-296.24 202.47,-289.68"/>
<polygon fill="black" stroke="black" points="329.64,-250.29 337.81,-243.54 327.22,-243.72 329.64,-250.29"/>
</g>
<!-- 4&#45;&gt;7 -->
<g id="edge17" class="edge">
<title>4&#45;&gt;7</title>
<path fill="none" stroke="black" d="M178.14,-278.31C184.94,-252.9 195.12,-214.87 201.9,-189.52"/>
<polygon fill="black" stroke="black" points="174.71,-277.59 175.51,-288.15 181.47,-279.4 174.71,-277.59"/>
<polygon fill="black" stroke="black" points="205.29,-190.39 204.5,-179.82 198.53,-188.58 205.29,-190.39"/>
</g>
<!-- 4&#45;&gt;8 -->
<g id="edge18" class="edge">
<title>4&#45;&gt;8</title>
<path fill="none" stroke="black" d="M135.12,-298.85C108.53,-292.22 74.07,-278.76 57,-252 48.4,-238.51 49.22,-229.98 57,-216 115.36,-111.09 277.31,-93.47 351.28,-91.04"/>
<polygon fill="black" stroke="black" points="134.34,-302.27 144.87,-301.08 135.9,-295.44 134.34,-302.27"/>
<polygon fill="black" stroke="black" points="351.62,-94.53 361.53,-90.78 351.45,-87.53 351.62,-94.53"/>
</g>
<!-- source1 -->
<g id="node8" class="node">
<title>source1</title>
<ellipse fill="none" stroke="black" cx="113" cy="-234" rx="47.39" ry="18"/>
<text text-anchor="middle" x="113" y="-230.3" font-family="Times,serif" font-size="14.00">source1</text>
</g>
<!-- 4&#45;&gt;source1 -->
<g id="edge19" class="edge">
<title>4&#45;&gt;source1</title>
<path fill="none" stroke="black" d="M151.88,-281.92C145.98,-274.81 139.47,-266.95 133.49,-259.73"/>
<polygon fill="black" stroke="black" points="149.34,-284.34 158.41,-289.81 154.73,-279.88 149.34,-284.34"/>
<polygon fill="black" stroke="black" points="135.85,-257.1 126.78,-251.63 130.46,-261.56 135.85,-257.1"/>
</g>
<!-- 6&#45;&gt;7 -->
<g id="edge23" class="edge">
<title>6&#45;&gt;7</title>
<path fill="none" stroke="black" d="M329.79,-218.63C303.48,-206.51 266.04,-189.27 239.84,-177.2"/>
<polygon fill="black" stroke="black" points="328.67,-221.97 339.22,-222.97 331.6,-215.61 328.67,-221.97"/>
<polygon fill="black" stroke="black" points="241.28,-174.01 230.74,-173.01 238.36,-180.37 241.28,-174.01"/>
</g>
<!-- 6&#45;&gt;8 -->
<g id="edge24" class="edge">
<title>6&#45;&gt;8</title>
<path fill="none" stroke="black" d="M366.31,-206.06C371.28,-180.88 378.65,-143.47 383.64,-118.2"/>
<polygon fill="black" stroke="black" points="362.88,-205.38 364.38,-215.87 369.75,-206.74 362.88,-205.38"/>
<polygon fill="black" stroke="black" points="387.11,-118.68 385.61,-108.19 380.24,-117.32 387.11,-118.68"/>
</g>
<!-- 7&#45;&gt;8 -->
<g id="edge25" class="edge">
<title>7&#45;&gt;8</title>
<path fill="none" stroke="black" d="M241.04,-147.61C244.06,-146.38 247.09,-145.16 250,-144 286.28,-129.57 328.18,-113.7 356.42,-103.12"/>
<polygon fill="black" stroke="black" points="239.43,-144.49 231.51,-151.53 242.09,-150.96 239.43,-144.49"/>
<polygon fill="black" stroke="black" points="357.66,-106.39 365.8,-99.61 355.21,-99.84 357.66,-106.39"/>
</g>
<!-- target1 -->
<g id="node10" class="node">
<title>target1</title>
<ellipse fill="none" stroke="black" cx="433" cy="-18" rx="45.49" ry="18"/>
<text text-anchor="middle" x="433" y="-14.3" font-family="Times,serif" font-size="14.00">target1</text>
</g>
<!-- 8&#45;&gt;target1 -->
<g id="edge26" class="edge">
<title>8&#45;&gt;target1</title>
<path fill="none" stroke="black" d="M404.42,-64.47C408.51,-57.96 412.95,-50.9 417.07,-44.34"/>
<polygon fill="black" stroke="black" points="401.34,-62.79 398.98,-73.12 407.27,-66.51 401.34,-62.79"/>
<polygon fill="black" stroke="black" points="420.08,-46.13 422.44,-35.8 414.16,-42.4 420.08,-46.13"/>
</g>
<!-- 5 -->
<g id="node9" class="node">
<title>5</title>
<ellipse fill="none" stroke="black" cx="509" cy="-306" rx="27" ry="18"/>
<text text-anchor="middle" x="509" y="-302.3" font-family="Times,serif" font-size="14.00">5</text>
</g>
<!-- 5&#45;&gt;6 -->
<g id="edge20" class="edge">
<title>5&#45;&gt;6</title>
<path fill="none" stroke="black" d="M478.33,-290.49C452.96,-278.5 417.1,-261.53 391.72,-249.53"/>
<polygon fill="black" stroke="black" points="476.94,-293.71 487.48,-294.82 479.94,-287.38 476.94,-293.71"/>
<polygon fill="black" stroke="black" points="393.08,-246.3 382.55,-245.19 390.09,-252.63 393.08,-246.3"/>
</g>
<!-- 5&#45;&gt;8 -->
<g id="edge21" class="edge">
<title>5&#45;&gt;8</title>
<path fill="none" stroke="black" d="M498.26,-279.16C484.31,-246.63 458.35,-189.5 430,-144 423.59,-133.72 415.62,-123.03 408.4,-113.97"/>
<polygon fill="black" stroke="black" points="495.06,-280.59 502.19,-288.43 501.51,-277.85 495.06,-280.59"/>
<polygon fill="black" stroke="black" points="411.09,-111.72 402.06,-106.17 405.65,-116.14 411.09,-111.72"/>
</g>
<!-- 5&#45;&gt;target1 -->
<g id="edge22" class="edge">
<title>5&#45;&gt;target1</title>
<path fill="none" stroke="black" d="M504.11,-277.66C500.79,-259.98 496.09,-236.53 491,-216 475.75,-154.48 453.71,-83.39 441.66,-45.7"/>
<polygon fill="black" stroke="black" points="500.73,-278.64 505.99,-287.84 507.61,-277.37 500.73,-278.64"/>
<polygon fill="black" stroke="black" points="444.94,-44.44 438.55,-35.99 438.27,-46.58 444.94,-44.44"/>
</g>
<!-- annotation -->
<g id="node11" class="node">
<title>annotation</title>
<text text-anchor="middle" x="464" y="-518.9" font-family="Times,serif" font-size="12.00">Nodes: 10, Edges: 26, Coverage: 0.0</text>
</g>
</g>
</svg>
