<?xml version="1.0" encoding="UTF-8" standalone="no"?>
<!DOCTYPE svg PUBLIC "-//W3C//DTD SVG 1.1//EN"
 "http://www.w3.org/Graphics/SVG/1.1/DTD/svg11.dtd">
<!-- Generated by graphviz version 2.43.0 (0)
 -->
<!-- Title: IRIS region connectivity Pages: 1 -->
<svg width="3213pt" height="1052pt"
 viewBox="0.00 0.00 3213.00 1052.00" xmlns="http://www.w3.org/2000/svg" xmlns:xlink="http://www.w3.org/1999/xlink">
<g id="graph0" class="graph" transform="scale(1 1) rotate(0) translate(4 1048)">
<title>IRIS region connectivity</title>
<polygon fill="white" stroke="transparent" points="-4,4 -4,-1048 3209,-1048 3209,4 -4,4"/>
<!-- 0 -->
<g id="node1" class="node">
<title>0</title>
<ellipse fill="none" stroke="black" cx="1450" cy="-1026" rx="27" ry="18"/>
<text text-anchor="middle" x="1450" y="-1022.3" font-family="Times,serif" font-size="14.00">0</text>
</g>
<!-- 1 -->
<g id="node2" class="node">
<title>1</title>
<ellipse fill="none" stroke="black" cx="1522" cy="-1026" rx="27" ry="18"/>
<text text-anchor="middle" x="1522" y="-1022.3" font-family="Times,serif" font-size="14.00">1</text>
</g>
<!-- 2 -->
<g id="node3" class="node">
<title>2</title>
<ellipse fill="none" stroke="black" cx="490" cy="-882" rx="27" ry="18"/>
<text text-anchor="middle" x="490" y="-878.3" font-family="Times,serif" font-size="14.00">2</text>
</g>
<!-- 1&#45;&gt;2 -->
<g id="edge1" class="edge">
<title>1&#45;&gt;2</title>
<path fill="none" stroke="black" d="M1492.57,-1010.03C1490.38,-1009.25 1488.18,-1008.56 1486,-1008 1230.23,-942.44 1154.49,-1008.58 893,-972 754.97,-952.69 594.03,-911.34 524.69,-892.59"/>
<polygon fill="black" stroke="black" points="1491.37,-1013.32 1501.94,-1013.89 1494.03,-1006.84 1491.37,-1013.32"/>
<polygon fill="black" stroke="black" points="525.32,-889.14 514.75,-889.89 523.48,-895.89 525.32,-889.14"/>
</g>
<!-- 3 -->
<g id="node4" class="node">
<title>3</title>
<ellipse fill="none" stroke="black" cx="2601" cy="-954" rx="27" ry="18"/>
<text text-anchor="middle" x="2601" y="-950.3" font-family="Times,serif" font-size="14.00">3</text>
</g>
<!-- 1&#45;&gt;3 -->
<g id="edge2" class="edge">
<title>1&#45;&gt;3</title>
<path fill="none" stroke="black" d="M1559.02,-1022.97C1678.78,-1016.36 2066.49,-994.55 2387,-972 2449.21,-967.62 2521.51,-961.71 2564.15,-958.13"/>
<polygon fill="black" stroke="black" points="1558.71,-1019.48 1548.92,-1023.53 1559.1,-1026.47 1558.71,-1019.48"/>
<polygon fill="black" stroke="black" points="2564.65,-961.6 2574.32,-957.28 2564.06,-954.63 2564.65,-961.6"/>
</g>
<!-- 4 -->
<g id="node5" class="node">
<title>4</title>
<ellipse fill="none" stroke="black" cx="1791" cy="-810" rx="27" ry="18"/>
<text text-anchor="middle" x="1791" y="-806.3" font-family="Times,serif" font-size="14.00">4</text>
</g>
<!-- 1&#45;&gt;4 -->
<g id="edge3" class="edge">
<title>1&#45;&gt;4</title>
<path fill="none" stroke="black" d="M1558.7,-1021.1C1616.05,-1014.26 1723.14,-998.3 1750,-972 1786.14,-936.61 1792.01,-874.16 1792.12,-838.33"/>
<polygon fill="black" stroke="black" points="1558.13,-1017.64 1548.6,-1022.27 1558.94,-1024.59 1558.13,-1017.64"/>
<polygon fill="black" stroke="black" points="1795.61,-838.08 1791.99,-828.12 1788.61,-838.16 1795.61,-838.08"/>
</g>
<!-- 6 -->
<g id="node6" class="node">
<title>6</title>
<ellipse fill="none" stroke="black" cx="2901" cy="-810" rx="27" ry="18"/>
<text text-anchor="middle" x="2901" y="-806.3" font-family="Times,serif" font-size="14.00">6</text>
</g>
<!-- 1&#45;&gt;6 -->
<g id="edge4" class="edge">
<title>1&#45;&gt;6</title>
<path fill="none" stroke="black" d="M1559.21,-1024.87C1771.97,-1023.97 2826.58,-1017.21 2877,-972 2914.25,-938.6 2911.46,-874.41 2906.19,-837.98"/>
<polygon fill="black" stroke="black" points="1559.15,-1021.37 1549.17,-1024.91 1559.18,-1028.37 1559.15,-1021.37"/>
<polygon fill="black" stroke="black" points="2909.64,-837.37 2904.6,-828.06 2902.73,-838.49 2909.64,-837.37"/>
</g>
<!-- 7 -->
<g id="node7" class="node">
<title>7</title>
<ellipse fill="none" stroke="black" cx="794" cy="-810" rx="27" ry="18"/>
<text text-anchor="middle" x="794" y="-806.3" font-family="Times,serif" font-size="14.00">7</text>
</g>
<!-- 1&#45;&gt;7 -->
<g id="edge5" class="edge">
<title>1&#45;&gt;7</title>
<path fill="none" stroke="black" d="M1491.9,-1009.84C1489.93,-1009.15 1487.95,-1008.52 1486,-1008 1295.59,-957.1 1230.67,-1035.25 1044,-972 951.41,-940.63 859,-867.57 817.17,-831.66"/>
<polygon fill="black" stroke="black" points="1490.96,-1013.24 1501.54,-1013.79 1493.62,-1006.76 1490.96,-1013.24"/>
<polygon fill="black" stroke="black" points="819.34,-828.91 809.49,-825 814.75,-834.2 819.34,-828.91"/>
</g>
<!-- 8 -->
<g id="node8" class="node">
<title>8</title>
<ellipse fill="none" stroke="black" cx="1863" cy="-810" rx="27" ry="18"/>
<text text-anchor="middle" x="1863" y="-806.3" font-family="Times,serif" font-size="14.00">8</text>
</g>
<!-- 1&#45;&gt;8 -->
<g id="edge6" class="edge">
<title>1&#45;&gt;8</title>
<path fill="none" stroke="black" d="M1558.78,-1021.1C1620.41,-1013.96 1741.11,-997.16 1775,-972 1820.28,-938.39 1845.02,-874.28 1855.97,-837.92"/>
<polygon fill="black" stroke="black" points="1558.25,-1017.64 1548.71,-1022.25 1559.04,-1024.6 1558.25,-1017.64"/>
<polygon fill="black" stroke="black" points="1859.42,-838.6 1858.82,-828.02 1852.69,-836.66 1859.42,-838.6"/>
</g>
<!-- 9 -->
<g id="node9" class="node">
<title>9</title>
<ellipse fill="none" stroke="black" cx="1491" cy="-738" rx="27" ry="18"/>
<text text-anchor="middle" x="1491" y="-734.3" font-family="Times,serif" font-size="14.00">9</text>
</g>
<!-- 1&#45;&gt;9 -->
<g id="edge7" class="edge">
<title>1&#45;&gt;9</title>
<path fill="none" stroke="black" d="M1519.04,-997.7C1513.12,-943.08 1499.88,-820.9 1493.96,-766.29"/>
<polygon fill="black" stroke="black" points="1515.6,-998.4 1520.15,-1007.97 1522.56,-997.65 1515.6,-998.4"/>
<polygon fill="black" stroke="black" points="1497.43,-765.87 1492.88,-756.31 1490.47,-766.63 1497.43,-765.87"/>
</g>
<!-- 10 -->
<g id="node10" class="node">
<title>10</title>
<ellipse fill="none" stroke="black" cx="1983" cy="-738" rx="27" ry="18"/>
<text text-anchor="middle" x="1983" y="-734.3" font-family="Times,serif" font-size="14.00">10</text>
</g>
<!-- 1&#45;&gt;10 -->
<g id="edge8" class="edge">
<title>1&#45;&gt;10</title>
<path fill="none" stroke="black" d="M1555.97,-1014.77C1580.24,-1006.22 1612.6,-992.15 1636,-972 1708.67,-909.42 1676.26,-846.74 1755,-792 1813.01,-751.67 1897.38,-741.67 1945.55,-739.41"/>
<polygon fill="black" stroke="black" points="1554.8,-1011.47 1546.44,-1017.99 1557.04,-1018.1 1554.8,-1011.47"/>
<polygon fill="black" stroke="black" points="1945.98,-742.9 1955.84,-739.02 1945.71,-735.9 1945.98,-742.9"/>
</g>
<!-- 11 -->
<g id="node11" class="node">
<title>11</title>
<ellipse fill="none" stroke="black" cx="1115" cy="-666" rx="27" ry="18"/>
<text text-anchor="middle" x="1115" y="-662.3" font-family="Times,serif" font-size="14.00">11</text>
</g>
<!-- 1&#45;&gt;11 -->
<g id="edge9" class="edge">
<title>1&#45;&gt;11</title>
<path fill="none" stroke="black" d="M1491.88,-1009.91C1489.92,-1009.19 1487.95,-1008.55 1486,-1008 1415,-987.97 1213.95,-1017.64 1156,-972 1122.98,-945.99 1124,-925.03 1124,-883 1124,-883 1124,-883 1124,-809 1124,-768.92 1120.38,-722.59 1117.74,-694.05"/>
<polygon fill="black" stroke="black" points="1490.94,-1013.3 1501.52,-1013.9 1493.61,-1006.84 1490.94,-1013.3"/>
<polygon fill="black" stroke="black" points="1121.21,-693.65 1116.78,-684.03 1114.25,-694.31 1121.21,-693.65"/>
</g>
<!-- 12 -->
<g id="node12" class="node">
<title>12</title>
<ellipse fill="none" stroke="black" cx="2656" cy="-738" rx="27" ry="18"/>
<text text-anchor="middle" x="2656" y="-734.3" font-family="Times,serif" font-size="14.00">12</text>
</g>
<!-- 1&#45;&gt;12 -->
<g id="edge10" class="edge">
<title>1&#45;&gt;12</title>
<path fill="none" stroke="black" d="M1559.18,-1025.28C1733.39,-1026.31 2469.86,-1027.26 2692,-972 2764.54,-953.95 2804.03,-963.17 2844,-900 2852.56,-886.48 2851.56,-878.1 2844,-864 2835.15,-847.5 2734.75,-785.97 2684.41,-755.84"/>
<polygon fill="black" stroke="black" points="1559,-1021.78 1548.98,-1025.22 1558.96,-1028.78 1559,-1021.78"/>
<polygon fill="black" stroke="black" points="2686.01,-752.72 2675.63,-750.6 2682.42,-758.73 2686.01,-752.72"/>
</g>
<!-- 13 -->
<g id="node13" class="node">
<title>13</title>
<ellipse fill="none" stroke="black" cx="1757" cy="-594" rx="27" ry="18"/>
<text text-anchor="middle" x="1757" y="-590.3" font-family="Times,serif" font-size="14.00">13</text>
</g>
<!-- 1&#45;&gt;13 -->
<g id="edge11" class="edge">
<title>1&#45;&gt;13</title>
<path fill="none" stroke="black" d="M1539.93,-1001.49C1546.53,-992.46 1553.88,-981.94 1560,-972 1638.29,-844.81 1715.83,-683.29 1744.94,-621.07"/>
<polygon fill="black" stroke="black" points="1537.05,-999.51 1533.9,-1009.62 1542.67,-1003.68 1537.05,-999.51"/>
<polygon fill="black" stroke="black" points="1748.29,-622.16 1749.35,-611.62 1741.95,-619.2 1748.29,-622.16"/>
</g>
<!-- 14 -->
<g id="node14" class="node">
<title>14</title>
<ellipse fill="none" stroke="black" cx="245" cy="-450" rx="27" ry="18"/>
<text text-anchor="middle" x="245" y="-446.3" font-family="Times,serif" font-size="14.00">14</text>
</g>
<!-- 1&#45;&gt;14 -->
<g id="edge12" class="edge">
<title>1&#45;&gt;14</title>
<path fill="none" stroke="black" d="M1492.59,-1009.95C1490.4,-1009.19 1488.18,-1008.52 1486,-1008 1417.03,-991.51 265.68,-1015.92 210,-972 177.83,-946.63 186,-923.97 186,-883 186,-883 186,-883 186,-665 186,-594.83 215.84,-516.23 233.08,-476.68"/>
<polygon fill="black" stroke="black" points="1491.39,-1013.24 1501.98,-1013.77 1494.03,-1006.76 1491.39,-1013.24"/>
<polygon fill="black" stroke="black" points="236.3,-478.05 237.17,-467.49 229.9,-475.21 236.3,-478.05"/>
</g>
<!-- 15 -->
<g id="node15" class="node">
<title>15</title>
<ellipse fill="none" stroke="black" cx="1377" cy="-666" rx="27" ry="18"/>
<text text-anchor="middle" x="1377" y="-662.3" font-family="Times,serif" font-size="14.00">15</text>
</g>
<!-- 1&#45;&gt;15 -->
<g id="edge13" class="edge">
<title>1&#45;&gt;15</title>
<path fill="none" stroke="black" d="M1499.08,-1003.96C1473.61,-978.15 1436,-931.79 1436,-883 1436,-883 1436,-883 1436,-809 1436,-764.87 1411.4,-718.52 1393.97,-691.22"/>
<polygon fill="black" stroke="black" points="1496.64,-1006.46 1506.23,-1010.98 1501.55,-1001.47 1496.64,-1006.46"/>
<polygon fill="black" stroke="black" points="1396.8,-689.15 1388.38,-682.72 1390.95,-693 1396.8,-689.15"/>
</g>
<!-- 16 -->
<g id="node16" class="node">
<title>16</title>
<ellipse fill="none" stroke="black" cx="1267" cy="-594" rx="27" ry="18"/>
<text text-anchor="middle" x="1267" y="-590.3" font-family="Times,serif" font-size="14.00">16</text>
</g>
<!-- 1&#45;&gt;16 -->
<g id="edge14" class="edge">
<title>1&#45;&gt;16</title>
<path fill="none" stroke="black" d="M1491.8,-1010.33C1420.18,-975.43 1246,-889.85 1246,-883 1246,-883 1246,-883 1246,-737 1246,-696.56 1254.44,-650.33 1260.62,-621.9"/>
<polygon fill="black" stroke="black" points="1490.28,-1013.48 1500.8,-1014.71 1493.34,-1007.19 1490.28,-1013.48"/>
<polygon fill="black" stroke="black" points="1264.08,-622.45 1262.85,-611.93 1257.25,-620.92 1264.08,-622.45"/>
</g>
<!-- 17 -->
<g id="node17" class="node">
<title>17</title>
<ellipse fill="none" stroke="black" cx="2251" cy="-594" rx="27" ry="18"/>
<text text-anchor="middle" x="2251" y="-590.3" font-family="Times,serif" font-size="14.00">17</text>
</g>
<!-- 1&#45;&gt;17 -->
<g id="edge15" class="edge">
<title>1&#45;&gt;17</title>
<path fill="none" stroke="black" d="M1558.98,-1025.23C1753.44,-1026.21 2659.08,-1027.67 2933,-972 3042.04,-949.84 3167,-994.27 3167,-883 3167,-883 3167,-883 3167,-809 3167,-625.44 2460.71,-599.24 2288.52,-595.58"/>
<polygon fill="black" stroke="black" points="1559,-1021.73 1548.98,-1025.18 1558.96,-1028.73 1559,-1021.73"/>
<polygon fill="black" stroke="black" points="2288.48,-592.08 2278.41,-595.38 2288.34,-599.08 2288.48,-592.08"/>
</g>
<!-- 18 -->
<g id="node18" class="node">
<title>18</title>
<ellipse fill="none" stroke="black" cx="1169" cy="-522" rx="27" ry="18"/>
<text text-anchor="middle" x="1169" y="-518.3" font-family="Times,serif" font-size="14.00">18</text>
</g>
<!-- 1&#45;&gt;18 -->
<g id="edge16" class="edge">
<title>1&#45;&gt;18</title>
<path fill="none" stroke="black" d="M1491.79,-1010.2C1489.85,-1009.42 1487.91,-1008.68 1486,-1008 1343.65,-957.54 1170,-1034.03 1170,-883 1170,-883 1170,-883 1170,-737 1170,-669.96 1169.5,-591.1 1169.21,-550.39"/>
<polygon fill="black" stroke="black" points="1490.79,-1013.59 1501.36,-1014.39 1493.6,-1007.18 1490.79,-1013.59"/>
<polygon fill="black" stroke="black" points="1172.71,-550.17 1169.13,-540.2 1165.71,-550.22 1172.71,-550.17"/>
</g>
<!-- 19 -->
<g id="node19" class="node">
<title>19</title>
<ellipse fill="none" stroke="black" cx="473" cy="-450" rx="27" ry="18"/>
<text text-anchor="middle" x="473" y="-446.3" font-family="Times,serif" font-size="14.00">19</text>
</g>
<!-- 1&#45;&gt;19 -->
<g id="edge17" class="edge">
<title>1&#45;&gt;19</title>
<path fill="none" stroke="black" d="M1492.58,-1009.99C1490.39,-1009.22 1488.18,-1008.54 1486,-1008 1316.31,-965.85 873.53,-993.47 700,-972 502.86,-947.6 262,-1081.64 262,-883 262,-883 262,-883 262,-809 262,-662.53 394.7,-523.23 449.63,-471.84"/>
<polygon fill="black" stroke="black" points="1491.38,-1013.28 1501.96,-1013.83 1494.03,-1006.8 1491.38,-1013.28"/>
<polygon fill="black" stroke="black" points="452.17,-474.26 457.14,-464.9 447.42,-469.11 452.17,-474.26"/>
</g>
<!-- 20 -->
<g id="node20" class="node">
<title>20</title>
<ellipse fill="none" stroke="black" cx="2808" cy="-666" rx="27" ry="18"/>
<text text-anchor="middle" x="2808" y="-662.3" font-family="Times,serif" font-size="14.00">20</text>
</g>
<!-- 1&#45;&gt;20 -->
<g id="edge18" class="edge">
<title>1&#45;&gt;20</title>
<path fill="none" stroke="black" d="M1559.12,-1024.8C1773.73,-1023.49 2847.85,-1014.82 2902,-972 2965.92,-921.45 2968.78,-867.05 2937,-792 2916.63,-743.91 2867.71,-705.24 2836.31,-684.25"/>
<polygon fill="black" stroke="black" points="1558.98,-1021.3 1549,-1024.86 1559.02,-1028.3 1558.98,-1021.3"/>
<polygon fill="black" stroke="black" points="2837.85,-681.08 2827.56,-678.56 2834.03,-686.95 2837.85,-681.08"/>
</g>
<!-- 21 -->
<g id="node21" class="node">
<title>21</title>
<ellipse fill="none" stroke="black" cx="321" cy="-378" rx="27" ry="18"/>
<text text-anchor="middle" x="321" y="-374.3" font-family="Times,serif" font-size="14.00">21</text>
</g>
<!-- 1&#45;&gt;21 -->
<g id="edge19" class="edge">
<title>1&#45;&gt;21</title>
<path fill="none" stroke="black" d="M1492.59,-1009.95C1490.39,-1009.19 1488.18,-1008.52 1486,-1008 1354.34,-976.43 381.94,-1045.13 268,-972 230.86,-948.17 224,-927.13 224,-883 224,-883 224,-883 224,-809 224,-652.46 285.93,-471.54 310.82,-405.15"/>
<polygon fill="black" stroke="black" points="1491.39,-1013.24 1501.97,-1013.77 1494.03,-1006.76 1491.39,-1013.24"/>
<polygon fill="black" stroke="black" points="314.21,-406.09 314.48,-395.5 307.67,-403.61 314.21,-406.09"/>
</g>
<!-- 22 -->
<g id="node22" class="node">
<title>22</title>
<ellipse fill="none" stroke="black" cx="1263" cy="-378" rx="27" ry="18"/>
<text text-anchor="middle" x="1263" y="-374.3" font-family="Times,serif" font-size="14.00">22</text>
</g>
<!-- 1&#45;&gt;22 -->
<g id="edge20" class="edge">
<title>1&#45;&gt;22</title>
<path fill="none" stroke="black" d="M1491.89,-1009.88C1489.92,-1009.18 1487.95,-1008.54 1486,-1008 1408.09,-986.43 1182.74,-1027.54 1124,-972 972.84,-829.06 1018.66,-677.8 1133,-504 1161.82,-460.19 1208.56,-420.21 1237.45,-397.79"/>
<polygon fill="black" stroke="black" points="1490.95,-1013.28 1501.53,-1013.86 1493.62,-1006.81 1490.95,-1013.28"/>
<polygon fill="black" stroke="black" points="1239.63,-400.53 1245.45,-391.68 1235.38,-394.97 1239.63,-400.53"/>
</g>
<!-- 23 -->
<g id="node23" class="node">
<title>23</title>
<ellipse fill="none" stroke="black" cx="1227" cy="-306" rx="27" ry="18"/>
<text text-anchor="middle" x="1227" y="-302.3" font-family="Times,serif" font-size="14.00">23</text>
</g>
<!-- 1&#45;&gt;23 -->
<g id="edge21" class="edge">
<title>1&#45;&gt;23</title>
<path fill="none" stroke="black" d="M1492.59,-1009.95C1490.4,-1009.18 1488.18,-1008.52 1486,-1008 1415.56,-991.18 242.28,-1013.6 183,-972 148.21,-947.59 148,-925.5 148,-883 148,-883 148,-883 148,-665 148,-516.4 148.55,-418.86 285,-360 306.15,-350.87 1018.04,-316.84 1189.92,-308.74"/>
<polygon fill="black" stroke="black" points="1491.39,-1013.24 1501.98,-1013.76 1494.03,-1006.75 1491.39,-1013.24"/>
<polygon fill="black" stroke="black" points="1190.17,-312.23 1200,-308.26 1189.85,-305.24 1190.17,-312.23"/>
</g>
<!-- 25 -->
<g id="node24" class="node">
<title>25</title>
<ellipse fill="none" stroke="black" cx="1060" cy="-234" rx="27" ry="18"/>
<text text-anchor="middle" x="1060" y="-230.3" font-family="Times,serif" font-size="14.00">25</text>
</g>
<!-- 1&#45;&gt;25 -->
<g id="edge22" class="edge">
<title>1&#45;&gt;25</title>
<path fill="none" stroke="black" d="M1529.3,-998.15C1536.36,-969.76 1546,-923.57 1546,-883 1546,-883 1546,-883 1546,-737 1546,-640.07 1588,-619.93 1588,-523 1588,-523 1588,-523 1588,-377 1588,-267.39 1463.56,-317.51 1358,-288 1265.57,-262.16 1153.36,-246.21 1096.62,-239.2"/>
<polygon fill="black" stroke="black" points="1525.84,-997.55 1526.74,-1008.11 1532.62,-999.29 1525.84,-997.55"/>
<polygon fill="black" stroke="black" points="1097.04,-235.72 1086.7,-237.99 1096.2,-242.67 1097.04,-235.72"/>
</g>
<!-- 26 -->
<g id="node25" class="node">
<title>26</title>
<ellipse fill="none" stroke="black" cx="2534" cy="-522" rx="27" ry="18"/>
<text text-anchor="middle" x="2534" y="-518.3" font-family="Times,serif" font-size="14.00">26</text>
</g>
<!-- 1&#45;&gt;26 -->
<g id="edge23" class="edge">
<title>1&#45;&gt;26</title>
<path fill="none" stroke="black" d="M1559.25,-1024.53C1704.78,-1022.39 2229.99,-1011.97 2292,-972 2312.33,-958.89 2474.27,-641.02 2521.26,-548.22"/>
<polygon fill="black" stroke="black" points="1559,-1021.03 1549.05,-1024.67 1559.1,-1028.03 1559,-1021.03"/>
<polygon fill="black" stroke="black" points="2524.42,-549.74 2525.81,-539.23 2518.17,-546.57 2524.42,-549.74"/>
</g>
<!-- 27 -->
<g id="node26" class="node">
<title>27</title>
<ellipse fill="none" stroke="black" cx="2158" cy="-450" rx="27" ry="18"/>
<text text-anchor="middle" x="2158" y="-446.3" font-family="Times,serif" font-size="14.00">27</text>
</g>
<!-- 1&#45;&gt;27 -->
<g id="edge24" class="edge">
<title>1&#45;&gt;27</title>
<path fill="none" stroke="black" d="M1558.98,-1021.89C1614.14,-1016.41 1720.61,-1002.6 1806,-972 1993.26,-904.9 2052.85,-892.02 2198,-756 2252.9,-704.55 2266.99,-684.53 2287,-612 2291.26,-596.58 2293.24,-590.73 2287,-576 2266.63,-527.91 2217.71,-489.24 2186.31,-468.25"/>
<polygon fill="black" stroke="black" points="1558.6,-1018.41 1548.98,-1022.85 1559.26,-1025.38 1558.6,-1018.41"/>
<polygon fill="black" stroke="black" points="2187.85,-465.08 2177.56,-462.56 2184.03,-470.95 2187.85,-465.08"/>
</g>
<!-- 28 -->
<g id="node27" class="node">
<title>28</title>
<ellipse fill="none" stroke="black" cx="547" cy="-162" rx="27" ry="18"/>
<text text-anchor="middle" x="547" y="-158.3" font-family="Times,serif" font-size="14.00">28</text>
</g>
<!-- 1&#45;&gt;28 -->
<g id="edge25" class="edge">
<title>1&#45;&gt;28</title>
<path fill="none" stroke="black" d="M1492.59,-1009.94C1490.4,-1009.18 1488.19,-1008.52 1486,-1008 1341.55,-973.56 283.58,-1036.87 150,-972 103.72,-949.53 76,-934.44 76,-883 76,-883 76,-883 76,-521 76,-336.68 193.9,-301.85 357,-216 406.93,-189.72 471.3,-175.31 510.84,-168.38"/>
<polygon fill="black" stroke="black" points="1491.39,-1013.24 1501.98,-1013.76 1494.03,-1006.75 1491.39,-1013.24"/>
<polygon fill="black" stroke="black" points="511.53,-171.81 520.81,-166.7 510.37,-164.91 511.53,-171.81"/>
</g>
<!-- 30 -->
<g id="node28" class="node">
<title>30</title>
<ellipse fill="none" stroke="black" cx="2808" cy="-882" rx="27" ry="18"/>
<text text-anchor="middle" x="2808" y="-878.3" font-family="Times,serif" font-size="14.00">30</text>
</g>
<!-- 1&#45;&gt;30 -->
<g id="edge26" class="edge">
<title>1&#45;&gt;30</title>
<path fill="none" stroke="black" d="M1559.65,-1025.37C1729.75,-1026.72 2427.27,-1028.62 2637,-972 2691.93,-957.17 2749.32,-922.78 2781.68,-901.36"/>
<polygon fill="black" stroke="black" points="1559.47,-1021.87 1549.44,-1025.29 1559.41,-1028.87 1559.47,-1021.87"/>
<polygon fill="black" stroke="black" points="2783.77,-904.17 2790.12,-895.68 2779.86,-898.36 2783.77,-904.17"/>
</g>
<!-- 33 -->
<g id="node29" class="node">
<title>33</title>
<ellipse fill="none" stroke="black" cx="2396" cy="-306" rx="27" ry="18"/>
<text text-anchor="middle" x="2396" y="-302.3" font-family="Times,serif" font-size="14.00">33</text>
</g>
<!-- 1&#45;&gt;33 -->
<g id="edge27" class="edge">
<title>1&#45;&gt;33</title>
<path fill="none" stroke="black" d="M1559.22,-1024.79C1779.44,-1023.4 2907.24,-1014.26 3055,-972 3129.53,-950.68 3205,-960.52 3205,-883 3205,-883 3205,-883 3205,-809 3205,-548.43 3057.79,-482.86 2828,-360 2759.9,-323.59 2525.13,-311.53 2433.27,-308.15"/>
<polygon fill="black" stroke="black" points="1559.11,-1021.29 1549.14,-1024.85 1559.16,-1028.29 1559.11,-1021.29"/>
<polygon fill="black" stroke="black" points="2433.17,-304.65 2423.05,-307.79 2432.92,-311.64 2433.17,-304.65"/>
</g>
<!-- 34 -->
<g id="node30" class="node">
<title>34</title>
<ellipse fill="none" stroke="black" cx="2082" cy="-90" rx="27" ry="18"/>
<text text-anchor="middle" x="2082" y="-86.3" font-family="Times,serif" font-size="14.00">34</text>
</g>
<!-- 1&#45;&gt;34 -->
<g id="edge28" class="edge">
<title>1&#45;&gt;34</title>
<path fill="none" stroke="black" d="M1559.04,-1022.26C1623.17,-1016.88 1758.59,-1002.67 1869,-972 2004.21,-934.44 2039.82,-914.91 2150,-828 2218.17,-774.23 2244.02,-762.07 2282,-684 2341.31,-562.09 2287,-514.57 2287,-379 2287,-379 2287,-379 2287,-233 2287,-151.52 2176.21,-113.1 2117.52,-98.46"/>
<polygon fill="black" stroke="black" points="1558.7,-1018.78 1549.01,-1023.08 1559.26,-1025.75 1558.7,-1018.78"/>
<polygon fill="black" stroke="black" points="2118.09,-95 2107.55,-96.08 2116.46,-101.8 2118.09,-95"/>
</g>
<!-- 35 -->
<g id="node31" class="node">
<title>35</title>
<ellipse fill="none" stroke="black" cx="321" cy="-90" rx="27" ry="18"/>
<text text-anchor="middle" x="321" y="-86.3" font-family="Times,serif" font-size="14.00">35</text>
</g>
<!-- 1&#45;&gt;35 -->
<g id="edge29" class="edge">
<title>1&#45;&gt;35</title>
<path fill="none" stroke="black" d="M1492.59,-1009.94C1490.4,-1009.18 1488.19,-1008.52 1486,-1008 1410.58,-990.06 157.9,-1011.17 91,-972 51.27,-948.74 38,-929.04 38,-883 38,-883 38,-883 38,-521 38,-334.59 225.87,-166.49 295.47,-110.61"/>
<polygon fill="black" stroke="black" points="1491.4,-1013.23 1501.98,-1013.76 1494.03,-1006.75 1491.4,-1013.23"/>
<polygon fill="black" stroke="black" points="298.06,-113.02 303.72,-104.06 293.71,-107.53 298.06,-113.02"/>
</g>
<!-- 36 -->
<g id="node32" class="node">
<title>36</title>
<ellipse fill="none" stroke="black" cx="405" cy="-18" rx="27" ry="18"/>
<text text-anchor="middle" x="405" y="-14.3" font-family="Times,serif" font-size="14.00">36</text>
</g>
<!-- 1&#45;&gt;36 -->
<g id="edge30" class="edge">
<title>1&#45;&gt;36</title>
<path fill="none" stroke="black" d="M1492.59,-1009.94C1490.4,-1009.18 1488.19,-1008.52 1486,-1008 1408.14,-989.52 113.83,-1014.47 46,-972 8.26,-948.37 0,-927.53 0,-883 0,-883 0,-883 0,-161 0,-83.27 269.03,-37.92 368.56,-23.8"/>
<polygon fill="black" stroke="black" points="1491.4,-1013.23 1501.98,-1013.75 1494.03,-1006.75 1491.4,-1013.23"/>
<polygon fill="black" stroke="black" points="369.32,-27.23 378.74,-22.38 368.35,-20.29 369.32,-27.23"/>
</g>
<!-- 2&#45;&gt;7 -->
<g id="edge31" class="edge">
<title>2&#45;&gt;7</title>
<path fill="none" stroke="black" d="M525.23,-872.89C583.8,-859.4 700.52,-832.52 758.96,-819.07"/>
<polygon fill="black" stroke="black" points="524.1,-869.56 515.14,-875.21 525.67,-876.38 524.1,-869.56"/>
<polygon fill="black" stroke="black" points="759.87,-822.45 768.83,-816.79 758.3,-815.63 759.87,-822.45"/>
</g>
<!-- 2&#45;&gt;10 -->
<g id="edge32" class="edge">
<title>2&#45;&gt;10</title>
<path fill="none" stroke="black" d="M526.71,-877.51C732.5,-857.94 1741.07,-762.01 1946.45,-742.48"/>
<polygon fill="black" stroke="black" points="526.17,-874.04 516.55,-878.48 526.83,-881.01 526.17,-874.04"/>
<polygon fill="black" stroke="black" points="1946.8,-745.96 1956.43,-741.53 1946.14,-738.99 1946.8,-745.96"/>
</g>
<!-- 2&#45;&gt;11 -->
<g id="edge33" class="edge">
<title>2&#45;&gt;11</title>
<path fill="none" stroke="black" d="M527.24,-879.86C617.4,-875.53 851.91,-854.85 1014,-756 1044.83,-737.2 1075.23,-708.68 1094.49,-689.01"/>
<polygon fill="black" stroke="black" points="526.81,-876.37 516.97,-880.31 527.12,-883.37 526.81,-876.37"/>
<polygon fill="black" stroke="black" points="1097.13,-691.32 1101.55,-681.7 1092.09,-686.46 1097.13,-691.32"/>
</g>
<!-- 2&#45;&gt;19 -->
<g id="edge34" class="edge">
<title>2&#45;&gt;19</title>
<path fill="none" stroke="black" d="M465.55,-861.07C455.72,-851.92 445.07,-840.36 438,-828 417.66,-792.44 414,-779.97 414,-739 414,-739 414,-739 414,-593 414,-548.87 438.6,-502.52 456.03,-475.22"/>
<polygon fill="black" stroke="black" points="463.37,-863.82 473.17,-867.86 468.03,-858.6 463.37,-863.82"/>
<polygon fill="black" stroke="black" points="459.05,-477 461.62,-466.72 453.2,-473.15 459.05,-477"/>
</g>
<!-- 2&#45;&gt;21 -->
<g id="edge35" class="edge">
<title>2&#45;&gt;21</title>
<path fill="none" stroke="black" d="M459.4,-865.74C444.41,-856.75 427.4,-843.98 417,-828 370.63,-756.71 334.87,-492.34 324.24,-406.27"/>
<polygon fill="black" stroke="black" points="457.97,-868.96 468.39,-870.85 461.43,-862.87 457.97,-868.96"/>
<polygon fill="black" stroke="black" points="327.7,-405.74 323.02,-396.24 320.75,-406.59 327.7,-405.74"/>
</g>
<!-- 2&#45;&gt;22 -->
<g id="edge36" class="edge">
<title>2&#45;&gt;22</title>
<path fill="none" stroke="black" d="M515.69,-861.83C602.91,-797.18 896.66,-582.75 1156,-432 1180.98,-417.48 1210.48,-403.06 1232.17,-392.94"/>
<polygon fill="black" stroke="black" points="513.39,-859.18 507.45,-867.96 517.56,-864.8 513.39,-859.18"/>
<polygon fill="black" stroke="black" points="1233.64,-396.11 1241.24,-388.74 1230.7,-389.76 1233.64,-396.11"/>
</g>
<!-- 2&#45;&gt;25 -->
<g id="edge38" class="edge">
<title>2&#45;&gt;25</title>
<path fill="none" stroke="black" d="M490,-853.92C490,-825.35 490,-779 490,-739 490,-739 490,-739 490,-665 490,-528.61 911.2,-308.96 1029.46,-249.98"/>
<polygon fill="black" stroke="black" points="486.5,-853.95 490,-863.95 493.5,-853.95 486.5,-853.95"/>
<polygon fill="black" stroke="black" points="1031.3,-252.97 1038.7,-245.39 1028.18,-246.7 1031.3,-252.97"/>
</g>
<!-- 2&#45;&gt;28 -->
<g id="edge39" class="edge">
<title>2&#45;&gt;28</title>
<path fill="none" stroke="black" d="M453.16,-878.81C415.78,-874.64 358.61,-862.61 324,-828 259.2,-763.21 182.45,-519.7 209,-432 252.89,-287.06 437.84,-203.4 514.01,-174.53"/>
<polygon fill="black" stroke="black" points="452.86,-882.3 463.15,-879.79 453.54,-875.33 452.86,-882.3"/>
<polygon fill="black" stroke="black" points="515.44,-177.74 523.59,-170.97 513,-171.18 515.44,-177.74"/>
</g>
<!-- 2&#45;&gt;36 -->
<g id="edge40" class="edge">
<title>2&#45;&gt;36</title>
<path fill="none" stroke="black" d="M457.55,-868.12C438.12,-859.15 413.99,-845.63 397,-828 185.42,-608.5 191.46,-484.25 172,-180 168.83,-130.4 163.67,-104.81 201,-72 247.95,-30.74 323.06,-20.94 367.86,-18.99"/>
<polygon fill="black" stroke="black" points="456.37,-871.43 466.93,-872.28 459.21,-865.03 456.37,-871.43"/>
<polygon fill="black" stroke="black" points="368.14,-22.49 378.02,-18.66 367.91,-15.49 368.14,-22.49"/>
</g>
<!-- 24 -->
<g id="node33" class="node">
<title>24</title>
<ellipse fill="none" stroke="black" cx="777" cy="-306" rx="27" ry="18"/>
<text text-anchor="middle" x="777" y="-302.3" font-family="Times,serif" font-size="14.00">24</text>
</g>
<!-- 2&#45;&gt;24 -->
<g id="edge37" class="edge">
<title>2&#45;&gt;24</title>
<path fill="none" stroke="black" d="M478.6,-854.86C467.4,-826.78 452,-780.59 452,-739 452,-739 452,-739 452,-665 452,-490.76 665.65,-363.72 746.5,-321.89"/>
<polygon fill="black" stroke="black" points="475.45,-856.42 482.49,-864.34 481.93,-853.76 475.45,-856.42"/>
<polygon fill="black" stroke="black" points="748.36,-324.87 755.68,-317.21 745.18,-318.63 748.36,-324.87"/>
</g>
<!-- 3&#45;&gt;6 -->
<g id="edge42" class="edge">
<title>3&#45;&gt;6</title>
<path fill="none" stroke="black" d="M2634.79,-942.19C2661.4,-932.94 2698.9,-918.24 2729,-900 2750.32,-887.08 2750.67,-876.89 2772,-864 2802.32,-845.68 2840.12,-830.99 2866.95,-821.76"/>
<polygon fill="black" stroke="black" points="2633.5,-938.93 2625.16,-945.47 2635.75,-945.56 2633.5,-938.93"/>
<polygon fill="black" stroke="black" points="2868.29,-825.01 2876.65,-818.5 2866.06,-818.37 2868.29,-825.01"/>
</g>
<!-- 3&#45;&gt;10 -->
<g id="edge43" class="edge">
<title>3&#45;&gt;10</title>
<path fill="none" stroke="black" d="M2565.92,-944.92C2525.05,-935.27 2455.66,-918.14 2397,-900 2250.93,-854.84 2082.82,-783.07 2014.4,-752.99"/>
<polygon fill="black" stroke="black" points="2565.13,-948.33 2575.67,-947.21 2566.73,-941.51 2565.13,-948.33"/>
<polygon fill="black" stroke="black" points="2015.61,-749.69 2005.04,-748.86 2012.78,-756.1 2015.61,-749.69"/>
</g>
<!-- 3&#45;&gt;12 -->
<g id="edge44" class="edge">
<title>3&#45;&gt;12</title>
<path fill="none" stroke="black" d="M2626.97,-933.82C2637.05,-924.8 2647.49,-913.13 2653,-900 2671.37,-856.23 2666.69,-799.69 2661.45,-766.58"/>
<polygon fill="black" stroke="black" points="2624.46,-931.35 2619.05,-940.47 2628.96,-936.72 2624.46,-931.35"/>
<polygon fill="black" stroke="black" points="2664.83,-765.56 2659.69,-756.3 2657.93,-766.75 2664.83,-765.56"/>
</g>
<!-- 3&#45;&gt;20 -->
<g id="edge45" class="edge">
<title>3&#45;&gt;20</title>
<path fill="none" stroke="black" d="M2629.5,-935.62C2643.4,-926.22 2659.73,-913.74 2672,-900 2730.88,-834.07 2776.86,-738.72 2796.96,-693.15"/>
<polygon fill="black" stroke="black" points="2627.22,-932.92 2620.78,-941.33 2631.06,-938.78 2627.22,-932.92"/>
<polygon fill="black" stroke="black" points="2800.29,-694.27 2801.07,-683.71 2793.87,-691.48 2800.29,-694.27"/>
</g>
<!-- 3&#45;&gt;30 -->
<g id="edge46" class="edge">
<title>3&#45;&gt;30</title>
<path fill="none" stroke="black" d="M2635.24,-942.99C2669.01,-932.9 2721.95,-916.5 2767,-900 2770.11,-898.86 2773.33,-897.62 2776.54,-896.36"/>
<polygon fill="black" stroke="black" points="2634,-939.7 2625.41,-945.91 2635.99,-946.41 2634,-939.7"/>
<polygon fill="black" stroke="black" points="2778.05,-899.52 2786,-892.52 2775.42,-893.03 2778.05,-899.52"/>
</g>
<!-- 3&#45;&gt;33 -->
<g id="edge48" class="edge">
<title>3&#45;&gt;33</title>
<path fill="none" stroke="black" d="M2570.44,-937.52C2555.37,-928.47 2538.1,-915.71 2527,-900 2426.52,-757.73 2420,-697.17 2420,-523 2420,-523 2420,-523 2420,-449 2420,-408.43 2410.36,-362.24 2403.3,-333.85"/>
<polygon fill="black" stroke="black" points="2569.05,-940.76 2579.47,-942.68 2572.52,-934.68 2569.05,-940.76"/>
<polygon fill="black" stroke="black" points="2406.62,-332.71 2400.74,-323.89 2399.84,-334.45 2406.62,-332.71"/>
</g>
<!-- 3&#45;&gt;36 -->
<g id="edge49" class="edge">
<title>3&#45;&gt;36</title>
<path fill="none" stroke="black" d="M2569.86,-938.8C2554.23,-929.96 2536.63,-917.02 2527,-900 2447.96,-760.29 2507.08,-700.26 2498,-540 2488.04,-364.19 2599.11,-278.12 2485,-144 2377.29,-17.4 2283.17,-90.63 2118,-72 2031.92,-62.29 684.52,-26.38 442.18,-19.98"/>
<polygon fill="black" stroke="black" points="2568.28,-941.93 2578.75,-943.53 2571.56,-935.75 2568.28,-941.93"/>
<polygon fill="black" stroke="black" points="442.21,-16.48 432.12,-19.71 442.02,-23.48 442.21,-16.48"/>
</g>
<!-- 5 -->
<g id="node34" class="node">
<title>5</title>
<ellipse fill="none" stroke="black" cx="2563" cy="-882" rx="27" ry="18"/>
<text text-anchor="middle" x="2563" y="-878.3" font-family="Times,serif" font-size="14.00">5</text>
</g>
<!-- 3&#45;&gt;5 -->
<g id="edge41" class="edge">
<title>3&#45;&gt;5</title>
<path fill="none" stroke="black" d="M2587.27,-927.7C2583.79,-921.3 2580.07,-914.44 2576.6,-908.05"/>
<polygon fill="black" stroke="black" points="2584.34,-929.65 2592.19,-936.76 2590.49,-926.31 2584.34,-929.65"/>
<polygon fill="black" stroke="black" points="2579.61,-906.27 2571.77,-899.15 2573.46,-909.61 2579.61,-906.27"/>
</g>
<!-- 32 -->
<g id="node35" class="node">
<title>32</title>
<ellipse fill="none" stroke="black" cx="2610" cy="-450" rx="27" ry="18"/>
<text text-anchor="middle" x="2610" y="-446.3" font-family="Times,serif" font-size="14.00">32</text>
</g>
<!-- 3&#45;&gt;32 -->
<g id="edge47" class="edge">
<title>3&#45;&gt;32</title>
<path fill="none" stroke="black" d="M2601.49,-925.62C2603.06,-838.12 2607.94,-565.91 2609.51,-478.39"/>
<polygon fill="black" stroke="black" points="2597.99,-925.66 2601.31,-935.72 2604.99,-925.78 2597.99,-925.66"/>
<polygon fill="black" stroke="black" points="2613.01,-478.27 2609.69,-468.21 2606.01,-478.14 2613.01,-478.27"/>
</g>
<!-- 4&#45;&gt;10 -->
<g id="edge50" class="edge">
<title>4&#45;&gt;10</title>
<path fill="none" stroke="black" d="M1821.43,-794.34C1823.31,-793.52 1825.17,-792.74 1827,-792 1868.39,-775.26 1917.31,-759.23 1949.19,-749.26"/>
<polygon fill="black" stroke="black" points="1819.82,-791.22 1812.14,-798.53 1822.7,-797.6 1819.82,-791.22"/>
<polygon fill="black" stroke="black" points="1950.39,-752.56 1958.9,-746.25 1948.32,-745.87 1950.39,-752.56"/>
</g>
<!-- 4&#45;&gt;13 -->
<g id="edge51" class="edge">
<title>4&#45;&gt;13</title>
<path fill="none" stroke="black" d="M1778.3,-783.51C1766.74,-758.78 1750.52,-719.85 1744,-684 1740.19,-663.07 1744.12,-639.2 1748.63,-621.46"/>
<polygon fill="black" stroke="black" points="1775.16,-785.05 1782.62,-792.57 1781.48,-782.03 1775.16,-785.05"/>
<polygon fill="black" stroke="black" points="1752.01,-622.36 1751.3,-611.79 1745.26,-620.5 1752.01,-622.36"/>
</g>
<!-- 4&#45;&gt;27 -->
<g id="edge52" class="edge">
<title>4&#45;&gt;27</title>
<path fill="none" stroke="black" d="M1821.17,-794.08C1823.12,-793.33 1825.08,-792.62 1827,-792 1969.4,-745.87 2063.19,-808.69 2146,-684 2188.2,-620.46 2174.81,-524.31 2164.77,-477.91"/>
<polygon fill="black" stroke="black" points="1819.39,-791.04 1811.57,-798.18 1822.14,-797.47 1819.39,-791.04"/>
<polygon fill="black" stroke="black" points="2168.15,-476.99 2162.52,-468.02 2161.33,-478.55 2168.15,-476.99"/>
</g>
<!-- 6&#45;&gt;10 -->
<g id="edge65" class="edge">
<title>6&#45;&gt;10</title>
<path fill="none" stroke="black" d="M2863.83,-806.17C2715.76,-794.88 2168.77,-753.17 2020.36,-741.85"/>
<polygon fill="black" stroke="black" points="2863.79,-809.67 2874.02,-806.94 2864.32,-802.69 2863.79,-809.67"/>
<polygon fill="black" stroke="black" points="2020.22,-738.33 2009.98,-741.06 2019.68,-745.31 2020.22,-738.33"/>
</g>
<!-- 6&#45;&gt;17 -->
<g id="edge66" class="edge">
<title>6&#45;&gt;17</title>
<path fill="none" stroke="black" d="M2870.42,-794.53C2830.13,-775.8 2756.76,-742.86 2692,-720 2543.65,-667.62 2361.42,-621.59 2286.11,-603.35"/>
<polygon fill="black" stroke="black" points="2869.15,-797.8 2879.69,-798.86 2872.11,-791.46 2869.15,-797.8"/>
<polygon fill="black" stroke="black" points="2286.75,-599.9 2276.21,-600.96 2285.11,-606.71 2286.75,-599.9"/>
</g>
<!-- 6&#45;&gt;20 -->
<g id="edge67" class="edge">
<title>6&#45;&gt;20</title>
<path fill="none" stroke="black" d="M2877.53,-788.45C2867.88,-779.2 2857.08,-767.72 2849,-756 2835.47,-736.39 2824.47,-711.59 2817.29,-693.16"/>
<polygon fill="black" stroke="black" points="2875.25,-791.12 2884.96,-795.37 2880.02,-785.99 2875.25,-791.12"/>
<polygon fill="black" stroke="black" points="2820.5,-691.76 2813.69,-683.65 2813.95,-694.24 2820.5,-691.76"/>
</g>
<!-- 6&#45;&gt;23 -->
<g id="edge68" class="edge">
<title>6&#45;&gt;23</title>
<path fill="none" stroke="black" d="M2918.49,-785.26C2923.93,-776.51 2929.23,-766.23 2932,-756 2953.09,-678.16 2947.51,-646.86 2909,-576 2845.36,-458.91 2776.24,-460.25 2646,-432 2106.79,-315.05 1429.69,-307.01 1264.57,-306.87"/>
<polygon fill="black" stroke="black" points="2915.47,-783.48 2912.87,-793.76 2921.3,-787.35 2915.47,-783.48"/>
<polygon fill="black" stroke="black" points="1264.44,-303.37 1254.44,-306.87 1264.44,-310.37 1264.44,-303.37"/>
</g>
<!-- 6&#45;&gt;26 -->
<g id="edge69" class="edge">
<title>6&#45;&gt;26</title>
<path fill="none" stroke="black" d="M2894.21,-782.5C2883.5,-742.29 2862.02,-668.39 2844,-648 2771.02,-565.41 2635.7,-536.57 2570.71,-527.18"/>
<polygon fill="black" stroke="black" points="2890.83,-783.39 2896.76,-792.17 2897.6,-781.61 2890.83,-783.39"/>
<polygon fill="black" stroke="black" points="2570.91,-523.67 2560.53,-525.78 2569.96,-530.61 2570.91,-523.67"/>
</g>
<!-- 6&#45;&gt;27 -->
<g id="edge70" class="edge">
<title>6&#45;&gt;27</title>
<path fill="none" stroke="black" d="M2897.53,-781.64C2895.08,-763.96 2891.45,-740.51 2887,-720 2879.96,-687.54 2884.49,-676.24 2867,-648 2841.82,-607.33 2828.35,-600.04 2787,-576 2587.13,-459.81 2297.66,-449.87 2195.44,-450.26"/>
<polygon fill="black" stroke="black" points="2894.09,-782.39 2898.89,-791.83 2901.03,-781.45 2894.09,-782.39"/>
<polygon fill="black" stroke="black" points="2195.28,-446.76 2185.31,-450.33 2195.34,-453.76 2195.28,-446.76"/>
</g>
<!-- 6&#45;&gt;34 -->
<g id="edge72" class="edge">
<title>6&#45;&gt;34</title>
<path fill="none" stroke="black" d="M2923.87,-787.68C2932.81,-778.53 2942.66,-767.34 2950,-756 3028.8,-634.25 3066,-596.03 3066,-451 3066,-451 3066,-451 3066,-305 3066,-228.32 3065.94,-189.19 3004,-144 2931.6,-91.18 2282.34,-90.2 2119.11,-90.79"/>
<polygon fill="black" stroke="black" points="2921.28,-785.32 2916.65,-794.85 2926.21,-790.29 2921.28,-785.32"/>
<polygon fill="black" stroke="black" points="2119.06,-87.29 2109.07,-90.83 2119.09,-94.29 2119.06,-87.29"/>
</g>
<!-- 6&#45;&gt;32 -->
<g id="edge71" class="edge">
<title>6&#45;&gt;32</title>
<path fill="none" stroke="black" d="M2909.45,-782.41C2918.41,-749.92 2929.41,-693.63 2915,-648 2891.46,-573.45 2878.86,-547.64 2814,-504 2754.6,-464.04 2725.68,-488.21 2657,-468 2652.26,-466.6 2647.29,-464.99 2642.45,-463.32"/>
<polygon fill="black" stroke="black" points="2906.07,-781.5 2906.66,-792.08 2912.8,-783.45 2906.07,-781.5"/>
<polygon fill="black" stroke="black" points="2643.36,-459.93 2632.76,-459.86 2641.01,-466.52 2643.36,-459.93"/>
</g>
<!-- 7&#45;&gt;9 -->
<g id="edge73" class="edge">
<title>7&#45;&gt;9</title>
<path fill="none" stroke="black" d="M830.59,-805.33C950.96,-793.24 1333.82,-754.79 1454.32,-742.68"/>
<polygon fill="black" stroke="black" points="830.07,-801.86 820.47,-806.34 830.77,-808.82 830.07,-801.86"/>
<polygon fill="black" stroke="black" points="1454.9,-746.14 1464.5,-741.66 1454.2,-739.18 1454.9,-746.14"/>
</g>
<!-- 7&#45;&gt;10 -->
<g id="edge74" class="edge">
<title>7&#45;&gt;10</title>
<path fill="none" stroke="black" d="M830.84,-806.83C1007.77,-796.41 1769.02,-751.6 1946.09,-741.17"/>
<polygon fill="black" stroke="black" points="830.56,-803.34 820.78,-807.42 830.97,-810.33 830.56,-803.34"/>
<polygon fill="black" stroke="black" points="1946.43,-744.66 1956.21,-740.58 1946.02,-737.67 1946.43,-744.66"/>
</g>
<!-- 7&#45;&gt;11 -->
<g id="edge75" class="edge">
<title>7&#45;&gt;11</title>
<path fill="none" stroke="black" d="M829.25,-800.89C864.86,-792.09 921.04,-776.49 967,-756 1011.92,-735.98 1060.04,-705.07 1088.81,-685.45"/>
<polygon fill="black" stroke="black" points="828.22,-797.54 819.33,-803.3 829.87,-804.34 828.22,-797.54"/>
<polygon fill="black" stroke="black" points="1090.84,-688.3 1097.1,-679.75 1086.88,-682.54 1090.84,-688.3"/>
</g>
<!-- 7&#45;&gt;18 -->
<g id="edge76" class="edge">
<title>7&#45;&gt;18</title>
<path fill="none" stroke="black" d="M819.09,-789.86C887.26,-737.88 1075.32,-594.45 1143.71,-542.29"/>
<polygon fill="black" stroke="black" points="816.92,-787.12 811.09,-795.97 821.16,-792.69 816.92,-787.12"/>
<polygon fill="black" stroke="black" points="1145.98,-544.96 1151.81,-536.11 1141.74,-539.39 1145.98,-544.96"/>
</g>
<!-- 7&#45;&gt;19 -->
<g id="edge77" class="edge">
<title>7&#45;&gt;19</title>
<path fill="none" stroke="black" d="M756.82,-808.14C712.62,-805.3 638.74,-794.59 590,-756 501.07,-685.59 479.68,-539.05 474.58,-478.3"/>
<polygon fill="black" stroke="black" points="756.68,-811.64 766.85,-808.68 757.05,-804.65 756.68,-811.64"/>
<polygon fill="black" stroke="black" points="478.07,-478.03 473.83,-468.32 471.09,-478.55 478.07,-478.03"/>
</g>
<!-- 7&#45;&gt;25 -->
<g id="edge79" class="edge">
<title>7&#45;&gt;25</title>
<path fill="none" stroke="black" d="M805.97,-783.18C850.2,-687.73 1004.17,-355.47 1048.17,-260.52"/>
<polygon fill="black" stroke="black" points="802.7,-781.9 801.67,-792.44 809.05,-784.84 802.7,-781.9"/>
<polygon fill="black" stroke="black" points="1051.39,-261.9 1052.42,-251.35 1045.04,-258.95 1051.39,-261.9"/>
</g>
<!-- 7&#45;&gt;28 -->
<g id="edge80" class="edge">
<title>7&#45;&gt;28</title>
<path fill="none" stroke="black" d="M756.8,-807.17C719.12,-803.28 661.72,-791.48 628,-756 536.81,-660.03 570.11,-599.14 552,-468 544.66,-414.81 545.81,-254.53 546.61,-190.18"/>
<polygon fill="black" stroke="black" points="756.6,-810.66 766.87,-808.06 757.22,-803.69 756.6,-810.66"/>
<polygon fill="black" stroke="black" points="550.11,-190.06 546.74,-180.01 543.11,-189.96 550.11,-190.06"/>
</g>
<!-- 7&#45;&gt;36 -->
<g id="edge82" class="edge">
<title>7&#45;&gt;36</title>
<path fill="none" stroke="black" d="M764.65,-792.59C750.95,-783.5 735.59,-771 726,-756 575.47,-520.71 733.91,-379.05 583,-144 547.4,-88.55 477.62,-50.61 436.8,-32.08"/>
<polygon fill="black" stroke="black" points="763,-795.69 773.33,-798.06 766.74,-789.77 763,-795.69"/>
<polygon fill="black" stroke="black" points="438.14,-28.84 427.58,-28 435.31,-35.24 438.14,-28.84"/>
</g>
<!-- 7&#45;&gt;24 -->
<g id="edge78" class="edge">
<title>7&#45;&gt;24</title>
<path fill="none" stroke="black" d="M767.91,-789.87C757.81,-780.86 747.39,-769.18 742,-756 680.69,-605.96 741.63,-404.49 767.03,-333.27"/>
<polygon fill="black" stroke="black" points="765.93,-792.78 775.85,-796.51 770.42,-787.41 765.93,-792.78"/>
<polygon fill="black" stroke="black" points="770.37,-334.32 770.5,-323.73 763.79,-331.93 770.37,-334.32"/>
</g>
<!-- 29 -->
<g id="node37" class="node">
<title>29</title>
<ellipse fill="none" stroke="black" cx="1098" cy="-162" rx="27" ry="18"/>
<text text-anchor="middle" x="1098" y="-158.3" font-family="Times,serif" font-size="14.00">29</text>
</g>
<!-- 7&#45;&gt;29 -->
<g id="edge81" class="edge">
<title>7&#45;&gt;29</title>
<path fill="none" stroke="black" d="M798.54,-781.98C814.69,-692.56 876.5,-401.4 1024,-216 1035.98,-200.95 1053.3,-188.22 1068.17,-179.02"/>
<polygon fill="black" stroke="black" points="795.04,-781.64 796.75,-792.09 801.94,-782.85 795.04,-781.64"/>
<polygon fill="black" stroke="black" points="1070.23,-181.87 1077.04,-173.76 1066.66,-175.85 1070.23,-181.87"/>
</g>
<!-- 8&#45;&gt;9 -->
<g id="edge83" class="edge">
<title>8&#45;&gt;9</title>
<path fill="none" stroke="black" d="M1832.85,-794.02C1830.89,-793.28 1828.93,-792.6 1827,-792 1721.36,-759.46 1590.58,-746.17 1527.9,-741.38"/>
<polygon fill="black" stroke="black" points="1831.89,-797.41 1842.46,-798.07 1834.61,-790.96 1831.89,-797.41"/>
<polygon fill="black" stroke="black" points="1527.95,-737.87 1517.72,-740.63 1527.43,-744.85 1527.95,-737.87"/>
</g>
<!-- 8&#45;&gt;17 -->
<g id="edge84" class="edge">
<title>8&#45;&gt;17</title>
<path fill="none" stroke="black" d="M1900.54,-806.58C1972.36,-801.29 2125.82,-786.66 2168,-756 2213.14,-723.18 2235.59,-658.48 2245.11,-621.88"/>
<polygon fill="black" stroke="black" points="1899.88,-803.12 1890.15,-807.32 1900.38,-810.1 1899.88,-803.12"/>
<polygon fill="black" stroke="black" points="2248.57,-622.47 2247.56,-611.93 2241.77,-620.8 2248.57,-622.47"/>
</g>
<!-- 9&#45;&gt;11 -->
<g id="edge85" class="edge">
<title>9&#45;&gt;11</title>
<path fill="none" stroke="black" d="M1455.83,-729.05C1442.18,-726.07 1426.39,-722.73 1412,-720 1315.53,-701.67 1290.47,-702.33 1194,-684 1179.61,-681.27 1163.82,-677.93 1150.17,-674.95"/>
<polygon fill="black" stroke="black" points="1455.28,-732.51 1465.8,-731.25 1456.79,-725.68 1455.28,-732.51"/>
<polygon fill="black" stroke="black" points="1150.72,-671.49 1140.2,-672.75 1149.21,-678.32 1150.72,-671.49"/>
</g>
<!-- 9&#45;&gt;15 -->
<g id="edge86" class="edge">
<title>9&#45;&gt;15</title>
<path fill="none" stroke="black" d="M1462.99,-719.8C1445.39,-709 1422.77,-695.1 1405.14,-684.28"/>
<polygon fill="black" stroke="black" points="1461.31,-722.88 1471.66,-725.13 1464.97,-716.91 1461.31,-722.88"/>
<polygon fill="black" stroke="black" points="1406.79,-681.18 1396.43,-678.93 1403.12,-687.15 1406.79,-681.18"/>
</g>
<!-- 9&#45;&gt;16 -->
<g id="edge87" class="edge">
<title>9&#45;&gt;16</title>
<path fill="none" stroke="black" d="M1456.03,-728.54C1406.16,-716.22 1319.35,-693.76 1308,-684 1289.33,-667.94 1278.67,-641.58 1272.92,-621.71"/>
<polygon fill="black" stroke="black" points="1455.23,-731.94 1465.77,-730.93 1456.9,-725.15 1455.23,-731.94"/>
<polygon fill="black" stroke="black" points="1276.29,-620.77 1270.35,-612 1269.53,-622.56 1276.29,-620.77"/>
</g>
<!-- 9&#45;&gt;17 -->
<g id="edge88" class="edge">
<title>9&#45;&gt;17</title>
<path fill="none" stroke="black" d="M1527.66,-733.94C1634.78,-724.29 1955.74,-690.4 2210,-612 2213.17,-611.02 2216.43,-609.9 2219.66,-608.69"/>
<polygon fill="black" stroke="black" points="1527.34,-730.45 1517.68,-734.82 1527.95,-737.43 1527.34,-730.45"/>
<polygon fill="black" stroke="black" points="2221.13,-611.88 2229.15,-604.95 2218.56,-605.36 2221.13,-611.88"/>
</g>
<!-- 9&#45;&gt;18 -->
<g id="edge89" class="edge">
<title>9&#45;&gt;18</title>
<path fill="none" stroke="black" d="M1455.81,-728.89C1397.46,-715.35 1286.32,-689.1 1279,-684 1229.48,-649.52 1195.59,-585.01 1179.57,-549"/>
<polygon fill="black" stroke="black" points="1455.18,-732.34 1465.71,-731.18 1456.76,-725.52 1455.18,-732.34"/>
<polygon fill="black" stroke="black" points="1182.71,-547.43 1175.53,-539.64 1176.29,-550.21 1182.71,-547.43"/>
</g>
<!-- 9&#45;&gt;21 -->
<g id="edge90" class="edge">
<title>9&#45;&gt;21</title>
<path fill="none" stroke="black" d="M1454.19,-734.55C1381.67,-729.23 1215.5,-714.54 1079,-684 958.9,-657.13 469.23,-487.24 437,-468 416.75,-455.91 416.43,-446.72 398,-432 382.1,-419.3 363.3,-406.32 348.26,-396.39"/>
<polygon fill="black" stroke="black" points="1453.97,-738.05 1464.19,-735.27 1454.47,-731.06 1453.97,-738.05"/>
<polygon fill="black" stroke="black" points="350.18,-393.46 339.89,-390.92 346.35,-399.32 350.18,-393.46"/>
</g>
<!-- 9&#45;&gt;22 -->
<g id="edge91" class="edge">
<title>9&#45;&gt;22</title>
<path fill="none" stroke="black" d="M1454.3,-733.77C1420.13,-728.78 1370.22,-716.13 1341,-684 1321.58,-662.65 1285.43,-459.89 1278,-432 1275.72,-423.46 1273.14,-414.18 1270.76,-405.8"/>
<polygon fill="black" stroke="black" points="1453.98,-737.25 1464.35,-735.08 1454.89,-730.31 1453.98,-737.25"/>
<polygon fill="black" stroke="black" points="1274.11,-404.8 1268,-396.15 1267.38,-406.73 1274.11,-404.8"/>
</g>
<!-- 9&#45;&gt;23 -->
<g id="edge92" class="edge">
<title>9&#45;&gt;23</title>
<path fill="none" stroke="black" d="M1471.8,-713.74C1465.62,-704.95 1459.48,-694.52 1456,-684 1440.9,-638.36 1457.5,-623.48 1450,-576 1439.67,-510.62 1435.37,-493.93 1412,-432 1399.37,-398.53 1402.79,-383.71 1376,-360 1344.18,-331.84 1296.38,-318.36 1263.55,-312.1"/>
<polygon fill="black" stroke="black" points="1469.11,-715.99 1477.89,-721.92 1474.73,-711.81 1469.11,-715.99"/>
<polygon fill="black" stroke="black" points="1263.92,-308.61 1253.46,-310.31 1262.7,-315.5 1263.92,-308.61"/>
</g>
<!-- 9&#45;&gt;25 -->
<g id="edge93" class="edge">
<title>9&#45;&gt;25</title>
<path fill="none" stroke="black" d="M1491.6,-709.56C1491.69,-642.99 1483.59,-470.25 1403,-360 1373.38,-319.48 1361.24,-309.73 1316,-288 1243.47,-253.16 1148.62,-241.16 1097.15,-237.07"/>
<polygon fill="black" stroke="black" points="1488.1,-709.64 1491.52,-719.67 1495.1,-709.69 1488.1,-709.64"/>
<polygon fill="black" stroke="black" points="1097.38,-233.58 1087.15,-236.33 1096.87,-240.56 1097.38,-233.58"/>
</g>
<!-- 9&#45;&gt;26 -->
<g id="edge94" class="edge">
<title>9&#45;&gt;26</title>
<path fill="none" stroke="black" d="M1525.88,-728.54C1630.11,-703.4 1948.59,-627.71 2215,-576 2317.16,-556.17 2438.63,-537.27 2497.88,-528.35"/>
<polygon fill="black" stroke="black" points="1524.81,-725.2 1515.91,-730.95 1526.45,-732 1524.81,-725.2"/>
<polygon fill="black" stroke="black" points="2498.49,-531.8 2507.86,-526.85 2497.46,-524.87 2498.49,-531.8"/>
</g>
<!-- 9&#45;&gt;27 -->
<g id="edge95" class="edge">
<title>9&#45;&gt;27</title>
<path fill="none" stroke="black" d="M1522.85,-723.85C1544.78,-714.18 1574.15,-699.98 1598,-684 1613.11,-673.88 1705.04,-584.71 1721,-576 1857.78,-501.35 2043.55,-467.49 2121.36,-455.91"/>
<polygon fill="black" stroke="black" points="1521.43,-720.65 1513.65,-727.84 1524.22,-727.08 1521.43,-720.65"/>
<polygon fill="black" stroke="black" points="2122.21,-459.32 2131.6,-454.42 2121.2,-452.4 2122.21,-459.32"/>
</g>
<!-- 9&#45;&gt;33 -->
<g id="edge96" class="edge">
<title>9&#45;&gt;33</title>
<path fill="none" stroke="black" d="M1512.16,-715.15C1545.22,-681.9 1612.15,-618.06 1678,-576 1873.79,-450.94 1933.53,-433.26 2154,-360 2225.3,-336.31 2311.97,-320.27 2359.84,-312.47"/>
<polygon fill="black" stroke="black" points="1509.42,-712.95 1504.89,-722.53 1514.4,-717.86 1509.42,-712.95"/>
<polygon fill="black" stroke="black" points="2360.41,-315.93 2369.73,-310.89 2359.3,-309.02 2360.41,-315.93"/>
</g>
<!-- 9&#45;&gt;36 -->
<g id="edge97" class="edge">
<title>9&#45;&gt;36</title>
<path fill="none" stroke="black" d="M1502.85,-711.26C1541.25,-626.05 1656.72,-354.75 1602,-288 1563.21,-240.68 1120.88,-196.66 1062,-180 928.86,-142.32 904.09,-106.13 770,-72 652.19,-42.02 508.39,-27.36 441.93,-21.78"/>
<polygon fill="black" stroke="black" points="1499.61,-709.93 1498.66,-720.48 1505.98,-712.82 1499.61,-709.93"/>
<polygon fill="black" stroke="black" points="442.19,-18.29 431.94,-20.96 441.62,-25.27 442.19,-18.29"/>
</g>
<!-- 10&#45;&gt;11 -->
<g id="edge98" class="edge">
<title>10&#45;&gt;11</title>
<path fill="none" stroke="black" d="M1945.85,-734C1803.52,-722.53 1293.92,-681.43 1151.95,-669.98"/>
<polygon fill="black" stroke="black" points="1945.82,-737.51 1956.07,-734.83 1946.38,-730.54 1945.82,-737.51"/>
<polygon fill="black" stroke="black" points="1151.86,-666.46 1141.62,-669.15 1151.3,-673.44 1151.86,-666.46"/>
</g>
<!-- 10&#45;&gt;13 -->
<g id="edge99" class="edge">
<title>10&#45;&gt;13</title>
<path fill="none" stroke="black" d="M1946.42,-733.6C1889.37,-727.48 1783.3,-712.49 1760,-684 1746.04,-666.94 1746.7,-641.27 1750.03,-621.88"/>
<polygon fill="black" stroke="black" points="1946.16,-737.1 1956.47,-734.65 1946.89,-730.13 1946.16,-737.1"/>
<polygon fill="black" stroke="black" points="1753.5,-622.34 1752.07,-611.84 1746.65,-620.94 1753.5,-622.34"/>
</g>
<!-- 10&#45;&gt;15 -->
<g id="edge100" class="edge">
<title>10&#45;&gt;15</title>
<path fill="none" stroke="black" d="M1946.49,-732.78C1838.56,-720.32 1521.79,-683.72 1413.66,-671.23"/>
<polygon fill="black" stroke="black" points="1946.24,-736.28 1956.57,-733.95 1947.04,-729.32 1946.24,-736.28"/>
<polygon fill="black" stroke="black" points="1413.9,-667.74 1403.57,-670.07 1413.1,-674.69 1413.9,-667.74"/>
</g>
<!-- 10&#45;&gt;20 -->
<g id="edge101" class="edge">
<title>10&#45;&gt;20</title>
<path fill="none" stroke="black" d="M2020.25,-733.84C2157.47,-722.2 2633.81,-681.78 2770.85,-670.15"/>
<polygon fill="black" stroke="black" points="2019.65,-730.38 2009.98,-734.71 2020.24,-737.35 2019.65,-730.38"/>
<polygon fill="black" stroke="black" points="2771.56,-673.6 2781.23,-669.27 2770.97,-666.63 2771.56,-673.6"/>
</g>
<!-- 10&#45;&gt;23 -->
<g id="edge102" class="edge">
<title>10&#45;&gt;23</title>
<path fill="none" stroke="black" d="M1956.71,-718.3C1943.12,-708.41 1926.41,-695.87 1912,-684 1856.87,-638.59 1851.34,-617.21 1793,-576 1765.39,-556.5 1755.66,-556.21 1726,-540 1581.44,-461.01 1553.69,-424.24 1402,-360 1355.04,-340.11 1298.11,-324.32 1262.21,-315.31"/>
<polygon fill="black" stroke="black" points="1954.98,-721.37 1965.13,-724.39 1959.08,-715.69 1954.98,-721.37"/>
<polygon fill="black" stroke="black" points="1262.77,-311.84 1252.22,-312.84 1261.09,-318.63 1262.77,-311.84"/>
</g>
<!-- 10&#45;&gt;25 -->
<g id="edge103" class="edge">
<title>10&#45;&gt;25</title>
<path fill="none" stroke="black" d="M1963.09,-713.97C1905.04,-646.76 1740,-455.3 1740,-451 1740,-451 1740,-451 1740,-377 1740,-244.62 1239.94,-234.86 1097.47,-234.76"/>
<polygon fill="black" stroke="black" points="1960.75,-716.61 1969.94,-721.89 1966.05,-712.03 1960.75,-716.61"/>
<polygon fill="black" stroke="black" points="1097.07,-231.26 1087.08,-234.77 1097.08,-238.26 1097.07,-231.26"/>
</g>
<!-- 10&#45;&gt;26 -->
<g id="edge104" class="edge">
<title>10&#45;&gt;26</title>
<path fill="none" stroke="black" d="M2018.12,-728.45C2055.67,-718.96 2116.73,-702.52 2168,-684 2295.66,-637.87 2441.84,-568.28 2503.76,-537.98"/>
<polygon fill="black" stroke="black" points="2017.03,-725.12 2008.18,-730.94 2018.73,-731.91 2017.03,-725.12"/>
<polygon fill="black" stroke="black" points="2505.53,-541.01 2512.96,-533.46 2502.44,-534.73 2505.53,-541.01"/>
</g>
<!-- 10&#45;&gt;27 -->
<g id="edge105" class="edge">
<title>10&#45;&gt;27</title>
<path fill="none" stroke="black" d="M2019.9,-734.32C2054.05,-729.75 2103.44,-717.38 2130,-684 2131.6,-681.99 2148.01,-538.92 2154.94,-478"/>
<polygon fill="black" stroke="black" points="2019.35,-730.86 2009.83,-735.51 2020.17,-737.82 2019.35,-730.86"/>
<polygon fill="black" stroke="black" points="2158.43,-478.29 2156.08,-467.96 2151.47,-477.5 2158.43,-478.29"/>
</g>
<!-- 10&#45;&gt;33 -->
<g id="edge108" class="edge">
<title>10&#45;&gt;33</title>
<path fill="none" stroke="black" d="M2018.55,-729.24C2043.26,-721.9 2074.74,-708.26 2092,-684 2157.38,-592.09 2055.49,-523.1 2122,-432 2179.59,-353.12 2299.01,-322.8 2359.37,-312.17"/>
<polygon fill="black" stroke="black" points="2017.49,-725.9 2008.78,-731.93 2019.35,-732.65 2017.49,-725.9"/>
<polygon fill="black" stroke="black" points="2360.29,-315.57 2369.58,-310.47 2359.14,-308.66 2360.29,-315.57"/>
</g>
<!-- 10&#45;&gt;34 -->
<g id="edge109" class="edge">
<title>10&#45;&gt;34</title>
<path fill="none" stroke="black" d="M2014.18,-722.37C2029.14,-713.54 2045.61,-700.74 2054,-684 2061.17,-669.7 2054.64,-663.99 2054,-648 2051.78,-592.31 2044,-578.73 2044,-523 2044,-523 2044,-523 2044,-233 2044,-191.41 2059.4,-145.22 2070.6,-117.14"/>
<polygon fill="black" stroke="black" points="2012.21,-719.46 2005.14,-727.35 2015.59,-725.59 2012.21,-719.46"/>
<polygon fill="black" stroke="black" points="2073.93,-118.24 2074.49,-107.66 2067.45,-115.58 2073.93,-118.24"/>
</g>
<!-- 37 -->
<g id="node36" class="node">
<title>37</title>
<ellipse fill="none" stroke="black" cx="1153" cy="-18" rx="27" ry="18"/>
<text text-anchor="middle" x="1153" y="-14.3" font-family="Times,serif" font-size="14.00">37</text>
</g>
<!-- 10&#45;&gt;37 -->
<g id="edge110" class="edge">
<title>10&#45;&gt;37</title>
<path fill="none" stroke="black" d="M1986.66,-709.93C1987.62,-701.62 1988.52,-692.45 1989,-684 1989.9,-668.03 1989.49,-663.99 1989,-648 1984.33,-496.23 1968,-458.84 1968,-307 1968,-307 1968,-307 1968,-161 1968,-80.97 1350.25,-32.66 1190.4,-21.5"/>
<polygon fill="black" stroke="black" points="1983.19,-709.5 1985.44,-719.86 1990.13,-710.36 1983.19,-709.5"/>
<polygon fill="black" stroke="black" points="1190.33,-17.98 1180.12,-20.79 1189.85,-24.97 1190.33,-17.98"/>
</g>
<!-- 10&#45;&gt;29 -->
<g id="edge106" class="edge">
<title>10&#45;&gt;29</title>
<path fill="none" stroke="black" d="M1974.47,-710.39C1947.29,-630.42 1854.48,-391.4 1686,-288 1502.74,-175.53 1233.61,-163.13 1135.52,-162.57"/>
<polygon fill="black" stroke="black" points="1971.25,-711.8 1977.74,-720.18 1977.89,-709.58 1971.25,-711.8"/>
<polygon fill="black" stroke="black" points="1135.23,-159.07 1125.23,-162.56 1135.22,-166.07 1135.23,-159.07"/>
</g>
<!-- 31 -->
<g id="node38" class="node">
<title>31</title>
<ellipse fill="none" stroke="black" cx="957" cy="-90" rx="27" ry="18"/>
<text text-anchor="middle" x="957" y="-86.3" font-family="Times,serif" font-size="14.00">31</text>
</g>
<!-- 10&#45;&gt;31 -->
<g id="edge107" class="edge">
<title>10&#45;&gt;31</title>
<path fill="none" stroke="black" d="M1981.66,-709.99C1980.28,-692.14 1977.53,-668.38 1972,-648 1962.88,-614.37 1955.69,-607.59 1941,-576 1873.45,-430.67 1856.18,-378.63 1724,-288 1482.65,-122.51 1112.39,-96.03 994.45,-91.8"/>
<polygon fill="black" stroke="black" points="1978.17,-710.25 1982.33,-719.99 1985.15,-709.78 1978.17,-710.25"/>
<polygon fill="black" stroke="black" points="994.26,-88.29 984.15,-91.46 994.03,-95.29 994.26,-88.29"/>
</g>
<!-- 11&#45;&gt;13 -->
<g id="edge111" class="edge">
<title>11&#45;&gt;13</title>
<path fill="none" stroke="black" d="M1151.84,-661.84C1237.58,-654.36 1457.14,-634.5 1640,-612 1667.21,-608.65 1697.87,-604.17 1720.97,-600.65"/>
<polygon fill="black" stroke="black" points="1151.48,-658.36 1141.82,-662.71 1152.08,-665.33 1151.48,-658.36"/>
<polygon fill="black" stroke="black" points="1721.67,-604.08 1731.02,-599.11 1720.61,-597.17 1721.67,-604.08"/>
</g>
<!-- 11&#45;&gt;17 -->
<g id="edge112" class="edge">
<title>11&#45;&gt;17</title>
<path fill="none" stroke="black" d="M1151.88,-662.03C1196.61,-658.48 1274.31,-652.45 1341,-648 1680.08,-625.37 2090.61,-603.41 2214.13,-596.92"/>
<polygon fill="black" stroke="black" points="1151.47,-658.56 1141.78,-662.84 1152.02,-665.53 1151.47,-658.56"/>
<polygon fill="black" stroke="black" points="2214.39,-600.41 2224.19,-596.4 2214.02,-593.42 2214.39,-600.41"/>
</g>
<!-- 11&#45;&gt;18 -->
<g id="edge113" class="edge">
<title>11&#45;&gt;18</title>
<path fill="none" stroke="black" d="M1124.89,-638.99C1134.57,-613.53 1149.26,-574.92 1158.98,-549.34"/>
<polygon fill="black" stroke="black" points="1121.58,-637.84 1121.3,-648.43 1128.13,-640.33 1121.58,-637.84"/>
<polygon fill="black" stroke="black" points="1162.29,-550.49 1162.57,-539.9 1155.75,-548 1162.29,-550.49"/>
</g>
<!-- 11&#45;&gt;21 -->
<g id="edge114" class="edge">
<title>11&#45;&gt;21</title>
<path fill="none" stroke="black" d="M1078.28,-662.3C967.89,-652.72 632.56,-612.68 404,-468 377.1,-450.97 353.11,-423.15 337.92,-403.14"/>
<polygon fill="black" stroke="black" points="1077.99,-665.79 1088.25,-663.14 1078.58,-658.82 1077.99,-665.79"/>
<polygon fill="black" stroke="black" points="340.54,-400.79 331.78,-394.83 334.91,-404.96 340.54,-400.79"/>
</g>
<!-- 11&#45;&gt;25 -->
<g id="edge116" class="edge">
<title>11&#45;&gt;25</title>
<path fill="none" stroke="black" d="M1107.51,-638.36C1097.29,-600.74 1079.29,-529.75 1071,-468 1061.06,-394 1059.73,-305.73 1059.77,-262.13"/>
<polygon fill="black" stroke="black" points="1104.15,-639.34 1110.17,-648.05 1110.9,-637.48 1104.15,-639.34"/>
<polygon fill="black" stroke="black" points="1063.27,-262.06 1059.8,-252.05 1056.27,-262.04 1063.27,-262.06"/>
</g>
<!-- 11&#45;&gt;27 -->
<g id="edge117" class="edge">
<title>11&#45;&gt;27</title>
<path fill="none" stroke="black" d="M1150.54,-657.71C1310.45,-624.9 1962.33,-491.15 2122.39,-458.31"/>
<polygon fill="black" stroke="black" points="1149.62,-654.32 1140.52,-659.76 1151.02,-661.18 1149.62,-654.32"/>
<polygon fill="black" stroke="black" points="2123.54,-461.64 2132.63,-456.21 2122.13,-454.79 2123.54,-461.64"/>
</g>
<!-- 11&#45;&gt;28 -->
<g id="edge118" class="edge">
<title>11&#45;&gt;28</title>
<path fill="none" stroke="black" d="M1079.31,-657.73C1020.5,-645.56 908.09,-621.49 892,-612 771.41,-540.87 680,-519.01 680,-379 680,-379 680,-379 680,-305 680,-245.27 616.55,-200.31 577.3,-178.21"/>
<polygon fill="black" stroke="black" points="1078.79,-661.19 1089.29,-659.78 1080.21,-654.34 1078.79,-661.19"/>
<polygon fill="black" stroke="black" points="578.82,-175.05 568.37,-173.34 575.47,-181.2 578.82,-175.05"/>
</g>
<!-- 11&#45;&gt;24 -->
<g id="edge115" class="edge">
<title>11&#45;&gt;24</title>
<path fill="none" stroke="black" d="M1080.07,-656.48C1030.26,-644.09 943.53,-621.54 932,-612 840.7,-536.45 797.56,-393.4 782.97,-333.95"/>
<polygon fill="black" stroke="black" points="1079.26,-659.88 1089.81,-658.89 1080.94,-653.09 1079.26,-659.88"/>
<polygon fill="black" stroke="black" points="786.37,-333.1 780.65,-324.18 779.56,-334.72 786.37,-333.1"/>
</g>
<!-- 11&#45;&gt;37 -->
<g id="edge120" class="edge">
<title>11&#45;&gt;37</title>
<path fill="none" stroke="black" d="M1092.11,-643.89C1031.23,-585.35 870,-413.43 870,-235 870,-235 870,-235 870,-161 870,-115.41 884.37,-99.14 921,-72 979.15,-28.93 1066.33,-19.99 1115.59,-18.63"/>
<polygon fill="black" stroke="black" points="1090.01,-646.73 1099.67,-651.08 1094.84,-641.66 1090.01,-646.73"/>
<polygon fill="black" stroke="black" points="1115.87,-22.13 1125.8,-18.45 1115.74,-15.13 1115.87,-22.13"/>
</g>
<!-- 11&#45;&gt;31 -->
<g id="edge119" class="edge">
<title>11&#45;&gt;31</title>
<path fill="none" stroke="black" d="M1079.94,-657.16C1055.6,-649.79 1024.67,-636.14 1008,-612 898.68,-453.65 935.3,-200.87 951.24,-118.16"/>
<polygon fill="black" stroke="black" points="1078.99,-660.53 1089.56,-659.87 1080.88,-653.8 1078.99,-660.53"/>
<polygon fill="black" stroke="black" points="954.68,-118.77 953.2,-108.28 947.82,-117.41 954.68,-118.77"/>
</g>
<!-- 12&#45;&gt;20 -->
<g id="edge121" class="edge">
<title>12&#45;&gt;20</title>
<path fill="none" stroke="black" d="M2687.21,-722.63C2713.52,-710.51 2750.96,-693.27 2777.16,-681.2"/>
<polygon fill="black" stroke="black" points="2685.4,-719.61 2677.78,-726.97 2688.33,-725.97 2685.4,-719.61"/>
<polygon fill="black" stroke="black" points="2778.64,-684.37 2786.26,-677.01 2775.72,-678.01 2778.64,-684.37"/>
</g>
<!-- 12&#45;&gt;26 -->
<g id="edge122" class="edge">
<title>12&#45;&gt;26</title>
<path fill="none" stroke="black" d="M2647.69,-710.09C2636.69,-676.84 2615.2,-619.33 2586,-576 2578.04,-564.19 2567.27,-552.7 2557.59,-543.46"/>
<polygon fill="black" stroke="black" points="2644.49,-711.55 2650.89,-719.99 2651.15,-709.4 2644.49,-711.55"/>
<polygon fill="black" stroke="black" points="2559.86,-540.79 2550.14,-536.57 2555.1,-545.93 2559.86,-540.79"/>
</g>
<!-- 12&#45;&gt;33 -->
<g id="edge123" class="edge">
<title>12&#45;&gt;33</title>
<path fill="none" stroke="black" d="M2663.56,-710.11C2677.81,-653.5 2702.4,-520 2646,-432 2597.56,-356.42 2488.59,-324.8 2431.86,-313.07"/>
<polygon fill="black" stroke="black" points="2660.1,-709.51 2660.96,-720.07 2666.88,-711.28 2660.1,-709.51"/>
<polygon fill="black" stroke="black" points="2432.39,-309.61 2421.9,-311.11 2431.03,-316.48 2432.39,-309.61"/>
</g>
<!-- 13&#45;&gt;18 -->
<g id="edge124" class="edge">
<title>13&#45;&gt;18</title>
<path fill="none" stroke="black" d="M1720.41,-588.64C1614.9,-576.08 1310.84,-539.89 1205.47,-527.34"/>
<polygon fill="black" stroke="black" points="1720.25,-592.15 1730.59,-589.86 1721.08,-585.2 1720.25,-592.15"/>
<polygon fill="black" stroke="black" points="1205.68,-523.84 1195.33,-526.14 1204.85,-530.79 1205.68,-523.84"/>
</g>
<!-- 13&#45;&gt;27 -->
<g id="edge125" class="edge">
<title>13&#45;&gt;27</title>
<path fill="none" stroke="black" d="M1793.12,-587.22C1838.22,-579.38 1917.29,-563.6 1982,-540 2036.4,-520.16 2095.72,-487.7 2129.73,-467.94"/>
<polygon fill="black" stroke="black" points="1792.5,-583.77 1783.23,-588.9 1793.67,-590.67 1792.5,-583.77"/>
<polygon fill="black" stroke="black" points="2131.77,-470.81 2138.63,-462.73 2128.23,-464.77 2131.77,-470.81"/>
</g>
<!-- 13&#45;&gt;28 -->
<g id="edge126" class="edge">
<title>13&#45;&gt;28</title>
<path fill="none" stroke="black" d="M1741.83,-568.37C1736.59,-559.54 1730.84,-549.43 1726,-540 1669.05,-428.92 1704.08,-359.84 1602,-288 1516.82,-228.05 760.57,-176.58 583.83,-165.29"/>
<polygon fill="black" stroke="black" points="1738.88,-570.25 1747.03,-577.02 1744.88,-566.65 1738.88,-570.25"/>
<polygon fill="black" stroke="black" points="583.93,-161.79 573.73,-164.65 583.49,-168.78 583.93,-161.79"/>
</g>
<!-- 13&#45;&gt;37 -->
<g id="edge127" class="edge">
<title>13&#45;&gt;37</title>
<path fill="none" stroke="black" d="M1762.77,-566.02C1771.01,-521.29 1782.27,-429.8 1754,-360 1737.48,-319.2 1721.29,-314.31 1686,-288 1514.35,-160.02 1272.67,-63.43 1185.74,-30.9"/>
<polygon fill="black" stroke="black" points="1759.28,-565.61 1760.81,-576.09 1766.15,-566.94 1759.28,-565.61"/>
<polygon fill="black" stroke="black" points="1186.75,-27.54 1176.16,-27.34 1184.31,-34.1 1186.75,-27.54"/>
</g>
<!-- 14&#45;&gt;21 -->
<g id="edge128" class="edge">
<title>14&#45;&gt;21</title>
<path fill="none" stroke="black" d="M267.97,-427.84C277.5,-419.06 288.54,-408.9 298.06,-400.13"/>
<polygon fill="black" stroke="black" points="265.36,-425.49 260.38,-434.83 270.11,-430.63 265.36,-425.49"/>
<polygon fill="black" stroke="black" points="300.66,-402.49 305.64,-393.14 295.92,-397.34 300.66,-402.49"/>
</g>
<!-- 14&#45;&gt;25 -->
<g id="edge129" class="edge">
<title>14&#45;&gt;25</title>
<path fill="none" stroke="black" d="M250.95,-421.87C256.59,-402.17 266.97,-376.24 285,-360 361.14,-291.44 403.71,-308.99 504,-288 696.43,-247.72 932.82,-238 1022.83,-235.7"/>
<polygon fill="black" stroke="black" points="247.5,-421.23 248.35,-431.79 254.27,-423 247.5,-421.23"/>
<polygon fill="black" stroke="black" points="1023.15,-239.19 1033.06,-235.45 1022.98,-232.19 1023.15,-239.19"/>
</g>
<!-- 15&#45;&gt;16 -->
<g id="edge130" class="edge">
<title>15&#45;&gt;16</title>
<path fill="none" stroke="black" d="M1349.24,-647.34C1332.55,-636.71 1311.37,-623.24 1294.69,-612.62"/>
<polygon fill="black" stroke="black" points="1347.52,-650.39 1357.84,-652.81 1351.28,-644.49 1347.52,-650.39"/>
<polygon fill="black" stroke="black" points="1296.26,-609.47 1285.94,-607.05 1292.5,-615.37 1296.26,-609.47"/>
</g>
<!-- 15&#45;&gt;22 -->
<g id="edge131" class="edge">
<title>15&#45;&gt;22</title>
<path fill="none" stroke="black" d="M1378.53,-637.89C1379.83,-591.91 1376.8,-497.3 1336,-432 1325.9,-415.83 1308.9,-403.06 1293.84,-394.1"/>
<polygon fill="black" stroke="black" points="1375.03,-637.84 1378.15,-647.97 1382.03,-638.11 1375.03,-637.84"/>
<polygon fill="black" stroke="black" points="1295.23,-390.87 1284.8,-389.02 1291.8,-396.97 1295.23,-390.87"/>
</g>
<!-- 15&#45;&gt;23 -->
<g id="edge132" class="edge">
<title>15&#45;&gt;23</title>
<path fill="none" stroke="black" d="M1383.38,-638.1C1389.56,-609.67 1398,-563.44 1398,-523 1398,-523 1398,-523 1398,-449 1398,-378.42 1310.71,-336.21 1260.87,-317.86"/>
<polygon fill="black" stroke="black" points="1379.92,-637.55 1381.15,-648.07 1386.75,-639.08 1379.92,-637.55"/>
<polygon fill="black" stroke="black" points="1261.73,-314.45 1251.14,-314.4 1259.39,-321.05 1261.73,-314.45"/>
</g>
<!-- 15&#45;&gt;25 -->
<g id="edge133" class="edge">
<title>15&#45;&gt;25</title>
<path fill="none" stroke="black" d="M1392.72,-640.26C1397.47,-631.63 1402.17,-621.68 1405,-612 1436.65,-503.8 1451.48,-443.74 1376,-360 1288.08,-262.46 1226.22,-291.54 1101,-252 1097.84,-251 1094.59,-249.86 1091.36,-248.65"/>
<polygon fill="black" stroke="black" points="1389.62,-638.62 1387.63,-649.02 1395.68,-642.13 1389.62,-638.62"/>
<polygon fill="black" stroke="black" points="1092.45,-245.32 1081.87,-244.89 1089.88,-251.83 1092.45,-245.32"/>
</g>
<!-- 16&#45;&gt;18 -->
<g id="edge134" class="edge">
<title>16&#45;&gt;18</title>
<path fill="none" stroke="black" d="M1240.61,-574.15C1226.5,-564.07 1209.2,-551.72 1195.14,-541.67"/>
<polygon fill="black" stroke="black" points="1238.85,-577.2 1249.03,-580.16 1242.92,-571.5 1238.85,-577.2"/>
<polygon fill="black" stroke="black" points="1197.03,-538.72 1186.86,-535.76 1192.96,-544.42 1197.03,-538.72"/>
</g>
<!-- 16&#45;&gt;22 -->
<g id="edge135" class="edge">
<title>16&#45;&gt;22</title>
<path fill="none" stroke="black" d="M1266.49,-565.71C1265.72,-524.65 1264.28,-447.42 1263.51,-406.33"/>
<polygon fill="black" stroke="black" points="1262.99,-565.92 1266.68,-575.85 1269.99,-565.79 1262.99,-565.92"/>
<polygon fill="black" stroke="black" points="1267.01,-406.17 1263.32,-396.23 1260.01,-406.3 1267.01,-406.17"/>
</g>
<!-- 16&#45;&gt;33 -->
<g id="edge136" class="edge">
<title>16&#45;&gt;33</title>
<path fill="none" stroke="black" d="M1295.87,-576.41C1374.24,-532.29 1598.72,-411.88 1802,-360 2007.27,-307.62 2263.88,-305.11 2358.62,-306.22"/>
<polygon fill="black" stroke="black" points="1294.03,-573.43 1287.05,-581.4 1297.48,-579.52 1294.03,-573.43"/>
<polygon fill="black" stroke="black" points="2358.79,-309.72 2368.84,-306.36 2358.89,-302.72 2358.79,-309.72"/>
</g>
<!-- 17&#45;&gt;22 -->
<g id="edge137" class="edge">
<title>17&#45;&gt;22</title>
<path fill="none" stroke="black" d="M2215.48,-585.31C2061.36,-551.92 1451.33,-419.79 1298.08,-386.6"/>
<polygon fill="black" stroke="black" points="2215.07,-588.8 2225.58,-587.5 2216.55,-581.96 2215.07,-588.8"/>
<polygon fill="black" stroke="black" points="1298.76,-383.16 1288.25,-384.47 1297.28,-390.01 1298.76,-383.16"/>
</g>
<!-- 17&#45;&gt;26 -->
<g id="edge138" class="edge">
<title>17&#45;&gt;26</title>
<path fill="none" stroke="black" d="M2285.9,-584.37C2340.3,-570.91 2444.67,-545.1 2499.07,-531.64"/>
<polygon fill="black" stroke="black" points="2284.98,-580.99 2276.11,-586.79 2286.66,-587.78 2284.98,-580.99"/>
<polygon fill="black" stroke="black" points="2500.07,-535 2508.94,-529.2 2498.39,-528.2 2500.07,-535"/>
</g>
<!-- 17&#45;&gt;33 -->
<g id="edge139" class="edge">
<title>17&#45;&gt;33</title>
<path fill="none" stroke="black" d="M2263.84,-567.68C2291.34,-513.44 2355.66,-386.57 2383.16,-332.33"/>
<polygon fill="black" stroke="black" points="2260.61,-566.3 2259.21,-576.8 2266.86,-569.47 2260.61,-566.3"/>
<polygon fill="black" stroke="black" points="2386.3,-333.87 2387.7,-323.37 2380.06,-330.71 2386.3,-333.87"/>
</g>
<!-- 18&#45;&gt;19 -->
<g id="edge140" class="edge">
<title>18&#45;&gt;19</title>
<path fill="none" stroke="black" d="M1132,-517.28C1011.39,-505.15 630.52,-466.84 509.97,-454.72"/>
<polygon fill="black" stroke="black" points="1131.84,-520.78 1142.14,-518.3 1132.54,-513.82 1131.84,-520.78"/>
<polygon fill="black" stroke="black" points="510.08,-451.21 499.78,-453.69 509.38,-458.18 510.08,-451.21"/>
</g>
<!-- 18&#45;&gt;22 -->
<g id="edge141" class="edge">
<title>18&#45;&gt;22</title>
<path fill="none" stroke="black" d="M1192.94,-500.52C1202.79,-491.28 1213.78,-479.79 1222,-468 1235.62,-448.45 1246.61,-423.65 1253.77,-405.2"/>
<polygon fill="black" stroke="black" points="1190.41,-498.1 1185.37,-507.42 1195.12,-503.28 1190.41,-498.1"/>
<polygon fill="black" stroke="black" points="1257.11,-406.27 1257.35,-395.67 1250.56,-403.81 1257.11,-406.27"/>
</g>
<!-- 18&#45;&gt;23 -->
<g id="edge142" class="edge">
<title>18&#45;&gt;23</title>
<path fill="none" stroke="black" d="M1176.22,-494.38C1187.34,-453.34 1208.55,-375.07 1219.72,-333.88"/>
<polygon fill="black" stroke="black" points="1172.79,-493.64 1173.55,-504.21 1179.55,-495.47 1172.79,-493.64"/>
<polygon fill="black" stroke="black" points="1223.15,-334.58 1222.39,-324.01 1216.4,-332.75 1223.15,-334.58"/>
</g>
<!-- 18&#45;&gt;25 -->
<g id="edge143" class="edge">
<title>18&#45;&gt;25</title>
<path fill="none" stroke="black" d="M1135.24,-510.19C1115.48,-501.96 1092.1,-488.49 1080,-468 1069.82,-450.77 1076.91,-307.8 1074,-288 1072.72,-279.3 1070.54,-269.97 1068.28,-261.6"/>
<polygon fill="black" stroke="black" points="1133.99,-513.46 1144.58,-513.82 1136.52,-506.94 1133.99,-513.46"/>
<polygon fill="black" stroke="black" points="1071.64,-260.64 1065.53,-251.98 1064.91,-262.56 1071.64,-260.64"/>
</g>
<!-- 18&#45;&gt;28 -->
<g id="edge144" class="edge">
<title>18&#45;&gt;28</title>
<path fill="none" stroke="black" d="M1138.97,-505.7C1119.36,-495.48 1093.34,-481.48 1071,-468 972.53,-408.58 948,-393.01 856,-324 836.06,-309.04 833.28,-302.49 813,-288 762.71,-252.05 749.79,-242.61 694,-216 656.49,-198.11 611.24,-182.65 580.94,-173.12"/>
<polygon fill="black" stroke="black" points="1137.54,-508.9 1148.03,-510.39 1140.76,-502.68 1137.54,-508.9"/>
<polygon fill="black" stroke="black" points="581.86,-169.74 571.27,-170.12 579.78,-176.43 581.86,-169.74"/>
</g>
<!-- 18&#45;&gt;37 -->
<g id="edge145" class="edge">
<title>18&#45;&gt;37</title>
<path fill="none" stroke="black" d="M1168.13,-493.62C1165.34,-406.12 1156.66,-133.91 1153.87,-46.39"/>
<polygon fill="black" stroke="black" points="1164.63,-493.84 1168.45,-503.72 1171.63,-493.61 1164.63,-493.84"/>
<polygon fill="black" stroke="black" points="1157.37,-46.09 1153.55,-36.21 1150.37,-46.31 1157.37,-46.09"/>
</g>
<!-- 19&#45;&gt;21 -->
<g id="edge146" class="edge">
<title>19&#45;&gt;21</title>
<path fill="none" stroke="black" d="M441.79,-434.63C415.48,-422.51 378.04,-405.27 351.84,-393.2"/>
<polygon fill="black" stroke="black" points="440.67,-437.97 451.22,-438.97 443.6,-431.61 440.67,-437.97"/>
<polygon fill="black" stroke="black" points="353.28,-390.01 342.74,-389.01 350.36,-396.37 353.28,-390.01"/>
</g>
<!-- 19&#45;&gt;22 -->
<g id="edge147" class="edge">
<title>19&#45;&gt;22</title>
<path fill="none" stroke="black" d="M510.07,-445.72C642.86,-433.95 1093.92,-393.98 1226.23,-382.26"/>
<polygon fill="black" stroke="black" points="509.39,-442.26 499.74,-446.63 510.01,-449.23 509.39,-442.26"/>
<polygon fill="black" stroke="black" points="1226.62,-385.74 1236.27,-381.37 1226,-378.76 1226.62,-385.74"/>
</g>
<!-- 19&#45;&gt;23 -->
<g id="edge148" class="edge">
<title>19&#45;&gt;23</title>
<path fill="none" stroke="black" d="M508.86,-442.25C635.95,-418.31 1064.11,-337.68 1191.17,-313.75"/>
<polygon fill="black" stroke="black" points="508.13,-438.82 498.95,-444.11 509.43,-445.7 508.13,-438.82"/>
<polygon fill="black" stroke="black" points="1191.98,-317.16 1201.15,-311.87 1190.68,-310.28 1191.98,-317.16"/>
</g>
<!-- 19&#45;&gt;25 -->
<g id="edge150" class="edge">
<title>19&#45;&gt;25</title>
<path fill="none" stroke="black" d="M490.81,-425.62C506.83,-405.9 531.97,-378.09 559,-360 709.71,-259.17 935.05,-239.64 1022.98,-235.88"/>
<polygon fill="black" stroke="black" points="488.01,-423.51 484.52,-433.52 493.48,-427.87 488.01,-423.51"/>
<polygon fill="black" stroke="black" points="1023.15,-239.38 1033.01,-235.5 1022.88,-232.38 1023.15,-239.38"/>
</g>
<!-- 19&#45;&gt;28 -->
<g id="edge151" class="edge">
<title>19&#45;&gt;28</title>
<path fill="none" stroke="black" d="M479.98,-422.04C494.1,-367.45 525.93,-244.43 540.04,-189.9"/>
<polygon fill="black" stroke="black" points="476.52,-421.41 477.41,-431.97 483.3,-423.16 476.52,-421.41"/>
<polygon fill="black" stroke="black" points="543.5,-190.5 542.62,-179.94 536.72,-188.75 543.5,-190.5"/>
</g>
<!-- 19&#45;&gt;35 -->
<g id="edge152" class="edge">
<title>19&#45;&gt;35</title>
<path fill="none" stroke="black" d="M442.71,-433.54C427.81,-424.49 410.77,-411.73 400,-396 368.53,-350.04 337.13,-184.17 325.61,-118.27"/>
<polygon fill="black" stroke="black" points="441.23,-436.72 451.64,-438.69 444.73,-430.66 441.23,-436.72"/>
<polygon fill="black" stroke="black" points="329.03,-117.49 323.87,-108.23 322.13,-118.68 329.03,-117.49"/>
</g>
<!-- 19&#45;&gt;36 -->
<g id="edge153" class="edge">
<title>19&#45;&gt;36</title>
<path fill="none" stroke="black" d="M468.72,-421.96C456.5,-344.69 421.52,-123.46 409.29,-46.1"/>
<polygon fill="black" stroke="black" points="465.27,-422.55 470.29,-431.88 472.19,-421.45 465.27,-422.55"/>
<polygon fill="black" stroke="black" points="412.73,-45.5 407.72,-36.17 405.82,-46.59 412.73,-45.5"/>
</g>
<!-- 19&#45;&gt;24 -->
<g id="edge149" class="edge">
<title>19&#45;&gt;24</title>
<path fill="none" stroke="black" d="M500.74,-431.04C531.14,-411.83 581.77,-381.29 628,-360 666.32,-342.36 712.31,-326.8 742.96,-317.18"/>
<polygon fill="black" stroke="black" points="498.54,-428.29 491.98,-436.61 502.3,-434.19 498.54,-428.29"/>
<polygon fill="black" stroke="black" points="744.22,-320.46 752.73,-314.15 742.15,-313.77 744.22,-320.46"/>
</g>
<!-- 20&#45;&gt;25 -->
<g id="edge154" class="edge">
<title>20&#45;&gt;25</title>
<path fill="none" stroke="black" d="M2834.51,-646.14C2846.37,-636.8 2859.92,-624.8 2870,-612 2919.7,-548.92 2952,-531.3 2952,-451 2952,-451 2952,-451 2952,-377 2952,-142.53 2665.2,-312.36 2432,-288 1904.75,-232.94 1258.16,-233.54 1097.47,-234.65"/>
<polygon fill="black" stroke="black" points="2832.08,-643.59 2826.25,-652.43 2836.33,-649.15 2832.08,-643.59"/>
<polygon fill="black" stroke="black" points="1097.15,-231.16 1087.17,-234.73 1097.2,-238.16 1097.15,-231.16"/>
</g>
<!-- 20&#45;&gt;26 -->
<g id="edge155" class="edge">
<title>20&#45;&gt;26</title>
<path fill="none" stroke="black" d="M2777.72,-650.09C2758.01,-640.04 2731.98,-626.07 2710,-612 2687.54,-597.62 2685.17,-589.2 2662,-576 2631.43,-558.57 2593.99,-543.76 2567.52,-534.26"/>
<polygon fill="black" stroke="black" points="2776.34,-653.32 2786.84,-654.7 2779.49,-647.07 2776.34,-653.32"/>
<polygon fill="black" stroke="black" points="2568.55,-530.91 2557.95,-530.88 2566.22,-537.51 2568.55,-530.91"/>
</g>
<!-- 20&#45;&gt;33 -->
<g id="edge156" class="edge">
<title>20&#45;&gt;33</title>
<path fill="none" stroke="black" d="M2826.97,-641.96C2847.09,-615.13 2876,-568.63 2876,-523 2876,-523 2876,-523 2876,-449 2876,-389.5 2830.01,-384.96 2776,-360 2715.26,-331.93 2515.81,-315.27 2432.78,-309.41"/>
<polygon fill="black" stroke="black" points="2824.13,-639.91 2820.79,-649.96 2829.67,-644.19 2824.13,-639.91"/>
<polygon fill="black" stroke="black" points="2433.01,-305.91 2422.79,-308.71 2432.52,-312.9 2433.01,-305.91"/>
</g>
<!-- 20&#45;&gt;36 -->
<g id="edge157" class="edge">
<title>20&#45;&gt;36</title>
<path fill="none" stroke="black" d="M2843.43,-657.18C2922,-637.54 3104,-578.29 3104,-451 3104,-451 3104,-451 3104,-161 3104,-120.03 3112.29,-97.21 3080,-72 3037.01,-38.44 1171.52,-37.15 1117,-36 858.85,-30.55 548.08,-22.68 442.32,-19.96"/>
<polygon fill="black" stroke="black" points="2842.39,-653.83 2833.49,-659.59 2844.04,-660.64 2842.39,-653.83"/>
<polygon fill="black" stroke="black" points="442.25,-16.46 432.16,-19.7 442.07,-23.46 442.25,-16.46"/>
</g>
<!-- 21&#45;&gt;25 -->
<g id="edge158" class="edge">
<title>21&#45;&gt;25</title>
<path fill="none" stroke="black" d="M357.01,-370.58C394.98,-362.92 455.84,-348.02 504,-324 527.86,-312.1 527.17,-297.74 552,-288 638.01,-254.27 920.57,-240.34 1022.73,-236.32"/>
<polygon fill="black" stroke="black" points="356.08,-367.2 346.94,-372.56 357.43,-374.07 356.08,-367.2"/>
<polygon fill="black" stroke="black" points="1023.02,-239.81 1032.88,-235.93 1022.75,-232.81 1023.02,-239.81"/>
</g>
<!-- 21&#45;&gt;28 -->
<g id="edge159" class="edge">
<title>21&#45;&gt;28</title>
<path fill="none" stroke="black" d="M340.57,-354.45C368.98,-322.25 423.96,-261.9 476,-216 489.91,-203.73 506.47,-191.26 520.1,-181.5"/>
<polygon fill="black" stroke="black" points="337.91,-352.18 333.94,-362.01 343.17,-356.8 337.91,-352.18"/>
<polygon fill="black" stroke="black" points="522.43,-184.14 528.57,-175.51 518.38,-178.42 522.43,-184.14"/>
</g>
<!-- 21&#45;&gt;35 -->
<g id="edge160" class="edge">
<title>21&#45;&gt;35</title>
<path fill="none" stroke="black" d="M321,-349.7C321,-295.19 321,-173.41 321,-118.63"/>
<polygon fill="black" stroke="black" points="317.5,-349.97 321,-359.97 324.5,-349.97 317.5,-349.97"/>
<polygon fill="black" stroke="black" points="324.5,-118.31 321,-108.31 317.5,-118.31 324.5,-118.31"/>
</g>
<!-- 21&#45;&gt;36 -->
<g id="edge161" class="edge">
<title>21&#45;&gt;36</title>
<path fill="none" stroke="black" d="M290.56,-362.09C250.75,-340.19 186,-295.31 186,-235 186,-235 186,-235 186,-161 186,-74.9 306.64,-38.38 368.84,-25.28"/>
<polygon fill="black" stroke="black" points="289.14,-365.29 299.61,-366.91 292.43,-359.11 289.14,-365.29"/>
<polygon fill="black" stroke="black" points="369.9,-28.64 379.02,-23.23 368.52,-21.77 369.9,-28.64"/>
</g>
<!-- 22&#45;&gt;23 -->
<g id="edge162" class="edge">
<title>22&#45;&gt;23</title>
<path fill="none" stroke="black" d="M1249.99,-351.7C1246.7,-345.3 1243.17,-338.44 1239.88,-332.05"/>
<polygon fill="black" stroke="black" points="1246.96,-353.47 1254.65,-360.76 1253.19,-350.27 1246.96,-353.47"/>
<polygon fill="black" stroke="black" points="1242.99,-330.44 1235.3,-323.15 1236.77,-333.64 1242.99,-330.44"/>
</g>
<!-- 22&#45;&gt;33 -->
<g id="edge164" class="edge">
<title>22&#45;&gt;33</title>
<path fill="none" stroke="black" d="M1299.88,-374.72C1471.04,-364.15 2186.93,-319.92 2358.79,-309.3"/>
<polygon fill="black" stroke="black" points="1299.65,-371.23 1289.89,-375.34 1300.09,-378.22 1299.65,-371.23"/>
<polygon fill="black" stroke="black" points="2359.09,-312.79 2368.86,-308.68 2358.66,-305.8 2359.09,-312.79"/>
</g>
<!-- 22&#45;&gt;24 -->
<g id="edge163" class="edge">
<title>22&#45;&gt;24</title>
<path fill="none" stroke="black" d="M1226.75,-371.78C1136.66,-358.8 903.39,-325.2 813.27,-312.22"/>
<polygon fill="black" stroke="black" points="1226.47,-375.28 1236.87,-373.24 1227.47,-368.35 1226.47,-375.28"/>
<polygon fill="black" stroke="black" points="813.66,-308.74 803.26,-310.78 812.66,-315.67 813.66,-308.74"/>
</g>
<!-- 23&#45;&gt;25 -->
<g id="edge165" class="edge">
<title>23&#45;&gt;25</title>
<path fill="none" stroke="black" d="M1195.18,-291.66C1165.48,-279.21 1121.41,-260.74 1091.74,-248.3"/>
<polygon fill="black" stroke="black" points="1194.25,-295.07 1204.82,-295.7 1196.95,-288.61 1194.25,-295.07"/>
<polygon fill="black" stroke="black" points="1092.84,-244.97 1082.27,-244.33 1090.14,-251.43 1092.84,-244.97"/>
</g>
<!-- 23&#45;&gt;35 -->
<g id="edge166" class="edge">
<title>23&#45;&gt;35</title>
<path fill="none" stroke="black" d="M1203.6,-284.36C1178.71,-263.61 1137.32,-232.42 1096,-216 957.89,-161.1 492.62,-109.02 357.86,-94.8"/>
<polygon fill="black" stroke="black" points="1201.49,-287.16 1211.38,-290.96 1206.02,-281.82 1201.49,-287.16"/>
<polygon fill="black" stroke="black" points="357.96,-91.29 347.65,-93.73 357.23,-98.25 357.96,-91.29"/>
</g>
<!-- 25&#45;&gt;28 -->
<g id="edge169" class="edge">
<title>25&#45;&gt;28</title>
<path fill="none" stroke="black" d="M1023.87,-228.07C929.74,-215.23 677.69,-180.83 583.33,-167.96"/>
<polygon fill="black" stroke="black" points="1023.47,-231.55 1033.85,-229.43 1024.42,-224.61 1023.47,-231.55"/>
<polygon fill="black" stroke="black" points="583.78,-164.49 573.4,-166.6 582.83,-171.42 583.78,-164.49"/>
</g>
<!-- 25&#45;&gt;34 -->
<g id="edge171" class="edge">
<title>25&#45;&gt;34</title>
<path fill="none" stroke="black" d="M1096.25,-227.96C1254.87,-205.92 1886.99,-118.09 2045.7,-96.04"/>
<polygon fill="black" stroke="black" points="1095.71,-224.5 1086.29,-229.35 1096.68,-231.44 1095.71,-224.5"/>
<polygon fill="black" stroke="black" points="2046.46,-99.47 2055.88,-94.63 2045.5,-92.54 2046.46,-99.47"/>
</g>
<!-- 25&#45;&gt;37 -->
<g id="edge172" class="edge">
<title>25&#45;&gt;37</title>
<path fill="none" stroke="black" d="M1056.48,-205.65C1055.16,-187.67 1055.33,-163.87 1062,-144 1075.9,-102.62 1108.86,-63.37 1131.06,-40.25"/>
<polygon fill="black" stroke="black" points="1053.01,-206.12 1057.42,-215.75 1059.98,-205.47 1053.01,-206.12"/>
<polygon fill="black" stroke="black" points="1133.62,-42.63 1138.13,-33.04 1128.62,-37.73 1133.62,-42.63"/>
</g>
<!-- 25&#45;&gt;29 -->
<g id="edge170" class="edge">
<title>25&#45;&gt;29</title>
<path fill="none" stroke="black" d="M1073.73,-207.7C1077.21,-201.3 1080.93,-194.44 1084.4,-188.05"/>
<polygon fill="black" stroke="black" points="1070.51,-206.31 1068.81,-216.76 1076.66,-209.65 1070.51,-206.31"/>
<polygon fill="black" stroke="black" points="1087.54,-189.61 1089.23,-179.15 1081.39,-186.27 1087.54,-189.61"/>
</g>
<!-- 26&#45;&gt;27 -->
<g id="edge173" class="edge">
<title>26&#45;&gt;27</title>
<path fill="none" stroke="black" d="M2498.21,-514.34C2426.47,-500.98 2265.84,-471.08 2193.96,-457.7"/>
<polygon fill="black" stroke="black" points="2497.68,-517.8 2508.16,-516.19 2498.97,-510.92 2497.68,-517.8"/>
<polygon fill="black" stroke="black" points="2194.5,-454.23 2184.02,-455.85 2193.22,-461.12 2194.5,-454.23"/>
</g>
<!-- 26&#45;&gt;33 -->
<g id="edge175" class="edge">
<title>26&#45;&gt;33</title>
<path fill="none" stroke="black" d="M2519.23,-496.09C2500.14,-464.17 2465.61,-407.32 2434,-360 2427.52,-350.3 2420.1,-339.82 2413.54,-330.76"/>
<polygon fill="black" stroke="black" points="2516.28,-497.98 2524.41,-504.78 2522.3,-494.4 2516.28,-497.98"/>
<polygon fill="black" stroke="black" points="2416.3,-328.6 2407.58,-322.58 2410.64,-332.72 2416.3,-328.6"/>
</g>
<!-- 26&#45;&gt;32 -->
<g id="edge174" class="edge">
<title>26&#45;&gt;32</title>
<path fill="none" stroke="black" d="M2556.97,-499.84C2566.5,-491.06 2577.54,-480.9 2587.06,-472.13"/>
<polygon fill="black" stroke="black" points="2554.36,-497.49 2549.38,-506.83 2559.11,-502.63 2554.36,-497.49"/>
<polygon fill="black" stroke="black" points="2589.66,-474.49 2594.64,-465.14 2584.92,-469.34 2589.66,-474.49"/>
</g>
<!-- 27&#45;&gt;34 -->
<g id="edge177" class="edge">
<title>27&#45;&gt;34</title>
<path fill="none" stroke="black" d="M2137.09,-426.69C2114.6,-400.26 2082,-353.88 2082,-307 2082,-307 2082,-307 2082,-233 2082,-193 2082,-146.65 2082,-118.08"/>
<polygon fill="black" stroke="black" points="2134.48,-429.02 2143.7,-434.23 2139.74,-424.4 2134.48,-429.02"/>
<polygon fill="black" stroke="black" points="2085.5,-118.05 2082,-108.05 2078.5,-118.05 2085.5,-118.05"/>
</g>
<!-- 27&#45;&gt;31 -->
<g id="edge176" class="edge">
<title>27&#45;&gt;31</title>
<path fill="none" stroke="black" d="M2132.46,-430.17C2119.47,-420.32 2103.59,-407.88 2090,-396 1968.83,-290.1 1977.62,-208.07 1830,-144 1752.56,-110.39 1150.85,-95.18 994.19,-91.76"/>
<polygon fill="black" stroke="black" points="2130.43,-433.02 2140.53,-436.23 2134.63,-427.43 2130.43,-433.02"/>
<polygon fill="black" stroke="black" points="994.18,-88.26 984.11,-91.55 994.03,-95.26 994.18,-88.26"/>
</g>
<!-- 28&#45;&gt;35 -->
<g id="edge179" class="edge">
<title>28&#45;&gt;35</title>
<path fill="none" stroke="black" d="M513.26,-150.55C470.53,-137.31 397.35,-114.65 354.66,-101.43"/>
<polygon fill="black" stroke="black" points="512.23,-153.89 522.81,-153.51 514.3,-147.21 512.23,-153.89"/>
<polygon fill="black" stroke="black" points="355.6,-98.05 345.01,-98.44 353.53,-104.74 355.6,-98.05"/>
</g>
<!-- 28&#45;&gt;36 -->
<g id="edge180" class="edge">
<title>28&#45;&gt;36</title>
<path fill="none" stroke="black" d="M525.3,-139.3C498.6,-112.6 453.52,-67.52 426.78,-40.78"/>
<polygon fill="black" stroke="black" points="523.06,-142.01 532.6,-146.6 528.01,-137.06 523.06,-142.01"/>
<polygon fill="black" stroke="black" points="428.98,-38.03 419.44,-33.44 424.03,-42.98 428.98,-38.03"/>
</g>
<!-- 28&#45;&gt;31 -->
<g id="edge178" class="edge">
<title>28&#45;&gt;31</title>
<path fill="none" stroke="black" d="M583.21,-154.82C660.99,-141.54 843.24,-110.42 920.91,-97.16"/>
<polygon fill="black" stroke="black" points="582.23,-151.43 572.96,-156.57 583.4,-158.34 582.23,-151.43"/>
<polygon fill="black" stroke="black" points="921.89,-100.55 931.16,-95.41 920.71,-93.65 921.89,-100.55"/>
</g>
<!-- 33&#45;&gt;34 -->
<g id="edge183" class="edge">
<title>33&#45;&gt;34</title>
<path fill="none" stroke="black" d="M2387.64,-278.25C2374.91,-242.09 2347.17,-178.2 2301,-144 2246.65,-103.73 2165.8,-93.68 2119.05,-91.4"/>
<polygon fill="black" stroke="black" points="2384.45,-279.75 2390.97,-288.09 2391.08,-277.5 2384.45,-279.75"/>
<polygon fill="black" stroke="black" points="2119.18,-87.9 2109.05,-91.01 2118.91,-94.9 2119.18,-87.9"/>
</g>
<!-- 34&#45;&gt;37 -->
<g id="edge184" class="edge">
<title>34&#45;&gt;37</title>
<path fill="none" stroke="black" d="M2046.19,-81.98C2027.18,-78.49 2003.4,-74.5 1982,-72 1677.44,-36.48 1306.95,-23.4 1190.12,-19.99"/>
<polygon fill="black" stroke="black" points="2045.73,-85.45 2056.21,-83.85 2047.02,-78.57 2045.73,-85.45"/>
<polygon fill="black" stroke="black" points="1190.03,-16.49 1179.93,-19.7 1189.83,-23.48 1190.03,-16.49"/>
</g>
<!-- 35&#45;&gt;36 -->
<g id="edge185" class="edge">
<title>35&#45;&gt;36</title>
<path fill="none" stroke="black" d="M345.02,-68.98C356.33,-59.56 369.78,-48.35 381.07,-38.94"/>
<polygon fill="black" stroke="black" points="342.64,-66.41 337.2,-75.5 347.12,-71.79 342.64,-66.41"/>
<polygon fill="black" stroke="black" points="383.41,-41.55 388.85,-32.46 378.93,-36.17 383.41,-41.55"/>
</g>
<!-- 24&#45;&gt;25 -->
<g id="edge167" class="edge">
<title>24&#45;&gt;25</title>
<path fill="none" stroke="black" d="M811.9,-296.37C866.3,-282.91 970.67,-257.1 1025.07,-243.64"/>
<polygon fill="black" stroke="black" points="810.98,-292.99 802.11,-298.79 812.66,-299.78 810.98,-292.99"/>
<polygon fill="black" stroke="black" points="1026.07,-247 1034.94,-241.2 1024.39,-240.2 1026.07,-247"/>
</g>
<!-- 24&#45;&gt;37 -->
<g id="edge168" class="edge">
<title>24&#45;&gt;37</title>
<path fill="none" stroke="black" d="M777.75,-277.53C780.67,-228.26 794.28,-125.08 856,-72 894.53,-38.87 1045.28,-25.51 1116,-20.99"/>
<polygon fill="black" stroke="black" points="774.24,-277.58 777.25,-287.74 781.23,-277.92 774.24,-277.58"/>
<polygon fill="black" stroke="black" points="1116.46,-24.47 1126.23,-20.36 1116.03,-17.48 1116.46,-24.47"/>
</g>
<!-- 5&#45;&gt;6 -->
<g id="edge53" class="edge">
<title>5&#45;&gt;6</title>
<path fill="none" stroke="black" d="M2598.26,-873.7C2662.96,-860.3 2799.95,-831.93 2865.11,-818.43"/>
<polygon fill="black" stroke="black" points="2597.49,-870.28 2588.4,-875.74 2598.91,-877.14 2597.49,-870.28"/>
<polygon fill="black" stroke="black" points="2866.22,-821.78 2875.3,-816.32 2864.8,-814.92 2866.22,-821.78"/>
</g>
<!-- 5&#45;&gt;9 -->
<g id="edge54" class="edge">
<title>5&#45;&gt;9</title>
<path fill="none" stroke="black" d="M2525.87,-879.84C2388.01,-875.35 1905.7,-857.82 1755,-828 1668.44,-810.87 1571.18,-772.96 1522.43,-752.58"/>
<polygon fill="black" stroke="black" points="2525.83,-883.34 2535.93,-880.17 2526.05,-876.35 2525.83,-883.34"/>
<polygon fill="black" stroke="black" points="1523.64,-749.29 1513.06,-748.63 1520.92,-755.74 1523.64,-749.29"/>
</g>
<!-- 5&#45;&gt;10 -->
<g id="edge55" class="edge">
<title>5&#45;&gt;10</title>
<path fill="none" stroke="black" d="M2527.38,-873.98C2480.03,-864.46 2393.85,-846.53 2321,-828 2265.38,-813.85 2252.42,-806.9 2197,-792 2134.17,-775.11 2060.43,-757.28 2017.96,-747.21"/>
<polygon fill="black" stroke="black" points="2526.94,-877.46 2537.43,-875.99 2528.31,-870.59 2526.94,-877.46"/>
<polygon fill="black" stroke="black" points="2018.66,-743.78 2008.12,-744.88 2017.05,-750.59 2018.66,-743.78"/>
</g>
<!-- 5&#45;&gt;11 -->
<g id="edge56" class="edge">
<title>5&#45;&gt;11</title>
<path fill="none" stroke="black" d="M2525.92,-880.8C2410.84,-879.72 2049.84,-872.72 1755,-828 1619.43,-807.44 1588,-789.36 1455,-756 1343.11,-727.93 1211.04,-692.78 1149.63,-676.32"/>
<polygon fill="black" stroke="black" points="2525.94,-884.3 2535.97,-880.89 2526,-877.3 2525.94,-884.3"/>
<polygon fill="black" stroke="black" points="1150.26,-672.86 1139.7,-673.65 1148.45,-679.62 1150.26,-672.86"/>
</g>
<!-- 5&#45;&gt;12 -->
<g id="edge57" class="edge">
<title>5&#45;&gt;12</title>
<path fill="none" stroke="black" d="M2578.8,-856.88C2595.86,-830.82 2622.9,-789.54 2640.03,-763.38"/>
<polygon fill="black" stroke="black" points="2575.86,-854.98 2573.31,-865.26 2581.71,-858.81 2575.86,-854.98"/>
<polygon fill="black" stroke="black" points="2643.09,-765.09 2645.65,-754.81 2637.24,-761.26 2643.09,-765.09"/>
</g>
<!-- 5&#45;&gt;13 -->
<g id="edge58" class="edge">
<title>5&#45;&gt;13</title>
<path fill="none" stroke="black" d="M2530.05,-869.31C2399.58,-823.01 1919.99,-652.84 1789.8,-606.64"/>
<polygon fill="black" stroke="black" points="2529.15,-872.7 2539.75,-872.75 2531.49,-866.11 2529.15,-872.7"/>
<polygon fill="black" stroke="black" points="1790.94,-603.33 1780.35,-603.28 1788.6,-609.93 1790.94,-603.33"/>
</g>
<!-- 5&#45;&gt;20 -->
<g id="edge59" class="edge">
<title>5&#45;&gt;20</title>
<path fill="none" stroke="black" d="M2586.33,-860.62C2632.99,-819.86 2737.34,-728.72 2784.3,-687.7"/>
<polygon fill="black" stroke="black" points="2583.93,-858.07 2578.7,-867.29 2588.53,-863.35 2583.93,-858.07"/>
<polygon fill="black" stroke="black" points="2786.89,-690.09 2792.12,-680.87 2782.28,-684.82 2786.89,-690.09"/>
</g>
<!-- 5&#45;&gt;26 -->
<g id="edge60" class="edge">
<title>5&#45;&gt;26</title>
<path fill="none" stroke="black" d="M2554.57,-854.42C2552.29,-846.05 2550.15,-836.72 2549,-828 2534.36,-716.96 2562.64,-687.04 2548,-576 2546.85,-567.28 2544.71,-557.95 2542.43,-549.58"/>
<polygon fill="black" stroke="black" points="2551.21,-855.4 2557.34,-864.04 2557.93,-853.46 2551.21,-855.4"/>
<polygon fill="black" stroke="black" points="2545.79,-548.6 2539.66,-539.96 2539.07,-550.54 2545.79,-548.6"/>
</g>
<!-- 5&#45;&gt;27 -->
<g id="edge61" class="edge">
<title>5&#45;&gt;27</title>
<path fill="none" stroke="black" d="M2549.69,-855.82C2509.04,-779.74 2385.33,-554.41 2320,-504 2282.95,-475.41 2229.86,-461.92 2194.68,-455.78"/>
<polygon fill="black" stroke="black" points="2546.65,-857.55 2554.44,-864.73 2552.82,-854.26 2546.65,-857.55"/>
<polygon fill="black" stroke="black" points="2194.81,-452.25 2184.37,-454.1 2193.68,-459.16 2194.81,-452.25"/>
</g>
<!-- 5&#45;&gt;33 -->
<g id="edge62" class="edge">
<title>5&#45;&gt;33</title>
<path fill="none" stroke="black" d="M2572.11,-854.59C2578.25,-836.87 2586.55,-813.01 2594,-792 2605.37,-759.93 2607.98,-751.83 2620,-720 2655.7,-625.46 2706.56,-603.85 2691,-504 2679.45,-429.89 2668.1,-397.25 2603,-360 2534.08,-320.57 2502.71,-350.9 2428,-324 2426.96,-323.63 2425.92,-323.23 2424.87,-322.8"/>
<polygon fill="black" stroke="black" points="2568.73,-853.65 2568.77,-864.25 2575.35,-855.94 2568.73,-853.65"/>
<polygon fill="black" stroke="black" points="2426.12,-319.52 2415.57,-318.52 2423.19,-325.88 2426.12,-319.52"/>
</g>
<!-- 5&#45;&gt;34 -->
<g id="edge63" class="edge">
<title>5&#45;&gt;34</title>
<path fill="none" stroke="black" d="M2599.82,-878.22C2689.35,-871.11 2912.89,-851.22 2937,-828 3087.12,-683.46 3087.29,-529.46 2966,-360 2862.28,-215.09 2272.8,-119.1 2118.8,-96.26"/>
<polygon fill="black" stroke="black" points="2599.54,-874.73 2589.84,-879 2600.08,-881.71 2599.54,-874.73"/>
<polygon fill="black" stroke="black" points="2118.88,-92.73 2108.48,-94.74 2117.86,-99.66 2118.88,-92.73"/>
</g>
<!-- 5&#45;&gt;37 -->
<g id="edge64" class="edge">
<title>5&#45;&gt;37</title>
<path fill="none" stroke="black" d="M2599.76,-877.63C2693.21,-868.85 2934.72,-844.82 2967,-828 3091.43,-763.17 3180,-735.31 3180,-595 3180,-595 3180,-595 3180,-161 3180,-109.27 3151.6,-94.45 3105,-72 3015.47,-28.88 1452.08,-20.29 1190.1,-19.15"/>
<polygon fill="black" stroke="black" points="2599.27,-874.16 2589.64,-878.57 2599.92,-881.13 2599.27,-874.16"/>
<polygon fill="black" stroke="black" points="1189.98,-15.65 1179.96,-19.1 1189.95,-22.65 1189.98,-15.65"/>
</g>
<!-- 29&#45;&gt;34 -->
<g id="edge181" class="edge">
<title>29&#45;&gt;34</title>
<path fill="none" stroke="black" d="M1135.05,-158.36C1290.48,-147.31 1888.97,-104.73 2044.75,-93.65"/>
<polygon fill="black" stroke="black" points="1134.56,-154.89 1124.83,-159.09 1135.05,-161.87 1134.56,-154.89"/>
<polygon fill="black" stroke="black" points="2045.47,-97.11 2055.19,-92.91 2044.97,-90.13 2045.47,-97.11"/>
</g>
<!-- 29&#45;&gt;37 -->
<g id="edge182" class="edge">
<title>29&#45;&gt;37</title>
<path fill="none" stroke="black" d="M1108.07,-134.99C1117.94,-109.53 1132.89,-70.92 1142.8,-45.34"/>
<polygon fill="black" stroke="black" points="1104.76,-133.84 1104.42,-144.43 1111.29,-136.37 1104.76,-133.84"/>
<polygon fill="black" stroke="black" points="1146.11,-46.49 1146.45,-35.9 1139.58,-43.96 1146.11,-46.49"/>
</g>
</g>
</svg>
