<?xml version="1.0" encoding="UTF-8" standalone="no"?>
<!DOCTYPE svg PUBLIC "-//W3C//DTD SVG 1.1//EN"
 "http://www.w3.org/Graphics/SVG/1.1/DTD/svg11.dtd">
<!-- Generated by graphviz version 2.43.0 (0)
 -->
<!-- Title: IRIS region connectivity Pages: 1 -->
<svg width="1302pt" height="620pt"
 viewBox="0.00 0.00 1302.00 620.00" xmlns="http://www.w3.org/2000/svg" xmlns:xlink="http://www.w3.org/1999/xlink">
<g id="graph0" class="graph" transform="scale(1 1) rotate(0) translate(4 616)">
<title>IRIS region connectivity</title>
<polygon fill="white" stroke="transparent" points="-4,4 -4,-616 1298,-616 1298,4 -4,4"/>
<!-- 0 -->
<g id="node1" class="node">
<title>0</title>
<ellipse fill="none" stroke="black" cx="703" cy="-522" rx="27" ry="18"/>
<text text-anchor="middle" x="703" y="-518.3" font-family="Times,serif" font-size="14.00">0</text>
</g>
<!-- 0&#45;&gt;0 -->
<g id="edge1" class="edge">
<title>0&#45;&gt;0</title>
<path fill="none" stroke="black" d="M739.35,-526.04C744.53,-525.39 748,-524.04 748,-522 748,-519.96 744.53,-518.61 739.35,-517.96"/>
<polygon fill="black" stroke="black" points="739.18,-522.54 729.35,-526.48 739.49,-529.54 739.18,-522.54"/>
<polygon fill="black" stroke="black" points="739.49,-514.46 729.35,-517.52 739.18,-521.46 739.49,-514.46"/>
</g>
<!-- 0&#45;&gt;0 -->
<g id="edge5" class="edge">
<title>0&#45;&gt;0</title>
<path fill="none" stroke="black" d="M737.75,-530.88C752.94,-531.65 766,-528.69 766,-522 766,-515.31 752.94,-512.35 737.75,-513.12"/>
<polygon fill="black" stroke="black" points="737.88,-527.38 727.57,-529.84 737.16,-534.34 737.88,-527.38"/>
<polygon fill="black" stroke="black" points="737.16,-509.66 727.57,-514.16 737.88,-516.62 737.16,-509.66"/>
</g>
<!-- 0&#45;&gt;0 -->
<g id="edge29" class="edge">
<title>0&#45;&gt;0</title>
<path fill="none" stroke="black" d="M735.7,-533.95C759.8,-538.03 784,-534.05 784,-522 784,-509.95 759.8,-505.97 735.7,-510.05"/>
<polygon fill="black" stroke="black" points="736.32,-530.5 725.8,-531.8 734.83,-537.34 736.32,-530.5"/>
<polygon fill="black" stroke="black" points="734.83,-506.66 725.8,-512.2 736.32,-513.5 734.83,-506.66"/>
</g>
<!-- 17 -->
<g id="node3" class="node">
<title>17</title>
<ellipse fill="none" stroke="black" cx="603" cy="-450" rx="27" ry="18"/>
<text text-anchor="middle" x="603" y="-446.3" font-family="Times,serif" font-size="14.00">17</text>
</g>
<!-- 0&#45;&gt;17 -->
<g id="edge2" class="edge">
<title>0&#45;&gt;17</title>
<path fill="none" stroke="black" d="M666.46,-514.98C633.95,-505.35 601.24,-486.02 588.51,-471.11"/>
<polygon fill="black" stroke="black" points="665.85,-518.44 676.41,-517.62 667.64,-511.68 665.85,-518.44"/>
<polygon fill="black" stroke="black" points="591.5,-469.29 583.34,-462.53 585.5,-472.9 591.5,-469.29"/>
</g>
<!-- 0&#45;&gt;17 -->
<g id="edge14" class="edge">
<title>0&#45;&gt;17</title>
<path fill="none" stroke="black" d="M667.72,-512.44C644.77,-503.21 620.13,-488.13 605.3,-475.21"/>
<polygon fill="black" stroke="black" points="666.7,-515.79 677.29,-515.97 669.12,-509.22 666.7,-515.79"/>
<polygon fill="black" stroke="black" points="607.4,-472.37 597.79,-467.92 602.53,-477.39 607.4,-472.37"/>
</g>
<!-- 0&#45;&gt;17 -->
<g id="edge26" class="edge">
<title>0&#45;&gt;17</title>
<path fill="none" stroke="black" d="M670.18,-509.02C652.1,-499.5 631.51,-485.91 617.04,-474.27"/>
<polygon fill="black" stroke="black" points="668.68,-512.18 679.19,-513.51 671.8,-505.91 668.68,-512.18"/>
<polygon fill="black" stroke="black" points="619.18,-471.49 609.29,-467.69 614.65,-476.83 619.18,-471.49"/>
</g>
<!-- 0&#45;&gt;17 -->
<g id="edge38" class="edge">
<title>0&#45;&gt;17</title>
<path fill="none" stroke="black" d="M680,-500.56C665.77,-490.01 647.49,-477.3 632.25,-467.4"/>
<polygon fill="black" stroke="black" points="678.22,-503.6 688.31,-506.83 682.44,-498.02 678.22,-503.6"/>
<polygon fill="black" stroke="black" points="633.99,-464.36 623.68,-461.93 630.23,-470.26 633.99,-464.36"/>
</g>
<!-- 0&#45;&gt;17 -->
<g id="edge50" class="edge">
<title>0&#45;&gt;17</title>
<path fill="none" stroke="black" d="M688.83,-497.63C674.49,-486.11 654.2,-472.7 636.28,-463.23"/>
<polygon fill="black" stroke="black" points="686.93,-500.61 696.82,-504.41 691.46,-495.27 686.93,-500.61"/>
<polygon fill="black" stroke="black" points="637.68,-460.01 627.17,-458.66 634.55,-466.27 637.68,-460.01"/>
</g>
<!-- 0&#45;&gt;17 -->
<g id="edge58" class="edge">
<title>0&#45;&gt;17</title>
<path fill="none" stroke="black" d="M700.58,-496.69C685.77,-483.83 661.29,-468.84 638.46,-459.63"/>
<polygon fill="black" stroke="black" points="698.57,-499.61 708.18,-504.05 703.44,-494.58 698.57,-499.61"/>
<polygon fill="black" stroke="black" points="639.39,-456.25 628.8,-456.07 636.97,-462.81 639.39,-456.25"/>
</g>
<!-- 0&#45;&gt;17 -->
<g id="edge70" class="edge">
<title>0&#45;&gt;17</title>
<path fill="none" stroke="black" d="M717.17,-500.52C704.2,-485.64 671.68,-466.51 639.4,-456.97"/>
<polygon fill="black" stroke="black" points="714.44,-502.75 722.65,-509.44 720.4,-499.09 714.44,-502.75"/>
<polygon fill="black" stroke="black" points="639.97,-453.5 629.4,-454.33 638.18,-460.27 639.97,-453.5"/>
</g>
<!-- 18 -->
<g id="node4" class="node">
<title>18</title>
<ellipse fill="none" stroke="black" cx="521" cy="-378" rx="27" ry="18"/>
<text text-anchor="middle" x="521" y="-374.3" font-family="Times,serif" font-size="14.00">18</text>
</g>
<!-- 0&#45;&gt;18 -->
<g id="edge6" class="edge">
<title>0&#45;&gt;18</title>
<path fill="none" stroke="black" d="M666.79,-515.86C634.6,-509.31 588.43,-495.38 558,-468 539.48,-451.33 527.28,-425.45 521.71,-405.89"/>
<polygon fill="black" stroke="black" points="666.24,-519.32 676.72,-517.73 667.54,-512.44 666.24,-519.32"/>
<polygon fill="black" stroke="black" points="525.08,-404.95 519.35,-396.04 518.27,-406.58 525.08,-404.95"/>
</g>
<!-- 0&#45;&gt;18 -->
<g id="edge30" class="edge">
<title>0&#45;&gt;18</title>
<path fill="none" stroke="black" d="M668.21,-512.8C640.48,-505.32 602.34,-491.7 576,-468 556.86,-450.78 544.48,-423.73 535.7,-403.96"/>
<polygon fill="black" stroke="black" points="667.35,-516.2 677.91,-515.29 669.09,-509.42 667.35,-516.2"/>
<polygon fill="black" stroke="black" points="538.81,-402.36 531.54,-394.65 532.42,-405.21 538.81,-402.36"/>
</g>
<!-- 3 -->
<g id="node5" class="node">
<title>3</title>
<ellipse fill="none" stroke="black" cx="725" cy="-306" rx="27" ry="18"/>
<text text-anchor="middle" x="725" y="-302.3" font-family="Times,serif" font-size="14.00">3</text>
</g>
<!-- 0&#45;&gt;3 -->
<g id="edge9" class="edge">
<title>0&#45;&gt;3</title>
<path fill="none" stroke="black" d="M696.44,-494.01C695.1,-452.53 703.26,-373.65 713.16,-332.86"/>
<polygon fill="black" stroke="black" points="692.96,-494.43 697.04,-504.21 699.95,-494.02 692.96,-494.43"/>
<polygon fill="black" stroke="black" points="716.57,-333.69 715.79,-323.13 709.81,-331.87 716.57,-333.69"/>
</g>
<!-- 0&#45;&gt;3 -->
<g id="edge33" class="edge">
<title>0&#45;&gt;3</title>
<path fill="none" stroke="black" d="M705.81,-493.71C710.03,-452.65 717.97,-375.42 722.19,-334.33"/>
<polygon fill="black" stroke="black" points="702.3,-493.54 704.76,-503.85 709.27,-494.26 702.3,-493.54"/>
<polygon fill="black" stroke="black" points="725.69,-334.54 723.23,-324.23 718.72,-333.82 725.69,-334.54"/>
</g>
<!-- 0&#45;&gt;3 -->
<g id="edge53" class="edge">
<title>0&#45;&gt;3</title>
<path fill="none" stroke="black" d="M714.84,-495.13C724.76,-454.25 732.94,-375.1 731.55,-333.71"/>
<polygon fill="black" stroke="black" points="711.42,-494.35 712.2,-504.92 718.18,-496.17 711.42,-494.35"/>
<polygon fill="black" stroke="black" points="735.03,-333.34 730.94,-323.57 728.04,-333.76 735.03,-333.34"/>
</g>
<!-- 5 -->
<g id="node6" class="node">
<title>5</title>
<ellipse fill="none" stroke="black" cx="643" cy="-234" rx="27" ry="18"/>
<text text-anchor="middle" x="643" y="-230.3" font-family="Times,serif" font-size="14.00">5</text>
</g>
<!-- 0&#45;&gt;5 -->
<g id="edge10" class="edge">
<title>0&#45;&gt;5</title>
<path fill="none" stroke="black" d="M679.44,-503.33C682.65,-493.63 691.78,-480.96 697,-468 727.05,-393.38 759.7,-355.54 716,-288 705.04,-271.06 687.23,-259.48 670.68,-251.59"/>
<polygon fill="black" stroke="black" points="675.94,-503.41 679.12,-513.51 682.93,-503.63 675.94,-503.41"/>
<polygon fill="black" stroke="black" points="671.7,-248.21 661.14,-247.35 668.86,-254.61 671.7,-248.21"/>
</g>
<!-- 0&#45;&gt;5 -->
<g id="edge17" class="edge">
<title>0&#45;&gt;5</title>
<path fill="none" stroke="black" d="M699.77,-495.89C704.8,-487.54 711.03,-477.86 715,-468 745.05,-393.38 777.7,-355.54 734,-288 720.47,-267.08 696.5,-254.34 675.89,-246.62"/>
<polygon fill="black" stroke="black" points="696.67,-494.25 694.78,-504.67 702.76,-497.71 696.67,-494.25"/>
<polygon fill="black" stroke="black" points="677,-243.3 666.4,-243.32 674.69,-249.91 677,-243.3"/>
</g>
<!-- 0&#45;&gt;5 -->
<g id="edge34" class="edge">
<title>0&#45;&gt;5</title>
<path fill="none" stroke="black" d="M716.52,-496.42C722.53,-487.96 728.95,-478.07 733,-468 763.05,-393.38 795.7,-355.54 752,-288 735.59,-262.65 703.86,-249.3 678.74,-242.35"/>
<polygon fill="black" stroke="black" points="713.58,-494.53 710.53,-504.67 719.24,-498.64 713.58,-494.53"/>
<polygon fill="black" stroke="black" points="679.34,-238.89 668.79,-239.83 677.62,-245.68 679.34,-238.89"/>
</g>
<!-- 0&#45;&gt;5 -->
<g id="edge41" class="edge">
<title>0&#45;&gt;5</title>
<path fill="none" stroke="black" d="M729.04,-501.72C737.63,-492.25 746.07,-480.25 751,-468 781.05,-393.38 813.7,-355.54 770,-288 750.68,-258.15 710.12,-244.95 679.86,-239.22"/>
<polygon fill="black" stroke="black" points="726.37,-499.45 721.86,-509.03 731.36,-504.35 726.37,-499.45"/>
<polygon fill="black" stroke="black" points="680.08,-235.71 669.63,-237.49 678.91,-242.61 680.08,-235.71"/>
</g>
<!-- 0&#45;&gt;5 -->
<g id="edge54" class="edge">
<title>0&#45;&gt;5</title>
<path fill="none" stroke="black" d="M736.39,-509.03C750.64,-498.94 762.69,-483.68 769,-468 799.05,-393.38 831.7,-355.54 788,-288 766.09,-254.13 716.84,-241.7 680.07,-237.29"/>
<polygon fill="black" stroke="black" points="734.45,-506.11 727.77,-514.33 738.12,-512.07 734.45,-506.11"/>
<polygon fill="black" stroke="black" points="680.37,-233.81 670.06,-236.25 679.65,-240.77 680.37,-233.81"/>
</g>
<!-- 0&#45;&gt;5 -->
<g id="edge61" class="edge">
<title>0&#45;&gt;5</title>
<path fill="none" stroke="black" d="M739.32,-514.53C763.48,-505.17 779.39,-486.89 787,-468 817.05,-393.38 849.7,-355.54 806,-288 782.07,-251.01 725.53,-239.59 680.16,-236.27"/>
<polygon fill="black" stroke="black" points="738.09,-511.25 729.66,-517.66 740.25,-517.9 738.09,-511.25"/>
<polygon fill="black" stroke="black" points="680.27,-232.77 670.07,-235.65 679.84,-239.76 680.27,-232.77"/>
</g>
<!-- 4 -->
<g id="node7" class="node">
<title>4</title>
<ellipse fill="none" stroke="black" cx="373" cy="-306" rx="27" ry="18"/>
<text text-anchor="middle" x="373" y="-302.3" font-family="Times,serif" font-size="14.00">4</text>
</g>
<!-- 0&#45;&gt;4 -->
<g id="edge13" class="edge">
<title>0&#45;&gt;4</title>
<path fill="none" stroke="black" d="M666.83,-515.66C627.84,-507.81 567.02,-491.5 519,-468 468.17,-443.13 453.7,-436.32 414,-396 395.59,-377.3 379.5,-352.07 371.84,-333.24"/>
<polygon fill="black" stroke="black" points="666.25,-519.11 676.73,-517.56 667.57,-512.24 666.25,-519.11"/>
<polygon fill="black" stroke="black" points="375.14,-332.09 368.56,-323.79 368.53,-334.39 375.14,-332.09"/>
</g>
<!-- 0&#45;&gt;4 -->
<g id="edge37" class="edge">
<title>0&#45;&gt;4</title>
<path fill="none" stroke="black" d="M667.61,-512.9C633.2,-504.3 579.97,-489.03 537,-468 486.17,-443.13 471.7,-436.32 432,-396 413.31,-377.01 397.01,-351.29 386.31,-332.39"/>
<polygon fill="black" stroke="black" points="667.11,-516.39 677.66,-515.36 668.77,-509.59 667.11,-516.39"/>
<polygon fill="black" stroke="black" points="389.27,-330.52 381.38,-323.45 383.14,-333.9 389.27,-330.52"/>
</g>
<!-- 0&#45;&gt;4 -->
<g id="edge57" class="edge">
<title>0&#45;&gt;4</title>
<path fill="none" stroke="black" d="M669.93,-509.63C638.93,-500.66 592.96,-486.58 555,-468 504.17,-443.13 489.7,-436.32 450,-396 429.61,-375.29 412.06,-346.56 397.39,-327.4"/>
<polygon fill="black" stroke="black" points="669.26,-513.07 679.84,-512.47 671.19,-506.35 669.26,-513.07"/>
<polygon fill="black" stroke="black" points="400.08,-325.16 391.07,-319.59 394.63,-329.56 400.08,-325.16"/>
</g>
<!-- 6 -->
<g id="node8" class="node">
<title>6</title>
<ellipse fill="none" stroke="black" cx="953" cy="-162" rx="27" ry="18"/>
<text text-anchor="middle" x="953" y="-158.3" font-family="Times,serif" font-size="14.00">6</text>
</g>
<!-- 0&#45;&gt;6 -->
<g id="edge18" class="edge">
<title>0&#45;&gt;6</title>
<path fill="none" stroke="black" d="M732.58,-506.29C817.6,-477.41 1036,-413.1 1036,-379 1036,-379 1036,-379 1036,-305 1036,-253.26 988.54,-211.89 961.58,-187.43"/>
<polygon fill="black" stroke="black" points="731.21,-503.07 722.9,-509.64 733.49,-509.68 731.21,-503.07"/>
<polygon fill="black" stroke="black" points="963.67,-184.6 953.95,-180.39 958.93,-189.75 963.67,-184.6"/>
</g>
<!-- 0&#45;&gt;6 -->
<g id="edge21" class="edge">
<title>0&#45;&gt;6</title>
<path fill="none" stroke="black" d="M735.12,-508.65C823.11,-481.06 1054,-414.07 1054,-379 1054,-379 1054,-379 1054,-305 1054,-251.61 1003.45,-209.24 972.59,-185.13"/>
<polygon fill="black" stroke="black" points="733.84,-505.39 725.37,-511.74 735.96,-512.06 733.84,-505.39"/>
<polygon fill="black" stroke="black" points="974.51,-182.19 964.46,-178.82 970.21,-187.72 974.51,-182.19"/>
</g>
<!-- 0&#45;&gt;6 -->
<g id="edge42" class="edge">
<title>0&#45;&gt;6</title>
<path fill="none" stroke="black" d="M736.88,-510.84C828.24,-484.76 1072,-415.03 1072,-379 1072,-379 1072,-379 1072,-305 1072,-248.24 1014.88,-203.95 979.64,-180.79"/>
<polygon fill="black" stroke="black" points="735.67,-507.54 727.02,-513.65 737.59,-514.27 735.67,-507.54"/>
<polygon fill="black" stroke="black" points="981.5,-177.83 971.2,-175.37 977.72,-183.72 981.5,-177.83"/>
</g>
<!-- 0&#45;&gt;6 -->
<g id="edge45" class="edge">
<title>0&#45;&gt;6</title>
<path fill="none" stroke="black" d="M737.81,-512.83C833.07,-488.51 1090,-415.99 1090,-379 1090,-379 1090,-379 1090,-305 1090,-244.65 1025.42,-198.39 984.78,-176.65"/>
<polygon fill="black" stroke="black" points="736.9,-509.45 728.07,-515.29 738.62,-516.23 736.9,-509.45"/>
<polygon fill="black" stroke="black" points="986.25,-173.48 975.76,-172.02 983.06,-179.7 986.25,-173.48"/>
</g>
<!-- 0&#45;&gt;6 -->
<g id="edge62" class="edge">
<title>0&#45;&gt;6</title>
<path fill="none" stroke="black" d="M738.78,-514.41C839.24,-491.82 1108,-416.83 1108,-379 1108,-379 1108,-379 1108,-305 1108,-240.72 1034.75,-192.43 987.39,-172.73"/>
<polygon fill="black" stroke="black" points="737.78,-511.05 728.76,-516.61 739.28,-517.88 737.78,-511.05"/>
<polygon fill="black" stroke="black" points="988.59,-169.44 978,-169.06 986.04,-175.96 988.59,-169.44"/>
</g>
<!-- 0&#45;&gt;6 -->
<g id="edge65" class="edge">
<title>0&#45;&gt;6</title>
<path fill="none" stroke="black" d="M739.52,-515.7C846.41,-494.83 1126,-417.59 1126,-379 1126,-379 1126,-379 1126,-305 1126,-237.21 1044.53,-187.21 988.73,-169.75"/>
<polygon fill="black" stroke="black" points="738.61,-512.31 729.43,-517.59 739.9,-519.19 738.61,-512.31"/>
<polygon fill="black" stroke="black" points="989.56,-166.35 978.98,-166.97 987.64,-173.08 989.56,-166.35"/>
</g>
<!-- 7 -->
<g id="node9" class="node">
<title>7</title>
<ellipse fill="none" stroke="black" cx="344" cy="-90" rx="27" ry="18"/>
<text text-anchor="middle" x="344" y="-86.3" font-family="Times,serif" font-size="14.00">7</text>
</g>
<!-- 0&#45;&gt;7 -->
<g id="edge22" class="edge">
<title>0&#45;&gt;7</title>
<path fill="none" stroke="black" d="M665.5,-519.26C591.09,-513.66 427.54,-490.44 341,-396 264.34,-312.34 271.29,-253.78 300,-144 303.13,-132.04 309.08,-119.58 316.39,-109.75"/>
<polygon fill="black" stroke="black" points="665.6,-522.77 675.81,-519.96 666.07,-515.79 665.6,-522.77"/>
<polygon fill="black" stroke="black" points="319.29,-111.74 323.12,-101.86 313.97,-107.19 319.29,-111.74"/>
</g>
<!-- 0&#45;&gt;7 -->
<g id="edge46" class="edge">
<title>0&#45;&gt;7</title>
<path fill="none" stroke="black" d="M665.9,-518.45C595.44,-511.57 441.89,-486.46 359,-396 282.34,-312.34 289.29,-253.78 318,-144 320.49,-134.49 324.76,-124.67 329.13,-116.1"/>
<polygon fill="black" stroke="black" points="665.8,-521.96 676.08,-519.37 666.43,-514.99 665.8,-521.96"/>
<polygon fill="black" stroke="black" points="332.35,-117.51 334.02,-107.05 326.19,-114.18 332.35,-117.51"/>
</g>
<!-- 0&#45;&gt;7 -->
<g id="edge66" class="edge">
<title>0&#45;&gt;7</title>
<path fill="none" stroke="black" d="M665.85,-517.25C597.9,-508.83 455.64,-481.83 377,-396 300.34,-312.34 307.29,-253.78 336,-144 338.36,-134.98 342.33,-125.67 345.65,-117.43"/>
<polygon fill="black" stroke="black" points="665.75,-520.76 676.09,-518.44 666.57,-513.81 665.75,-520.76"/>
<polygon fill="black" stroke="black" points="348.96,-118.57 349.24,-107.98 342.42,-116.09 348.96,-118.57"/>
</g>
<!-- 10 -->
<g id="node10" class="node">
<title>10</title>
<ellipse fill="none" stroke="black" cx="563" cy="-18" rx="27" ry="18"/>
<text text-anchor="middle" x="563" y="-14.3" font-family="Times,serif" font-size="14.00">10</text>
</g>
<!-- 0&#45;&gt;10 -->
<g id="edge25" class="edge">
<title>0&#45;&gt;10</title>
<path fill="none" stroke="black" d="M739.91,-518.29C855.89,-509.51 1202,-476.48 1202,-379 1202,-379 1202,-379 1202,-161 1202,-35.32 736.92,-20.61 600.08,-19.1"/>
<polygon fill="black" stroke="black" points="739.45,-514.82 729.73,-519.05 739.97,-521.8 739.45,-514.82"/>
<polygon fill="black" stroke="black" points="600.1,-15.6 590.06,-19.01 600.03,-22.6 600.1,-15.6"/>
</g>
<!-- 0&#45;&gt;10 -->
<g id="edge49" class="edge">
<title>0&#45;&gt;10</title>
<path fill="none" stroke="black" d="M740.11,-518.83C858.59,-510.92 1220,-478.62 1220,-379 1220,-379 1220,-379 1220,-161 1220,-33.19 739,-20.14 600.12,-19.03"/>
<polygon fill="black" stroke="black" points="739.82,-515.35 730.07,-519.49 740.27,-522.33 739.82,-515.35"/>
<polygon fill="black" stroke="black" points="600,-15.53 589.98,-18.97 599.96,-22.53 600,-15.53"/>
</g>
<!-- 0&#45;&gt;10 -->
<g id="edge69" class="edge">
<title>0&#45;&gt;10</title>
<path fill="none" stroke="black" d="M740.4,-519.27C862.52,-512.14 1238,-480.54 1238,-379 1238,-379 1238,-379 1238,-161 1238,-31.34 742.99,-19.78 600.54,-18.99"/>
<polygon fill="black" stroke="black" points="739.84,-515.79 730.05,-519.84 740.23,-522.78 739.84,-515.79"/>
<polygon fill="black" stroke="black" points="600.16,-15.49 590.14,-18.95 600.13,-22.49 600.16,-15.49"/>
</g>
<!-- 1 -->
<g id="node2" class="node">
<title>1</title>
<ellipse fill="none" stroke="black" cx="603" cy="-594" rx="27" ry="18"/>
<text text-anchor="middle" x="603" y="-590.3" font-family="Times,serif" font-size="14.00">1</text>
</g>
<!-- 1&#45;&gt;0 -->
<g id="edge3" class="edge">
<title>1&#45;&gt;0</title>
<path fill="none" stroke="black" d="M626,-572.56C640.23,-562.01 658.51,-549.3 673.75,-539.4"/>
<polygon fill="black" stroke="black" points="623.56,-570.02 617.69,-578.83 627.78,-575.6 623.56,-570.02"/>
<polygon fill="black" stroke="black" points="675.77,-542.26 682.32,-533.93 672.01,-536.36 675.77,-542.26"/>
</g>
<!-- 1&#45;&gt;0 -->
<g id="edge7" class="edge">
<title>1&#45;&gt;0</title>
<path fill="none" stroke="black" d="M632.3,-576.57C647.51,-566.68 665.73,-554.02 679.94,-543.49"/>
<polygon fill="black" stroke="black" points="630.23,-573.73 623.69,-582.06 634,-579.63 630.23,-573.73"/>
<polygon fill="black" stroke="black" points="682.33,-546.07 688.2,-537.25 678.11,-540.48 682.33,-546.07"/>
</g>
<!-- 1&#45;&gt;17 -->
<g id="edge4" class="edge">
<title>1&#45;&gt;17</title>
<path fill="none" stroke="black" d="M592.29,-567.11C588.59,-541.62 588.57,-502.89 592.24,-477.27"/>
<polygon fill="black" stroke="black" points="588.86,-567.77 594.07,-576.99 595.75,-566.52 588.86,-567.77"/>
<polygon fill="black" stroke="black" points="595.73,-477.63 594.04,-467.17 588.84,-476.4 595.73,-477.63"/>
</g>
<!-- 1&#45;&gt;17 -->
<g id="edge16" class="edge">
<title>1&#45;&gt;17</title>
<path fill="none" stroke="black" d="M603,-565.68C603,-540.6 603,-503.63 603,-478.49"/>
<polygon fill="black" stroke="black" points="599.5,-565.87 603,-575.87 606.5,-565.87 599.5,-565.87"/>
<polygon fill="black" stroke="black" points="606.5,-478.19 603,-468.19 599.5,-478.19 606.5,-478.19"/>
</g>
<!-- 1&#45;&gt;17 -->
<g id="edge28" class="edge">
<title>1&#45;&gt;17</title>
<path fill="none" stroke="black" d="M613.71,-567.11C617.41,-541.62 617.43,-502.89 613.76,-477.27"/>
<polygon fill="black" stroke="black" points="610.25,-566.52 611.93,-576.99 617.14,-567.77 610.25,-566.52"/>
<polygon fill="black" stroke="black" points="617.16,-476.4 611.96,-467.17 610.27,-477.63 617.16,-476.4"/>
</g>
<!-- 1&#45;&gt;18 -->
<g id="edge8" class="edge">
<title>1&#45;&gt;18</title>
<path fill="none" stroke="black" d="M587.15,-568.52C572.02,-544.04 549.69,-504.83 537,-468 530.06,-447.87 525.99,-424.09 523.69,-406.18"/>
<polygon fill="black" stroke="black" points="584.28,-570.54 592.56,-577.15 590.21,-566.82 584.28,-570.54"/>
<polygon fill="black" stroke="black" points="527.15,-405.65 522.5,-396.12 520.2,-406.47 527.15,-405.65"/>
</g>
<!-- 1&#45;&gt;3 -->
<g id="edge11" class="edge">
<title>1&#45;&gt;3</title>
<path fill="none" stroke="black" d="M633.2,-578.18C635.15,-577.4 637.09,-576.67 639,-576 705.37,-552.86 749.32,-595.07 793,-540 843.8,-475.95 778.56,-375.17 743.97,-330.11"/>
<polygon fill="black" stroke="black" points="631.4,-575.15 623.63,-582.35 634.19,-581.57 631.4,-575.15"/>
<polygon fill="black" stroke="black" points="746.63,-327.83 737.71,-322.12 741.12,-332.15 746.63,-327.83"/>
</g>
<!-- 1&#45;&gt;5 -->
<g id="edge12" class="edge">
<title>1&#45;&gt;5</title>
<path fill="none" stroke="black" d="M571.02,-579.76C479.75,-537.59 231.64,-402.49 328,-288 362.73,-246.73 530.11,-237.6 605.85,-235.57"/>
<polygon fill="black" stroke="black" points="569.8,-583.05 580.35,-583.99 572.69,-576.67 569.8,-583.05"/>
<polygon fill="black" stroke="black" points="606,-239.07 615.91,-235.33 605.83,-232.07 606,-239.07"/>
</g>
<!-- 1&#45;&gt;5 -->
<g id="edge19" class="edge">
<title>1&#45;&gt;5</title>
<path fill="none" stroke="black" d="M573.83,-577.24C488.39,-532.44 251.48,-400.3 346,-288 379.17,-248.59 533.34,-238.48 605.63,-235.89"/>
<polygon fill="black" stroke="black" points="572.3,-580.39 582.78,-581.91 575.53,-574.18 572.3,-580.39"/>
<polygon fill="black" stroke="black" points="605.79,-239.39 615.67,-235.56 605.56,-232.39 605.79,-239.39"/>
</g>
<!-- 1&#45;&gt;4 -->
<g id="edge15" class="edge">
<title>1&#45;&gt;4</title>
<path fill="none" stroke="black" d="M565.69,-592.11C493.08,-589.51 337.01,-579.37 304,-540 251.29,-477.13 318.48,-375.32 353.82,-330.02"/>
<polygon fill="black" stroke="black" points="565.66,-595.61 575.77,-592.44 565.89,-588.62 565.66,-595.61"/>
<polygon fill="black" stroke="black" points="356.73,-331.99 360.22,-321.99 351.25,-327.63 356.73,-331.99"/>
</g>
<!-- 1&#45;&gt;6 -->
<g id="edge20" class="edge">
<title>1&#45;&gt;6</title>
<path fill="none" stroke="black" d="M629.69,-576.1C629.79,-576.07 629.9,-576.03 630,-576 769.35,-531.7 1276,-597.22 1276,-451 1276,-451 1276,-451 1276,-305 1276,-180.13 1075,-163.61 990.03,-162.43"/>
<polygon fill="black" stroke="black" points="628.2,-572.92 620.09,-579.73 630.68,-579.47 628.2,-572.92"/>
<polygon fill="black" stroke="black" points="990.05,-158.93 980.03,-162.35 990,-165.93 990.05,-158.93"/>
</g>
<!-- 1&#45;&gt;6 -->
<g id="edge23" class="edge">
<title>1&#45;&gt;6</title>
<path fill="none" stroke="black" d="M635.78,-580.64C639.87,-578.9 644,-577.27 648,-576 787.35,-531.7 1294,-597.22 1294,-451 1294,-451 1294,-451 1294,-305 1294,-175.78 1078.77,-162.59 990.2,-162.36"/>
<polygon fill="black" stroke="black" points="634.11,-577.55 626.38,-584.79 636.94,-583.95 634.11,-577.55"/>
<polygon fill="black" stroke="black" points="990.04,-158.86 980.05,-162.38 990.06,-165.86 990.04,-158.86"/>
</g>
<!-- 1&#45;&gt;7 -->
<g id="edge24" class="edge">
<title>1&#45;&gt;7</title>
<path fill="none" stroke="black" d="M565.91,-592.52C489.69,-590.67 319.5,-581.85 283,-540 256.94,-510.12 280.9,-339.29 294,-216 297.42,-183.81 292.6,-173.9 305,-144 309.51,-133.12 316.71,-122.41 323.7,-113.5"/>
<polygon fill="black" stroke="black" points="565.95,-596.02 576.02,-592.74 566.1,-589.02 565.95,-596.02"/>
<polygon fill="black" stroke="black" points="326.59,-115.5 330.25,-105.56 321.19,-111.05 326.59,-115.5"/>
</g>
<!-- 1&#45;&gt;10 -->
<g id="edge27" class="edge">
<title>1&#45;&gt;10</title>
<path fill="none" stroke="black" d="M565.54,-592.25C433.85,-588.61 0,-567.77 0,-451 0,-451 0,-451 0,-161 0,-106.61 35.32,-96.26 84,-72 161.58,-33.34 427.37,-22.54 525.88,-19.83"/>
<polygon fill="black" stroke="black" points="565.83,-595.76 575.92,-592.52 566.01,-588.76 565.83,-595.76"/>
<polygon fill="black" stroke="black" points="526.06,-23.33 535.96,-19.56 525.87,-16.33 526.06,-23.33"/>
</g>
<!-- 17&#45;&gt;0 -->
<g id="edge31" class="edge">
<title>17&#45;&gt;0</title>
<path fill="none" stroke="black" d="M626.06,-471.49C640.27,-482.02 658.49,-494.68 673.7,-504.57"/>
<polygon fill="black" stroke="black" points="627.89,-468.48 617.8,-465.25 623.67,-474.07 627.89,-468.48"/>
<polygon fill="black" stroke="black" points="672,-507.63 682.31,-510.06 675.77,-501.73 672,-507.63"/>
</g>
<!-- 17&#45;&gt;17 -->
<g id="edge40" class="edge">
<title>17&#45;&gt;17</title>
<path fill="none" stroke="black" d="M639.35,-454.04C644.53,-453.39 648,-452.04 648,-450 648,-447.96 644.53,-446.61 639.35,-445.96"/>
<polygon fill="black" stroke="black" points="639.18,-450.54 629.35,-454.48 639.49,-457.54 639.18,-450.54"/>
<polygon fill="black" stroke="black" points="639.49,-442.46 629.35,-445.52 639.18,-449.46 639.49,-442.46"/>
</g>
<!-- 17&#45;&gt;17 -->
<g id="edge52" class="edge">
<title>17&#45;&gt;17</title>
<path fill="none" stroke="black" d="M637.75,-458.88C652.94,-459.65 666,-456.69 666,-450 666,-443.31 652.94,-440.35 637.75,-441.12"/>
<polygon fill="black" stroke="black" points="637.88,-455.38 627.57,-457.84 637.16,-462.34 637.88,-455.38"/>
<polygon fill="black" stroke="black" points="637.16,-437.66 627.57,-442.16 637.88,-444.62 637.16,-437.66"/>
</g>
<!-- 17&#45;&gt;17 -->
<g id="edge92" class="edge">
<title>17&#45;&gt;17</title>
<path fill="none" stroke="black" d="M635.7,-461.95C659.8,-466.03 684,-462.05 684,-450 684,-437.95 659.8,-433.97 635.7,-438.05"/>
<polygon fill="black" stroke="black" points="636.32,-458.5 625.8,-459.8 634.83,-465.34 636.32,-458.5"/>
<polygon fill="black" stroke="black" points="634.83,-434.66 625.8,-440.2 636.32,-441.5 634.83,-434.66"/>
</g>
<!-- 17&#45;&gt;18 -->
<g id="edge32" class="edge">
<title>17&#45;&gt;18</title>
<path fill="none" stroke="black" d="M572.94,-433.17C560.38,-424.21 546.6,-412.84 536.04,-402.83"/>
<polygon fill="black" stroke="black" points="571.22,-436.23 581.45,-438.97 575.16,-430.44 571.22,-436.23"/>
<polygon fill="black" stroke="black" points="538.23,-400.06 528.67,-395.5 533.29,-405.03 538.23,-400.06"/>
</g>
<!-- 17&#45;&gt;3 -->
<g id="edge35" class="edge">
<title>17&#45;&gt;3</title>
<path fill="none" stroke="black" d="M622.39,-426.43C645.12,-399.97 682.58,-356.38 705.4,-329.81"/>
<polygon fill="black" stroke="black" points="619.69,-424.21 615.83,-434.07 625,-428.77 619.69,-424.21"/>
<polygon fill="black" stroke="black" points="708.12,-332.02 711.98,-322.16 702.81,-327.46 708.12,-332.02"/>
</g>
<!-- 17&#45;&gt;5 -->
<g id="edge36" class="edge">
<title>17&#45;&gt;5</title>
<path fill="none" stroke="black" d="M594.06,-422.57C593.24,-380.65 608.57,-299.55 625.1,-259.12"/>
<polygon fill="black" stroke="black" points="590.56,-422.79 594.65,-432.56 597.55,-422.37 590.56,-422.79"/>
<polygon fill="black" stroke="black" points="628.4,-260.32 629.33,-249.77 622.02,-257.44 628.4,-260.32"/>
</g>
<!-- 17&#45;&gt;5 -->
<g id="edge43" class="edge">
<title>17&#45;&gt;5</title>
<path fill="none" stroke="black" d="M603.42,-421.66C608.39,-380.27 623,-302.23 633.44,-261.41"/>
<polygon fill="black" stroke="black" points="599.91,-421.53 602.33,-431.85 606.87,-422.28 599.91,-421.53"/>
<polygon fill="black" stroke="black" points="636.85,-262.21 636.06,-251.64 630.09,-260.39 636.85,-262.21"/>
</g>
<!-- 17&#45;&gt;5 -->
<g id="edge83" class="edge">
<title>17&#45;&gt;5</title>
<path fill="none" stroke="black" d="M612.51,-422.78C622.97,-381.98 637.62,-303.68 642.59,-262.25"/>
<polygon fill="black" stroke="black" points="609.1,-422 609.88,-432.56 615.86,-423.82 609.1,-422"/>
<polygon fill="black" stroke="black" points="646.09,-262.4 643.68,-252.09 639.13,-261.66 646.09,-262.4"/>
</g>
<!-- 17&#45;&gt;4 -->
<g id="edge39" class="edge">
<title>17&#45;&gt;4</title>
<path fill="none" stroke="black" d="M568.45,-438.92C541.96,-429.39 505.43,-413.91 476,-396 443.97,-376.51 410.77,-349.05 390.76,-329.81"/>
<polygon fill="black" stroke="black" points="567.48,-442.29 578.07,-442.27 569.78,-435.67 567.48,-442.29"/>
<polygon fill="black" stroke="black" points="393.09,-327.18 383.53,-322.62 388.15,-332.15 393.09,-327.18"/>
</g>
<!-- 17&#45;&gt;6 -->
<g id="edge44" class="edge">
<title>17&#45;&gt;6</title>
<path fill="none" stroke="black" d="M592.02,-428.3C601.81,-418.64 618.36,-406.89 633,-396 716.32,-334.02 738.87,-320.41 817,-252 848.75,-224.2 883.76,-188.36 918.18,-171.94"/>
<polygon fill="black" stroke="black" points="589.15,-426.28 585.37,-436.18 594.49,-430.8 589.15,-426.28"/>
<polygon fill="black" stroke="black" points="919.55,-175.16 927.39,-168.02 916.81,-168.71 919.55,-175.16"/>
</g>
<!-- 17&#45;&gt;6 -->
<g id="edge47" class="edge">
<title>17&#45;&gt;6</title>
<path fill="none" stroke="black" d="M612.05,-425.29C623.17,-416.25 637.85,-405.78 651,-396 734.32,-334.02 756.87,-320.41 835,-252 863.83,-226.76 895.35,-194.88 921.09,-176.93"/>
<polygon fill="black" stroke="black" points="609.67,-422.72 604.33,-431.87 614.21,-428.05 609.67,-422.72"/>
<polygon fill="black" stroke="black" points="923.1,-179.8 929.58,-171.41 919.29,-173.93 923.1,-179.8"/>
</g>
<!-- 17&#45;&gt;6 -->
<g id="edge84" class="edge">
<title>17&#45;&gt;6</title>
<path fill="none" stroke="black" d="M624.67,-428.4C637.71,-418.72 654.31,-406.93 669,-396 752.32,-334.02 774.87,-320.41 853,-252 879.13,-229.12 907.47,-200.8 927.54,-182.33"/>
<polygon fill="black" stroke="black" points="622.56,-425.61 616.68,-434.42 626.77,-431.2 622.56,-425.61"/>
<polygon fill="black" stroke="black" points="929.99,-184.83 935.07,-175.54 925.3,-179.64 929.99,-184.83"/>
</g>
<!-- 17&#45;&gt;6 -->
<g id="edge87" class="edge">
<title>17&#45;&gt;6</title>
<path fill="none" stroke="black" d="M633.23,-433.48C649.57,-423.06 669.62,-408.93 687,-396 770.32,-334.02 792.87,-320.41 871,-252 894.93,-231.04 920.72,-205.51 937.12,-187.18"/>
<polygon fill="black" stroke="black" points="631.22,-430.6 624.57,-438.85 634.91,-436.55 631.22,-430.6"/>
<polygon fill="black" stroke="black" points="940.04,-189.15 943.95,-179.31 934.75,-184.57 940.04,-189.15"/>
</g>
<!-- 17&#45;&gt;7 -->
<g id="edge48" class="edge">
<title>17&#45;&gt;7</title>
<path fill="none" stroke="black" d="M565.87,-446.63C499.02,-439.87 364.04,-414.65 319,-324 284.51,-254.59 305.54,-158.63 325.86,-114.69"/>
<polygon fill="black" stroke="black" points="565.71,-450.13 575.99,-447.56 566.35,-443.16 565.71,-450.13"/>
<polygon fill="black" stroke="black" points="329.05,-116.15 330.44,-105.65 322.8,-112.99 329.05,-116.15"/>
</g>
<!-- 17&#45;&gt;7 -->
<g id="edge88" class="edge">
<title>17&#45;&gt;7</title>
<path fill="none" stroke="black" d="M565.82,-445.43C503.29,-437.09 379.71,-409.96 337,-324 303.17,-255.91 322.76,-162.28 335.59,-117.26"/>
<polygon fill="black" stroke="black" points="565.68,-448.94 576.03,-446.69 566.54,-441.99 565.68,-448.94"/>
<polygon fill="black" stroke="black" points="338.95,-118.24 338.43,-107.66 332.24,-116.25 338.95,-118.24"/>
</g>
<!-- 17&#45;&gt;10 -->
<g id="edge51" class="edge">
<title>17&#45;&gt;10</title>
<path fill="none" stroke="black" d="M565.98,-446.3C515.07,-441.3 422.13,-428.02 350,-396 184.25,-322.42 -18.53,-207.49 102,-72 129.8,-40.75 420.8,-24.94 525.71,-20.4"/>
<polygon fill="black" stroke="black" points="565.9,-449.81 576.18,-447.25 566.54,-442.84 565.9,-449.81"/>
<polygon fill="black" stroke="black" points="526,-23.89 535.84,-19.98 525.7,-16.9 526,-23.89"/>
</g>
<!-- 17&#45;&gt;10 -->
<g id="edge91" class="edge">
<title>17&#45;&gt;10</title>
<path fill="none" stroke="black" d="M566.22,-444.97C518.65,-439.11 434.49,-425.51 368,-396 202.25,-322.42 -0.53,-207.49 120,-72 147.1,-41.53 424.44,-25.74 526.07,-20.76"/>
<polygon fill="black" stroke="black" points="566.01,-448.47 576.36,-446.17 566.84,-441.52 566.01,-448.47"/>
<polygon fill="black" stroke="black" points="526.36,-24.25 536.18,-20.28 526.03,-17.26 526.36,-24.25"/>
</g>
<!-- 18&#45;&gt;17 -->
<g id="edge60" class="edge">
<title>18&#45;&gt;17</title>
<path fill="none" stroke="black" d="M544.65,-399.19C555.37,-408.34 568.04,-419.15 578.82,-428.36"/>
<polygon fill="black" stroke="black" points="546.77,-396.39 536.89,-392.56 542.22,-401.72 546.77,-396.39"/>
<polygon fill="black" stroke="black" points="576.92,-431.34 586.8,-435.17 581.47,-426.02 576.92,-431.34"/>
</g>
<!-- 18&#45;&gt;17 -->
<g id="edge72" class="edge">
<title>18&#45;&gt;17</title>
<path fill="none" stroke="black" d="M550.92,-394.73C563.47,-403.67 577.25,-415.04 587.84,-425.06"/>
<polygon fill="black" stroke="black" points="552.71,-391.72 542.48,-388.98 548.77,-397.51 552.71,-391.72"/>
<polygon fill="black" stroke="black" points="585.68,-427.85 595.25,-432.41 590.61,-422.88 585.68,-427.85"/>
</g>
<!-- 18&#45;&gt;3 -->
<g id="edge55" class="edge">
<title>18&#45;&gt;3</title>
<path fill="none" stroke="black" d="M554.02,-365.67C592,-352.64 654,-331.36 691.99,-318.33"/>
<polygon fill="black" stroke="black" points="552.72,-362.41 544.4,-368.97 555,-369.03 552.72,-362.41"/>
<polygon fill="black" stroke="black" points="693.24,-321.6 701.56,-315.04 690.96,-314.98 693.24,-321.6"/>
</g>
<!-- 18&#45;&gt;5 -->
<g id="edge56" class="edge">
<title>18&#45;&gt;5</title>
<path fill="none" stroke="black" d="M536.62,-352.73C557.89,-325.52 595.5,-281.85 619.96,-256.04"/>
<polygon fill="black" stroke="black" points="533.6,-350.92 530.29,-360.99 539.15,-355.18 533.6,-350.92"/>
<polygon fill="black" stroke="black" points="622.68,-258.26 627.1,-248.64 617.64,-253.4 622.68,-258.26"/>
</g>
<!-- 18&#45;&gt;5 -->
<g id="edge63" class="edge">
<title>18&#45;&gt;5</title>
<path fill="none" stroke="black" d="M544.07,-355.92C568.58,-330.07 606.25,-286.32 627.48,-259.14"/>
<polygon fill="black" stroke="black" points="541.3,-353.76 536.88,-363.38 546.34,-358.62 541.3,-353.76"/>
<polygon fill="black" stroke="black" points="630.46,-261.01 633.76,-250.94 624.9,-256.75 630.46,-261.01"/>
</g>
<!-- 18&#45;&gt;4 -->
<g id="edge59" class="edge">
<title>18&#45;&gt;4</title>
<path fill="none" stroke="black" d="M490.33,-362.49C464.96,-350.5 429.1,-333.53 403.72,-321.53"/>
<polygon fill="black" stroke="black" points="488.94,-365.71 499.48,-366.82 491.94,-359.38 488.94,-365.71"/>
<polygon fill="black" stroke="black" points="405.08,-318.3 394.55,-317.19 402.09,-324.63 405.08,-318.3"/>
</g>
<!-- 18&#45;&gt;6 -->
<g id="edge64" class="edge">
<title>18&#45;&gt;6</title>
<path fill="none" stroke="black" d="M521.04,-349.93C527.82,-312.83 551.06,-247.24 598,-216 649.14,-181.97 835.3,-168.63 915.76,-164.53"/>
<polygon fill="black" stroke="black" points="517.55,-349.61 519.51,-360.02 524.47,-350.66 517.55,-349.61"/>
<polygon fill="black" stroke="black" points="916.12,-168.02 925.93,-164.03 915.78,-161.03 916.12,-168.02"/>
</g>
<!-- 18&#45;&gt;6 -->
<g id="edge67" class="edge">
<title>18&#45;&gt;6</title>
<path fill="none" stroke="black" d="M532.54,-351.25C545.27,-314.41 568.49,-247.61 616,-216 665.11,-183.33 838.69,-169.73 915.81,-165.07"/>
<polygon fill="black" stroke="black" points="529.2,-350.2 529.22,-360.8 535.81,-352.5 529.2,-350.2"/>
<polygon fill="black" stroke="black" points="916.25,-168.55 926.03,-164.47 915.84,-161.56 916.25,-168.55"/>
</g>
<!-- 18&#45;&gt;7 -->
<g id="edge68" class="edge">
<title>18&#45;&gt;7</title>
<path fill="none" stroke="black" d="M505.83,-352.49C472.42,-298.51 392.81,-169.87 359.29,-115.71"/>
<polygon fill="black" stroke="black" points="502.99,-354.55 511.23,-361.22 508.95,-350.87 502.99,-354.55"/>
<polygon fill="black" stroke="black" points="362.2,-113.75 353.96,-107.09 356.24,-117.43 362.2,-113.75"/>
</g>
<!-- 18&#45;&gt;10 -->
<g id="edge71" class="edge">
<title>18&#45;&gt;10</title>
<path fill="none" stroke="black" d="M496.78,-356.89C485.95,-347.4 473.32,-335.62 463,-324 375.66,-225.7 225.02,-174 308,-72 335.03,-38.77 461.71,-25.7 525.74,-21.15"/>
<polygon fill="black" stroke="black" points="494.79,-359.79 504.65,-363.66 499.35,-354.48 494.79,-359.79"/>
<polygon fill="black" stroke="black" points="526.09,-24.63 535.83,-20.46 525.61,-17.65 526.09,-24.63"/>
</g>
<!-- 3&#45;&gt;5 -->
<g id="edge73" class="edge">
<title>3&#45;&gt;5</title>
<path fill="none" stroke="black" d="M700.82,-284.36C690.04,-275.15 677.37,-264.34 666.65,-255.19"/>
<polygon fill="black" stroke="black" points="698.92,-287.34 708.8,-291.17 703.47,-282.02 698.92,-287.34"/>
<polygon fill="black" stroke="black" points="668.77,-252.39 658.89,-248.56 664.22,-257.72 668.77,-252.39"/>
</g>
<!-- 3&#45;&gt;6 -->
<g id="edge74" class="edge">
<title>3&#45;&gt;6</title>
<path fill="none" stroke="black" d="M750.35,-286.26C792.9,-258.03 877.97,-205.11 923.27,-178.75"/>
<polygon fill="black" stroke="black" points="748.29,-283.42 741.93,-291.9 752.18,-289.24 748.29,-283.42"/>
<polygon fill="black" stroke="black" points="925.12,-181.73 932.04,-173.7 921.63,-175.66 925.12,-181.73"/>
</g>
<!-- 3&#45;&gt;6 -->
<g id="edge77" class="edge">
<title>3&#45;&gt;6</title>
<path fill="none" stroke="black" d="M754.68,-289.27C799.9,-262.97 884.82,-210.15 927.45,-181.88"/>
<polygon fill="black" stroke="black" points="752.83,-286.3 745.91,-294.33 756.32,-292.37 752.83,-286.3"/>
<polygon fill="black" stroke="black" points="929.52,-184.71 935.88,-176.24 925.62,-178.89 929.52,-184.71"/>
</g>
<!-- 3&#45;&gt;7 -->
<g id="edge78" class="edge">
<title>3&#45;&gt;7</title>
<path fill="none" stroke="black" d="M722.36,-277.9C719.2,-258.61 712.25,-233.17 697,-216 613.04,-121.5 452.98,-98.44 380.86,-92.81"/>
<polygon fill="black" stroke="black" points="718.91,-278.47 723.76,-287.89 725.84,-277.5 718.91,-278.47"/>
<polygon fill="black" stroke="black" points="381.1,-89.32 370.87,-92.1 380.6,-96.3 381.1,-89.32"/>
</g>
<!-- 5&#45;&gt;17 -->
<g id="edge98" class="edge">
<title>5&#45;&gt;17</title>
<path fill="none" stroke="black" d="M651.94,-261.25C652.8,-303.14 637.44,-384.48 620.87,-424.94"/>
<polygon fill="black" stroke="black" points="655.43,-261.03 651.33,-251.26 648.44,-261.46 655.43,-261.03"/>
<polygon fill="black" stroke="black" points="617.57,-423.74 616.64,-434.29 623.95,-426.62 617.57,-423.74"/>
</g>
<!-- 5&#45;&gt;5 -->
<g id="edge75" class="edge">
<title>5&#45;&gt;5</title>
<path fill="none" stroke="black" d="M673.04,-247.44C681.5,-246.86 688,-242.38 688,-234 688,-225.62 681.5,-221.14 673.04,-220.56"/>
<polygon fill="black" stroke="black" points="673.19,-243.93 662.9,-246.43 672.5,-250.9 673.19,-243.93"/>
<polygon fill="black" stroke="black" points="672.5,-217.1 662.9,-221.57 673.19,-224.07 672.5,-217.1"/>
</g>
<!-- 5&#45;&gt;6 -->
<g id="edge76" class="edge">
<title>5&#45;&gt;6</title>
<path fill="none" stroke="black" d="M676.99,-223.12C736.27,-208.5 856.43,-181.49 917.06,-169.28"/>
<polygon fill="black" stroke="black" points="676.03,-219.76 667.17,-225.58 677.72,-226.55 676.03,-219.76"/>
<polygon fill="black" stroke="black" points="917.84,-172.69 926.96,-167.31 916.47,-165.83 917.84,-172.69"/>
</g>
<!-- 5&#45;&gt;6 -->
<g id="edge79" class="edge">
<title>5&#45;&gt;6</title>
<path fill="none" stroke="black" d="M677.98,-225.1C737.48,-211.66 857.76,-184.51 917.57,-171"/>
<polygon fill="black" stroke="black" points="677.09,-221.71 668.11,-227.33 678.63,-228.54 677.09,-221.71"/>
<polygon fill="black" stroke="black" points="918.68,-174.34 927.66,-168.72 917.13,-167.51 918.68,-174.34"/>
</g>
<!-- 5&#45;&gt;6 -->
<g id="edge93" class="edge">
<title>5&#45;&gt;6</title>
<path fill="none" stroke="black" d="M678.89,-226.73C739.41,-214.55 859.33,-187.59 918.73,-172.94"/>
<polygon fill="black" stroke="black" points="677.95,-223.35 668.82,-228.73 679.31,-230.21 677.95,-223.35"/>
<polygon fill="black" stroke="black" points="919.89,-176.26 928.75,-170.45 918.2,-169.47 919.89,-176.26"/>
</g>
<!-- 5&#45;&gt;7 -->
<g id="edge80" class="edge">
<title>5&#45;&gt;7</title>
<path fill="none" stroke="black" d="M612.29,-218.35C578.07,-199.82 521.5,-167.51 471,-144 438.81,-129.02 401.12,-114.56 375.07,-104.54"/>
<polygon fill="black" stroke="black" points="610.86,-221.55 621.32,-223.19 614.16,-215.38 610.86,-221.55"/>
<polygon fill="black" stroke="black" points="376.28,-101.26 365.69,-100.93 373.76,-107.79 376.28,-101.26"/>
</g>
<!-- 5&#45;&gt;7 -->
<g id="edge94" class="edge">
<title>5&#45;&gt;7</title>
<path fill="none" stroke="black" d="M617.67,-213.85C587.42,-194.91 535.62,-165.7 489,-144 452.26,-126.9 408.35,-110.48 378.37,-100.57"/>
<polygon fill="black" stroke="black" points="616.03,-216.95 626.34,-219.37 619.79,-211.05 616.03,-216.95"/>
<polygon fill="black" stroke="black" points="379.36,-97.21 368.77,-97.46 377.21,-103.87 379.36,-97.21"/>
</g>
<!-- 5&#45;&gt;10 -->
<g id="edge97" class="edge">
<title>5&#45;&gt;10</title>
<path fill="none" stroke="black" d="M633.14,-206.63C617.76,-165.47 588.21,-86.42 572.83,-45.3"/>
<polygon fill="black" stroke="black" points="629.94,-208.07 636.72,-216.21 636.5,-205.62 629.94,-208.07"/>
<polygon fill="black" stroke="black" points="576.03,-43.86 569.25,-35.71 569.47,-46.31 576.03,-43.86"/>
</g>
<!-- 4&#45;&gt;17 -->
<g id="edge90" class="edge">
<title>4&#45;&gt;17</title>
<path fill="none" stroke="black" d="M399.68,-325.44C423.56,-344.7 459.46,-374.98 494,-396 519.4,-411.46 550.09,-425.11 572.56,-434.68"/>
<polygon fill="black" stroke="black" points="401.75,-322.62 391.75,-319.12 397.39,-328.09 401.75,-322.62"/>
<polygon fill="black" stroke="black" points="571.38,-437.98 581.95,-438.65 574.11,-431.53 571.38,-437.98"/>
</g>
<!-- 4&#45;&gt;5 -->
<g id="edge81" class="edge">
<title>4&#45;&gt;5</title>
<path fill="none" stroke="black" d="M407.61,-296.03C459.43,-282.59 556.61,-257.4 608.41,-243.97"/>
<polygon fill="black" stroke="black" points="406.72,-292.64 397.92,-298.54 408.48,-299.42 406.72,-292.64"/>
<polygon fill="black" stroke="black" points="609.34,-247.34 618.14,-241.44 607.58,-240.57 609.34,-247.34"/>
</g>
<!-- 4&#45;&gt;6 -->
<g id="edge82" class="edge">
<title>4&#45;&gt;6</title>
<path fill="none" stroke="black" d="M389.05,-281.33C409.07,-260.33 444.25,-230.77 481,-216 559.42,-184.48 818.2,-169.11 915.63,-164.52"/>
<polygon fill="black" stroke="black" points="386.3,-279.16 382.16,-288.91 391.48,-283.87 386.3,-279.16"/>
<polygon fill="black" stroke="black" points="916.06,-168 925.89,-164.05 915.74,-161.01 916.06,-168"/>
</g>
<!-- 4&#45;&gt;6 -->
<g id="edge85" class="edge">
<title>4&#45;&gt;6</title>
<path fill="none" stroke="black" d="M398.48,-285.33C422.48,-264.26 459.85,-231.73 499,-216 575.17,-185.39 821.51,-170 915.89,-164.94"/>
<polygon fill="black" stroke="black" points="396.09,-282.77 390.88,-292 400.7,-288.04 396.09,-282.77"/>
<polygon fill="black" stroke="black" points="916.31,-168.43 926.11,-164.4 915.94,-161.43 916.31,-168.43"/>
</g>
<!-- 4&#45;&gt;7 -->
<g id="edge86" class="edge">
<title>4&#45;&gt;7</title>
<path fill="none" stroke="black" d="M369.3,-277.69C363.72,-236.51 353.21,-158.99 347.66,-118"/>
<polygon fill="black" stroke="black" points="365.86,-278.41 370.68,-287.85 372.8,-277.47 365.86,-278.41"/>
<polygon fill="black" stroke="black" points="351.11,-117.37 346.29,-107.94 344.17,-118.31 351.11,-117.37"/>
</g>
<!-- 4&#45;&gt;10 -->
<g id="edge89" class="edge">
<title>4&#45;&gt;10</title>
<path fill="none" stroke="black" d="M337.19,-298.94C281.28,-287.29 175.4,-255.83 134,-180 111,-137.87 102.21,-107.96 134,-72 159.84,-42.77 426.7,-26.06 526.03,-20.81"/>
<polygon fill="black" stroke="black" points="336.53,-302.38 347.02,-300.89 337.89,-295.51 336.53,-302.38"/>
<polygon fill="black" stroke="black" points="526.39,-24.3 536.2,-20.29 526.03,-17.31 526.39,-24.3"/>
</g>
<!-- 6&#45;&gt;17 -->
<g id="edge100" class="edge">
<title>6&#45;&gt;17</title>
<path fill="none" stroke="black" d="M951.07,-188.34C937.65,-206.58 912.43,-231.48 889,-252 810.87,-320.41 788.32,-334.02 705,-396 684.18,-411.49 659.52,-428.7 637.38,-439.19"/>
<polygon fill="black" stroke="black" points="954.02,-190.23 956.65,-179.97 948.19,-186.35 954.02,-190.23"/>
<polygon fill="black" stroke="black" points="635.83,-436.05 628.06,-443.25 638.63,-442.46 635.83,-436.05"/>
</g>
<!-- 6&#45;&gt;17 -->
<g id="edge102" class="edge">
<title>6&#45;&gt;17</title>
<path fill="none" stroke="black" d="M967.8,-185.1C958.71,-203.54 931.85,-230.24 907,-252 828.87,-320.41 806.32,-334.02 723,-396 699.23,-413.68 670.46,-433.61 639.27,-443.22"/>
<polygon fill="black" stroke="black" points="971.14,-186.13 970.92,-175.54 964.49,-183.96 971.14,-186.13"/>
<polygon fill="black" stroke="black" points="638.26,-439.86 629.51,-445.85 640.08,-446.62 638.26,-439.86"/>
</g>
<!-- 6&#45;&gt;6 -->
<g id="edge95" class="edge">
<title>6&#45;&gt;6</title>
<path fill="none" stroke="black" d="M983.04,-175.44C991.5,-174.86 998,-170.38 998,-162 998,-153.62 991.5,-149.14 983.04,-148.56"/>
<polygon fill="black" stroke="black" points="983.19,-171.93 972.9,-174.43 982.5,-178.9 983.19,-171.93"/>
<polygon fill="black" stroke="black" points="982.5,-145.1 972.9,-149.57 983.19,-152.07 982.5,-145.1"/>
</g>
<!-- 6&#45;&gt;7 -->
<g id="edge96" class="edge">
<title>6&#45;&gt;7</title>
<path fill="none" stroke="black" d="M916.3,-156.78C807.69,-144.3 488.75,-107.64 380.46,-95.19"/>
<polygon fill="black" stroke="black" points="916.11,-160.28 926.44,-157.95 916.91,-153.33 916.11,-160.28"/>
<polygon fill="black" stroke="black" points="380.69,-91.69 370.36,-94.03 379.89,-98.65 380.69,-91.69"/>
</g>
<!-- 6&#45;&gt;10 -->
<g id="edge99" class="edge">
<title>6&#45;&gt;10</title>
<path fill="none" stroke="black" d="M921.92,-147C884,-127.92 818.25,-93.67 759,-72 703.86,-51.83 637.72,-36.2 597.96,-27.29"/>
<polygon fill="black" stroke="black" points="920.43,-150.16 930.94,-151.5 923.56,-143.9 920.43,-150.16"/>
<polygon fill="black" stroke="black" points="598.48,-23.82 587.96,-25.07 596.96,-30.65 598.48,-23.82"/>
</g>
<!-- 6&#45;&gt;10 -->
<g id="edge101" class="edge">
<title>6&#45;&gt;10</title>
<path fill="none" stroke="black" d="M926.73,-142.75C892.77,-123.16 832.07,-92.15 777,-72 716.4,-49.83 642.53,-33.15 599.17,-24.85"/>
<polygon fill="black" stroke="black" points="925.17,-145.9 935.57,-147.95 928.73,-139.86 925.17,-145.9"/>
<polygon fill="black" stroke="black" points="599.56,-21.36 589.09,-22.97 598.28,-28.24 599.56,-21.36"/>
</g>
<!-- 7&#45;&gt;17 -->
<g id="edge104" class="edge">
<title>7&#45;&gt;17</title>
<path fill="none" stroke="black" d="M346.36,-118.17C340.5,-163.53 321.4,-256.37 355,-324 395.27,-405.04 507.41,-433.79 566.52,-443.8"/>
<polygon fill="black" stroke="black" points="349.87,-118.28 347.5,-107.96 342.91,-117.51 349.87,-118.28"/>
<polygon fill="black" stroke="black" points="566.14,-447.29 576.57,-445.41 567.25,-440.37 566.14,-447.29"/>
</g>
<!-- 7&#45;&gt;10 -->
<g id="edge103" class="edge">
<title>7&#45;&gt;10</title>
<path fill="none" stroke="black" d="M377.66,-78.24C418.93,-65.05 488.46,-42.83 529.61,-29.67"/>
<polygon fill="black" stroke="black" points="376.31,-75 367.85,-81.38 378.44,-81.66 376.31,-75"/>
<polygon fill="black" stroke="black" points="530.72,-32.99 539.18,-26.62 528.58,-26.33 530.72,-32.99"/>
</g>
<!-- 12 -->
<g id="node11" class="node">
<title>12</title>
<ellipse fill="none" stroke="black" cx="675" cy="-594" rx="27" ry="18"/>
<text text-anchor="middle" x="675" y="-590.3" font-family="Times,serif" font-size="14.00">12</text>
</g>
<!-- 15 -->
<g id="node12" class="node">
<title>15</title>
<ellipse fill="none" stroke="black" cx="747" cy="-594" rx="27" ry="18"/>
<text text-anchor="middle" x="747" y="-590.3" font-family="Times,serif" font-size="14.00">15</text>
</g>
<!-- annotation -->
<g id="node13" class="node">
<title>annotation</title>
<text text-anchor="middle" x="954" y="-590.9" font-family="Times,serif" font-size="12.00">Nodes: 9, Edges: 26, Coverage: 0.7191166321601105</text>
</g>
</g>
</svg>
