<?xml version="1.0" encoding="UTF-8" standalone="no"?>
<!DOCTYPE svg PUBLIC "-//W3C//DTD SVG 1.1//EN"
 "http://www.w3.org/Graphics/SVG/1.1/DTD/svg11.dtd">
<!-- Generated by graphviz version 2.43.0 (0)
 -->
<!-- Title: IRIS region connectivity Pages: 1 -->
<svg width="854pt" height="548pt"
 viewBox="0.00 0.00 854.00 548.00" xmlns="http://www.w3.org/2000/svg" xmlns:xlink="http://www.w3.org/1999/xlink">
<g id="graph0" class="graph" transform="scale(1 1) rotate(0) translate(4 544)">
<title>IRIS region connectivity</title>
<polygon fill="white" stroke="transparent" points="-4,4 -4,-544 850,-544 850,4 -4,4"/>
<!-- 0 -->
<g id="node1" class="node">
<title>0</title>
<ellipse fill="none" stroke="black" cx="325" cy="-522" rx="27" ry="18"/>
<text text-anchor="middle" x="325" y="-518.3" font-family="Times,serif" font-size="14.00">0</text>
</g>
<!-- 2 -->
<g id="node2" class="node">
<title>2</title>
<ellipse fill="none" stroke="black" cx="362" cy="-450" rx="27" ry="18"/>
<text text-anchor="middle" x="362" y="-446.3" font-family="Times,serif" font-size="14.00">2</text>
</g>
<!-- 0&#45;&gt;2 -->
<g id="edge9" class="edge">
<title>0&#45;&gt;2</title>
<path fill="none" stroke="black" d="M338.37,-495.7C341.75,-489.3 345.38,-482.44 348.76,-476.05"/>
<polygon fill="black" stroke="black" points="335.16,-494.29 333.58,-504.76 341.35,-497.56 335.16,-494.29"/>
<polygon fill="black" stroke="black" points="351.89,-477.62 353.46,-467.15 345.7,-474.35 351.89,-477.62"/>
</g>
<!-- 1 -->
<g id="node3" class="node">
<title>1</title>
<ellipse fill="none" stroke="black" cx="293" cy="-306" rx="27" ry="18"/>
<text text-anchor="middle" x="293" y="-302.3" font-family="Times,serif" font-size="14.00">1</text>
</g>
<!-- 0&#45;&gt;1 -->
<g id="edge1" class="edge">
<title>0&#45;&gt;1</title>
<path fill="none" stroke="black" d="M316.38,-494.38C307.45,-453.42 295.77,-375.4 292.38,-334.14"/>
<polygon fill="black" stroke="black" points="312.99,-495.25 318.65,-504.21 319.81,-493.68 312.99,-495.25"/>
<polygon fill="black" stroke="black" points="295.86,-333.74 291.68,-324.01 288.88,-334.23 295.86,-333.74"/>
</g>
<!-- 0&#45;&gt;1 -->
<g id="edge5" class="edge">
<title>0&#45;&gt;1</title>
<path fill="none" stroke="black" d="M325.6,-493.66C322.18,-452.27 310.49,-374.23 301.57,-333.41"/>
<polygon fill="black" stroke="black" points="322.12,-494.12 326.31,-503.85 329.11,-493.63 322.12,-494.12"/>
<polygon fill="black" stroke="black" points="304.98,-332.6 299.32,-323.64 298.16,-334.17 304.98,-332.6"/>
</g>
<!-- 4 -->
<g id="node4" class="node">
<title>4</title>
<ellipse fill="none" stroke="black" cx="578" cy="-378" rx="27" ry="18"/>
<text text-anchor="middle" x="578" y="-374.3" font-family="Times,serif" font-size="14.00">4</text>
</g>
<!-- 0&#45;&gt;4 -->
<g id="edge2" class="edge">
<title>0&#45;&gt;4</title>
<path fill="none" stroke="black" d="M355.19,-506.13C357.13,-505.36 359.08,-504.64 361,-504 435.47,-479.06 471.88,-516.05 534,-468 553.85,-452.64 565.36,-425.96 571.59,-405.81"/>
<polygon fill="black" stroke="black" points="353.4,-503.09 345.6,-510.26 356.16,-509.52 353.4,-503.09"/>
<polygon fill="black" stroke="black" points="575.02,-406.53 574.38,-395.96 568.28,-404.62 575.02,-406.53"/>
</g>
<!-- 6 -->
<g id="node5" class="node">
<title>6</title>
<ellipse fill="none" stroke="black" cx="443" cy="-234" rx="27" ry="18"/>
<text text-anchor="middle" x="443" y="-230.3" font-family="Times,serif" font-size="14.00">6</text>
</g>
<!-- 0&#45;&gt;6 -->
<g id="edge6" class="edge">
<title>0&#45;&gt;6</title>
<path fill="none" stroke="black" d="M354.52,-505.52C379.59,-492.1 412.12,-473.93 416,-468 457.9,-403.96 452.83,-308.38 447.18,-262.07"/>
<polygon fill="black" stroke="black" points="352.87,-502.43 345.69,-510.22 356.16,-508.61 352.87,-502.43"/>
<polygon fill="black" stroke="black" points="450.61,-261.38 445.83,-251.93 443.68,-262.3 450.61,-261.38"/>
</g>
<!-- 3 -->
<g id="node6" class="node">
<title>3</title>
<ellipse fill="none" stroke="black" cx="445" cy="-162" rx="27" ry="18"/>
<text text-anchor="middle" x="445" y="-158.3" font-family="Times,serif" font-size="14.00">3</text>
</g>
<!-- 0&#45;&gt;3 -->
<g id="edge10" class="edge">
<title>0&#45;&gt;3</title>
<path fill="none" stroke="black" d="M351.69,-504.1C351.79,-504.07 351.9,-504.03 352,-504 438.02,-476.48 475.34,-515.76 552,-468 585.73,-446.99 592.6,-433.75 605,-396 630.43,-318.57 624.89,-276.24 570,-216 546.44,-190.14 508.64,-176.72 480.65,-169.86"/>
<polygon fill="black" stroke="black" points="350.2,-500.92 342.09,-507.74 352.68,-507.47 350.2,-500.92"/>
<polygon fill="black" stroke="black" points="481.36,-166.43 470.83,-167.62 479.8,-173.26 481.36,-166.43"/>
</g>
<!-- 0&#45;&gt;3 -->
<g id="edge13" class="edge">
<title>0&#45;&gt;3</title>
<path fill="none" stroke="black" d="M357.78,-508.65C361.87,-506.91 366,-505.28 370,-504 456.02,-476.48 493.34,-515.76 570,-468 603.73,-446.99 610.6,-433.75 623,-396 648.43,-318.57 642.89,-276.24 588,-216 560.71,-186.05 514.31,-172.78 481.63,-167.08"/>
<polygon fill="black" stroke="black" points="356.11,-505.56 348.38,-512.8 358.94,-511.96 356.11,-505.56"/>
<polygon fill="black" stroke="black" points="481.97,-163.59 471.54,-165.48 480.87,-170.5 481.97,-163.59"/>
</g>
<!-- 7 -->
<g id="node7" class="node">
<title>7</title>
<ellipse fill="none" stroke="black" cx="269" cy="-90" rx="27" ry="18"/>
<text text-anchor="middle" x="269" y="-86.3" font-family="Times,serif" font-size="14.00">7</text>
</g>
<!-- 0&#45;&gt;7 -->
<g id="edge14" class="edge">
<title>0&#45;&gt;7</title>
<path fill="none" stroke="black" d="M287.7,-519.26C209.86,-513.42 38,-488.09 38,-379 38,-379 38,-379 38,-233 38,-143.54 167.52,-107.9 232.71,-96.05"/>
<polygon fill="black" stroke="black" points="287.82,-522.78 298.03,-519.96 288.3,-515.79 287.82,-522.78"/>
<polygon fill="black" stroke="black" points="233.33,-99.5 242.59,-94.35 232.14,-92.6 233.33,-99.5"/>
</g>
<!-- 0&#45;&gt;7 -->
<g id="edge17" class="edge">
<title>0&#45;&gt;7</title>
<path fill="none" stroke="black" d="M287.93,-518.44C214.02,-511.19 56,-483.6 56,-379 56,-379 56,-379 56,-233 56,-148.23 172.29,-111.78 233.12,-98.12"/>
<polygon fill="black" stroke="black" points="287.92,-521.95 298.2,-519.37 288.55,-514.98 287.92,-521.95"/>
<polygon fill="black" stroke="black" points="234.05,-101.5 243.09,-95.97 232.58,-94.65 234.05,-101.5"/>
</g>
<!-- 9 -->
<g id="node8" class="node">
<title>9</title>
<ellipse fill="none" stroke="black" cx="417" cy="-18" rx="27" ry="18"/>
<text text-anchor="middle" x="417" y="-14.3" font-family="Times,serif" font-size="14.00">9</text>
</g>
<!-- 0&#45;&gt;9 -->
<g id="edge18" class="edge">
<title>0&#45;&gt;9</title>
<path fill="none" stroke="black" d="M287.81,-521.32C202.5,-519.9 0,-503.42 0,-379 0,-379 0,-379 0,-161 0,-80.95 278.85,-36.86 380.49,-23.45"/>
<polygon fill="black" stroke="black" points="287.81,-524.82 297.85,-521.42 287.89,-517.82 287.81,-524.82"/>
<polygon fill="black" stroke="black" points="381.13,-26.9 390.6,-22.15 380.23,-19.96 381.13,-26.9"/>
</g>
<!-- 2&#45;&gt;2 -->
<g id="edge11" class="edge">
<title>2&#45;&gt;2</title>
<path fill="none" stroke="black" d="M392.04,-463.44C400.5,-462.86 407,-458.38 407,-450 407,-441.62 400.5,-437.14 392.04,-436.56"/>
<polygon fill="black" stroke="black" points="392.19,-459.93 381.9,-462.43 391.5,-466.9 392.19,-459.93"/>
<polygon fill="black" stroke="black" points="391.5,-433.1 381.9,-437.57 392.19,-440.07 391.5,-433.1"/>
</g>
<!-- 2&#45;&gt;1 -->
<g id="edge3" class="edge">
<title>2&#45;&gt;1</title>
<path fill="none" stroke="black" d="M337.2,-428.37C318.29,-403.39 297.32,-361.24 289.76,-333.77"/>
<polygon fill="black" stroke="black" points="334.71,-430.86 343.74,-436.4 340.13,-426.43 334.71,-430.86"/>
<polygon fill="black" stroke="black" points="293.1,-332.67 287.5,-323.68 286.27,-334.2 293.1,-332.67"/>
</g>
<!-- 2&#45;&gt;1 -->
<g id="edge7" class="edge">
<title>2&#45;&gt;1</title>
<path fill="none" stroke="black" d="M344.89,-424.58C330.6,-399.2 311.32,-359.62 300.48,-333.5"/>
<polygon fill="black" stroke="black" points="342.04,-426.64 350.08,-433.53 348.09,-423.13 342.04,-426.64"/>
<polygon fill="black" stroke="black" points="303.73,-332.2 296.77,-324.21 297.23,-334.8 303.73,-332.2"/>
</g>
<!-- 2&#45;&gt;4 -->
<g id="edge4" class="edge">
<title>2&#45;&gt;4</title>
<path fill="none" stroke="black" d="M394.24,-436.85C434.49,-423.11 502.76,-401.04 543.88,-388.5"/>
<polygon fill="black" stroke="black" points="393,-433.57 384.68,-440.13 395.28,-440.19 393,-433.57"/>
<polygon fill="black" stroke="black" points="544.9,-391.85 553.46,-385.61 542.88,-385.15 544.9,-391.85"/>
</g>
<!-- 2&#45;&gt;6 -->
<g id="edge8" class="edge">
<title>2&#45;&gt;6</title>
<path fill="none" stroke="black" d="M360.75,-421.79C364.88,-389.04 378.38,-332.85 399,-288 404.2,-276.69 411.62,-265.04 419.07,-255.56"/>
<polygon fill="black" stroke="black" points="357.24,-421.64 359.71,-431.95 364.21,-422.35 357.24,-421.64"/>
<polygon fill="black" stroke="black" points="421.8,-257.75 425.56,-247.85 416.44,-253.24 421.8,-257.75"/>
</g>
<!-- 2&#45;&gt;3 -->
<g id="edge12" class="edge">
<title>2&#45;&gt;3</title>
<path fill="none" stroke="black" d="M371.8,-423.33C394.7,-387.69 443.59,-319.91 461,-252 464.97,-236.5 465.5,-231.35 461,-216 458.26,-206.65 453.31,-197.39 448.77,-189.28"/>
<polygon fill="black" stroke="black" points="368.65,-421.76 366.32,-432.09 374.59,-425.47 368.65,-421.76"/>
<polygon fill="black" stroke="black" points="451.73,-187.4 443.8,-180.37 445.61,-190.81 451.73,-187.4"/>
</g>
<!-- 2&#45;&gt;3 -->
<g id="edge15" class="edge">
<title>2&#45;&gt;3</title>
<path fill="none" stroke="black" d="M381.79,-425.96C410.22,-391.1 461.16,-321.62 479,-252 482.97,-236.5 483.5,-231.35 479,-216 475.91,-205.46 470,-195.02 463.97,-186.24"/>
<polygon fill="black" stroke="black" points="378.76,-424.12 375.08,-434.05 384.15,-428.59 378.76,-424.12"/>
<polygon fill="black" stroke="black" points="466.72,-184.07 458,-178.06 461.07,-188.2 466.72,-184.07"/>
</g>
<!-- 2&#45;&gt;3 -->
<g id="edge49" class="edge">
<title>2&#45;&gt;3</title>
<path fill="none" stroke="black" d="M388.92,-430.4C423.62,-397.29 478.36,-324.72 497,-252 500.97,-236.5 501.5,-231.35 497,-216 493.08,-202.62 484.63,-189.43 474.91,-179.55"/>
<polygon fill="black" stroke="black" points="386.46,-427.91 381.42,-437.22 391.17,-433.09 386.46,-427.91"/>
<polygon fill="black" stroke="black" points="477.06,-176.77 467.29,-172.69 472.38,-181.98 477.06,-176.77"/>
</g>
<!-- 2&#45;&gt;7 -->
<g id="edge16" class="edge">
<title>2&#45;&gt;7</title>
<path fill="none" stroke="black" d="M325.95,-443.38C263.84,-429.43 150,-388.31 150,-307 150,-307 150,-307 150,-233 150,-177.89 199.41,-127.3 236.43,-104.19"/>
<polygon fill="black" stroke="black" points="325.31,-446.83 335.82,-445.46 326.75,-439.98 325.31,-446.83"/>
<polygon fill="black" stroke="black" points="238.64,-106.96 245.54,-98.92 235.13,-100.9 238.64,-106.96"/>
</g>
<!-- 2&#45;&gt;7 -->
<g id="edge19" class="edge">
<title>2&#45;&gt;7</title>
<path fill="none" stroke="black" d="M326.69,-441.05C270.59,-425.16 168,-384.19 168,-307 168,-307 168,-307 168,-233 168,-181.45 211.24,-133.84 241.33,-109"/>
<polygon fill="black" stroke="black" points="326.03,-444.5 336.59,-443.73 327.85,-437.74 326.03,-444.5"/>
<polygon fill="black" stroke="black" points="243.74,-111.56 249.42,-102.61 239.4,-106.06 243.74,-111.56"/>
</g>
<!-- 2&#45;&gt;7 -->
<g id="edge50" class="edge">
<title>2&#45;&gt;7</title>
<path fill="none" stroke="black" d="M328.24,-438.02C276.99,-420.26 186,-379.69 186,-307 186,-307 186,-307 186,-233 186,-184.55 224.19,-139.59 248.95,-113.73"/>
<polygon fill="black" stroke="black" points="327.32,-441.4 337.92,-441.27 329.55,-434.77 327.32,-441.4"/>
<polygon fill="black" stroke="black" points="251.68,-115.94 256.15,-106.33 246.67,-111.06 251.68,-115.94"/>
</g>
<!-- 2&#45;&gt;7 -->
<g id="edge53" class="edge">
<title>2&#45;&gt;7</title>
<path fill="none" stroke="black" d="M331.64,-434.65C284.61,-415.38 204,-375.42 204,-307 204,-307 204,-307 204,-233 204,-186.02 239.9,-142.32 260.27,-116.14"/>
<polygon fill="black" stroke="black" points="330.54,-437.98 341.12,-438.45 333.14,-431.48 330.54,-437.98"/>
<polygon fill="black" stroke="black" points="263.23,-118.03 266.51,-107.95 257.66,-113.79 263.23,-118.03"/>
</g>
<!-- 2&#45;&gt;9 -->
<g id="edge20" class="edge">
<title>2&#45;&gt;9</title>
<path fill="none" stroke="black" d="M398.26,-444.27C499.67,-430.74 778,-387.58 778,-307 778,-307 778,-307 778,-161 778,-111.75 753.91,-97.85 712,-72 668.74,-45.32 522.58,-29.07 453.5,-22.45"/>
<polygon fill="black" stroke="black" points="397.64,-440.82 388.18,-445.59 398.55,-447.76 397.64,-440.82"/>
<polygon fill="black" stroke="black" points="453.78,-18.96 443.5,-21.51 453.13,-25.93 453.78,-18.96"/>
</g>
<!-- 2&#45;&gt;9 -->
<g id="edge54" class="edge">
<title>2&#45;&gt;9</title>
<path fill="none" stroke="black" d="M398.56,-445.24C503.29,-432.91 796,-389.64 796,-307 796,-307 796,-307 796,-161 796,-111.75 771.91,-97.85 730,-72 684.69,-44.06 526.54,-27.56 453.83,-21.58"/>
<polygon fill="black" stroke="black" points="397.99,-441.79 388.46,-446.41 398.79,-448.74 397.99,-441.79"/>
<polygon fill="black" stroke="black" points="453.99,-18.08 443.74,-20.77 453.43,-25.05 453.99,-18.08"/>
</g>
<!-- 1&#45;&gt;2 -->
<g id="edge25" class="edge">
<title>1&#45;&gt;2</title>
<path fill="none" stroke="black" d="M310.16,-331.5C324.44,-356.89 343.71,-396.43 354.53,-422.52"/>
<polygon fill="black" stroke="black" points="312.99,-329.42 304.95,-322.52 306.94,-332.93 312.99,-329.42"/>
<polygon fill="black" stroke="black" points="351.41,-424.16 358.37,-432.15 357.92,-421.57 351.41,-424.16"/>
</g>
<!-- 1&#45;&gt;2 -->
<g id="edge37" class="edge">
<title>1&#45;&gt;2</title>
<path fill="none" stroke="black" d="M317.88,-327.73C336.74,-352.7 357.64,-394.7 365.21,-422.14"/>
<polygon fill="black" stroke="black" points="320.34,-325.21 311.31,-319.66 314.91,-329.62 320.34,-325.21"/>
<polygon fill="black" stroke="black" points="361.86,-423.17 367.48,-432.15 368.69,-421.63 361.86,-423.17"/>
</g>
<!-- 1&#45;&gt;1 -->
<g id="edge21" class="edge">
<title>1&#45;&gt;1</title>
<path fill="none" stroke="black" d="M323.04,-319.44C331.5,-318.86 338,-314.38 338,-306 338,-297.62 331.5,-293.14 323.04,-292.56"/>
<polygon fill="black" stroke="black" points="323.19,-315.93 312.9,-318.43 322.5,-322.9 323.19,-315.93"/>
<polygon fill="black" stroke="black" points="322.5,-289.1 312.9,-293.57 323.19,-296.07 322.5,-289.1"/>
</g>
<!-- 1&#45;&gt;6 -->
<g id="edge22" class="edge">
<title>1&#45;&gt;6</title>
<path fill="none" stroke="black" d="M323.8,-290.63C349.65,-278.56 386.38,-261.42 412.22,-249.36"/>
<polygon fill="black" stroke="black" points="322.07,-287.57 314.49,-294.97 325.03,-293.91 322.07,-287.57"/>
<polygon fill="black" stroke="black" points="413.97,-252.41 421.55,-245.01 411.01,-246.07 413.97,-252.41"/>
</g>
<!-- 1&#45;&gt;3 -->
<g id="edge26" class="edge">
<title>1&#45;&gt;3</title>
<path fill="none" stroke="black" d="M303.72,-280.22C328.32,-251.01 380.18,-203.34 414.82,-178.76"/>
<polygon fill="black" stroke="black" points="300.88,-278.16 297.37,-288.15 306.35,-282.53 300.88,-278.16"/>
<polygon fill="black" stroke="black" points="416.93,-181.56 423.23,-173.04 412.99,-175.77 416.93,-181.56"/>
</g>
<!-- 1&#45;&gt;3 -->
<g id="edge29" class="edge">
<title>1&#45;&gt;3</title>
<path fill="none" stroke="black" d="M312.19,-282.3C339.46,-254.7 388.94,-208.56 419.32,-182.49"/>
<polygon fill="black" stroke="black" points="309.36,-280.19 304.9,-289.8 314.38,-285.07 309.36,-280.19"/>
<polygon fill="black" stroke="black" points="421.6,-185.14 426.97,-176.01 417.08,-179.8 421.6,-185.14"/>
</g>
<!-- 1&#45;&gt;3 -->
<g id="edge38" class="edge">
<title>1&#45;&gt;3</title>
<path fill="none" stroke="black" d="M318.78,-285.42C349.24,-259.28 398.8,-213.06 426,-185.51"/>
<polygon fill="black" stroke="black" points="316.21,-283.02 310.84,-292.15 320.73,-288.36 316.21,-283.02"/>
<polygon fill="black" stroke="black" points="428.58,-187.87 433.04,-178.26 423.56,-182.99 428.58,-187.87"/>
</g>
<!-- 1&#45;&gt;3 -->
<g id="edge41" class="edge">
<title>1&#45;&gt;3</title>
<path fill="none" stroke="black" d="M323.39,-289.09C357.91,-264.55 409.37,-217.26 434.03,-188.09"/>
<polygon fill="black" stroke="black" points="320.98,-286.49 314.69,-295.01 324.93,-292.28 320.98,-286.49"/>
<polygon fill="black" stroke="black" points="436.97,-190.01 440.5,-180.02 431.51,-185.62 436.97,-190.01"/>
</g>
<!-- 1&#45;&gt;7 -->
<g id="edge30" class="edge">
<title>1&#45;&gt;7</title>
<path fill="none" stroke="black" d="M276.79,-280.52C263.27,-239.78 254.05,-158.42 258.14,-116.81"/>
<polygon fill="black" stroke="black" points="273.53,-281.81 280.31,-289.95 280.09,-279.36 273.53,-281.81"/>
<polygon fill="black" stroke="black" points="261.61,-117.28 259.52,-106.9 254.68,-116.32 261.61,-117.28"/>
</g>
<!-- 1&#45;&gt;7 -->
<g id="edge33" class="edge">
<title>1&#45;&gt;7</title>
<path fill="none" stroke="black" d="M285.37,-278.38C277.98,-237.42 269.22,-159.4 267.37,-118.14"/>
<polygon fill="black" stroke="black" points="281.94,-279.05 287.27,-288.21 288.81,-277.73 281.94,-279.05"/>
<polygon fill="black" stroke="black" points="270.86,-117.89 267.04,-108.01 263.87,-118.12 270.86,-117.89"/>
</g>
<!-- 1&#45;&gt;7 -->
<g id="edge42" class="edge">
<title>1&#45;&gt;7</title>
<path fill="none" stroke="black" d="M294.62,-277.66C292.75,-236.36 284.01,-158.56 276.63,-117.67"/>
<polygon fill="black" stroke="black" points="291.13,-277.97 294.95,-287.85 298.13,-277.74 291.13,-277.97"/>
<polygon fill="black" stroke="black" points="280.03,-116.79 274.69,-107.64 273.16,-118.12 280.03,-116.79"/>
</g>
<!-- 1&#45;&gt;7 -->
<g id="edge45" class="edge">
<title>1&#45;&gt;7</title>
<path fill="none" stroke="black" d="M303.88,-279C307.92,-237.35 298.72,-156.25 285.23,-115.55"/>
<polygon fill="black" stroke="black" points="300.41,-278.53 302.52,-288.92 307.34,-279.48 300.41,-278.53"/>
<polygon fill="black" stroke="black" points="288.49,-114.26 281.72,-106.12 281.93,-116.71 288.49,-114.26"/>
</g>
<!-- 1&#45;&gt;9 -->
<g id="edge34" class="edge">
<title>1&#45;&gt;9</title>
<path fill="none" stroke="black" d="M271.26,-282.98C235.72,-238.63 174.92,-137.22 224,-72 242.42,-47.52 329.69,-30.82 380.48,-23.38"/>
<polygon fill="black" stroke="black" points="268.69,-285.37 277.78,-290.82 274.08,-280.89 268.69,-285.37"/>
<polygon fill="black" stroke="black" points="381.01,-26.84 390.42,-21.98 380.03,-19.91 381.01,-26.84"/>
</g>
<!-- 1&#45;&gt;9 -->
<g id="edge46" class="edge">
<title>1&#45;&gt;9</title>
<path fill="none" stroke="black" d="M279.48,-280.12C251.23,-234.4 193.94,-135.85 242,-72 259.05,-49.34 335.09,-33.35 381.26,-25.2"/>
<polygon fill="black" stroke="black" points="276.62,-282.14 284.87,-288.79 282.57,-278.45 276.62,-282.14"/>
<polygon fill="black" stroke="black" points="381.93,-28.63 391.18,-23.48 380.73,-21.73 381.93,-28.63"/>
</g>
<!-- 4&#45;&gt;2 -->
<g id="edge27" class="edge">
<title>4&#45;&gt;2</title>
<path fill="none" stroke="black" d="M545.76,-391.15C505.7,-404.82 437.9,-426.75 396.72,-439.31"/>
<polygon fill="black" stroke="black" points="546.99,-394.43 555.31,-387.87 544.72,-387.81 546.99,-394.43"/>
<polygon fill="black" stroke="black" points="395.45,-436.04 386.89,-442.29 397.47,-442.74 395.45,-436.04"/>
</g>
<!-- 4&#45;&gt;1 -->
<g id="edge23" class="edge">
<title>4&#45;&gt;1</title>
<path fill="none" stroke="black" d="M542.82,-368.36C487.89,-354.87 382.39,-328.96 327.74,-315.53"/>
<polygon fill="black" stroke="black" points="542.16,-371.8 552.71,-370.79 543.83,-365 542.16,-371.8"/>
<polygon fill="black" stroke="black" points="328.37,-312.08 317.83,-313.1 326.7,-318.88 328.37,-312.08"/>
</g>
<!-- 4&#45;&gt;6 -->
<g id="edge24" class="edge">
<title>4&#45;&gt;6</title>
<path fill="none" stroke="black" d="M557.14,-355.05C531.84,-328.44 489.44,-283.84 464.05,-257.14"/>
<polygon fill="black" stroke="black" points="554.63,-357.5 564.06,-362.34 559.71,-352.68 554.63,-357.5"/>
<polygon fill="black" stroke="black" points="466.49,-254.63 457.07,-249.79 461.42,-259.45 466.49,-254.63"/>
</g>
<!-- 4&#45;&gt;3 -->
<g id="edge28" class="edge">
<title>4&#45;&gt;3</title>
<path fill="none" stroke="black" d="M573.63,-349.79C571.76,-315.28 568.41,-255.51 539,-216 523.87,-195.67 498.67,-182.51 478.06,-174.39"/>
<polygon fill="black" stroke="black" points="570.15,-350.27 574.22,-360.05 577.14,-349.87 570.15,-350.27"/>
<polygon fill="black" stroke="black" points="479.26,-171.1 468.67,-170.9 476.82,-177.66 479.26,-171.1"/>
</g>
<!-- 4&#45;&gt;3 -->
<g id="edge31" class="edge">
<title>4&#45;&gt;3</title>
<path fill="none" stroke="black" d="M586.05,-349.79C589.76,-315.28 586.41,-255.51 557,-216 538.87,-191.65 506.31,-177.59 480.79,-170.15"/>
<polygon fill="black" stroke="black" points="582.54,-349.67 584.63,-360.05 589.47,-350.63 582.54,-349.67"/>
<polygon fill="black" stroke="black" points="481.62,-166.74 471.05,-167.53 479.8,-173.5 481.62,-166.74"/>
</g>
<!-- 4&#45;&gt;7 -->
<g id="edge32" class="edge">
<title>4&#45;&gt;7</title>
<path fill="none" stroke="black" d="M582.83,-350.41C585.94,-342.16 589.23,-332.89 591,-324 600.56,-276.04 596.01,-257.41 570,-216 544.55,-175.49 532.44,-166.07 490,-144 429.8,-112.69 351.24,-99.71 305.7,-94.44"/>
<polygon fill="black" stroke="black" points="579.52,-349.29 579.26,-359.88 586.06,-351.76 579.52,-349.29"/>
<polygon fill="black" stroke="black" points="306.01,-90.96 295.68,-93.35 305.25,-97.92 306.01,-90.96"/>
</g>
<!-- 4&#45;&gt;7 -->
<g id="edge35" class="edge">
<title>4&#45;&gt;7</title>
<path fill="none" stroke="black" d="M598.32,-353.86C602.97,-344.79 606.98,-334.15 609,-324 618.56,-276.04 614.01,-257.41 588,-216 562.55,-175.49 550.44,-166.07 508,-144 442.47,-109.91 355.18,-97.55 306.12,-93.22"/>
<polygon fill="black" stroke="black" points="595.23,-352.22 593.31,-362.64 601.31,-355.69 595.23,-352.22"/>
<polygon fill="black" stroke="black" points="306.22,-89.72 295.97,-92.39 305.65,-96.69 306.22,-89.72"/>
</g>
<!-- 4&#45;&gt;9 -->
<g id="edge36" class="edge">
<title>4&#45;&gt;9</title>
<path fill="none" stroke="black" d="M611.11,-365.19C658.49,-345.93 740,-302.91 740,-235 740,-235 740,-235 740,-161 740,-37.34 539.16,-20.41 454.22,-18.78"/>
<polygon fill="black" stroke="black" points="609.58,-362.03 601.56,-368.95 612.14,-368.55 609.58,-362.03"/>
<polygon fill="black" stroke="black" points="454.03,-15.27 443.98,-18.64 453.94,-22.27 454.03,-15.27"/>
</g>
<!-- 6&#45;&gt;2 -->
<g id="edge39" class="edge">
<title>6&#45;&gt;2</title>
<path fill="none" stroke="black" d="M432.45,-260.5C427.2,-268.94 421.33,-278.58 417,-288 396.18,-333.28 382.62,-390.12 373.22,-422.73"/>
<polygon fill="black" stroke="black" points="435.49,-262.22 437.8,-251.88 429.55,-258.53 435.49,-262.22"/>
<polygon fill="black" stroke="black" points="369.84,-421.84 370.32,-432.42 376.54,-423.85 369.84,-421.84"/>
</g>
<!-- 6&#45;&gt;3 -->
<g id="edge40" class="edge">
<title>6&#45;&gt;3</title>
<path fill="none" stroke="black" d="M437.18,-205.85C437.12,-200.63 437.28,-195.18 437.64,-189.97"/>
<polygon fill="black" stroke="black" points="433.69,-206.21 437.61,-216.05 440.68,-205.92 433.69,-206.21"/>
<polygon fill="black" stroke="black" points="441.15,-190.09 438.66,-179.79 434.18,-189.39 441.15,-190.09"/>
</g>
<!-- 6&#45;&gt;3 -->
<g id="edge43" class="edge">
<title>6&#45;&gt;3</title>
<path fill="none" stroke="black" d="M450.35,-206.19C450.72,-200.95 450.88,-195.46 450.82,-190.22"/>
<polygon fill="black" stroke="black" points="446.84,-206.11 449.31,-216.41 453.8,-206.81 446.84,-206.11"/>
<polygon fill="black" stroke="black" points="454.31,-189.8 450.39,-179.96 447.31,-190.09 454.31,-189.8"/>
</g>
<!-- 6&#45;&gt;7 -->
<g id="edge44" class="edge">
<title>6&#45;&gt;7</title>
<path fill="none" stroke="black" d="M413.62,-216.15C399.24,-205.8 382.07,-192.23 367,-180 339.29,-157.52 307.95,-131.37 288.11,-113.25"/>
<polygon fill="black" stroke="black" points="411.98,-219.27 422.18,-222.14 415.99,-213.53 411.98,-219.27"/>
<polygon fill="black" stroke="black" points="290.31,-110.51 280.61,-106.25 285.53,-115.63 290.31,-110.51"/>
</g>
<!-- 6&#45;&gt;7 -->
<g id="edge47" class="edge">
<title>6&#45;&gt;7</title>
<path fill="none" stroke="black" d="M423.45,-211.25C412.09,-201.72 397.79,-190.38 385,-180 354.92,-155.6 320.55,-126.86 296.85,-108.78"/>
<polygon fill="black" stroke="black" points="421.26,-213.98 431.14,-217.82 425.81,-208.66 421.26,-213.98"/>
<polygon fill="black" stroke="black" points="298.74,-105.82 288.63,-102.63 294.54,-111.42 298.74,-105.82"/>
</g>
<!-- 6&#45;&gt;9 -->
<g id="edge48" class="edge">
<title>6&#45;&gt;9</title>
<path fill="none" stroke="black" d="M424.03,-209.76C418,-200.98 412.09,-190.54 409,-180 395.63,-134.4 403.52,-78.46 410.34,-45.96"/>
<polygon fill="black" stroke="black" points="421.28,-211.93 430,-217.94 426.93,-207.8 421.28,-211.93"/>
<polygon fill="black" stroke="black" points="413.83,-46.4 412.58,-35.88 407,-44.88 413.83,-46.4"/>
</g>
<!-- 3&#45;&gt;3 -->
<g id="edge51" class="edge">
<title>3&#45;&gt;3</title>
<path fill="none" stroke="black" d="M475.04,-175.44C483.5,-174.86 490,-170.38 490,-162 490,-153.62 483.5,-149.14 475.04,-148.56"/>
<polygon fill="black" stroke="black" points="475.19,-171.93 464.9,-174.43 474.5,-178.9 475.19,-171.93"/>
<polygon fill="black" stroke="black" points="474.5,-145.1 464.9,-149.57 475.19,-152.07 474.5,-145.1"/>
</g>
<!-- 3&#45;&gt;7 -->
<g id="edge52" class="edge">
<title>3&#45;&gt;7</title>
<path fill="none" stroke="black" d="M410.34,-151.09C377.23,-139.63 328.79,-120.61 297.75,-107.03"/>
<polygon fill="black" stroke="black" points="409.56,-154.52 420.15,-154.41 411.8,-147.89 409.56,-154.52"/>
<polygon fill="black" stroke="black" points="298.89,-103.71 288.33,-102.83 296.04,-110.1 298.89,-103.71"/>
</g>
<!-- 3&#45;&gt;7 -->
<g id="edge55" class="edge">
<title>3&#45;&gt;7</title>
<path fill="none" stroke="black" d="M413.02,-148.28C381.33,-135.68 333.05,-116.47 301.26,-103.83"/>
<polygon fill="black" stroke="black" points="411.77,-151.55 422.35,-151.99 414.35,-145.04 411.77,-151.55"/>
<polygon fill="black" stroke="black" points="302.15,-100.42 291.56,-99.97 299.56,-106.92 302.15,-100.42"/>
</g>
<!-- 3&#45;&gt;7 -->
<g id="edge57" class="edge">
<title>3&#45;&gt;7</title>
<path fill="none" stroke="black" d="M416.07,-144.89C384.97,-131.3 336.52,-112.27 303.47,-100.84"/>
<polygon fill="black" stroke="black" points="415.02,-148.25 425.58,-149.13 417.87,-141.86 415.02,-148.25"/>
<polygon fill="black" stroke="black" points="304.34,-97.44 293.74,-97.55 302.09,-104.07 304.34,-97.44"/>
</g>
<!-- 3&#45;&gt;9 -->
<g id="edge56" class="edge">
<title>3&#45;&gt;9</title>
<path fill="none" stroke="black" d="M434.51,-134.98C427.75,-109.91 420.27,-72.13 416.96,-46.56"/>
<polygon fill="black" stroke="black" points="431.18,-136.06 437.29,-144.71 437.91,-134.13 431.18,-136.06"/>
<polygon fill="black" stroke="black" points="420.42,-45.97 415.82,-36.43 413.46,-46.75 420.42,-45.97"/>
</g>
<!-- 3&#45;&gt;9 -->
<g id="edge58" class="edge">
<title>3&#45;&gt;9</title>
<path fill="none" stroke="black" d="M445.05,-133.56C441.77,-108.06 434.3,-70.33 427.55,-45.23"/>
<polygon fill="black" stroke="black" points="441.62,-134.32 446.21,-143.87 448.57,-133.54 441.62,-134.32"/>
<polygon fill="black" stroke="black" points="430.83,-43.96 424.71,-35.31 424.1,-45.89 430.83,-43.96"/>
</g>
<!-- 7&#45;&gt;7 -->
<g id="edge59" class="edge">
<title>7&#45;&gt;7</title>
<path fill="none" stroke="black" d="M299.04,-103.44C307.5,-102.86 314,-98.38 314,-90 314,-81.62 307.5,-77.14 299.04,-76.56"/>
<polygon fill="black" stroke="black" points="299.19,-99.93 288.9,-102.43 298.5,-106.9 299.19,-99.93"/>
<polygon fill="black" stroke="black" points="298.5,-73.1 288.9,-77.57 299.19,-80.07 298.5,-73.1"/>
</g>
<!-- 7&#45;&gt;9 -->
<g id="edge60" class="edge">
<title>7&#45;&gt;9</title>
<path fill="none" stroke="black" d="M299.67,-74.49C325.04,-62.5 360.9,-45.53 386.28,-33.53"/>
<polygon fill="black" stroke="black" points="298.06,-71.38 290.52,-78.82 301.06,-77.71 298.06,-71.38"/>
<polygon fill="black" stroke="black" points="387.91,-36.63 395.45,-29.19 384.92,-30.3 387.91,-36.63"/>
</g>
<!-- 5 -->
<g id="node9" class="node">
<title>5</title>
<ellipse fill="none" stroke="black" cx="397" cy="-522" rx="27" ry="18"/>
<text text-anchor="middle" x="397" y="-518.3" font-family="Times,serif" font-size="14.00">5</text>
</g>
<!-- 8 -->
<g id="node10" class="node">
<title>8</title>
<ellipse fill="none" stroke="black" cx="469" cy="-522" rx="27" ry="18"/>
<text text-anchor="middle" x="469" y="-518.3" font-family="Times,serif" font-size="14.00">8</text>
</g>
<!-- annotation -->
<g id="node11" class="node">
<title>annotation</title>
<text text-anchor="middle" x="680" y="-518.9" font-family="Times,serif" font-size="12.00">Nodes: 7, Edges: 15, Coverage: 0.11249137336093858</text>
</g>
</g>
</svg>
