<?xml version="1.0" encoding="UTF-8" standalone="no"?>
<!DOCTYPE svg PUBLIC "-//W3C//DTD SVG 1.1//EN"
 "http://www.w3.org/Graphics/SVG/1.1/DTD/svg11.dtd">
<!-- Generated by graphviz version 2.43.0 (0)
 -->
<!-- Title: IRIS region connectivity Pages: 1 -->
<svg width="1276pt" height="620pt"
 viewBox="0.00 0.00 1275.75 620.00" xmlns="http://www.w3.org/2000/svg" xmlns:xlink="http://www.w3.org/1999/xlink">
<g id="graph0" class="graph" transform="scale(1 1) rotate(0) translate(4 616)">
<title>IRIS region connectivity</title>
<polygon fill="white" stroke="transparent" points="-4,4 -4,-616 1271.75,-616 1271.75,4 -4,4"/>
<!-- 0 -->
<g id="node1" class="node">
<title>0</title>
<ellipse fill="none" stroke="black" cx="438.75" cy="-594" rx="27" ry="18"/>
<text text-anchor="middle" x="438.75" y="-590.3" font-family="Times,serif" font-size="14.00">0</text>
</g>
<!-- 1 -->
<g id="node3" class="node">
<title>1</title>
<ellipse fill="none" stroke="black" cx="474.75" cy="-522" rx="27" ry="18"/>
<text text-anchor="middle" x="474.75" y="-518.3" font-family="Times,serif" font-size="14.00">1</text>
</g>
<!-- 0&#45;&gt;1 -->
<g id="edge1" class="edge">
<title>0&#45;&gt;1</title>
<path fill="none" stroke="black" d="M451.76,-567.7C455.05,-561.3 458.59,-554.44 461.87,-548.05"/>
<polygon fill="black" stroke="black" points="448.56,-566.27 447.1,-576.76 454.79,-569.47 448.56,-566.27"/>
<polygon fill="black" stroke="black" points="464.99,-549.64 466.45,-539.15 458.76,-546.44 464.99,-549.64"/>
</g>
<!-- 58 -->
<g id="node4" class="node">
<title>58</title>
<ellipse fill="none" stroke="black" cx="401.75" cy="-450" rx="27" ry="18"/>
<text text-anchor="middle" x="401.75" y="-446.3" font-family="Times,serif" font-size="14.00">58</text>
</g>
<!-- 0&#45;&gt;58 -->
<g id="edge2" class="edge">
<title>0&#45;&gt;58</title>
<path fill="none" stroke="black" d="M421.85,-568.45C411.43,-543.28 401.13,-504.22 397.94,-478.14"/>
<polygon fill="black" stroke="black" points="418.76,-570.12 426.05,-577.8 425.15,-567.25 418.76,-570.12"/>
<polygon fill="black" stroke="black" points="401.4,-477.49 397.03,-467.84 394.43,-478.11 401.4,-477.49"/>
</g>
<!-- 0&#45;&gt;58 -->
<g id="edge10" class="edge">
<title>0&#45;&gt;58</title>
<path fill="none" stroke="black" d="M431.8,-566.31C425.18,-540.9 415.27,-502.87 408.66,-477.52"/>
<polygon fill="black" stroke="black" points="428.46,-567.36 434.36,-576.15 435.23,-565.59 428.46,-567.36"/>
<polygon fill="black" stroke="black" points="412.05,-476.62 406.14,-467.82 405.27,-478.38 412.05,-476.62"/>
</g>
<!-- 0&#45;&gt;58 -->
<g id="edge18" class="edge">
<title>0&#45;&gt;58</title>
<path fill="none" stroke="black" d="M442.59,-566.08C439.43,-539.93 429.05,-500.58 418.57,-475.34"/>
<polygon fill="black" stroke="black" points="439.11,-566.5 443.47,-576.15 446.09,-565.89 439.11,-566.5"/>
<polygon fill="black" stroke="black" points="421.7,-473.78 414.41,-466.1 415.32,-476.65 421.7,-473.78"/>
</g>
<!-- 3 -->
<g id="node5" class="node">
<title>3</title>
<ellipse fill="none" stroke="black" cx="611.75" cy="-378" rx="27" ry="18"/>
<text text-anchor="middle" x="611.75" y="-374.3" font-family="Times,serif" font-size="14.00">3</text>
</g>
<!-- 0&#45;&gt;3 -->
<g id="edge5" class="edge">
<title>0&#45;&gt;3</title>
<path fill="none" stroke="black" d="M466.79,-575.98C480.99,-566.51 497.9,-553.85 510.75,-540 549.98,-497.74 582.72,-438.16 599.54,-404.59"/>
<polygon fill="black" stroke="black" points="464.84,-573.07 458.35,-581.45 468.65,-578.95 464.84,-573.07"/>
<polygon fill="black" stroke="black" points="602.77,-405.97 604.05,-395.45 596.49,-402.87 602.77,-405.97"/>
</g>
<!-- 57 -->
<g id="node6" class="node">
<title>57</title>
<ellipse fill="none" stroke="black" cx="683.75" cy="-378" rx="27" ry="18"/>
<text text-anchor="middle" x="683.75" y="-374.3" font-family="Times,serif" font-size="14.00">57</text>
</g>
<!-- 0&#45;&gt;57 -->
<g id="edge6" class="edge">
<title>0&#45;&gt;57</title>
<path fill="none" stroke="black" d="M470.39,-579.72C490.96,-570.27 517.76,-556.38 538.75,-540 591.57,-498.8 641.07,-437.01 666.31,-403.21"/>
<polygon fill="black" stroke="black" points="468.83,-576.58 461.14,-583.86 471.7,-582.97 468.83,-576.58"/>
<polygon fill="black" stroke="black" points="669.36,-404.98 672.48,-394.86 663.73,-400.82 669.36,-404.98"/>
</g>
<!-- 5 -->
<g id="node7" class="node">
<title>5</title>
<ellipse fill="none" stroke="black" cx="583.75" cy="-306" rx="27" ry="18"/>
<text text-anchor="middle" x="583.75" y="-302.3" font-family="Times,serif" font-size="14.00">5</text>
</g>
<!-- 0&#45;&gt;5 -->
<g id="edge9" class="edge">
<title>0&#45;&gt;5</title>
<path fill="none" stroke="black" d="M473.83,-584.52C543.79,-565.3 697.33,-510.9 736.75,-396 741.95,-380.87 746.03,-373.03 736.75,-360 710.64,-323.32 657.3,-311.79 621.03,-308.3"/>
<polygon fill="black" stroke="black" points="472.9,-581.14 464.14,-587.1 474.7,-587.91 472.9,-581.14"/>
<polygon fill="black" stroke="black" points="621.08,-304.79 610.83,-307.48 620.52,-311.77 621.08,-304.79"/>
</g>
<!-- 12 -->
<g id="node8" class="node">
<title>12</title>
<ellipse fill="none" stroke="black" cx="497.75" cy="-234" rx="27" ry="18"/>
<text text-anchor="middle" x="497.75" y="-230.3" font-family="Times,serif" font-size="14.00">12</text>
</g>
<!-- 0&#45;&gt;12 -->
<g id="edge13" class="edge">
<title>0&#45;&gt;12</title>
<path fill="none" stroke="black" d="M474.94,-587.95C515.43,-581.25 582.12,-566.96 633.75,-540 707.35,-501.57 735.05,-477.12 752.75,-396 763.73,-345.68 751.96,-318.89 710.75,-288 658.42,-248.77 580.52,-238.32 534.86,-235.69"/>
<polygon fill="black" stroke="black" points="474.31,-584.51 464.98,-589.54 475.41,-591.42 474.31,-584.51"/>
<polygon fill="black" stroke="black" points="534.96,-232.19 524.8,-235.21 534.62,-239.18 534.96,-232.19"/>
</g>
<!-- 44 -->
<g id="node9" class="node">
<title>44</title>
<ellipse fill="none" stroke="black" cx="408.75" cy="-234" rx="27" ry="18"/>
<text text-anchor="middle" x="408.75" y="-230.3" font-family="Times,serif" font-size="14.00">44</text>
</g>
<!-- 0&#45;&gt;44 -->
<g id="edge14" class="edge">
<title>0&#45;&gt;44</title>
<path fill="none" stroke="black" d="M404.52,-583.23C353.13,-567.02 255.72,-530.04 195.75,-468 171.16,-442.56 169.5,-430.53 161.75,-396 158.25,-380.39 153.37,-373.63 161.75,-360 208.19,-284.45 316,-252.87 372.59,-241.12"/>
<polygon fill="black" stroke="black" points="403.57,-586.6 414.15,-586.2 405.63,-579.91 403.57,-586.6"/>
<polygon fill="black" stroke="black" points="373.41,-244.53 382.54,-239.16 372.05,-237.66 373.41,-244.53"/>
</g>
<!-- 26 -->
<g id="node10" class="node">
<title>26</title>
<ellipse fill="none" stroke="black" cx="251.75" cy="-162" rx="27" ry="18"/>
<text text-anchor="middle" x="251.75" y="-158.3" font-family="Times,serif" font-size="14.00">26</text>
</g>
<!-- 0&#45;&gt;26 -->
<g id="edge17" class="edge">
<title>0&#45;&gt;26</title>
<path fill="none" stroke="black" d="M401.56,-593.34C310.65,-593.4 80.49,-588.63 24.75,-540 -6.12,-513.07 0.75,-491.97 0.75,-451 0.75,-451 0.75,-451 0.75,-305 0.75,-264.03 -4.7,-244.47 24.75,-216 51.67,-189.99 158.21,-173.89 215.25,-166.97"/>
<polygon fill="black" stroke="black" points="401.7,-596.84 411.69,-593.31 401.68,-589.84 401.7,-596.84"/>
<polygon fill="black" stroke="black" points="215.78,-170.43 225.3,-165.78 214.96,-163.48 215.78,-170.43"/>
</g>
<!-- 56 -->
<g id="node2" class="node">
<title>56</title>
<ellipse fill="none" stroke="black" cx="746.75" cy="-594" rx="27" ry="18"/>
<text text-anchor="middle" x="746.75" y="-590.3" font-family="Times,serif" font-size="14.00">56</text>
</g>
<!-- 56&#45;&gt;1 -->
<g id="edge3" class="edge">
<title>56&#45;&gt;1</title>
<path fill="none" stroke="black" d="M711.89,-584.03C659.68,-570.59 561.78,-545.4 509.59,-531.97"/>
<polygon fill="black" stroke="black" points="711.09,-587.44 721.65,-586.54 712.84,-580.66 711.09,-587.44"/>
<polygon fill="black" stroke="black" points="510.35,-528.55 499.79,-529.44 508.61,-535.33 510.35,-528.55"/>
</g>
<!-- 56&#45;&gt;58 -->
<g id="edge4" class="edge">
<title>56&#45;&gt;58</title>
<path fill="none" stroke="black" d="M713.06,-582.25C645.06,-557.33 494.57,-495.56 430.69,-466.54"/>
<polygon fill="black" stroke="black" points="711.92,-585.56 722.52,-585.66 714.3,-578.98 711.92,-585.56"/>
<polygon fill="black" stroke="black" points="432.1,-463.34 421.55,-462.34 429.18,-469.7 432.1,-463.34"/>
</g>
<!-- 56&#45;&gt;58 -->
<g id="edge12" class="edge">
<title>56&#45;&gt;58</title>
<path fill="none" stroke="black" d="M714.88,-579.88C649.13,-552.82 499.13,-491.08 433.49,-464.06"/>
<polygon fill="black" stroke="black" points="713.8,-583.22 724.38,-583.79 716.47,-576.75 713.8,-583.22"/>
<polygon fill="black" stroke="black" points="434.65,-460.76 424.07,-460.19 431.99,-467.23 434.65,-460.76"/>
</g>
<!-- 56&#45;&gt;58 -->
<g id="edge20" class="edge">
<title>56&#45;&gt;58</title>
<path fill="none" stroke="black" d="M717.66,-577.39C653.74,-548.36 503.67,-486.76 435.64,-461.82"/>
<polygon fill="black" stroke="black" points="716.31,-580.62 726.86,-581.62 719.24,-574.26 716.31,-580.62"/>
<polygon fill="black" stroke="black" points="436.43,-458.39 425.83,-458.28 434.05,-464.97 436.43,-458.39"/>
</g>
<!-- 56&#45;&gt;3 -->
<g id="edge7" class="edge">
<title>56&#45;&gt;3</title>
<path fill="none" stroke="black" d="M731.11,-568.2C705.08,-526.94 653.18,-444.67 627.25,-403.56"/>
<polygon fill="black" stroke="black" points="728.31,-570.32 736.61,-576.92 734.23,-566.59 728.31,-570.32"/>
<polygon fill="black" stroke="black" points="630.13,-401.57 621.83,-394.98 624.21,-405.3 630.13,-401.57"/>
</g>
<!-- 56&#45;&gt;57 -->
<g id="edge8" class="edge">
<title>56&#45;&gt;57</title>
<path fill="none" stroke="black" d="M769.32,-571.36C777.04,-562.47 784.73,-551.54 788.75,-540 794.01,-524.89 794.23,-519.03 788.75,-504 772.82,-460.27 734.12,-421.2 708.42,-398.81"/>
<polygon fill="black" stroke="black" points="766.55,-569.2 762.33,-578.92 771.69,-573.95 766.55,-569.2"/>
<polygon fill="black" stroke="black" points="710.46,-395.96 700.58,-392.15 705.93,-401.29 710.46,-395.96"/>
</g>
<!-- 56&#45;&gt;5 -->
<g id="edge11" class="edge">
<title>56&#45;&gt;5</title>
<path fill="none" stroke="black" d="M774.62,-575.37C786.24,-566.35 798.47,-554.26 804.75,-540 830.85,-480.8 788.97,-394.71 752.75,-360 716.73,-325.48 658.49,-313.43 620.66,-309.23"/>
<polygon fill="black" stroke="black" points="772.39,-572.66 766.37,-581.37 776.51,-578.32 772.39,-572.66"/>
<polygon fill="black" stroke="black" points="620.86,-305.73 610.56,-308.24 620.17,-312.7 620.86,-305.73"/>
</g>
<!-- 56&#45;&gt;12 -->
<g id="edge15" class="edge">
<title>56&#45;&gt;12</title>
<path fill="none" stroke="black" d="M776.95,-578.16C778.9,-577.39 780.84,-576.66 782.75,-576 851.68,-552.29 890.14,-590.44 942.75,-540 972.33,-511.65 966.75,-491.97 966.75,-451 966.75,-451 966.75,-451 966.75,-377 966.75,-286.86 645.38,-248.65 534.69,-238.16"/>
<polygon fill="black" stroke="black" points="775.15,-575.13 767.37,-582.32 777.94,-581.55 775.15,-575.13"/>
<polygon fill="black" stroke="black" points="534.93,-234.67 524.65,-237.23 534.29,-241.64 534.93,-234.67"/>
</g>
<!-- 56&#45;&gt;44 -->
<g id="edge16" class="edge">
<title>56&#45;&gt;44</title>
<path fill="none" stroke="black" d="M775.57,-576.75C794.8,-565.23 817.49,-550.1 822.75,-540 860.8,-467.08 839.71,-416.31 779.75,-360 670.95,-257.82 605.72,-291.41 461.75,-252 455.39,-250.26 448.66,-248.24 442.2,-246.21"/>
<polygon fill="black" stroke="black" points="773.63,-573.83 766.78,-581.92 777.18,-579.87 773.63,-573.83"/>
<polygon fill="black" stroke="black" points="442.96,-242.78 432.37,-243.06 440.82,-249.44 442.96,-242.78"/>
</g>
<!-- 56&#45;&gt;26 -->
<g id="edge19" class="edge">
<title>56&#45;&gt;26</title>
<path fill="none" stroke="black" d="M709.65,-589.55C563.92,-575.51 38.75,-520.1 38.75,-451 38.75,-451 38.75,-451 38.75,-305 38.75,-220.76 155.51,-183.42 216.14,-169.71"/>
<polygon fill="black" stroke="black" points="709.58,-593.06 719.86,-590.52 710.24,-586.09 709.58,-593.06"/>
<polygon fill="black" stroke="black" points="217.03,-173.1 226.06,-167.56 215.55,-166.26 217.03,-173.1"/>
</g>
<!-- 1&#45;&gt;58 -->
<g id="edge26" class="edge">
<title>1&#45;&gt;58</title>
<path fill="none" stroke="black" d="M448.48,-501.67C438.82,-493.12 428.18,-483.01 419.42,-474.07"/>
<polygon fill="black" stroke="black" points="446.53,-504.6 456.39,-508.49 451.1,-499.3 446.53,-504.6"/>
<polygon fill="black" stroke="black" points="421.72,-471.41 412.29,-466.59 416.66,-476.24 421.72,-471.41"/>
</g>
<!-- 1&#45;&gt;58 -->
<g id="edge38" class="edge">
<title>1&#45;&gt;58</title>
<path fill="none" stroke="black" d="M457.04,-497.88C448.21,-488.88 437.47,-478.68 427.76,-470.1"/>
<polygon fill="black" stroke="black" points="454.51,-500.3 463.95,-505.12 459.57,-495.47 454.51,-500.3"/>
<polygon fill="black" stroke="black" points="429.77,-467.21 419.91,-463.34 425.2,-472.52 429.77,-467.21"/>
</g>
<!-- 1&#45;&gt;3 -->
<g id="edge21" class="edge">
<title>1&#45;&gt;3</title>
<path fill="none" stroke="black" d="M488.38,-495.64C499.31,-476.74 515.91,-451.03 534.75,-432 548.98,-417.64 567.59,-404.71 582.95,-395.21"/>
<polygon fill="black" stroke="black" points="485.21,-494.14 483.34,-504.57 491.3,-497.58 485.21,-494.14"/>
<polygon fill="black" stroke="black" points="584.79,-398.19 591.56,-390.03 581.19,-392.19 584.79,-398.19"/>
</g>
<!-- 1&#45;&gt;57 -->
<g id="edge22" class="edge">
<title>1&#45;&gt;57</title>
<path fill="none" stroke="black" d="M501.22,-503.02C541.25,-475.82 616.77,-424.51 656.98,-397.19"/>
<polygon fill="black" stroke="black" points="499.24,-500.13 492.93,-508.65 503.17,-505.92 499.24,-500.13"/>
<polygon fill="black" stroke="black" points="659.16,-399.94 665.46,-391.43 655.23,-394.15 659.16,-399.94"/>
</g>
<!-- 1&#45;&gt;5 -->
<g id="edge25" class="edge">
<title>1&#45;&gt;5</title>
<path fill="none" stroke="black" d="M511.02,-515.01C567.71,-503.45 675.4,-472.13 719.75,-396 727.81,-382.18 728.78,-373.21 719.75,-360 697.69,-327.72 652.81,-315.1 620.64,-310.16"/>
<polygon fill="black" stroke="black" points="510.2,-511.6 501.06,-516.95 511.54,-518.48 510.2,-511.6"/>
<polygon fill="black" stroke="black" points="621.07,-306.69 610.69,-308.82 620.13,-313.63 621.07,-306.69"/>
</g>
<!-- 1&#45;&gt;12 -->
<g id="edge29" class="edge">
<title>1&#45;&gt;12</title>
<path fill="none" stroke="black" d="M511.83,-518.67C555.46,-514.38 628.56,-502.26 680.75,-468 714.65,-445.76 723.6,-434.35 736.75,-396 768.93,-302.22 608.06,-257.15 533.75,-241.58"/>
<polygon fill="black" stroke="black" points="511.32,-515.2 501.67,-519.57 511.94,-522.17 511.32,-515.2"/>
<polygon fill="black" stroke="black" points="534.36,-238.13 523.87,-239.57 532.97,-244.99 534.36,-238.13"/>
</g>
<!-- 1&#45;&gt;44 -->
<g id="edge30" class="edge">
<title>1&#45;&gt;44</title>
<path fill="none" stroke="black" d="M437.62,-519.94C367.91,-515.6 220.14,-494.65 171.75,-396 164.71,-381.63 161.78,-372.51 171.75,-360 216.36,-304.01 267.06,-360.31 328.75,-324 355.89,-308.03 378.94,-279.77 393.22,-259.37"/>
<polygon fill="black" stroke="black" points="437.54,-523.44 447.71,-520.48 437.91,-516.45 437.54,-523.44"/>
<polygon fill="black" stroke="black" points="396.26,-261.14 398.98,-250.9 390.46,-257.21 396.26,-261.14"/>
</g>
<!-- 1&#45;&gt;26 -->
<g id="edge37" class="edge">
<title>1&#45;&gt;26</title>
<path fill="none" stroke="black" d="M437.29,-521.24C381.23,-520.05 273.77,-511.65 195.75,-468 149.08,-441.89 114.75,-432.48 114.75,-379 114.75,-379 114.75,-379 114.75,-305 114.75,-244.14 180.74,-199.36 221.12,-177.66"/>
<polygon fill="black" stroke="black" points="437.42,-524.75 447.47,-521.39 437.52,-517.75 437.42,-524.75"/>
<polygon fill="black" stroke="black" points="222.79,-180.73 230.05,-173.01 219.56,-174.52 222.79,-180.73"/>
</g>
<!-- 24 -->
<g id="node11" class="node">
<title>24</title>
<ellipse fill="none" stroke="black" cx="279.75" cy="-378" rx="27" ry="18"/>
<text text-anchor="middle" x="279.75" y="-374.3" font-family="Times,serif" font-size="14.00">24</text>
</g>
<!-- 1&#45;&gt;24 -->
<g id="edge33" class="edge">
<title>1&#45;&gt;24</title>
<path fill="none" stroke="black" d="M441.86,-508.57C419.31,-499.22 389.34,-485.11 365.75,-468 339.58,-449.01 314.46,-421.59 298.2,-402.21"/>
<polygon fill="black" stroke="black" points="440.75,-511.9 451.33,-512.4 443.37,-505.41 440.75,-511.9"/>
<polygon fill="black" stroke="black" points="300.85,-399.94 291.79,-394.45 295.45,-404.39 300.85,-399.94"/>
</g>
<!-- 53 -->
<g id="node12" class="node">
<title>53</title>
<ellipse fill="none" stroke="black" cx="207.75" cy="-378" rx="27" ry="18"/>
<text text-anchor="middle" x="207.75" y="-374.3" font-family="Times,serif" font-size="14.00">53</text>
</g>
<!-- 1&#45;&gt;53 -->
<g id="edge34" class="edge">
<title>1&#45;&gt;53</title>
<path fill="none" stroke="black" d="M439.85,-512.59C407.7,-504.03 359.28,-489.01 320.75,-468 286.39,-449.26 251.74,-420.1 230.04,-400.31"/>
<polygon fill="black" stroke="black" points="439.12,-516.02 449.68,-515.15 440.88,-509.25 439.12,-516.02"/>
<polygon fill="black" stroke="black" points="232.37,-397.7 222.66,-393.48 227.62,-402.84 232.37,-397.7"/>
</g>
<!-- 58&#45;&gt;58 -->
<g id="edge28" class="edge">
<title>58&#45;&gt;58</title>
<path fill="none" stroke="black" d="M438.1,-454.04C443.28,-453.39 446.75,-452.04 446.75,-450 446.75,-447.96 443.28,-446.61 438.1,-445.96"/>
<polygon fill="black" stroke="black" points="437.94,-450.54 428.1,-454.48 438.24,-457.54 437.94,-450.54"/>
<polygon fill="black" stroke="black" points="438.24,-442.46 428.1,-445.52 437.94,-449.46 438.24,-442.46"/>
</g>
<!-- 58&#45;&gt;58 -->
<g id="edge40" class="edge">
<title>58&#45;&gt;58</title>
<path fill="none" stroke="black" d="M436.5,-458.88C451.7,-459.65 464.75,-456.69 464.75,-450 464.75,-443.31 451.7,-440.35 436.5,-441.12"/>
<polygon fill="black" stroke="black" points="436.63,-455.38 426.33,-457.84 435.92,-462.34 436.63,-455.38"/>
<polygon fill="black" stroke="black" points="435.92,-437.66 426.33,-442.16 436.63,-444.62 435.92,-437.66"/>
</g>
<!-- 58&#45;&gt;58 -->
<g id="edge52" class="edge">
<title>58&#45;&gt;58</title>
<path fill="none" stroke="black" d="M434.45,-461.95C458.55,-466.03 482.75,-462.05 482.75,-450 482.75,-437.95 458.55,-433.97 434.45,-438.05"/>
<polygon fill="black" stroke="black" points="435.07,-458.5 424.56,-459.8 433.59,-465.34 435.07,-458.5"/>
<polygon fill="black" stroke="black" points="433.59,-434.66 424.56,-440.2 435.07,-441.5 433.59,-434.66"/>
</g>
<!-- 58&#45;&gt;3 -->
<g id="edge23" class="edge">
<title>58&#45;&gt;3</title>
<path fill="none" stroke="black" d="M434.75,-437.51C467.36,-427.38 518.2,-411.82 561.75,-396 566.91,-394.13 572.38,-391.98 577.77,-389.85"/>
<polygon fill="black" stroke="black" points="433.33,-434.28 424.83,-440.59 435.42,-440.96 433.33,-434.28"/>
<polygon fill="black" stroke="black" points="579.28,-393.02 587.32,-386.12 576.73,-386.5 579.28,-393.02"/>
</g>
<!-- 58&#45;&gt;57 -->
<g id="edge24" class="edge">
<title>58&#45;&gt;57</title>
<path fill="none" stroke="black" d="M437.65,-442.91C484.74,-435.07 569.13,-419.59 638.75,-396 642.73,-394.65 646.85,-392.99 650.93,-391.23"/>
<polygon fill="black" stroke="black" points="436.92,-439.48 427.62,-444.55 438.06,-446.38 436.92,-439.48"/>
<polygon fill="black" stroke="black" points="652.6,-394.32 660.33,-387.07 649.77,-387.92 652.6,-394.32"/>
</g>
<!-- 58&#45;&gt;5 -->
<g id="edge27" class="edge">
<title>58&#45;&gt;5</title>
<path fill="none" stroke="black" d="M433.52,-435.75C455.31,-426.83 483.89,-413.49 505.75,-396 529.16,-377.27 549.27,-349.05 563.58,-329.43"/>
<polygon fill="black" stroke="black" points="432.03,-432.58 424.04,-439.54 434.62,-439.08 432.03,-432.58"/>
<polygon fill="black" stroke="black" points="566.43,-331.47 569.55,-321.34 560.79,-327.32 566.43,-331.47"/>
</g>
<!-- 58&#45;&gt;12 -->
<g id="edge31" class="edge">
<title>58&#45;&gt;12</title>
<path fill="none" stroke="black" d="M402.83,-422.93C407.41,-414.54 413.16,-405.07 417.75,-396 441.55,-349.03 461.91,-290.64 478.15,-258.67"/>
<polygon fill="black" stroke="black" points="399.7,-421.36 398.26,-431.86 405.93,-424.55 399.7,-421.36"/>
<polygon fill="black" stroke="black" points="481.36,-260.09 483.06,-249.64 475.21,-256.75 481.36,-260.09"/>
</g>
<!-- 58&#45;&gt;12 -->
<g id="edge47" class="edge">
<title>58&#45;&gt;12</title>
<path fill="none" stroke="black" d="M418.65,-424.94C424.48,-416.07 430.79,-405.8 435.75,-396 458.84,-350.43 478.68,-294.13 489.36,-261.61"/>
<polygon fill="black" stroke="black" points="415.73,-423.01 413.05,-433.27 421.53,-426.92 415.73,-423.01"/>
<polygon fill="black" stroke="black" points="492.74,-262.53 492.49,-251.93 486.08,-260.37 492.74,-262.53"/>
</g>
<!-- 58&#45;&gt;44 -->
<g id="edge32" class="edge">
<title>58&#45;&gt;44</title>
<path fill="none" stroke="black" d="M393.35,-422.42C389.05,-381.18 391.64,-302.27 398.67,-261.24"/>
<polygon fill="black" stroke="black" points="389.91,-423.1 394.67,-432.56 396.85,-422.19 389.91,-423.1"/>
<polygon fill="black" stroke="black" points="402.15,-261.69 400.65,-251.2 395.28,-260.33 402.15,-261.69"/>
</g>
<!-- 58&#45;&gt;44 -->
<g id="edge48" class="edge">
<title>58&#45;&gt;44</title>
<path fill="none" stroke="black" d="M402.65,-421.71C403.99,-380.65 406.52,-303.42 407.86,-262.33"/>
<polygon fill="black" stroke="black" points="399.14,-421.74 402.31,-431.85 406.14,-421.97 399.14,-421.74"/>
<polygon fill="black" stroke="black" points="411.36,-262.34 408.19,-252.23 404.36,-262.11 411.36,-262.34"/>
</g>
<!-- 58&#45;&gt;26 -->
<g id="edge39" class="edge">
<title>58&#45;&gt;26</title>
<path fill="none" stroke="black" d="M385.21,-425C353.66,-371.85 286.84,-244.55 261.45,-189.32"/>
<polygon fill="black" stroke="black" points="382.26,-426.88 390.43,-433.62 388.25,-423.25 382.26,-426.88"/>
<polygon fill="black" stroke="black" points="264.5,-187.56 257.2,-179.88 258.11,-190.43 264.5,-187.56"/>
</g>
<!-- 58&#45;&gt;26 -->
<g id="edge51" class="edge">
<title>58&#45;&gt;26</title>
<path fill="none" stroke="black" d="M392.05,-422.66C366.7,-367.53 300.1,-240.64 268.48,-187.31"/>
<polygon fill="black" stroke="black" points="388.94,-424.28 396.23,-431.97 395.32,-421.41 388.94,-424.28"/>
<polygon fill="black" stroke="black" points="271.34,-185.28 263.18,-178.53 265.35,-188.9 271.34,-185.28"/>
</g>
<!-- 58&#45;&gt;24 -->
<g id="edge35" class="edge">
<title>58&#45;&gt;24</title>
<path fill="none" stroke="black" d="M371.06,-434.59C350.81,-423.78 324.72,-408.89 305.54,-397.24"/>
<polygon fill="black" stroke="black" points="369.47,-437.71 379.94,-439.27 372.73,-431.51 369.47,-437.71"/>
<polygon fill="black" stroke="black" points="307.34,-394.24 296.99,-391.98 303.67,-400.21 307.34,-394.24"/>
</g>
<!-- 58&#45;&gt;53 -->
<g id="edge36" class="edge">
<title>58&#45;&gt;53</title>
<path fill="none" stroke="black" d="M366.5,-440.49C332.13,-430.76 279.15,-413.86 234.75,-396 234.66,-395.96 234.56,-395.92 234.46,-395.88"/>
<polygon fill="black" stroke="black" points="365.96,-443.98 376.53,-443.27 367.83,-437.23 365.96,-443.98"/>
<polygon fill="black" stroke="black" points="235.96,-392.72 225.39,-391.98 233.2,-399.15 235.96,-392.72"/>
</g>
<!-- 3&#45;&gt;58 -->
<g id="edge42" class="edge">
<title>3&#45;&gt;58</title>
<path fill="none" stroke="black" d="M582.93,-394.82C581.87,-395.23 580.8,-395.62 579.75,-396 531.01,-413.71 473.15,-431.09 436.76,-440.88"/>
<polygon fill="black" stroke="black" points="584.52,-397.96 592.55,-391.04 581.96,-391.45 584.52,-397.96"/>
<polygon fill="black" stroke="black" points="435.86,-437.5 427.09,-443.44 437.65,-444.27 435.86,-437.5"/>
</g>
<!-- 3&#45;&gt;5 -->
<g id="edge41" class="edge">
<title>3&#45;&gt;5</title>
<path fill="none" stroke="black" d="M601.32,-350.91C598.96,-345.02 596.46,-338.77 594.11,-332.89"/>
<polygon fill="black" stroke="black" points="598.15,-352.43 605.12,-360.41 604.65,-349.83 598.15,-352.43"/>
<polygon fill="black" stroke="black" points="597.3,-331.45 590.34,-323.47 590.81,-334.05 597.3,-331.45"/>
</g>
<!-- 57&#45;&gt;58 -->
<g id="edge44" class="edge">
<title>57&#45;&gt;58</title>
<path fill="none" stroke="black" d="M657.06,-395.9C656.96,-395.93 656.86,-395.97 656.75,-396 581.42,-421.52 488.83,-437.55 438.38,-444.68"/>
<polygon fill="black" stroke="black" points="658.59,-399.06 666.63,-392.15 656.04,-392.54 658.59,-399.06"/>
<polygon fill="black" stroke="black" points="437.71,-441.24 428.28,-446.06 438.66,-448.17 437.71,-441.24"/>
</g>
<!-- 57&#45;&gt;5 -->
<g id="edge43" class="edge">
<title>57&#45;&gt;5</title>
<path fill="none" stroke="black" d="M657.24,-358.44C642.75,-348.3 624.85,-335.77 610.35,-325.61"/>
<polygon fill="black" stroke="black" points="655.68,-361.62 665.88,-364.49 659.69,-355.88 655.68,-361.62"/>
<polygon fill="black" stroke="black" points="612.01,-322.51 601.81,-319.64 608,-328.24 612.01,-322.51"/>
</g>
<!-- 5&#45;&gt;58 -->
<g id="edge50" class="edge">
<title>5&#45;&gt;58</title>
<path fill="none" stroke="black" d="M575.79,-332.95C564.92,-352.31 545.79,-378.36 523.75,-396 498.06,-416.56 463.09,-431.38 437.01,-440.03"/>
<polygon fill="black" stroke="black" points="578.92,-334.53 580.45,-324.04 572.71,-331.29 578.92,-334.53"/>
<polygon fill="black" stroke="black" points="435.62,-436.8 427.14,-443.15 437.73,-443.47 435.62,-436.8"/>
</g>
<!-- 5&#45;&gt;12 -->
<g id="edge45" class="edge">
<title>5&#45;&gt;12</title>
<path fill="none" stroke="black" d="M559.16,-284.98C547.58,-275.56 533.81,-264.35 522.25,-254.94"/>
<polygon fill="black" stroke="black" points="557.21,-287.91 567.17,-291.5 561.63,-282.48 557.21,-287.91"/>
<polygon fill="black" stroke="black" points="524.25,-252.05 514.28,-248.46 519.83,-257.48 524.25,-252.05"/>
</g>
<!-- 5&#45;&gt;44 -->
<g id="edge46" class="edge">
<title>5&#45;&gt;44</title>
<path fill="none" stroke="black" d="M551.54,-292.11C520.1,-279.54 472.55,-260.52 441.08,-247.93"/>
<polygon fill="black" stroke="black" points="550.65,-295.53 561.23,-295.99 553.25,-289.03 550.65,-295.53"/>
<polygon fill="black" stroke="black" points="442.05,-244.55 431.46,-244.08 439.45,-251.05 442.05,-244.55"/>
</g>
<!-- 5&#45;&gt;26 -->
<g id="edge49" class="edge">
<title>5&#45;&gt;26</title>
<path fill="none" stroke="black" d="M547.26,-300.23C504.01,-293.59 430.52,-279.21 372.75,-252 335.19,-234.31 297.54,-204.19 274.45,-183.95"/>
<polygon fill="black" stroke="black" points="546.92,-303.71 557.32,-301.71 547.94,-296.79 546.92,-303.71"/>
<polygon fill="black" stroke="black" points="276.71,-181.28 266.91,-177.24 272.05,-186.51 276.71,-181.28"/>
</g>
<!-- 12&#45;&gt;58 -->
<g id="edge58" class="edge">
<title>12&#45;&gt;58</title>
<path fill="none" stroke="black" d="M501.97,-262.04C496.51,-294.61 476.74,-350.63 453.75,-396 447.59,-408.16 439.37,-421.04 430.47,-431.07"/>
<polygon fill="black" stroke="black" points="505.46,-262.3 503.25,-251.93 498.52,-261.41 505.46,-262.3"/>
<polygon fill="black" stroke="black" points="427.75,-428.84 423.22,-438.42 432.74,-433.76 427.75,-428.84"/>
</g>
<!-- 12&#45;&gt;26 -->
<g id="edge57" class="edge">
<title>12&#45;&gt;26</title>
<path fill="none" stroke="black" d="M464.25,-222.02C457.79,-219.97 451.07,-217.88 444.75,-216 389.57,-199.58 324.97,-182.21 286.26,-172"/>
<polygon fill="black" stroke="black" points="463.48,-225.45 474.07,-225.17 465.62,-218.78 463.48,-225.45"/>
<polygon fill="black" stroke="black" points="287.09,-168.6 276.53,-169.44 285.31,-175.37 287.09,-168.6"/>
</g>
<!-- 15 -->
<g id="node15" class="node">
<title>15</title>
<ellipse fill="none" stroke="black" cx="377.75" cy="-162" rx="27" ry="18"/>
<text text-anchor="middle" x="377.75" y="-158.3" font-family="Times,serif" font-size="14.00">15</text>
</g>
<!-- 12&#45;&gt;15 -->
<g id="edge53" class="edge">
<title>12&#45;&gt;15</title>
<path fill="none" stroke="black" d="M469.01,-216.24C450.05,-205.18 425.31,-190.74 406.38,-179.7"/>
<polygon fill="black" stroke="black" points="467.54,-219.43 477.94,-221.44 471.06,-213.38 467.54,-219.43"/>
<polygon fill="black" stroke="black" points="408,-176.59 397.6,-174.58 404.47,-182.64 408,-176.59"/>
</g>
<!-- 43 -->
<g id="node16" class="node">
<title>43</title>
<ellipse fill="none" stroke="black" cx="441.75" cy="-90" rx="27" ry="18"/>
<text text-anchor="middle" x="441.75" y="-86.3" font-family="Times,serif" font-size="14.00">43</text>
</g>
<!-- 12&#45;&gt;43 -->
<g id="edge54" class="edge">
<title>12&#45;&gt;43</title>
<path fill="none" stroke="black" d="M482.56,-207.9C470.72,-182.68 455.39,-143.92 446.98,-118.03"/>
<polygon fill="black" stroke="black" points="479.59,-209.8 487.11,-217.26 485.89,-206.74 479.59,-209.8"/>
<polygon fill="black" stroke="black" points="450.22,-116.66 443.92,-108.13 443.53,-118.72 450.22,-116.66"/>
</g>
<!-- 12&#45;&gt;43 -->
<g id="edge62" class="edge">
<title>12&#45;&gt;43</title>
<path fill="none" stroke="black" d="M492.63,-206.27C484.25,-180.41 468.87,-141.51 456.99,-116.19"/>
<polygon fill="black" stroke="black" points="489.29,-207.35 495.58,-215.87 495.98,-205.28 489.29,-207.35"/>
<polygon fill="black" stroke="black" points="459.98,-114.34 452.46,-106.88 453.69,-117.4 459.98,-114.34"/>
</g>
<!-- 41 -->
<g id="node17" class="node">
<title>41</title>
<ellipse fill="none" stroke="black" cx="413.75" cy="-18" rx="27" ry="18"/>
<text text-anchor="middle" x="413.75" y="-14.3" font-family="Times,serif" font-size="14.00">41</text>
</g>
<!-- 12&#45;&gt;41 -->
<g id="edge61" class="edge">
<title>12&#45;&gt;41</title>
<path fill="none" stroke="black" d="M504.71,-206.17C511.88,-172.53 519.05,-114.17 495.75,-72 485.24,-52.97 464.68,-39.71 446.78,-31.21"/>
<polygon fill="black" stroke="black" points="501.24,-205.64 502.43,-216.17 508.07,-207.2 501.24,-205.64"/>
<polygon fill="black" stroke="black" points="447.75,-27.81 437.19,-26.97 444.92,-34.21 447.75,-27.81"/>
</g>
<!-- 44&#45;&gt;58 -->
<g id="edge60" class="edge">
<title>44&#45;&gt;58</title>
<path fill="none" stroke="black" d="M417.16,-261.59C421.46,-302.82 418.86,-381.69 411.85,-422.73"/>
<polygon fill="black" stroke="black" points="420.61,-260.96 415.84,-251.49 413.67,-261.86 420.61,-260.96"/>
<polygon fill="black" stroke="black" points="408.41,-422.08 409.91,-432.56 415.27,-423.43 408.41,-422.08"/>
</g>
<!-- 44&#45;&gt;26 -->
<g id="edge59" class="edge">
<title>44&#45;&gt;26</title>
<path fill="none" stroke="black" d="M377.53,-219.08C350.04,-206.82 310.23,-189.07 282.8,-176.84"/>
<polygon fill="black" stroke="black" points="376.36,-222.39 386.92,-223.27 379.21,-216 376.36,-222.39"/>
<polygon fill="black" stroke="black" points="284.21,-173.64 273.65,-172.76 281.36,-180.03 284.21,-173.64"/>
</g>
<!-- 44&#45;&gt;15 -->
<g id="edge55" class="edge">
<title>44&#45;&gt;15</title>
<path fill="none" stroke="black" d="M397.33,-207.2C394.7,-201.26 391.9,-194.94 389.27,-189"/>
<polygon fill="black" stroke="black" points="394.16,-208.68 401.41,-216.41 400.56,-205.85 394.16,-208.68"/>
<polygon fill="black" stroke="black" points="392.3,-187.2 385.05,-179.47 385.9,-190.03 392.3,-187.2"/>
</g>
<!-- 44&#45;&gt;43 -->
<g id="edge56" class="edge">
<title>44&#45;&gt;43</title>
<path fill="none" stroke="black" d="M409.61,-205.94C413.78,-180.34 422.67,-142.17 430.37,-116.94"/>
<polygon fill="black" stroke="black" points="406.14,-205.47 408.15,-215.87 413.06,-206.49 406.14,-205.47"/>
<polygon fill="black" stroke="black" points="433.73,-117.9 433.47,-107.31 427.07,-115.76 433.73,-117.9"/>
</g>
<!-- 44&#45;&gt;43 -->
<g id="edge64" class="edge">
<title>44&#45;&gt;43</title>
<path fill="none" stroke="black" d="M420.16,-206.98C427.8,-181.91 436.62,-144.13 440.82,-118.56"/>
<polygon fill="black" stroke="black" points="416.76,-206.12 417.03,-216.71 423.43,-208.26 416.76,-206.12"/>
<polygon fill="black" stroke="black" points="444.32,-118.83 442.32,-108.43 437.39,-117.8 444.32,-118.83"/>
</g>
<!-- 44&#45;&gt;41 -->
<g id="edge63" class="edge">
<title>44&#45;&gt;41</title>
<path fill="none" stroke="black" d="M378.6,-217.53C364.65,-208.62 349.49,-195.99 341.75,-180 334.78,-165.6 337.62,-159.46 341.75,-144 352.07,-105.43 377.46,-66.42 395.15,-42.48"/>
<polygon fill="black" stroke="black" points="377.12,-220.72 387.5,-222.85 380.71,-214.71 377.12,-220.72"/>
<polygon fill="black" stroke="black" points="398.04,-44.46 401.27,-34.37 392.45,-40.24 398.04,-44.46"/>
</g>
<!-- 24&#45;&gt;58 -->
<g id="edge70" class="edge">
<title>24&#45;&gt;58</title>
<path fill="none" stroke="black" d="M310.76,-393.57C330.94,-404.37 356.83,-419.14 375.92,-430.73"/>
<polygon fill="black" stroke="black" points="312.12,-390.34 301.64,-388.78 308.86,-396.53 312.12,-390.34"/>
<polygon fill="black" stroke="black" points="374.13,-433.74 384.48,-436 377.8,-427.77 374.13,-433.74"/>
</g>
<!-- 24&#45;&gt;26 -->
<g id="edge69" class="edge">
<title>24&#45;&gt;26</title>
<path fill="none" stroke="black" d="M260.23,-353.84C254.02,-345.06 247.94,-334.61 244.75,-324 231.09,-278.5 238.63,-222.53 245.26,-189.99"/>
<polygon fill="black" stroke="black" points="257.57,-356.12 266.38,-362 263.16,-351.91 257.57,-356.12"/>
<polygon fill="black" stroke="black" points="248.75,-190.42 247.44,-179.9 241.9,-188.94 248.75,-190.42"/>
</g>
<!-- 53&#45;&gt;58 -->
<g id="edge72" class="edge">
<title>53&#45;&gt;58</title>
<path fill="none" stroke="black" d="M240.94,-390.95C244.93,-392.72 248.93,-394.46 252.75,-396 292.3,-411.91 338.67,-427.06 369.18,-437.06"/>
<polygon fill="black" stroke="black" points="242.27,-387.71 231.71,-386.85 239.43,-394.11 242.27,-387.71"/>
<polygon fill="black" stroke="black" points="368.3,-440.45 378.89,-440.25 370.48,-433.8 368.3,-440.45"/>
</g>
<!-- 53&#45;&gt;26 -->
<g id="edge71" class="edge">
<title>53&#45;&gt;26</title>
<path fill="none" stroke="black" d="M210.73,-349.89C214.58,-317.66 222.21,-262.41 233.75,-216 235.98,-207.05 239.03,-197.46 241.98,-188.92"/>
<polygon fill="black" stroke="black" points="207.24,-349.55 209.56,-359.89 214.19,-350.36 207.24,-349.55"/>
<polygon fill="black" stroke="black" points="245.28,-190.09 245.35,-179.5 238.69,-187.73 245.28,-190.09"/>
</g>
<!-- 11 -->
<g id="node13" class="node">
<title>11</title>
<ellipse fill="none" stroke="black" cx="818.75" cy="-594" rx="27" ry="18"/>
<text text-anchor="middle" x="818.75" y="-590.3" font-family="Times,serif" font-size="14.00">11</text>
</g>
<!-- 59 -->
<g id="node14" class="node">
<title>59</title>
<ellipse fill="none" stroke="black" cx="890.75" cy="-594" rx="27" ry="18"/>
<text text-anchor="middle" x="890.75" y="-590.3" font-family="Times,serif" font-size="14.00">59</text>
</g>
<!-- 15&#45;&gt;43 -->
<g id="edge66" class="edge">
<title>15&#45;&gt;43</title>
<path fill="none" stroke="black" d="M398.12,-138.73C405.56,-130.58 413.98,-121.37 421.43,-113.23"/>
<polygon fill="black" stroke="black" points="395.49,-136.41 391.33,-146.15 400.66,-141.14 395.49,-136.41"/>
<polygon fill="black" stroke="black" points="424.04,-115.57 428.2,-105.82 418.87,-110.84 424.04,-115.57"/>
</g>
<!-- 15&#45;&gt;41 -->
<g id="edge65" class="edge">
<title>15&#45;&gt;41</title>
<path fill="none" stroke="black" d="M384.52,-134.31C390.93,-109.01 400.52,-71.21 406.94,-45.86"/>
<polygon fill="black" stroke="black" points="381.09,-133.6 382.02,-144.15 387.87,-135.32 381.09,-133.6"/>
<polygon fill="black" stroke="black" points="410.42,-46.38 409.49,-35.82 403.64,-44.66 410.42,-46.38"/>
</g>
<!-- 43&#45;&gt;43 -->
<g id="edge68" class="edge">
<title>43&#45;&gt;43</title>
<path fill="none" stroke="black" d="M471.79,-103.44C480.25,-102.86 486.75,-98.38 486.75,-90 486.75,-81.62 480.25,-77.14 471.79,-76.56"/>
<polygon fill="black" stroke="black" points="471.94,-99.93 461.65,-102.43 471.26,-106.9 471.94,-99.93"/>
<polygon fill="black" stroke="black" points="471.26,-73.1 461.65,-77.57 471.94,-80.07 471.26,-73.1"/>
</g>
<!-- 43&#45;&gt;41 -->
<g id="edge67" class="edge">
<title>43&#45;&gt;41</title>
<path fill="none" stroke="black" d="M431.32,-62.91C428.96,-57.02 426.46,-50.77 424.11,-44.89"/>
<polygon fill="black" stroke="black" points="428.15,-64.43 435.12,-72.41 434.65,-61.83 428.15,-64.43"/>
<polygon fill="black" stroke="black" points="427.3,-43.45 420.34,-35.47 420.81,-46.05 427.3,-43.45"/>
</g>
<!-- annotation -->
<g id="node18" class="node">
<title>annotation</title>
<text text-anchor="middle" x="1101.75" y="-590.9" font-family="Times,serif" font-size="12.00">Nodes: 10, Edges: 18, Coverage: 0.5169082125603864</text>
</g>
</g>
</svg>
