<?xml version="1.0" encoding="UTF-8" standalone="no"?>
<!DOCTYPE svg PUBLIC "-//W3C//DTD SVG 1.1//EN"
 "http://www.w3.org/Graphics/SVG/1.1/DTD/svg11.dtd">
<!-- Generated by graphviz version 2.43.0 (0)
 -->
<!-- Title: IRIS region connectivity Pages: 1 -->
<svg width="944pt" height="548pt"
 viewBox="0.00 0.00 944.00 548.00" xmlns="http://www.w3.org/2000/svg" xmlns:xlink="http://www.w3.org/1999/xlink">
<g id="graph0" class="graph" transform="scale(1 1) rotate(0) translate(4 544)">
<title>IRIS region connectivity</title>
<polygon fill="white" stroke="transparent" points="-4,4 -4,-544 940,-544 940,4 -4,4"/>
<!-- 0 -->
<g id="node1" class="node">
<title>0</title>
<ellipse fill="none" stroke="black" cx="346" cy="-450" rx="27" ry="18"/>
<text text-anchor="middle" x="346" y="-446.3" font-family="Times,serif" font-size="14.00">0</text>
</g>
<!-- 0&#45;&gt;0 -->
<g id="edge1" class="edge">
<title>0&#45;&gt;0</title>
<path fill="none" stroke="black" d="M376.04,-463.44C384.5,-462.86 391,-458.38 391,-450 391,-441.62 384.5,-437.14 376.04,-436.56"/>
<polygon fill="black" stroke="black" points="376.19,-459.93 365.9,-462.43 375.5,-466.9 376.19,-459.93"/>
<polygon fill="black" stroke="black" points="375.5,-433.1 365.9,-437.57 376.19,-440.07 375.5,-433.1"/>
</g>
<!-- 19 -->
<g id="node3" class="node">
<title>19</title>
<ellipse fill="none" stroke="black" cx="256" cy="-378" rx="27" ry="18"/>
<text text-anchor="middle" x="256" y="-374.3" font-family="Times,serif" font-size="14.00">19</text>
</g>
<!-- 0&#45;&gt;19 -->
<g id="edge2" class="edge">
<title>0&#45;&gt;19</title>
<path fill="none" stroke="black" d="M321.01,-429.56C308.53,-419.86 293.49,-408.16 281.01,-398.46"/>
<polygon fill="black" stroke="black" points="319.03,-432.46 329.07,-435.83 323.33,-426.93 319.03,-432.46"/>
<polygon fill="black" stroke="black" points="282.89,-395.48 272.85,-392.11 278.6,-401.01 282.89,-395.48"/>
</g>
<!-- 6 -->
<g id="node4" class="node">
<title>6</title>
<ellipse fill="none" stroke="black" cx="153" cy="-306" rx="27" ry="18"/>
<text text-anchor="middle" x="153" y="-302.3" font-family="Times,serif" font-size="14.00">6</text>
</g>
<!-- 0&#45;&gt;6 -->
<g id="edge5" class="edge">
<title>0&#45;&gt;6</title>
<path fill="none" stroke="black" d="M310.55,-441.69C281.35,-433.73 240.47,-418.96 211,-396 189.07,-378.92 170.65,-352.97 160.3,-333.49"/>
<polygon fill="black" stroke="black" points="309.8,-445.11 320.35,-444.23 311.55,-438.33 309.8,-445.11"/>
<polygon fill="black" stroke="black" points="163.31,-331.68 155.77,-324.24 157.03,-334.76 163.31,-331.68"/>
</g>
<!-- 0&#45;&gt;6 -->
<g id="edge17" class="edge">
<title>0&#45;&gt;6</title>
<path fill="none" stroke="black" d="M312.49,-437.77C287.67,-429.24 254.17,-415.61 229,-396 205.71,-377.86 186.38,-349.71 172.65,-329.94"/>
<polygon fill="black" stroke="black" points="311.62,-441.17 322.21,-441 313.83,-434.52 311.62,-441.17"/>
<polygon fill="black" stroke="black" points="175.35,-327.7 166.75,-321.51 169.62,-331.71 175.35,-327.7"/>
</g>
<!-- 17 -->
<g id="node5" class="node">
<title>17</title>
<ellipse fill="none" stroke="black" cx="395" cy="-306" rx="27" ry="18"/>
<text text-anchor="middle" x="395" y="-302.3" font-family="Times,serif" font-size="14.00">17</text>
</g>
<!-- 0&#45;&gt;17 -->
<g id="edge6" class="edge">
<title>0&#45;&gt;17</title>
<path fill="none" stroke="black" d="M349.92,-421.89C357.05,-396.01 370.44,-357.34 381.03,-332.14"/>
<polygon fill="black" stroke="black" points="346.45,-421.31 347.33,-431.87 353.23,-423.07 346.45,-421.31"/>
<polygon fill="black" stroke="black" points="384.28,-333.45 385.07,-322.88 377.86,-330.64 384.28,-333.45"/>
</g>
<!-- 0&#45;&gt;17 -->
<g id="edge18" class="edge">
<title>0&#45;&gt;17</title>
<path fill="none" stroke="black" d="M360.08,-423.6C370.67,-398.33 384.04,-359.7 391.14,-333.92"/>
<polygon fill="black" stroke="black" points="356.78,-422.42 355.99,-432.99 363.19,-425.22 356.78,-422.42"/>
<polygon fill="black" stroke="black" points="394.57,-334.61 393.69,-324.06 387.8,-332.86 394.57,-334.61"/>
</g>
<!-- 9 -->
<g id="node6" class="node">
<title>9</title>
<ellipse fill="none" stroke="black" cx="301" cy="-234" rx="27" ry="18"/>
<text text-anchor="middle" x="301" y="-230.3" font-family="Times,serif" font-size="14.00">9</text>
</g>
<!-- 0&#45;&gt;9 -->
<g id="edge9" class="edge">
<title>0&#45;&gt;9</title>
<path fill="none" stroke="black" d="M335.87,-422.78C324.47,-381.98 307.98,-303.68 302.05,-262.25"/>
<polygon fill="black" stroke="black" points="332.57,-423.95 338.74,-432.56 339.29,-421.98 332.57,-423.95"/>
<polygon fill="black" stroke="black" points="305.49,-261.55 300.72,-252.09 298.54,-262.45 305.49,-261.55"/>
</g>
<!-- 0&#45;&gt;9 -->
<g id="edge21" class="edge">
<title>0&#45;&gt;9</title>
<path fill="none" stroke="black" d="M344.98,-421.92C339.06,-380.49 322.52,-301.93 311.09,-261.1"/>
<polygon fill="black" stroke="black" points="341.51,-422.39 346.27,-431.85 348.45,-421.48 341.51,-422.39"/>
<polygon fill="black" stroke="black" points="314.41,-259.96 308.24,-251.35 307.69,-261.93 314.41,-259.96"/>
</g>
<!-- 11 -->
<g id="node7" class="node">
<title>11</title>
<ellipse fill="none" stroke="black" cx="573" cy="-162" rx="27" ry="18"/>
<text text-anchor="middle" x="573" y="-158.3" font-family="Times,serif" font-size="14.00">11</text>
</g>
<!-- 0&#45;&gt;11 -->
<g id="edge10" class="edge">
<title>0&#45;&gt;11</title>
<path fill="none" stroke="black" d="M383.1,-446.49C453.81,-441.31 603.92,-427.23 645,-396 711.59,-345.37 747.21,-285.06 700,-216 679.53,-186.06 639.44,-173.03 609.64,-167.36"/>
<polygon fill="black" stroke="black" points="382.58,-443.02 372.86,-447.22 383.08,-450 382.58,-443.02"/>
<polygon fill="black" stroke="black" points="610.02,-163.88 599.58,-165.65 608.85,-170.78 610.02,-163.88"/>
</g>
<!-- 0&#45;&gt;11 -->
<g id="edge22" class="edge">
<title>0&#45;&gt;11</title>
<path fill="none" stroke="black" d="M383.16,-447.16C457.42,-442.6 619.98,-428.71 663,-396 729.59,-345.37 765.21,-285.06 718,-216 694.48,-181.59 645.04,-169.52 610.31,-165.28"/>
<polygon fill="black" stroke="black" points="382.65,-443.68 372.87,-447.77 383.06,-450.67 382.65,-443.68"/>
<polygon fill="black" stroke="black" points="610.36,-161.77 600.05,-164.21 609.63,-168.73 610.36,-161.77"/>
</g>
<!-- 14 -->
<g id="node8" class="node">
<title>14</title>
<ellipse fill="none" stroke="black" cx="263" cy="-18" rx="27" ry="18"/>
<text text-anchor="middle" x="263" y="-14.3" font-family="Times,serif" font-size="14.00">14</text>
</g>
<!-- 0&#45;&gt;14 -->
<g id="edge13" class="edge">
<title>0&#45;&gt;14</title>
<path fill="none" stroke="black" d="M308.62,-449.83C218.98,-450.08 0,-438.02 0,-307 0,-307 0,-307 0,-161 0,-60.36 153.8,-30.36 226.28,-22.01"/>
<polygon fill="black" stroke="black" points="308.91,-453.33 318.88,-449.75 308.85,-446.33 308.91,-453.33"/>
<polygon fill="black" stroke="black" points="226.79,-25.47 236.36,-20.92 226.04,-18.51 226.79,-25.47"/>
</g>
<!-- 0&#45;&gt;14 -->
<g id="edge25" class="edge">
<title>0&#45;&gt;14</title>
<path fill="none" stroke="black" d="M308.65,-449.81C222.52,-449.14 18,-433.62 18,-307 18,-307 18,-307 18,-161 18,-64.89 158.26,-33.21 226.63,-23.27"/>
<polygon fill="black" stroke="black" points="308.78,-453.31 318.79,-449.82 308.79,-446.31 308.78,-453.31"/>
<polygon fill="black" stroke="black" points="227.13,-26.74 236.56,-21.91 226.18,-19.8 227.13,-26.74"/>
</g>
<!-- 15 -->
<g id="node9" class="node">
<title>15</title>
<ellipse fill="none" stroke="black" cx="491" cy="-90" rx="27" ry="18"/>
<text text-anchor="middle" x="491" y="-86.3" font-family="Times,serif" font-size="14.00">15</text>
</g>
<!-- 0&#45;&gt;15 -->
<g id="edge14" class="edge">
<title>0&#45;&gt;15</title>
<path fill="none" stroke="black" d="M383.35,-449.23C447.95,-448.15 582.99,-440.01 687,-396 747.17,-370.54 804,-372.33 804,-307 804,-307 804,-307 804,-233 804,-112.01 611.32,-93.23 528.22,-90.93"/>
<polygon fill="black" stroke="black" points="383.2,-445.74 373.24,-449.36 383.28,-452.74 383.2,-445.74"/>
<polygon fill="black" stroke="black" points="528.26,-87.43 518.18,-90.72 528.11,-94.43 528.26,-87.43"/>
</g>
<!-- 0&#45;&gt;15 -->
<g id="edge26" class="edge">
<title>0&#45;&gt;15</title>
<path fill="none" stroke="black" d="M383.29,-449.36C450.65,-448.95 595.13,-442.49 705,-396 765.17,-370.54 822,-372.33 822,-307 822,-307 822,-307 822,-233 822,-107.63 615.13,-92.01 528.38,-90.75"/>
<polygon fill="black" stroke="black" points="383.15,-445.86 373.15,-449.37 383.16,-452.86 383.15,-445.86"/>
<polygon fill="black" stroke="black" points="528.21,-87.24 518.18,-90.66 528.15,-94.24 528.21,-87.24"/>
</g>
<!-- 18 -->
<g id="node2" class="node">
<title>18</title>
<ellipse fill="none" stroke="black" cx="453" cy="-522" rx="27" ry="18"/>
<text text-anchor="middle" x="453" y="-518.3" font-family="Times,serif" font-size="14.00">18</text>
</g>
<!-- 18&#45;&gt;0 -->
<g id="edge3" class="edge">
<title>18&#45;&gt;0</title>
<path fill="none" stroke="black" d="M425.8,-503.2C409.69,-492.67 389.36,-479.36 373.25,-468.82"/>
<polygon fill="black" stroke="black" points="424.08,-506.26 434.36,-508.81 427.91,-500.4 424.08,-506.26"/>
<polygon fill="black" stroke="black" points="375.07,-465.83 364.78,-463.29 371.24,-471.69 375.07,-465.83"/>
</g>
<!-- 18&#45;&gt;19 -->
<g id="edge4" class="edge">
<title>18&#45;&gt;19</title>
<path fill="none" stroke="black" d="M416.91,-514.59C385.8,-507.56 341.09,-493.67 310,-468 289.73,-451.27 275.06,-424.82 266.18,-405.1"/>
<polygon fill="black" stroke="black" points="416.4,-518.06 426.91,-516.72 417.86,-511.21 416.4,-518.06"/>
<polygon fill="black" stroke="black" points="269.33,-403.57 262.17,-395.76 262.9,-406.33 269.33,-403.57"/>
</g>
<!-- 18&#45;&gt;6 -->
<g id="edge7" class="edge">
<title>18&#45;&gt;6</title>
<path fill="none" stroke="black" d="M416.59,-515.82C356.62,-505.18 238.12,-474.84 182,-396 168.86,-377.54 161.43,-352.79 157.39,-334.08"/>
<polygon fill="black" stroke="black" points="416.29,-519.32 426.73,-517.53 417.45,-512.41 416.29,-519.32"/>
<polygon fill="black" stroke="black" points="160.8,-333.25 155.43,-324.12 153.93,-334.6 160.8,-333.25"/>
</g>
<!-- 18&#45;&gt;17 -->
<g id="edge8" class="edge">
<title>18&#45;&gt;17</title>
<path fill="none" stroke="black" d="M445.78,-494.38C434.66,-453.34 413.45,-375.07 402.28,-333.88"/>
<polygon fill="black" stroke="black" points="442.45,-495.47 448.45,-504.21 449.21,-493.64 442.45,-495.47"/>
<polygon fill="black" stroke="black" points="405.6,-332.75 399.61,-324.01 398.85,-334.58 405.6,-332.75"/>
</g>
<!-- 18&#45;&gt;9 -->
<g id="edge11" class="edge">
<title>18&#45;&gt;9</title>
<path fill="none" stroke="black" d="M458.81,-493.91C467.25,-446.85 477.25,-349.2 431,-288 408.85,-258.69 367.72,-245.52 337.63,-239.65"/>
<polygon fill="black" stroke="black" points="455.33,-493.47 456.89,-503.94 462.21,-494.78 455.33,-493.47"/>
<polygon fill="black" stroke="black" points="337.96,-236.15 327.5,-237.86 336.74,-243.04 337.96,-236.15"/>
</g>
<!-- 18&#45;&gt;11 -->
<g id="edge12" class="edge">
<title>18&#45;&gt;11</title>
<path fill="none" stroke="black" d="M483.41,-506.28C485.29,-505.48 487.16,-504.72 489,-504 651.13,-440.84 860,-553 860,-379 860,-379 860,-379 860,-305 860,-194.83 688,-170.13 610.31,-164.6"/>
<polygon fill="black" stroke="black" points="481.81,-503.16 474.11,-510.43 484.66,-509.55 481.81,-503.16"/>
<polygon fill="black" stroke="black" points="610.2,-161.09 600,-163.94 609.76,-168.07 610.2,-161.09"/>
</g>
<!-- 18&#45;&gt;14 -->
<g id="edge15" class="edge">
<title>18&#45;&gt;14</title>
<path fill="none" stroke="black" d="M483.11,-505.87C485.08,-505.17 487.05,-504.53 489,-504 572.96,-481.07 804.65,-513.24 879,-468 919.13,-443.58 936,-425.97 936,-379 936,-379 936,-379 936,-161 936,-30.07 442.19,-19.26 300.55,-18.85"/>
<polygon fill="black" stroke="black" points="481.38,-502.79 473.47,-509.83 484.05,-509.27 481.38,-502.79"/>
<polygon fill="black" stroke="black" points="300.22,-15.35 290.22,-18.83 300.21,-22.35 300.22,-15.35"/>
</g>
<!-- 18&#45;&gt;15 -->
<g id="edge16" class="edge">
<title>18&#45;&gt;15</title>
<path fill="none" stroke="black" d="M483.11,-505.89C485.08,-505.18 487.05,-504.54 489,-504 565.83,-482.67 778.92,-511.11 846,-468 884.54,-443.23 898,-424.81 898,-379 898,-379 898,-379 898,-233 898,-175.47 855.48,-169.69 804,-144 712.59,-98.38 589.45,-91.04 528.45,-90.46"/>
<polygon fill="black" stroke="black" points="481.38,-502.81 473.48,-509.86 484.06,-509.29 481.38,-502.81"/>
<polygon fill="black" stroke="black" points="528.17,-86.96 518.16,-90.42 528.15,-93.96 528.17,-86.96"/>
</g>
<!-- 19&#45;&gt;6 -->
<g id="edge19" class="edge">
<title>19&#45;&gt;6</title>
<path fill="none" stroke="black" d="M229.13,-358.74C213.9,-348.39 194.91,-335.49 179.71,-325.15"/>
<polygon fill="black" stroke="black" points="227.35,-361.76 237.59,-364.49 231.28,-355.97 227.35,-361.76"/>
<polygon fill="black" stroke="black" points="181.49,-322.13 171.25,-319.41 177.56,-327.92 181.49,-322.13"/>
</g>
<!-- 19&#45;&gt;17 -->
<g id="edge20" class="edge">
<title>19&#45;&gt;17</title>
<path fill="none" stroke="black" d="M286.03,-361.88C309.37,-350.12 341.6,-333.89 364.95,-322.13"/>
<polygon fill="black" stroke="black" points="284.17,-358.9 276.81,-366.52 287.32,-365.15 284.17,-358.9"/>
<polygon fill="black" stroke="black" points="366.69,-325.18 374.05,-317.55 363.54,-318.92 366.69,-325.18"/>
</g>
<!-- 19&#45;&gt;9 -->
<g id="edge23" class="edge">
<title>19&#45;&gt;9</title>
<path fill="none" stroke="black" d="M264.46,-350.31C272.51,-324.9 284.56,-286.87 292.6,-261.52"/>
<polygon fill="black" stroke="black" points="261.02,-349.56 261.34,-360.15 267.7,-351.68 261.02,-349.56"/>
<polygon fill="black" stroke="black" points="295.98,-262.42 295.67,-251.82 289.31,-260.3 295.98,-262.42"/>
</g>
<!-- 19&#45;&gt;11 -->
<g id="edge24" class="edge">
<title>19&#45;&gt;11</title>
<path fill="none" stroke="black" d="M248.39,-350.05C240.2,-314.63 232.33,-252.64 265,-216 300.27,-176.43 461.13,-166.39 535.31,-163.85"/>
<polygon fill="black" stroke="black" points="245.09,-351.27 250.9,-360.13 251.88,-349.58 245.09,-351.27"/>
<polygon fill="black" stroke="black" points="535.72,-167.34 545.61,-163.53 535.5,-160.34 535.72,-167.34"/>
</g>
<!-- 19&#45;&gt;14 -->
<g id="edge27" class="edge">
<title>19&#45;&gt;14</title>
<path fill="none" stroke="black" d="M220.91,-369.15C163.55,-354 56,-314.94 56,-235 56,-235 56,-235 56,-161 56,-78.98 167.87,-40.81 227.13,-26.35"/>
<polygon fill="black" stroke="black" points="220.12,-372.55 230.67,-371.62 221.84,-365.77 220.12,-372.55"/>
<polygon fill="black" stroke="black" points="228.26,-29.68 237.2,-23.99 226.67,-22.86 228.26,-29.68"/>
</g>
<!-- 19&#45;&gt;15 -->
<g id="edge28" class="edge">
<title>19&#45;&gt;15</title>
<path fill="none" stroke="black" d="M244.78,-351.3C241.61,-342.78 238.59,-333.14 237,-324 232.87,-300.23 241.49,-216.93 242,-216 284.87,-137.2 396.31,-106.97 454.47,-96.29"/>
<polygon fill="black" stroke="black" points="241.56,-352.68 248.5,-360.69 248.07,-350.1 241.56,-352.68"/>
<polygon fill="black" stroke="black" points="455.42,-99.68 464.68,-94.52 454.22,-92.78 455.42,-99.68"/>
</g>
<!-- 6&#45;&gt;9 -->
<g id="edge45" class="edge">
<title>6&#45;&gt;9</title>
<path fill="none" stroke="black" d="M183.67,-290.49C209.04,-278.5 244.9,-261.53 270.28,-249.53"/>
<polygon fill="black" stroke="black" points="182.06,-287.38 174.52,-294.82 185.06,-293.71 182.06,-287.38"/>
<polygon fill="black" stroke="black" points="271.91,-252.63 279.45,-245.19 268.92,-246.3 271.91,-252.63"/>
</g>
<!-- 6&#45;&gt;11 -->
<g id="edge46" class="edge">
<title>6&#45;&gt;11</title>
<path fill="none" stroke="black" d="M167.99,-280.14C181.88,-259.44 204.51,-231 232,-216 283.99,-187.63 459.05,-171.47 536.09,-165.58"/>
<polygon fill="black" stroke="black" points="164.91,-278.46 162.41,-288.76 170.78,-282.27 164.91,-278.46"/>
<polygon fill="black" stroke="black" points="536.58,-169.05 546.29,-164.82 536.05,-162.07 536.58,-169.05"/>
</g>
<!-- 6&#45;&gt;14 -->
<g id="edge49" class="edge">
<title>6&#45;&gt;14</title>
<path fill="none" stroke="black" d="M149.92,-277.63C149.13,-269.4 148.39,-260.34 148,-252 145.71,-203.39 144.73,-187.77 166,-144 185.53,-103.83 219.39,-64.25 241.49,-40.73"/>
<polygon fill="black" stroke="black" points="146.47,-278.25 150.97,-287.84 153.43,-277.54 146.47,-278.25"/>
<polygon fill="black" stroke="black" points="244.12,-43.04 248.5,-33.39 239.06,-38.2 244.12,-43.04"/>
</g>
<!-- 6&#45;&gt;15 -->
<g id="edge50" class="edge">
<title>6&#45;&gt;15</title>
<path fill="none" stroke="black" d="M151.62,-277.67C151.4,-241.57 156.86,-178.53 194,-144 231.22,-109.4 382.64,-96.8 453.77,-92.73"/>
<polygon fill="black" stroke="black" points="148.12,-278.03 151.84,-287.95 155.12,-277.88 148.12,-278.03"/>
<polygon fill="black" stroke="black" points="454.26,-96.21 464.06,-92.17 453.88,-89.22 454.26,-96.21"/>
</g>
<!-- 17&#45;&gt;9 -->
<g id="edge47" class="edge">
<title>17&#45;&gt;9</title>
<path fill="none" stroke="black" d="M369.29,-285.85C355.99,-275.95 339.8,-263.89 326.53,-254.01"/>
<polygon fill="black" stroke="black" points="367.21,-288.67 377.32,-291.83 371.39,-283.05 367.21,-288.67"/>
<polygon fill="black" stroke="black" points="328.39,-251.04 318.28,-247.87 324.21,-256.65 328.39,-251.04"/>
</g>
<!-- 17&#45;&gt;11 -->
<g id="edge48" class="edge">
<title>17&#45;&gt;11</title>
<path fill="none" stroke="black" d="M419.99,-285.06C454.04,-257.9 514.62,-209.57 548.44,-182.59"/>
<polygon fill="black" stroke="black" points="417.38,-282.67 411.75,-291.64 421.75,-288.14 417.38,-282.67"/>
<polygon fill="black" stroke="black" points="550.79,-185.19 556.43,-176.22 546.43,-179.72 550.79,-185.19"/>
</g>
<!-- 17&#45;&gt;14 -->
<g id="edge51" class="edge">
<title>17&#45;&gt;14</title>
<path fill="none" stroke="black" d="M383.63,-279.36C364.48,-236.32 324.41,-146.92 289,-72 284.69,-62.88 279.85,-52.94 275.53,-44.16"/>
<polygon fill="black" stroke="black" points="380.45,-280.82 387.71,-288.54 386.85,-277.98 380.45,-280.82"/>
<polygon fill="black" stroke="black" points="278.66,-42.59 271.09,-35.18 272.38,-45.69 278.66,-42.59"/>
</g>
<!-- 17&#45;&gt;15 -->
<g id="edge52" class="edge">
<title>17&#45;&gt;15</title>
<path fill="none" stroke="black" d="M392.69,-277.48C391.18,-243.6 393.01,-185.46 418,-144 427.84,-127.67 444.83,-114.89 459.94,-105.97"/>
<polygon fill="black" stroke="black" points="389.2,-277.8 393.28,-287.58 396.19,-277.39 389.2,-277.8"/>
<polygon fill="black" stroke="black" points="461.99,-108.84 469.03,-100.92 458.59,-102.72 461.99,-108.84"/>
</g>
<!-- 9&#45;&gt;11 -->
<g id="edge57" class="edge">
<title>9&#45;&gt;11</title>
<path fill="none" stroke="black" d="M335.87,-224.03C388.07,-210.59 485.97,-185.4 538.16,-171.97"/>
<polygon fill="black" stroke="black" points="334.91,-220.66 326.1,-226.54 336.66,-227.44 334.91,-220.66"/>
<polygon fill="black" stroke="black" points="539.15,-175.33 547.96,-169.44 537.4,-168.55 539.15,-175.33"/>
</g>
<!-- 9&#45;&gt;14 -->
<g id="edge61" class="edge">
<title>9&#45;&gt;14</title>
<path fill="none" stroke="black" d="M296.2,-205.97C288.9,-164.87 275.1,-87.11 267.8,-46.02"/>
<polygon fill="black" stroke="black" points="292.76,-206.62 297.95,-215.85 299.65,-205.39 292.76,-206.62"/>
<polygon fill="black" stroke="black" points="271.2,-45.17 266.01,-35.94 264.31,-46.39 271.2,-45.17"/>
</g>
<!-- 9&#45;&gt;15 -->
<g id="edge58" class="edge">
<title>9&#45;&gt;15</title>
<path fill="none" stroke="black" d="M311.8,-207.49C324.89,-188.19 347.06,-162.02 371,-144 396.91,-124.5 431.13,-109.49 456.57,-100.5"/>
<polygon fill="black" stroke="black" points="308.75,-205.77 306.3,-216.08 314.64,-209.55 308.75,-205.77"/>
<polygon fill="black" stroke="black" points="457.85,-103.76 466.2,-97.24 455.6,-97.13 457.85,-103.76"/>
</g>
<!-- 9&#45;&gt;15 -->
<g id="edge62" class="edge">
<title>9&#45;&gt;15</title>
<path fill="none" stroke="black" d="M323.28,-211.32C339.89,-191.78 363.43,-163.24 389,-144 411.05,-127.41 439.12,-114.06 460.35,-104.91"/>
<polygon fill="black" stroke="black" points="320.47,-209.22 316.6,-219.09 325.78,-213.78 320.47,-209.22"/>
<polygon fill="black" stroke="black" points="461.74,-108.13 469.59,-101.01 459.01,-101.68 461.74,-108.13"/>
</g>
<!-- 11&#45;&gt;11 -->
<g id="edge59" class="edge">
<title>11&#45;&gt;11</title>
<path fill="none" stroke="black" d="M603.04,-175.44C611.5,-174.86 618,-170.38 618,-162 618,-153.62 611.5,-149.14 603.04,-148.56"/>
<polygon fill="black" stroke="black" points="603.19,-171.93 592.9,-174.43 602.5,-178.9 603.19,-171.93"/>
<polygon fill="black" stroke="black" points="602.5,-145.1 592.9,-149.57 603.19,-152.07 602.5,-145.1"/>
</g>
<!-- 11&#45;&gt;14 -->
<g id="edge63" class="edge">
<title>11&#45;&gt;14</title>
<path fill="none" stroke="black" d="M564.38,-134.44C560.29,-114.36 553.66,-87.68 536,-72 501.08,-41 366.07,-26.98 299.83,-21.7"/>
<polygon fill="black" stroke="black" points="561,-135.39 566.39,-144.51 567.87,-134.02 561,-135.39"/>
<polygon fill="black" stroke="black" points="300.06,-18.2 289.82,-20.92 299.52,-25.18 300.06,-18.2"/>
</g>
<!-- 11&#45;&gt;14 -->
<g id="edge65" class="edge">
<title>11&#45;&gt;14</title>
<path fill="none" stroke="black" d="M579.04,-134.09C578.21,-114.05 571.56,-87.59 554,-72 517.32,-39.45 370.25,-25.62 300.2,-20.97"/>
<polygon fill="black" stroke="black" points="575.54,-134.13 578.96,-144.16 582.54,-134.19 575.54,-134.13"/>
<polygon fill="black" stroke="black" points="300.24,-17.46 290.04,-20.32 299.8,-24.45 300.24,-17.46"/>
</g>
<!-- 11&#45;&gt;15 -->
<g id="edge60" class="edge">
<title>11&#45;&gt;15</title>
<path fill="none" stroke="black" d="M542.94,-145.17C530.38,-136.21 516.6,-124.84 506.04,-114.83"/>
<polygon fill="black" stroke="black" points="541.22,-148.23 551.45,-150.97 545.16,-142.44 541.22,-148.23"/>
<polygon fill="black" stroke="black" points="508.23,-112.06 498.67,-107.5 503.29,-117.03 508.23,-112.06"/>
</g>
<!-- 11&#45;&gt;15 -->
<g id="edge64" class="edge">
<title>11&#45;&gt;15</title>
<path fill="none" stroke="black" d="M548.82,-140.36C538.04,-131.15 525.37,-120.34 514.65,-111.19"/>
<polygon fill="black" stroke="black" points="546.92,-143.34 556.8,-147.17 551.47,-138.02 546.92,-143.34"/>
<polygon fill="black" stroke="black" points="516.77,-108.39 506.89,-104.56 512.22,-113.72 516.77,-108.39"/>
</g>
<!-- 11&#45;&gt;15 -->
<g id="edge66" class="edge">
<title>11&#45;&gt;15</title>
<path fill="none" stroke="black" d="M557.84,-137.06C547.25,-127.04 533.47,-115.67 520.92,-106.73"/>
<polygon fill="black" stroke="black" points="555.68,-139.85 565.25,-144.41 560.61,-134.88 555.68,-139.85"/>
<polygon fill="black" stroke="black" points="522.71,-103.72 512.48,-100.98 518.77,-109.51 522.71,-103.72"/>
</g>
<!-- 15&#45;&gt;14 -->
<g id="edge67" class="edge">
<title>15&#45;&gt;14</title>
<path fill="none" stroke="black" d="M457.4,-78.68C414.29,-65.45 339.92,-42.62 296.74,-29.36"/>
<polygon fill="black" stroke="black" points="456.44,-82.05 467.03,-81.64 458.5,-75.36 456.44,-82.05"/>
<polygon fill="black" stroke="black" points="297.58,-25.95 286.99,-26.37 295.52,-32.65 297.58,-25.95"/>
</g>
<!-- 15&#45;&gt;15 -->
<g id="edge68" class="edge">
<title>15&#45;&gt;15</title>
<path fill="none" stroke="black" d="M521.04,-103.44C529.5,-102.86 536,-98.38 536,-90 536,-81.62 529.5,-77.14 521.04,-76.56"/>
<polygon fill="black" stroke="black" points="521.19,-99.93 510.9,-102.43 520.5,-106.9 521.19,-99.93"/>
<polygon fill="black" stroke="black" points="520.5,-73.1 510.9,-77.57 521.19,-80.07 520.5,-73.1"/>
</g>
<!-- 5 -->
<g id="node10" class="node">
<title>5</title>
<ellipse fill="none" stroke="black" cx="600" cy="-378" rx="27" ry="18"/>
<text text-anchor="middle" x="600" y="-374.3" font-family="Times,serif" font-size="14.00">5</text>
</g>
<!-- 5&#45;&gt;11 -->
<g id="edge37" class="edge">
<title>5&#45;&gt;11</title>
<path fill="none" stroke="black" d="M625.39,-357.53C662.3,-326.81 723.03,-265.49 691,-216 673.1,-188.33 636.94,-174.97 609.35,-168.6"/>
<polygon fill="black" stroke="black" points="623.04,-354.94 617.48,-363.96 627.45,-360.37 623.04,-354.94"/>
<polygon fill="black" stroke="black" points="609.75,-165.11 599.24,-166.49 608.32,-171.96 609.75,-165.11"/>
</g>
<!-- 5&#45;&gt;15 -->
<g id="edge38" class="edge">
<title>5&#45;&gt;15</title>
<path fill="none" stroke="black" d="M567.35,-364.2C549.76,-355.55 529.4,-342.34 518,-324 477.7,-259.16 481.94,-164.34 487.1,-118.21"/>
<polygon fill="black" stroke="black" points="566.21,-367.53 576.75,-368.54 569.14,-361.17 566.21,-367.53"/>
<polygon fill="black" stroke="black" points="490.6,-118.45 488.34,-108.1 483.65,-117.6 490.6,-118.45"/>
</g>
<!-- 5&#45;&gt;5 -->
<g id="edge29" class="edge">
<title>5&#45;&gt;5</title>
<path fill="none" stroke="black" d="M630.04,-391.44C638.5,-390.86 645,-386.38 645,-378 645,-369.62 638.5,-365.14 630.04,-364.56"/>
<polygon fill="black" stroke="black" points="630.19,-387.93 619.9,-390.43 629.5,-394.9 630.19,-387.93"/>
<polygon fill="black" stroke="black" points="629.5,-361.1 619.9,-365.57 630.19,-368.07 629.5,-361.1"/>
</g>
<!-- 8 -->
<g id="node11" class="node">
<title>8</title>
<ellipse fill="none" stroke="black" cx="554" cy="-306" rx="27" ry="18"/>
<text text-anchor="middle" x="554" y="-302.3" font-family="Times,serif" font-size="14.00">8</text>
</g>
<!-- 5&#45;&gt;8 -->
<g id="edge33" class="edge">
<title>5&#45;&gt;8</title>
<path fill="none" stroke="black" d="M574.79,-357.32C568.56,-349.79 562.56,-341.08 558.02,-333.05"/>
<polygon fill="black" stroke="black" points="572.19,-359.66 581.45,-364.81 577.42,-355.01 572.19,-359.66"/>
<polygon fill="black" stroke="black" points="561.08,-331.35 553.42,-324.03 554.85,-334.53 561.08,-331.35"/>
</g>
<!-- 5&#45;&gt;8 -->
<g id="edge41" class="edge">
<title>5&#45;&gt;8</title>
<path fill="none" stroke="black" d="M595.84,-350.7C591.38,-342.85 585.54,-334.37 579.46,-326.99"/>
<polygon fill="black" stroke="black" points="592.78,-352.4 600.46,-359.7 599,-349.2 592.78,-352.4"/>
<polygon fill="black" stroke="black" points="582.08,-324.66 572.83,-319.49 576.84,-329.3 582.08,-324.66"/>
</g>
<!-- 10 -->
<g id="node12" class="node">
<title>10</title>
<ellipse fill="none" stroke="black" cx="637" cy="-234" rx="27" ry="18"/>
<text text-anchor="middle" x="637" y="-230.3" font-family="Times,serif" font-size="14.00">10</text>
</g>
<!-- 5&#45;&gt;10 -->
<g id="edge30" class="edge">
<title>5&#45;&gt;10</title>
<path fill="none" stroke="black" d="M596.16,-350.08C599.32,-323.93 609.7,-284.58 620.18,-259.34"/>
<polygon fill="black" stroke="black" points="592.67,-349.89 595.28,-360.15 599.64,-350.5 592.67,-349.89"/>
<polygon fill="black" stroke="black" points="623.43,-260.65 624.35,-250.1 617.05,-257.78 623.43,-260.65"/>
</g>
<!-- 5&#45;&gt;10 -->
<g id="edge34" class="edge">
<title>5&#45;&gt;10</title>
<path fill="none" stroke="black" d="M606.95,-350.31C613.58,-324.9 623.48,-286.87 630.09,-261.52"/>
<polygon fill="black" stroke="black" points="603.52,-349.59 604.39,-360.15 610.3,-351.36 603.52,-349.59"/>
<polygon fill="black" stroke="black" points="633.48,-262.38 632.62,-251.82 626.71,-260.62 633.48,-262.38"/>
</g>
<!-- 5&#45;&gt;10 -->
<g id="edge42" class="edge">
<title>5&#45;&gt;10</title>
<path fill="none" stroke="black" d="M616.9,-352.45C627.32,-327.28 637.63,-288.22 640.81,-262.14"/>
<polygon fill="black" stroke="black" points="613.61,-351.25 612.7,-361.8 619.99,-354.12 613.61,-351.25"/>
<polygon fill="black" stroke="black" points="644.33,-262.11 641.72,-251.84 637.35,-261.49 644.33,-262.11"/>
</g>
<!-- 8&#45;&gt;11 -->
<g id="edge39" class="edge">
<title>8&#45;&gt;11</title>
<path fill="none" stroke="black" d="M552.21,-277.62C553.86,-252.27 558.89,-214.81 564.02,-189.69"/>
<polygon fill="black" stroke="black" points="548.7,-277.71 551.71,-287.87 555.69,-278.05 548.7,-277.71"/>
<polygon fill="black" stroke="black" points="567.48,-190.27 566.22,-179.75 560.64,-188.76 567.48,-190.27"/>
</g>
<!-- 8&#45;&gt;11 -->
<g id="edge53" class="edge">
<title>8&#45;&gt;11</title>
<path fill="none" stroke="black" d="M562.98,-278.29C568.11,-253.17 573.14,-215.74 574.79,-190.4"/>
<polygon fill="black" stroke="black" points="559.48,-277.91 560.74,-288.43 566.32,-279.43 559.48,-277.91"/>
<polygon fill="black" stroke="black" points="578.29,-190.51 575.29,-180.35 571.3,-190.16 578.29,-190.51"/>
</g>
<!-- 8&#45;&gt;15 -->
<g id="edge40" class="edge">
<title>8&#45;&gt;15</title>
<path fill="none" stroke="black" d="M541.92,-279.46C527.07,-238.82 503.76,-159.76 494.31,-118.13"/>
<polygon fill="black" stroke="black" points="538.68,-280.8 545.49,-288.92 545.23,-278.32 538.68,-280.8"/>
<polygon fill="black" stroke="black" points="497.69,-117.2 492.17,-108.16 490.85,-118.67 497.69,-117.2"/>
</g>
<!-- 8&#45;&gt;15 -->
<g id="edge54" class="edge">
<title>8&#45;&gt;15</title>
<path fill="none" stroke="black" d="M550.7,-277.92C541.28,-236.41 518.05,-157.59 503.19,-116.84"/>
<polygon fill="black" stroke="black" points="547.31,-278.81 552.83,-287.85 554.15,-277.34 547.31,-278.81"/>
<polygon fill="black" stroke="black" points="506.42,-115.47 499.61,-107.35 499.87,-117.94 506.42,-115.47"/>
</g>
<!-- 8&#45;&gt;5 -->
<g id="edge31" class="edge">
<title>8&#45;&gt;5</title>
<path fill="none" stroke="black" d="M570.17,-331.6C574.62,-338.39 579.46,-345.74 583.91,-352.51"/>
<polygon fill="black" stroke="black" points="572.81,-329.26 564.4,-322.82 566.96,-333.1 572.81,-329.26"/>
<polygon fill="black" stroke="black" points="581.15,-354.68 589.56,-361.12 587,-350.84 581.15,-354.68"/>
</g>
<!-- 8&#45;&gt;8 -->
<g id="edge35" class="edge">
<title>8&#45;&gt;8</title>
<path fill="none" stroke="black" d="M584.04,-319.44C592.5,-318.86 599,-314.38 599,-306 599,-297.62 592.5,-293.14 584.04,-292.56"/>
<polygon fill="black" stroke="black" points="584.19,-315.93 573.9,-318.43 583.5,-322.9 584.19,-315.93"/>
<polygon fill="black" stroke="black" points="583.5,-289.1 573.9,-293.57 584.19,-296.07 583.5,-289.1"/>
</g>
<!-- 8&#45;&gt;10 -->
<g id="edge32" class="edge">
<title>8&#45;&gt;10</title>
<path fill="none" stroke="black" d="M569.13,-281.41C579.89,-271.32 593.97,-259.82 606.78,-250.79"/>
<polygon fill="black" stroke="black" points="566.68,-278.91 561.99,-288.41 571.58,-283.91 566.68,-278.91"/>
<polygon fill="black" stroke="black" points="609.05,-253.48 615.38,-244.98 605.13,-247.68 609.05,-253.48"/>
</g>
<!-- 8&#45;&gt;10 -->
<g id="edge36" class="edge">
<title>8&#45;&gt;10</title>
<path fill="none" stroke="black" d="M578.09,-284.69C589.06,-275.43 602.02,-264.5 612.99,-255.25"/>
<polygon fill="black" stroke="black" points="575.79,-282.05 570.4,-291.17 580.3,-287.4 575.79,-282.05"/>
<polygon fill="black" stroke="black" points="615.53,-257.69 620.92,-248.56 611.02,-252.33 615.53,-257.69"/>
</g>
<!-- 10&#45;&gt;11 -->
<g id="edge55" class="edge">
<title>10&#45;&gt;11</title>
<path fill="none" stroke="black" d="M616.64,-210.73C609.19,-202.58 600.77,-193.37 593.33,-185.23"/>
<polygon fill="black" stroke="black" points="614.1,-213.14 623.43,-218.15 619.26,-208.41 614.1,-213.14"/>
<polygon fill="black" stroke="black" points="595.88,-182.84 586.55,-177.82 590.72,-187.57 595.88,-182.84"/>
</g>
<!-- 10&#45;&gt;15 -->
<g id="edge56" class="edge">
<title>10&#45;&gt;15</title>
<path fill="none" stroke="black" d="M640.85,-205.82C642.04,-186.65 640.37,-161.39 627,-144 603.34,-113.23 559.3,-100.31 527.74,-94.89"/>
<polygon fill="black" stroke="black" points="637.34,-205.74 639.91,-216.02 644.31,-206.38 637.34,-205.74"/>
<polygon fill="black" stroke="black" points="527.98,-91.39 517.56,-93.33 526.92,-98.3 527.98,-91.39"/>
</g>
<!-- 10&#45;&gt;8 -->
<g id="edge43" class="edge">
<title>10&#45;&gt;8</title>
<path fill="none" stroke="black" d="M621.93,-258.53C611.19,-268.61 597.1,-280.12 584.28,-289.17"/>
<polygon fill="black" stroke="black" points="624.41,-261 629.1,-251.5 619.51,-256 624.41,-261"/>
<polygon fill="black" stroke="black" points="582.02,-286.47 575.69,-294.97 585.94,-292.27 582.02,-286.47"/>
</g>
<!-- 10&#45;&gt;10 -->
<g id="edge44" class="edge">
<title>10&#45;&gt;10</title>
<path fill="none" stroke="black" d="M667.04,-247.44C675.5,-246.86 682,-242.38 682,-234 682,-225.62 675.5,-221.14 667.04,-220.56"/>
<polygon fill="black" stroke="black" points="667.19,-243.93 656.9,-246.43 666.5,-250.9 667.19,-243.93"/>
<polygon fill="black" stroke="black" points="666.5,-217.1 656.9,-221.57 667.19,-224.07 666.5,-217.1"/>
</g>
<!-- annotation -->
<g id="node13" class="node">
<title>annotation</title>
<text text-anchor="middle" x="664" y="-518.9" font-family="Times,serif" font-size="12.00">Nodes: 9, Edges: 17, Coverage: 0.12146307798481712</text>
</g>
</g>
</svg>
