<?xml version="1.0" encoding="UTF-8" standalone="no"?>
<!DOCTYPE svg PUBLIC "-//W3C//DTD SVG 1.1//EN"
 "http://www.w3.org/Graphics/SVG/1.1/DTD/svg11.dtd">
<!-- Generated by graphviz version 2.43.0 (0)
 -->
<!-- Title: IRIS region connectivity Pages: 1 -->
<svg width="345pt" height="404pt"
 viewBox="0.00 0.00 345.39 404.00" xmlns="http://www.w3.org/2000/svg" xmlns:xlink="http://www.w3.org/1999/xlink">
<g id="graph0" class="graph" transform="scale(1 1) rotate(0) translate(4 400)">
<title>IRIS region connectivity</title>
<polygon fill="white" stroke="transparent" points="-4,4 -4,-400 341.39,-400 341.39,4 -4,4"/>
<!-- set0 -->
<g id="node1" class="node">
<title>set0</title>
<ellipse fill="none" stroke="black" cx="97" cy="-378" rx="30.59" ry="18"/>
<text text-anchor="middle" x="97" y="-374.3" font-family="Times,serif" font-size="14.00">set0</text>
</g>
<!-- set1 -->
<g id="node2" class="node">
<title>set1</title>
<ellipse fill="none" stroke="black" cx="156" cy="-306" rx="30.59" ry="18"/>
<text text-anchor="middle" x="156" y="-302.3" font-family="Times,serif" font-size="14.00">set1</text>
</g>
<!-- set0&#45;&gt;set1 -->
<g id="edge1" class="edge">
<title>set0&#45;&gt;set1</title>
<path fill="none" stroke="black" d="M116.69,-353.64C123.03,-346.12 130.06,-337.78 136.4,-330.25"/>
<polygon fill="black" stroke="black" points="113.86,-351.56 110.09,-361.46 119.21,-356.07 113.86,-351.56"/>
<polygon fill="black" stroke="black" points="139.17,-332.39 142.94,-322.49 133.82,-327.88 139.17,-332.39"/>
</g>
<!-- set2 -->
<g id="node3" class="node">
<title>set2</title>
<ellipse fill="none" stroke="black" cx="97" cy="-234" rx="30.59" ry="18"/>
<text text-anchor="middle" x="97" y="-230.3" font-family="Times,serif" font-size="14.00">set2</text>
</g>
<!-- set0&#45;&gt;set2 -->
<g id="edge2" class="edge">
<title>set0&#45;&gt;set2</title>
<path fill="none" stroke="black" d="M97,-349.68C97,-324.6 97,-287.63 97,-262.49"/>
<polygon fill="black" stroke="black" points="93.5,-349.87 97,-359.87 100.5,-349.87 93.5,-349.87"/>
<polygon fill="black" stroke="black" points="100.5,-262.19 97,-252.19 93.5,-262.19 100.5,-262.19"/>
</g>
<!-- set3 -->
<g id="node4" class="node">
<title>set3</title>
<ellipse fill="none" stroke="black" cx="211" cy="-162" rx="30.59" ry="18"/>
<text text-anchor="middle" x="211" y="-158.3" font-family="Times,serif" font-size="14.00">set3</text>
</g>
<!-- set0&#45;&gt;set3 -->
<g id="edge3" class="edge">
<title>set0&#45;&gt;set3</title>
<path fill="none" stroke="black" d="M129.25,-361.64C156.52,-348.34 191.83,-330.28 196,-324 222.76,-283.69 220.29,-224.69 215.81,-190.43"/>
<polygon fill="black" stroke="black" points="127.48,-358.61 120,-366.11 130.53,-364.91 127.48,-358.61"/>
<polygon fill="black" stroke="black" points="219.23,-189.62 214.33,-180.23 212.31,-190.63 219.23,-189.62"/>
</g>
<!-- set6 -->
<g id="node7" class="node">
<title>set6</title>
<ellipse fill="none" stroke="black" cx="144" cy="-90" rx="30.59" ry="18"/>
<text text-anchor="middle" x="144" y="-86.3" font-family="Times,serif" font-size="14.00">set6</text>
</g>
<!-- set0&#45;&gt;set6 -->
<g id="edge4" class="edge">
<title>set0&#45;&gt;set6</title>
<path fill="none" stroke="black" d="M82.17,-351.74C65.38,-319.82 42.15,-263.32 57,-216 69.67,-175.61 100.53,-136.84 121.86,-113.47"/>
<polygon fill="black" stroke="black" points="79.26,-353.72 87.13,-360.83 85.41,-350.37 79.26,-353.72"/>
<polygon fill="black" stroke="black" points="124.7,-115.56 128.97,-105.87 119.58,-110.78 124.7,-115.56"/>
</g>
<!-- start -->
<g id="node9" class="node">
<title>start</title>
<ellipse fill="none" stroke="black" cx="76" cy="-18" rx="33.29" ry="18"/>
<text text-anchor="middle" x="76" y="-14.3" font-family="Times,serif" font-size="14.00">start</text>
</g>
<!-- set0&#45;&gt;start -->
<g id="edge5" class="edge">
<title>set0&#45;&gt;start</title>
<path fill="none" stroke="black" d="M71.06,-356.47C42.32,-331.23 0,-285.49 0,-235 0,-235 0,-235 0,-161 0,-114.37 32.25,-68.24 54.73,-41.74"/>
<polygon fill="black" stroke="black" points="68.87,-359.21 78.76,-363.04 73.42,-353.89 68.87,-359.21"/>
<polygon fill="black" stroke="black" points="57.4,-44 61.35,-34.17 52.13,-39.4 57.4,-44"/>
</g>
<!-- set1&#45;&gt;set2 -->
<g id="edge6" class="edge">
<title>set1&#45;&gt;set2</title>
<path fill="none" stroke="black" d="M136.31,-281.64C129.97,-274.12 122.94,-265.78 116.6,-258.25"/>
<polygon fill="black" stroke="black" points="133.79,-284.07 142.91,-289.46 139.14,-279.56 133.79,-284.07"/>
<polygon fill="black" stroke="black" points="119.18,-255.88 110.06,-250.49 113.83,-260.39 119.18,-255.88"/>
</g>
<!-- set1&#45;&gt;set3 -->
<g id="edge7" class="edge">
<title>set1&#45;&gt;set3</title>
<path fill="none" stroke="black" d="M166.19,-278.69C176.07,-253.18 190.97,-214.7 200.84,-189.22"/>
<polygon fill="black" stroke="black" points="162.87,-277.56 162.53,-288.15 169.4,-280.09 162.87,-277.56"/>
<polygon fill="black" stroke="black" points="204.14,-190.41 204.48,-179.82 197.61,-187.89 204.14,-190.41"/>
</g>
<!-- set1&#45;&gt;set6 -->
<g id="edge8" class="edge">
<title>set1&#45;&gt;set6</title>
<path fill="none" stroke="black" d="M154.47,-277.71C152.17,-236.65 147.84,-159.42 145.53,-118.33"/>
<polygon fill="black" stroke="black" points="150.98,-278.06 155.04,-287.85 157.97,-277.67 150.98,-278.06"/>
<polygon fill="black" stroke="black" points="149.02,-118.02 144.97,-108.23 142.03,-118.41 149.02,-118.02"/>
</g>
<!-- goal -->
<g id="node10" class="node">
<title>goal</title>
<ellipse fill="none" stroke="black" cx="253" cy="-18" rx="30.59" ry="18"/>
<text text-anchor="middle" x="253" y="-14.3" font-family="Times,serif" font-size="14.00">goal</text>
</g>
<!-- set1&#45;&gt;goal -->
<g id="edge9" class="edge">
<title>set1&#45;&gt;goal</title>
<path fill="none" stroke="black" d="M190.41,-291.87C232.22,-273.82 300.79,-236.96 330,-180 355.29,-130.69 307.66,-71.7 276.66,-40.62"/>
<polygon fill="black" stroke="black" points="189.03,-288.66 181.16,-295.75 191.73,-295.11 189.03,-288.66"/>
<polygon fill="black" stroke="black" points="278.79,-37.82 269.19,-33.34 273.91,-42.83 278.79,-37.82"/>
</g>
<!-- set2&#45;&gt;set3 -->
<g id="edge10" class="edge">
<title>set2&#45;&gt;set3</title>
<path fill="none" stroke="black" d="M126.13,-215.11C143.09,-204.7 164.42,-191.6 181.45,-181.15"/>
<polygon fill="black" stroke="black" points="124.07,-212.27 117.38,-220.49 127.73,-218.24 124.07,-212.27"/>
<polygon fill="black" stroke="black" points="183.72,-183.86 190.41,-175.64 180.06,-177.89 183.72,-183.86"/>
</g>
<!-- set2&#45;&gt;set6 -->
<g id="edge11" class="edge">
<title>set2&#45;&gt;set6</title>
<path fill="none" stroke="black" d="M105.83,-206.31C114.25,-180.9 126.83,-142.87 135.22,-117.52"/>
<polygon fill="black" stroke="black" points="102.4,-205.56 102.58,-216.15 109.04,-207.76 102.4,-205.56"/>
<polygon fill="black" stroke="black" points="138.61,-118.42 138.43,-107.82 131.97,-116.22 138.61,-118.42"/>
</g>
<!-- set2&#45;&gt;start -->
<g id="edge12" class="edge">
<title>set2&#45;&gt;start</title>
<path fill="none" stroke="black" d="M94.32,-205.71C90.29,-164.65 82.71,-87.42 78.68,-46.33"/>
<polygon fill="black" stroke="black" points="90.86,-206.24 95.32,-215.85 97.82,-205.56 90.86,-206.24"/>
<polygon fill="black" stroke="black" points="82.15,-45.84 77.69,-36.23 75.18,-46.53 82.15,-45.84"/>
</g>
<!-- set3&#45;&gt;set6 -->
<g id="edge13" class="edge">
<title>set3&#45;&gt;set6</title>
<path fill="none" stroke="black" d="M189.45,-138.49C181.87,-130.56 173.34,-121.65 165.73,-113.71"/>
<polygon fill="black" stroke="black" points="187.02,-141.01 196.46,-145.81 192.08,-136.17 187.02,-141.01"/>
<polygon fill="black" stroke="black" points="167.95,-110.96 158.51,-106.16 162.9,-115.8 167.95,-110.96"/>
</g>
<!-- set7 -->
<g id="node8" class="node">
<title>set7</title>
<ellipse fill="none" stroke="black" cx="257" cy="-90" rx="30.59" ry="18"/>
<text text-anchor="middle" x="257" y="-86.3" font-family="Times,serif" font-size="14.00">set7</text>
</g>
<!-- set3&#45;&gt;set7 -->
<g id="edge14" class="edge">
<title>set3&#45;&gt;set7</title>
<path fill="none" stroke="black" d="M227.23,-136.3C231.6,-129.64 236.33,-122.45 240.71,-115.79"/>
<polygon fill="black" stroke="black" points="224.24,-134.49 221.67,-144.76 230.09,-138.33 224.24,-134.49"/>
<polygon fill="black" stroke="black" points="243.82,-117.43 246.39,-107.15 237.97,-113.58 243.82,-117.43"/>
</g>
<!-- set4 -->
<g id="node5" class="node">
<title>set4</title>
<ellipse fill="none" stroke="black" cx="290" cy="-162" rx="30.59" ry="18"/>
<text text-anchor="middle" x="290" y="-158.3" font-family="Times,serif" font-size="14.00">set4</text>
</g>
<!-- set4&#45;&gt;set7 -->
<g id="edge15" class="edge">
<title>set4&#45;&gt;set7</title>
<path fill="none" stroke="black" d="M277.84,-135.2C274.97,-129.12 271.91,-122.64 269.05,-116.56"/>
<polygon fill="black" stroke="black" points="274.75,-136.86 282.18,-144.41 281.08,-133.87 274.75,-136.86"/>
<polygon fill="black" stroke="black" points="272.19,-115.02 264.76,-107.47 265.86,-118.01 272.19,-115.02"/>
</g>
<!-- set5 -->
<g id="node6" class="node">
<title>set5</title>
<ellipse fill="none" stroke="black" cx="176" cy="-378" rx="30.59" ry="18"/>
<text text-anchor="middle" x="176" y="-374.3" font-family="Times,serif" font-size="14.00">set5</text>
</g>
<!-- set6&#45;&gt;start -->
<g id="edge16" class="edge">
<title>set6&#45;&gt;start</title>
<path fill="none" stroke="black" d="M122.13,-66.49C114.43,-58.56 105.78,-49.65 98.06,-41.71"/>
<polygon fill="black" stroke="black" points="119.77,-69.08 129.25,-73.81 124.79,-64.2 119.77,-69.08"/>
<polygon fill="black" stroke="black" points="100.2,-38.89 90.73,-34.16 95.18,-43.77 100.2,-38.89"/>
</g>
<!-- set6&#45;&gt;goal -->
<g id="edge17" class="edge">
<title>set6&#45;&gt;goal</title>
<path fill="none" stroke="black" d="M172.58,-70.65C188.65,-60.32 208.65,-47.48 224.69,-37.18"/>
<polygon fill="black" stroke="black" points="170.52,-67.81 163.99,-76.16 174.3,-73.7 170.52,-67.81"/>
<polygon fill="black" stroke="black" points="226.61,-40.11 233.13,-31.76 222.83,-34.22 226.61,-40.11"/>
</g>
</g>
</svg>
