<?xml version="1.0" encoding="UTF-8" standalone="no"?>
<!DOCTYPE svg PUBLIC "-//W3C//DTD SVG 1.1//EN"
 "http://www.w3.org/Graphics/SVG/1.1/DTD/svg11.dtd">
<!-- Generated by graphviz version 2.43.0 (0)
 -->
<!-- Title: IRIS region connectivity Pages: 1 -->
<svg width="1262pt" height="764pt"
 viewBox="0.00 0.00 1262.31 764.00" xmlns="http://www.w3.org/2000/svg" xmlns:xlink="http://www.w3.org/1999/xlink">
<g id="graph0" class="graph" transform="scale(1 1) rotate(0) translate(4 760)">
<title>IRIS region connectivity</title>
<polygon fill="white" stroke="transparent" points="-4,4 -4,-760 1258.31,-760 1258.31,4 -4,4"/>
<!-- set0 -->
<g id="node1" class="node">
<title>set0</title>
<ellipse fill="none" stroke="black" cx="954" cy="-738" rx="30.59" ry="18"/>
<text text-anchor="middle" x="954" y="-734.3" font-family="Times,serif" font-size="14.00">set0</text>
</g>
<!-- set10 -->
<g id="node3" class="node">
<title>set10</title>
<ellipse fill="none" stroke="black" cx="465" cy="-666" rx="36.29" ry="18"/>
<text text-anchor="middle" x="465" y="-662.3" font-family="Times,serif" font-size="14.00">set10</text>
</g>
<!-- set0&#45;&gt;set10 -->
<g id="edge1" class="edge">
<title>set0&#45;&gt;set10</title>
<path fill="none" stroke="black" d="M914.34,-731.32C824.24,-718.42 604.59,-686.98 509.79,-673.41"/>
<polygon fill="black" stroke="black" points="914.12,-734.83 924.51,-732.78 915.11,-727.9 914.12,-734.83"/>
<polygon fill="black" stroke="black" points="510.06,-669.91 499.66,-671.96 509.07,-676.84 510.06,-669.91"/>
</g>
<!-- set11 -->
<g id="node4" class="node">
<title>set11</title>
<ellipse fill="none" stroke="black" cx="700" cy="-594" rx="36.29" ry="18"/>
<text text-anchor="middle" x="700" y="-590.3" font-family="Times,serif" font-size="14.00">set11</text>
</g>
<!-- set0&#45;&gt;set11 -->
<g id="edge2" class="edge">
<title>set0&#45;&gt;set11</title>
<path fill="none" stroke="black" d="M923.37,-719.88C875.1,-692.89 781.75,-640.7 732.4,-613.11"/>
<polygon fill="black" stroke="black" points="921.91,-723.07 932.34,-724.89 925.32,-716.96 921.91,-723.07"/>
<polygon fill="black" stroke="black" points="733.87,-609.92 723.43,-608.1 730.45,-616.03 733.87,-609.92"/>
</g>
<!-- set2 -->
<g id="node5" class="node">
<title>set2</title>
<ellipse fill="none" stroke="black" cx="541" cy="-522" rx="30.59" ry="18"/>
<text text-anchor="middle" x="541" y="-518.3" font-family="Times,serif" font-size="14.00">set2</text>
</g>
<!-- set0&#45;&gt;set2 -->
<g id="edge3" class="edge">
<title>set0&#45;&gt;set2</title>
<path fill="none" stroke="black" d="M917.08,-726.84C883.82,-717.24 833.87,-701.7 792,-684 728.65,-657.21 712.79,-649.31 655,-612 622.31,-590.89 587.42,-562.73 564.98,-543.78"/>
<polygon fill="black" stroke="black" points="916.26,-730.25 926.84,-729.63 918.18,-723.52 916.26,-730.25"/>
<polygon fill="black" stroke="black" points="567.18,-541.06 557.3,-537.25 562.65,-546.39 567.18,-541.06"/>
</g>
<!-- set5 -->
<g id="node8" class="node">
<title>set5</title>
<ellipse fill="none" stroke="black" cx="611" cy="-306" rx="30.59" ry="18"/>
<text text-anchor="middle" x="611" y="-302.3" font-family="Times,serif" font-size="14.00">set5</text>
</g>
<!-- set0&#45;&gt;set5 -->
<g id="edge4" class="edge">
<title>set0&#45;&gt;set5</title>
<path fill="none" stroke="black" d="M942.6,-710.86C931.4,-682.78 916,-636.59 916,-595 916,-595 916,-595 916,-521 916,-392.13 731.28,-334.23 649.35,-314.89"/>
<polygon fill="black" stroke="black" points="939.45,-712.42 946.49,-720.34 945.93,-709.76 939.45,-712.42"/>
<polygon fill="black" stroke="black" points="649.95,-311.44 639.42,-312.62 648.39,-318.26 649.95,-311.44"/>
</g>
<!-- set7 -->
<g id="node10" class="node">
<title>set7</title>
<ellipse fill="none" stroke="black" cx="459" cy="-162" rx="30.59" ry="18"/>
<text text-anchor="middle" x="459" y="-158.3" font-family="Times,serif" font-size="14.00">set7</text>
</g>
<!-- set0&#45;&gt;set7 -->
<g id="edge5" class="edge">
<title>set0&#45;&gt;set7</title>
<path fill="none" stroke="black" d="M962.46,-710.42C964.73,-702.05 966.87,-692.72 968,-684 970.06,-668.13 970.06,-663.87 968,-648 955.17,-549.07 965.28,-512.96 907,-432 812.05,-300.12 755.93,-291.43 612,-216 574.48,-196.34 528.12,-181.46 496.32,-172.54"/>
<polygon fill="black" stroke="black" points="959.09,-709.46 959.68,-720.04 965.82,-711.4 959.09,-709.46"/>
<polygon fill="black" stroke="black" points="497.11,-169.13 486.54,-169.86 495.26,-175.88 497.11,-169.13"/>
</g>
<!-- set8 -->
<g id="node11" class="node">
<title>set8</title>
<ellipse fill="none" stroke="black" cx="763" cy="-90" rx="30.59" ry="18"/>
<text text-anchor="middle" x="763" y="-86.3" font-family="Times,serif" font-size="14.00">set8</text>
</g>
<!-- set0&#45;&gt;set8 -->
<g id="edge6" class="edge">
<title>set0&#45;&gt;set8</title>
<path fill="none" stroke="black" d="M994.34,-733.21C1051.85,-726.88 1152.92,-712 1175,-684 1202.63,-648.96 1399.06,-475.74 1044,-144 1009.67,-111.92 872.48,-98.31 803.31,-93.39"/>
<polygon fill="black" stroke="black" points="993.71,-729.76 984.13,-734.3 994.45,-736.72 993.71,-729.76"/>
<polygon fill="black" stroke="black" points="803.44,-89.89 793.22,-92.7 802.96,-96.87 803.44,-89.89"/>
</g>
<!-- start -->
<g id="node13" class="node">
<title>start</title>
<ellipse fill="none" stroke="black" cx="1053" cy="-666" rx="33.29" ry="18"/>
<text text-anchor="middle" x="1053" y="-662.3" font-family="Times,serif" font-size="14.00">start</text>
</g>
<!-- set0&#45;&gt;start -->
<g id="edge7" class="edge">
<title>set0&#45;&gt;start</title>
<path fill="none" stroke="black" d="M981.33,-717.67C994.95,-708.04 1011.39,-696.42 1025.09,-686.74"/>
<polygon fill="black" stroke="black" points="979.23,-714.87 973.09,-723.5 983.27,-720.59 979.23,-714.87"/>
<polygon fill="black" stroke="black" points="1027.49,-689.33 1033.63,-680.69 1023.45,-683.61 1027.49,-689.33"/>
</g>
<!-- goal -->
<g id="node14" class="node">
<title>goal</title>
<ellipse fill="none" stroke="black" cx="1135" cy="-666" rx="30.59" ry="18"/>
<text text-anchor="middle" x="1135" y="-662.3" font-family="Times,serif" font-size="14.00">goal</text>
</g>
<!-- set0&#45;&gt;goal -->
<g id="edge8" class="edge">
<title>set0&#45;&gt;goal</title>
<path fill="none" stroke="black" d="M988.9,-724.35C1017.53,-713.86 1059.06,-698.39 1095,-684 1097.19,-683.12 1099.44,-682.21 1101.7,-681.28"/>
<polygon fill="black" stroke="black" points="987.53,-721.12 979.34,-727.84 989.93,-727.7 987.53,-721.12"/>
<polygon fill="black" stroke="black" points="1103.08,-684.5 1110.96,-677.41 1100.38,-678.04 1103.08,-684.5"/>
</g>
<!-- set1 -->
<g id="node2" class="node">
<title>set1</title>
<ellipse fill="none" stroke="black" cx="190" cy="-738" rx="30.59" ry="18"/>
<text text-anchor="middle" x="190" y="-734.3" font-family="Times,serif" font-size="14.00">set1</text>
</g>
<!-- set1&#45;&gt;set10 -->
<g id="edge9" class="edge">
<title>set1&#45;&gt;set10</title>
<path fill="none" stroke="black" d="M227.57,-727.44C278.77,-714.4 370.17,-691.14 423.39,-677.59"/>
<polygon fill="black" stroke="black" points="226.45,-724.11 217.63,-729.97 228.18,-730.89 226.45,-724.11"/>
<polygon fill="black" stroke="black" points="424.36,-680.96 433.18,-675.1 422.63,-674.17 424.36,-680.96"/>
</g>
<!-- set1&#45;&gt;set2 -->
<g id="edge10" class="edge">
<title>set1&#45;&gt;set2</title>
<path fill="none" stroke="black" d="M230.76,-735.87C307.88,-732.86 470.95,-722.05 510,-684 545.85,-649.08 547.08,-586.19 544.33,-550.21"/>
<polygon fill="black" stroke="black" points="230.33,-732.38 220.47,-736.25 230.59,-739.38 230.33,-732.38"/>
<polygon fill="black" stroke="black" points="547.79,-549.61 543.39,-539.98 540.82,-550.25 547.79,-549.61"/>
</g>
<!-- set3 -->
<g id="node6" class="node">
<title>set3</title>
<ellipse fill="none" stroke="black" cx="477" cy="-450" rx="30.59" ry="18"/>
<text text-anchor="middle" x="477" y="-446.3" font-family="Times,serif" font-size="14.00">set3</text>
</g>
<!-- set1&#45;&gt;set3 -->
<g id="edge11" class="edge">
<title>set1&#45;&gt;set3</title>
<path fill="none" stroke="black" d="M212.35,-714.73C265.97,-661.29 401.44,-526.3 454.86,-473.07"/>
<polygon fill="black" stroke="black" points="209.64,-712.49 205.03,-722.03 214.58,-717.45 209.64,-712.49"/>
<polygon fill="black" stroke="black" points="457.51,-475.36 462.12,-465.83 452.57,-470.41 457.51,-475.36"/>
</g>
<!-- set4 -->
<g id="node7" class="node">
<title>set4</title>
<ellipse fill="none" stroke="black" cx="363" cy="-378" rx="30.59" ry="18"/>
<text text-anchor="middle" x="363" y="-374.3" font-family="Times,serif" font-size="14.00">set4</text>
</g>
<!-- set1&#45;&gt;set4 -->
<g id="edge12" class="edge">
<title>set1&#45;&gt;set4</title>
<path fill="none" stroke="black" d="M202.64,-710.84C234.63,-644.65 318.49,-471.11 350.41,-405.05"/>
<polygon fill="black" stroke="black" points="199.31,-709.69 198.11,-720.21 205.61,-712.73 199.31,-709.69"/>
<polygon fill="black" stroke="black" points="353.71,-406.28 354.91,-395.75 347.4,-403.23 353.71,-406.28"/>
</g>
<!-- set1&#45;&gt;set5 -->
<g id="edge13" class="edge">
<title>set1&#45;&gt;set5</title>
<path fill="none" stroke="black" d="M230.47,-735.69C361.23,-730.38 764,-705.07 764,-595 764,-595 764,-595 764,-521 764,-435.4 681.99,-360.44 638.06,-326.42"/>
<polygon fill="black" stroke="black" points="230.31,-732.19 220.46,-736.08 230.58,-739.19 230.31,-732.19"/>
<polygon fill="black" stroke="black" points="640.15,-323.61 630.07,-320.36 635.92,-329.19 640.15,-323.61"/>
</g>
<!-- set6 -->
<g id="node9" class="node">
<title>set6</title>
<ellipse fill="none" stroke="black" cx="349" cy="-234" rx="30.59" ry="18"/>
<text text-anchor="middle" x="349" y="-230.3" font-family="Times,serif" font-size="14.00">set6</text>
</g>
<!-- set1&#45;&gt;set6 -->
<g id="edge14" class="edge">
<title>set1&#45;&gt;set6</title>
<path fill="none" stroke="black" d="M168.73,-714.26C146.25,-687.76 114,-641.63 114,-595 114,-595 114,-595 114,-521 114,-393.29 255.61,-291.51 318.98,-252.36"/>
<polygon fill="black" stroke="black" points="166.13,-716.6 175.35,-721.83 171.4,-712 166.13,-716.6"/>
<polygon fill="black" stroke="black" points="321,-255.23 327.73,-247.05 317.37,-249.25 321,-255.23"/>
</g>
<!-- set1&#45;&gt;set7 -->
<g id="edge15" class="edge">
<title>set1&#45;&gt;set7</title>
<path fill="none" stroke="black" d="M161.03,-718.59C127.26,-694.61 76,-649.27 76,-595 76,-595 76,-595 76,-449 76,-309.29 169.15,-291.03 287,-216 328.02,-189.88 382.74,-175.93 419.34,-169.01"/>
<polygon fill="black" stroke="black" points="159.4,-721.71 169.62,-724.5 163.37,-715.95 159.4,-721.71"/>
<polygon fill="black" stroke="black" points="420.39,-172.38 429.61,-167.16 419.15,-165.49 420.39,-172.38"/>
</g>
<!-- set1&#45;&gt;set8 -->
<g id="edge16" class="edge">
<title>set1&#45;&gt;set8</title>
<path fill="none" stroke="black" d="M230.77,-735.28C335.43,-730.46 611.35,-715.09 697,-684 885.65,-615.52 1030,-579.7 1030,-379 1030,-379 1030,-379 1030,-233 1030,-131.46 877.61,-102.3 803.08,-94.11"/>
<polygon fill="black" stroke="black" points="230.44,-731.79 220.61,-735.74 230.76,-738.78 230.44,-731.79"/>
<polygon fill="black" stroke="black" points="803.41,-90.62 793.11,-93.08 802.7,-97.58 803.41,-90.62"/>
</g>
<!-- set9 -->
<g id="node12" class="node">
<title>set9</title>
<ellipse fill="none" stroke="black" cx="349" cy="-18" rx="30.59" ry="18"/>
<text text-anchor="middle" x="349" y="-14.3" font-family="Times,serif" font-size="14.00">set9</text>
</g>
<!-- set1&#45;&gt;set9 -->
<g id="edge17" class="edge">
<title>set1&#45;&gt;set9</title>
<path fill="none" stroke="black" d="M152.56,-727.36C97.2,-710.59 0,-670.4 0,-595 0,-595 0,-595 0,-161 0,-115.41 13.72,-98.24 51,-72 91.96,-43.18 237.15,-27.89 308.64,-21.96"/>
<polygon fill="black" stroke="black" points="151.79,-730.78 162.37,-730.22 153.75,-724.06 151.79,-730.78"/>
<polygon fill="black" stroke="black" points="308.94,-25.45 318.63,-21.16 308.38,-18.47 308.94,-25.45"/>
</g>
<!-- set10&#45;&gt;set11 -->
<g id="edge18" class="edge">
<title>set10&#45;&gt;set11</title>
<path fill="none" stroke="black" d="M505.5,-652.94C548.79,-640.04 616.99,-619.73 660.06,-606.9"/>
<polygon fill="black" stroke="black" points="504.31,-649.64 495.72,-655.85 506.31,-656.35 504.31,-649.64"/>
<polygon fill="black" stroke="black" points="661.06,-610.25 669.64,-604.04 659.06,-603.54 661.06,-610.25"/>
</g>
<!-- set10&#45;&gt;set2 -->
<g id="edge19" class="edge">
<title>set10&#45;&gt;set2</title>
<path fill="none" stroke="black" d="M478.75,-639.32C492.51,-613.6 513.57,-574.26 527.31,-548.58"/>
<polygon fill="black" stroke="black" points="475.5,-637.96 473.87,-648.43 481.67,-641.27 475.5,-637.96"/>
<polygon fill="black" stroke="black" points="530.56,-549.93 532.19,-539.46 524.38,-546.63 530.56,-549.93"/>
</g>
<!-- set10&#45;&gt;set3 -->
<g id="edge20" class="edge">
<title>set10&#45;&gt;set3</title>
<path fill="none" stroke="black" d="M466.53,-637.71C468.83,-596.65 473.16,-519.42 475.47,-478.33"/>
<polygon fill="black" stroke="black" points="463.03,-637.67 465.96,-647.85 470.02,-638.06 463.03,-637.67"/>
<polygon fill="black" stroke="black" points="478.97,-478.41 476.03,-468.23 471.98,-478.02 478.97,-478.41"/>
</g>
<!-- set10&#45;&gt;set4 -->
<g id="edge21" class="edge">
<title>set10&#45;&gt;set4</title>
<path fill="none" stroke="black" d="M450.39,-639.52C430.06,-602.85 393.64,-532.5 375,-468 369.13,-447.69 366.11,-423.92 364.57,-406.06"/>
<polygon fill="black" stroke="black" points="447.49,-641.51 455.43,-648.52 453.59,-638.08 447.49,-641.51"/>
<polygon fill="black" stroke="black" points="368.06,-405.74 363.81,-396.04 361.08,-406.27 368.06,-405.74"/>
</g>
<!-- set10&#45;&gt;set5 -->
<g id="edge22" class="edge">
<title>set10&#45;&gt;set5</title>
<path fill="none" stroke="black" d="M492.75,-644.19C520.3,-621.78 561.21,-583.46 581,-540 612.47,-470.91 614.03,-379.1 612.55,-334.14"/>
<polygon fill="black" stroke="black" points="490.31,-641.65 484.66,-650.62 494.67,-647.13 490.31,-641.65"/>
<polygon fill="black" stroke="black" points="616.04,-333.86 612.13,-324.01 609.04,-334.15 616.04,-333.86"/>
</g>
<!-- set10&#45;&gt;set6 -->
<g id="edge23" class="edge">
<title>set10&#45;&gt;set6</title>
<path fill="none" stroke="black" d="M441.2,-642.72C432.33,-633.69 422.59,-622.85 415,-612 354.08,-524.82 333.47,-500.17 312,-396 308.39,-378.48 309.89,-301.04 314,-288 317.29,-277.59 323.26,-267.3 329.36,-258.61"/>
<polygon fill="black" stroke="black" points="438.81,-645.28 448.37,-649.83 443.73,-640.3 438.81,-645.28"/>
<polygon fill="black" stroke="black" points="332.24,-260.6 335.4,-250.49 326.62,-256.42 332.24,-260.6"/>
</g>
<!-- set10&#45;&gt;set7 -->
<g id="edge24" class="edge">
<title>set10&#45;&gt;set7</title>
<path fill="none" stroke="black" d="M432,-646.85C417.16,-637.66 400.07,-625.58 387,-612 315.9,-538.13 313.76,-498.23 306,-396 299.94,-316.22 261.9,-280.68 309,-216 334.08,-181.56 383.41,-169.38 418.65,-165.14"/>
<polygon fill="black" stroke="black" points="430.53,-650.04 440.9,-652.18 434.13,-644.04 430.53,-650.04"/>
<polygon fill="black" stroke="black" points="419.05,-168.62 428.64,-164.1 418.33,-161.65 419.05,-168.62"/>
</g>
<!-- set10&#45;&gt;set8 -->
<g id="edge25" class="edge">
<title>set10&#45;&gt;set8</title>
<path fill="none" stroke="black" d="M511.69,-663.79C569.34,-660.63 669.04,-649.63 745,-612 901.3,-534.57 992,-481.43 992,-307 992,-307 992,-307 992,-233 992,-144.86 867.95,-109.54 802.45,-97.03"/>
<polygon fill="black" stroke="black" points="511.25,-660.31 501.44,-664.29 511.6,-667.3 511.25,-660.31"/>
<polygon fill="black" stroke="black" points="802.93,-93.57 792.47,-95.22 801.68,-100.45 802.93,-93.57"/>
</g>
<!-- set10&#45;&gt;set9 -->
<g id="edge26" class="edge">
<title>set10&#45;&gt;set9</title>
<path fill="none" stroke="black" d="M428.56,-649.72C325.27,-603.72 38,-455.91 38,-235 38,-235 38,-235 38,-161 38,-43.48 224.03,-22.8 308.33,-19.47"/>
<polygon fill="black" stroke="black" points="427.4,-653.04 437.97,-653.86 430.22,-646.63 427.4,-653.04"/>
<polygon fill="black" stroke="black" points="308.45,-22.96 318.33,-19.13 308.22,-15.97 308.45,-22.96"/>
</g>
<!-- set11&#45;&gt;set2 -->
<g id="edge27" class="edge">
<title>set11&#45;&gt;set2</title>
<path fill="none" stroke="black" d="M664.34,-577.3C637.26,-565.38 600.29,-549.1 573.9,-537.48"/>
<polygon fill="black" stroke="black" points="663.18,-580.61 673.74,-581.44 666,-574.21 663.18,-580.61"/>
<polygon fill="black" stroke="black" points="575.26,-534.26 564.7,-533.43 572.44,-540.67 575.26,-534.26"/>
</g>
<!-- set11&#45;&gt;set3 -->
<g id="edge28" class="edge">
<title>set11&#45;&gt;set3</title>
<path fill="none" stroke="black" d="M674.07,-571.57C650.56,-552.64 614.55,-524.88 581,-504 558.02,-489.7 530.72,-475.9 509.85,-465.96"/>
<polygon fill="black" stroke="black" points="672.17,-574.53 682.14,-578.12 676.58,-569.1 672.17,-574.53"/>
<polygon fill="black" stroke="black" points="511.29,-462.77 500.76,-461.68 508.31,-469.11 511.29,-462.77"/>
</g>
<!-- set11&#45;&gt;set4 -->
<g id="edge29" class="edge">
<title>set11&#45;&gt;set4</title>
<path fill="none" stroke="black" d="M655.62,-585.79C614.25,-578.01 551.51,-563.48 501,-540 450.35,-516.45 432.58,-511.86 398,-468 383.51,-449.63 374.37,-424.52 369.08,-405.65"/>
<polygon fill="black" stroke="black" points="655.19,-589.27 665.66,-587.62 656.45,-582.38 655.19,-589.27"/>
<polygon fill="black" stroke="black" points="372.44,-404.68 366.52,-395.9 365.67,-406.46 372.44,-404.68"/>
</g>
<!-- set11&#45;&gt;set5 -->
<g id="edge30" class="edge">
<title>set11&#45;&gt;set5</title>
<path fill="none" stroke="black" d="M691.72,-566.4C674.76,-511.89 636.23,-388.07 619.27,-333.58"/>
<polygon fill="black" stroke="black" points="688.39,-567.46 694.7,-575.97 695.07,-565.38 688.39,-567.46"/>
<polygon fill="black" stroke="black" points="622.59,-332.45 616.27,-323.94 615.9,-334.53 622.59,-332.45"/>
</g>
<!-- set11&#45;&gt;set7 -->
<g id="edge31" class="edge">
<title>set11&#45;&gt;set7</title>
<path fill="none" stroke="black" d="M702.57,-565.49C706.47,-508.71 708.2,-376.45 651,-288 613.55,-230.09 538.75,-193.28 494.38,-175.56"/>
<polygon fill="black" stroke="black" points="699.05,-565.57 701.78,-575.8 706.03,-566.1 699.05,-565.57"/>
<polygon fill="black" stroke="black" points="495.45,-172.22 484.86,-171.86 492.92,-178.75 495.45,-172.22"/>
</g>
<!-- set11&#45;&gt;set8 -->
<g id="edge32" class="edge">
<title>set11&#45;&gt;set8</title>
<path fill="none" stroke="black" d="M734.96,-576.46C772.33,-556.61 829.5,-519.45 854,-468 913.21,-343.69 819.75,-177.41 779.75,-115.54"/>
<polygon fill="black" stroke="black" points="733.19,-573.43 725.92,-581.13 736.41,-579.65 733.19,-573.43"/>
<polygon fill="black" stroke="black" points="782.46,-113.29 774.04,-106.86 776.61,-117.13 782.46,-113.29"/>
</g>
<!-- set2&#45;&gt;set3 -->
<g id="edge33" class="edge">
<title>set2&#45;&gt;set3</title>
<path fill="none" stroke="black" d="M520.14,-498.18C512.94,-490.31 504.88,-481.49 497.69,-473.63"/>
<polygon fill="black" stroke="black" points="517.78,-500.79 527.11,-505.81 522.95,-496.07 517.78,-500.79"/>
<polygon fill="black" stroke="black" points="500.19,-471.18 490.86,-466.16 495.02,-475.9 500.19,-471.18"/>
</g>
<!-- set2&#45;&gt;set4 -->
<g id="edge34" class="edge">
<title>set2&#45;&gt;set4</title>
<path fill="none" stroke="black" d="M506.47,-507.64C485.17,-498.41 458,-484.79 437,-468 413.86,-449.51 392.83,-422.8 379.15,-403.47"/>
<polygon fill="black" stroke="black" points="505.23,-510.91 515.8,-511.57 507.94,-504.46 505.23,-510.91"/>
<polygon fill="black" stroke="black" points="381.98,-401.4 373.41,-395.16 376.22,-405.38 381.98,-401.4"/>
</g>
<!-- set2&#45;&gt;set5 -->
<g id="edge35" class="edge">
<title>set2&#45;&gt;set5</title>
<path fill="none" stroke="black" d="M549.63,-494.63C563.09,-453.47 588.95,-374.42 602.4,-333.3"/>
<polygon fill="black" stroke="black" points="546.28,-493.62 546.49,-504.21 552.93,-495.79 546.28,-493.62"/>
<polygon fill="black" stroke="black" points="605.75,-334.31 605.53,-323.71 599.1,-332.13 605.75,-334.31"/>
</g>
<!-- set2&#45;&gt;set6 -->
<g id="edge36" class="edge">
<title>set2&#45;&gt;set6</title>
<path fill="none" stroke="black" d="M502.4,-513.47C448.46,-500.49 353.69,-468.01 323,-396 303.88,-351.15 322.25,-293.8 336.32,-261.05"/>
<polygon fill="black" stroke="black" points="501.76,-516.91 512.29,-515.74 503.33,-510.09 501.76,-516.91"/>
<polygon fill="black" stroke="black" points="339.6,-262.27 340.5,-251.72 333.22,-259.41 339.6,-262.27"/>
</g>
<!-- set2&#45;&gt;set7 -->
<g id="edge37" class="edge">
<title>set2&#45;&gt;set7</title>
<path fill="none" stroke="black" d="M536.71,-493.87C527.95,-440.23 506.4,-317.05 478,-216 475.56,-207.3 472.4,-197.98 469.37,-189.61"/>
<polygon fill="black" stroke="black" points="533.29,-494.62 538.34,-503.94 540.2,-493.51 533.29,-494.62"/>
<polygon fill="black" stroke="black" points="472.55,-188.14 465.78,-179.99 465.99,-190.58 472.55,-188.14"/>
</g>
<!-- set2&#45;&gt;set8 -->
<g id="edge38" class="edge">
<title>set2&#45;&gt;set8</title>
<path fill="none" stroke="black" d="M562,-498.39C608.18,-446.84 717.3,-314.63 753,-180 758.41,-159.62 760.89,-135.85 762.03,-118.01"/>
<polygon fill="black" stroke="black" points="559.26,-496.19 555.15,-505.95 564.45,-500.89 559.26,-496.19"/>
<polygon fill="black" stroke="black" points="765.53,-118.18 762.57,-108 758.54,-117.8 765.53,-118.18"/>
</g>
<!-- set2&#45;&gt;set9 -->
<g id="edge39" class="edge">
<title>set2&#45;&gt;set9</title>
<path fill="none" stroke="black" d="M570.77,-503.39C585.53,-493.91 603.11,-481.42 617,-468 756.85,-332.9 932.28,-217.25 803,-72 775.68,-41.31 495.43,-25.59 389.37,-20.7"/>
<polygon fill="black" stroke="black" points="568.62,-500.61 562.01,-508.89 572.34,-506.54 568.62,-500.61"/>
<polygon fill="black" stroke="black" points="389.52,-17.21 379.37,-20.25 389.2,-24.2 389.52,-17.21"/>
</g>
<!-- set3&#45;&gt;set4 -->
<g id="edge40" class="edge">
<title>set3&#45;&gt;set4</title>
<path fill="none" stroke="black" d="M447.87,-431.11C430.91,-420.7 409.58,-407.6 392.55,-397.15"/>
<polygon fill="black" stroke="black" points="446.27,-434.24 456.62,-436.49 449.93,-428.27 446.27,-434.24"/>
<polygon fill="black" stroke="black" points="393.94,-393.89 383.59,-391.64 390.28,-399.86 393.94,-393.89"/>
</g>
<!-- set3&#45;&gt;set5 -->
<g id="edge41" class="edge">
<title>set3&#45;&gt;set5</title>
<path fill="none" stroke="black" d="M498.16,-426.11C514.88,-408.08 538.83,-382.35 560,-360 569.47,-350.01 580.01,-339.03 589.03,-329.67"/>
<polygon fill="black" stroke="black" points="495.25,-424.1 491.03,-433.81 500.39,-428.86 495.25,-424.1"/>
<polygon fill="black" stroke="black" points="591.78,-331.87 596.21,-322.25 586.74,-327.01 591.78,-331.87"/>
</g>
<!-- set3&#45;&gt;set6 -->
<g id="edge42" class="edge">
<title>set3&#45;&gt;set6</title>
<path fill="none" stroke="black" d="M462.18,-424.22C437.57,-383.08 388.54,-301.11 363.89,-259.89"/>
<polygon fill="black" stroke="black" points="459.24,-426.13 467.38,-432.92 465.25,-422.54 459.24,-426.13"/>
<polygon fill="black" stroke="black" points="366.87,-258.06 358.73,-251.27 360.86,-261.65 366.87,-258.06"/>
</g>
<!-- set3&#45;&gt;set7 -->
<g id="edge43" class="edge">
<title>set3&#45;&gt;set7</title>
<path fill="none" stroke="black" d="M475.28,-421.7C471.84,-367.08 464.15,-244.9 460.72,-190.29"/>
<polygon fill="black" stroke="black" points="471.81,-422.21 475.93,-431.97 478.79,-421.77 471.81,-422.21"/>
<polygon fill="black" stroke="black" points="464.21,-190.07 460.09,-180.31 457.22,-190.51 464.21,-190.07"/>
</g>
<!-- set3&#45;&gt;set8 -->
<g id="edge44" class="edge">
<title>set3&#45;&gt;set8</title>
<path fill="none" stroke="black" d="M508.58,-432.75C546.53,-411.9 610.19,-372.57 651,-324 705.38,-259.29 740.36,-163.69 755.06,-117.67"/>
<polygon fill="black" stroke="black" points="506.65,-429.81 499.51,-437.65 509.98,-435.97 506.65,-429.81"/>
<polygon fill="black" stroke="black" points="758.48,-118.44 758.12,-107.86 751.8,-116.36 758.48,-118.44"/>
</g>
<!-- set3&#45;&gt;set9 -->
<g id="edge45" class="edge">
<title>set3&#45;&gt;set9</title>
<path fill="none" stroke="black" d="M436.31,-446.23C334.34,-436.87 76,-397.15 76,-235 76,-235 76,-235 76,-161 76,-57.42 232.59,-29.28 308.58,-21.73"/>
<polygon fill="black" stroke="black" points="436.27,-449.74 446.53,-447.12 436.87,-442.77 436.27,-449.74"/>
<polygon fill="black" stroke="black" points="309.1,-25.2 318.74,-20.79 308.46,-18.23 309.1,-25.2"/>
</g>
<!-- set4&#45;&gt;set5 -->
<g id="edge46" class="edge">
<title>set4&#45;&gt;set5</title>
<path fill="none" stroke="black" d="M399.84,-366.6C446.78,-353.35 527.4,-330.6 574.27,-317.37"/>
<polygon fill="black" stroke="black" points="398.69,-363.29 390.01,-369.38 400.59,-370.03 398.69,-363.29"/>
<polygon fill="black" stroke="black" points="575.35,-320.7 584.02,-314.62 573.45,-313.96 575.35,-320.7"/>
</g>
<!-- set4&#45;&gt;set6 -->
<g id="edge47" class="edge">
<title>set4&#45;&gt;set6</title>
<path fill="none" stroke="black" d="M360.31,-349.68C357.82,-324.49 354.16,-287.3 351.68,-262.16"/>
<polygon fill="black" stroke="black" points="356.85,-350.26 361.31,-359.87 363.81,-349.58 356.85,-350.26"/>
<polygon fill="black" stroke="black" points="355.16,-261.8 350.69,-252.19 348.19,-262.48 355.16,-261.8"/>
</g>
<!-- set4&#45;&gt;set7 -->
<g id="edge48" class="edge">
<title>set4&#45;&gt;set7</title>
<path fill="none" stroke="black" d="M374.7,-350.91C393.17,-309.76 428.85,-230.21 447.31,-189.07"/>
<polygon fill="black" stroke="black" points="371.43,-349.65 370.53,-360.21 377.82,-352.52 371.43,-349.65"/>
<polygon fill="black" stroke="black" points="450.6,-190.27 451.5,-179.71 444.22,-187.41 450.6,-190.27"/>
</g>
<!-- set4&#45;&gt;set8 -->
<g id="edge49" class="edge">
<title>set4&#45;&gt;set8</title>
<path fill="none" stroke="black" d="M390.35,-357.45C463.55,-305.1 663.33,-162.26 736.06,-110.26"/>
<polygon fill="black" stroke="black" points="387.86,-354.93 381.76,-363.59 391.93,-360.62 387.86,-354.93"/>
<polygon fill="black" stroke="black" points="738.19,-113.05 744.28,-104.38 734.11,-107.35 738.19,-113.05"/>
</g>
<!-- set4&#45;&gt;set9 -->
<g id="edge50" class="edge">
<title>set4&#45;&gt;set9</title>
<path fill="none" stroke="black" d="M326.71,-365.52C275.97,-346.95 190,-305.12 190,-235 190,-235 190,-235 190,-161 190,-95 267.14,-52.05 313.96,-32.06"/>
<polygon fill="black" stroke="black" points="325.75,-368.9 336.35,-368.93 328.09,-362.3 325.75,-368.9"/>
<polygon fill="black" stroke="black" points="315.55,-35.19 323.45,-28.14 312.87,-28.72 315.55,-35.19"/>
</g>
<!-- set5&#45;&gt;set6 -->
<g id="edge51" class="edge">
<title>set5&#45;&gt;set6</title>
<path fill="none" stroke="black" d="M573.7,-295.03C523.74,-281.69 435.63,-258.15 385.88,-244.85"/>
<polygon fill="black" stroke="black" points="572.89,-298.44 583.46,-297.64 574.7,-291.68 572.89,-298.44"/>
<polygon fill="black" stroke="black" points="386.74,-241.46 376.17,-242.26 384.93,-248.22 386.74,-241.46"/>
</g>
<!-- set5&#45;&gt;set7 -->
<g id="edge52" class="edge">
<title>set5&#45;&gt;set7</title>
<path fill="none" stroke="black" d="M587.91,-283.43C559.36,-256.76 511.05,-211.62 482.37,-184.83"/>
<polygon fill="black" stroke="black" points="585.61,-286.07 595.31,-290.34 590.39,-280.95 585.61,-286.07"/>
<polygon fill="black" stroke="black" points="484.53,-182.06 474.84,-177.79 479.75,-187.18 484.53,-182.06"/>
</g>
<!-- set5&#45;&gt;set8 -->
<g id="edge53" class="edge">
<title>set5&#45;&gt;set8</title>
<path fill="none" stroke="black" d="M628.22,-280.76C657.45,-239.61 716.43,-156.56 745.71,-115.34"/>
<polygon fill="black" stroke="black" points="625.36,-278.74 622.42,-288.92 631.07,-282.79 625.36,-278.74"/>
<polygon fill="black" stroke="black" points="748.71,-117.16 751.65,-106.98 743.01,-113.11 748.71,-117.16"/>
</g>
<!-- set5&#45;&gt;set9 -->
<g id="edge54" class="edge">
<title>set5&#45;&gt;set9</title>
<path fill="none" stroke="black" d="M595.94,-279.57C575.87,-246.65 538.3,-188.27 499,-144 467.02,-107.98 455.12,-102.69 418,-72 404.25,-60.63 388.5,-48.47 375.52,-38.67"/>
<polygon fill="black" stroke="black" points="593.19,-281.79 601.36,-288.54 599.18,-278.17 593.19,-281.79"/>
<polygon fill="black" stroke="black" points="377.54,-35.81 367.44,-32.6 373.33,-41.4 377.54,-35.81"/>
</g>
<!-- set6&#45;&gt;set7 -->
<g id="edge55" class="edge">
<title>set6&#45;&gt;set7</title>
<path fill="none" stroke="black" d="M377.58,-214.81C393.8,-204.49 414.05,-191.61 430.29,-181.27"/>
<polygon fill="black" stroke="black" points="375.48,-212 368.92,-220.32 379.24,-217.91 375.48,-212"/>
<polygon fill="black" stroke="black" points="432.3,-184.14 438.86,-175.82 428.54,-178.23 432.3,-184.14"/>
</g>
<!-- set6&#45;&gt;set8 -->
<g id="edge56" class="edge">
<title>set6&#45;&gt;set8</title>
<path fill="none" stroke="black" d="M361.96,-207.52C373.88,-186.88 393.53,-158.87 419,-144 469.94,-114.25 643.26,-99.05 722.67,-93.51"/>
<polygon fill="black" stroke="black" points="358.82,-205.96 357.04,-216.41 364.95,-209.35 358.82,-205.96"/>
<polygon fill="black" stroke="black" points="723.03,-97 732.77,-92.82 722.56,-90.01 723.03,-97"/>
</g>
<!-- set6&#45;&gt;set9 -->
<g id="edge57" class="edge">
<title>set6&#45;&gt;set9</title>
<path fill="none" stroke="black" d="M349,-205.71C349,-164.65 349,-87.42 349,-46.33"/>
<polygon fill="black" stroke="black" points="345.5,-205.85 349,-215.85 352.5,-205.85 345.5,-205.85"/>
<polygon fill="black" stroke="black" points="352.5,-46.23 349,-36.23 345.5,-46.23 352.5,-46.23"/>
</g>
<!-- set7&#45;&gt;set8 -->
<g id="edge58" class="edge">
<title>set7&#45;&gt;set8</title>
<path fill="none" stroke="black" d="M496.81,-152.29C555.2,-138.85 666.64,-113.19 725.08,-99.73"/>
<polygon fill="black" stroke="black" points="496.01,-148.89 487.05,-154.54 497.59,-155.71 496.01,-148.89"/>
<polygon fill="black" stroke="black" points="726.05,-103.1 735.01,-97.44 724.48,-96.28 726.05,-103.1"/>
</g>
<!-- set7&#45;&gt;set9 -->
<g id="edge59" class="edge">
<title>set7&#45;&gt;set9</title>
<path fill="none" stroke="black" d="M440.61,-137.25C420.27,-111.01 387.72,-68.98 367.39,-42.74"/>
<polygon fill="black" stroke="black" points="437.92,-139.5 446.81,-145.26 443.45,-135.21 437.92,-139.5"/>
<polygon fill="black" stroke="black" points="370.14,-40.57 361.25,-34.81 364.6,-44.86 370.14,-40.57"/>
</g>
<!-- set8&#45;&gt;set9 -->
<g id="edge60" class="edge">
<title>set8&#45;&gt;set9</title>
<path fill="none" stroke="black" d="M723.91,-82.39C644.92,-69.03 467.11,-38.97 388.11,-25.61"/>
<polygon fill="black" stroke="black" points="723.44,-85.86 733.89,-84.08 724.61,-78.96 723.44,-85.86"/>
<polygon fill="black" stroke="black" points="388.52,-22.13 378.08,-23.92 387.36,-29.04 388.52,-22.13"/>
</g>
</g>
</svg>
