<?xml version="1.0" encoding="UTF-8" standalone="no"?>
<!DOCTYPE svg PUBLIC "-//W3C//DTD SVG 1.1//EN"
 "http://www.w3.org/Graphics/SVG/1.1/DTD/svg11.dtd">
<!-- Generated by graphviz version 2.43.0 (0)
 -->
<!-- Title: IRIS region connectivity Pages: 1 -->
<svg width="1394pt" height="764pt"
 viewBox="0.00 0.00 1394.00 764.00" xmlns="http://www.w3.org/2000/svg" xmlns:xlink="http://www.w3.org/1999/xlink">
<g id="graph0" class="graph" transform="scale(1 1) rotate(0) translate(4 760)">
<title>IRIS region connectivity</title>
<polygon fill="white" stroke="transparent" points="-4,4 -4,-760 1390,-760 1390,4 -4,4"/>
<!-- set0 -->
<g id="node1" class="node">
<title>set0</title>
<ellipse fill="none" stroke="black" cx="323" cy="-666" rx="30.59" ry="18"/>
<text text-anchor="middle" x="323" y="-662.3" font-family="Times,serif" font-size="14.00">set0</text>
</g>
<!-- set11 -->
<g id="node4" class="node">
<title>set11</title>
<ellipse fill="none" stroke="black" cx="323" cy="-594" rx="36.29" ry="18"/>
<text text-anchor="middle" x="323" y="-590.3" font-family="Times,serif" font-size="14.00">set11</text>
</g>
<!-- set0&#45;&gt;set11 -->
<g id="edge1" class="edge">
<title>set0&#45;&gt;set11</title>
<path fill="none" stroke="black" d="M323,-637.67C323,-632.69 323,-627.49 323,-622.51"/>
<polygon fill="black" stroke="black" points="319.5,-637.7 323,-647.7 326.5,-637.7 319.5,-637.7"/>
<polygon fill="black" stroke="black" points="326.5,-622.1 323,-612.1 319.5,-622.1 326.5,-622.1"/>
</g>
<!-- set14 -->
<g id="node7" class="node">
<title>set14</title>
<ellipse fill="none" stroke="black" cx="710" cy="-450" rx="36.29" ry="18"/>
<text text-anchor="middle" x="710" y="-446.3" font-family="Times,serif" font-size="14.00">set14</text>
</g>
<!-- set0&#45;&gt;set14 -->
<g id="edge2" class="edge">
<title>set0&#45;&gt;set14</title>
<path fill="none" stroke="black" d="M363.55,-662.13C435.37,-656.36 581.19,-641.32 622,-612 667.91,-579.01 692.46,-514.38 703.2,-477.84"/>
<polygon fill="black" stroke="black" points="363.21,-658.65 353.52,-662.92 363.76,-665.63 363.21,-658.65"/>
<polygon fill="black" stroke="black" points="706.66,-478.47 705.98,-467.89 699.92,-476.58 706.66,-478.47"/>
</g>
<!-- set17 -->
<g id="node10" class="node">
<title>set17</title>
<ellipse fill="none" stroke="black" cx="278" cy="-378" rx="36.29" ry="18"/>
<text text-anchor="middle" x="278" y="-374.3" font-family="Times,serif" font-size="14.00">set17</text>
</g>
<!-- set0&#45;&gt;set17 -->
<g id="edge3" class="edge">
<title>set0&#45;&gt;set17</title>
<path fill="none" stroke="black" d="M298.74,-643.51C290.51,-634.66 282.31,-623.74 278,-612 252.1,-541.49 263.78,-450.68 272.14,-406.12"/>
<polygon fill="black" stroke="black" points="296.35,-646.07 305.88,-650.71 301.32,-641.14 296.35,-646.07"/>
<polygon fill="black" stroke="black" points="275.62,-406.56 274.12,-396.07 268.75,-405.21 275.62,-406.56"/>
</g>
<!-- set2 -->
<g id="node11" class="node">
<title>set2</title>
<ellipse fill="none" stroke="black" cx="494" cy="-306" rx="30.59" ry="18"/>
<text text-anchor="middle" x="494" y="-302.3" font-family="Times,serif" font-size="14.00">set2</text>
</g>
<!-- set0&#45;&gt;set2 -->
<g id="edge4" class="edge">
<title>set0&#45;&gt;set2</title>
<path fill="none" stroke="black" d="M361.57,-657.2C421.96,-642.48 532,-604.49 532,-523 532,-523 532,-523 532,-449 532,-407.41 516.6,-361.22 505.4,-333.14"/>
<polygon fill="black" stroke="black" points="360.56,-653.84 351.62,-659.52 362.16,-660.66 360.56,-653.84"/>
<polygon fill="black" stroke="black" points="508.55,-331.58 501.51,-323.66 502.07,-334.24 508.55,-331.58"/>
</g>
<!-- set5 -->
<g id="node14" class="node">
<title>set5</title>
<ellipse fill="none" stroke="black" cx="275" cy="-234" rx="30.59" ry="18"/>
<text text-anchor="middle" x="275" y="-230.3" font-family="Times,serif" font-size="14.00">set5</text>
</g>
<!-- set0&#45;&gt;set5 -->
<g id="edge5" class="edge">
<title>set0&#45;&gt;set5</title>
<path fill="none" stroke="black" d="M287.02,-652.96C218.49,-627.51 76,-561.32 76,-451 76,-451 76,-451 76,-377 76,-298.72 179.28,-259.53 237.03,-243.74"/>
<polygon fill="black" stroke="black" points="285.97,-656.31 296.57,-656.43 288.36,-649.73 285.97,-656.31"/>
<polygon fill="black" stroke="black" points="238.13,-247.07 246.91,-241.14 236.35,-240.3 238.13,-247.07"/>
</g>
<!-- set7 -->
<g id="node16" class="node">
<title>set7</title>
<ellipse fill="none" stroke="black" cx="418" cy="-90" rx="30.59" ry="18"/>
<text text-anchor="middle" x="418" y="-86.3" font-family="Times,serif" font-size="14.00">set7</text>
</g>
<!-- set0&#45;&gt;set7 -->
<g id="edge6" class="edge">
<title>set0&#45;&gt;set7</title>
<path fill="none" stroke="black" d="M363.13,-662.08C403.27,-657.33 464.93,-644.83 507,-612 568.78,-563.79 684,-385.36 684,-307 684,-307 684,-307 684,-233 684,-131.88 532.55,-102.51 458.21,-94.19"/>
<polygon fill="black" stroke="black" points="362.74,-658.61 353.17,-663.16 363.49,-665.57 362.74,-658.61"/>
<polygon fill="black" stroke="black" points="458.56,-90.71 448.25,-93.15 457.84,-97.67 458.56,-90.71"/>
</g>
<!-- set9 -->
<g id="node18" class="node">
<title>set9</title>
<ellipse fill="none" stroke="black" cx="418" cy="-18" rx="30.59" ry="18"/>
<text text-anchor="middle" x="418" y="-14.3" font-family="Times,serif" font-size="14.00">set9</text>
</g>
<!-- set0&#45;&gt;set9 -->
<g id="edge7" class="edge">
<title>set0&#45;&gt;set9</title>
<path fill="none" stroke="black" d="M284.16,-658.23C198.32,-640.8 0,-585.94 0,-451 0,-451 0,-451 0,-161 0,-81.62 273.66,-37.73 378.13,-23.87"/>
<polygon fill="black" stroke="black" points="283.56,-661.68 294.05,-660.17 284.91,-654.81 283.56,-661.68"/>
<polygon fill="black" stroke="black" points="378.81,-27.31 388.27,-22.55 377.91,-20.37 378.81,-27.31"/>
</g>
<!-- set1 -->
<g id="node2" class="node">
<title>set1</title>
<ellipse fill="none" stroke="black" cx="857" cy="-738" rx="30.59" ry="18"/>
<text text-anchor="middle" x="857" y="-734.3" font-family="Times,serif" font-size="14.00">set1</text>
</g>
<!-- set10 -->
<g id="node3" class="node">
<title>set10</title>
<ellipse fill="none" stroke="black" cx="954" cy="-666" rx="36.29" ry="18"/>
<text text-anchor="middle" x="954" y="-662.3" font-family="Times,serif" font-size="14.00">set10</text>
</g>
<!-- set1&#45;&gt;set10 -->
<g id="edge8" class="edge">
<title>set1&#45;&gt;set10</title>
<path fill="none" stroke="black" d="M884.11,-717.43C897.21,-707.98 912.9,-696.66 926.1,-687.14"/>
<polygon fill="black" stroke="black" points="881.76,-714.81 875.7,-723.5 885.86,-720.49 881.76,-714.81"/>
<polygon fill="black" stroke="black" points="928.3,-689.87 934.36,-681.18 924.2,-684.19 928.3,-689.87"/>
</g>
<!-- set12 -->
<g id="node5" class="node">
<title>set12</title>
<ellipse fill="none" stroke="black" cx="1144" cy="-594" rx="36.29" ry="18"/>
<text text-anchor="middle" x="1144" y="-590.3" font-family="Times,serif" font-size="14.00">set12</text>
</g>
<!-- set1&#45;&gt;set12 -->
<g id="edge9" class="edge">
<title>set1&#45;&gt;set12</title>
<path fill="none" stroke="black" d="M897.78,-736.01C945.73,-733.02 1025.87,-722.14 1082,-684 1104.99,-668.38 1122.08,-641.18 1132.44,-620.95"/>
<polygon fill="black" stroke="black" points="897.57,-732.52 887.77,-736.55 897.94,-739.51 897.57,-732.52"/>
<polygon fill="black" stroke="black" points="1135.59,-622.46 1136.84,-611.93 1129.31,-619.38 1135.59,-622.46"/>
</g>
<!-- set15 -->
<g id="node8" class="node">
<title>set15</title>
<ellipse fill="none" stroke="black" cx="1284" cy="-522" rx="36.29" ry="18"/>
<text text-anchor="middle" x="1284" y="-518.3" font-family="Times,serif" font-size="14.00">set15</text>
</g>
<!-- set1&#45;&gt;set15 -->
<g id="edge10" class="edge">
<title>set1&#45;&gt;set15</title>
<path fill="none" stroke="black" d="M897.25,-733.18C948.8,-727.28 1040.16,-713.41 1113,-684 1168.57,-661.56 1184.49,-654.24 1227,-612 1245.71,-593.41 1261.37,-567.64 1271.52,-548.62"/>
<polygon fill="black" stroke="black" points="896.74,-729.71 887.18,-734.29 897.51,-736.67 896.74,-729.71"/>
<polygon fill="black" stroke="black" points="1274.69,-550.11 1276.18,-539.62 1268.47,-546.89 1274.69,-550.11"/>
</g>
<!-- set16 -->
<g id="node9" class="node">
<title>set16</title>
<ellipse fill="none" stroke="black" cx="838" cy="-450" rx="36.29" ry="18"/>
<text text-anchor="middle" x="838" y="-446.3" font-family="Times,serif" font-size="14.00">set16</text>
</g>
<!-- set1&#45;&gt;set16 -->
<g id="edge11" class="edge">
<title>set1&#45;&gt;set16</title>
<path fill="none" stroke="black" d="M841.62,-711.86C827.62,-687.39 807.96,-648.63 800,-612 796.57,-596.22 795.7,-520.46 801,-504 804.36,-493.59 810.52,-483.42 816.87,-474.82"/>
<polygon fill="black" stroke="black" points="838.79,-713.95 846.86,-720.81 844.83,-710.41 838.79,-713.95"/>
<polygon fill="black" stroke="black" points="819.75,-476.81 823.18,-466.79 814.25,-472.48 819.75,-476.81"/>
</g>
<!-- set1&#45;&gt;set17 -->
<g id="edge12" class="edge">
<title>set1&#45;&gt;set17</title>
<path fill="none" stroke="black" d="M816.56,-735.32C703.06,-730.28 383.37,-713.78 283,-684 201.62,-659.86 114,-679.89 114,-595 114,-595 114,-595 114,-521 114,-454.97 190.91,-412.79 239.39,-392.75"/>
<polygon fill="black" stroke="black" points="816.43,-738.82 826.57,-735.76 816.73,-731.82 816.43,-738.82"/>
<polygon fill="black" stroke="black" points="240.69,-396 248.68,-389.04 238.1,-389.5 240.69,-396"/>
</g>
<!-- set1&#45;&gt;set2 -->
<g id="edge13" class="edge">
<title>set1&#45;&gt;set2</title>
<path fill="none" stroke="black" d="M817.45,-731.04C784.89,-724.39 739.19,-710.8 708,-684 584.03,-577.47 622.16,-497.64 534,-360 527.69,-350.14 520.09,-339.77 513.22,-330.83"/>
<polygon fill="black" stroke="black" points="817.04,-734.53 827.52,-732.97 818.35,-727.65 817.04,-734.53"/>
<polygon fill="black" stroke="black" points="515.83,-328.5 506.92,-322.78 510.32,-332.81 515.83,-328.5"/>
</g>
<!-- set3 -->
<g id="node12" class="node">
<title>set3</title>
<ellipse fill="none" stroke="black" cx="1060" cy="-378" rx="30.59" ry="18"/>
<text text-anchor="middle" x="1060" y="-374.3" font-family="Times,serif" font-size="14.00">set3</text>
</g>
<!-- set1&#45;&gt;set3 -->
<g id="edge14" class="edge">
<title>set1&#45;&gt;set3</title>
<path fill="none" stroke="black" d="M895.94,-729.32C956.91,-714.77 1068,-677.02 1068,-595 1068,-595 1068,-595 1068,-521 1068,-480.93 1064.79,-434.61 1062.43,-406.05"/>
<polygon fill="black" stroke="black" points="894.87,-725.97 885.9,-731.61 896.42,-732.8 894.87,-725.97"/>
<polygon fill="black" stroke="black" points="1065.91,-405.7 1061.58,-396.03 1058.94,-406.29 1065.91,-405.7"/>
</g>
<!-- set4 -->
<g id="node13" class="node">
<title>set4</title>
<ellipse fill="none" stroke="black" cx="1241" cy="-306" rx="30.59" ry="18"/>
<text text-anchor="middle" x="1241" y="-302.3" font-family="Times,serif" font-size="14.00">set4</text>
</g>
<!-- set1&#45;&gt;set4 -->
<g id="edge15" class="edge">
<title>set1&#45;&gt;set4</title>
<path fill="none" stroke="black" d="M897.37,-734.04C1014.81,-724.34 1348,-688.57 1348,-595 1348,-595 1348,-595 1348,-521 1348,-444.54 1292.68,-367.39 1261.59,-330.08"/>
<polygon fill="black" stroke="black" points="897.03,-730.56 887.34,-734.85 897.59,-737.54 897.03,-730.56"/>
<polygon fill="black" stroke="black" points="1264.13,-327.66 1254.99,-322.31 1258.8,-332.2 1264.13,-327.66"/>
</g>
<!-- set1&#45;&gt;set5 -->
<g id="edge16" class="edge">
<title>set1&#45;&gt;set5</title>
<path fill="none" stroke="black" d="M815.81,-737.52C681.49,-738.67 257.74,-737.84 134,-684 80.65,-660.79 38,-653.18 38,-595 38,-595 38,-595 38,-377 38,-330.5 55.99,-316.15 93,-288 134.72,-256.27 194.97,-243.5 234.55,-238.39"/>
<polygon fill="black" stroke="black" points="816.11,-741.02 826.07,-737.42 816.04,-734.02 816.11,-741.02"/>
<polygon fill="black" stroke="black" points="235.12,-241.85 244.64,-237.19 234.29,-234.9 235.12,-241.85"/>
</g>
<!-- set8 -->
<g id="node17" class="node">
<title>set8</title>
<ellipse fill="none" stroke="black" cx="990" cy="-234" rx="30.59" ry="18"/>
<text text-anchor="middle" x="990" y="-230.3" font-family="Times,serif" font-size="14.00">set8</text>
</g>
<!-- set1&#45;&gt;set8 -->
<g id="edge17" class="edge">
<title>set1&#45;&gt;set8</title>
<path fill="none" stroke="black" d="M831.99,-716.09C822.79,-707.12 813.14,-695.96 807,-684 755.78,-584.2 755.25,-537.63 793,-432 823.2,-347.49 913.11,-282 960.31,-252.35"/>
<polygon fill="black" stroke="black" points="829.81,-718.84 839.52,-723.07 834.57,-713.7 829.81,-718.84"/>
<polygon fill="black" stroke="black" points="962.2,-255.3 968.88,-247.07 958.53,-249.34 962.2,-255.3"/>
</g>
<!-- set10&#45;&gt;set12 -->
<g id="edge18" class="edge">
<title>set10&#45;&gt;set12</title>
<path fill="none" stroke="black" d="M992.24,-650.91C1025.32,-638.73 1072.89,-621.2 1105.92,-609.03"/>
<polygon fill="black" stroke="black" points="990.62,-647.78 982.44,-654.52 993.04,-654.35 990.62,-647.78"/>
<polygon fill="black" stroke="black" points="1107.5,-612.18 1115.67,-605.44 1105.08,-605.61 1107.5,-612.18"/>
</g>
<!-- set10&#45;&gt;set15 -->
<g id="edge19" class="edge">
<title>set10&#45;&gt;set15</title>
<path fill="none" stroke="black" d="M999.89,-661.81C1049.14,-656.81 1128.45,-644.09 1189,-612 1219.36,-595.91 1247.17,-567.54 1264.75,-547.15"/>
<polygon fill="black" stroke="black" points="999.48,-658.34 989.86,-662.77 1000.14,-665.31 999.48,-658.34"/>
<polygon fill="black" stroke="black" points="1267.65,-549.13 1271.41,-539.23 1262.3,-544.63 1267.65,-549.13"/>
</g>
<!-- set10&#45;&gt;set16 -->
<g id="edge20" class="edge">
<title>set10&#45;&gt;set16</title>
<path fill="none" stroke="black" d="M908.35,-660.51C876.95,-654.77 837.36,-641.71 817,-612 789.15,-571.37 809.11,-511.19 824.58,-477.08"/>
<polygon fill="black" stroke="black" points="907.79,-663.96 918.23,-662.12 908.92,-657.05 907.79,-663.96"/>
<polygon fill="black" stroke="black" points="827.87,-478.32 828.98,-467.79 821.54,-475.33 827.87,-478.32"/>
</g>
<!-- set10&#45;&gt;set3 -->
<g id="edge21" class="edge">
<title>set10&#45;&gt;set3</title>
<path fill="none" stroke="black" d="M980.43,-643.54C989.78,-634.68 999.56,-623.74 1006,-612 1025.48,-576.49 1046.63,-459.82 1055.59,-406.29"/>
<polygon fill="black" stroke="black" points="977.84,-641.16 972.77,-650.46 982.53,-646.36 977.84,-641.16"/>
<polygon fill="black" stroke="black" points="1059.08,-406.61 1057.26,-396.17 1052.18,-405.46 1059.08,-406.61"/>
</g>
<!-- set10&#45;&gt;set4 -->
<g id="edge22" class="edge">
<title>set10&#45;&gt;set4</title>
<path fill="none" stroke="black" d="M965.4,-638.86C976.6,-610.78 992,-564.59 992,-523 992,-523 992,-523 992,-449 992,-407.53 989.68,-388.29 1020,-360 1046.01,-335.74 1144.98,-319.36 1201.26,-311.8"/>
<polygon fill="black" stroke="black" points="962.07,-637.76 961.51,-648.34 968.55,-640.42 962.07,-637.76"/>
<polygon fill="black" stroke="black" points="1201.78,-315.26 1211.24,-310.49 1200.87,-308.32 1201.78,-315.26"/>
</g>
<!-- set10&#45;&gt;set8 -->
<g id="edge23" class="edge">
<title>set10&#45;&gt;set8</title>
<path fill="none" stroke="black" d="M954,-637.92C954,-609.35 954,-563 954,-523 954,-523 954,-523 954,-377 954,-335.55 968.59,-289.32 979.2,-261.2"/>
<polygon fill="black" stroke="black" points="950.5,-637.95 954,-647.95 957.5,-637.95 950.5,-637.95"/>
<polygon fill="black" stroke="black" points="982.53,-262.29 982.89,-251.7 976,-259.75 982.53,-262.29"/>
</g>
<!-- start -->
<g id="node19" class="node">
<title>start</title>
<ellipse fill="none" stroke="black" cx="916" cy="-162" rx="33.29" ry="18"/>
<text text-anchor="middle" x="916" y="-158.3" font-family="Times,serif" font-size="14.00">start</text>
</g>
<!-- set10&#45;&gt;start -->
<g id="edge24" class="edge">
<title>set10&#45;&gt;start</title>
<path fill="none" stroke="black" d="M942.6,-638.86C931.4,-610.78 916,-564.59 916,-523 916,-523 916,-523 916,-449 916,-353.94 916,-241.1 916,-190.25"/>
<polygon fill="black" stroke="black" points="939.45,-640.42 946.49,-648.34 945.93,-637.76 939.45,-640.42"/>
<polygon fill="black" stroke="black" points="919.5,-190.09 916,-180.09 912.5,-190.09 919.5,-190.09"/>
</g>
<!-- goal -->
<g id="node20" class="node">
<title>goal</title>
<ellipse fill="none" stroke="black" cx="857" cy="-594" rx="30.59" ry="18"/>
<text text-anchor="middle" x="857" y="-590.3" font-family="Times,serif" font-size="14.00">goal</text>
</g>
<!-- set10&#45;&gt;goal -->
<g id="edge25" class="edge">
<title>set10&#45;&gt;goal</title>
<path fill="none" stroke="black" d="M925.83,-644.67C912.57,-635.1 896.84,-623.75 883.77,-614.32"/>
<polygon fill="black" stroke="black" points="924.21,-647.82 934.37,-650.83 928.31,-642.14 924.21,-647.82"/>
<polygon fill="black" stroke="black" points="885.77,-611.45 875.61,-608.43 881.67,-617.12 885.77,-611.45"/>
</g>
<!-- set13 -->
<g id="node6" class="node">
<title>set13</title>
<ellipse fill="none" stroke="black" cx="380" cy="-522" rx="36.29" ry="18"/>
<text text-anchor="middle" x="380" y="-518.3" font-family="Times,serif" font-size="14.00">set13</text>
</g>
<!-- set11&#45;&gt;set13 -->
<g id="edge26" class="edge">
<title>set11&#45;&gt;set13</title>
<path fill="none" stroke="black" d="M342.35,-569.23C348.12,-562.15 354.44,-554.39 360.23,-547.28"/>
<polygon fill="black" stroke="black" points="339.53,-567.15 335.93,-577.12 344.96,-571.57 339.53,-567.15"/>
<polygon fill="black" stroke="black" points="363.12,-549.27 366.72,-539.31 357.69,-544.85 363.12,-549.27"/>
</g>
<!-- set11&#45;&gt;set17 -->
<g id="edge27" class="edge">
<title>set11&#45;&gt;set17</title>
<path fill="none" stroke="black" d="M317.32,-565.97C308.66,-524.78 292.25,-446.78 283.63,-405.76"/>
<polygon fill="black" stroke="black" points="313.91,-566.78 319.39,-575.85 320.76,-565.34 313.91,-566.78"/>
<polygon fill="black" stroke="black" points="287.04,-405 281.56,-395.94 280.19,-406.44 287.04,-405"/>
</g>
<!-- set11&#45;&gt;set2 -->
<g id="edge28" class="edge">
<title>set11&#45;&gt;set2</title>
<path fill="none" stroke="black" d="M362.88,-579.86C383.68,-571.29 408.21,-558.27 425,-540 479.03,-481.21 490.88,-382 493.39,-334.27"/>
<polygon fill="black" stroke="black" points="361.36,-576.69 353.32,-583.59 363.91,-583.21 361.36,-576.69"/>
<polygon fill="black" stroke="black" points="496.9,-334.23 493.82,-324.09 489.9,-333.93 496.9,-334.23"/>
</g>
<!-- set11&#45;&gt;set5 -->
<g id="edge29" class="edge">
<title>set11&#45;&gt;set5</title>
<path fill="none" stroke="black" d="M307.19,-567.83C285.42,-531.52 247.28,-461.6 233,-396 222.48,-347.65 244.84,-291.93 260.79,-260.34"/>
<polygon fill="black" stroke="black" points="304.42,-570 312.61,-576.73 310.4,-566.37 304.42,-570"/>
<polygon fill="black" stroke="black" points="263.96,-261.83 265.49,-251.35 257.76,-258.59 263.96,-261.83"/>
</g>
<!-- set6 -->
<g id="node15" class="node">
<title>set6</title>
<ellipse fill="none" stroke="black" cx="346" cy="-162" rx="30.59" ry="18"/>
<text text-anchor="middle" x="346" y="-158.3" font-family="Times,serif" font-size="14.00">set6</text>
</g>
<!-- set11&#45;&gt;set6 -->
<g id="edge30" class="edge">
<title>set11&#45;&gt;set6</title>
<path fill="none" stroke="black" d="M297.64,-571.42C288.11,-562.41 277.72,-551.39 270,-540 223.83,-471.93 224.72,-442.22 227,-360 228.78,-295.93 199.32,-269.25 235,-216 251.3,-191.68 281.98,-178.21 306.96,-170.94"/>
<polygon fill="black" stroke="black" points="295.29,-574.02 305.03,-578.19 300.02,-568.86 295.29,-574.02"/>
<polygon fill="black" stroke="black" points="308.15,-174.24 316.91,-168.28 306.35,-167.48 308.15,-174.24"/>
</g>
<!-- set11&#45;&gt;set7 -->
<g id="edge31" class="edge">
<title>set11&#45;&gt;set7</title>
<path fill="none" stroke="black" d="M365.53,-582.99C392.44,-574.94 426.63,-561.38 451,-540 506.52,-491.28 514.91,-467.36 534,-396 564.27,-282.87 519.48,-243.05 457,-144 450.81,-134.19 443.4,-123.82 436.7,-114.88"/>
<polygon fill="black" stroke="black" points="364.27,-579.71 355.61,-585.8 366.18,-586.44 364.27,-579.71"/>
<polygon fill="black" stroke="black" points="439.41,-112.66 430.57,-106.82 433.83,-116.89 439.41,-112.66"/>
</g>
<!-- set12&#45;&gt;set15 -->
<g id="edge32" class="edge">
<title>set12&#45;&gt;set15</title>
<path fill="none" stroke="black" d="M1177.85,-576.08C1199.76,-565.12 1228.19,-550.91 1250.11,-539.94"/>
<polygon fill="black" stroke="black" points="1176.09,-573.04 1168.71,-580.65 1179.22,-579.3 1176.09,-573.04"/>
<polygon fill="black" stroke="black" points="1251.69,-543.07 1259.07,-535.47 1248.56,-536.81 1251.69,-543.07"/>
</g>
<!-- set12&#45;&gt;set16 -->
<g id="edge33" class="edge">
<title>set12&#45;&gt;set16</title>
<path fill="none" stroke="black" d="M1109.05,-576.78C1050.17,-549.46 931.86,-494.56 872.97,-467.23"/>
<polygon fill="black" stroke="black" points="1107.89,-580.1 1118.44,-581.14 1110.84,-573.75 1107.89,-580.1"/>
<polygon fill="black" stroke="black" points="874.25,-463.96 863.71,-462.93 871.3,-470.31 874.25,-463.96"/>
</g>
<!-- set12&#45;&gt;set3 -->
<g id="edge34" class="edge">
<title>set12&#45;&gt;set3</title>
<path fill="none" stroke="black" d="M1134.04,-566.5C1121.96,-534.53 1100.87,-479.18 1082,-432 1078.49,-423.22 1074.56,-413.67 1071,-405.13"/>
<polygon fill="black" stroke="black" points="1130.82,-567.9 1137.63,-576.02 1137.37,-565.43 1130.82,-567.9"/>
<polygon fill="black" stroke="black" points="1074.13,-403.54 1067.05,-395.66 1067.67,-406.24 1074.13,-403.54"/>
</g>
<!-- set12&#45;&gt;set4 -->
<g id="edge35" class="edge">
<title>set12&#45;&gt;set4</title>
<path fill="none" stroke="black" d="M1170.66,-571.66C1180.04,-562.82 1189.78,-551.86 1196,-540 1231.64,-472.09 1239.24,-379.74 1240.74,-334.41"/>
<polygon fill="black" stroke="black" points="1168.07,-569.29 1162.96,-578.57 1172.74,-574.5 1168.07,-569.29"/>
<polygon fill="black" stroke="black" points="1244.24,-334.27 1241,-324.19 1237.24,-334.1 1244.24,-334.27"/>
</g>
<!-- set12&#45;&gt;set8 -->
<g id="edge36" class="edge">
<title>set12&#45;&gt;set8</title>
<path fill="none" stroke="black" d="M1155.4,-566.86C1166.6,-538.78 1182,-492.59 1182,-451 1182,-451 1182,-451 1182,-377 1182,-301.09 1083.78,-261.12 1027.84,-244.52"/>
<polygon fill="black" stroke="black" points="1152.07,-565.76 1151.51,-576.34 1158.55,-568.42 1152.07,-565.76"/>
<polygon fill="black" stroke="black" points="1028.5,-241.07 1017.92,-241.69 1026.57,-247.8 1028.5,-241.07"/>
</g>
<!-- set13&#45;&gt;set16 -->
<g id="edge37" class="edge">
<title>set13&#45;&gt;set16</title>
<path fill="none" stroke="black" d="M425.32,-515.51C495.97,-506.75 636.52,-488.49 755,-468 768.15,-465.73 782.41,-462.93 795.33,-460.26"/>
<polygon fill="black" stroke="black" points="424.51,-512.08 415.01,-516.78 425.36,-519.03 424.51,-512.08"/>
<polygon fill="black" stroke="black" points="796.3,-463.64 805.37,-458.17 794.86,-456.79 796.3,-463.64"/>
</g>
<!-- set13&#45;&gt;set17 -->
<g id="edge38" class="edge">
<title>set13&#45;&gt;set17</title>
<path fill="none" stroke="black" d="M355.47,-498.65C346.27,-489.62 336.1,-478.79 328,-468 313.12,-448.18 299.57,-423.45 290.35,-405.09"/>
<polygon fill="black" stroke="black" points="353.25,-501.38 362.89,-505.77 358.1,-496.33 353.25,-501.38"/>
<polygon fill="black" stroke="black" points="293.37,-403.3 285.81,-395.88 287.09,-406.39 293.37,-403.3"/>
</g>
<!-- set13&#45;&gt;set2 -->
<g id="edge39" class="edge">
<title>set13&#45;&gt;set2</title>
<path fill="none" stroke="black" d="M405.37,-499.23C414.67,-490.28 424.7,-479.35 432,-468 459.79,-424.81 478.16,-367.26 487.27,-333.96"/>
<polygon fill="black" stroke="black" points="402.75,-496.89 397.81,-506.26 407.52,-502.02 402.75,-496.89"/>
<polygon fill="black" stroke="black" points="490.72,-334.61 489.9,-324.04 483.95,-332.81 490.72,-334.61"/>
</g>
<!-- set13&#45;&gt;set5 -->
<g id="edge40" class="edge">
<title>set13&#45;&gt;set5</title>
<path fill="none" stroke="black" d="M370.86,-494.51C359.78,-462.54 340.41,-407.19 323,-360 310.41,-325.88 295.28,-286.78 285.42,-261.53"/>
<polygon fill="black" stroke="black" points="367.58,-495.72 374.16,-504.03 374.19,-493.43 367.58,-495.72"/>
<polygon fill="black" stroke="black" points="288.57,-259.97 281.66,-251.93 282.05,-262.52 288.57,-259.97"/>
</g>
<!-- set13&#45;&gt;set6 -->
<g id="edge41" class="edge">
<title>set13&#45;&gt;set6</title>
<path fill="none" stroke="black" d="M380,-493.92C380,-465.35 380,-419 380,-379 380,-379 380,-379 380,-305 380,-263.68 366.22,-217.42 356.2,-189.25"/>
<polygon fill="black" stroke="black" points="376.5,-493.95 380,-503.95 383.5,-493.95 376.5,-493.95"/>
<polygon fill="black" stroke="black" points="359.44,-187.92 352.72,-179.74 352.87,-190.33 359.44,-187.92"/>
</g>
<!-- set13&#45;&gt;set7 -->
<g id="edge42" class="edge">
<title>set13&#45;&gt;set7</title>
<path fill="none" stroke="black" d="M391.4,-494.86C402.6,-466.78 418,-420.59 418,-379 418,-379 418,-379 418,-233 418,-193 418,-146.65 418,-118.08"/>
<polygon fill="black" stroke="black" points="388.07,-493.76 387.51,-504.34 394.55,-496.42 388.07,-493.76"/>
<polygon fill="black" stroke="black" points="421.5,-118.05 418,-108.05 414.5,-118.05 421.5,-118.05"/>
</g>
<!-- set14&#45;&gt;set9 -->
<g id="edge43" class="edge">
<title>set14&#45;&gt;set9</title>
<path fill="none" stroke="black" d="M713.65,-421.98C717.18,-393.45 722,-347.15 722,-307 722,-307 722,-307 722,-161 722,-46.06 541.41,-23.95 458.61,-19.85"/>
<polygon fill="black" stroke="black" points="710.16,-421.63 712.37,-431.99 717.11,-422.51 710.16,-421.63"/>
<polygon fill="black" stroke="black" points="458.68,-16.35 448.54,-19.41 458.38,-23.34 458.68,-16.35"/>
</g>
<!-- set15&#45;&gt;set16 -->
<g id="edge44" class="edge">
<title>set15&#45;&gt;set16</title>
<path fill="none" stroke="black" d="M1239.7,-514.05C1154.17,-500.62 967.2,-471.28 881.95,-457.9"/>
<polygon fill="black" stroke="black" points="1239.32,-517.53 1249.74,-515.62 1240.41,-510.62 1239.32,-517.53"/>
<polygon fill="black" stroke="black" points="882.49,-454.44 872.07,-456.35 881.4,-461.36 882.49,-454.44"/>
</g>
<!-- set15&#45;&gt;set3 -->
<g id="edge45" class="edge">
<title>set15&#45;&gt;set3</title>
<path fill="none" stroke="black" d="M1253.81,-501.86C1210.44,-474.37 1131.06,-424.05 1088.59,-397.13"/>
<polygon fill="black" stroke="black" points="1252.2,-504.99 1262.52,-507.38 1255.95,-499.07 1252.2,-504.99"/>
<polygon fill="black" stroke="black" points="1090.44,-394.15 1080.12,-391.75 1086.69,-400.06 1090.44,-394.15"/>
</g>
<!-- set15&#45;&gt;set4 -->
<g id="edge46" class="edge">
<title>set15&#45;&gt;set4</title>
<path fill="none" stroke="black" d="M1278.57,-493.97C1270.29,-452.78 1254.62,-374.78 1246.38,-333.76"/>
<polygon fill="black" stroke="black" points="1275.15,-494.73 1280.55,-503.85 1282.02,-493.36 1275.15,-494.73"/>
<polygon fill="black" stroke="black" points="1249.8,-333.05 1244.4,-323.94 1242.94,-334.43 1249.8,-333.05"/>
</g>
<!-- set15&#45;&gt;set8 -->
<g id="edge47" class="edge">
<title>set15&#45;&gt;set8</title>
<path fill="none" stroke="black" d="M1293.28,-494.62C1308.13,-447.15 1330.79,-346.84 1281,-288 1249.31,-250.54 1102.77,-239.47 1030.51,-236.27"/>
<polygon fill="black" stroke="black" points="1289.94,-493.58 1290.17,-504.17 1296.6,-495.75 1289.94,-493.58"/>
<polygon fill="black" stroke="black" points="1030.55,-232.77 1020.41,-235.85 1030.26,-239.76 1030.55,-232.77"/>
</g>
<!-- set15&#45;&gt;start -->
<g id="edge48" class="edge">
<title>set15&#45;&gt;start</title>
<path fill="none" stroke="black" d="M1312.26,-499.95C1342.45,-474.82 1386,-429.77 1386,-379 1386,-379 1386,-379 1386,-305 1386,-216.24 1074.98,-177.92 958.96,-166.71"/>
<polygon fill="black" stroke="black" points="1309.74,-497.49 1304.15,-506.5 1314.13,-502.94 1309.74,-497.49"/>
<polygon fill="black" stroke="black" points="958.96,-163.2 948.68,-165.74 958.3,-170.17 958.96,-163.2"/>
</g>
<!-- set16&#45;&gt;set17 -->
<g id="edge49" class="edge">
<title>set16&#45;&gt;set17</title>
<path fill="none" stroke="black" d="M795.37,-439.49C782.45,-436.82 768.18,-434.08 755,-432 597.57,-407.18 409.11,-389.86 323.87,-382.69"/>
<polygon fill="black" stroke="black" points="794.9,-442.97 805.41,-441.61 796.34,-436.12 794.9,-442.97"/>
<polygon fill="black" stroke="black" points="324.01,-379.19 313.75,-381.85 323.43,-386.17 324.01,-379.19"/>
</g>
<!-- set16&#45;&gt;set2 -->
<g id="edge50" class="edge">
<title>set16&#45;&gt;set2</title>
<path fill="none" stroke="black" d="M801.65,-433.99C734.74,-406.37 592.99,-347.86 527.93,-321.01"/>
<polygon fill="black" stroke="black" points="800.43,-437.28 811.01,-437.86 803.1,-430.81 800.43,-437.28"/>
<polygon fill="black" stroke="black" points="529.12,-317.71 518.54,-317.13 526.45,-324.18 529.12,-317.71"/>
</g>
<!-- set16&#45;&gt;set3 -->
<g id="edge51" class="edge">
<title>set16&#45;&gt;set3</title>
<path fill="none" stroke="black" d="M877.67,-436.49C919.22,-423.39 983.89,-403 1024,-390.35"/>
<polygon fill="black" stroke="black" points="876.42,-433.21 867.94,-439.56 878.53,-439.89 876.42,-433.21"/>
<polygon fill="black" stroke="black" points="1025.16,-393.66 1033.64,-387.31 1023.05,-386.98 1025.16,-393.66"/>
</g>
<!-- set16&#45;&gt;set5 -->
<g id="edge52" class="edge">
<title>set16&#45;&gt;set5</title>
<path fill="none" stroke="black" d="M806.64,-430.67C774.96,-412.3 724.48,-383.47 680,-360 616.01,-326.23 602.45,-311.44 534,-288 458.65,-262.19 366.43,-247.02 314.85,-239.92"/>
<polygon fill="black" stroke="black" points="805.05,-433.79 815.45,-435.78 808.56,-427.73 805.05,-433.79"/>
<polygon fill="black" stroke="black" points="315.16,-236.43 304.78,-238.57 314.23,-243.37 315.16,-236.43"/>
</g>
<!-- set16&#45;&gt;set8 -->
<g id="edge53" class="edge">
<title>set16&#45;&gt;set8</title>
<path fill="none" stroke="black" d="M852.16,-423.42C870.67,-390.79 904.89,-333.19 940,-288 948.37,-277.23 958.55,-266.13 967.55,-256.89"/>
<polygon fill="black" stroke="black" points="849.01,-421.88 847.15,-432.31 855.11,-425.32 849.01,-421.88"/>
<polygon fill="black" stroke="black" points="970.2,-259.18 974.75,-249.61 965.23,-254.26 970.2,-259.18"/>
</g>
<!-- set17&#45;&gt;set2 -->
<g id="edge54" class="edge">
<title>set17&#45;&gt;set2</title>
<path fill="none" stroke="black" d="M317.29,-364.27C357.39,-351.27 419.1,-331.27 457.97,-318.67"/>
<polygon fill="black" stroke="black" points="316.01,-361 307.58,-367.41 318.17,-367.66 316.01,-361"/>
<polygon fill="black" stroke="black" points="459.38,-321.9 467.82,-315.49 457.22,-315.24 459.38,-321.9"/>
</g>
<!-- set17&#45;&gt;set5 -->
<g id="edge55" class="edge">
<title>set17&#45;&gt;set5</title>
<path fill="none" stroke="black" d="M277.42,-349.68C276.89,-324.6 276.11,-287.63 275.58,-262.49"/>
<polygon fill="black" stroke="black" points="273.93,-349.95 277.64,-359.87 280.93,-349.8 273.93,-349.95"/>
<polygon fill="black" stroke="black" points="279.07,-262.11 275.36,-252.19 272.08,-262.26 279.07,-262.11"/>
</g>
<!-- set17&#45;&gt;set6 -->
<g id="edge56" class="edge">
<title>set17&#45;&gt;set6</title>
<path fill="none" stroke="black" d="M286.5,-350.25C299.59,-309.06 324.53,-230.57 337.57,-189.52"/>
<polygon fill="black" stroke="black" points="283.14,-349.26 283.45,-359.85 289.81,-351.38 283.14,-349.26"/>
<polygon fill="black" stroke="black" points="340.93,-190.53 340.62,-179.94 334.25,-188.41 340.93,-190.53"/>
</g>
<!-- set17&#45;&gt;set7 -->
<g id="edge57" class="edge">
<title>set17&#45;&gt;set7</title>
<path fill="none" stroke="black" d="M262.27,-351.36C244.74,-319.46 220.64,-263.43 235,-216 246.14,-179.19 253.06,-168.14 283,-144 311.41,-121.1 350.91,-107.14 379.85,-99.34"/>
<polygon fill="black" stroke="black" points="259.46,-353.49 267.45,-360.44 265.54,-350.02 259.46,-353.49"/>
<polygon fill="black" stroke="black" points="380.79,-102.71 389.61,-96.84 379.05,-95.93 380.79,-102.71"/>
</g>
<!-- set2&#45;&gt;set5 -->
<g id="edge58" class="edge">
<title>set2&#45;&gt;set5</title>
<path fill="none" stroke="black" d="M457.84,-293.44C417.16,-280.44 351.49,-259.45 310.91,-246.48"/>
<polygon fill="black" stroke="black" points="456.99,-296.85 467.58,-296.56 459.12,-290.18 456.99,-296.85"/>
<polygon fill="black" stroke="black" points="311.76,-243.08 301.17,-243.36 309.63,-249.74 311.76,-243.08"/>
</g>
<!-- set2&#45;&gt;set6 -->
<g id="edge59" class="edge">
<title>set2&#45;&gt;set6</title>
<path fill="none" stroke="black" d="M471.13,-283.05C443.27,-256.33 396.51,-211.46 368.72,-184.8"/>
<polygon fill="black" stroke="black" points="469.08,-285.94 478.72,-290.34 473.93,-280.89 469.08,-285.94"/>
<polygon fill="black" stroke="black" points="371.06,-182.19 361.42,-177.79 366.21,-187.24 371.06,-182.19"/>
</g>
<!-- set2&#45;&gt;set7 -->
<g id="edge60" class="edge">
<title>set2&#45;&gt;set7</title>
<path fill="none" stroke="black" d="M484.64,-278.63C470.02,-237.47 441.95,-158.42 427.34,-117.3"/>
<polygon fill="black" stroke="black" points="481.39,-279.96 488.04,-288.21 487.99,-277.61 481.39,-279.96"/>
<polygon fill="black" stroke="black" points="430.58,-115.97 423.94,-107.71 423.98,-118.31 430.58,-115.97"/>
</g>
<!-- set3&#45;&gt;set4 -->
<g id="edge61" class="edge">
<title>set3&#45;&gt;set4</title>
<path fill="none" stroke="black" d="M1094.28,-363.74C1126.52,-351.27 1174.53,-332.71 1206.76,-320.24"/>
<polygon fill="black" stroke="black" points="1092.85,-360.54 1084.79,-367.41 1095.38,-367.07 1092.85,-360.54"/>
<polygon fill="black" stroke="black" points="1208.16,-323.45 1216.22,-316.58 1205.63,-316.93 1208.16,-323.45"/>
</g>
<!-- set3&#45;&gt;set8 -->
<g id="edge62" class="edge">
<title>set3&#45;&gt;set8</title>
<path fill="none" stroke="black" d="M1047.34,-351.32C1034.66,-325.6 1015.27,-286.26 1002.61,-260.58"/>
<polygon fill="black" stroke="black" points="1044.27,-353.01 1051.83,-360.43 1050.55,-349.92 1044.27,-353.01"/>
<polygon fill="black" stroke="black" points="1005.68,-258.88 998.11,-251.46 999.4,-261.98 1005.68,-258.88"/>
</g>
<!-- set3&#45;&gt;start -->
<g id="edge63" class="edge">
<title>set3&#45;&gt;start</title>
<path fill="none" stroke="black" d="M1036.29,-355.27C1011.87,-331.8 974.06,-292.32 950,-252 938.26,-232.32 929.26,-207.86 923.49,-189.57"/>
<polygon fill="black" stroke="black" points="1034.05,-357.97 1043.72,-362.31 1038.87,-352.89 1034.05,-357.97"/>
<polygon fill="black" stroke="black" points="926.79,-188.41 920.53,-179.86 920.09,-190.44 926.79,-188.41"/>
</g>
<!-- set4&#45;&gt;set8 -->
<g id="edge64" class="edge">
<title>set4&#45;&gt;set8</title>
<path fill="none" stroke="black" d="M1206.89,-291.67C1203.23,-290.37 1199.55,-289.12 1196,-288 1138.23,-269.72 1069.88,-253.1 1028.25,-243.52"/>
<polygon fill="black" stroke="black" points="1205.82,-295 1216.41,-295.16 1208.23,-288.43 1205.82,-295"/>
<polygon fill="black" stroke="black" points="1028.79,-240.05 1018.26,-241.24 1027.23,-246.88 1028.79,-240.05"/>
</g>
<!-- set5&#45;&gt;set6 -->
<g id="edge65" class="edge">
<title>set5&#45;&gt;set6</title>
<path fill="none" stroke="black" d="M297.27,-211.04C305.67,-202.76 315.22,-193.34 323.63,-185.05"/>
<polygon fill="black" stroke="black" points="294.72,-208.64 290.06,-218.15 299.64,-213.63 294.72,-208.64"/>
<polygon fill="black" stroke="black" points="326.3,-187.34 330.96,-177.82 321.39,-182.35 326.3,-187.34"/>
</g>
<!-- set5&#45;&gt;set7 -->
<g id="edge66" class="edge">
<title>set5&#45;&gt;set7</title>
<path fill="none" stroke="black" d="M278.75,-205.95C282.66,-186.69 290.5,-161.25 306,-144 325.59,-122.2 356.04,-108.59 380.26,-100.63"/>
<polygon fill="black" stroke="black" points="275.28,-205.47 276.96,-215.93 282.17,-206.7 275.28,-205.47"/>
<polygon fill="black" stroke="black" points="381.35,-103.96 389.86,-97.66 379.27,-97.27 381.35,-103.96"/>
</g>
<!-- set6&#45;&gt;set7 -->
<g id="edge67" class="edge">
<title>set6&#45;&gt;set7</title>
<path fill="none" stroke="black" d="M368.59,-139.04C377.19,-130.67 386.99,-121.15 395.58,-112.8"/>
<polygon fill="black" stroke="black" points="366,-136.67 361.27,-146.15 370.88,-141.69 366,-136.67"/>
<polygon fill="black" stroke="black" points="398.02,-115.3 402.75,-105.82 393.14,-110.29 398.02,-115.3"/>
</g>
<!-- set7&#45;&gt;set9 -->
<g id="edge68" class="edge">
<title>set7&#45;&gt;set9</title>
<path fill="none" stroke="black" d="M418,-61.67C418,-56.69 418,-51.49 418,-46.51"/>
<polygon fill="black" stroke="black" points="414.5,-61.7 418,-71.7 421.5,-61.7 414.5,-61.7"/>
<polygon fill="black" stroke="black" points="421.5,-46.1 418,-36.1 414.5,-46.1 421.5,-46.1"/>
</g>
<!-- set8&#45;&gt;start -->
<g id="edge69" class="edge">
<title>set8&#45;&gt;start</title>
<path fill="none" stroke="black" d="M966.84,-211.09C958.06,-202.79 948.07,-193.33 939.28,-185.02"/>
<polygon fill="black" stroke="black" points="964.64,-213.83 974.31,-218.15 969.45,-208.74 964.64,-213.83"/>
<polygon fill="black" stroke="black" points="941.6,-182.39 931.93,-178.07 936.79,-187.48 941.6,-182.39"/>
</g>
</g>
</svg>
