<?xml version="1.0" encoding="UTF-8" standalone="no"?>
<!DOCTYPE svg PUBLIC "-//W3C//DTD SVG 1.1//EN"
 "http://www.w3.org/Graphics/SVG/1.1/DTD/svg11.dtd">
<!-- Generated by graphviz version 2.43.0 (0)
 -->
<!-- Title: IRIS region connectivity Pages: 1 -->
<svg width="1378pt" height="764pt"
 viewBox="0.00 0.00 1378.00 764.00" xmlns="http://www.w3.org/2000/svg" xmlns:xlink="http://www.w3.org/1999/xlink">
<g id="graph0" class="graph" transform="scale(1 1) rotate(0) translate(4 760)">
<title>IRIS region connectivity</title>
<polygon fill="white" stroke="transparent" points="-4,4 -4,-760 1374,-760 1374,4 -4,4"/>
<!-- set0 -->
<g id="node1" class="node">
<title>set0</title>
<ellipse fill="none" stroke="black" cx="280" cy="-666" rx="30.59" ry="18"/>
<text text-anchor="middle" x="280" y="-662.3" font-family="Times,serif" font-size="14.00">set0</text>
</g>
<!-- set11 -->
<g id="node4" class="node">
<title>set11</title>
<ellipse fill="none" stroke="black" cx="432" cy="-594" rx="36.29" ry="18"/>
<text text-anchor="middle" x="432" y="-590.3" font-family="Times,serif" font-size="14.00">set11</text>
</g>
<!-- set0&#45;&gt;set11 -->
<g id="edge1" class="edge">
<title>set0&#45;&gt;set11</title>
<path fill="none" stroke="black" d="M312.79,-649.9C337.62,-638.46 371.66,-622.79 397.01,-611.11"/>
<polygon fill="black" stroke="black" points="311.04,-646.85 303.42,-654.22 313.96,-653.21 311.04,-646.85"/>
<polygon fill="black" stroke="black" points="398.65,-614.21 406.27,-606.85 395.72,-607.85 398.65,-614.21"/>
</g>
<!-- set14 -->
<g id="node7" class="node">
<title>set14</title>
<ellipse fill="none" stroke="black" cx="64" cy="-450" rx="36.29" ry="18"/>
<text text-anchor="middle" x="64" y="-446.3" font-family="Times,serif" font-size="14.00">set14</text>
</g>
<!-- set0&#45;&gt;set14 -->
<g id="edge2" class="edge">
<title>set0&#45;&gt;set14</title>
<path fill="none" stroke="black" d="M241.87,-656.49C214.28,-648.72 177.5,-634.9 152,-612 110.36,-574.62 84.43,-512.73 72.26,-477.57"/>
<polygon fill="black" stroke="black" points="241.02,-659.88 251.58,-659.08 242.82,-653.12 241.02,-659.88"/>
<polygon fill="black" stroke="black" points="75.54,-476.36 69.05,-467.99 68.91,-478.58 75.54,-476.36"/>
</g>
<!-- set17 -->
<g id="node10" class="node">
<title>set17</title>
<ellipse fill="none" stroke="black" cx="330" cy="-378" rx="36.29" ry="18"/>
<text text-anchor="middle" x="330" y="-374.3" font-family="Times,serif" font-size="14.00">set17</text>
</g>
<!-- set0&#45;&gt;set17 -->
<g id="edge3" class="edge">
<title>set0&#45;&gt;set17</title>
<path fill="none" stroke="black" d="M284.71,-638.04C294.26,-583.45 315.76,-460.43 325.3,-405.9"/>
<polygon fill="black" stroke="black" points="281.25,-637.51 282.98,-647.97 288.15,-638.72 281.25,-637.51"/>
<polygon fill="black" stroke="black" points="328.76,-406.4 327.04,-395.94 321.87,-405.19 328.76,-406.4"/>
</g>
<!-- set2 -->
<g id="node11" class="node">
<title>set2</title>
<ellipse fill="none" stroke="black" cx="660" cy="-306" rx="30.59" ry="18"/>
<text text-anchor="middle" x="660" y="-302.3" font-family="Times,serif" font-size="14.00">set2</text>
</g>
<!-- set0&#45;&gt;set2 -->
<g id="edge4" class="edge">
<title>set0&#45;&gt;set2</title>
<path fill="none" stroke="black" d="M320.94,-663.58C398.46,-658.62 567.2,-636.65 660,-540 715.9,-481.78 701.58,-438.77 684,-360 681.92,-350.69 678.11,-341.03 674.13,-332.56"/>
<polygon fill="black" stroke="black" points="320.4,-660.1 310.62,-664.17 320.81,-667.09 320.4,-660.1"/>
<polygon fill="black" stroke="black" points="677.24,-330.95 669.64,-323.57 670.97,-334.08 677.24,-330.95"/>
</g>
<!-- set5 -->
<g id="node14" class="node">
<title>set5</title>
<ellipse fill="none" stroke="black" cx="432" cy="-234" rx="30.59" ry="18"/>
<text text-anchor="middle" x="432" y="-230.3" font-family="Times,serif" font-size="14.00">set5</text>
</g>
<!-- set0&#45;&gt;set5 -->
<g id="edge5" class="edge">
<title>set0&#45;&gt;set5</title>
<path fill="none" stroke="black" d="M263.59,-640.01C245.04,-608.78 218.57,-553.42 228,-504 240.89,-436.39 245.54,-416.4 285,-360 312.61,-320.54 329.21,-319.09 366,-288 379.04,-276.98 393.84,-265.04 406.11,-255.3"/>
<polygon fill="black" stroke="black" points="260.83,-642.2 269.04,-648.89 266.79,-638.54 260.83,-642.2"/>
<polygon fill="black" stroke="black" points="408.49,-257.88 414.16,-248.93 404.14,-252.39 408.49,-257.88"/>
</g>
<!-- set7 -->
<g id="node16" class="node">
<title>set7</title>
<ellipse fill="none" stroke="black" cx="280" cy="-90" rx="30.59" ry="18"/>
<text text-anchor="middle" x="280" y="-86.3" font-family="Times,serif" font-size="14.00">set7</text>
</g>
<!-- set0&#45;&gt;set7 -->
<g id="edge6" class="edge">
<title>set0&#45;&gt;set7</title>
<path fill="none" stroke="black" d="M252.85,-645.33C209.13,-611.15 128,-536.23 128,-451 128,-451 128,-451 128,-233 128,-168.91 201.06,-125.43 245.87,-104.79"/>
<polygon fill="black" stroke="black" points="250.99,-648.32 261.06,-651.61 255.24,-642.76 250.99,-648.32"/>
<polygon fill="black" stroke="black" points="247.53,-107.89 255.24,-100.62 244.68,-101.49 247.53,-107.89"/>
</g>
<!-- set9 -->
<g id="node18" class="node">
<title>set9</title>
<ellipse fill="none" stroke="black" cx="280" cy="-18" rx="30.59" ry="18"/>
<text text-anchor="middle" x="280" y="-14.3" font-family="Times,serif" font-size="14.00">set9</text>
</g>
<!-- set0&#45;&gt;set9 -->
<g id="edge7" class="edge">
<title>set0&#45;&gt;set9</title>
<path fill="none" stroke="black" d="M320.76,-664.85C383.36,-663.2 505.69,-654.25 599,-612 758.93,-539.58 850,-482.56 850,-307 850,-307 850,-307 850,-161 850,-51.89 451.75,-25.97 321.02,-20.4"/>
<polygon fill="black" stroke="black" points="320.44,-661.36 310.52,-665.07 320.59,-668.36 320.44,-661.36"/>
<polygon fill="black" stroke="black" points="320.78,-16.89 310.65,-19.98 320.49,-23.88 320.78,-16.89"/>
</g>
<!-- set1 -->
<g id="node2" class="node">
<title>set1</title>
<ellipse fill="none" stroke="black" cx="951" cy="-738" rx="30.59" ry="18"/>
<text text-anchor="middle" x="951" y="-734.3" font-family="Times,serif" font-size="14.00">set1</text>
</g>
<!-- set10 -->
<g id="node3" class="node">
<title>set10</title>
<ellipse fill="none" stroke="black" cx="1066" cy="-666" rx="36.29" ry="18"/>
<text text-anchor="middle" x="1066" y="-662.3" font-family="Times,serif" font-size="14.00">set10</text>
</g>
<!-- set1&#45;&gt;set10 -->
<g id="edge8" class="edge">
<title>set1&#45;&gt;set10</title>
<path fill="none" stroke="black" d="M980.21,-719.22C996.97,-709.02 1018,-696.22 1035.05,-685.84"/>
<polygon fill="black" stroke="black" points="978.28,-716.3 971.56,-724.49 981.92,-722.28 978.28,-716.3"/>
<polygon fill="black" stroke="black" points="1037.33,-688.55 1044.05,-680.36 1033.69,-682.57 1037.33,-688.55"/>
</g>
<!-- set12 -->
<g id="node5" class="node">
<title>set12</title>
<ellipse fill="none" stroke="black" cx="1066" cy="-594" rx="36.29" ry="18"/>
<text text-anchor="middle" x="1066" y="-590.3" font-family="Times,serif" font-size="14.00">set12</text>
</g>
<!-- set1&#45;&gt;set12 -->
<g id="edge9" class="edge">
<title>set1&#45;&gt;set12</title>
<path fill="none" stroke="black" d="M969.33,-713.2C983.31,-695.17 1003.15,-669.84 1021,-648 1028.84,-638.41 1037.62,-628 1045.33,-618.96"/>
<polygon fill="black" stroke="black" points="966.32,-711.37 962.97,-721.43 971.85,-715.66 966.32,-711.37"/>
<polygon fill="black" stroke="black" points="1048.21,-620.98 1052.05,-611.11 1042.89,-616.42 1048.21,-620.98"/>
</g>
<!-- set15 -->
<g id="node8" class="node">
<title>set15</title>
<ellipse fill="none" stroke="black" cx="1002" cy="-522" rx="36.29" ry="18"/>
<text text-anchor="middle" x="1002" y="-518.3" font-family="Times,serif" font-size="14.00">set15</text>
</g>
<!-- set1&#45;&gt;set15 -->
<g id="edge10" class="edge">
<title>set1&#45;&gt;set15</title>
<path fill="none" stroke="black" d="M957.44,-709.97C967.26,-668.78 985.85,-590.78 995.62,-549.76"/>
<polygon fill="black" stroke="black" points="954,-709.31 955.09,-719.85 960.81,-710.93 954,-709.31"/>
<polygon fill="black" stroke="black" points="999.05,-550.47 997.96,-539.94 992.24,-548.85 999.05,-550.47"/>
</g>
<!-- set16 -->
<g id="node9" class="node">
<title>set16</title>
<ellipse fill="none" stroke="black" cx="888" cy="-450" rx="36.29" ry="18"/>
<text text-anchor="middle" x="888" y="-446.3" font-family="Times,serif" font-size="14.00">set16</text>
</g>
<!-- set1&#45;&gt;set16 -->
<g id="edge11" class="edge">
<title>set1&#45;&gt;set16</title>
<path fill="none" stroke="black" d="M942.19,-710.43C930.1,-672.89 908.55,-601.98 897,-540 893.18,-519.52 890.9,-496.06 889.58,-478.37"/>
<polygon fill="black" stroke="black" points="938.91,-711.67 945.33,-720.09 945.57,-709.5 938.91,-711.67"/>
<polygon fill="black" stroke="black" points="893.06,-477.92 888.89,-468.18 886.08,-478.4 893.06,-477.92"/>
</g>
<!-- set1&#45;&gt;set17 -->
<g id="edge12" class="edge">
<title>set1&#45;&gt;set17</title>
<path fill="none" stroke="black" d="M909.84,-737.11C765.09,-737.08 285.7,-733.23 240,-684 164.08,-602.21 264.15,-459.44 309.63,-402.97"/>
<polygon fill="black" stroke="black" points="910.07,-740.61 920.07,-737.11 910.07,-733.61 910.07,-740.61"/>
<polygon fill="black" stroke="black" points="312.55,-404.93 316.17,-394.98 307.13,-400.5 312.55,-404.93"/>
</g>
<!-- set1&#45;&gt;set2 -->
<g id="edge13" class="edge">
<title>set1&#45;&gt;set2</title>
<path fill="none" stroke="black" d="M919.15,-720.91C879.8,-698.51 818,-653.95 818,-595 818,-595 818,-595 818,-521 818,-475.71 725.24,-374.18 681.87,-329.19"/>
<polygon fill="black" stroke="black" points="917.69,-724.1 928.14,-725.87 921.07,-717.97 917.69,-724.1"/>
<polygon fill="black" stroke="black" points="684.34,-326.71 674.86,-321.97 679.32,-331.59 684.34,-326.71"/>
</g>
<!-- set3 -->
<g id="node12" class="node">
<title>set3</title>
<ellipse fill="none" stroke="black" cx="1066" cy="-378" rx="30.59" ry="18"/>
<text text-anchor="middle" x="1066" y="-374.3" font-family="Times,serif" font-size="14.00">set3</text>
</g>
<!-- set1&#45;&gt;set3 -->
<g id="edge14" class="edge">
<title>set1&#45;&gt;set3</title>
<path fill="none" stroke="black" d="M983.79,-722.72C986.22,-721.77 988.64,-720.85 991,-720 1099.32,-680.87 1218,-710.17 1218,-595 1218,-595 1218,-595 1218,-521 1218,-456.91 1144.94,-413.43 1100.13,-392.79"/>
<polygon fill="black" stroke="black" points="982.46,-719.48 974.52,-726.5 985.1,-725.97 982.46,-719.48"/>
<polygon fill="black" stroke="black" points="1101.32,-389.49 1090.76,-388.62 1098.47,-395.89 1101.32,-389.49"/>
</g>
<!-- set4 -->
<g id="node13" class="node">
<title>set4</title>
<ellipse fill="none" stroke="black" cx="1121" cy="-306" rx="30.59" ry="18"/>
<text text-anchor="middle" x="1121" y="-302.3" font-family="Times,serif" font-size="14.00">set4</text>
</g>
<!-- set1&#45;&gt;set4 -->
<g id="edge15" class="edge">
<title>set1&#45;&gt;set4</title>
<path fill="none" stroke="black" d="M983.69,-722.41C986.14,-721.53 988.59,-720.71 991,-720 1078.84,-693.91 1119.98,-738.01 1194,-684 1252.29,-641.47 1251.55,-610.02 1269,-540 1288.67,-461.08 1293.78,-417.24 1236,-360 1224,-348.11 1184.99,-331.41 1155.7,-319.95"/>
<polygon fill="black" stroke="black" points="982.42,-719.15 974.36,-726.03 984.95,-725.67 982.42,-719.15"/>
<polygon fill="black" stroke="black" points="1156.79,-316.61 1146.2,-316.27 1154.27,-323.14 1156.79,-316.61"/>
</g>
<!-- set1&#45;&gt;set5 -->
<g id="edge16" class="edge">
<title>set1&#45;&gt;set5</title>
<path fill="none" stroke="black" d="M910.19,-735.77C776.05,-731.44 349.67,-715.5 216,-684 114.94,-660.19 0,-698.83 0,-595 0,-595 0,-595 0,-449 0,-275.46 283.4,-242.65 391.12,-236.45"/>
<polygon fill="black" stroke="black" points="910.33,-739.27 920.44,-736.09 910.55,-732.28 910.33,-739.27"/>
<polygon fill="black" stroke="black" points="391.48,-239.93 401.28,-235.91 391.11,-232.94 391.48,-239.93"/>
</g>
<!-- set8 -->
<g id="node17" class="node">
<title>set8</title>
<ellipse fill="none" stroke="black" cx="1121" cy="-234" rx="30.59" ry="18"/>
<text text-anchor="middle" x="1121" y="-230.3" font-family="Times,serif" font-size="14.00">set8</text>
</g>
<!-- set1&#45;&gt;set8 -->
<g id="edge17" class="edge">
<title>set1&#45;&gt;set8</title>
<path fill="none" stroke="black" d="M983.93,-722.25C986.3,-721.42 988.67,-720.66 991,-720 1161.61,-671.5 1370,-772.37 1370,-595 1370,-595 1370,-595 1370,-377 1370,-282.09 1231.81,-249.79 1161.33,-239.48"/>
<polygon fill="black" stroke="black" points="982.42,-719.08 974.34,-725.93 984.93,-725.62 982.42,-719.08"/>
<polygon fill="black" stroke="black" points="1161.42,-235.96 1151.04,-238.06 1160.46,-242.89 1161.42,-235.96"/>
</g>
<!-- set10&#45;&gt;set12 -->
<g id="edge18" class="edge">
<title>set10&#45;&gt;set12</title>
<path fill="none" stroke="black" d="M1066,-637.67C1066,-632.69 1066,-627.49 1066,-622.51"/>
<polygon fill="black" stroke="black" points="1062.5,-637.7 1066,-647.7 1069.5,-637.7 1062.5,-637.7"/>
<polygon fill="black" stroke="black" points="1069.5,-622.1 1066,-612.1 1062.5,-622.1 1069.5,-622.1"/>
</g>
<!-- set10&#45;&gt;set15 -->
<g id="edge19" class="edge">
<title>set10&#45;&gt;set15</title>
<path fill="none" stroke="black" d="M1042.42,-642.29C1034.53,-633.51 1026.38,-622.95 1021,-612 1011.44,-592.56 1006.67,-568.42 1004.3,-550.19"/>
<polygon fill="black" stroke="black" points="1040.1,-644.93 1049.5,-649.81 1045.19,-640.13 1040.1,-644.93"/>
<polygon fill="black" stroke="black" points="1007.78,-549.75 1003.17,-540.21 1000.82,-550.54 1007.78,-549.75"/>
</g>
<!-- set10&#45;&gt;set16 -->
<g id="edge20" class="edge">
<title>set10&#45;&gt;set16</title>
<path fill="none" stroke="black" d="M1035.04,-645.94C1001.98,-624.13 950.15,-585.47 919,-540 906.11,-521.18 898.06,-496.46 893.41,-477.85"/>
<polygon fill="black" stroke="black" points="1033.54,-649.14 1043.84,-651.64 1037.35,-643.27 1033.54,-649.14"/>
<polygon fill="black" stroke="black" points="896.78,-476.9 891.11,-467.96 889.97,-478.49 896.78,-476.9"/>
</g>
<!-- set10&#45;&gt;set3 -->
<g id="edge21" class="edge">
<title>set10&#45;&gt;set3</title>
<path fill="none" stroke="black" d="M1091.24,-642.44C1099.13,-633.8 1106.86,-623.28 1111,-612 1137.67,-539.37 1101,-447.91 1079.56,-404.34"/>
<polygon fill="black" stroke="black" points="1088.52,-640.22 1084.04,-649.83 1093.53,-645.11 1088.52,-640.22"/>
<polygon fill="black" stroke="black" points="1082.63,-402.65 1074.99,-395.3 1076.38,-405.8 1082.63,-402.65"/>
</g>
<!-- set10&#45;&gt;set4 -->
<g id="edge22" class="edge">
<title>set10&#45;&gt;set4</title>
<path fill="none" stroke="black" d="M1107.45,-654.13C1163.35,-636.66 1256,-596.62 1256,-523 1256,-523 1256,-523 1256,-449 1256,-389.51 1193,-345.04 1153.08,-322.82"/>
<polygon fill="black" stroke="black" points="1106.37,-650.8 1097.8,-657.03 1108.39,-657.5 1106.37,-650.8"/>
<polygon fill="black" stroke="black" points="1154.67,-319.7 1144.21,-318.04 1151.35,-325.86 1154.67,-319.7"/>
</g>
<!-- set10&#45;&gt;set8 -->
<g id="edge23" class="edge">
<title>set10&#45;&gt;set8</title>
<path fill="none" stroke="black" d="M1111.87,-660.04C1148.06,-654.03 1197.96,-640.82 1232,-612 1259.46,-588.75 1260.3,-574.91 1269,-540 1297.69,-424.89 1261.85,-374.82 1181,-288 1170.33,-276.54 1157.43,-264.9 1146.33,-255.46"/>
<polygon fill="black" stroke="black" points="1110.93,-656.64 1101.58,-661.62 1111.99,-663.56 1110.93,-656.64"/>
<polygon fill="black" stroke="black" points="1148.54,-252.75 1138.63,-249.01 1144.05,-258.12 1148.54,-252.75"/>
</g>
<!-- set13 -->
<g id="node6" class="node">
<title>set13</title>
<ellipse fill="none" stroke="black" cx="489" cy="-522" rx="36.29" ry="18"/>
<text text-anchor="middle" x="489" y="-518.3" font-family="Times,serif" font-size="14.00">set13</text>
</g>
<!-- set11&#45;&gt;set13 -->
<g id="edge24" class="edge">
<title>set11&#45;&gt;set13</title>
<path fill="none" stroke="black" d="M451.35,-569.23C457.12,-562.15 463.44,-554.39 469.23,-547.28"/>
<polygon fill="black" stroke="black" points="448.53,-567.15 444.93,-577.12 453.96,-571.57 448.53,-567.15"/>
<polygon fill="black" stroke="black" points="472.12,-549.27 475.72,-539.31 466.69,-544.85 472.12,-549.27"/>
</g>
<!-- set11&#45;&gt;set17 -->
<g id="edge25" class="edge">
<title>set11&#45;&gt;set17</title>
<path fill="none" stroke="black" d="M406.02,-571.28C396.73,-562.39 386.87,-551.5 380,-540 354.27,-496.92 340.58,-439.33 334.34,-405.99"/>
<polygon fill="black" stroke="black" points="403.88,-574.07 413.61,-578.25 408.61,-568.91 403.88,-574.07"/>
<polygon fill="black" stroke="black" points="337.77,-405.3 332.57,-396.07 330.88,-406.53 337.77,-405.3"/>
</g>
<!-- set11&#45;&gt;set2 -->
<g id="edge26" class="edge">
<title>set11&#45;&gt;set2</title>
<path fill="none" stroke="black" d="M476.93,-587.33C530.53,-579.58 615.51,-563.86 636,-540 686.25,-481.49 675.22,-381.79 666.12,-334.05"/>
<polygon fill="black" stroke="black" points="476.4,-583.87 466.98,-588.72 477.37,-590.8 476.4,-583.87"/>
<polygon fill="black" stroke="black" points="669.53,-333.25 664.12,-324.15 662.67,-334.64 669.53,-333.25"/>
</g>
<!-- set11&#45;&gt;set5 -->
<g id="edge27" class="edge">
<title>set11&#45;&gt;set5</title>
<path fill="none" stroke="black" d="M432,-565.44C432,-498.62 432,-328.62 432,-262.19"/>
<polygon fill="black" stroke="black" points="428.5,-565.73 432,-575.73 435.5,-565.73 428.5,-565.73"/>
<polygon fill="black" stroke="black" points="435.5,-262.09 432,-252.09 428.5,-262.09 435.5,-262.09"/>
</g>
<!-- set6 -->
<g id="node15" class="node">
<title>set6</title>
<ellipse fill="none" stroke="black" cx="508" cy="-162" rx="30.59" ry="18"/>
<text text-anchor="middle" x="508" y="-158.3" font-family="Times,serif" font-size="14.00">set6</text>
</g>
<!-- set11&#45;&gt;set6 -->
<g id="edge28" class="edge">
<title>set11&#45;&gt;set6</title>
<path fill="none" stroke="black" d="M473.94,-582.56C495.91,-574.73 520.92,-561.54 534,-540 603.5,-425.56 545.67,-253.99 519.35,-189.11"/>
<polygon fill="black" stroke="black" points="472.83,-579.24 464.43,-585.7 475.02,-585.89 472.83,-579.24"/>
<polygon fill="black" stroke="black" points="522.49,-187.53 515.42,-179.64 516.02,-190.21 522.49,-187.53"/>
</g>
<!-- set11&#45;&gt;set7 -->
<g id="edge29" class="edge">
<title>set11&#45;&gt;set7</title>
<path fill="none" stroke="black" d="M394.59,-578.33C329.9,-550.23 204,-482.27 204,-379 204,-379 204,-379 204,-233 204,-186.37 236.25,-140.24 258.73,-113.74"/>
<polygon fill="black" stroke="black" points="393.47,-581.66 404.04,-582.35 396.2,-575.22 393.47,-581.66"/>
<polygon fill="black" stroke="black" points="261.4,-116 265.35,-106.17 256.13,-111.4 261.4,-116"/>
</g>
<!-- goal -->
<g id="node20" class="node">
<title>goal</title>
<ellipse fill="none" stroke="black" cx="622" cy="-90" rx="30.59" ry="18"/>
<text text-anchor="middle" x="622" y="-86.3" font-family="Times,serif" font-size="14.00">goal</text>
</g>
<!-- set11&#45;&gt;goal -->
<g id="edge30" class="edge">
<title>set11&#45;&gt;goal</title>
<path fill="none" stroke="black" d="M476.82,-586.63C534.51,-577.76 630.79,-560.44 660,-540 710.65,-504.56 812,-368.82 812,-307 812,-307 812,-307 812,-233 812,-157.6 714.8,-117.41 659.44,-100.64"/>
<polygon fill="black" stroke="black" points="476.24,-583.18 466.87,-588.14 477.28,-590.1 476.24,-583.18"/>
<polygon fill="black" stroke="black" points="660.21,-97.22 649.63,-97.78 658.25,-103.94 660.21,-97.22"/>
</g>
<!-- set12&#45;&gt;set15 -->
<g id="edge31" class="edge">
<title>set12&#45;&gt;set15</title>
<path fill="none" stroke="black" d="M1044.71,-569.71C1037.9,-562.26 1030.35,-554.01 1023.53,-546.54"/>
<polygon fill="black" stroke="black" points="1042.15,-572.1 1051.48,-577.12 1047.31,-567.37 1042.15,-572.1"/>
<polygon fill="black" stroke="black" points="1025.8,-543.84 1016.47,-538.82 1020.63,-548.56 1025.8,-543.84"/>
</g>
<!-- set12&#45;&gt;set16 -->
<g id="edge32" class="edge">
<title>set12&#45;&gt;set16</title>
<path fill="none" stroke="black" d="M1027.21,-579.24C1005.18,-570.24 977.92,-556.98 957,-540 934.86,-522.02 915.54,-495.63 903.02,-476.25"/>
<polygon fill="black" stroke="black" points="1026.02,-582.54 1036.61,-582.96 1028.59,-576.03 1026.02,-582.54"/>
<polygon fill="black" stroke="black" points="905.89,-474.24 897.6,-467.63 899.96,-477.96 905.89,-474.24"/>
</g>
<!-- set12&#45;&gt;set3 -->
<g id="edge33" class="edge">
<title>set12&#45;&gt;set3</title>
<path fill="none" stroke="black" d="M1066,-565.71C1066,-524.65 1066,-447.42 1066,-406.33"/>
<polygon fill="black" stroke="black" points="1062.5,-565.85 1066,-575.85 1069.5,-565.85 1062.5,-565.85"/>
<polygon fill="black" stroke="black" points="1069.5,-406.23 1066,-396.23 1062.5,-406.23 1069.5,-406.23"/>
</g>
<!-- set12&#45;&gt;set4 -->
<g id="edge34" class="edge">
<title>set12&#45;&gt;set4</title>
<path fill="none" stroke="black" d="M1073.58,-565.98C1075.79,-557.68 1078.11,-548.49 1080,-540 1096.41,-466.07 1110.45,-377.77 1117.02,-334.15"/>
<polygon fill="black" stroke="black" points="1070.13,-565.33 1070.89,-575.9 1076.89,-567.17 1070.13,-565.33"/>
<polygon fill="black" stroke="black" points="1120.51,-334.47 1118.53,-324.06 1113.59,-333.43 1120.51,-334.47"/>
</g>
<!-- set12&#45;&gt;set8 -->
<g id="edge35" class="edge">
<title>set12&#45;&gt;set8</title>
<path fill="none" stroke="black" d="M1096.61,-573.42C1130.37,-549.15 1180,-504.4 1180,-451 1180,-451 1180,-451 1180,-377 1180,-336.55 1177.8,-324.79 1161,-288 1156.14,-277.35 1148.84,-266.81 1141.8,-257.97"/>
<polygon fill="black" stroke="black" points="1094.19,-570.84 1087.98,-579.43 1098.19,-576.58 1094.19,-570.84"/>
<polygon fill="black" stroke="black" points="1144.31,-255.51 1135.22,-250.06 1138.93,-259.99 1144.31,-255.51"/>
</g>
<!-- set13&#45;&gt;set16 -->
<g id="edge36" class="edge">
<title>set13&#45;&gt;set16</title>
<path fill="none" stroke="black" d="M532.94,-513.29C609.68,-499.83 767.22,-472.19 843.99,-458.72"/>
<polygon fill="black" stroke="black" points="531.92,-509.92 522.67,-515.09 533.13,-516.81 531.92,-509.92"/>
<polygon fill="black" stroke="black" points="845.03,-462.09 854.27,-456.92 843.82,-455.2 845.03,-462.09"/>
</g>
<!-- set13&#45;&gt;set17 -->
<g id="edge37" class="edge">
<title>set13&#45;&gt;set17</title>
<path fill="none" stroke="black" d="M460.2,-501.01C446.98,-491.46 431.33,-479.6 418,-468 393.9,-447.03 368.47,-420.8 351.17,-402.26"/>
<polygon fill="black" stroke="black" points="458.31,-503.96 468.48,-506.92 462.38,-498.26 458.31,-503.96"/>
<polygon fill="black" stroke="black" points="353.65,-399.78 344.28,-394.82 348.51,-404.54 353.65,-399.78"/>
</g>
<!-- set13&#45;&gt;set2 -->
<g id="edge38" class="edge">
<title>set13&#45;&gt;set2</title>
<path fill="none" stroke="black" d="M519.64,-501.9C532.98,-492.67 548.22,-480.83 560,-468 598.68,-425.86 630.94,-366.71 647.66,-333.08"/>
<polygon fill="black" stroke="black" points="517.55,-499.09 511.2,-507.57 521.45,-504.9 517.55,-499.09"/>
<polygon fill="black" stroke="black" points="650.9,-334.43 652.15,-323.91 644.61,-331.36 650.9,-334.43"/>
</g>
<!-- set13&#45;&gt;set5 -->
<g id="edge39" class="edge">
<title>set13&#45;&gt;set5</title>
<path fill="none" stroke="black" d="M484.68,-493.87C477.58,-450.27 462.58,-362.01 446,-288 444.1,-279.51 441.77,-270.33 439.56,-262.03"/>
<polygon fill="black" stroke="black" points="481.26,-494.64 486.31,-503.95 488.17,-493.52 481.26,-494.64"/>
<polygon fill="black" stroke="black" points="442.87,-260.84 436.87,-252.11 436.11,-262.67 442.87,-260.84"/>
</g>
<!-- set13&#45;&gt;set6 -->
<g id="edge40" class="edge">
<title>set13&#45;&gt;set6</title>
<path fill="none" stroke="black" d="M494.78,-494.06C500.37,-465.61 508,-419.36 508,-379 508,-379 508,-379 508,-305 508,-265 508,-218.65 508,-190.08"/>
<polygon fill="black" stroke="black" points="491.31,-493.55 492.75,-504.05 498.17,-494.94 491.31,-493.55"/>
<polygon fill="black" stroke="black" points="511.5,-190.05 508,-180.05 504.5,-190.05 511.5,-190.05"/>
</g>
<!-- set13&#45;&gt;set7 -->
<g id="edge41" class="edge">
<title>set13&#45;&gt;set7</title>
<path fill="none" stroke="black" d="M476.39,-495.06C439.18,-418.5 330.12,-194.12 292.74,-117.22"/>
<polygon fill="black" stroke="black" points="473.42,-496.94 480.94,-504.41 479.71,-493.88 473.42,-496.94"/>
<polygon fill="black" stroke="black" points="295.67,-115.24 288.15,-107.78 289.38,-118.3 295.67,-115.24"/>
</g>
<!-- set13&#45;&gt;goal -->
<g id="edge42" class="edge">
<title>set13&#45;&gt;goal</title>
<path fill="none" stroke="black" d="M503.44,-495.17C507.84,-486.68 512.45,-477.08 516,-468 565.84,-340.5 602.85,-180.34 616.38,-117.77"/>
<polygon fill="black" stroke="black" points="500.24,-493.74 498.63,-504.21 506.42,-497.03 500.24,-493.74"/>
<polygon fill="black" stroke="black" points="619.82,-118.43 618.5,-107.92 612.98,-116.97 619.82,-118.43"/>
</g>
<!-- set14&#45;&gt;set9 -->
<g id="edge43" class="edge">
<title>set14&#45;&gt;set9</title>
<path fill="none" stroke="black" d="M56.1,-422.19C48.45,-393.83 38,-347.67 38,-307 38,-307 38,-307 38,-161 38,-68.33 171.63,-34.97 240.29,-23.95"/>
<polygon fill="black" stroke="black" points="52.81,-423.44 58.86,-432.13 59.55,-421.56 52.81,-423.44"/>
<polygon fill="black" stroke="black" points="240.97,-27.39 250.33,-22.43 239.91,-20.47 240.97,-27.39"/>
</g>
<!-- set15&#45;&gt;set16 -->
<g id="edge44" class="edge">
<title>set15&#45;&gt;set16</title>
<path fill="none" stroke="black" d="M971.25,-502.12C954.9,-492.08 934.87,-479.78 918.55,-469.76"/>
<polygon fill="black" stroke="black" points="969.67,-505.25 980.02,-507.5 973.33,-499.29 969.67,-505.25"/>
<polygon fill="black" stroke="black" points="920.27,-466.71 909.91,-464.46 916.6,-472.67 920.27,-466.71"/>
</g>
<!-- set15&#45;&gt;set3 -->
<g id="edge45" class="edge">
<title>set15&#45;&gt;set3</title>
<path fill="none" stroke="black" d="M1013.86,-494.69C1025.36,-469.18 1042.7,-430.7 1054.18,-405.22"/>
<polygon fill="black" stroke="black" points="1010.51,-493.6 1009.59,-504.15 1016.89,-496.47 1010.51,-493.6"/>
<polygon fill="black" stroke="black" points="1057.5,-406.38 1058.42,-395.82 1051.12,-403.5 1057.5,-406.38"/>
</g>
<!-- set15&#45;&gt;set4 -->
<g id="edge46" class="edge">
<title>set15&#45;&gt;set4</title>
<path fill="none" stroke="black" d="M999.14,-493.49C997.02,-459.15 998.3,-400.06 1026,-360 1039.91,-339.88 1064.05,-326.56 1084.52,-318.3"/>
<polygon fill="black" stroke="black" points="995.67,-494.01 999.92,-503.72 1002.65,-493.48 995.67,-494.01"/>
<polygon fill="black" stroke="black" points="1085.8,-321.56 1093.91,-314.75 1083.32,-315.01 1085.8,-321.56"/>
</g>
<!-- set15&#45;&gt;set8 -->
<g id="edge47" class="edge">
<title>set15&#45;&gt;set8</title>
<path fill="none" stroke="black" d="M996.27,-494.19C990.54,-461.03 985.14,-403.62 1005,-360 1025.01,-316.05 1066.62,-277.35 1094.18,-255.06"/>
<polygon fill="black" stroke="black" points="992.83,-494.87 998.11,-504.05 999.71,-493.58 992.83,-494.87"/>
<polygon fill="black" stroke="black" points="1096.57,-257.64 1102.24,-248.69 1092.22,-252.15 1096.57,-257.64"/>
</g>
<!-- set16&#45;&gt;set17 -->
<g id="edge48" class="edge">
<title>set16&#45;&gt;set17</title>
<path fill="none" stroke="black" d="M843.16,-443.38C738.67,-430.27 479.91,-397.81 375.13,-384.66"/>
<polygon fill="black" stroke="black" points="842.74,-446.85 853.09,-444.62 843.61,-439.9 842.74,-446.85"/>
<polygon fill="black" stroke="black" points="375.25,-381.15 364.89,-383.38 374.38,-388.09 375.25,-381.15"/>
</g>
<!-- set16&#45;&gt;set2 -->
<g id="edge49" class="edge">
<title>set16&#45;&gt;set2</title>
<path fill="none" stroke="black" d="M858.67,-429.59C830.88,-411.32 787.88,-383.36 750,-360 730.15,-347.76 707.54,-334.45 689.94,-324.22"/>
<polygon fill="black" stroke="black" points="856.85,-432.59 867.13,-435.16 860.7,-426.74 856.85,-432.59"/>
<polygon fill="black" stroke="black" points="691.65,-321.17 681.24,-319.18 688.14,-327.22 691.65,-321.17"/>
</g>
<!-- set16&#45;&gt;set3 -->
<g id="edge50" class="edge">
<title>set16&#45;&gt;set3</title>
<path fill="none" stroke="black" d="M925.18,-434.38C956.62,-422.01 1001.31,-404.44 1031.86,-392.42"/>
<polygon fill="black" stroke="black" points="923.84,-431.15 915.81,-438.06 926.4,-437.66 923.84,-431.15"/>
<polygon fill="black" stroke="black" points="1033.22,-395.65 1041.25,-388.73 1030.66,-389.14 1033.22,-395.65"/>
</g>
<!-- set16&#45;&gt;set5 -->
<g id="edge51" class="edge">
<title>set16&#45;&gt;set5</title>
<path fill="none" stroke="black" d="M868.33,-425.36C836.85,-389.28 771.37,-321.17 700,-288 624.59,-252.96 526.78,-241.06 472.62,-237.03"/>
<polygon fill="black" stroke="black" points="865.7,-427.68 874.88,-432.97 871.01,-423.11 865.7,-427.68"/>
<polygon fill="black" stroke="black" points="472.6,-233.52 462.38,-236.33 472.12,-240.51 472.6,-233.52"/>
</g>
<!-- set16&#45;&gt;set8 -->
<g id="edge52" class="edge">
<title>set16&#45;&gt;set8</title>
<path fill="none" stroke="black" d="M895.27,-422.11C906.77,-381.37 929.92,-306.77 950,-288 985.69,-254.62 1042.04,-242.25 1080.21,-237.68"/>
<polygon fill="black" stroke="black" points="891.85,-421.34 892.54,-431.92 898.59,-423.22 891.85,-421.34"/>
<polygon fill="black" stroke="black" points="1080.89,-241.12 1090.46,-236.58 1080.15,-234.16 1080.89,-241.12"/>
</g>
<!-- set17&#45;&gt;set2 -->
<g id="edge53" class="edge">
<title>set17&#45;&gt;set2</title>
<path fill="none" stroke="black" d="M372.87,-367.91C437.6,-354.18 559.29,-328.36 621.4,-315.19"/>
<polygon fill="black" stroke="black" points="371.9,-364.53 362.85,-370.03 373.36,-371.38 371.9,-364.53"/>
<polygon fill="black" stroke="black" points="622.5,-318.53 631.56,-313.03 621.05,-311.68 622.5,-318.53"/>
</g>
<!-- set17&#45;&gt;set5 -->
<g id="edge54" class="edge">
<title>set17&#45;&gt;set5</title>
<path fill="none" stroke="black" d="M348.61,-352.75C355.41,-343.77 363.13,-333.48 370,-324 385.63,-302.45 402.9,-277.56 415.24,-259.59"/>
<polygon fill="black" stroke="black" points="345.69,-350.81 342.42,-360.88 351.26,-355.05 345.69,-350.81"/>
<polygon fill="black" stroke="black" points="418.44,-261.11 421.2,-250.88 412.67,-257.16 418.44,-261.11"/>
</g>
<!-- set17&#45;&gt;set6 -->
<g id="edge55" class="edge">
<title>set17&#45;&gt;set6</title>
<path fill="none" stroke="black" d="M334.02,-349.71C340.48,-314.7 356.29,-253.96 392,-216 413.03,-193.65 445.29,-179.96 470.46,-172.11"/>
<polygon fill="black" stroke="black" points="330.54,-349.25 332.3,-359.7 337.44,-350.44 330.54,-349.25"/>
<polygon fill="black" stroke="black" points="471.45,-175.47 480.06,-169.29 469.48,-168.75 471.45,-175.47"/>
</g>
<!-- set17&#45;&gt;set7 -->
<g id="edge56" class="edge">
<title>set17&#45;&gt;set7</title>
<path fill="none" stroke="black" d="M297.5,-358.69C285.26,-349.92 272.68,-338.21 266,-324 233.68,-255.28 256.18,-162.31 270.56,-117.42"/>
<polygon fill="black" stroke="black" points="295.6,-361.62 305.85,-364.28 299.49,-355.81 295.6,-361.62"/>
<polygon fill="black" stroke="black" points="273.91,-118.43 273.74,-107.84 267.27,-116.23 273.91,-118.43"/>
</g>
<!-- set2&#45;&gt;set5 -->
<g id="edge57" class="edge">
<title>set2&#45;&gt;set5</title>
<path fill="none" stroke="black" d="M623.81,-293.89C581.16,-280.8 510.73,-259.17 468.12,-246.09"/>
<polygon fill="black" stroke="black" points="622.81,-297.24 633.4,-296.83 624.87,-290.55 622.81,-297.24"/>
<polygon fill="black" stroke="black" points="469.02,-242.7 458.43,-243.11 466.96,-249.4 469.02,-242.7"/>
</g>
<!-- set2&#45;&gt;set6 -->
<g id="edge58" class="edge">
<title>set2&#45;&gt;set6</title>
<path fill="none" stroke="black" d="M636.91,-283.43C608.36,-256.76 560.05,-211.62 531.37,-184.83"/>
<polygon fill="black" stroke="black" points="634.61,-286.07 644.31,-290.34 639.39,-280.95 634.61,-286.07"/>
<polygon fill="black" stroke="black" points="533.53,-182.06 523.84,-177.79 528.75,-187.18 533.53,-182.06"/>
</g>
<!-- set2&#45;&gt;set7 -->
<g id="edge59" class="edge">
<title>set2&#45;&gt;set7</title>
<path fill="none" stroke="black" d="M649.46,-278.94C633.33,-242.56 598.92,-177.3 548,-144 510.96,-119.78 385.51,-102.71 320.23,-95.23"/>
<polygon fill="black" stroke="black" points="646.36,-280.58 653.53,-288.38 652.79,-277.81 646.36,-280.58"/>
<polygon fill="black" stroke="black" points="320.24,-91.71 309.91,-94.07 319.46,-98.67 320.24,-91.71"/>
</g>
<!-- set3&#45;&gt;set4 -->
<g id="edge60" class="edge">
<title>set3&#45;&gt;set4</title>
<path fill="none" stroke="black" d="M1084.5,-353.46C1090.16,-346.25 1096.39,-338.32 1102.08,-331.07"/>
<polygon fill="black" stroke="black" points="1081.63,-351.44 1078.21,-361.46 1087.14,-355.76 1081.63,-351.44"/>
<polygon fill="black" stroke="black" points="1105.02,-333 1108.45,-322.98 1099.52,-328.68 1105.02,-333"/>
</g>
<!-- set3&#45;&gt;set8 -->
<g id="edge61" class="edge">
<title>set3&#45;&gt;set8</title>
<path fill="none" stroke="black" d="M1067.22,-349.75C1068.84,-331.63 1072.54,-307.64 1081,-288 1085.63,-277.25 1092.88,-266.69 1099.95,-257.86"/>
<polygon fill="black" stroke="black" points="1063.72,-349.69 1066.48,-359.92 1070.7,-350.2 1063.72,-349.69"/>
<polygon fill="black" stroke="black" points="1102.82,-259.88 1106.57,-249.97 1097.46,-255.38 1102.82,-259.88"/>
</g>
<!-- set4&#45;&gt;set8 -->
<g id="edge62" class="edge">
<title>set4&#45;&gt;set8</title>
<path fill="none" stroke="black" d="M1121,-277.67C1121,-272.69 1121,-267.49 1121,-262.51"/>
<polygon fill="black" stroke="black" points="1117.5,-277.7 1121,-287.7 1124.5,-277.7 1117.5,-277.7"/>
<polygon fill="black" stroke="black" points="1124.5,-262.1 1121,-252.1 1117.5,-262.1 1124.5,-262.1"/>
</g>
<!-- set5&#45;&gt;set6 -->
<g id="edge63" class="edge">
<title>set5&#45;&gt;set6</title>
<path fill="none" stroke="black" d="M455.24,-211.6C464.62,-202.96 475.42,-193.01 484.79,-184.37"/>
<polygon fill="black" stroke="black" points="452.73,-209.15 447.75,-218.5 457.47,-214.3 452.73,-209.15"/>
<polygon fill="black" stroke="black" points="487.29,-186.83 492.27,-177.49 482.55,-181.69 487.29,-186.83"/>
</g>
<!-- set5&#45;&gt;set7 -->
<g id="edge64" class="edge">
<title>set5&#45;&gt;set7</title>
<path fill="none" stroke="black" d="M408.91,-211.43C380.36,-184.76 332.05,-139.62 303.37,-112.83"/>
<polygon fill="black" stroke="black" points="406.61,-214.07 416.31,-218.34 411.39,-208.95 406.61,-214.07"/>
<polygon fill="black" stroke="black" points="305.53,-110.06 295.84,-105.79 300.75,-115.18 305.53,-110.06"/>
</g>
<!-- set6&#45;&gt;set7 -->
<g id="edge65" class="edge">
<title>set6&#45;&gt;set7</title>
<path fill="none" stroke="black" d="M471.81,-149.89C429.16,-136.8 358.73,-115.17 316.12,-102.09"/>
<polygon fill="black" stroke="black" points="470.81,-153.24 481.4,-152.83 472.87,-146.55 470.81,-153.24"/>
<polygon fill="black" stroke="black" points="317.02,-98.7 306.43,-99.11 314.96,-105.4 317.02,-98.7"/>
</g>
<!-- set6&#45;&gt;goal -->
<g id="edge66" class="edge">
<title>set6&#45;&gt;goal</title>
<path fill="none" stroke="black" d="M537.13,-143.11C554.09,-132.7 575.42,-119.6 592.45,-109.15"/>
<polygon fill="black" stroke="black" points="535.07,-140.27 528.38,-148.49 538.73,-146.24 535.07,-140.27"/>
<polygon fill="black" stroke="black" points="594.72,-111.86 601.41,-103.64 591.06,-105.89 594.72,-111.86"/>
</g>
<!-- set7&#45;&gt;set9 -->
<g id="edge67" class="edge">
<title>set7&#45;&gt;set9</title>
<path fill="none" stroke="black" d="M280,-61.67C280,-56.69 280,-51.49 280,-46.51"/>
<polygon fill="black" stroke="black" points="276.5,-61.7 280,-71.7 283.5,-61.7 276.5,-61.7"/>
<polygon fill="black" stroke="black" points="283.5,-46.1 280,-36.1 276.5,-46.1 283.5,-46.1"/>
</g>
<!-- start -->
<g id="node19" class="node">
<title>start</title>
<ellipse fill="none" stroke="black" cx="1033" cy="-738" rx="33.29" ry="18"/>
<text text-anchor="middle" x="1033" y="-734.3" font-family="Times,serif" font-size="14.00">start</text>
</g>
</g>
</svg>
