<?xml version="1.0" encoding="UTF-8" standalone="no"?>
<!DOCTYPE svg PUBLIC "-//W3C//DTD SVG 1.1//EN"
 "http://www.w3.org/Graphics/SVG/1.1/DTD/svg11.dtd">
<!-- Generated by graphviz version 2.43.0 (0)
 -->
<!-- Title: IRIS region connectivity Pages: 1 -->
<svg width="1291pt" height="764pt"
 viewBox="0.00 0.00 1291.28 764.00" xmlns="http://www.w3.org/2000/svg" xmlns:xlink="http://www.w3.org/1999/xlink">
<g id="graph0" class="graph" transform="scale(1 1) rotate(0) translate(4 760)">
<title>IRIS region connectivity</title>
<polygon fill="white" stroke="transparent" points="-4,4 -4,-760 1287.28,-760 1287.28,4 -4,4"/>
<!-- set0 -->
<g id="node1" class="node">
<title>set0</title>
<ellipse fill="none" stroke="black" cx="376.28" cy="-666" rx="30.59" ry="18"/>
<text text-anchor="middle" x="376.28" y="-662.3" font-family="Times,serif" font-size="14.00">set0</text>
</g>
<!-- set11 -->
<g id="node4" class="node">
<title>set11</title>
<ellipse fill="none" stroke="black" cx="376.28" cy="-594" rx="36.29" ry="18"/>
<text text-anchor="middle" x="376.28" y="-590.3" font-family="Times,serif" font-size="14.00">set11</text>
</g>
<!-- set0&#45;&gt;set11 -->
<g id="edge1" class="edge">
<title>set0&#45;&gt;set11</title>
<path fill="none" stroke="black" d="M376.28,-637.67C376.28,-632.69 376.28,-627.49 376.28,-622.51"/>
<polygon fill="black" stroke="black" points="372.78,-637.7 376.28,-647.7 379.78,-637.7 372.78,-637.7"/>
<polygon fill="black" stroke="black" points="379.78,-622.1 376.28,-612.1 372.78,-622.1 379.78,-622.1"/>
</g>
<!-- set14 -->
<g id="node7" class="node">
<title>set14</title>
<ellipse fill="none" stroke="black" cx="65.28" cy="-450" rx="36.29" ry="18"/>
<text text-anchor="middle" x="65.28" y="-446.3" font-family="Times,serif" font-size="14.00">set14</text>
</g>
<!-- set0&#45;&gt;set14 -->
<g id="edge2" class="edge">
<title>set0&#45;&gt;set14</title>
<path fill="none" stroke="black" d="M335.52,-664.96C287.33,-662.9 206.92,-652.94 153.28,-612 108.46,-577.79 83.55,-513.9 72.44,-477.74"/>
<polygon fill="black" stroke="black" points="335.48,-668.46 345.59,-665.29 335.71,-661.46 335.48,-668.46"/>
<polygon fill="black" stroke="black" points="75.73,-476.51 69.55,-467.9 69.01,-478.48 75.73,-476.51"/>
</g>
<!-- set17 -->
<g id="node10" class="node">
<title>set17</title>
<ellipse fill="none" stroke="black" cx="239.28" cy="-378" rx="36.29" ry="18"/>
<text text-anchor="middle" x="239.28" y="-374.3" font-family="Times,serif" font-size="14.00">set17</text>
</g>
<!-- set0&#45;&gt;set17 -->
<g id="edge3" class="edge">
<title>set0&#45;&gt;set17</title>
<path fill="none" stroke="black" d="M347.79,-646C317.48,-624.18 270.64,-585.47 246.28,-540 223.63,-497.72 228.18,-439.86 233.66,-406.25"/>
<polygon fill="black" stroke="black" points="346.05,-649.06 356.24,-651.96 350.08,-643.34 346.05,-649.06"/>
<polygon fill="black" stroke="black" points="237.13,-406.7 235.43,-396.24 230.24,-405.48 237.13,-406.7"/>
</g>
<!-- set2 -->
<g id="node11" class="node">
<title>set2</title>
<ellipse fill="none" stroke="black" cx="623.28" cy="-306" rx="30.59" ry="18"/>
<text text-anchor="middle" x="623.28" y="-302.3" font-family="Times,serif" font-size="14.00">set2</text>
</g>
<!-- set0&#45;&gt;set2 -->
<g id="edge4" class="edge">
<title>set0&#45;&gt;set2</title>
<path fill="none" stroke="black" d="M416.83,-663.04C495.52,-656.83 661.28,-630.93 661.28,-523 661.28,-523 661.28,-523 661.28,-449 661.28,-407.41 645.88,-361.22 634.69,-333.14"/>
<polygon fill="black" stroke="black" points="416.51,-659.55 406.78,-663.76 417.01,-666.54 416.51,-659.55"/>
<polygon fill="black" stroke="black" points="637.83,-331.58 630.79,-323.66 631.35,-334.24 637.83,-331.58"/>
</g>
<!-- set5 -->
<g id="node14" class="node">
<title>set5</title>
<ellipse fill="none" stroke="black" cx="450.28" cy="-234" rx="30.59" ry="18"/>
<text text-anchor="middle" x="450.28" y="-230.3" font-family="Times,serif" font-size="14.00">set5</text>
</g>
<!-- set0&#45;&gt;set5 -->
<g id="edge5" class="edge">
<title>set0&#45;&gt;set5</title>
<path fill="none" stroke="black" d="M408.09,-648.95C443.75,-628.95 499.67,-591.08 523.28,-540 568.64,-441.89 499.76,-312.54 466.53,-259.39"/>
<polygon fill="black" stroke="black" points="406.15,-646.02 399.05,-653.88 409.5,-652.16 406.15,-646.02"/>
<polygon fill="black" stroke="black" points="469.48,-257.5 461.15,-250.95 463.58,-261.27 469.48,-257.5"/>
</g>
<!-- set7 -->
<g id="node16" class="node">
<title>set7</title>
<ellipse fill="none" stroke="black" cx="494.28" cy="-90" rx="30.59" ry="18"/>
<text text-anchor="middle" x="494.28" y="-86.3" font-family="Times,serif" font-size="14.00">set7</text>
</g>
<!-- set0&#45;&gt;set7 -->
<g id="edge6" class="edge">
<title>set0&#45;&gt;set7</title>
<path fill="none" stroke="black" d="M416.67,-660.87C480.86,-653.66 602.45,-637.08 637.28,-612 653.16,-600.57 813.28,-326.56 813.28,-307 813.28,-307 813.28,-307 813.28,-233 813.28,-112.54 621.08,-93.53 535.06,-91.05"/>
<polygon fill="black" stroke="black" points="416.07,-657.42 406.51,-661.99 416.84,-664.38 416.07,-657.42"/>
<polygon fill="black" stroke="black" points="534.95,-87.55 524.87,-90.82 534.79,-94.55 534.95,-87.55"/>
</g>
<!-- set9 -->
<g id="node18" class="node">
<title>set9</title>
<ellipse fill="none" stroke="black" cx="113.28" cy="-18" rx="30.59" ry="18"/>
<text text-anchor="middle" x="113.28" y="-14.3" font-family="Times,serif" font-size="14.00">set9</text>
</g>
<!-- set0&#45;&gt;set9 -->
<g id="edge7" class="edge">
<title>set0&#45;&gt;set9</title>
<path fill="none" stroke="black" d="M340.24,-653.53C317.72,-644.93 289.3,-631.3 269.28,-612 190.5,-536.05 113.28,-383.63 113.28,-235 113.28,-235 113.28,-235 113.28,-161 113.28,-121 113.28,-74.65 113.28,-46.08"/>
<polygon fill="black" stroke="black" points="339.21,-656.88 349.81,-657.02 341.61,-650.3 339.21,-656.88"/>
<polygon fill="black" stroke="black" points="116.78,-46.05 113.28,-36.05 109.78,-46.05 116.78,-46.05"/>
</g>
<!-- set1 -->
<g id="node2" class="node">
<title>set1</title>
<ellipse fill="none" stroke="black" cx="870.28" cy="-738" rx="30.59" ry="18"/>
<text text-anchor="middle" x="870.28" y="-734.3" font-family="Times,serif" font-size="14.00">set1</text>
</g>
<!-- set10 -->
<g id="node3" class="node">
<title>set10</title>
<ellipse fill="none" stroke="black" cx="991.28" cy="-666" rx="36.29" ry="18"/>
<text text-anchor="middle" x="991.28" y="-662.3" font-family="Times,serif" font-size="14.00">set10</text>
</g>
<!-- set1&#45;&gt;set10 -->
<g id="edge8" class="edge">
<title>set1&#45;&gt;set10</title>
<path fill="none" stroke="black" d="M900.23,-719.68C918.25,-709.25 941.19,-695.98 959.53,-685.37"/>
<polygon fill="black" stroke="black" points="898.26,-716.77 891.36,-724.81 901.77,-722.83 898.26,-716.77"/>
<polygon fill="black" stroke="black" points="961.49,-688.28 968.39,-680.24 957.98,-682.22 961.49,-688.28"/>
</g>
<!-- set12 -->
<g id="node5" class="node">
<title>set12</title>
<ellipse fill="none" stroke="black" cx="1055.28" cy="-594" rx="36.29" ry="18"/>
<text text-anchor="middle" x="1055.28" y="-590.3" font-family="Times,serif" font-size="14.00">set12</text>
</g>
<!-- set1&#45;&gt;set12 -->
<g id="edge9" class="edge">
<title>set1&#45;&gt;set12</title>
<path fill="none" stroke="black" d="M903.06,-722.69C905.49,-721.74 907.92,-720.84 910.28,-720 965.19,-700.57 996.52,-726.56 1036.28,-684 1051.66,-667.54 1055.8,-641.8 1056.46,-622.23"/>
<polygon fill="black" stroke="black" points="901.74,-719.45 893.78,-726.44 904.36,-725.94 901.74,-719.45"/>
<polygon fill="black" stroke="black" points="1059.96,-622.11 1056.51,-612.09 1052.96,-622.07 1059.96,-622.11"/>
</g>
<!-- set15 -->
<g id="node8" class="node">
<title>set15</title>
<ellipse fill="none" stroke="black" cx="991.28" cy="-522" rx="36.29" ry="18"/>
<text text-anchor="middle" x="991.28" y="-518.3" font-family="Times,serif" font-size="14.00">set15</text>
</g>
<!-- set1&#45;&gt;set15 -->
<g id="edge10" class="edge">
<title>set1&#45;&gt;set15</title>
<path fill="none" stroke="black" d="M884.5,-711.85C907.75,-670.74 953.62,-589.62 976.94,-548.37"/>
<polygon fill="black" stroke="black" points="881.45,-710.14 879.58,-720.56 887.55,-713.58 881.45,-710.14"/>
<polygon fill="black" stroke="black" points="980.08,-549.92 981.96,-539.49 973.99,-546.48 980.08,-549.92"/>
</g>
<!-- set16 -->
<g id="node9" class="node">
<title>set16</title>
<ellipse fill="none" stroke="black" cx="801.28" cy="-450" rx="36.29" ry="18"/>
<text text-anchor="middle" x="801.28" y="-446.3" font-family="Times,serif" font-size="14.00">set16</text>
</g>
<!-- set1&#45;&gt;set16 -->
<g id="edge11" class="edge">
<title>set1&#45;&gt;set16</title>
<path fill="none" stroke="black" d="M837.57,-721.45C823.03,-712.67 807.39,-700.17 799.28,-684 765.37,-616.37 782.07,-523.21 793.54,-477.91"/>
<polygon fill="black" stroke="black" points="835.98,-724.57 846.41,-726.45 839.42,-718.48 835.98,-724.57"/>
<polygon fill="black" stroke="black" points="796.99,-478.54 796.16,-467.98 790.22,-476.75 796.99,-478.54"/>
</g>
<!-- set1&#45;&gt;set17 -->
<g id="edge12" class="edge">
<title>set1&#45;&gt;set17</title>
<path fill="none" stroke="black" d="M829.61,-736.76C739.47,-735.41 516.61,-727.53 336.28,-684 238.94,-660.5 129.28,-695.14 129.28,-595 129.28,-595 129.28,-595 129.28,-521 129.28,-468.33 177.17,-423.34 209.75,-398.83"/>
<polygon fill="black" stroke="black" points="829.64,-740.26 839.68,-736.89 829.73,-733.26 829.64,-740.26"/>
<polygon fill="black" stroke="black" points="212.06,-401.48 218.07,-392.76 207.93,-395.83 212.06,-401.48"/>
</g>
<!-- set1&#45;&gt;set2 -->
<g id="edge13" class="edge">
<title>set1&#45;&gt;set2</title>
<path fill="none" stroke="black" d="M836.66,-722.75C818.48,-713.74 796.67,-700.64 781.28,-684 751.32,-651.61 737.28,-639.13 737.28,-595 737.28,-595 737.28,-595 737.28,-521 737.28,-443.51 678.34,-366.81 645.22,-329.83"/>
<polygon fill="black" stroke="black" points="835.24,-725.96 845.78,-727.09 838.25,-719.64 835.24,-725.96"/>
<polygon fill="black" stroke="black" points="647.52,-327.16 638.19,-322.14 642.35,-331.88 647.52,-327.16"/>
</g>
<!-- set3 -->
<g id="node12" class="node">
<title>set3</title>
<ellipse fill="none" stroke="black" cx="920.28" cy="-378" rx="30.59" ry="18"/>
<text text-anchor="middle" x="920.28" y="-374.3" font-family="Times,serif" font-size="14.00">set3</text>
</g>
<!-- set1&#45;&gt;set3 -->
<g id="edge14" class="edge">
<title>set1&#45;&gt;set3</title>
<path fill="none" stroke="black" d="M874.13,-709.44C883.46,-642.62 907.21,-472.62 916.49,-406.19"/>
<polygon fill="black" stroke="black" points="870.61,-709.34 872.69,-719.73 877.54,-710.31 870.61,-709.34"/>
<polygon fill="black" stroke="black" points="919.98,-406.48 917.9,-396.09 913.05,-405.51 919.98,-406.48"/>
</g>
<!-- set4 -->
<g id="node13" class="node">
<title>set4</title>
<ellipse fill="none" stroke="black" cx="1093.28" cy="-306" rx="30.59" ry="18"/>
<text text-anchor="middle" x="1093.28" y="-302.3" font-family="Times,serif" font-size="14.00">set4</text>
</g>
<!-- set1&#45;&gt;set4 -->
<g id="edge15" class="edge">
<title>set1&#45;&gt;set4</title>
<path fill="none" stroke="black" d="M903.03,-722.58C905.46,-721.66 907.9,-720.79 910.28,-720 1061.12,-669.97 1245.28,-753.92 1245.28,-595 1245.28,-595 1245.28,-595 1245.28,-449 1245.28,-384.91 1172.23,-341.43 1127.41,-320.79"/>
<polygon fill="black" stroke="black" points="901.72,-719.33 893.73,-726.28 904.31,-725.83 901.72,-719.33"/>
<polygon fill="black" stroke="black" points="1128.6,-317.49 1118.04,-316.62 1125.75,-323.89 1128.6,-317.49"/>
</g>
<!-- set1&#45;&gt;set5 -->
<g id="edge16" class="edge">
<title>set1&#45;&gt;set5</title>
<path fill="none" stroke="black" d="M829.41,-736.54C696.06,-734.65 274.9,-725.45 146.28,-684 74.31,-660.8 1.28,-670.62 1.28,-595 1.28,-595 1.28,-595 1.28,-521 1.28,-480.55 -3.85,-464.46 20.28,-432 99.56,-325.37 160.11,-340.24 282.28,-288 325.92,-269.34 378.39,-253.83 412.94,-244.5"/>
<polygon fill="black" stroke="black" points="829.55,-740.04 839.6,-736.68 829.65,-733.04 829.55,-740.04"/>
<polygon fill="black" stroke="black" points="413.86,-247.88 422.63,-241.93 412.06,-241.12 413.86,-247.88"/>
</g>
<!-- set8 -->
<g id="node17" class="node">
<title>set8</title>
<ellipse fill="none" stroke="black" cx="1093.28" cy="-234" rx="30.59" ry="18"/>
<text text-anchor="middle" x="1093.28" y="-230.3" font-family="Times,serif" font-size="14.00">set8</text>
</g>
<!-- set1&#45;&gt;set8 -->
<g id="edge17" class="edge">
<title>set1&#45;&gt;set8</title>
<path fill="none" stroke="black" d="M902.73,-722.3C905.26,-721.44 907.79,-720.65 910.28,-720 979.71,-701.77 1171.12,-723.15 1231.28,-684 1269.68,-659.01 1283.28,-640.81 1283.28,-595 1283.28,-595 1283.28,-595 1283.28,-377 1283.28,-301.6 1186.08,-261.41 1130.73,-244.64"/>
<polygon fill="black" stroke="black" points="901.25,-719.12 893.15,-725.94 903.74,-725.66 901.25,-719.12"/>
<polygon fill="black" stroke="black" points="1131.49,-241.22 1120.91,-241.78 1129.53,-247.94 1131.49,-241.22"/>
</g>
<!-- set10&#45;&gt;set12 -->
<g id="edge18" class="edge">
<title>set10&#45;&gt;set12</title>
<path fill="none" stroke="black" d="M1012.57,-641.71C1019.39,-634.26 1026.93,-626.01 1033.76,-618.54"/>
<polygon fill="black" stroke="black" points="1009.97,-639.37 1005.81,-649.12 1015.14,-644.1 1009.97,-639.37"/>
<polygon fill="black" stroke="black" points="1036.65,-620.56 1040.82,-610.82 1031.49,-615.84 1036.65,-620.56"/>
</g>
<!-- set10&#45;&gt;set15 -->
<g id="edge19" class="edge">
<title>set10&#45;&gt;set15</title>
<path fill="none" stroke="black" d="M991.28,-637.68C991.28,-612.6 991.28,-575.63 991.28,-550.49"/>
<polygon fill="black" stroke="black" points="987.78,-637.87 991.28,-647.87 994.78,-637.87 987.78,-637.87"/>
<polygon fill="black" stroke="black" points="994.78,-550.19 991.28,-540.19 987.78,-550.19 994.78,-550.19"/>
</g>
<!-- set10&#45;&gt;set16 -->
<g id="edge20" class="edge">
<title>set10&#45;&gt;set16</title>
<path fill="none" stroke="black" d="M949.74,-653.99C925.49,-645.79 895.74,-632.41 875.28,-612 837.39,-574.19 816.82,-513.4 807.53,-478.34"/>
<polygon fill="black" stroke="black" points="948.82,-657.37 959.41,-657.1 950.96,-650.71 948.82,-657.37"/>
<polygon fill="black" stroke="black" points="810.85,-477.17 805.01,-468.33 804.06,-478.89 810.85,-477.17"/>
</g>
<!-- set10&#45;&gt;set3 -->
<g id="edge21" class="edge">
<title>set10&#45;&gt;set3</title>
<path fill="none" stroke="black" d="M980.25,-638.84C970.11,-613.86 955.31,-574.94 946.28,-540 934.32,-493.7 926.82,-438.41 923.11,-406.15"/>
<polygon fill="black" stroke="black" points="977.12,-640.41 984.16,-648.33 983.59,-637.75 977.12,-640.41"/>
<polygon fill="black" stroke="black" points="926.58,-405.69 921.99,-396.14 919.62,-406.46 926.58,-405.69"/>
</g>
<!-- set10&#45;&gt;set4 -->
<g id="edge22" class="edge">
<title>set10&#45;&gt;set4</title>
<path fill="none" stroke="black" d="M1034.16,-655.91C1058.05,-648.42 1085.81,-635.12 1100.28,-612 1155.82,-523.23 1121.41,-389.68 1102.85,-333.44"/>
<polygon fill="black" stroke="black" points="1033.19,-652.55 1024.55,-658.69 1035.13,-659.27 1033.19,-652.55"/>
<polygon fill="black" stroke="black" points="1106.13,-332.21 1099.59,-323.87 1099.5,-334.47 1106.13,-332.21"/>
</g>
<!-- set10&#45;&gt;set8 -->
<g id="edge23" class="edge">
<title>set10&#45;&gt;set8</title>
<path fill="none" stroke="black" d="M1035.12,-656.71C1098.26,-641.94 1207.28,-604.62 1207.28,-523 1207.28,-523 1207.28,-523 1207.28,-377 1207.28,-322.73 1156.02,-277.39 1122.25,-253.41"/>
<polygon fill="black" stroke="black" points="1034.03,-653.37 1025.03,-658.97 1035.56,-660.2 1034.03,-653.37"/>
<polygon fill="black" stroke="black" points="1123.89,-250.29 1113.66,-247.5 1119.92,-256.05 1123.89,-250.29"/>
</g>
<!-- set13 -->
<g id="node6" class="node">
<title>set13</title>
<ellipse fill="none" stroke="black" cx="433.28" cy="-522" rx="36.29" ry="18"/>
<text text-anchor="middle" x="433.28" y="-518.3" font-family="Times,serif" font-size="14.00">set13</text>
</g>
<!-- set11&#45;&gt;set13 -->
<g id="edge24" class="edge">
<title>set11&#45;&gt;set13</title>
<path fill="none" stroke="black" d="M395.64,-569.23C401.4,-562.15 407.72,-554.39 413.52,-547.28"/>
<polygon fill="black" stroke="black" points="392.82,-567.15 389.22,-577.12 398.25,-571.57 392.82,-567.15"/>
<polygon fill="black" stroke="black" points="416.4,-549.27 420,-539.31 410.98,-544.85 416.4,-549.27"/>
</g>
<!-- set11&#45;&gt;set17 -->
<g id="edge25" class="edge">
<title>set11&#45;&gt;set17</title>
<path fill="none" stroke="black" d="M334.03,-582.67C310.81,-574.81 283.5,-561.55 267.28,-540 237.72,-500.73 235.35,-440.87 236.9,-406.28"/>
<polygon fill="black" stroke="black" points="333.1,-586.05 343.69,-585.72 335.21,-579.38 333.1,-586.05"/>
<polygon fill="black" stroke="black" points="240.41,-406.19 237.52,-396 233.43,-405.77 240.41,-406.19"/>
</g>
<!-- set11&#45;&gt;set2 -->
<g id="edge26" class="edge">
<title>set11&#45;&gt;set2</title>
<path fill="none" stroke="black" d="M421.01,-586.56C453.01,-579.86 495.22,-566.44 523.28,-540 584.19,-482.6 609.79,-381.95 618.92,-333.95"/>
<polygon fill="black" stroke="black" points="420.16,-583.16 411.01,-588.51 421.5,-590.04 420.16,-583.16"/>
<polygon fill="black" stroke="black" points="622.39,-334.46 620.72,-324 615.5,-333.22 622.39,-334.46"/>
</g>
<!-- set11&#45;&gt;set5 -->
<g id="edge27" class="edge">
<title>set11&#45;&gt;set5</title>
<path fill="none" stroke="black" d="M379.3,-565.69C381.42,-548.03 384.53,-524.58 388.28,-504 404.58,-414.58 430.76,-310.01 443.23,-261.82"/>
<polygon fill="black" stroke="black" points="375.8,-565.53 378.12,-575.86 382.75,-566.34 375.8,-565.53"/>
<polygon fill="black" stroke="black" points="446.69,-262.44 445.82,-251.88 439.91,-260.68 446.69,-262.44"/>
</g>
<!-- set6 -->
<g id="node15" class="node">
<title>set6</title>
<ellipse fill="none" stroke="black" cx="396.28" cy="-162" rx="30.59" ry="18"/>
<text text-anchor="middle" x="396.28" y="-158.3" font-family="Times,serif" font-size="14.00">set6</text>
</g>
<!-- set11&#45;&gt;set6 -->
<g id="edge28" class="edge">
<title>set11&#45;&gt;set6</title>
<path fill="none" stroke="black" d="M376.68,-565.79C376.99,-548.16 377.5,-524.72 378.28,-504 382.68,-387.12 390.99,-247.87 394.57,-190.14"/>
<polygon fill="black" stroke="black" points="373.18,-565.88 376.51,-575.93 380.18,-565.99 373.18,-565.88"/>
<polygon fill="black" stroke="black" points="398.07,-190.22 395.2,-180.02 391.09,-189.79 398.07,-190.22"/>
</g>
<!-- set11&#45;&gt;set7 -->
<g id="edge29" class="edge">
<title>set11&#45;&gt;set7</title>
<path fill="none" stroke="black" d="M418.2,-581.8C439.76,-573.79 464.37,-560.67 478.28,-540 569,-405.25 522.71,-192.59 502.29,-117.96"/>
<polygon fill="black" stroke="black" points="416.86,-578.56 408.55,-585.13 419.15,-585.17 416.86,-578.56"/>
<polygon fill="black" stroke="black" points="505.56,-116.66 499.48,-107.98 498.82,-118.55 505.56,-116.66"/>
</g>
<!-- set12&#45;&gt;set15 -->
<g id="edge30" class="edge">
<title>set12&#45;&gt;set15</title>
<path fill="none" stroke="black" d="M1033.99,-569.71C1027.18,-562.26 1019.64,-554.01 1012.81,-546.54"/>
<polygon fill="black" stroke="black" points="1031.43,-572.1 1040.76,-577.12 1036.6,-567.37 1031.43,-572.1"/>
<polygon fill="black" stroke="black" points="1015.08,-543.84 1005.75,-538.82 1009.91,-548.56 1015.08,-543.84"/>
</g>
<!-- set12&#45;&gt;set16 -->
<g id="edge31" class="edge">
<title>set12&#45;&gt;set16</title>
<path fill="none" stroke="black" d="M1020.25,-577.03C998.66,-566.93 970.55,-553.31 946.28,-540 905.44,-517.61 859.9,-489.03 830.94,-470.39"/>
<polygon fill="black" stroke="black" points="1018.83,-580.23 1029.37,-581.28 1021.78,-573.89 1018.83,-580.23"/>
<polygon fill="black" stroke="black" points="832.81,-467.43 822.51,-464.94 829.01,-473.31 832.81,-467.43"/>
</g>
<!-- set12&#45;&gt;set3 -->
<g id="edge32" class="edge">
<title>set12&#45;&gt;set3</title>
<path fill="none" stroke="black" d="M1053.26,-565.67C1051.01,-547.38 1046.27,-523.22 1036.28,-504 1014.02,-461.14 973.03,-422.15 946.22,-399.5"/>
<polygon fill="black" stroke="black" points="1049.78,-566.11 1054.31,-575.69 1056.74,-565.37 1049.78,-566.11"/>
<polygon fill="black" stroke="black" points="948.32,-396.69 938.39,-393.01 943.85,-402.08 948.32,-396.69"/>
</g>
<!-- set12&#45;&gt;set4 -->
<g id="edge33" class="edge">
<title>set12&#45;&gt;set4</title>
<path fill="none" stroke="black" d="M1058.91,-565.7C1066.17,-511.08 1082.4,-388.9 1089.66,-334.29"/>
<polygon fill="black" stroke="black" points="1055.39,-565.59 1057.55,-575.97 1062.33,-566.51 1055.39,-565.59"/>
<polygon fill="black" stroke="black" points="1093.14,-334.68 1090.98,-324.31 1086.2,-333.76 1093.14,-334.68"/>
</g>
<!-- set12&#45;&gt;set8 -->
<g id="edge34" class="edge">
<title>set12&#45;&gt;set8</title>
<path fill="none" stroke="black" d="M1067.66,-566.76C1071.37,-558.32 1075.25,-548.87 1078.28,-540 1110.33,-446.26 1120.97,-422.29 1133.28,-324 1135.27,-308.12 1138.37,-303.17 1133.28,-288 1129.53,-276.79 1122.36,-266.05 1115.11,-257.21"/>
<polygon fill="black" stroke="black" points="1064.37,-565.53 1063.45,-576.09 1070.75,-568.41 1064.37,-565.53"/>
<polygon fill="black" stroke="black" points="1117.74,-254.9 1108.53,-249.66 1112.47,-259.5 1117.74,-254.9"/>
</g>
<!-- set13&#45;&gt;set16 -->
<g id="edge35" class="edge">
<title>set13&#45;&gt;set16</title>
<path fill="none" stroke="black" d="M476.54,-512.77C547.3,-499.31 686.98,-472.74 757.85,-459.26"/>
<polygon fill="black" stroke="black" points="475.76,-509.36 466.59,-514.66 477.07,-516.23 475.76,-509.36"/>
<polygon fill="black" stroke="black" points="758.62,-462.68 767.79,-457.37 757.31,-455.8 758.62,-462.68"/>
</g>
<!-- set13&#45;&gt;set17 -->
<g id="edge36" class="edge">
<title>set13&#45;&gt;set17</title>
<path fill="none" stroke="black" d="M405.39,-500.58C368.49,-473.57 303.82,-426.24 267.01,-399.29"/>
<polygon fill="black" stroke="black" points="403.48,-503.52 413.61,-506.6 407.61,-497.87 403.48,-503.52"/>
<polygon fill="black" stroke="black" points="268.85,-396.31 258.72,-393.22 264.72,-401.95 268.85,-396.31"/>
</g>
<!-- set13&#45;&gt;set2 -->
<g id="edge37" class="edge">
<title>set13&#45;&gt;set2</title>
<path fill="none" stroke="black" d="M456.34,-498.17C465.49,-488.94 476.02,-478.09 485.28,-468 528.91,-420.43 577.51,-362.5 603.81,-330.71"/>
<polygon fill="black" stroke="black" points="453.62,-495.95 449.04,-505.5 458.58,-500.89 453.62,-495.95"/>
<polygon fill="black" stroke="black" points="606.64,-332.79 610.3,-322.85 601.24,-328.33 606.64,-332.79"/>
</g>
<!-- set13&#45;&gt;set5 -->
<g id="edge38" class="edge">
<title>set13&#45;&gt;set5</title>
<path fill="none" stroke="black" d="M434.91,-493.7C438.15,-439.19 445.38,-317.41 448.64,-262.63"/>
<polygon fill="black" stroke="black" points="431.4,-493.78 434.3,-503.97 438.38,-494.19 431.4,-493.78"/>
<polygon fill="black" stroke="black" points="452.15,-262.5 449.25,-252.31 445.17,-262.08 452.15,-262.5"/>
</g>
<!-- set13&#45;&gt;set6 -->
<g id="edge39" class="edge">
<title>set13&#45;&gt;set6</title>
<path fill="none" stroke="black" d="M430.43,-493.44C423.53,-426.62 405.96,-256.62 399.09,-190.19"/>
<polygon fill="black" stroke="black" points="426.99,-494.15 431.5,-503.73 433.95,-493.43 426.99,-494.15"/>
<polygon fill="black" stroke="black" points="402.56,-189.68 398.05,-180.09 395.6,-190.4 402.56,-189.68"/>
</g>
<!-- set13&#45;&gt;set7 -->
<g id="edge40" class="edge">
<title>set13&#45;&gt;set7</title>
<path fill="none" stroke="black" d="M443.18,-494.39C446.06,-486.02 449.03,-476.7 451.28,-468 475.7,-373.55 480.38,-349.05 490.28,-252 495.03,-205.47 495.28,-151.01 494.89,-118.84"/>
<polygon fill="black" stroke="black" points="439.82,-493.41 439.77,-504.01 446.41,-495.75 439.82,-493.41"/>
<polygon fill="black" stroke="black" points="498.38,-118.39 494.73,-108.45 491.38,-118.5 498.38,-118.39"/>
</g>
<!-- set14&#45;&gt;set9 -->
<g id="edge41" class="edge">
<title>set14&#45;&gt;set9</title>
<path fill="none" stroke="black" d="M66.19,-421.92C67.08,-393.35 68.28,-347.01 68.28,-307 68.28,-307 68.28,-307 68.28,-161 68.28,-118.67 86.68,-72.41 99.95,-44.56"/>
<polygon fill="black" stroke="black" points="62.7,-421.85 65.88,-431.95 69.69,-422.07 62.7,-421.85"/>
<polygon fill="black" stroke="black" points="103.13,-46.03 104.39,-35.51 96.84,-42.94 103.13,-46.03"/>
</g>
<!-- set15&#45;&gt;set16 -->
<g id="edge42" class="edge">
<title>set15&#45;&gt;set16</title>
<path fill="none" stroke="black" d="M953.04,-506.91C919.97,-494.73 872.39,-477.2 839.36,-465.03"/>
<polygon fill="black" stroke="black" points="952.24,-510.35 962.84,-510.52 954.66,-503.78 952.24,-510.35"/>
<polygon fill="black" stroke="black" points="840.2,-461.61 829.61,-461.44 837.78,-468.18 840.2,-461.61"/>
</g>
<!-- set15&#45;&gt;set3 -->
<g id="edge43" class="edge">
<title>set15&#45;&gt;set3</title>
<path fill="none" stroke="black" d="M978.44,-495.32C965.58,-469.6 945.91,-430.26 933.07,-404.58"/>
<polygon fill="black" stroke="black" points="975.4,-497.05 983,-504.43 981.66,-493.92 975.4,-497.05"/>
<polygon fill="black" stroke="black" points="936.12,-402.84 928.51,-395.46 929.86,-405.97 936.12,-402.84"/>
</g>
<!-- set15&#45;&gt;set4 -->
<g id="edge44" class="edge">
<title>set15&#45;&gt;set4</title>
<path fill="none" stroke="black" d="M1003.59,-495.17C1023.27,-453.9 1061.56,-373.56 1081.13,-332.5"/>
<polygon fill="black" stroke="black" points="1000.43,-493.67 999.29,-504.21 1006.75,-496.69 1000.43,-493.67"/>
<polygon fill="black" stroke="black" points="1084.31,-333.95 1085.46,-323.42 1077.99,-330.94 1084.31,-333.95"/>
</g>
<!-- set15&#45;&gt;set8 -->
<g id="edge45" class="edge">
<title>set15&#45;&gt;set8</title>
<path fill="none" stroke="black" d="M994.9,-493.67C1001.63,-448.81 1018.64,-357.58 1053.28,-288 1058.5,-277.52 1065.87,-267.02 1072.87,-258.15"/>
<polygon fill="black" stroke="black" points="991.41,-493.39 993.45,-503.79 998.34,-494.39 991.41,-493.39"/>
<polygon fill="black" stroke="black" points="1075.74,-260.17 1079.38,-250.22 1070.33,-255.73 1075.74,-260.17"/>
</g>
<!-- set16&#45;&gt;set17 -->
<g id="edge46" class="edge">
<title>set16&#45;&gt;set17</title>
<path fill="none" stroke="black" d="M756.11,-443.37C650.63,-430.23 389.09,-397.66 284.03,-384.57"/>
<polygon fill="black" stroke="black" points="755.77,-446.86 766.13,-444.62 756.64,-439.91 755.77,-446.86"/>
<polygon fill="black" stroke="black" points="284.42,-381.1 274.07,-383.33 283.56,-388.04 284.42,-381.1"/>
</g>
<!-- set16&#45;&gt;set2 -->
<g id="edge47" class="edge">
<title>set16&#45;&gt;set2</title>
<path fill="none" stroke="black" d="M781.02,-425.35C764.06,-406.37 738.63,-379.74 713.28,-360 695.13,-345.86 672.86,-332.72 655.02,-323.06"/>
<polygon fill="black" stroke="black" points="778.5,-427.78 787.74,-432.97 783.75,-423.15 778.5,-427.78"/>
<polygon fill="black" stroke="black" points="656.61,-319.94 646.14,-318.34 653.32,-326.12 656.61,-319.94"/>
</g>
<!-- set16&#45;&gt;set3 -->
<g id="edge48" class="edge">
<title>set16&#45;&gt;set3</title>
<path fill="none" stroke="black" d="M832.83,-430.44C850.73,-419.91 873,-406.82 890.58,-396.47"/>
<polygon fill="black" stroke="black" points="830.79,-427.58 823.95,-435.67 834.34,-433.62 830.79,-427.58"/>
<polygon fill="black" stroke="black" points="892.46,-399.43 899.3,-391.34 888.91,-393.4 892.46,-399.43"/>
</g>
<!-- set16&#45;&gt;set5 -->
<g id="edge49" class="edge">
<title>set16&#45;&gt;set5</title>
<path fill="none" stroke="black" d="M788.08,-423.21C777.95,-404.65 762.92,-379.56 746.28,-360 714.64,-322.8 706.62,-310.52 663.28,-288 607.4,-258.96 534.91,-245.33 490.54,-239.31"/>
<polygon fill="black" stroke="black" points="785.11,-425.08 792.91,-432.25 791.29,-421.78 785.11,-425.08"/>
<polygon fill="black" stroke="black" points="490.8,-235.82 480.43,-238.01 489.9,-242.76 490.8,-235.82"/>
</g>
<!-- set16&#45;&gt;set8 -->
<g id="edge50" class="edge">
<title>set16&#45;&gt;set8</title>
<path fill="none" stroke="black" d="M816.11,-423.5C837.9,-388.18 881.84,-324.58 935.28,-288 971.63,-263.12 1020.63,-249.09 1054.38,-241.8"/>
<polygon fill="black" stroke="black" points="813,-421.89 810.81,-432.26 818.99,-425.52 813,-421.89"/>
<polygon fill="black" stroke="black" points="1055.24,-245.2 1064.33,-239.75 1053.83,-238.34 1055.24,-245.2"/>
</g>
<!-- set17&#45;&gt;set2 -->
<g id="edge51" class="edge">
<title>set17&#45;&gt;set2</title>
<path fill="none" stroke="black" d="M283.18,-369C358.84,-355.21 512.58,-327.18 584.53,-314.06"/>
<polygon fill="black" stroke="black" points="282.23,-365.61 273.02,-370.85 283.49,-372.5 282.23,-365.61"/>
<polygon fill="black" stroke="black" points="585.32,-317.48 594.53,-312.24 584.06,-310.59 585.32,-317.48"/>
</g>
<!-- set17&#45;&gt;set5 -->
<g id="edge52" class="edge">
<title>set17&#45;&gt;set5</title>
<path fill="none" stroke="black" d="M258.33,-353.16C274.91,-333.64 300.43,-306.33 327.28,-288 354.24,-269.6 388.61,-255.44 414.17,-246.41"/>
<polygon fill="black" stroke="black" points="255.51,-351.08 251.8,-361.01 260.88,-355.56 255.51,-351.08"/>
<polygon fill="black" stroke="black" points="415.52,-249.64 423.84,-243.08 413.25,-243.02 415.52,-249.64"/>
</g>
<!-- set17&#45;&gt;set6 -->
<g id="edge53" class="edge">
<title>set17&#45;&gt;set6</title>
<path fill="none" stroke="black" d="M241.27,-349.5C245.11,-314.68 256.38,-254.59 289.28,-216 307.41,-194.74 336.1,-181.18 359.21,-173.1"/>
<polygon fill="black" stroke="black" points="237.74,-349.57 240.26,-359.86 244.71,-350.25 237.74,-349.57"/>
<polygon fill="black" stroke="black" points="360.32,-176.42 368.72,-169.97 358.13,-169.77 360.32,-176.42"/>
</g>
<!-- set17&#45;&gt;set7 -->
<g id="edge54" class="edge">
<title>set17&#45;&gt;set7</title>
<path fill="none" stroke="black" d="M236.43,-349.5C234.32,-315.17 235.61,-256.08 263.28,-216 309.55,-148.98 403.69,-114.64 456.39,-99.99"/>
<polygon fill="black" stroke="black" points="232.96,-350.02 237.21,-359.72 239.94,-349.49 232.96,-350.02"/>
<polygon fill="black" stroke="black" points="457.59,-103.29 466.35,-97.32 455.78,-96.53 457.59,-103.29"/>
</g>
<!-- set2&#45;&gt;set5 -->
<g id="edge55" class="edge">
<title>set2&#45;&gt;set5</title>
<path fill="none" stroke="black" d="M589.43,-291.3C559.03,-279 514.63,-261.04 484.21,-248.73"/>
<polygon fill="black" stroke="black" points="588.28,-294.61 598.86,-295.12 590.91,-288.12 588.28,-294.61"/>
<polygon fill="black" stroke="black" points="485.44,-245.45 474.86,-244.94 482.82,-251.94 485.44,-245.45"/>
</g>
<!-- set2&#45;&gt;set6 -->
<g id="edge56" class="edge">
<title>set2&#45;&gt;set6</title>
<path fill="none" stroke="black" d="M595.78,-285.7C569.16,-267.23 527.49,-238.89 490.28,-216 469.53,-203.23 445.61,-189.76 427.09,-179.6"/>
<polygon fill="black" stroke="black" points="593.99,-288.72 604.2,-291.56 597.99,-282.98 593.99,-288.72"/>
<polygon fill="black" stroke="black" points="428.66,-176.47 418.21,-174.75 425.31,-182.61 428.66,-176.47"/>
</g>
<!-- set2&#45;&gt;set7 -->
<g id="edge57" class="edge">
<title>set2&#45;&gt;set7</title>
<path fill="none" stroke="black" d="M617.55,-277.98C609.38,-244.14 591.89,-185.57 561.28,-144 551.21,-130.32 536.73,-118.27 523.81,-109.13"/>
<polygon fill="black" stroke="black" points="614.22,-279.09 619.88,-288.04 621.04,-277.51 614.22,-279.09"/>
<polygon fill="black" stroke="black" points="525.43,-106 515.19,-103.28 521.5,-111.79 525.43,-106"/>
</g>
<!-- set3&#45;&gt;set4 -->
<g id="edge58" class="edge">
<title>set3&#45;&gt;set4</title>
<path fill="none" stroke="black" d="M954.14,-363.3C984.54,-351 1028.94,-333.04 1059.36,-320.73"/>
<polygon fill="black" stroke="black" points="952.66,-360.12 944.7,-367.12 955.29,-366.61 952.66,-360.12"/>
<polygon fill="black" stroke="black" points="1060.75,-323.94 1068.71,-316.94 1058.13,-317.45 1060.75,-323.94"/>
</g>
<!-- set3&#45;&gt;set8 -->
<g id="edge59" class="edge">
<title>set3&#45;&gt;set8</title>
<path fill="none" stroke="black" d="M928.1,-350.5C935.06,-330.96 947.01,-304.94 965.28,-288 990.42,-264.7 1027.23,-250.92 1054.93,-243.27"/>
<polygon fill="black" stroke="black" points="924.76,-349.45 924.91,-360.04 931.4,-351.67 924.76,-349.45"/>
<polygon fill="black" stroke="black" points="1055.89,-246.64 1064.69,-240.73 1054.13,-239.87 1055.89,-246.64"/>
</g>
<!-- set4&#45;&gt;set8 -->
<g id="edge60" class="edge">
<title>set4&#45;&gt;set8</title>
<path fill="none" stroke="black" d="M1093.28,-277.67C1093.28,-272.69 1093.28,-267.49 1093.28,-262.51"/>
<polygon fill="black" stroke="black" points="1089.78,-277.7 1093.28,-287.7 1096.78,-277.7 1089.78,-277.7"/>
<polygon fill="black" stroke="black" points="1096.78,-262.1 1093.28,-252.1 1089.78,-262.1 1096.78,-262.1"/>
</g>
<!-- set5&#45;&gt;set6 -->
<g id="edge61" class="edge">
<title>set5&#45;&gt;set6</title>
<path fill="none" stroke="black" d="M431.86,-209.11C426.31,-201.93 420.23,-194.04 414.68,-186.85"/>
<polygon fill="black" stroke="black" points="429.15,-211.34 438.03,-217.12 434.69,-207.06 429.15,-211.34"/>
<polygon fill="black" stroke="black" points="417.37,-184.6 408.49,-178.82 411.82,-188.88 417.37,-184.6"/>
</g>
<!-- set5&#45;&gt;set7 -->
<g id="edge62" class="edge">
<title>set5&#45;&gt;set7</title>
<path fill="none" stroke="black" d="M458.55,-206.31C466.43,-180.9 478.21,-142.87 486.07,-117.52"/>
<polygon fill="black" stroke="black" points="455.12,-205.57 455.5,-216.15 461.81,-207.64 455.12,-205.57"/>
<polygon fill="black" stroke="black" points="489.45,-118.41 489.07,-107.82 482.77,-116.34 489.45,-118.41"/>
</g>
<!-- set6&#45;&gt;set7 -->
<g id="edge63" class="edge">
<title>set6&#45;&gt;set7</title>
<path fill="none" stroke="black" d="M423.4,-141.63C436.97,-131.94 453.37,-120.23 466.97,-110.51"/>
<polygon fill="black" stroke="black" points="421.28,-138.84 415.18,-147.5 425.35,-144.54 421.28,-138.84"/>
<polygon fill="black" stroke="black" points="469.34,-113.12 475.45,-104.46 465.27,-107.42 469.34,-113.12"/>
</g>
<!-- set7&#45;&gt;set9 -->
<g id="edge64" class="edge">
<title>set7&#45;&gt;set9</title>
<path fill="none" stroke="black" d="M455.12,-81.81C381.88,-68.35 225.01,-39.53 152.06,-26.12"/>
<polygon fill="black" stroke="black" points="454.87,-85.32 465.33,-83.68 456.13,-78.43 454.87,-85.32"/>
<polygon fill="black" stroke="black" points="152.4,-22.63 141.93,-24.26 151.13,-29.51 152.4,-22.63"/>
</g>
<!-- start -->
<g id="node19" class="node">
<title>start</title>
<ellipse fill="none" stroke="black" cx="952.28" cy="-738" rx="33.29" ry="18"/>
<text text-anchor="middle" x="952.28" y="-734.3" font-family="Times,serif" font-size="14.00">start</text>
</g>
<!-- goal -->
<g id="node20" class="node">
<title>goal</title>
<ellipse fill="none" stroke="black" cx="1034.28" cy="-738" rx="30.59" ry="18"/>
<text text-anchor="middle" x="1034.28" y="-734.3" font-family="Times,serif" font-size="14.00">goal</text>
</g>
</g>
</svg>
