<?xml version="1.0" encoding="UTF-8" standalone="no"?>
<!DOCTYPE svg PUBLIC "-//W3C//DTD SVG 1.1//EN"
 "http://www.w3.org/Graphics/SVG/1.1/DTD/svg11.dtd">
<!-- Generated by graphviz version 2.43.0 (0)
 -->
<!-- Title: IRIS region connectivity Pages: 1 -->
<svg width="1324pt" height="764pt"
 viewBox="0.00 0.00 1324.40 764.00" xmlns="http://www.w3.org/2000/svg" xmlns:xlink="http://www.w3.org/1999/xlink">
<g id="graph0" class="graph" transform="scale(1 1) rotate(0) translate(4 760)">
<title>IRIS region connectivity</title>
<polygon fill="white" stroke="transparent" points="-4,4 -4,-760 1320.4,-760 1320.4,4 -4,4"/>
<!-- set0 -->
<g id="node1" class="node">
<title>set0</title>
<ellipse fill="none" stroke="black" cx="252.4" cy="-666" rx="30.59" ry="18"/>
<text text-anchor="middle" x="252.4" y="-662.3" font-family="Times,serif" font-size="14.00">set0</text>
</g>
<!-- set11 -->
<g id="node4" class="node">
<title>set11</title>
<ellipse fill="none" stroke="black" cx="404.4" cy="-594" rx="36.29" ry="18"/>
<text text-anchor="middle" x="404.4" y="-590.3" font-family="Times,serif" font-size="14.00">set11</text>
</g>
<!-- set0&#45;&gt;set11 -->
<g id="edge1" class="edge">
<title>set0&#45;&gt;set11</title>
<path fill="none" stroke="black" d="M285.19,-649.9C310.02,-638.46 344.06,-622.79 369.41,-611.11"/>
<polygon fill="black" stroke="black" points="283.43,-646.85 275.81,-654.22 286.36,-653.21 283.43,-646.85"/>
<polygon fill="black" stroke="black" points="371.05,-614.21 378.66,-606.85 368.12,-607.85 371.05,-614.21"/>
</g>
<!-- set14 -->
<g id="node7" class="node">
<title>set14</title>
<ellipse fill="none" stroke="black" cx="36.4" cy="-450" rx="36.29" ry="18"/>
<text text-anchor="middle" x="36.4" y="-446.3" font-family="Times,serif" font-size="14.00">set14</text>
</g>
<!-- set0&#45;&gt;set14 -->
<g id="edge2" class="edge">
<title>set0&#45;&gt;set14</title>
<path fill="none" stroke="black" d="M214.27,-656.49C186.67,-648.72 149.9,-634.9 124.4,-612 82.76,-574.62 56.83,-512.73 44.66,-477.57"/>
<polygon fill="black" stroke="black" points="213.41,-659.88 223.98,-659.08 215.22,-653.12 213.41,-659.88"/>
<polygon fill="black" stroke="black" points="47.94,-476.36 41.45,-467.99 41.3,-478.58 47.94,-476.36"/>
</g>
<!-- set17 -->
<g id="node10" class="node">
<title>set17</title>
<ellipse fill="none" stroke="black" cx="416.4" cy="-378" rx="36.29" ry="18"/>
<text text-anchor="middle" x="416.4" y="-374.3" font-family="Times,serif" font-size="14.00">set17</text>
</g>
<!-- set0&#45;&gt;set17 -->
<g id="edge3" class="edge">
<title>set0&#45;&gt;set17</title>
<path fill="none" stroke="black" d="M266.7,-640.06C297.66,-586.06 370.62,-458.84 401.82,-404.42"/>
<polygon fill="black" stroke="black" points="263.62,-638.39 261.68,-648.8 269.69,-641.87 263.62,-638.39"/>
<polygon fill="black" stroke="black" points="404.86,-406.15 406.8,-395.73 398.79,-402.66 404.86,-406.15"/>
</g>
<!-- set2 -->
<g id="node11" class="node">
<title>set2</title>
<ellipse fill="none" stroke="black" cx="276.4" cy="-306" rx="30.59" ry="18"/>
<text text-anchor="middle" x="276.4" y="-302.3" font-family="Times,serif" font-size="14.00">set2</text>
</g>
<!-- set0&#45;&gt;set2 -->
<g id="edge4" class="edge">
<title>set0&#45;&gt;set2</title>
<path fill="none" stroke="black" d="M231.13,-642.26C208.64,-615.76 176.4,-569.63 176.4,-523 176.4,-523 176.4,-523 176.4,-449 176.4,-397.74 220.5,-351.93 250.13,-326.95"/>
<polygon fill="black" stroke="black" points="228.53,-644.6 237.74,-649.83 233.8,-640 228.53,-644.6"/>
<polygon fill="black" stroke="black" points="252.53,-329.51 258.06,-320.47 248.1,-324.09 252.53,-329.51"/>
</g>
<!-- set5 -->
<g id="node14" class="node">
<title>set5</title>
<ellipse fill="none" stroke="black" cx="546.4" cy="-234" rx="30.59" ry="18"/>
<text text-anchor="middle" x="546.4" y="-230.3" font-family="Times,serif" font-size="14.00">set5</text>
</g>
<!-- set0&#45;&gt;set5 -->
<g id="edge5" class="edge">
<title>set0&#45;&gt;set5</title>
<path fill="none" stroke="black" d="M291.74,-659.44C332.82,-652.51 398.27,-638.24 449.4,-612 494.35,-588.92 507.71,-580.89 537.4,-540 603.79,-448.55 597.63,-397.93 571.4,-288 569.17,-278.65 565.18,-268.99 561.03,-260.51"/>
<polygon fill="black" stroke="black" points="291.15,-655.99 281.84,-661.05 292.27,-662.9 291.15,-655.99"/>
<polygon fill="black" stroke="black" points="564.08,-258.79 556.37,-251.53 557.87,-262.02 564.08,-258.79"/>
</g>
<!-- set7 -->
<g id="node16" class="node">
<title>set7</title>
<ellipse fill="none" stroke="black" cx="449.4" cy="-90" rx="30.59" ry="18"/>
<text text-anchor="middle" x="449.4" y="-86.3" font-family="Times,serif" font-size="14.00">set7</text>
</g>
<!-- set0&#45;&gt;set7 -->
<g id="edge6" class="edge">
<title>set0&#45;&gt;set7</title>
<path fill="none" stroke="black" d="M292.84,-661.96C342,-656.96 426.44,-644.11 491.4,-612 618.26,-549.3 708.4,-520.51 708.4,-379 708.4,-379 708.4,-379 708.4,-233 708.4,-134.51 562.63,-103.88 489.8,-94.72"/>
<polygon fill="black" stroke="black" points="292.23,-658.5 282.61,-662.94 292.89,-665.47 292.23,-658.5"/>
<polygon fill="black" stroke="black" points="489.96,-91.21 479.61,-93.52 489.14,-98.16 489.96,-91.21"/>
</g>
<!-- set9 -->
<g id="node18" class="node">
<title>set9</title>
<ellipse fill="none" stroke="black" cx="100.4" cy="-18" rx="30.59" ry="18"/>
<text text-anchor="middle" x="100.4" y="-14.3" font-family="Times,serif" font-size="14.00">set9</text>
</g>
<!-- set0&#45;&gt;set9 -->
<g id="edge7" class="edge">
<title>set0&#45;&gt;set9</title>
<path fill="none" stroke="black" d="M223.59,-646.31C210.82,-637.05 196.26,-625.06 185.4,-612 133.66,-549.78 100.4,-531.92 100.4,-451 100.4,-451 100.4,-451 100.4,-161 100.4,-121 100.4,-74.65 100.4,-46.08"/>
<polygon fill="black" stroke="black" points="221.88,-649.38 232.08,-652.26 225.9,-643.65 221.88,-649.38"/>
<polygon fill="black" stroke="black" points="103.9,-46.05 100.4,-36.05 96.9,-46.05 103.9,-46.05"/>
</g>
<!-- set1 -->
<g id="node2" class="node">
<title>set1</title>
<ellipse fill="none" stroke="black" cx="966.4" cy="-738" rx="30.59" ry="18"/>
<text text-anchor="middle" x="966.4" y="-734.3" font-family="Times,serif" font-size="14.00">set1</text>
</g>
<!-- set10 -->
<g id="node3" class="node">
<title>set10</title>
<ellipse fill="none" stroke="black" cx="989.4" cy="-666" rx="36.29" ry="18"/>
<text text-anchor="middle" x="989.4" y="-662.3" font-family="Times,serif" font-size="14.00">set10</text>
</g>
<!-- set1&#45;&gt;set10 -->
<g id="edge8" class="edge">
<title>set1&#45;&gt;set10</title>
<path fill="none" stroke="black" d="M975.17,-710.29C976.92,-704.97 978.75,-699.39 980.51,-694.06"/>
<polygon fill="black" stroke="black" points="971.76,-709.46 971.96,-720.05 978.41,-711.65 971.76,-709.46"/>
<polygon fill="black" stroke="black" points="983.92,-694.87 983.72,-684.28 977.27,-692.68 983.92,-694.87"/>
</g>
<!-- set12 -->
<g id="node5" class="node">
<title>set12</title>
<ellipse fill="none" stroke="black" cx="906.4" cy="-594" rx="36.29" ry="18"/>
<text text-anchor="middle" x="906.4" y="-590.3" font-family="Times,serif" font-size="14.00">set12</text>
</g>
<!-- set1&#45;&gt;set12 -->
<g id="edge9" class="edge">
<title>set1&#45;&gt;set12</title>
<path fill="none" stroke="black" d="M955.41,-710.99C944.65,-685.53 928.34,-646.92 917.53,-621.34"/>
<polygon fill="black" stroke="black" points="952.28,-712.58 959.4,-720.43 958.73,-709.86 952.28,-712.58"/>
<polygon fill="black" stroke="black" points="920.65,-619.75 913.54,-611.9 914.21,-622.48 920.65,-619.75"/>
</g>
<!-- set15 -->
<g id="node8" class="node">
<title>set15</title>
<ellipse fill="none" stroke="black" cx="1076.4" cy="-522" rx="36.29" ry="18"/>
<text text-anchor="middle" x="1076.4" y="-518.3" font-family="Times,serif" font-size="14.00">set15</text>
</g>
<!-- set1&#45;&gt;set15 -->
<g id="edge10" class="edge">
<title>set1&#45;&gt;set15</title>
<path fill="none" stroke="black" d="M997.7,-720.65C1032.4,-700.48 1086.25,-662.56 1107.4,-612 1116.32,-590.66 1105.94,-565.75 1094.85,-547.72"/>
<polygon fill="black" stroke="black" points="995.88,-717.66 988.89,-725.63 999.32,-723.75 995.88,-717.66"/>
<polygon fill="black" stroke="black" points="1097.51,-545.4 1089.08,-538.97 1091.66,-549.25 1097.51,-545.4"/>
</g>
<!-- set16 -->
<g id="node9" class="node">
<title>set16</title>
<ellipse fill="none" stroke="black" cx="816.4" cy="-450" rx="36.29" ry="18"/>
<text text-anchor="middle" x="816.4" y="-446.3" font-family="Times,serif" font-size="14.00">set16</text>
</g>
<!-- set1&#45;&gt;set16 -->
<g id="edge11" class="edge">
<title>set1&#45;&gt;set16</title>
<path fill="none" stroke="black" d="M938.14,-717.72C907.97,-695.65 860.92,-656.72 834.4,-612 809.8,-570.53 810.07,-512.39 812.94,-478.52"/>
<polygon fill="black" stroke="black" points="936.38,-720.76 946.55,-723.75 940.47,-715.08 936.38,-720.76"/>
<polygon fill="black" stroke="black" points="816.44,-478.72 813.93,-468.42 809.47,-478.03 816.44,-478.72"/>
</g>
<!-- set1&#45;&gt;set17 -->
<g id="edge12" class="edge">
<title>set1&#45;&gt;set17</title>
<path fill="none" stroke="black" d="M926.03,-734.47C877.47,-729.98 794.71,-717.66 732.4,-684 662.43,-646.21 496.7,-467.53 437.71,-402.63"/>
<polygon fill="black" stroke="black" points="925.88,-737.97 936.15,-735.34 926.48,-731 925.88,-737.97"/>
<polygon fill="black" stroke="black" points="440.05,-400 430.74,-394.95 434.86,-404.7 440.05,-400"/>
</g>
<!-- set1&#45;&gt;set2 -->
<g id="edge13" class="edge">
<title>set1&#45;&gt;set2</title>
<path fill="none" stroke="black" d="M925.81,-736.68C777.4,-735.15 269.78,-726.82 212.4,-684 120.89,-615.71 142.02,-544.35 162.4,-432 168.49,-398.37 167.61,-386.33 189.4,-360 203.38,-343.1 224.24,-330.13 242.02,-321.26"/>
<polygon fill="black" stroke="black" points="925.83,-740.18 935.87,-736.77 925.9,-733.18 925.83,-740.18"/>
<polygon fill="black" stroke="black" points="243.99,-324.2 251.52,-316.75 240.99,-317.87 243.99,-324.2"/>
</g>
<!-- set3 -->
<g id="node12" class="node">
<title>set3</title>
<ellipse fill="none" stroke="black" cx="1029.4" cy="-378" rx="30.59" ry="18"/>
<text text-anchor="middle" x="1029.4" y="-374.3" font-family="Times,serif" font-size="14.00">set3</text>
</g>
<!-- set1&#45;&gt;set3 -->
<g id="edge14" class="edge">
<title>set1&#45;&gt;set3</title>
<path fill="none" stroke="black" d="M999.66,-722.41C1032.75,-707.81 1079.08,-687.07 1082.4,-684 1109.28,-659.15 1113.21,-647.44 1122.4,-612 1126.25,-597.14 1127.54,-522.29 1121.4,-504 1107.59,-462.92 1074.83,-424.13 1052.37,-400.95"/>
<polygon fill="black" stroke="black" points="998.04,-719.3 990.3,-726.53 1000.87,-725.7 998.04,-719.3"/>
<polygon fill="black" stroke="black" points="1054.72,-398.35 1045.19,-393.71 1049.75,-403.28 1054.72,-398.35"/>
</g>
<!-- set4 -->
<g id="node13" class="node">
<title>set4</title>
<ellipse fill="none" stroke="black" cx="1088.4" cy="-306" rx="30.59" ry="18"/>
<text text-anchor="middle" x="1088.4" y="-302.3" font-family="Times,serif" font-size="14.00">set4</text>
</g>
<!-- set1&#45;&gt;set4 -->
<g id="edge15" class="edge">
<title>set1&#45;&gt;set4</title>
<path fill="none" stroke="black" d="M999.67,-722.65C1001.94,-721.74 1004.2,-720.85 1006.4,-720 1052.04,-702.42 1075.37,-718.14 1110.4,-684 1134.87,-660.14 1127.88,-644.83 1137.4,-612 1168.58,-504.39 1180.55,-460.19 1130.4,-360 1125.01,-349.23 1117.19,-338.58 1109.76,-329.68"/>
<polygon fill="black" stroke="black" points="998.31,-719.43 990.4,-726.48 1000.98,-725.9 998.31,-719.43"/>
<polygon fill="black" stroke="black" points="1112.33,-327.3 1103.12,-322.05 1107.04,-331.9 1112.33,-327.3"/>
</g>
<!-- set1&#45;&gt;set5 -->
<g id="edge16" class="edge">
<title>set1&#45;&gt;set5</title>
<path fill="none" stroke="black" d="M927.15,-730.16C863.89,-716.63 746.4,-680.05 746.4,-595 746.4,-595 746.4,-595 746.4,-377 746.4,-298.46 642.6,-259.39 584.56,-243.68"/>
<polygon fill="black" stroke="black" points="926.68,-733.64 937.18,-732.21 928.09,-726.78 926.68,-733.64"/>
<polygon fill="black" stroke="black" points="585.19,-240.22 574.63,-241.09 583.43,-247 585.19,-240.22"/>
</g>
<!-- set8 -->
<g id="node17" class="node">
<title>set8</title>
<ellipse fill="none" stroke="black" cx="1088.4" cy="-234" rx="30.59" ry="18"/>
<text text-anchor="middle" x="1088.4" y="-230.3" font-family="Times,serif" font-size="14.00">set8</text>
</g>
<!-- set1&#45;&gt;set8 -->
<g id="edge17" class="edge">
<title>set1&#45;&gt;set8</title>
<path fill="none" stroke="black" d="M999.17,-722.68C1001.6,-721.74 1004.03,-720.83 1006.4,-720 1146.5,-670.59 1316.4,-743.56 1316.4,-595 1316.4,-595 1316.4,-595 1316.4,-377 1316.4,-289.13 1192.88,-253.69 1127.67,-241.09"/>
<polygon fill="black" stroke="black" points="997.85,-719.44 989.89,-726.43 1000.48,-725.93 997.85,-719.44"/>
<polygon fill="black" stroke="black" points="1128.21,-237.63 1117.74,-239.26 1126.94,-244.52 1128.21,-237.63"/>
</g>
<!-- set10&#45;&gt;set12 -->
<g id="edge18" class="edge">
<title>set10&#45;&gt;set12</title>
<path fill="none" stroke="black" d="M964.09,-643.66C953.85,-635.02 942.05,-625.07 931.8,-616.43"/>
<polygon fill="black" stroke="black" points="961.89,-646.38 971.79,-650.15 966.41,-641.03 961.89,-646.38"/>
<polygon fill="black" stroke="black" points="933.87,-613.6 923.97,-609.82 929.36,-618.95 933.87,-613.6"/>
</g>
<!-- set10&#45;&gt;set15 -->
<g id="edge19" class="edge">
<title>set10&#45;&gt;set15</title>
<path fill="none" stroke="black" d="M997.97,-638.59C1004.56,-620.23 1014.68,-595.63 1027.4,-576 1034.53,-564.99 1044.02,-554.12 1052.75,-545.12"/>
<polygon fill="black" stroke="black" points="994.65,-637.48 994.67,-648.08 1001.26,-639.78 994.65,-637.48"/>
<polygon fill="black" stroke="black" points="1055.24,-547.58 1059.84,-538.04 1050.29,-542.63 1055.24,-547.58"/>
</g>
<!-- set10&#45;&gt;set16 -->
<g id="edge20" class="edge">
<title>set10&#45;&gt;set16</title>
<path fill="none" stroke="black" d="M945.31,-657.02C917.55,-649.78 883,-636.36 861.4,-612 827.89,-574.21 819.15,-513.42 816.98,-478.34"/>
<polygon fill="black" stroke="black" points="944.65,-660.46 955.19,-659.41 946.3,-653.65 944.65,-660.46"/>
<polygon fill="black" stroke="black" points="820.47,-478.16 816.5,-468.34 813.48,-478.5 820.47,-478.16"/>
</g>
<!-- set10&#45;&gt;set3 -->
<g id="edge21" class="edge">
<title>set10&#45;&gt;set3</title>
<path fill="none" stroke="black" d="M993.21,-637.7C1000.85,-583.08 1017.94,-460.9 1025.58,-406.29"/>
<polygon fill="black" stroke="black" points="989.7,-637.58 991.78,-647.97 996.63,-638.55 989.7,-637.58"/>
<polygon fill="black" stroke="black" points="1029.06,-406.69 1026.98,-396.31 1022.12,-405.73 1029.06,-406.69"/>
</g>
<!-- set10&#45;&gt;set4 -->
<g id="edge22" class="edge">
<title>set10&#45;&gt;set4</title>
<path fill="none" stroke="black" d="M1032.68,-656.09C1058.19,-648.59 1088.98,-635.23 1107.4,-612 1173.16,-529.05 1124.87,-390.13 1100.37,-332.87"/>
<polygon fill="black" stroke="black" points="1031.57,-652.76 1022.84,-658.77 1033.41,-659.52 1031.57,-652.76"/>
<polygon fill="black" stroke="black" points="1103.46,-331.22 1096.24,-323.47 1097.05,-334.04 1103.46,-331.22"/>
</g>
<!-- set10&#45;&gt;set8 -->
<g id="edge23" class="edge">
<title>set10&#45;&gt;set8</title>
<path fill="none" stroke="black" d="M1034.47,-658.68C1065.43,-652.07 1105.31,-638.72 1130.4,-612 1153.3,-587.61 1147.45,-573.09 1152.4,-540 1163.4,-466.31 1196.83,-406.76 1143.4,-288 1137.46,-274.8 1126.58,-263.22 1116.06,-254.28"/>
<polygon fill="black" stroke="black" points="1033.49,-655.31 1024.35,-660.67 1034.84,-662.17 1033.49,-655.31"/>
<polygon fill="black" stroke="black" points="1118.17,-251.48 1108.17,-247.97 1113.8,-256.95 1118.17,-251.48"/>
</g>
<!-- goal -->
<g id="node20" class="node">
<title>goal</title>
<ellipse fill="none" stroke="black" cx="1067.4" cy="-594" rx="30.59" ry="18"/>
<text text-anchor="middle" x="1067.4" y="-590.3" font-family="Times,serif" font-size="14.00">goal</text>
</g>
<!-- set10&#45;&gt;goal -->
<g id="edge24" class="edge">
<title>set10&#45;&gt;goal</title>
<path fill="none" stroke="black" d="M1013.96,-642.96C1023.48,-634.41 1034.34,-624.66 1043.78,-616.2"/>
<polygon fill="black" stroke="black" points="1011.43,-640.53 1006.32,-649.81 1016.1,-645.74 1011.43,-640.53"/>
<polygon fill="black" stroke="black" points="1046.2,-618.73 1051.3,-609.44 1041.52,-613.52 1046.2,-618.73"/>
</g>
<!-- set13 -->
<g id="node6" class="node">
<title>set13</title>
<ellipse fill="none" stroke="black" cx="468.4" cy="-522" rx="36.29" ry="18"/>
<text text-anchor="middle" x="468.4" y="-518.3" font-family="Times,serif" font-size="14.00">set13</text>
</g>
<!-- set11&#45;&gt;set13 -->
<g id="edge25" class="edge">
<title>set11&#45;&gt;set13</title>
<path fill="none" stroke="black" d="M425.69,-569.71C432.5,-562.26 440.04,-554.01 446.87,-546.54"/>
<polygon fill="black" stroke="black" points="423.08,-567.37 418.92,-577.12 428.25,-572.1 423.08,-567.37"/>
<polygon fill="black" stroke="black" points="449.77,-548.56 453.93,-538.82 444.6,-543.84 449.77,-548.56"/>
</g>
<!-- set11&#45;&gt;set17 -->
<g id="edge26" class="edge">
<title>set11&#45;&gt;set17</title>
<path fill="none" stroke="black" d="M405.93,-565.71C408.23,-524.65 412.56,-447.42 414.86,-406.33"/>
<polygon fill="black" stroke="black" points="402.42,-565.67 405.36,-575.85 409.41,-566.06 402.42,-565.67"/>
<polygon fill="black" stroke="black" points="418.37,-406.41 415.43,-396.23 411.38,-406.02 418.37,-406.41"/>
</g>
<!-- set11&#45;&gt;set2 -->
<g id="edge27" class="edge">
<title>set11&#45;&gt;set2</title>
<path fill="none" stroke="black" d="M384.92,-568.6C357.86,-533.07 310.01,-463.89 290.4,-396 284.51,-375.62 280.93,-351.86 278.87,-334.01"/>
<polygon fill="black" stroke="black" points="382.44,-571.12 391.32,-576.89 387.98,-566.84 382.44,-571.12"/>
<polygon fill="black" stroke="black" points="282.34,-333.58 277.8,-324.01 275.38,-334.32 282.34,-333.58"/>
</g>
<!-- set11&#45;&gt;set5 -->
<g id="edge28" class="edge">
<title>set11&#45;&gt;set5</title>
<path fill="none" stroke="black" d="M446.74,-582.74C469.99,-574.9 497.3,-561.64 513.4,-540 576.25,-455.48 561.69,-319.54 551.81,-262.06"/>
<polygon fill="black" stroke="black" points="445.56,-579.45 437.07,-585.78 447.66,-586.12 445.56,-579.45"/>
<polygon fill="black" stroke="black" points="555.21,-261.17 549.98,-251.95 548.32,-262.42 555.21,-261.17"/>
</g>
<!-- set6 -->
<g id="node15" class="node">
<title>set6</title>
<ellipse fill="none" stroke="black" cx="343.4" cy="-162" rx="30.59" ry="18"/>
<text text-anchor="middle" x="343.4" y="-158.3" font-family="Times,serif" font-size="14.00">set6</text>
</g>
<!-- set11&#45;&gt;set6 -->
<g id="edge29" class="edge">
<title>set11&#45;&gt;set6</title>
<path fill="none" stroke="black" d="M362.95,-582.13C307.05,-564.66 214.4,-524.62 214.4,-451 214.4,-451 214.4,-451 214.4,-305 214.4,-247.03 274.02,-202.25 312.2,-179.52"/>
<polygon fill="black" stroke="black" points="362.01,-585.5 372.6,-585.03 364.03,-578.8 362.01,-585.5"/>
<polygon fill="black" stroke="black" points="314.02,-182.51 320.93,-174.48 310.52,-176.45 314.02,-182.51"/>
</g>
<!-- set11&#45;&gt;set7 -->
<g id="edge30" class="edge">
<title>set11&#45;&gt;set7</title>
<path fill="none" stroke="black" d="M444.7,-581.31C519.08,-556.99 670.4,-493.44 670.4,-379 670.4,-379 670.4,-379 670.4,-233 670.4,-147.68 552.37,-111.23 488.82,-97.78"/>
<polygon fill="black" stroke="black" points="443.63,-577.98 435.17,-584.35 445.76,-584.65 443.63,-577.98"/>
<polygon fill="black" stroke="black" points="489.24,-94.3 478.74,-95.75 487.85,-101.16 489.24,-94.3"/>
</g>
<!-- set12&#45;&gt;set15 -->
<g id="edge31" class="edge">
<title>set12&#45;&gt;set15</title>
<path fill="none" stroke="black" d="M943.16,-577.86C971.77,-566.08 1011.27,-549.82 1039.82,-538.06"/>
<polygon fill="black" stroke="black" points="941.62,-574.71 933.71,-581.75 944.29,-581.18 941.62,-574.71"/>
<polygon fill="black" stroke="black" points="1041.52,-541.15 1049.43,-534.1 1038.85,-534.67 1041.52,-541.15"/>
</g>
<!-- set12&#45;&gt;set16 -->
<g id="edge32" class="edge">
<title>set12&#45;&gt;set16</title>
<path fill="none" stroke="black" d="M890.55,-568C874.15,-542.13 848.69,-501.94 832.27,-476.05"/>
<polygon fill="black" stroke="black" points="887.76,-570.14 896.07,-576.71 893.68,-566.39 887.76,-570.14"/>
<polygon fill="black" stroke="black" points="835.19,-474.11 826.88,-467.54 829.27,-477.86 835.19,-474.11"/>
</g>
<!-- set12&#45;&gt;set3 -->
<g id="edge33" class="edge">
<title>set12&#45;&gt;set3</title>
<path fill="none" stroke="black" d="M928.23,-569.54C935.82,-560.69 944.02,-550.27 950.4,-540 978.1,-495.37 974.43,-478.74 998.4,-432 1003.16,-422.71 1008.82,-412.76 1013.99,-404.03"/>
<polygon fill="black" stroke="black" points="925.49,-567.36 921.51,-577.18 930.74,-571.99 925.49,-567.36"/>
<polygon fill="black" stroke="black" points="1017,-405.82 1019.14,-395.45 1010.99,-402.22 1017,-405.82"/>
</g>
<!-- set12&#45;&gt;set4 -->
<g id="edge34" class="edge">
<title>set12&#45;&gt;set4</title>
<path fill="none" stroke="black" d="M909.62,-565.96C916.49,-518.98 936.51,-421.44 989.4,-360 1005.98,-340.74 1031.34,-327.35 1052.24,-318.85"/>
<polygon fill="black" stroke="black" points="906.14,-565.59 908.24,-575.98 913.07,-566.55 906.14,-565.59"/>
<polygon fill="black" stroke="black" points="1053.71,-322.03 1061.79,-315.17 1051.2,-315.5 1053.71,-322.03"/>
</g>
<!-- set12&#45;&gt;set8 -->
<g id="edge35" class="edge">
<title>set12&#45;&gt;set8</title>
<path fill="none" stroke="black" d="M903.96,-565.95C901.61,-537.39 898.4,-491.07 898.4,-451 898.4,-451 898.4,-451 898.4,-377 898.4,-301.6 995.6,-261.41 1050.95,-244.64"/>
<polygon fill="black" stroke="black" points="900.48,-566.3 904.82,-575.97 907.46,-565.71 900.48,-566.3"/>
<polygon fill="black" stroke="black" points="1052.15,-247.94 1060.77,-241.78 1050.19,-241.22 1052.15,-247.94"/>
</g>
<!-- set13&#45;&gt;set16 -->
<g id="edge36" class="edge">
<title>set13&#45;&gt;set16</title>
<path fill="none" stroke="black" d="M511.32,-512.37C578.09,-498.94 706.1,-473.19 773.1,-459.71"/>
<polygon fill="black" stroke="black" points="510.56,-508.95 501.45,-514.35 511.94,-515.81 510.56,-508.95"/>
<polygon fill="black" stroke="black" points="774.2,-463.06 783.31,-457.66 772.82,-456.2 774.2,-463.06"/>
</g>
<!-- set13&#45;&gt;set17 -->
<g id="edge37" class="edge">
<title>set13&#45;&gt;set17</title>
<path fill="none" stroke="black" d="M458.76,-494.69C449.42,-469.18 435.33,-430.7 426,-405.22"/>
<polygon fill="black" stroke="black" points="455.5,-495.97 462.23,-504.15 462.08,-493.56 455.5,-495.97"/>
<polygon fill="black" stroke="black" points="429.28,-404.01 422.56,-395.82 422.71,-406.42 429.28,-404.01"/>
</g>
<!-- set13&#45;&gt;set2 -->
<g id="edge38" class="edge">
<title>set13&#45;&gt;set2</title>
<path fill="none" stroke="black" d="M426.93,-509.92C402.71,-501.68 372.96,-488.31 352.4,-468 314.13,-430.21 292.77,-369.41 283.02,-334.34"/>
<polygon fill="black" stroke="black" points="426,-513.3 436.59,-513.03 428.14,-506.63 426,-513.3"/>
<polygon fill="black" stroke="black" points="286.31,-333.1 280.35,-324.34 279.54,-334.9 286.31,-333.1"/>
</g>
<!-- set13&#45;&gt;set5 -->
<g id="edge39" class="edge">
<title>set13&#45;&gt;set5</title>
<path fill="none" stroke="black" d="M482.56,-495.23C486.81,-486.74 491.19,-477.13 494.4,-468 519.84,-395.57 535.69,-305.97 542.51,-261.97"/>
<polygon fill="black" stroke="black" points="479.37,-493.77 477.88,-504.26 485.59,-496.99 479.37,-493.77"/>
<polygon fill="black" stroke="black" points="545.97,-262.46 544.01,-252.05 539.05,-261.41 545.97,-262.46"/>
</g>
<!-- set13&#45;&gt;set6 -->
<g id="edge40" class="edge">
<title>set13&#45;&gt;set6</title>
<path fill="none" stroke="black" d="M444.72,-498.57C421.78,-475.28 388.09,-436.63 371.4,-396 342.65,-326.02 340.87,-234.97 342.07,-190.24"/>
<polygon fill="black" stroke="black" points="442.49,-501.28 452.04,-505.85 447.42,-496.32 442.49,-501.28"/>
<polygon fill="black" stroke="black" points="345.57,-190.27 342.41,-180.15 338.57,-190.03 345.57,-190.27"/>
</g>
<!-- set13&#45;&gt;set7 -->
<g id="edge41" class="edge">
<title>set13&#45;&gt;set7</title>
<path fill="none" stroke="black" d="M467.91,-493.53C466.7,-431.28 462.98,-274.71 454.4,-144 453.85,-135.66 453.06,-126.61 452.28,-118.38"/>
<polygon fill="black" stroke="black" points="464.42,-493.76 468.1,-503.7 471.41,-493.63 464.42,-493.76"/>
<polygon fill="black" stroke="black" points="455.74,-117.77 451.27,-108.17 448.77,-118.46 455.74,-117.77"/>
</g>
<!-- set14&#45;&gt;set9 -->
<g id="edge42" class="edge">
<title>set14&#45;&gt;set9</title>
<path fill="none" stroke="black" d="M40.35,-421.99C44.17,-393.47 49.4,-347.17 49.4,-307 49.4,-307 49.4,-307 49.4,-161 49.4,-118.12 70.25,-72.02 85.29,-44.34"/>
<polygon fill="black" stroke="black" points="36.87,-421.61 38.97,-432 43.8,-422.57 36.87,-421.61"/>
<polygon fill="black" stroke="black" points="88.49,-45.8 90.32,-35.36 82.38,-42.37 88.49,-45.8"/>
</g>
<!-- set15&#45;&gt;set16 -->
<g id="edge43" class="edge">
<title>set15&#45;&gt;set16</title>
<path fill="none" stroke="black" d="M1035.38,-509.96C986.72,-496.86 906.07,-475.14 857.41,-462.04"/>
<polygon fill="black" stroke="black" points="1034.73,-513.41 1045.29,-512.63 1036.55,-506.65 1034.73,-513.41"/>
<polygon fill="black" stroke="black" points="858.1,-458.6 847.54,-459.38 856.28,-465.36 858.1,-458.6"/>
</g>
<!-- set15&#45;&gt;set3 -->
<g id="edge44" class="edge">
<title>set15&#45;&gt;set3</title>
<path fill="none" stroke="black" d="M1067.56,-494.31C1059.15,-468.9 1046.57,-430.87 1038.17,-405.52"/>
<polygon fill="black" stroke="black" points="1064.36,-495.76 1070.82,-504.15 1071,-493.56 1064.36,-495.76"/>
<polygon fill="black" stroke="black" points="1041.43,-404.22 1034.97,-395.82 1034.79,-406.42 1041.43,-404.22"/>
</g>
<!-- set15&#45;&gt;set4 -->
<g id="edge45" class="edge">
<title>set15&#45;&gt;set4</title>
<path fill="none" stroke="black" d="M1077.93,-493.71C1080.23,-452.65 1084.56,-375.42 1086.86,-334.33"/>
<polygon fill="black" stroke="black" points="1074.42,-493.67 1077.36,-503.85 1081.41,-494.06 1074.42,-493.67"/>
<polygon fill="black" stroke="black" points="1090.37,-334.41 1087.43,-324.23 1083.38,-334.02 1090.37,-334.41"/>
</g>
<!-- set15&#45;&gt;set8 -->
<g id="edge46" class="edge">
<title>set15&#45;&gt;set8</title>
<path fill="none" stroke="black" d="M1085.96,-494.56C1098.87,-457.18 1121.12,-386.47 1128.4,-324 1130.25,-308.11 1133.48,-303.17 1128.4,-288 1124.64,-276.79 1117.47,-266.05 1110.23,-257.21"/>
<polygon fill="black" stroke="black" points="1082.59,-493.59 1082.58,-504.19 1089.19,-495.91 1082.59,-493.59"/>
<polygon fill="black" stroke="black" points="1112.86,-254.9 1103.65,-249.66 1107.58,-259.5 1112.86,-254.9"/>
</g>
<!-- set16&#45;&gt;set17 -->
<g id="edge47" class="edge">
<title>set16&#45;&gt;set17</title>
<path fill="none" stroke="black" d="M772.34,-441.29C695.42,-427.83 537.48,-400.19 460.51,-386.72"/>
<polygon fill="black" stroke="black" points="772.18,-444.82 782.64,-443.09 773.39,-437.92 772.18,-444.82"/>
<polygon fill="black" stroke="black" points="460.66,-383.19 450.21,-384.92 459.45,-390.09 460.66,-383.19"/>
</g>
<!-- set16&#45;&gt;set2 -->
<g id="edge48" class="edge">
<title>set16&#45;&gt;set2</title>
<path fill="none" stroke="black" d="M775.07,-438.13C673.17,-411.34 411.08,-342.42 313.62,-316.79"/>
<polygon fill="black" stroke="black" points="774.47,-441.59 785.03,-440.75 776.25,-434.82 774.47,-441.59"/>
<polygon fill="black" stroke="black" points="314.47,-313.39 303.91,-314.23 312.69,-320.16 314.47,-313.39"/>
</g>
<!-- set16&#45;&gt;set3 -->
<g id="edge49" class="edge">
<title>set16&#45;&gt;set3</title>
<path fill="none" stroke="black" d="M855.59,-436.12C895.08,-423.14 955.49,-403.29 993.69,-390.73"/>
<polygon fill="black" stroke="black" points="854.42,-432.82 846.01,-439.27 856.61,-439.47 854.42,-432.82"/>
<polygon fill="black" stroke="black" points="994.96,-394 1003.37,-387.55 992.78,-387.35 994.96,-394"/>
</g>
<!-- set16&#45;&gt;set5 -->
<g id="edge50" class="edge">
<title>set16&#45;&gt;set5</title>
<path fill="none" stroke="black" d="M814.64,-421.55C810.83,-385.58 798.74,-322.97 760.4,-288 735.09,-264.92 640.58,-248.21 585.99,-240.24"/>
<polygon fill="black" stroke="black" points="811.18,-422.16 815.58,-431.8 818.15,-421.52 811.18,-422.16"/>
<polygon fill="black" stroke="black" points="586.36,-236.76 575.97,-238.81 585.37,-243.69 586.36,-236.76"/>
</g>
<!-- set16&#45;&gt;set8 -->
<g id="edge51" class="edge">
<title>set16&#45;&gt;set8</title>
<path fill="none" stroke="black" d="M820.35,-421.77C827.04,-385.79 844.03,-322.88 884.4,-288 930.37,-248.27 1002.54,-237.78 1047.58,-235.32"/>
<polygon fill="black" stroke="black" points="816.84,-421.57 818.59,-432.02 823.74,-422.75 816.84,-421.57"/>
<polygon fill="black" stroke="black" points="1047.75,-238.81 1057.58,-234.88 1047.44,-231.82 1047.75,-238.81"/>
</g>
<!-- set17&#45;&gt;set2 -->
<g id="edge52" class="edge">
<title>set17&#45;&gt;set2</title>
<path fill="none" stroke="black" d="M382.59,-360.1C359.91,-348.76 330.24,-333.92 308.03,-322.82"/>
<polygon fill="black" stroke="black" points="381.18,-363.3 391.69,-364.65 384.31,-357.04 381.18,-363.3"/>
<polygon fill="black" stroke="black" points="309.52,-319.65 299.01,-318.3 306.38,-325.91 309.52,-319.65"/>
</g>
<!-- set17&#45;&gt;set5 -->
<g id="edge53" class="edge">
<title>set17&#45;&gt;set5</title>
<path fill="none" stroke="black" d="M437.83,-353.58C462.07,-327.11 501.3,-284.26 525.37,-257.97"/>
<polygon fill="black" stroke="black" points="434.98,-351.52 430.81,-361.26 440.14,-356.25 434.98,-351.52"/>
<polygon fill="black" stroke="black" points="528.15,-260.12 532.32,-250.38 522.98,-255.39 528.15,-260.12"/>
</g>
<!-- set17&#45;&gt;set6 -->
<g id="edge54" class="edge">
<title>set17&#45;&gt;set6</title>
<path fill="none" stroke="black" d="M406.66,-350.19C403.66,-341.82 400.36,-332.54 397.4,-324 381.01,-276.75 362.63,-221.42 352.09,-189.47"/>
<polygon fill="black" stroke="black" points="403.46,-351.63 410.15,-359.85 410.05,-349.25 403.46,-351.63"/>
<polygon fill="black" stroke="black" points="355.41,-188.36 348.96,-179.96 348.76,-190.55 355.41,-188.36"/>
</g>
<!-- set17&#45;&gt;set7 -->
<g id="edge55" class="edge">
<title>set17&#45;&gt;set7</title>
<path fill="none" stroke="black" d="M419.55,-349.7C425.85,-295.08 439.95,-172.9 446.25,-118.29"/>
<polygon fill="black" stroke="black" points="416.03,-349.63 418.36,-359.97 422.99,-350.43 416.03,-349.63"/>
<polygon fill="black" stroke="black" points="449.73,-118.64 447.4,-108.31 442.78,-117.84 449.73,-118.64"/>
</g>
<!-- set2&#45;&gt;set5 -->
<g id="edge56" class="edge">
<title>set2&#45;&gt;set5</title>
<path fill="none" stroke="black" d="M313.46,-295.39C364.96,-282.04 457.64,-258.01 509.21,-244.64"/>
<polygon fill="black" stroke="black" points="312.57,-292.01 303.77,-297.9 314.33,-298.78 312.57,-292.01"/>
<polygon fill="black" stroke="black" points="510.15,-248.01 518.95,-242.12 508.39,-241.24 510.15,-248.01"/>
</g>
<!-- set2&#45;&gt;set6 -->
<g id="edge57" class="edge">
<title>set2&#45;&gt;set6</title>
<path fill="none" stroke="black" d="M288.51,-279.32C300.65,-253.6 319.21,-214.26 331.33,-188.58"/>
<polygon fill="black" stroke="black" points="285.32,-277.9 284.21,-288.43 291.65,-280.88 285.32,-277.9"/>
<polygon fill="black" stroke="black" points="334.53,-190 335.63,-179.46 328.2,-187.01 334.53,-190"/>
</g>
<!-- set2&#45;&gt;set7 -->
<g id="edge58" class="edge">
<title>set2&#45;&gt;set7</title>
<path fill="none" stroke="black" d="M273.22,-277.69C270.71,-242.66 271.84,-181.9 303.4,-144 329.51,-112.64 375.78,-99.83 409.24,-94.61"/>
<polygon fill="black" stroke="black" points="269.74,-278.02 274.09,-287.68 276.71,-277.42 269.74,-278.02"/>
<polygon fill="black" stroke="black" points="409.76,-98.07 419.18,-93.22 408.79,-91.14 409.76,-98.07"/>
</g>
<!-- set3&#45;&gt;set4 -->
<g id="edge59" class="edge">
<title>set3&#45;&gt;set4</title>
<path fill="none" stroke="black" d="M1049.08,-353.64C1055.43,-346.12 1062.46,-337.78 1068.8,-330.25"/>
<polygon fill="black" stroke="black" points="1046.26,-351.56 1042.49,-361.46 1051.61,-356.07 1046.26,-351.56"/>
<polygon fill="black" stroke="black" points="1071.57,-332.39 1075.34,-322.49 1066.22,-327.88 1071.57,-332.39"/>
</g>
<!-- set3&#45;&gt;set8 -->
<g id="edge60" class="edge">
<title>set3&#45;&gt;set8</title>
<path fill="none" stroke="black" d="M1032.06,-349.99C1034.59,-331.83 1039.4,-307.7 1048.4,-288 1053.26,-277.35 1060.56,-266.81 1067.6,-257.97"/>
<polygon fill="black" stroke="black" points="1028.59,-349.55 1030.82,-359.91 1035.54,-350.42 1028.59,-349.55"/>
<polygon fill="black" stroke="black" points="1070.47,-259.99 1074.17,-250.06 1065.09,-255.51 1070.47,-259.99"/>
</g>
<!-- set4&#45;&gt;set8 -->
<g id="edge61" class="edge">
<title>set4&#45;&gt;set8</title>
<path fill="none" stroke="black" d="M1088.4,-277.67C1088.4,-272.69 1088.4,-267.49 1088.4,-262.51"/>
<polygon fill="black" stroke="black" points="1084.9,-277.7 1088.4,-287.7 1091.9,-277.7 1084.9,-277.7"/>
<polygon fill="black" stroke="black" points="1091.9,-262.1 1088.4,-252.1 1084.9,-262.1 1091.9,-262.1"/>
</g>
<!-- set5&#45;&gt;set6 -->
<g id="edge62" class="edge">
<title>set5&#45;&gt;set6</title>
<path fill="none" stroke="black" d="M511.22,-220.87C474.22,-208.11 416.33,-188.15 379.13,-175.32"/>
<polygon fill="black" stroke="black" points="510.09,-224.18 520.69,-224.13 512.37,-217.57 510.09,-224.18"/>
<polygon fill="black" stroke="black" points="379.81,-171.86 369.22,-171.9 377.53,-178.47 379.81,-171.86"/>
</g>
<!-- set5&#45;&gt;set7 -->
<g id="edge63" class="edge">
<title>set5&#45;&gt;set7</title>
<path fill="none" stroke="black" d="M535.87,-207.15C527.78,-188.72 515.59,-163.8 501.4,-144 493.42,-132.87 483.1,-121.85 473.77,-112.76"/>
<polygon fill="black" stroke="black" points="532.68,-208.58 539.83,-216.4 539.11,-205.82 532.68,-208.58"/>
<polygon fill="black" stroke="black" points="475.9,-109.96 466.23,-105.63 471.09,-115.04 475.9,-109.96"/>
</g>
<!-- set6&#45;&gt;set7 -->
<g id="edge64" class="edge">
<title>set6&#45;&gt;set7</title>
<path fill="none" stroke="black" d="M371.89,-142.18C387.24,-132.05 406.11,-119.59 421.38,-109.5"/>
<polygon fill="black" stroke="black" points="369.75,-139.4 363.33,-147.83 373.61,-145.24 369.75,-139.4"/>
<polygon fill="black" stroke="black" points="423.49,-112.3 429.91,-103.87 419.63,-106.46 423.49,-112.3"/>
</g>
<!-- set7&#45;&gt;set9 -->
<g id="edge65" class="edge">
<title>set7&#45;&gt;set9</title>
<path fill="none" stroke="black" d="M411,-81.3C343.95,-67.85 206.24,-40.23 139.02,-26.75"/>
<polygon fill="black" stroke="black" points="410.34,-84.74 420.84,-83.27 411.72,-77.87 410.34,-84.74"/>
<polygon fill="black" stroke="black" points="139.36,-23.24 128.86,-24.71 137.98,-30.11 139.36,-23.24"/>
</g>
<!-- start -->
<g id="node19" class="node">
<title>start</title>
<ellipse fill="none" stroke="black" cx="1048.4" cy="-738" rx="33.29" ry="18"/>
<text text-anchor="middle" x="1048.4" y="-734.3" font-family="Times,serif" font-size="14.00">start</text>
</g>
</g>
</svg>
