<?xml version="1.0" encoding="UTF-8" standalone="no"?>
<!DOCTYPE svg PUBLIC "-//W3C//DTD SVG 1.1//EN"
 "http://www.w3.org/Graphics/SVG/1.1/DTD/svg11.dtd">
<!-- Generated by graphviz version 2.43.0 (0)
 -->
<!-- Title: IRIS region connectivity Pages: 1 -->
<svg width="1392pt" height="764pt"
 viewBox="0.00 0.00 1392.40 764.00" xmlns="http://www.w3.org/2000/svg" xmlns:xlink="http://www.w3.org/1999/xlink">
<g id="graph0" class="graph" transform="scale(1 1) rotate(0) translate(4 760)">
<title>IRIS region connectivity</title>
<polygon fill="white" stroke="transparent" points="-4,4 -4,-760 1388.4,-760 1388.4,4 -4,4"/>
<!-- set0 -->
<g id="node1" class="node">
<title>set0</title>
<ellipse fill="none" stroke="black" cx="252.4" cy="-666" rx="30.59" ry="18"/>
<text text-anchor="middle" x="252.4" y="-662.3" font-family="Times,serif" font-size="14.00">set0</text>
</g>
<!-- set11 -->
<g id="node4" class="node">
<title>set11</title>
<ellipse fill="none" stroke="black" cx="366.4" cy="-594" rx="36.29" ry="18"/>
<text text-anchor="middle" x="366.4" y="-590.3" font-family="Times,serif" font-size="14.00">set11</text>
</g>
<!-- set0&#45;&gt;set11 -->
<g id="edge1" class="edge">
<title>set0&#45;&gt;set11</title>
<path fill="none" stroke="black" d="M281.3,-647.25C297.8,-637.12 318.49,-624.42 335.33,-614.07"/>
<polygon fill="black" stroke="black" points="279.47,-644.27 272.78,-652.49 283.13,-650.24 279.47,-644.27"/>
<polygon fill="black" stroke="black" points="337.56,-616.82 344.25,-608.6 333.89,-610.85 337.56,-616.82"/>
</g>
<!-- set14 -->
<g id="node7" class="node">
<title>set14</title>
<ellipse fill="none" stroke="black" cx="36.4" cy="-162" rx="36.29" ry="18"/>
<text text-anchor="middle" x="36.4" y="-158.3" font-family="Times,serif" font-size="14.00">set14</text>
</g>
<!-- set0&#45;&gt;set14 -->
<g id="edge2" class="edge">
<title>set0&#45;&gt;set14</title>
<path fill="none" stroke="black" d="M211.67,-662.74C174.04,-658.46 119.16,-646.29 86.4,-612 58.1,-582.38 62.4,-563.97 62.4,-523 62.4,-523 62.4,-523 62.4,-305 62.4,-264.33 51.95,-218.17 44.3,-189.81"/>
<polygon fill="black" stroke="black" points="211.49,-666.24 221.79,-663.75 212.19,-659.27 211.49,-666.24"/>
<polygon fill="black" stroke="black" points="47.59,-188.56 41.53,-179.87 40.84,-190.44 47.59,-188.56"/>
</g>
<!-- set17 -->
<g id="node10" class="node">
<title>set17</title>
<ellipse fill="none" stroke="black" cx="442.4" cy="-378" rx="36.29" ry="18"/>
<text text-anchor="middle" x="442.4" y="-374.3" font-family="Times,serif" font-size="14.00">set17</text>
</g>
<!-- set0&#45;&gt;set17 -->
<g id="edge3" class="edge">
<title>set0&#45;&gt;set17</title>
<path fill="none" stroke="black" d="M265.98,-639.72C289.94,-595.93 342.2,-503.75 395.4,-432 402.99,-421.76 412.14,-411.13 420.34,-402.09"/>
<polygon fill="black" stroke="black" points="262.88,-638.1 261.18,-648.55 269.03,-641.44 262.88,-638.1"/>
<polygon fill="black" stroke="black" points="423.02,-404.34 427.23,-394.62 417.88,-399.59 423.02,-404.34"/>
</g>
<!-- set2 -->
<g id="node11" class="node">
<title>set2</title>
<ellipse fill="none" stroke="black" cx="537.4" cy="-306" rx="30.59" ry="18"/>
<text text-anchor="middle" x="537.4" y="-302.3" font-family="Times,serif" font-size="14.00">set2</text>
</g>
<!-- set0&#45;&gt;set2 -->
<g id="edge4" class="edge">
<title>set0&#45;&gt;set2</title>
<path fill="none" stroke="black" d="M291.59,-658.94C388.65,-642.83 632.4,-595.2 632.4,-523 632.4,-523 632.4,-523 632.4,-449 632.4,-398.84 590.95,-352.99 562.8,-327.64"/>
<polygon fill="black" stroke="black" points="290.89,-655.51 281.58,-660.58 292.02,-662.42 290.89,-655.51"/>
<polygon fill="black" stroke="black" points="565.1,-325 555.27,-321.05 560.49,-330.26 565.1,-325"/>
</g>
<!-- set5 -->
<g id="node14" class="node">
<title>set5</title>
<ellipse fill="none" stroke="black" cx="267.4" cy="-234" rx="30.59" ry="18"/>
<text text-anchor="middle" x="267.4" y="-230.3" font-family="Times,serif" font-size="14.00">set5</text>
</g>
<!-- set0&#45;&gt;set5 -->
<g id="edge5" class="edge">
<title>set0&#45;&gt;set5</title>
<path fill="none" stroke="black" d="M231.13,-642.26C208.64,-615.76 176.4,-569.63 176.4,-523 176.4,-523 176.4,-523 176.4,-377 176.4,-327.7 215.76,-281.82 242.71,-256.19"/>
<polygon fill="black" stroke="black" points="228.53,-644.6 237.74,-649.83 233.8,-640 228.53,-644.6"/>
<polygon fill="black" stroke="black" points="245.3,-258.56 250.28,-249.21 240.56,-253.42 245.3,-258.56"/>
</g>
<!-- set7 -->
<g id="node16" class="node">
<title>set7</title>
<ellipse fill="none" stroke="black" cx="516.4" cy="-90" rx="30.59" ry="18"/>
<text text-anchor="middle" x="516.4" y="-86.3" font-family="Times,serif" font-size="14.00">set7</text>
</g>
<!-- set0&#45;&gt;set7 -->
<g id="edge6" class="edge">
<title>set0&#45;&gt;set7</title>
<path fill="none" stroke="black" d="M293.5,-664.65C353.79,-662.65 468.44,-653.19 555.4,-612 708.59,-539.44 784.4,-476.51 784.4,-307 784.4,-307 784.4,-307 784.4,-233 784.4,-131.16 631.44,-102.15 556.63,-94.05"/>
<polygon fill="black" stroke="black" points="293.15,-661.15 283.25,-664.93 293.34,-668.15 293.15,-661.15"/>
<polygon fill="black" stroke="black" points="556.92,-90.56 546.62,-93.04 556.22,-97.53 556.92,-90.56"/>
</g>
<!-- set9 -->
<g id="node18" class="node">
<title>set9</title>
<ellipse fill="none" stroke="black" cx="100.4" cy="-18" rx="30.59" ry="18"/>
<text text-anchor="middle" x="100.4" y="-14.3" font-family="Times,serif" font-size="14.00">set9</text>
</g>
<!-- set0&#45;&gt;set9 -->
<g id="edge7" class="edge">
<title>set0&#45;&gt;set9</title>
<path fill="none" stroke="black" d="M218.27,-651.21C173.45,-630.57 100.4,-587.09 100.4,-523 100.4,-523 100.4,-523 100.4,-161 100.4,-121 100.4,-74.65 100.4,-46.08"/>
<polygon fill="black" stroke="black" points="217.08,-654.51 227.64,-655.38 219.93,-648.11 217.08,-654.51"/>
<polygon fill="black" stroke="black" points="103.9,-46.05 100.4,-36.05 96.9,-46.05 103.9,-46.05"/>
</g>
<!-- set1 -->
<g id="node2" class="node">
<title>set1</title>
<ellipse fill="none" stroke="black" cx="951.4" cy="-738" rx="30.59" ry="18"/>
<text text-anchor="middle" x="951.4" y="-734.3" font-family="Times,serif" font-size="14.00">set1</text>
</g>
<!-- set10 -->
<g id="node3" class="node">
<title>set10</title>
<ellipse fill="none" stroke="black" cx="1066.4" cy="-666" rx="36.29" ry="18"/>
<text text-anchor="middle" x="1066.4" y="-662.3" font-family="Times,serif" font-size="14.00">set10</text>
</g>
<!-- set1&#45;&gt;set10 -->
<g id="edge8" class="edge">
<title>set1&#45;&gt;set10</title>
<path fill="none" stroke="black" d="M980.61,-719.22C997.37,-709.02 1018.4,-696.22 1035.44,-685.84"/>
<polygon fill="black" stroke="black" points="978.68,-716.3 971.96,-724.49 982.32,-722.28 978.68,-716.3"/>
<polygon fill="black" stroke="black" points="1037.73,-688.55 1044.45,-680.36 1034.09,-682.57 1037.73,-688.55"/>
</g>
<!-- set12 -->
<g id="node5" class="node">
<title>set12</title>
<ellipse fill="none" stroke="black" cx="1002.4" cy="-594" rx="36.29" ry="18"/>
<text text-anchor="middle" x="1002.4" y="-590.3" font-family="Times,serif" font-size="14.00">set12</text>
</g>
<!-- set1&#45;&gt;set12 -->
<g id="edge9" class="edge">
<title>set1&#45;&gt;set12</title>
<path fill="none" stroke="black" d="M960.85,-710.69C969.97,-685.29 983.71,-647.04 992.86,-621.56"/>
<polygon fill="black" stroke="black" points="957.53,-709.56 957.45,-720.15 964.12,-711.92 957.53,-709.56"/>
<polygon fill="black" stroke="black" points="996.27,-622.42 996.35,-611.82 989.68,-620.05 996.27,-622.42"/>
</g>
<!-- set15 -->
<g id="node8" class="node">
<title>set15</title>
<ellipse fill="none" stroke="black" cx="1133.4" cy="-522" rx="36.29" ry="18"/>
<text text-anchor="middle" x="1133.4" y="-518.3" font-family="Times,serif" font-size="14.00">set15</text>
</g>
<!-- set1&#45;&gt;set15 -->
<g id="edge10" class="edge">
<title>set1&#45;&gt;set15</title>
<path fill="none" stroke="black" d="M984.19,-722.72C986.62,-721.77 989.04,-720.85 991.4,-720 1043.77,-701.08 1075.2,-726.31 1111.4,-684 1143.3,-646.7 1142,-585.72 1137.89,-550.49"/>
<polygon fill="black" stroke="black" points="982.86,-719.48 974.91,-726.5 985.5,-725.97 982.86,-719.48"/>
<polygon fill="black" stroke="black" points="1141.34,-549.89 1136.56,-540.44 1134.4,-550.81 1141.34,-549.89"/>
</g>
<!-- set16 -->
<g id="node9" class="node">
<title>set16</title>
<ellipse fill="none" stroke="black" cx="822.4" cy="-450" rx="36.29" ry="18"/>
<text text-anchor="middle" x="822.4" y="-446.3" font-family="Times,serif" font-size="14.00">set16</text>
</g>
<!-- set1&#45;&gt;set16 -->
<g id="edge11" class="edge">
<title>set1&#45;&gt;set16</title>
<path fill="none" stroke="black" d="M921.87,-718.95C909.28,-709.89 895.44,-697.88 886.4,-684 843.58,-618.27 829.16,-524.24 824.51,-478.33"/>
<polygon fill="black" stroke="black" points="920.08,-721.97 930.31,-724.74 924.04,-716.19 920.08,-721.97"/>
<polygon fill="black" stroke="black" points="827.98,-477.88 823.56,-468.25 821.01,-478.53 827.98,-477.88"/>
</g>
<!-- set1&#45;&gt;set17 -->
<g id="edge12" class="edge">
<title>set1&#45;&gt;set17</title>
<path fill="none" stroke="black" d="M910.43,-736.77C857.04,-734.71 762.46,-724.97 694.4,-684 575.66,-612.53 487.55,-464.26 455.55,-404.64"/>
<polygon fill="black" stroke="black" points="910.44,-740.27 920.54,-737.08 910.66,-733.27 910.44,-740.27"/>
<polygon fill="black" stroke="black" points="458.5,-402.74 450.73,-395.54 452.31,-406.01 458.5,-402.74"/>
</g>
<!-- set1&#45;&gt;set2 -->
<g id="edge13" class="edge">
<title>set1&#45;&gt;set2</title>
<path fill="none" stroke="black" d="M911.53,-732.1C842.58,-721.17 708.4,-687.95 708.4,-595 708.4,-595 708.4,-595 708.4,-449 708.4,-379.36 623.42,-337.34 573.27,-318.6"/>
<polygon fill="black" stroke="black" points="911.19,-735.59 921.6,-733.62 912.23,-728.67 911.19,-735.59"/>
<polygon fill="black" stroke="black" points="574.34,-315.27 563.74,-315.16 571.96,-321.85 574.34,-315.27"/>
</g>
<!-- set3 -->
<g id="node12" class="node">
<title>set3</title>
<ellipse fill="none" stroke="black" cx="979.4" cy="-378" rx="30.59" ry="18"/>
<text text-anchor="middle" x="979.4" y="-374.3" font-family="Times,serif" font-size="14.00">set3</text>
</g>
<!-- set1&#45;&gt;set3 -->
<g id="edge14" class="edge">
<title>set1&#45;&gt;set3</title>
<path fill="none" stroke="black" d="M951.81,-709.2C952.43,-677.08 953.93,-622.66 957.4,-576 961.91,-515.25 970.7,-444.31 975.7,-406.33"/>
<polygon fill="black" stroke="black" points="948.3,-709.52 951.62,-719.58 955.3,-709.65 948.3,-709.52"/>
<polygon fill="black" stroke="black" points="979.21,-406.46 977.06,-396.09 972.27,-405.54 979.21,-406.46"/>
</g>
<!-- set4 -->
<g id="node13" class="node">
<title>set4</title>
<ellipse fill="none" stroke="black" cx="1194.4" cy="-306" rx="30.59" ry="18"/>
<text text-anchor="middle" x="1194.4" y="-302.3" font-family="Times,serif" font-size="14.00">set4</text>
</g>
<!-- set1&#45;&gt;set4 -->
<g id="edge15" class="edge">
<title>set1&#45;&gt;set4</title>
<path fill="none" stroke="black" d="M984.15,-722.6C986.58,-721.68 989.02,-720.8 991.4,-720 1120.19,-676.71 1270.4,-730.88 1270.4,-595 1270.4,-595 1270.4,-595 1270.4,-449 1270.4,-402.37 1238.15,-356.24 1215.67,-329.74"/>
<polygon fill="black" stroke="black" points="982.84,-719.35 974.85,-726.32 985.44,-725.85 982.84,-719.35"/>
<polygon fill="black" stroke="black" points="1218.27,-327.4 1209.05,-322.17 1213,-332 1218.27,-327.4"/>
</g>
<!-- set1&#45;&gt;set5 -->
<g id="edge16" class="edge">
<title>set1&#45;&gt;set5</title>
<path fill="none" stroke="black" d="M910.3,-736.05C775.22,-732.6 345.94,-719.08 212.4,-684 122.98,-660.51 24.4,-687.45 24.4,-595 24.4,-595 24.4,-595 24.4,-521 24.4,-391.52 170.83,-290.72 236.35,-252.1"/>
<polygon fill="black" stroke="black" points="910.53,-739.55 920.62,-736.3 910.71,-732.55 910.53,-739.55"/>
<polygon fill="black" stroke="black" points="238.5,-254.89 245.4,-246.85 235,-248.84 238.5,-254.89"/>
</g>
<!-- set8 -->
<g id="node17" class="node">
<title>set8</title>
<ellipse fill="none" stroke="black" cx="1194.4" cy="-234" rx="30.59" ry="18"/>
<text text-anchor="middle" x="1194.4" y="-230.3" font-family="Times,serif" font-size="14.00">set8</text>
</g>
<!-- set1&#45;&gt;set8 -->
<g id="edge17" class="edge">
<title>set1&#45;&gt;set8</title>
<path fill="none" stroke="black" d="M983.86,-722.37C986.38,-721.49 988.92,-720.69 991.4,-720 1168.03,-671.07 1384.4,-778.29 1384.4,-595 1384.4,-595 1384.4,-595 1384.4,-377 1384.4,-301.6 1287.2,-261.41 1231.84,-244.64"/>
<polygon fill="black" stroke="black" points="982.37,-719.2 974.29,-726.05 984.88,-725.73 982.37,-719.2"/>
<polygon fill="black" stroke="black" points="1232.6,-241.22 1222.02,-241.78 1230.64,-247.94 1232.6,-241.22"/>
</g>
<!-- set10&#45;&gt;set12 -->
<g id="edge18" class="edge">
<title>set10&#45;&gt;set12</title>
<path fill="none" stroke="black" d="M1045.11,-641.71C1038.29,-634.26 1030.75,-626.01 1023.92,-618.54"/>
<polygon fill="black" stroke="black" points="1042.54,-644.1 1051.87,-649.12 1047.71,-639.37 1042.54,-644.1"/>
<polygon fill="black" stroke="black" points="1026.19,-615.84 1016.86,-610.82 1021.03,-620.56 1026.19,-615.84"/>
</g>
<!-- set10&#45;&gt;set15 -->
<g id="edge19" class="edge">
<title>set10&#45;&gt;set15</title>
<path fill="none" stroke="black" d="M1078.63,-639.07C1090.71,-613.46 1109.08,-574.53 1121.16,-548.93"/>
<polygon fill="black" stroke="black" points="1075.45,-637.62 1074.35,-648.15 1081.78,-640.6 1075.45,-637.62"/>
<polygon fill="black" stroke="black" points="1124.36,-550.36 1125.46,-539.82 1118.03,-547.38 1124.36,-550.36"/>
</g>
<!-- set10&#45;&gt;set16 -->
<g id="edge20" class="edge">
<title>set10&#45;&gt;set16</title>
<path fill="none" stroke="black" d="M1028.78,-650.48C1006.92,-641.14 979.44,-627.82 957.4,-612 904.62,-574.12 859.94,-511.03 837.63,-476.14"/>
<polygon fill="black" stroke="black" points="1027.5,-653.74 1038.08,-654.36 1030.19,-647.28 1027.5,-653.74"/>
<polygon fill="black" stroke="black" points="840.49,-474.1 832.2,-467.5 834.56,-477.82 840.49,-474.1"/>
</g>
<!-- set10&#45;&gt;set3 -->
<g id="edge21" class="edge">
<title>set10&#45;&gt;set3</title>
<path fill="none" stroke="black" d="M1061.44,-637.59C1058.02,-619.88 1053.08,-596.42 1047.4,-576 1030.11,-513.87 1003.93,-442.76 989.62,-405.29"/>
<polygon fill="black" stroke="black" points="1058.07,-638.61 1063.37,-647.79 1064.95,-637.31 1058.07,-638.61"/>
<polygon fill="black" stroke="black" points="992.77,-403.73 985.92,-395.65 986.24,-406.24 992.77,-403.73"/>
</g>
<!-- set10&#45;&gt;set4 -->
<g id="edge22" class="edge">
<title>set10&#45;&gt;set4</title>
<path fill="none" stroke="black" d="M1092.21,-643.51C1118.04,-620.56 1156.92,-581.81 1178.4,-540 1215.43,-467.93 1217.12,-440.45 1207.4,-360 1206.36,-351.4 1204.4,-342.19 1202.32,-333.89"/>
<polygon fill="black" stroke="black" points="1089.88,-640.89 1084.65,-650.11 1094.49,-646.17 1089.88,-640.89"/>
<polygon fill="black" stroke="black" points="1205.64,-332.75 1199.67,-323.99 1198.87,-334.56 1205.64,-332.75"/>
</g>
<!-- set10&#45;&gt;set8 -->
<g id="edge23" class="edge">
<title>set10&#45;&gt;set8</title>
<path fill="none" stroke="black" d="M1101.15,-648.48C1118.15,-639.3 1138.18,-626.75 1153.4,-612 1180.84,-585.4 1184.54,-574.77 1200.4,-540 1247.74,-436.19 1294.03,-393 1249.4,-288 1243.73,-274.68 1232.9,-263.08 1222.33,-254.16"/>
<polygon fill="black" stroke="black" points="1099.3,-645.5 1092.06,-653.23 1102.54,-651.7 1099.3,-645.5"/>
<polygon fill="black" stroke="black" points="1224.41,-251.34 1214.39,-247.87 1220.06,-256.82 1224.41,-251.34"/>
</g>
<!-- set13 -->
<g id="node6" class="node">
<title>set13</title>
<ellipse fill="none" stroke="black" cx="430.4" cy="-522" rx="36.29" ry="18"/>
<text text-anchor="middle" x="430.4" y="-518.3" font-family="Times,serif" font-size="14.00">set13</text>
</g>
<!-- set11&#45;&gt;set13 -->
<g id="edge24" class="edge">
<title>set11&#45;&gt;set13</title>
<path fill="none" stroke="black" d="M387.69,-569.71C394.5,-562.26 402.04,-554.01 408.87,-546.54"/>
<polygon fill="black" stroke="black" points="385.08,-567.37 380.92,-577.12 390.25,-572.1 385.08,-567.37"/>
<polygon fill="black" stroke="black" points="411.77,-548.56 415.93,-538.82 406.6,-543.84 411.77,-548.56"/>
</g>
<!-- set11&#45;&gt;set17 -->
<g id="edge25" class="edge">
<title>set11&#45;&gt;set17</title>
<path fill="none" stroke="black" d="M370.59,-565.97C373.74,-548.11 378.68,-524.35 385.4,-504 397.15,-468.41 415.95,-429.42 428.72,-404.6"/>
<polygon fill="black" stroke="black" points="367.11,-565.54 368.9,-575.98 374.02,-566.7 367.11,-565.54"/>
<polygon fill="black" stroke="black" points="431.94,-406 433.46,-395.51 425.73,-402.77 431.94,-406"/>
</g>
<!-- set11&#45;&gt;set2 -->
<g id="edge26" class="edge">
<title>set11&#45;&gt;set2</title>
<path fill="none" stroke="black" d="M407.87,-582.06C430.83,-573.98 458.13,-560.72 475.4,-540 525.98,-479.28 535.68,-381.4 537.28,-334.19"/>
<polygon fill="black" stroke="black" points="406.73,-578.74 398.33,-585.2 408.93,-585.39 406.73,-578.74"/>
<polygon fill="black" stroke="black" points="540.78,-334.2 537.52,-324.12 533.78,-334.03 540.78,-334.2"/>
</g>
<!-- set11&#45;&gt;set5 -->
<g id="edge27" class="edge">
<title>set11&#45;&gt;set5</title>
<path fill="none" stroke="black" d="M329.69,-578.01C284.71,-556.91 214.4,-513.88 214.4,-451 214.4,-451 214.4,-451 214.4,-377 214.4,-333.92 236.07,-287.87 251.7,-260.27"/>
<polygon fill="black" stroke="black" points="328.32,-581.23 338.87,-582.18 331.21,-574.86 328.32,-581.23"/>
<polygon fill="black" stroke="black" points="254.91,-261.71 256.93,-251.31 248.86,-258.18 254.91,-261.71"/>
</g>
<!-- set6 -->
<g id="node15" class="node">
<title>set6</title>
<ellipse fill="none" stroke="black" cx="391.4" cy="-162" rx="30.59" ry="18"/>
<text text-anchor="middle" x="391.4" y="-158.3" font-family="Times,serif" font-size="14.00">set6</text>
</g>
<!-- set11&#45;&gt;set6 -->
<g id="edge28" class="edge">
<title>set11&#45;&gt;set6</title>
<path fill="none" stroke="black" d="M366.92,-565.5C368.29,-503.2 372.68,-346.52 384.4,-216 385.16,-207.55 386.26,-198.38 387.38,-190.08"/>
<polygon fill="black" stroke="black" points="363.42,-565.61 366.71,-575.68 370.42,-565.75 363.42,-565.61"/>
<polygon fill="black" stroke="black" points="390.85,-190.53 388.76,-180.15 383.91,-189.57 390.85,-190.53"/>
</g>
<!-- set11&#45;&gt;set7 -->
<g id="edge29" class="edge">
<title>set11&#45;&gt;set7</title>
<path fill="none" stroke="black" d="M407.93,-582.28C435.6,-573.8 471.8,-560.02 499.4,-540 566.83,-491.08 591.04,-474.33 619.4,-396 658.27,-288.64 628.82,-241.5 569.4,-144 562.13,-132.08 551.64,-120.84 541.91,-111.8"/>
<polygon fill="black" stroke="black" points="406.76,-578.98 398.16,-585.17 408.74,-585.69 406.76,-578.98"/>
<polygon fill="black" stroke="black" points="544.14,-109.1 534.35,-105.06 539.48,-114.32 544.14,-109.1"/>
</g>
<!-- set12&#45;&gt;set15 -->
<g id="edge30" class="edge">
<title>set12&#45;&gt;set15</title>
<path fill="none" stroke="black" d="M1035.19,-575.48C1055.1,-564.84 1080.43,-551.3 1100.38,-540.64"/>
<polygon fill="black" stroke="black" points="1033.29,-572.52 1026.12,-580.32 1036.59,-578.7 1033.29,-572.52"/>
<polygon fill="black" stroke="black" points="1102.24,-543.62 1109.41,-535.82 1098.94,-537.44 1102.24,-543.62"/>
</g>
<!-- set12&#45;&gt;set16 -->
<g id="edge31" class="edge">
<title>set12&#45;&gt;set16</title>
<path fill="none" stroke="black" d="M975.4,-572.05C962.9,-562.33 947.87,-550.6 934.4,-540 905.02,-516.88 871.47,-490.18 848.81,-472.1"/>
<polygon fill="black" stroke="black" points="973.56,-575.05 983.6,-578.42 977.85,-569.52 973.56,-575.05"/>
<polygon fill="black" stroke="black" points="850.98,-469.36 840.98,-465.86 846.62,-474.83 850.98,-469.36"/>
</g>
<!-- set12&#45;&gt;set3 -->
<g id="edge32" class="edge">
<title>set12&#45;&gt;set3</title>
<path fill="none" stroke="black" d="M998.51,-565.67C995,-540.38 989.88,-501.71 986.4,-468 984.26,-447.32 982.44,-423.87 981.19,-406.24"/>
<polygon fill="black" stroke="black" points="995.05,-566.22 999.9,-575.64 1001.98,-565.25 995.05,-566.22"/>
<polygon fill="black" stroke="black" points="984.67,-405.82 980.49,-396.08 977.69,-406.3 984.67,-405.82"/>
</g>
<!-- set12&#45;&gt;set4 -->
<g id="edge33" class="edge">
<title>set12&#45;&gt;set4</title>
<path fill="none" stroke="black" d="M1016,-566.8C1033.2,-534.34 1064.32,-477.73 1095.4,-432 1120.7,-394.76 1153.8,-354.4 1174.59,-329.9"/>
<polygon fill="black" stroke="black" points="1012.69,-565.58 1011.13,-576.06 1018.88,-568.84 1012.69,-565.58"/>
<polygon fill="black" stroke="black" points="1177.31,-332.11 1181.14,-322.23 1171.98,-327.56 1177.31,-332.11"/>
</g>
<!-- set12&#45;&gt;set8 -->
<g id="edge34" class="edge">
<title>set12&#45;&gt;set8</title>
<path fill="none" stroke="black" d="M984.43,-568.65C954.29,-524.57 900.48,-429.64 939.4,-360 983.39,-281.27 1094.7,-251.23 1154.67,-240.5"/>
<polygon fill="black" stroke="black" points="981.68,-570.83 990.29,-577.01 987.42,-566.81 981.68,-570.83"/>
<polygon fill="black" stroke="black" points="1155.27,-243.95 1164.54,-238.82 1154.1,-237.04 1155.27,-243.95"/>
</g>
<!-- set13&#45;&gt;set16 -->
<g id="edge35" class="edge">
<title>set13&#45;&gt;set16</title>
<path fill="none" stroke="black" d="M474.26,-513.17C549.66,-499.7 703.01,-472.32 778.46,-458.85"/>
<polygon fill="black" stroke="black" points="473.39,-509.77 464.16,-514.97 474.62,-516.66 473.39,-509.77"/>
<polygon fill="black" stroke="black" points="779.35,-462.24 788.58,-457.04 778.12,-455.35 779.35,-462.24"/>
</g>
<!-- set13&#45;&gt;set17 -->
<g id="edge36" class="edge">
<title>set13&#45;&gt;set17</title>
<path fill="none" stroke="black" d="M432.71,-493.68C434.83,-468.49 437.98,-431.3 440.1,-406.16"/>
<polygon fill="black" stroke="black" points="429.2,-493.61 431.84,-503.87 436.17,-494.2 429.2,-493.61"/>
<polygon fill="black" stroke="black" points="443.59,-406.45 440.94,-396.19 436.61,-405.86 443.59,-406.45"/>
</g>
<!-- set13&#45;&gt;set2 -->
<g id="edge37" class="edge">
<title>set13&#45;&gt;set2</title>
<path fill="none" stroke="black" d="M443.31,-495.17C463.95,-453.9 504.12,-373.56 524.65,-332.5"/>
<polygon fill="black" stroke="black" points="440.13,-493.7 438.79,-504.21 446.4,-496.83 440.13,-493.7"/>
<polygon fill="black" stroke="black" points="527.84,-333.93 529.19,-323.42 521.58,-330.8 527.84,-333.93"/>
</g>
<!-- set13&#45;&gt;set5 -->
<g id="edge38" class="edge">
<title>set13&#45;&gt;set5</title>
<path fill="none" stroke="black" d="M410.83,-496.79C404.04,-487.95 396.58,-477.73 390.4,-468 344.44,-395.68 299.88,-304.44 279.28,-260.69"/>
<polygon fill="black" stroke="black" points="408.16,-499.06 417.08,-504.78 413.68,-494.75 408.16,-499.06"/>
<polygon fill="black" stroke="black" points="282.44,-259.18 275.03,-251.61 276.1,-262.15 282.44,-259.18"/>
</g>
<!-- set13&#45;&gt;set6 -->
<g id="edge39" class="edge">
<title>set13&#45;&gt;set6</title>
<path fill="none" stroke="black" d="M421.43,-494.34C413.46,-469.28 402.34,-430.57 397.4,-396 386.84,-322.14 388.38,-233.81 390.06,-190.17"/>
<polygon fill="black" stroke="black" points="418.1,-495.44 424.51,-503.87 424.76,-493.28 418.1,-495.44"/>
<polygon fill="black" stroke="black" points="393.57,-190.21 390.49,-180.07 386.57,-189.91 393.57,-190.21"/>
</g>
<!-- set13&#45;&gt;set7 -->
<g id="edge40" class="edge">
<title>set13&#45;&gt;set7</title>
<path fill="none" stroke="black" d="M455.1,-499.09C490.72,-465.6 554.68,-397.75 577.4,-324 600.56,-248.79 556.7,-158.25 531.84,-115.55"/>
<polygon fill="black" stroke="black" points="452.51,-496.73 447.54,-506.09 457.26,-501.87 452.51,-496.73"/>
<polygon fill="black" stroke="black" points="534.84,-113.75 526.71,-106.95 528.83,-117.33 534.84,-113.75"/>
</g>
<!-- set14&#45;&gt;set9 -->
<g id="edge41" class="edge">
<title>set14&#45;&gt;set9</title>
<path fill="none" stroke="black" d="M48.26,-134.69C59.75,-109.18 77.09,-70.7 88.58,-45.22"/>
<polygon fill="black" stroke="black" points="44.91,-133.6 43.99,-144.15 51.29,-136.47 44.91,-133.6"/>
<polygon fill="black" stroke="black" points="91.9,-46.38 92.81,-35.82 85.51,-43.5 91.9,-46.38"/>
</g>
<!-- set15&#45;&gt;set16 -->
<g id="edge42" class="edge">
<title>set15&#45;&gt;set16</title>
<path fill="none" stroke="black" d="M1091,-511.46C1031.5,-498.07 923.88,-473.84 864.52,-460.48"/>
<polygon fill="black" stroke="black" points="1090.47,-514.93 1100.99,-513.71 1092.01,-508.1 1090.47,-514.93"/>
<polygon fill="black" stroke="black" points="865.25,-457.06 854.73,-458.28 863.71,-463.89 865.25,-457.06"/>
</g>
<!-- set15&#45;&gt;set3 -->
<g id="edge43" class="edge">
<title>set15&#45;&gt;set3</title>
<path fill="none" stroke="black" d="M1109.37,-498.84C1080.3,-472.04 1031.68,-427.21 1002.87,-400.64"/>
<polygon fill="black" stroke="black" points="1107.19,-501.6 1116.92,-505.8 1111.94,-496.45 1107.19,-501.6"/>
<polygon fill="black" stroke="black" points="1005.02,-397.87 995.3,-393.66 1000.28,-403.01 1005.02,-397.87"/>
</g>
<!-- set15&#45;&gt;set4 -->
<g id="edge44" class="edge">
<title>set15&#45;&gt;set4</title>
<path fill="none" stroke="black" d="M1156.49,-497.63C1163.72,-488.99 1170.96,-478.68 1175.4,-468 1193.73,-423.87 1196.1,-367.45 1195.62,-334.46"/>
<polygon fill="black" stroke="black" points="1153.65,-495.55 1149.65,-505.36 1158.89,-500.19 1153.65,-495.55"/>
<polygon fill="black" stroke="black" points="1199.12,-334.13 1195.37,-324.22 1192.12,-334.3 1199.12,-334.13"/>
</g>
<!-- set15&#45;&gt;set8 -->
<g id="edge45" class="edge">
<title>set15&#45;&gt;set8</title>
<path fill="none" stroke="black" d="M1162.93,-501.14C1174.23,-492.21 1186.32,-480.79 1194.4,-468 1229.86,-411.84 1225.43,-389.81 1234.4,-324 1236.56,-308.15 1239.48,-303.17 1234.4,-288 1230.64,-276.79 1223.47,-266.05 1216.23,-257.21"/>
<polygon fill="black" stroke="black" points="1160.79,-498.37 1154.92,-507.19 1165.01,-503.96 1160.79,-498.37"/>
<polygon fill="black" stroke="black" points="1218.86,-254.9 1209.65,-249.66 1213.58,-259.5 1218.86,-254.9"/>
</g>
<!-- goal -->
<g id="node20" class="node">
<title>goal</title>
<ellipse fill="none" stroke="black" cx="1135.4" cy="-450" rx="30.59" ry="18"/>
<text text-anchor="middle" x="1135.4" y="-446.3" font-family="Times,serif" font-size="14.00">goal</text>
</g>
<!-- set15&#45;&gt;goal -->
<g id="edge46" class="edge">
<title>set15&#45;&gt;goal</title>
<path fill="none" stroke="black" d="M1134.18,-493.67C1134.32,-488.55 1134.48,-483.21 1134.62,-478.1"/>
<polygon fill="black" stroke="black" points="1130.68,-493.6 1133.89,-503.7 1137.68,-493.8 1130.68,-493.6"/>
<polygon fill="black" stroke="black" points="1138.12,-478.2 1134.91,-468.1 1131.12,-478 1138.12,-478.2"/>
</g>
<!-- set16&#45;&gt;set17 -->
<g id="edge47" class="edge">
<title>set16&#45;&gt;set17</title>
<path fill="none" stroke="black" d="M778.39,-440.89C705.22,-427.41 559.37,-400.55 486.28,-387.08"/>
<polygon fill="black" stroke="black" points="778.21,-444.42 788.67,-442.79 779.47,-437.53 778.21,-444.42"/>
<polygon fill="black" stroke="black" points="486.51,-383.57 476.04,-385.2 485.24,-390.45 486.51,-383.57"/>
</g>
<!-- set16&#45;&gt;set2 -->
<g id="edge48" class="edge">
<title>set16&#45;&gt;set2</title>
<path fill="none" stroke="black" d="M802,-425.38C783.26,-405.14 753.72,-376.69 722.4,-360 665.69,-329.79 643.65,-343.38 582.4,-324 578.84,-322.88 575.16,-321.63 571.5,-320.33"/>
<polygon fill="black" stroke="black" points="799.56,-427.9 808.87,-432.96 804.75,-423.2 799.56,-427.9"/>
<polygon fill="black" stroke="black" points="572.58,-317 561.98,-316.84 570.17,-323.57 572.58,-317"/>
</g>
<!-- set16&#45;&gt;set3 -->
<g id="edge49" class="edge">
<title>set16&#45;&gt;set3</title>
<path fill="none" stroke="black" d="M857.94,-433.15C884.51,-421.31 920.55,-405.24 946.46,-393.68"/>
<polygon fill="black" stroke="black" points="856.38,-430.01 848.68,-437.28 859.23,-436.41 856.38,-430.01"/>
<polygon fill="black" stroke="black" points="948.15,-396.76 955.86,-389.49 945.3,-390.37 948.15,-396.76"/>
</g>
<!-- set16&#45;&gt;set5 -->
<g id="edge50" class="edge">
<title>set16&#45;&gt;set5</title>
<path fill="none" stroke="black" d="M809.56,-423.32C798.59,-403.65 781.15,-377.08 759.4,-360 621.06,-251.35 399.35,-236.14 308.38,-234.71"/>
<polygon fill="black" stroke="black" points="806.59,-425.2 814.41,-432.35 812.76,-421.88 806.59,-425.2"/>
<polygon fill="black" stroke="black" points="308.23,-231.21 298.2,-234.6 308.16,-238.21 308.23,-231.21"/>
</g>
<!-- set16&#45;&gt;set8 -->
<g id="edge51" class="edge">
<title>set16&#45;&gt;set8</title>
<path fill="none" stroke="black" d="M829.29,-422.09C840.38,-380.98 863.08,-305.46 884.4,-288 924.96,-254.78 1079.13,-241.57 1153.63,-237.05"/>
<polygon fill="black" stroke="black" points="825.85,-421.42 826.67,-431.98 832.62,-423.21 825.85,-421.42"/>
<polygon fill="black" stroke="black" points="1154.24,-240.52 1164.02,-236.44 1153.83,-233.53 1154.24,-240.52"/>
</g>
<!-- set17&#45;&gt;set2 -->
<g id="edge52" class="edge">
<title>set17&#45;&gt;set2</title>
<path fill="none" stroke="black" d="M470.39,-356.37C483.15,-346.97 498.17,-335.9 510.76,-326.63"/>
<polygon fill="black" stroke="black" points="468.06,-353.75 462.08,-362.5 472.21,-359.38 468.06,-353.75"/>
<polygon fill="black" stroke="black" points="513.05,-329.29 519.03,-320.54 508.9,-323.65 513.05,-329.29"/>
</g>
<!-- set17&#45;&gt;set5 -->
<g id="edge53" class="edge">
<title>set17&#45;&gt;set5</title>
<path fill="none" stroke="black" d="M416.17,-355.72C382.71,-328.57 325.24,-281.94 292.38,-255.28"/>
<polygon fill="black" stroke="black" points="414.36,-358.76 424.33,-362.34 418.77,-353.32 414.36,-358.76"/>
<polygon fill="black" stroke="black" points="294.56,-252.53 284.59,-248.95 290.15,-257.97 294.56,-252.53"/>
</g>
<!-- set17&#45;&gt;set6 -->
<g id="edge54" class="edge">
<title>set17&#45;&gt;set6</title>
<path fill="none" stroke="black" d="M435.95,-349.97C426.14,-308.78 407.55,-230.78 397.77,-189.76"/>
<polygon fill="black" stroke="black" points="432.59,-350.93 438.31,-359.85 439.4,-349.31 432.59,-350.93"/>
<polygon fill="black" stroke="black" points="401.16,-188.85 395.43,-179.94 394.35,-190.47 401.16,-188.85"/>
</g>
<!-- set17&#45;&gt;set7 -->
<g id="edge55" class="edge">
<title>set17&#45;&gt;set7</title>
<path fill="none" stroke="black" d="M449.37,-350.04C463.5,-295.45 495.33,-172.43 509.44,-117.9"/>
<polygon fill="black" stroke="black" points="445.92,-349.41 446.8,-359.97 452.7,-351.16 445.92,-349.41"/>
<polygon fill="black" stroke="black" points="512.9,-118.5 512.01,-107.94 506.12,-116.75 512.9,-118.5"/>
</g>
<!-- set2&#45;&gt;set5 -->
<g id="edge56" class="edge">
<title>set2&#45;&gt;set5</title>
<path fill="none" stroke="black" d="M500.33,-295.39C448.83,-282.04 356.15,-258.01 304.59,-244.64"/>
<polygon fill="black" stroke="black" points="499.46,-298.78 510.02,-297.9 501.22,-292.01 499.46,-298.78"/>
<polygon fill="black" stroke="black" points="305.4,-241.24 294.84,-242.12 303.65,-248.01 305.4,-241.24"/>
</g>
<!-- set2&#45;&gt;set6 -->
<g id="edge57" class="edge">
<title>set2&#45;&gt;set6</title>
<path fill="none" stroke="black" d="M517.17,-281.8C500.79,-263.4 476.84,-237.33 454.4,-216 442.56,-204.75 428.73,-192.98 417.06,-183.4"/>
<polygon fill="black" stroke="black" points="514.88,-284.5 524.12,-289.67 520.12,-279.86 514.88,-284.5"/>
<polygon fill="black" stroke="black" points="418.96,-180.44 409,-176.85 414.55,-185.87 418.96,-180.44"/>
</g>
<!-- set2&#45;&gt;set7 -->
<g id="edge58" class="edge">
<title>set2&#45;&gt;set7</title>
<path fill="none" stroke="black" d="M534.72,-277.71C530.69,-236.65 523.11,-159.42 519.08,-118.33"/>
<polygon fill="black" stroke="black" points="531.25,-278.24 535.71,-287.85 538.22,-277.56 531.25,-278.24"/>
<polygon fill="black" stroke="black" points="522.55,-117.84 518.09,-108.23 515.58,-118.53 522.55,-117.84"/>
</g>
<!-- set3&#45;&gt;set4 -->
<g id="edge59" class="edge">
<title>set3&#45;&gt;set4</title>
<path fill="none" stroke="black" d="M1014.14,-363.64C1017.59,-362.38 1021.06,-361.15 1024.4,-360 1070.02,-344.29 1123.21,-328.03 1157.78,-317.74"/>
<polygon fill="black" stroke="black" points="1012.69,-360.45 1004.53,-367.21 1015.12,-367.01 1012.69,-360.45"/>
<polygon fill="black" stroke="black" points="1158.85,-321.07 1167.44,-314.87 1156.86,-314.36 1158.85,-321.07"/>
</g>
<!-- set3&#45;&gt;set8 -->
<g id="edge60" class="edge">
<title>set3&#45;&gt;set8</title>
<path fill="none" stroke="black" d="M1007.81,-358.24C1049.15,-330.93 1125.41,-280.56 1166.47,-253.44"/>
<polygon fill="black" stroke="black" points="1005.65,-355.46 999.24,-363.9 1009.51,-361.3 1005.65,-355.46"/>
<polygon fill="black" stroke="black" points="1168.5,-256.3 1174.91,-247.87 1164.64,-250.46 1168.5,-256.3"/>
</g>
<!-- set4&#45;&gt;set8 -->
<g id="edge61" class="edge">
<title>set4&#45;&gt;set8</title>
<path fill="none" stroke="black" d="M1194.4,-277.67C1194.4,-272.69 1194.4,-267.49 1194.4,-262.51"/>
<polygon fill="black" stroke="black" points="1190.9,-277.7 1194.4,-287.7 1197.9,-277.7 1190.9,-277.7"/>
<polygon fill="black" stroke="black" points="1197.9,-262.1 1194.4,-252.1 1190.9,-262.1 1197.9,-262.1"/>
</g>
<!-- set5&#45;&gt;set6 -->
<g id="edge62" class="edge">
<title>set5&#45;&gt;set6</title>
<path fill="none" stroke="black" d="M297.49,-216.01C316.83,-205.09 341.86,-190.96 361.22,-180.04"/>
<polygon fill="black" stroke="black" points="295.7,-213 288.71,-220.97 299.14,-219.1 295.7,-213"/>
<polygon fill="black" stroke="black" points="362.96,-183.07 369.94,-175.11 359.51,-176.98 362.96,-183.07"/>
</g>
<!-- set5&#45;&gt;set7 -->
<g id="edge63" class="edge">
<title>set5&#45;&gt;set7</title>
<path fill="none" stroke="black" d="M284.39,-209.15C299.79,-189.14 324.19,-161.15 351.4,-144 390.66,-119.24 442.52,-105.08 477.54,-97.73"/>
<polygon fill="black" stroke="black" points="281.56,-207.08 278.36,-217.18 287.16,-211.29 281.56,-207.08"/>
<polygon fill="black" stroke="black" points="478.28,-101.15 487.39,-95.75 476.89,-94.29 478.28,-101.15"/>
</g>
<!-- set6&#45;&gt;set7 -->
<g id="edge64" class="edge">
<title>set6&#45;&gt;set7</title>
<path fill="none" stroke="black" d="M421.73,-144.01C441.23,-133.09 466.46,-118.96 485.98,-108.04"/>
<polygon fill="black" stroke="black" points="419.9,-141.03 412.89,-148.97 423.32,-147.13 419.9,-141.03"/>
<polygon fill="black" stroke="black" points="487.76,-111.05 494.77,-103.11 484.34,-104.94 487.76,-111.05"/>
</g>
<!-- set7&#45;&gt;set9 -->
<g id="edge65" class="edge">
<title>set7&#45;&gt;set9</title>
<path fill="none" stroke="black" d="M477.46,-82.45C398.2,-69.11 218.87,-38.93 139.47,-25.58"/>
<polygon fill="black" stroke="black" points="477.03,-85.93 487.47,-84.13 478.19,-79.02 477.03,-85.93"/>
<polygon fill="black" stroke="black" points="139.85,-22.09 129.4,-23.88 138.68,-28.99 139.85,-22.09"/>
</g>
<!-- start -->
<g id="node19" class="node">
<title>start</title>
<ellipse fill="none" stroke="black" cx="1033.4" cy="-738" rx="33.29" ry="18"/>
<text text-anchor="middle" x="1033.4" y="-734.3" font-family="Times,serif" font-size="14.00">start</text>
</g>
</g>
</svg>
