####
#
# OBJ File Generated by Meshlab
#
####
# Object Truck Trailer Floor.obj
#
# Vertices: 12
# Faces: 20
#
####
vn -1.5707964 -1.5707965 1.5707964
v 25.4000435 0.3074408 10000.0000000
vn 1.5707964 -1.5707964 1.5707976
v 2565.3999023 0.3074408 10000.0000000
vn -1.5707908 1.5707964 1.5707976
v 25.4000435 25.7073631 10000.0000000
vn 1.5707908 1.5707963 1.5707964
v 2565.3999023 25.7073631 10000.0000000
vn -4.7123885 -1.5707964 1.5707964
v 25.4000435 0.3074408 5000.0000000
vn -1.5707877 -1.5707965 1.5706753
v 25.4000435 0.0000000 5000.0000000
vn 4.7123799 -1.5707965 1.5706753
v 2565.3999023 0.3074408 5000.0000000
vn 1.5707964 -1.5707964 1.5707964
v 2565.3999023 0.0000000 5000.0000000
vn 1.5707908 1.5707964 -1.5707964
v 2565.3999023 25.7073631 0.0000000
vn -1.5707293 1.5707963 -1.5707949
v 25.4000435 25.7073631 0.0000000
vn -1.5707964 -1.5707964 -1.5707964
v 25.4000435 0.0000000 0.0000000
vn 1.5707349 -1.5707965 -1.5707949
v 2565.3999023 0.0000000 0.0000000
# 12 vertices, 0 vertices normals

f 1//1 2//2 3//3
f 3//3 2//2 4//4
f 5//5 6//6 7//7
f 7//7 6//6 8//8
f 9//9 10//10 4//4
f 4//4 10//10 3//3
f 11//11 12//12 6//6
f 6//6 12//12 8//8
f 4//4 2//2 7//7
f 8//8 12//12 7//7
f 7//7 12//12 9//9
f 7//7 9//9 4//4
f 5//5 7//7 1//1
f 1//1 7//7 2//2
f 11//11 10//10 12//12
f 12//12 10//10 9//9
f 1//1 3//3 5//5
f 5//5 3//3 10//10
f 5//5 10//10 6//6
f 6//6 10//10 11//11
# 20 faces, 0 coords texture

# End of File
