####
#
# OBJ File Generated by Meshlab
#
####
# Object Truck Trailer Left Side.obj
#
# Vertices: 8
# Faces: 12
#
####
vn 1.5707963 -1.5707964 1.5707964
v 2590.8000488 0.3074408 10000.0000000
vn 1.5707964 1.5707964 1.5707947
v 2590.8000488 2794.3073730 10000.0000000
vn -1.5707964 -1.5707908 1.5707947
v 2565.3999023 0.3074408 10000.0000000
vn -1.5707963 1.5707908 1.5707964
v 2565.3999023 2794.3073730 10000.0000000
vn -1.5707964 1.5707964 -1.5707947
v 2565.3999023 2794.3073730 5000.0000000
vn -1.5707963 -1.5707964 -1.5707964
v 2565.3999023 0.3074408 5000.0000000
vn 1.5707964 -1.5707908 -1.5707947
v 2590.8000488 0.3074408 5000.0000000
vn 1.5707963 1.5707908 -1.5707964
v 2590.8000488 2794.3073730 5000.0000000
# 8 vertices, 0 vertices normals

f 1//1 2//2 3//3
f 3//3 2//2 4//4
f 5//5 6//6 4//4
f 4//4 6//6 3//3
f 6//6 7//7 3//3
f 3//3 7//7 1//1
f 2//2 8//8 4//4
f 4//4 8//8 5//5
f 7//7 8//8 1//1
f 1//1 8//8 2//2
f 8//8 7//7 5//5
f 5//5 7//7 6//6
# 12 faces, 0 coords texture

# End of File
