####
#
# OBJ File Generated by Meshlab
#
####
# Object Truck Trailer Roof.obj
#
# Vertices: 80
# Faces: 156
#
####
vn -3.9269972 -2.6815100 1.1107279
v 25.4000435 2768.9074707 9038.0996094
vn -3.9269972 -2.6815109 -1.1107289
v 25.4000435 2768.9074707 9385.7001953
vn -1.5706354 1.5707964 1.5707964
v 25.4000435 2794.3073730 10000.0000000
vn -3.9269972 -2.6815109 -1.1107289
v 25.4000435 2768.9074707 8885.7001953
vn -2.3561881 -2.6815104 -1.1107279
v 25.4000435 2730.8073730 8923.7998047
vn -2.3561881 -2.6815109 1.1107289
v 25.4000435 2730.8073730 9000.0000000
vn -1.5709007 1.5707965 -1.5707964
v 25.4000435 2794.3073730 5000.0000000
vn -1.5707964 -1.5707963 -1.5707976
v 25.4000435 2768.9074707 5000.0000000
vn -3.9269972 -2.6815109 -1.1107289
v 25.4000435 2768.9074707 5385.7001953
vn -1.5707964 -1.5707964 1.5707976
v 25.4000435 2768.9074707 10000.0000000
vn -3.9269972 -2.6815102 1.1107279
v 25.4000435 2768.9074707 9538.0996094
vn -2.3561881 -2.6815109 1.1107289
v 25.4000435 2730.8073730 9500.0000000
vn -2.3561881 -2.6815104 -1.1107279
v 25.4000435 2730.8073730 9423.7998047
vn -2.3561881 -2.6815104 -1.1107279
v 25.4000435 2730.8073730 5423.7998047
vn -2.3561945 -2.6815176 1.1107215
v 25.4000435 2730.8073730 5500.0000000
vn -3.9269907 -2.6815174 1.1107208
v 25.4000435 2768.9074707 5538.1000977
vn -3.9269972 -2.6815109 -1.1107289
v 25.4000435 2768.9074707 5885.7001953
vn -2.3561881 -2.6815104 -1.1107279
v 25.4000435 2730.8073730 5923.7998047
vn -2.3561945 -2.6815176 1.1107215
v 25.4000435 2730.8073730 6000.0000000
vn -3.9269910 -2.6815174 1.1107208
v 25.4000435 2768.9074707 6038.1000977
vn -3.9269972 -2.6815109 -1.1107289
v 25.4000435 2768.9074707 6385.7001953
vn -2.3561881 -2.6815104 -1.1107279
v 25.4000435 2730.8073730 7423.7998047
vn -2.3561945 -2.6815176 1.1107215
v 25.4000435 2730.8073730 7500.0000000
vn -3.9269958 -2.6815109 -1.1107289
v 25.4000435 2768.9074707 7385.7001953
vn -3.9269907 -2.6815174 1.1107208
v 25.4000435 2768.9074707 7538.1000977
vn -3.9269972 -2.6815100 1.1107279
v 25.4000435 2768.9074707 8538.0996094
vn -2.3561881 -2.6815104 -1.1107279
v 25.4000435 2730.8073730 6423.7998047
vn -2.3561945 -2.6815176 1.1107215
v 25.4000435 2730.8073730 6500.0000000
vn -3.9269907 -2.6815174 1.1107208
v 25.4000435 2768.9074707 6538.1000977
vn -3.9269972 -2.6815109 -1.1107289
v 25.4000435 2768.9074707 6885.7001953
vn -3.9269972 -2.6815109 -1.1107289
v 25.4000435 2768.9074707 8385.7001953
vn -2.3561881 -2.6815104 -1.1107279
v 25.4000435 2730.8073730 8423.7998047
vn -2.3561881 -2.6815109 1.1107289
v 25.4000435 2730.8073730 8500.0000000
vn -2.3561881 -2.6815104 -1.1107279
v 25.4000435 2730.8073730 6923.7998047
vn -2.3561945 -2.6815176 1.1107215
v 25.4000435 2730.8073730 7000.0000000
vn -3.9269907 -2.6815174 1.1107208
v 25.4000435 2768.9074707 7038.1000977
vn -3.9269969 -2.6815109 -1.1107289
v 25.4000435 2768.9074707 7885.7001953
vn -3.9269907 -2.6815174 1.1107208
v 25.4000435 2768.9074707 8038.1000977
vn -2.3561945 -2.6815176 1.1107215
v 25.4000435 2730.8073730 8000.0000000
vn -2.3561881 -2.6815104 -1.1107279
v 25.4000435 2730.8073730 7923.7998047
vn 1.5707889 1.5707965 1.5707976
v 2565.3999023 2794.3073730 10000.0000000
vn 1.5707964 -1.5707966 1.5707964
v 2565.3999023 2768.9074707 10000.0000000
vn 3.9269972 -2.6815109 1.1107289
v 2565.3999023 2768.9074707 9538.0996094
vn 2.3561881 -2.6815104 1.1107279
v 2565.3999023 2730.8073730 9500.0000000
vn 2.3561881 -2.6815109 -1.1107289
v 2565.3999023 2730.8073730 9423.7998047
vn 3.9269972 -2.6815100 -1.1107279
v 2565.3999023 2768.9074707 9385.7001953
vn 3.9269972 -2.6815109 1.1107289
v 2565.3999023 2768.9074707 9038.0996094
vn 2.3561881 -2.6815104 1.1107279
v 2565.3999023 2730.8073730 8500.0000000
vn 2.3561881 -2.6815109 -1.1107289
v 2565.3999023 2730.8073730 8423.7998047
vn 3.9269960 -2.6815109 1.1107289
v 2565.3999023 2768.9074707 8538.0996094
vn 3.9269972 -2.6815102 -1.1107279
v 2565.3999023 2768.9074707 8385.7001953
vn 3.9269907 -2.6815178 1.1107215
v 2565.3999023 2768.9074707 7538.1000977
vn 2.3561945 -2.6815176 1.1107208
v 2565.3999023 2730.8073730 7500.0000000
vn 2.3561881 -2.6815109 -1.1107289
v 2565.3999023 2730.8073730 7423.7998047
vn 3.9269905 -2.6815178 1.1107215
v 2565.3999023 2768.9074707 6538.1000977
vn 2.3561945 -2.6815176 1.1107208
v 2565.3999023 2730.8073730 6500.0000000
vn 2.3561881 -2.6815109 -1.1107289
v 2565.3999023 2730.8073730 6423.7998047
vn 3.9269972 -2.6815100 -1.1107279
v 2565.3999023 2768.9074707 5385.7001953
vn 1.5707964 -1.5707964 -1.5707964
v 2565.3999023 2768.9074707 5000.0000000
vn 1.5703635 1.5707964 -1.5707976
v 2565.3999023 2794.3073730 5000.0000000
vn 2.3561881 -2.6815104 1.1107279
v 2565.3999023 2730.8073730 9000.0000000
vn 2.3561881 -2.6815109 -1.1107289
v 2565.3999023 2730.8073730 8923.7998047
vn 3.9269972 -2.6815100 -1.1107279
v 2565.3999023 2768.9074707 8885.7001953
vn 3.9269905 -2.6815178 1.1107215
v 2565.3999023 2768.9074707 8038.1000977
vn 3.9269972 -2.6815102 -1.1107279
v 2565.3999023 2768.9074707 6385.7001953
vn 3.9269907 -2.6815178 1.1107215
v 2565.3999023 2768.9074707 6038.1000977
vn 3.9269972 -2.6815102 -1.1107279
v 2565.3999023 2768.9074707 7385.7001953
vn 3.9269907 -2.6815178 1.1107215
v 2565.3999023 2768.9074707 7038.1000977
vn 3.9269907 -2.6815178 1.1107215
v 2565.3999023 2768.9074707 5538.1000977
vn 2.3561945 -2.6815176 1.1107208
v 2565.3999023 2730.8073730 5500.0000000
vn 2.3561881 -2.6815109 -1.1107289
v 2565.3999023 2730.8073730 5423.7998047
vn 3.9269972 -2.6815102 -1.1107279
v 2565.3999023 2768.9074707 7885.7001953
vn 2.3561881 -2.6815109 -1.1107289
v 2565.3999023 2730.8073730 7923.7998047
vn 2.3561945 -2.6815176 1.1107208
v 2565.3999023 2730.8073730 8000.0000000
vn 3.9269972 -2.6815102 -1.1107279
v 2565.3999023 2768.9074707 5885.7001953
vn 2.3561881 -2.6815109 -1.1107289
v 2565.3999023 2730.8073730 5923.7998047
vn 2.3561945 -2.6815176 1.1107208
v 2565.3999023 2730.8073730 6000.0000000
vn 2.3561945 -2.6815176 1.1107208
v 2565.3999023 2730.8073730 7000.0000000
vn 2.3561881 -2.6815109 -1.1107289
v 2565.3999023 2730.8073730 6923.7998047
vn 3.9269972 -2.6815102 -1.1107279
v 2565.3999023 2768.9074707 6885.7001953
# 80 vertices, 0 vertices normals

f 1//1 2//2 3//3
f 4//4 5//5 6//6
f 7//7 8//8 9//9
f 10//10 3//3 11//11
f 11//11 3//3 2//2
f 11//11 2//2 12//12
f 12//12 2//2 13//13
f 14//14 15//15 9//9
f 9//9 15//15 16//16
f 9//9 16//16 7//7
f 7//7 16//16 17//17
f 18//18 19//19 17//17
f 17//17 19//19 20//20
f 17//17 20//20 7//7
f 7//7 20//20 21//21
f 22//22 23//23 24//24
f 24//24 23//23 25//25
f 6//6 1//1 4//4
f 4//4 1//1 3//3
f 4//4 3//3 26//26
f 27//27 28//28 21//21
f 21//21 28//28 29//29
f 21//21 29//29 7//7
f 7//7 29//29 30//30
f 31//31 32//32 33//33
f 34//34 35//35 30//30
f 30//30 35//35 36//36
f 30//30 36//36 7//7
f 7//7 36//36 24//24
f 7//7 24//24 3//3
f 3//3 24//24 25//25
f 3//3 25//25 37//37
f 33//33 26//26 31//31
f 31//31 26//26 3//3
f 31//31 3//3 38//38
f 38//38 3//3 37//37
f 38//38 37//37 39//39
f 39//39 37//37 40//40
f 41//41 42//42 43//43
f 44//44 45//45 43//43
f 43//43 45//45 46//46
f 43//43 46//46 41//41
f 41//41 46//46 47//47
f 48//48 49//49 50//50
f 50//50 49//49 51//51
f 52//52 53//53 54//54
f 55//55 56//56 57//57
f 58//58 59//59 60//60
f 61//61 62//62 47//47
f 47//47 62//62 63//63
f 47//47 63//63 41//41
f 41//41 63//63 50//50
f 41//41 50//50 60//60
f 60//60 50//50 51//51
f 60//60 51//51 64//64
f 65//65 66//66 60//60
f 67//67 68//68 60//60
f 69//69 70//70 71//71
f 54//54 67//67 52//52
f 52//52 67//67 60//60
f 52//52 60//60 72//72
f 72//72 60//60 64//64
f 72//72 64//64 73//73
f 73//73 64//64 74//74
f 71//71 58//58 69//69
f 69//69 58//58 60//60
f 69//69 60//60 75//75
f 75//75 60//60 66//66
f 75//75 66//66 76//76
f 76//76 66//66 77//77
f 78//78 79//79 68//68
f 68//68 79//79 80//80
f 68//68 80//80 60//60
f 60//60 80//80 55//55
f 60//60 55//55 65//65
f 65//65 55//55 57//57
f 42//42 41//41 10//10
f 10//10 41//41 3//3
f 7//7 60//60 8//8
f 8//8 60//60 59//59
f 3//3 41//41 7//7
f 7//7 41//41 60//60
f 9//9 8//8 58//58
f 58//58 8//8 59//59
f 15//15 14//14 70//70
f 70//70 14//14 71//71
f 17//17 16//16 75//75
f 75//75 16//16 69//69
f 16//16 15//15 69//69
f 69//69 15//15 70//70
f 19//19 18//18 77//77
f 77//77 18//18 76//76
f 21//21 20//20 65//65
f 65//65 20//20 66//66
f 20//20 19//19 66//66
f 66//66 19//19 77//77
f 28//28 27//27 56//56
f 56//56 27//27 57//57
f 30//30 29//29 80//80
f 80//80 29//29 55//55
f 29//29 28//28 55//55
f 55//55 28//28 56//56
f 35//35 34//34 78//78
f 78//78 34//34 79//79
f 24//24 36//36 67//67
f 67//67 36//36 68//68
f 36//36 35//35 68//68
f 68//68 35//35 78//78
f 23//23 22//22 53//53
f 53//53 22//22 54//54
f 37//37 25//25 72//72
f 72//72 25//25 52//52
f 25//25 23//23 52//52
f 52//52 23//23 53//53
f 39//39 40//40 74//74
f 74//74 40//40 73//73
f 31//31 38//38 51//51
f 51//51 38//38 64//64
f 38//38 39//39 64//64
f 64//64 39//39 74//74
f 33//33 32//32 48//48
f 48//48 32//32 49//49
f 4//4 26//26 63//63
f 63//63 26//26 50//50
f 26//26 33//33 50//50
f 50//50 33//33 48//48
f 6//6 5//5 61//61
f 61//61 5//5 62//62
f 2//2 1//1 46//46
f 46//46 1//1 47//47
f 1//1 6//6 47//47
f 47//47 6//6 61//61
f 12//12 13//13 44//44
f 44//44 13//13 45//45
f 43//43 42//42 11//11
f 11//11 42//42 10//10
f 11//11 12//12 43//43
f 43//43 12//12 44//44
f 13//13 2//2 45//45
f 45//45 2//2 46//46
f 5//5 4//4 62//62
f 62//62 4//4 63//63
f 32//32 31//31 49//49
f 49//49 31//31 51//51
f 40//40 37//37 73//73
f 73//73 37//37 72//72
f 22//22 24//24 54//54
f 54//54 24//24 67//67
f 34//34 30//30 79//79
f 79//79 30//30 80//80
f 27//27 21//21 57//57
f 57//57 21//21 65//65
f 18//18 17//17 76//76
f 76//76 17//17 75//75
f 14//14 9//9 71//71
f 71//71 9//9 58//58
# 156 faces, 0 coords texture

# End of File
