####
#
# OBJ File Generated by Meshlab
#
####
# Object Truck Trailer Back.obj
#
# Vertices: 8
# Faces: 12
#
####
vn -1.5707964 1.5707948 -1.5707964
v 0.0000000 2794.3073730 10000.0000000
vn 1.5707964 1.5707964 -1.5707964
v 2590.8000488 2794.3073730 10000.0000000
vn -1.5707946 -1.5707964 -1.5707964
v 0.0000000 0.3074408 10000.0000000
vn 1.5707946 -1.5707948 -1.5707964
v 2590.8000488 0.3074408 10000.0000000
vn -1.5707946 1.5707964 1.5707964
v 0.0000000 2794.3073730 10025.4003906
vn 1.5707946 1.5707948 1.5707964
v 2590.8000488 2794.3073730 10025.4003906
vn -1.5707964 -1.5707948 1.5707964
v 0.0000000 0.3074408 10025.4003906
vn 1.5707964 -1.5707964 1.5707964
v 2590.8000488 0.3074408 10025.4003906
# 8 vertices, 0 vertices normals

f 1//1 2//2 3//3
f 3//3 2//2 4//4
f 5//5 6//6 1//1
f 1//1 6//6 2//2
f 7//7 8//8 5//5
f 5//5 8//8 6//6
f 3//3 4//4 7//7
f 7//7 4//4 8//8
f 2//2 6//6 4//4
f 4//4 6//6 8//8
f 7//7 5//5 3//3
f 3//3 5//5 1//1
# 12 faces, 0 coords texture

# End of File
