<?xml version="1.0" encoding="UTF-8" standalone="no"?>
<!DOCTYPE svg PUBLIC "-//W3C//DTD SVG 1.1//EN"
 "http://www.w3.org/Graphics/SVG/1.1/DTD/svg11.dtd">
<!-- Generated by graphviz version 2.43.0 (0)
 -->
<!-- Title: IRIS region connectivity Pages: 1 -->
<svg width="343pt" height="332pt"
 viewBox="0.00 0.00 342.63 332.00" xmlns="http://www.w3.org/2000/svg" xmlns:xlink="http://www.w3.org/1999/xlink">
<g id="graph0" class="graph" transform="scale(1 1) rotate(0) translate(4 328)">
<title>IRIS region connectivity</title>
<polygon fill="white" stroke="transparent" points="-4,4 -4,-328 338.63,-328 338.63,4 -4,4"/>
<!-- set0 -->
<g id="node1" class="node">
<title>set0</title>
<ellipse fill="none" stroke="black" cx="73.63" cy="-306" rx="30.59" ry="18"/>
<text text-anchor="middle" x="73.63" y="-302.3" font-family="Times,serif" font-size="14.00">set0</text>
</g>
<!-- set1 -->
<g id="node2" class="node">
<title>set1</title>
<ellipse fill="none" stroke="black" cx="103.63" cy="-234" rx="30.59" ry="18"/>
<text text-anchor="middle" x="103.63" y="-230.3" font-family="Times,serif" font-size="14.00">set1</text>
</g>
<!-- set0&#45;&gt;set1 -->
<g id="edge1" class="edge">
<title>set0&#45;&gt;set1</title>
<path fill="none" stroke="black" d="M84.75,-279.06C87.23,-273.26 89.87,-267.1 92.36,-261.29"/>
<polygon fill="black" stroke="black" points="81.46,-277.84 80.74,-288.41 87.89,-280.6 81.46,-277.84"/>
<polygon fill="black" stroke="black" points="95.64,-262.53 96.36,-251.96 89.21,-259.77 95.64,-262.53"/>
</g>
<!-- set2 -->
<g id="node3" class="node">
<title>set2</title>
<ellipse fill="none" stroke="black" cx="44.63" cy="-162" rx="30.59" ry="18"/>
<text text-anchor="middle" x="44.63" y="-158.3" font-family="Times,serif" font-size="14.00">set2</text>
</g>
<!-- set0&#45;&gt;set2 -->
<g id="edge2" class="edge">
<title>set0&#45;&gt;set2</title>
<path fill="none" stroke="black" d="M68.13,-278.06C62.98,-252.88 55.34,-215.47 50.18,-190.2"/>
<polygon fill="black" stroke="black" points="64.7,-278.77 70.13,-287.87 71.56,-277.37 64.7,-278.77"/>
<polygon fill="black" stroke="black" points="53.57,-189.29 48.14,-180.19 46.71,-190.69 53.57,-189.29"/>
</g>
<!-- set5 -->
<g id="node4" class="node">
<title>set5</title>
<ellipse fill="none" stroke="black" cx="162.63" cy="-90" rx="30.59" ry="18"/>
<text text-anchor="middle" x="162.63" y="-86.3" font-family="Times,serif" font-size="14.00">set5</text>
</g>
<!-- set0&#45;&gt;set5 -->
<g id="edge3" class="edge">
<title>set0&#45;&gt;set5</title>
<path fill="none" stroke="black" d="M103.35,-287.32C147.25,-260.5 225.83,-209.55 240.63,-180 247.79,-165.69 248.12,-158.14 240.63,-144 235.28,-133.9 212.57,-119.05 193.02,-107.64"/>
<polygon fill="black" stroke="black" points="101.28,-284.48 94.55,-292.66 104.91,-290.47 101.28,-284.48"/>
<polygon fill="black" stroke="black" points="194.75,-104.6 184.33,-102.67 191.27,-110.67 194.75,-104.6"/>
</g>
<!-- set6 -->
<g id="node5" class="node">
<title>set6</title>
<ellipse fill="none" stroke="black" cx="103.63" cy="-18" rx="30.59" ry="18"/>
<text text-anchor="middle" x="103.63" y="-14.3" font-family="Times,serif" font-size="14.00">set6</text>
</g>
<!-- set0&#45;&gt;set6 -->
<g id="edge4" class="edge">
<title>set0&#45;&gt;set6</title>
<path fill="none" stroke="black" d="M52.17,-282.12C25.95,-251.26 -12.9,-194.36 4.63,-144 19.33,-101.77 54.89,-63.07 79.13,-40.25"/>
<polygon fill="black" stroke="black" points="49.63,-284.52 58.85,-289.74 54.89,-279.91 49.63,-284.52"/>
<polygon fill="black" stroke="black" points="81.57,-42.77 86.57,-33.42 76.84,-37.61 81.57,-42.77"/>
</g>
<!-- set1&#45;&gt;set2 -->
<g id="edge5" class="edge">
<title>set1&#45;&gt;set2</title>
<path fill="none" stroke="black" d="M83.94,-209.64C77.6,-202.12 70.57,-193.78 64.23,-186.25"/>
<polygon fill="black" stroke="black" points="81.41,-212.07 90.53,-217.46 86.77,-207.56 81.41,-212.07"/>
<polygon fill="black" stroke="black" points="66.81,-183.88 57.69,-178.49 61.45,-188.39 66.81,-183.88"/>
</g>
<!-- set1&#45;&gt;set5 -->
<g id="edge7" class="edge">
<title>set1&#45;&gt;set5</title>
<path fill="none" stroke="black" d="M114.43,-206.99C125.02,-181.53 141.06,-142.92 151.68,-117.34"/>
<polygon fill="black" stroke="black" points="111.12,-205.86 110.51,-216.43 117.58,-208.54 111.12,-205.86"/>
<polygon fill="black" stroke="black" points="155,-118.48 155.61,-107.9 148.54,-115.79 155,-118.48"/>
</g>
<!-- set1&#45;&gt;set6 -->
<g id="edge8" class="edge">
<title>set1&#45;&gt;set6</title>
<path fill="none" stroke="black" d="M103.63,-205.71C103.63,-164.65 103.63,-87.42 103.63,-46.33"/>
<polygon fill="black" stroke="black" points="100.13,-205.85 103.63,-215.85 107.13,-205.85 100.13,-205.85"/>
<polygon fill="black" stroke="black" points="107.13,-46.23 103.63,-36.23 100.13,-46.23 107.13,-46.23"/>
</g>
<!-- set4 -->
<g id="node6" class="node">
<title>set4</title>
<ellipse fill="none" stroke="black" cx="200.63" cy="-162" rx="30.59" ry="18"/>
<text text-anchor="middle" x="200.63" y="-158.3" font-family="Times,serif" font-size="14.00">set4</text>
</g>
<!-- set1&#45;&gt;set4 -->
<g id="edge6" class="edge">
<title>set1&#45;&gt;set4</title>
<path fill="none" stroke="black" d="M130.46,-213.63C143.9,-203.94 160.13,-192.23 173.59,-182.51"/>
<polygon fill="black" stroke="black" points="128.39,-210.81 122.33,-219.5 132.49,-216.49 128.39,-210.81"/>
<polygon fill="black" stroke="black" points="175.92,-185.15 181.98,-176.46 171.83,-179.47 175.92,-185.15"/>
</g>
<!-- set2&#45;&gt;set5 -->
<g id="edge9" class="edge">
<title>set2&#45;&gt;set5</title>
<path fill="none" stroke="black" d="M74.28,-143.41C92.15,-132.81 114.83,-119.36 132.74,-108.73"/>
<polygon fill="black" stroke="black" points="72.27,-140.53 65.45,-148.65 75.84,-146.55 72.27,-140.53"/>
<polygon fill="black" stroke="black" points="134.8,-111.58 141.62,-103.47 131.23,-105.56 134.8,-111.58"/>
</g>
<!-- set2&#45;&gt;set6 -->
<g id="edge10" class="edge">
<title>set2&#45;&gt;set6</title>
<path fill="none" stroke="black" d="M55.43,-134.99C66.02,-109.53 82.06,-70.92 92.68,-45.34"/>
<polygon fill="black" stroke="black" points="52.12,-133.86 51.51,-144.43 58.58,-136.54 52.12,-133.86"/>
<polygon fill="black" stroke="black" points="96,-46.48 96.61,-35.9 89.54,-43.79 96,-46.48"/>
</g>
<!-- set5&#45;&gt;set6 -->
<g id="edge13" class="edge">
<title>set5&#45;&gt;set6</title>
<path fill="none" stroke="black" d="M142.94,-65.64C136.6,-58.12 129.57,-49.78 123.23,-42.25"/>
<polygon fill="black" stroke="black" points="140.41,-68.07 149.53,-73.46 145.77,-63.56 140.41,-68.07"/>
<polygon fill="black" stroke="black" points="125.81,-39.88 116.69,-34.49 120.45,-44.39 125.81,-39.88"/>
</g>
<!-- set4&#45;&gt;set5 -->
<g id="edge12" class="edge">
<title>set4&#45;&gt;set5</title>
<path fill="none" stroke="black" d="M186.97,-135.84C183.55,-129.54 179.88,-122.77 176.45,-116.46"/>
<polygon fill="black" stroke="black" points="183.97,-137.65 191.81,-144.76 190.12,-134.31 183.97,-137.65"/>
<polygon fill="black" stroke="black" points="179.5,-114.75 171.66,-107.63 173.35,-118.09 179.5,-114.75"/>
</g>
<!-- set3 -->
<g id="node7" class="node">
<title>set3</title>
<ellipse fill="none" stroke="black" cx="241.63" cy="-90" rx="30.59" ry="18"/>
<text text-anchor="middle" x="241.63" y="-86.3" font-family="Times,serif" font-size="14.00">set3</text>
</g>
<!-- set3&#45;&gt;set6 -->
<g id="edge11" class="edge">
<title>set3&#45;&gt;set6</title>
<path fill="none" stroke="black" d="M210.19,-73.06C187.76,-61.67 157.69,-46.42 135.22,-35.03"/>
<polygon fill="black" stroke="black" points="208.65,-76.2 219.15,-77.6 211.81,-69.95 208.65,-76.2"/>
<polygon fill="black" stroke="black" points="136.6,-31.8 126.1,-30.4 133.43,-38.04 136.6,-31.8"/>
</g>
<!-- annotation -->
<g id="node8" class="node">
<title>annotation</title>
<text text-anchor="middle" x="228.63" y="-302.9" font-family="Times,serif" font-size="12.00">Nodes: 7, Edges: 13, Coverage: 0.0</text>
</g>
</g>
</svg>
