<?xml version="1.0" encoding="UTF-8" standalone="no"?>
<!DOCTYPE svg PUBLIC "-//W3C//DTD SVG 1.1//EN"
 "http://www.w3.org/Graphics/SVG/1.1/DTD/svg11.dtd">
<!-- Generated by graphviz version 2.43.0 (0)
 -->
<!-- Title: IRIS region connectivity Pages: 1 -->
<svg width="481pt" height="404pt"
 viewBox="0.00 0.00 480.55 404.00" xmlns="http://www.w3.org/2000/svg" xmlns:xlink="http://www.w3.org/1999/xlink">
<g id="graph0" class="graph" transform="scale(1 1) rotate(0) translate(4 400)">
<title>IRIS region connectivity</title>
<polygon fill="white" stroke="transparent" points="-4,4 -4,-400 476.55,-400 476.55,4 -4,4"/>
<!-- set0 -->
<g id="node1" class="node">
<title>set0</title>
<ellipse fill="none" stroke="black" cx="211.55" cy="-378" rx="30.59" ry="18"/>
<text text-anchor="middle" x="211.55" y="-374.3" font-family="Times,serif" font-size="14.00">set0</text>
</g>
<!-- set1 -->
<g id="node2" class="node">
<title>set1</title>
<ellipse fill="none" stroke="black" cx="182.55" cy="-306" rx="30.59" ry="18"/>
<text text-anchor="middle" x="182.55" y="-302.3" font-family="Times,serif" font-size="14.00">set1</text>
</g>
<!-- set0&#45;&gt;set1 -->
<g id="edge1" class="edge">
<title>set0&#45;&gt;set1</title>
<path fill="none" stroke="black" d="M200.8,-351.06C198.4,-345.26 195.85,-339.1 193.44,-333.29"/>
<polygon fill="black" stroke="black" points="197.61,-352.51 204.67,-360.41 204.08,-349.83 197.61,-352.51"/>
<polygon fill="black" stroke="black" points="196.63,-331.86 189.57,-323.96 190.17,-334.53 196.63,-331.86"/>
</g>
<!-- set2 -->
<g id="node3" class="node">
<title>set2</title>
<ellipse fill="none" stroke="black" cx="106.55" cy="-234" rx="30.59" ry="18"/>
<text text-anchor="middle" x="106.55" y="-230.3" font-family="Times,serif" font-size="14.00">set2</text>
</g>
<!-- set0&#45;&gt;set2 -->
<g id="edge2" class="edge">
<title>set0&#45;&gt;set2</title>
<path fill="none" stroke="black" d="M181.89,-359.41C168.44,-350.24 153.2,-338.01 142.55,-324 128.42,-305.42 118.97,-280.53 113.32,-261.79"/>
<polygon fill="black" stroke="black" points="180.12,-362.44 190.41,-364.99 183.96,-356.58 180.12,-362.44"/>
<polygon fill="black" stroke="black" points="116.66,-260.76 110.56,-252.1 109.93,-262.68 116.66,-260.76"/>
</g>
<!-- set3 -->
<g id="node4" class="node">
<title>set3</title>
<ellipse fill="none" stroke="black" cx="30.55" cy="-162" rx="30.59" ry="18"/>
<text text-anchor="middle" x="30.55" y="-158.3" font-family="Times,serif" font-size="14.00">set3</text>
</g>
<!-- set0&#45;&gt;set3 -->
<g id="edge3" class="edge">
<title>set0&#45;&gt;set3</title>
<path fill="none" stroke="black" d="M178.09,-362.3C159.3,-353.03 136.17,-339.83 118.55,-324 76.91,-286.62 50.98,-224.73 38.81,-189.57"/>
<polygon fill="black" stroke="black" points="176.65,-365.5 187.19,-366.66 179.68,-359.18 176.65,-365.5"/>
<polygon fill="black" stroke="black" points="42.09,-188.36 35.6,-179.99 35.45,-190.58 42.09,-188.36"/>
</g>
<!-- set4 -->
<g id="node5" class="node">
<title>set4</title>
<ellipse fill="none" stroke="black" cx="224.55" cy="-162" rx="30.59" ry="18"/>
<text text-anchor="middle" x="224.55" y="-158.3" font-family="Times,serif" font-size="14.00">set4</text>
</g>
<!-- set0&#45;&gt;set4 -->
<g id="edge4" class="edge">
<title>set0&#45;&gt;set4</title>
<path fill="none" stroke="black" d="M218.19,-350.04C219.95,-341.74 221.62,-332.54 222.55,-324 227.61,-277.52 226.91,-223.04 225.82,-190.86"/>
<polygon fill="black" stroke="black" points="214.74,-349.42 215.96,-359.95 221.57,-350.96 214.74,-349.42"/>
<polygon fill="black" stroke="black" points="229.3,-190.32 225.42,-180.46 222.31,-190.58 229.3,-190.32"/>
</g>
<!-- set5 -->
<g id="node6" class="node">
<title>set5</title>
<ellipse fill="none" stroke="black" cx="262.55" cy="-90" rx="30.59" ry="18"/>
<text text-anchor="middle" x="262.55" y="-86.3" font-family="Times,serif" font-size="14.00">set5</text>
</g>
<!-- set0&#45;&gt;set5 -->
<g id="edge5" class="edge">
<title>set0&#45;&gt;set5</title>
<path fill="none" stroke="black" d="M225.13,-351.48C229.42,-342.89 233.96,-333.15 237.55,-324 261.9,-261.8 270.89,-246.09 280.55,-180 282.86,-164.17 283.15,-159.79 280.55,-144 279.08,-135.14 276.33,-125.77 273.41,-117.41"/>
<polygon fill="black" stroke="black" points="221.9,-350.11 220.47,-360.61 228.13,-353.3 221.9,-350.11"/>
<polygon fill="black" stroke="black" points="276.61,-115.97 269.84,-107.82 270.05,-118.41 276.61,-115.97"/>
</g>
<!-- set6 -->
<g id="node7" class="node">
<title>set6</title>
<ellipse fill="none" stroke="black" cx="184.55" cy="-18" rx="30.59" ry="18"/>
<text text-anchor="middle" x="184.55" y="-14.3" font-family="Times,serif" font-size="14.00">set6</text>
</g>
<!-- set0&#45;&gt;set6 -->
<g id="edge6" class="edge">
<title>set0&#45;&gt;set6</title>
<path fill="none" stroke="black" d="M245.12,-362.79C288.79,-341.79 359.55,-298.03 359.55,-235 359.55,-235 359.55,-235 359.55,-161 359.55,-90.39 272.58,-48.77 221.26,-30.35"/>
<polygon fill="black" stroke="black" points="243.57,-359.65 235.99,-367.04 246.53,-365.99 243.57,-359.65"/>
<polygon fill="black" stroke="black" points="222.1,-26.94 211.51,-26.97 219.81,-33.55 222.1,-26.94"/>
</g>
<!-- set1&#45;&gt;set2 -->
<g id="edge7" class="edge">
<title>set1&#45;&gt;set2</title>
<path fill="none" stroke="black" d="M159.31,-283.6C149.93,-274.96 139.13,-265.01 129.75,-256.37"/>
<polygon fill="black" stroke="black" points="157.07,-286.3 166.8,-290.5 161.82,-281.15 157.07,-286.3"/>
<polygon fill="black" stroke="black" points="132,-253.69 122.27,-249.49 127.26,-258.83 132,-253.69"/>
</g>
<!-- set1&#45;&gt;set4 -->
<g id="edge8" class="edge">
<title>set1&#45;&gt;set4</title>
<path fill="none" stroke="black" d="M190.44,-278.31C197.96,-252.9 209.21,-214.87 216.7,-189.52"/>
<polygon fill="black" stroke="black" points="187.01,-277.57 187.53,-288.15 193.72,-279.56 187.01,-277.57"/>
<polygon fill="black" stroke="black" points="220.09,-190.41 219.57,-179.82 213.38,-188.42 220.09,-190.41"/>
</g>
<!-- set1&#45;&gt;set5 -->
<g id="edge9" class="edge">
<title>set1&#45;&gt;set5</title>
<path fill="none" stroke="black" d="M203.45,-282.29C223.59,-258.74 252.7,-219.83 264.55,-180 270.52,-159.91 269.61,-136.13 267.42,-118.2"/>
<polygon fill="black" stroke="black" points="200.69,-280.13 196.74,-289.96 205.96,-284.74 200.69,-280.13"/>
<polygon fill="black" stroke="black" points="270.87,-117.55 265.99,-108.14 263.94,-118.54 270.87,-117.55"/>
</g>
<!-- set1&#45;&gt;set6 -->
<g id="edge10" class="edge">
<title>set1&#45;&gt;set6</title>
<path fill="none" stroke="black" d="M182.74,-277.7C183.12,-223.19 183.97,-101.41 184.35,-46.63"/>
<polygon fill="black" stroke="black" points="179.24,-277.94 182.67,-287.97 186.24,-277.99 179.24,-277.94"/>
<polygon fill="black" stroke="black" points="187.86,-46.33 184.43,-36.31 180.86,-46.28 187.86,-46.33"/>
</g>
<!-- set2&#45;&gt;set3 -->
<g id="edge11" class="edge">
<title>set2&#45;&gt;set3</title>
<path fill="none" stroke="black" d="M83.31,-211.6C73.93,-202.96 63.13,-193.01 53.75,-184.37"/>
<polygon fill="black" stroke="black" points="81.07,-214.3 90.8,-218.5 85.82,-209.15 81.07,-214.3"/>
<polygon fill="black" stroke="black" points="56,-181.69 46.27,-177.49 51.26,-186.83 56,-181.69"/>
</g>
<!-- set2&#45;&gt;set4 -->
<g id="edge12" class="edge">
<title>set2&#45;&gt;set4</title>
<path fill="none" stroke="black" d="M136.2,-215.41C154.06,-204.81 176.75,-191.36 194.66,-180.73"/>
<polygon fill="black" stroke="black" points="134.19,-212.53 127.37,-220.65 137.76,-218.55 134.19,-212.53"/>
<polygon fill="black" stroke="black" points="196.72,-183.58 203.53,-175.47 193.15,-177.56 196.72,-183.58"/>
</g>
<!-- set2&#45;&gt;set5 -->
<g id="edge13" class="edge">
<title>set2&#45;&gt;set5</title>
<path fill="none" stroke="black" d="M124.76,-209.04C139.7,-190.22 161.99,-163.94 184.55,-144 199.52,-130.76 217.94,-118.1 233.12,-108.48"/>
<polygon fill="black" stroke="black" points="121.85,-207.09 118.44,-217.12 127.36,-211.4 121.85,-207.09"/>
<polygon fill="black" stroke="black" points="235,-111.43 241.64,-103.18 231.3,-105.49 235,-111.43"/>
</g>
<!-- set2&#45;&gt;set6 -->
<g id="edge14" class="edge">
<title>set2&#45;&gt;set6</title>
<path fill="none" stroke="black" d="M111.66,-205.87C118.38,-173.21 131.69,-117.1 151.55,-72 155.83,-62.28 161.66,-52.24 167.24,-43.54"/>
<polygon fill="black" stroke="black" points="108.17,-205.51 109.64,-216 115.03,-206.88 108.17,-205.51"/>
<polygon fill="black" stroke="black" points="170.27,-45.31 172.88,-35.04 164.43,-41.44 170.27,-45.31"/>
</g>
<!-- set3&#45;&gt;set6 -->
<g id="edge15" class="edge">
<title>set3&#45;&gt;set6</title>
<path fill="none" stroke="black" d="M38.79,-134.47C45.92,-115.13 57.9,-89.38 75.55,-72 95.75,-52.11 124.89,-38.47 147.95,-30.02"/>
<polygon fill="black" stroke="black" points="35.48,-133.32 35.5,-143.91 42.09,-135.62 35.48,-133.32"/>
<polygon fill="black" stroke="black" points="149.14,-33.31 157.42,-26.71 146.83,-26.7 149.14,-33.31"/>
</g>
<!-- set4&#45;&gt;set5 -->
<g id="edge16" class="edge">
<title>set4&#45;&gt;set5</title>
<path fill="none" stroke="black" d="M238.21,-135.84C241.63,-129.54 245.3,-122.77 248.73,-116.46"/>
<polygon fill="black" stroke="black" points="235.06,-134.31 233.36,-144.76 241.21,-137.65 235.06,-134.31"/>
<polygon fill="black" stroke="black" points="251.82,-118.09 253.52,-107.63 245.67,-114.75 251.82,-118.09"/>
</g>
<!-- set4&#45;&gt;set6 -->
<g id="edge17" class="edge">
<title>set4&#45;&gt;set6</title>
<path fill="none" stroke="black" d="M217.03,-134.31C209.87,-108.9 199.16,-70.87 192.02,-45.52"/>
<polygon fill="black" stroke="black" points="213.72,-135.48 219.8,-144.15 220.46,-133.58 213.72,-135.48"/>
<polygon fill="black" stroke="black" points="195.37,-44.5 189.29,-35.82 188.63,-46.4 195.37,-44.5"/>
</g>
<!-- set5&#45;&gt;set6 -->
<g id="edge18" class="edge">
<title>set5&#45;&gt;set6</title>
<path fill="none" stroke="black" d="M238.7,-67.6C229.07,-58.96 217.99,-49.01 208.36,-40.37"/>
<polygon fill="black" stroke="black" points="236.61,-70.42 246.39,-74.5 241.28,-65.21 236.61,-70.42"/>
<polygon fill="black" stroke="black" points="210.47,-37.56 200.69,-33.49 205.79,-42.77 210.47,-37.56"/>
</g>
<!-- annotation -->
<g id="node8" class="node">
<title>annotation</title>
<text text-anchor="middle" x="366.55" y="-374.9" font-family="Times,serif" font-size="12.00">Nodes: 7, Edges: 18, Coverage: 0.0</text>
</g>
</g>
</svg>
