<?xml version="1.0" encoding="UTF-8" standalone="no"?>
<!DOCTYPE svg PUBLIC "-//W3C//DTD SVG 1.1//EN"
 "http://www.w3.org/Graphics/SVG/1.1/DTD/svg11.dtd">
<!-- Generated by graphviz version 2.43.0 (0)
 -->
<!-- Title: IRIS region connectivity Pages: 1 -->
<svg width="392pt" height="404pt"
 viewBox="0.00 0.00 392.00 404.00" xmlns="http://www.w3.org/2000/svg" xmlns:xlink="http://www.w3.org/1999/xlink">
<g id="graph0" class="graph" transform="scale(1 1) rotate(0) translate(4 400)">
<title>IRIS region connectivity</title>
<polygon fill="white" stroke="transparent" points="-4,4 -4,-400 388,-400 388,4 -4,4"/>
<!-- set0 -->
<g id="node1" class="node">
<title>set0</title>
<ellipse fill="none" stroke="black" cx="123" cy="-378" rx="30.59" ry="18"/>
<text text-anchor="middle" x="123" y="-374.3" font-family="Times,serif" font-size="14.00">set0</text>
</g>
<!-- set1 -->
<g id="node2" class="node">
<title>set1</title>
<ellipse fill="none" stroke="black" cx="123" cy="-306" rx="30.59" ry="18"/>
<text text-anchor="middle" x="123" y="-302.3" font-family="Times,serif" font-size="14.00">set1</text>
</g>
<!-- set0&#45;&gt;set1 -->
<g id="edge1" class="edge">
<title>set0&#45;&gt;set1</title>
<path fill="none" stroke="black" d="M123,-349.67C123,-344.69 123,-339.49 123,-334.51"/>
<polygon fill="black" stroke="black" points="119.5,-349.7 123,-359.7 126.5,-349.7 119.5,-349.7"/>
<polygon fill="black" stroke="black" points="126.5,-334.1 123,-324.1 119.5,-334.1 126.5,-334.1"/>
</g>
<!-- set2 -->
<g id="node3" class="node">
<title>set2</title>
<ellipse fill="none" stroke="black" cx="211" cy="-234" rx="30.59" ry="18"/>
<text text-anchor="middle" x="211" y="-230.3" font-family="Times,serif" font-size="14.00">set2</text>
</g>
<!-- set0&#45;&gt;set2 -->
<g id="edge2" class="edge">
<title>set0&#45;&gt;set2</title>
<path fill="none" stroke="black" d="M142.21,-353.16C149.08,-344.23 156.68,-333.85 163,-324 176.2,-303.43 189.24,-278.91 198.39,-260.82"/>
<polygon fill="black" stroke="black" points="139.31,-351.18 135.91,-361.22 144.83,-355.49 139.31,-351.18"/>
<polygon fill="black" stroke="black" points="201.71,-262.01 203.05,-251.5 195.45,-258.88 201.71,-262.01"/>
</g>
<!-- set3 -->
<g id="node4" class="node">
<title>set3</title>
<ellipse fill="none" stroke="black" cx="211" cy="-162" rx="30.59" ry="18"/>
<text text-anchor="middle" x="211" y="-158.3" font-family="Times,serif" font-size="14.00">set3</text>
</g>
<!-- set0&#45;&gt;set3 -->
<g id="edge3" class="edge">
<title>set0&#45;&gt;set3</title>
<path fill="none" stroke="black" d="M152.67,-359.37C184.49,-338.45 232.88,-300.24 251,-252 256.63,-237.02 256.08,-231.17 251,-216 247.24,-204.79 240.07,-194.05 232.83,-185.21"/>
<polygon fill="black" stroke="black" points="150.71,-356.47 144.17,-364.81 154.48,-362.37 150.71,-356.47"/>
<polygon fill="black" stroke="black" points="235.46,-182.9 226.25,-177.66 230.18,-187.5 235.46,-182.9"/>
</g>
<!-- set5 -->
<g id="node5" class="node">
<title>set5</title>
<ellipse fill="none" stroke="black" cx="152" cy="-90" rx="30.59" ry="18"/>
<text text-anchor="middle" x="152" y="-86.3" font-family="Times,serif" font-size="14.00">set5</text>
</g>
<!-- set0&#45;&gt;set5 -->
<g id="edge4" class="edge">
<title>set0&#45;&gt;set5</title>
<path fill="none" stroke="black" d="M101.17,-354.79C93.93,-345.95 86.76,-335.21 83,-324 77.92,-308.83 80.32,-303.77 83,-288 93.8,-224.49 122.88,-154.18 139.64,-117.14"/>
<polygon fill="black" stroke="black" points="98.54,-357.1 107.75,-362.34 103.82,-352.5 98.54,-357.1"/>
<polygon fill="black" stroke="black" points="143.02,-118.16 144.01,-107.61 136.66,-115.24 143.02,-118.16"/>
</g>
<!-- set6 -->
<g id="node6" class="node">
<title>set6</title>
<ellipse fill="none" stroke="black" cx="181" cy="-18" rx="30.59" ry="18"/>
<text text-anchor="middle" x="181" y="-14.3" font-family="Times,serif" font-size="14.00">set6</text>
</g>
<!-- set0&#45;&gt;set6 -->
<g id="edge5" class="edge">
<title>set0&#45;&gt;set6</title>
<path fill="none" stroke="black" d="M92.5,-359.63C56.08,-336.36 0,-291.38 0,-235 0,-235 0,-235 0,-161 0,-88.4 91.27,-47.3 144.18,-29.58"/>
<polygon fill="black" stroke="black" points="90.95,-362.79 101.29,-365.08 94.63,-356.84 90.95,-362.79"/>
<polygon fill="black" stroke="black" points="145.46,-32.84 153.9,-26.44 143.31,-26.18 145.46,-32.84"/>
</g>
<!-- set1&#45;&gt;set2 -->
<g id="edge6" class="edge">
<title>set1&#45;&gt;set2</title>
<path fill="none" stroke="black" d="M148.43,-284.77C160.01,-275.56 173.7,-264.67 185.32,-255.43"/>
<polygon fill="black" stroke="black" points="146.03,-282.21 140.39,-291.17 150.39,-287.68 146.03,-282.21"/>
<polygon fill="black" stroke="black" points="187.7,-258 193.35,-249.04 183.34,-252.53 187.7,-258"/>
</g>
<!-- set1&#45;&gt;set3 -->
<g id="edge7" class="edge">
<title>set1&#45;&gt;set3</title>
<path fill="none" stroke="black" d="M135.61,-279.18C144.76,-261.09 157.8,-236.57 171,-216 177.32,-206.15 184.92,-195.77 191.79,-186.84"/>
<polygon fill="black" stroke="black" points="132.29,-277.99 130.95,-288.5 138.55,-281.12 132.29,-277.99"/>
<polygon fill="black" stroke="black" points="194.69,-188.82 198.09,-178.78 189.17,-184.51 194.69,-188.82"/>
</g>
<!-- set1&#45;&gt;set5 -->
<g id="edge8" class="edge">
<title>set1&#45;&gt;set5</title>
<path fill="none" stroke="black" d="M126.7,-277.71C132.26,-236.65 142.73,-159.42 148.3,-118.33"/>
<polygon fill="black" stroke="black" points="123.2,-277.47 125.32,-287.85 130.14,-278.41 123.2,-277.47"/>
<polygon fill="black" stroke="black" points="151.79,-118.61 149.66,-108.23 144.85,-117.67 151.79,-118.61"/>
</g>
<!-- set1&#45;&gt;set6 -->
<g id="edge9" class="edge">
<title>set1&#45;&gt;set6</title>
<path fill="none" stroke="black" d="M113.83,-278.44C99.92,-233.34 78.45,-140.07 112,-72 119.78,-56.22 134.76,-43.82 148.79,-35"/>
<polygon fill="black" stroke="black" points="110.53,-279.61 116.91,-288.07 117.19,-277.48 110.53,-279.61"/>
<polygon fill="black" stroke="black" points="150.93,-37.81 157.78,-29.72 147.38,-31.77 150.93,-37.81"/>
</g>
<!-- set2&#45;&gt;set3 -->
<g id="edge10" class="edge">
<title>set2&#45;&gt;set3</title>
<path fill="none" stroke="black" d="M211,-205.67C211,-200.69 211,-195.49 211,-190.51"/>
<polygon fill="black" stroke="black" points="207.5,-205.7 211,-215.7 214.5,-205.7 207.5,-205.7"/>
<polygon fill="black" stroke="black" points="214.5,-190.1 211,-180.1 207.5,-190.1 214.5,-190.1"/>
</g>
<!-- set2&#45;&gt;set5 -->
<g id="edge11" class="edge">
<title>set2&#45;&gt;set5</title>
<path fill="none" stroke="black" d="M190.2,-210.03C183.16,-201.19 175.86,-190.65 171,-180 162,-160.3 157.19,-136.17 154.67,-118.01"/>
<polygon fill="black" stroke="black" points="187.69,-212.49 196.78,-217.94 193.07,-208.01 187.69,-212.49"/>
<polygon fill="black" stroke="black" points="158.14,-117.58 153.43,-108.09 151.19,-118.45 158.14,-117.58"/>
</g>
<!-- set2&#45;&gt;set6 -->
<g id="edge12" class="edge">
<title>set2&#45;&gt;set6</title>
<path fill="none" stroke="black" d="M232.83,-210.79C240.07,-201.95 247.24,-191.21 251,-180 256.08,-164.83 255.04,-159.48 251,-144 241.04,-105.85 216.58,-67.01 199.39,-42.97"/>
<polygon fill="black" stroke="black" points="230.18,-208.5 226.25,-218.34 235.46,-213.1 230.18,-208.5"/>
<polygon fill="black" stroke="black" points="202.15,-40.82 193.42,-34.81 196.5,-44.95 202.15,-40.82"/>
</g>
<!-- set3&#45;&gt;set5 -->
<g id="edge13" class="edge">
<title>set3&#45;&gt;set5</title>
<path fill="none" stroke="black" d="M191.31,-137.64C184.97,-130.12 177.94,-121.78 171.6,-114.25"/>
<polygon fill="black" stroke="black" points="188.79,-140.07 197.91,-145.46 194.14,-135.56 188.79,-140.07"/>
<polygon fill="black" stroke="black" points="174.18,-111.88 165.06,-106.49 168.83,-116.39 174.18,-111.88"/>
</g>
<!-- set3&#45;&gt;set6 -->
<g id="edge14" class="edge">
<title>set3&#45;&gt;set6</title>
<path fill="none" stroke="black" d="M205.31,-134.06C199.99,-108.88 192.08,-71.47 186.75,-46.2"/>
<polygon fill="black" stroke="black" points="201.89,-134.81 207.38,-143.87 208.74,-133.36 201.89,-134.81"/>
<polygon fill="black" stroke="black" points="190.12,-45.25 184.63,-36.19 183.27,-46.7 190.12,-45.25"/>
</g>
<!-- set5&#45;&gt;set6 -->
<g id="edge16" class="edge">
<title>set5&#45;&gt;set6</title>
<path fill="none" stroke="black" d="M162.75,-63.06C165.15,-57.26 167.7,-51.1 170.11,-45.29"/>
<polygon fill="black" stroke="black" points="159.47,-61.83 158.87,-72.41 165.93,-64.51 159.47,-61.83"/>
<polygon fill="black" stroke="black" points="173.38,-46.53 173.98,-35.96 166.91,-43.86 173.38,-46.53"/>
</g>
<!-- set4 -->
<g id="node7" class="node">
<title>set4</title>
<ellipse fill="none" stroke="black" cx="329" cy="-90" rx="30.59" ry="18"/>
<text text-anchor="middle" x="329" y="-86.3" font-family="Times,serif" font-size="14.00">set4</text>
</g>
<!-- set4&#45;&gt;set6 -->
<g id="edge15" class="edge">
<title>set4&#45;&gt;set6</title>
<path fill="none" stroke="black" d="M296.56,-73.66C271.99,-62.04 238.39,-46.14 213.75,-34.49"/>
<polygon fill="black" stroke="black" points="295.34,-76.95 305.88,-78.06 298.33,-70.62 295.34,-76.95"/>
<polygon fill="black" stroke="black" points="214.99,-31.2 204.45,-30.09 211.99,-37.53 214.99,-31.2"/>
</g>
<!-- annotation -->
<g id="node8" class="node">
<title>annotation</title>
<text text-anchor="middle" x="278" y="-374.9" font-family="Times,serif" font-size="12.00">Nodes: 7, Edges: 16, Coverage: 0.0</text>
</g>
</g>
</svg>
